<?xml version="1.0" standalone="no"?>
<!DOCTYPE svg PUBLIC "-//W3C//DTD SVG 1.1//EN" "http://www.w3.org/Graphics/SVG/1.1/DTD/svg11.dtd" >
<svg xmlns="http://www.w3.org/2000/svg" xmlns:xlink="http://www.w3.org/1999/xlink" version="1.1">
<metadata>
Created by FontForge 20201107 at Fri Aug 26 06:03:50 2022
 By 
Copyright (c) 2022, RandomMaerks (Bao Nguyen) || For more information, send me an email at: rmforbusiness@gmail.com
</metadata>
<defs>
<font id="RG-StandardSemibold" horiz-adv-x="505" >
  <font-face 
    font-family="Random Grotesque Standard Semibold"
    font-weight="600"
    font-stretch="normal"
    units-per-em="1000"
    panose-1="2 0 7 3 0 0 0 0 0 0"
    ascent="800"
    descent="-200"
    x-height="460"
    cap-height="654"
    bbox="-78 -287 1308 1035"
    underline-thickness="50"
    underline-position="-100"
    unicode-range="U+0020-F0003"
  />
<missing-glyph horiz-adv-x="364" 
d="M33 0v666h265v-666h-265zM66 33h199v600h-199v-600z" />
    <glyph glyph-name="f_i" unicode="fi" horiz-adv-x="534" 
d="M380 583q0 25 17.5 43t42.5 18t43 -18t18 -43t-18 -43t-43 -18t-42.5 18t-17.5 43zM390 460h102v-460h-102v460zM202 0h-102v374h-85v86h85v74q0 84 39 118.5t128 34.5h69v-86h-70q-64 0 -64 -76v-65h188v-86h-188v-374z" />
    <glyph glyph-name="f_f" unicode="ff" horiz-adv-x="653" 
d="M202 0h-102v374h-85v86h85v74q0 84 39 118.5t128 34.5h69v-86h-70q-64 0 -64 -76v-65h145v-86h-145v-374zM494 0h-102v374h-45v86h45v74q0 84 38.5 118.5t127.5 34.5h69v-86h-70q-63 0 -63 -76v-65h144v-86h-144v-374z" />
    <glyph glyph-name="f_l" unicode="fl" horiz-adv-x="552" 
d="M202 0h-102v374h-85v86h85v74q0 84 39 118.5t128 34.5h241l-10 -86h-232q-64 0 -64 -76v-65h145v-86h-145v-374zM406 677l102 10v-687h-102v677z" />
    <glyph glyph-name=".notdef" horiz-adv-x="364" 
d="M33 0v666h265v-666h-265zM66 33h199v600h-199v-600z" />
    <glyph glyph-name=".null" horiz-adv-x="0" 
 />
    <glyph glyph-name="nonmarkingreturn" horiz-adv-x="333" 
 />
    <glyph glyph-name="space" unicode=" " horiz-adv-x="214" 
 />
    <glyph glyph-name="exclam" unicode="!" horiz-adv-x="190" 
d="M52 420v234h88v-234l-16 -258h-56zM36 42q0 25 17.5 42t42 17t41.5 -17t17 -42t-16.5 -41.5t-42 -16.5t-42.5 16.5t-17 41.5z" />
    <glyph glyph-name="quotedbl" unicode="&#x22;" horiz-adv-x="260" 
d="M148 687h90l-54 -199h-44zM32 687h92l-56 -199h-44z" />
    <glyph glyph-name="numbersign" unicode="#" horiz-adv-x="637" 
d="M30 264h542v-86h-542v86zM76 480h532v-86h-532v86zM468 654h106l-182 -654h-108zM250 654h106l-184 -654h-106z" />
    <glyph glyph-name="dollar" unicode="$" horiz-adv-x="427" 
d="M190 687v-687h48v687h-48zM404 234q0 31 -11.5 55.5t-27.5 40t-42 28t-47 19t-50 12.5q-27 6 -43 11t-33.5 12.5t-25.5 18.5t-8 25q0 30 24 48t65 18q86 0 111 -98l82 20q-40 152 -200 152q-77 0 -122.5 -37.5t-45.5 -100.5q0 -34 13.5 -60.5t39 -43.5t51 -27t60.5 -19
l12 -3q22 -6 33.5 -9t29 -10t25.5 -13.5t15 -17t7 -23.5q0 -29 -25 -47.5t-66 -18.5q-93 0 -119 108l-82 -14q16 -81 72 -124.5t136 -43.5q76 0 124 39.5t48 102.5z" />
    <glyph glyph-name="percent" unicode="%" horiz-adv-x="725" 
d="M470 149q0 -83 76 -83q74 0 74 83q0 39 -19.5 60t-54.5 21q-37 0 -56.5 -21t-19.5 -60zM386 149q0 75 43 116.5t117 41.5q68 0 113 -42t45 -116q0 -76 -42.5 -118t-116 -42t-116.5 42t-43 118zM106 508q0 -41 19.5 -62.5t56.5 -21.5q74 0 74 84q0 79 -74 79
q-37 0 -56.5 -20t-19.5 -59zM22 508q0 75 43 116t117 41q68 0 113 -41.5t45 -115.5q0 -76 -42.5 -118.5t-116 -42.5t-116.5 42.5t-43 118.5zM544 654h114l-474 -654h-116z" />
    <glyph glyph-name="ampersand" unicode="&#x26;" horiz-adv-x="560" 
d="M352 78q-17 -38 -60.5 -66t-87.5 -28q-79 0 -127.5 45.5t-48.5 121.5q0 117 116 187v13q-82 76 -82 167q0 65 47 106t125 41q76 0 123.5 -42t60.5 -120l-98 -19q-13 92 -81 92q-33 0 -52 -20t-19 -54q0 -22 11 -42.5t43 -61.5l90 -122l44 -80h14q30 65 42 153l94 -20
q-16 -113 -74 -196l100 -133h-112l-52 78h-16zM302 130l-112 142l-24 -27q-34 -42 -34 -93q0 -36 22 -57.5t58 -21.5q55 0 90 57z" />
    <glyph glyph-name="quotesingle" unicode="'" horiz-adv-x="147" 
d="M32 687h92l-56 -199h-44z" />
    <glyph glyph-name="parenleft" unicode="(" horiz-adv-x="312" 
d="M238 -124q-95 53 -152.5 155t-57.5 250t57.5 249t152.5 154l46 -76q-70 -38 -119 -125.5t-49 -201.5t49 -202.5t119 -126.5z" />
    <glyph glyph-name="parenright" unicode=")" horiz-adv-x="312" 
d="M74 684q96 -53 153 -155t57 -250t-57 -249t-153 -154l-46 76q71 38 119.5 125.5t48.5 201.5t-48.5 202.5t-119.5 126.5z" />
    <glyph glyph-name="asterisk" unicode="*" horiz-adv-x="299" 
d="M114 730h72l-26 -101l14 -7l75 72l36 -61l-99 -31v-14l99 -30l-35 -60l-76 70l-14 -7l26 -101h-70l24 101l-14 7l-74 -71l-36 61l99 30v14l-99 30l35 60l75 -70l14 7z" />
    <glyph glyph-name="plus" unicode="+" horiz-adv-x="382" 
d="M234 318h134v-86h-134v-133h-86v133h-132v86h132v132h86v-132z" />
    <glyph glyph-name="comma" unicode="," horiz-adv-x="190" 
d="M36 52q0 25 17.5 42t42 17t41.5 -17t17 -42q0 -101 -35 -145t-93 -44l-10 57q49 0 79 23t37 66q-13 -15 -36 -15q-26 0 -43 16.5t-17 41.5z" />
    <glyph glyph-name="hyphen" unicode="-" horiz-adv-x="382" 
d="M16 318h352v-86h-352v86z" />
    <glyph glyph-name="period" unicode="." horiz-adv-x="190" 
d="M36 52q0 25 17.5 42t42 17t41.5 -17t17 -42t-16.5 -41.5t-42 -16.5t-42.5 16.5t-17 41.5z" />
    <glyph glyph-name="slash" unicode="/" horiz-adv-x="377" 
d="M227 654h107l-183 -654h-107z" />
    <glyph glyph-name="zero" unicode="0" horiz-adv-x="526" 
d="M131 324q0 -248 132 -248t132 248q0 129 -33.5 188t-98.5 59q-132 0 -132 -247zM28 324q0 175 62 258t173 83q104 0 169.5 -84.5t65.5 -256.5q0 -175 -62.5 -259t-172.5 -84t-172.5 84t-62.5 259z" />
    <glyph glyph-name="one" unicode="1" horiz-adv-x="316" 
d="M272 0h-102v451l-155 -19v96l152 22l10 104h95v-654z" />
    <glyph glyph-name="two" unicode="2" horiz-adv-x="472" 
d="M128 109l59 36l108 94q71 53 110.5 116.5t39.5 124.5q0 85 -58 137.5t-151 52.5q-180 0 -214 -200l96 -20q23 126 117 126q48 0 77.5 -26.5t29.5 -71.5q0 -93 -103 -171l-217 -173v-134h428v92h-321z" />
    <glyph glyph-name="three" unicode="3" horiz-adv-x="479" 
d="M336 334q53 9 84 49t31 99q0 84 -57.5 136t-148.5 52t-146 -50.5t-71 -149.5l96 -20q12 65 40.5 95.5t78.5 30.5q47 0 76 -28.5t29 -74.5t-22 -74t-57 -28h-96v-87h96q36 0 57.5 -27.5t21.5 -73.5t-29 -74.5t-76 -28.5q-50 0 -78.5 35.5t-40.5 110.5l-96 -19
q16 -109 71.5 -165t145.5 -56q91 0 148.5 52t57.5 136q0 59 -31 99t-84 49v12z" />
    <glyph glyph-name="four" unicode="4" 
d="M274 626l-121 -269l-31 -40l1 -16l361 1v-91h-463v102l152 345zM418 0h-102v654h102v-654z" />
    <glyph glyph-name="five" unicode="5" horiz-adv-x="480" 
d="M28 286h101v90l-24 8l24 92v174l-101 4v-368zM28 654l11 -91h385v91h-396zM129 286q0 48 30 77t79 29q112 0 112 -159q0 -77 -26 -119.5t-73 -42.5q-42 0 -73.5 29.5t-42.5 79.5l-100 -24q20 -83 78 -131.5t136 -48.5q93 0 148 70t55 188q0 114 -50.5 178t-141.5 64
q-72 0 -110.5 -49t-38.5 -140z" />
    <glyph glyph-name="six" unicode="6" horiz-adv-x="493" 
d="M356 489q-9 40 -34 63.5t-59 23.5q-51 0 -80.5 -35.5t-41.5 -122.5l-31 -94l22 -10q-1 -28 -1 -82l-103 32q0 219 58 312.5t173 93.5q67 0 121 -42t74 -109zM131 232q0 -71 35.5 -116t90.5 -45q49 0 77 37.5t28 103.5t-32 101.5t-85 35.5q-55 0 -84.5 -34t-29.5 -83z
M28 264l90 -26q0 88 45 141.5t112 53.5q80 0 135 -63t55 -163q0 -106 -56.5 -168.5t-151.5 -62.5t-162 77.5t-67 210.5z" />
    <glyph glyph-name="seven" unicode="7" horiz-adv-x="474" 
d="M140 0h106l200 531v123h-418v-91h336v-18l-47 -81z" />
    <glyph glyph-name="eight" unicode="8" horiz-adv-x="479" 
d="M240 -14q93 0 152 49t59 127q0 116 -132 176v12q121 54 121 151q0 75 -55.5 122t-144.5 47t-145 -47t-56 -122q0 -103 122 -161v-12q-133 -57 -133 -166q0 -78 59.5 -127t152.5 -49zM240 576q44 0 70.5 -24.5t26.5 -65.5q0 -39 -22 -60.5t-75 -39.5q-53 18 -75.5 39.5
t-22.5 60.5q0 41 27 65.5t71 24.5zM348 178q0 -44 -29.5 -71t-78.5 -27t-79 27t-30 71t26 69.5t83 43.5q56 -18 82 -43.5t26 -69.5z" />
    <glyph glyph-name="nine" unicode="9" horiz-adv-x="493" 
d="M137 157q9 -40 34 -63.5t59 -23.5q51 0 80.5 35.5t41.5 122.5l31 94l-22 10q1 28 1 82l103 -32q0 -220 -58 -313t-173 -93q-67 0 -121 41.5t-74 108.5zM362 414q0 71 -35.5 116.5t-90.5 45.5q-49 0 -77 -38t-28 -104t32 -101.5t85 -35.5q55 0 84.5 34t29.5 83zM465 382
l-90 26q0 -88 -45 -142t-112 -54q-80 0 -135 63t-55 163q0 106 56.5 169t151.5 63t162 -77.5t67 -210.5z" />
    <glyph glyph-name="colon" unicode=":" horiz-adv-x="190" 
d="M36 378q0 25 17.5 42t42 17t41.5 -17t17 -42t-17 -42t-41.5 -17t-42 17t-17.5 42zM36 140q0 25 17.5 42t42 17t41.5 -17t17 -42t-16.5 -41.5t-42 -16.5t-42.5 16.5t-17 41.5z" />
    <glyph glyph-name="semicolon" unicode=";" horiz-adv-x="190" 
d="M36 141q0 25 17.5 42t42 17t41.5 -17t17 -42q0 -101 -35 -145t-93 -44l-10 57q49 0 79 23t37 66q-13 -15 -36 -15q-26 0 -43 16.5t-17 41.5zM37 378q0 25 17 42t42 17t42 -17t17 -42t-17 -42t-42 -17t-42 17t-17 42z" />
    <glyph glyph-name="less" unicode="&#x3c;" horiz-adv-x="411" 
d="M154 250l224 -77v-89l-344 125v113l344 126v-90l-224 -76l-54 -10v-13z" />
    <glyph glyph-name="equal" unicode="=" horiz-adv-x="382" 
d="M16 235h352v-86h-352v86zM16 401h352v-86h-352v86z" />
    <glyph glyph-name="greater" unicode="&#x3e;" horiz-adv-x="411" 
d="M258 282l-224 76v90l344 -126v-112l-344 -126v90l224 76l55 10v12z" />
    <glyph glyph-name="question" unicode="?" horiz-adv-x="433" 
d="M262 161q0 55 12 87t38 53q2 2 20 17t23 20.5t18.5 22t18.5 30.5t9.5 37.5t4.5 51.5q0 81 -50 133t-136 52q-81 0 -131 -47t-62 -136l96 -20q15 112 95 112q41 0 63.5 -25.5t22.5 -64.5q0 -24 -3.5 -43.5t-14 -36.5t-15.5 -24t-20.5 -22.5l-16.5 -16.5q-52 -51 -52 -180
h80zM166 42q0 25 17.5 42t42 17t41.5 -17t17 -42t-16.5 -41.5t-42 -16.5t-42.5 16.5t-17 41.5z" />
    <glyph glyph-name="at" unicode="@" horiz-adv-x="721" 
d="M604 320q0 -56 -15.5 -93.5t-38.5 -37.5q-12 0 -21 9.5t-9 22.5v183q0 55 -45.5 91.5t-114.5 36.5q-64 0 -106 -35t-50 -96l78 -19q3 38 24 59t54.5 21t54.5 -19t21 -50v-14l-126 -38q-106 -33 -106 -109q0 -48 33 -78t87 -30q48 0 82.5 33.5t45.5 90.5l12 -4l-14 -42
q0 -34 32 -58.5t68 -24.5q67 0 105.5 53t38.5 148q0 172 -91.5 266t-250.5 94q-150 0 -237 -95t-87 -261q0 -168 89 -263t245 -95q40 0 76 8l-10 82q-21 -5 -62 -5q-119 0 -184.5 71t-65.5 202q0 129 64.5 200.5t180 71.5t179.5 -72t64 -204zM286 239q0 35 44 48l106 32v-45
q0 -33 -26.5 -54t-67.5 -21q-56 0 -56 40z" />
    <glyph glyph-name="A" unicode="A" horiz-adv-x="636" 
d="M164 270h311v-96h-311v96zM300 515l-174 -515h-111l223 654h158l225 -654h-109l-177 515l-11 55h-13z" />
    <glyph glyph-name="B" unicode="B" horiz-adv-x="553" 
d="M146 97h145q132 0 132 90q0 91 -132 91h-145v-181zM146 375h145q63 0 92 23.5t29 69.5q0 47 -28.5 68.5t-92.5 21.5h-145v-183zM381 333v-13q65 -13 104.5 -54.5t39.5 -98.5q0 -76 -60 -121.5t-163 -45.5h-258v654h258q102 0 157.5 -46t55.5 -124q0 -59 -35 -99.5
t-99 -51.5z" />
    <glyph glyph-name="C" unicode="C" horiz-adv-x="600" 
d="M569 444l-99 -20q-39 147 -161 147q-84 0 -131 -64.5t-47 -182.5q0 -116 47 -179.5t131 -63.5q63 0 107 42.5t56 119.5l100 -21q-21 -115 -92 -178t-171 -63q-129 0 -205 90.5t-76 252.5q0 164 76 255t205 91q90 0 159.5 -59t100.5 -167z" />
    <glyph glyph-name="D" unicode="D" horiz-adv-x="564" 
d="M44 0v654h226q118 0 192 -92t74 -238q0 -145 -73.5 -234.5t-192.5 -89.5h-226zM146 98h113q84 0 129.5 60t45.5 171q0 110 -45.5 169.5t-129.5 59.5h-113v-460z" />
    <glyph glyph-name="E" unicode="E" horiz-adv-x="534" 
d="M44 654h465v-96h-363v-183h348v-97h-348v-181h363v-97h-465v654z" />
    <glyph glyph-name="F" unicode="F" horiz-adv-x="534" 
d="M44 654h465v-96h-363v-183h348v-97h-348v-278h-102v654z" />
    <glyph glyph-name="G" unicode="G" horiz-adv-x="600" 
d="M569 444q-31 109 -102 167.5t-167 58.5q-123 0 -197.5 -93.5t-74.5 -261.5q0 -155 71.5 -244.5t179.5 -89.5q96 0 154 74.5t58 185.5h-21q0 -73 -46 -116.5t-117 -43.5q-78 0 -127 64.5t-49 178.5q0 118 46 182.5t128 64.5q126 0 165 -147zM241 337v-96h229v-67l37 -13
l-37 -160h102v336h-331z" />
    <glyph glyph-name="H" unicode="H" horiz-adv-x="586" 
d="M94 380h387v-97h-387v97zM439 654h103v-654h-103v654zM44 654h102v-654h-102v654z" />
    <glyph glyph-name="I" unicode="I" horiz-adv-x="190" 
d="M44 654h102v-654h-102v654z" />
    <glyph glyph-name="J" unicode="J" horiz-adv-x="507" 
d="M463 654h-103v-470q0 -47 -31 -76.5t-83 -29.5t-84.5 34t-38.5 89l-98 -25q12 -84 71.5 -138t151.5 -54q96 0 155.5 53.5t59.5 135.5v481z" />
    <glyph glyph-name="K" unicode="K" horiz-adv-x="575" 
d="M44 654h102v-310l284 310h130l-262 -300l262 -354h-138l-206 286l-70 -68v-218h-102v654z" />
    <glyph glyph-name="L" unicode="L" horiz-adv-x="534" 
d="M44 654h102v-557h363v-97h-465v654z" />
    <glyph glyph-name="M" unicode="M" horiz-adv-x="812" 
d="M419 143l214 511h135v-654h-98v498l-202 -498h-124l-198 498v-498h-102v654h140l209 -511l12 -44z" />
    <glyph glyph-name="N" unicode="N" horiz-adv-x="606" 
d="M459 654h103v-654h-135l-281 508v-508h-102v654h134l281 -506v506z" />
    <glyph glyph-name="O" unicode="O" horiz-adv-x="611" 
d="M131 327q0 -117 46.5 -181.5t128.5 -64.5t128 64.5t46 181.5t-46 183t-128 66t-128.5 -66t-46.5 -183zM28 327q0 163 75.5 255.5t202.5 92.5q119 0 198 -94t79 -254q0 -163 -74.5 -254.5t-202.5 -91.5t-203 91.5t-75 254.5z" />
    <glyph glyph-name="P" unicode="P" horiz-adv-x="537" 
d="M44 0v654h247q99 0 161.5 -58.5t62.5 -149.5q0 -89 -62 -144t-162 -55h-145v-247h-102zM146 343h135q63 0 97 27.5t34 78.5q0 53 -34 81t-97 28h-135v-215z" />
    <glyph glyph-name="Q" unicode="Q" horiz-adv-x="611" 
d="M524 -37l-264 307l73 68l263 -307zM131 325.5q0 -116.5 46.5 -180.5t128.5 -64t128 64t46 180.5t-46 181t-128 64.5t-128.5 -64.5t-46.5 -181zM28 326q0 162 75 253t203 91q119 0 198 -92.5t79 -251.5q0 -164 -74.5 -254.5t-202.5 -90.5t-203 90.5t-75 254.5z" />
    <glyph glyph-name="R" unicode="R" horiz-adv-x="537" 
d="M258 276h111l146 -276h-110zM44 0v654h252q98 0 158.5 -60.5t60.5 -153.5q0 -89 -59.5 -143.5t-159.5 -54.5h-150v-242h-102zM146 338h140q126 0 126 106q0 54 -32 84t-94 30h-140v-220z" />
    <glyph glyph-name="S" unicode="S" horiz-adv-x="521" 
d="M493 173q0 -89 -59 -142t-154.5 -53t-160.5 52.5t-91 157.5l96 21q41 -132 153 -132q50 0 81.5 26t31.5 68q0 19 -8.5 34.5t-19.5 25t-33.5 18.5t-38 13.5t-46.5 11.5l-9 3q-34 8 -59.5 17t-54 25t-46 36t-29.5 50.5t-12 68.5q0 90 57.5 143t156.5 53q92 0 154.5 -48.5
t85.5 -145.5l-95 -21q-14 57 -50 86.5t-91 29.5q-54 0 -85 -26t-31 -69q0 -20 8 -35.5t19.5 -26t33.5 -19.5t39.5 -14.5t48.5 -12.5q36 -10 59.5 -17.5t54.5 -23.5t49.5 -35t31.5 -50t13 -69z" />
    <glyph glyph-name="T" unicode="T" horiz-adv-x="552" 
d="M27 654h498v-96h-198v-558h-103v558h-197v96z" />
    <glyph glyph-name="U" unicode="U" horiz-adv-x="577" 
d="M146 654v-429q0 -68 37.5 -105.5t106.5 -37.5q68 0 104 37t36 106v429h103v-440q0 -100 -68.5 -165t-174.5 -65q-110 0 -178 63.5t-68 166.5v440h102z" />
    <glyph glyph-name="V" unicode="V" horiz-adv-x="636" 
d="M336 140l175 514h110l-223 -654h-158l-225 654h110l177 -514l10 -56h14z" />
    <glyph glyph-name="W" unicode="W" horiz-adv-x="981" 
d="M476 502l-122 -502h-159l-180 654h105l140 -499l10 -56h12l10 56l126 499h142l128 -499l10 -56h13l9 56l142 499h104l-180 -654h-160l-123 502l-7 60h-12z" />
    <glyph glyph-name="X" unicode="X" horiz-adv-x="610" 
d="M322 398l160 256h113l-205 -328l204 -326h-112l-160 256l-10 39h-13l-11 -39l-160 -256h-113l205 326l-205 328h113l160 -256l11 -39h13z" />
    <glyph glyph-name="Y" unicode="Y" horiz-adv-x="612" 
d="M370 263l227 391h-115l-159 -284l-10 -38h-13l-11 38l-158 284h-116l227 -391h14v-263h102v263h12z" />
    <glyph glyph-name="Z" unicode="Z" horiz-adv-x="551" 
d="M33 654h485v-120l-311 -364l-85 -71v-12h396v-87h-485v121l329 381l73 54v12h-402v86z" />
    <glyph glyph-name="bracketleft" unicode="[" horiz-adv-x="318" 
d="M44 676v-784h246v87h-159v611h159v86h-246z" />
    <glyph glyph-name="backslash" unicode="\" horiz-adv-x="377" 
d="M151 654l183 -654h-107l-183 654h107z" />
    <glyph glyph-name="bracketright" unicode="]" horiz-adv-x="318" 
d="M275 -108v784h-247v-86h160v-612h-160v-86h247z" />
    <glyph glyph-name="asciicircum" unicode="^" horiz-adv-x="390" 
d="M180 646l-68 -108h-88l115 162h113l115 -162h-87l-69 108l-9 22h-12z" />
    <glyph glyph-name="underscore" unicode="_" horiz-adv-x="452" 
d="M16 39h422v-71h-422v71z" />
    <glyph glyph-name="grave" unicode="`" horiz-adv-x="236" 
d="M24 697h97l91 -167h-66z" />
    <glyph glyph-name="a" unicode="a" horiz-adv-x="475" 
d="M131 128q0 -28 22.5 -42t59.5 -14q51 0 83 29t32 74h18q0 -88 -46 -141t-121 -53q-65 0 -108 37t-43 95q0 52 31.5 82.5t97.5 49.5l171 45v-70l-136 -35q-61 -16 -61 -57zM431 0h-103l30 117l-30 13v174q0 38 -26 61t-69 23q-44 0 -71.5 -26.5t-32.5 -68.5l-101 15
q11 75 66 123t141 48q87 0 141.5 -47.5t54.5 -116.5v-315z" />
    <glyph glyph-name="b" unicode="b" horiz-adv-x="529" 
d="M146 231.5q0 -76.5 33.5 -118.5t93.5 -42q59 0 92 41.5t33 118.5t-33 119t-92 42q-60 0 -93.5 -42t-33.5 -118.5zM122 231q0 119 48 184.5t135 65.5q85 0 140.5 -68.5t55.5 -184.5q0 -113 -53 -180t-139 -67q-89 0 -138 65.5t-49 184.5zM44 687h102v-227l-30 -119l30 -11
v-200l-30 -11l30 -119h-102v687z" />
    <glyph glyph-name="c" unicode="c" horiz-adv-x="502" 
d="M473 304l-97 -15q-28 103 -120 103q-59 0 -92 -41.5t-33 -118.5t33 -119t92 -42q48 0 80.5 29.5t41.5 82.5l99 -15q-17 -89 -77 -138t-144 -49q-104 0 -166 66t-62 185q0 118 62 183.5t166 65.5q76 0 134 -46t83 -131z" />
    <glyph glyph-name="d" unicode="d" horiz-adv-x="531" 
d="M379 231q0 77 -32 119t-90 42q-60 0 -93 -41.5t-33 -119.5q0 -77 33 -118.5t93 -41.5q58 0 90 41.5t32 118.5zM402 231q0 -120 -47.5 -185t-133.5 -65t-139.5 66.5t-53.5 180.5q0 119 57 186t141 67q83 0 129.5 -65t46.5 -185zM487 687v-687h-108l29 119l-29 11v200
l31 11l-31 119v227h108z" />
    <glyph glyph-name="e" unicode="e" 
d="M132 203q5 -64 39 -98t92 -34q46 0 76.5 23t38.5 64l99 -16q-17 -75 -74.5 -118t-139.5 -43q-110 0 -172.5 67t-62.5 184q0 116 60 182.5t164 66.5q105 0 165 -67t60 -176v-35h-345zM134 275h239q0 51 -34.5 84t-86.5 33q-50 0 -80.5 -30.5t-37.5 -86.5z" />
    <glyph glyph-name="f" unicode="f" horiz-adv-x="362" 
d="M202 0h-102v374h-85v86h85v74q0 84 39 118.5t128 34.5h69v-86h-70q-64 0 -64 -76v-65h145v-86h-145v-374z" />
    <glyph glyph-name="g" unicode="g" horiz-adv-x="451" 
d="M31 318q0 73 51.5 118t139.5 45q91 0 146.5 -49t55.5 -130q0 -73 -48 -119t-125 -46q-16 10 -83 12v18q-64 4 -100.5 45.5t-36.5 105.5zM134 308q0 -42 25 -65.5t69 -23.5t69 23.5t25 65.5q0 41 -24.5 63.5t-69.5 22.5t-69.5 -22.5t-24.5 -63.5zM372 495q-33 0 -33 -24
q0 -11 19 -33l-53 18l11 21q-30 21 -30 48q0 25 21.5 39t60.5 14h83v-83h-79zM15 -95q0 49 42 78t114 29v12q-109 18 -109 72q0 32 39.5 46.5t126.5 14.5l23 -20q-46 0 -65 -4t-19 -13q0 -18 76 -36q107 -24 152.5 -62.5t45.5 -96.5q0 -70 -57 -110.5t-156 -40.5
q-98 0 -155.5 35.5t-57.5 95.5zM117 -69q0 -30 30 -47.5t83 -17.5q51 0 79.5 17t28.5 47q0 23 -18.5 36t-80.5 34q-56 0 -89 -18.5t-33 -50.5z" />
    <glyph glyph-name="h" unicode="h" horiz-adv-x="500" 
d="M353 287q0 47 -28 75.5t-73 28.5q-46 0 -76 -29.5t-30 -76.5h-16q0 82 46.5 138t119.5 56q68 0 114 -52.5t46 -128.5v-298h-103v287zM146 460l-28 -120l28 -10v-330h-102v687h102v-227z" />
    <glyph glyph-name="i" unicode="i" horiz-adv-x="187" 
d="M33 583q0 25 18 43t42.5 18t42.5 -18t18 -43t-18 -43t-42.5 -18t-42.5 18t-18 43zM44 460h102v-460h-102v460z" />
    <glyph glyph-name="j" unicode="j" horiz-adv-x="187" 
d="M33 583q0 25 18 43t42.5 18t42.5 -18t18 -43t-18 -43t-42.5 -18t-42.5 18t-18 43zM44 460h102v-494q0 -68 -44 -108.5t-118 -40.5h-42v98h42q24 0 42 20.5t18 51.5v473z" />
    <glyph glyph-name="k" unicode="k" horiz-adv-x="488" 
d="M44 687h102v-442l205 215h125l-190 -212l190 -248h-124l-140 186l-66 -67v-119h-102v687z" />
    <glyph glyph-name="l" unicode="l" horiz-adv-x="190" 
d="M44 687h102v-687h-102v687z" />
    <glyph glyph-name="m" unicode="m" horiz-adv-x="780" 
d="M633 282q0 51 -25 80t-72 29q-45 0 -69.5 -30.5t-24.5 -80.5h-18q0 91 42.5 145t117.5 54q68 0 110 -53t42 -133v-293h-103v282zM338 282q0 50 -23.5 79.5t-67.5 29.5q-47 0 -74 -30.5t-27 -80.5h-16q0 90 41.5 144.5t110.5 54.5q51 0 90.5 -42.5t39.5 -99.5v-5l30 -8
v-324h-104v282zM44 460h102l-28 -120l28 -10v-330h-102v460z" />
    <glyph glyph-name="n" unicode="n" horiz-adv-x="500" 
d="M353 287q0 47 -28 75.5t-73 28.5q-46 0 -76 -29.5t-30 -76.5h-16q0 82 46 138t120 56q68 0 114 -52.5t46 -128.5v-298h-103v287zM44 460h102l-28 -120l28 -10v-330h-102v460z" />
    <glyph glyph-name="o" unicode="o" 
d="M131 232q0 -78 32 -119.5t89 -41.5q58 0 90 42t32 119t-32.5 118.5t-89.5 41.5t-89 -41.5t-32 -118.5zM28 232q0 118 60.5 183.5t163.5 65.5q97 0 161 -66.5t64 -182.5q0 -119 -61 -185t-164 -66t-163.5 66t-60.5 185z" />
    <glyph glyph-name="p" unicode="p" horiz-adv-x="530" 
d="M146 229q0 77 34 119t94 42q59 0 92 -42t33 -119q0 -78 -33 -119.5t-92 -41.5q-60 0 -94 42t-34 119zM123 229q0 -120 46.5 -185t130.5 -65q86 0 144 67t58 186q0 114 -55 180.5t-143 66.5q-85 0 -133 -65t-48 -185zM44 -196h102v196l-30 119l30 11v200l-29 11l29 119
h-102v-656z" />
    <glyph glyph-name="q" unicode="q" horiz-adv-x="530" 
d="M384 229q0 77 -33.5 119t-93.5 42t-93 -42t-33 -119t33 -119t93 -42t93.5 42t33.5 119zM407 229q0 -120 -48 -185t-134 -65t-141.5 68.5t-55.5 184.5q0 113 53 180t139 67q89 0 138 -65.5t49 -184.5zM486 -196h-102v196l30 119l-30 11v200l29 11l-29 119h102v-656z" />
    <glyph glyph-name="r" unicode="r" horiz-adv-x="338" 
d="M44 460h102l-30 -119l30 -11v-330h-102v460zM276 369q-53 0 -91.5 -30.5t-38.5 -78.5l-15 25q0 82 42.5 131t112.5 49h37v-96h-47z" />
    <glyph glyph-name="s" unicode="s" horiz-adv-x="436" 
d="M408 120q0 -63 -48 -102.5t-124 -39.5q-79 0 -135.5 43t-72.5 124l97 15q23 -98 105 -98q33 0 54 17t21 44q0 12 -5.5 21.5t-12.5 15.5t-22 12.5t-25 9.5t-29 9q-9 2 -13 3q-29 9 -48 15.5t-43 19.5t-38.5 27t-24.5 37t-10 51q0 63 45.5 100t122.5 37q161 0 201 -151
l-98 -20q-21 87 -95 87q-34 0 -54 -15t-20 -40q0 -14 7 -25t22 -18.5t28.5 -12.5t36.5 -12q4 -1 11 -3q22 -6 34 -10t32.5 -12t32 -15t26.5 -19t23 -25t13.5 -31t5.5 -39z" />
    <glyph glyph-name="t" unicode="t" horiz-adv-x="362" 
d="M202 374v-214q0 -49 12 -61t54 -12h79v-87h-108q-68 0 -103.5 32.5t-35.5 116.5v225h-85v86h85v135l102 11v-146h145v-86h-145z" />
    <glyph glyph-name="u" unicode="u" horiz-adv-x="500" 
d="M146 173q0 -49 28.5 -79t73.5 -30q46 0 76 31t30 80h16q0 -82 -46.5 -138t-119.5 -56q-68 0 -114 52.5t-46 128.5v298h102v-287zM456 0h-102l28 120l-28 10v330h102v-460z" />
    <glyph glyph-name="v" unicode="v" horiz-adv-x="489" 
d="M262 145l101 315h111l-153 -460h-153l-153 460h110l102 -315l11 -56h13z" />
    <glyph glyph-name="w" unicode="w" horiz-adv-x="772" 
d="M372 307l-76 -307h-154l-127 460h105l84 -305l8 -56h13l11 56l79 305h142l80 -305l10 -56h13l8 56l85 305h104l-126 -460h-154l-77 307l-8 61h-12z" />
    <glyph glyph-name="x" unicode="x" horiz-adv-x="489" 
d="M262 303l98 157h114l-145 -228l145 -232h-113l-99 162l-11 39h-13l-11 -39l-99 -162h-113l145 232l-145 228h113l99 -157l11 -39h13z" />
    <glyph glyph-name="y" unicode="y" horiz-adv-x="489" 
d="M262 150l101 310h111l-196 -546q-17 -48 -51 -74.5t-75 -26.5h-112l-1 94h73q25 0 38.5 10.5t21.5 38.5l12 44l-169 460h110l102 -310l11 -56h13z" />
    <glyph glyph-name="z" unicode="z" horiz-adv-x="409" 
d="M28 460h353v-126l-199 -188l-58 -46v-13h257v-87h-353v131l203 198l53 32v13h-256v86z" />
    <glyph glyph-name="braceleft" unicode="{" horiz-adv-x="314" 
d="M256 685l30 -76q-36 -27 -57 -63t-21 -92q0 -68 -23.5 -113.5t-62.5 -56.5v-12q39 -11 62.5 -56t23.5 -113q0 -95 78 -151l-30 -75q-65 27 -100.5 86t-35.5 149q0 56 -16.5 89.5t-43.5 33.5h-32v87h32q27 0 43.5 33.5t16.5 89.5q0 180 136 240z" />
    <glyph glyph-name="bar" unicode="|" horiz-adv-x="189" 
d="M44 784h102v-968h-102v968z" />
    <glyph glyph-name="braceright" unicode="}" horiz-adv-x="314" 
d="M60 -123l-32 75q37 28 57.5 64t20.5 92q0 68 24 113.5t64 56.5v12q-40 11 -64 56t-24 113q0 94 -78 151l32 75q64 -27 99 -86t35 -149q0 -56 17 -89.5t45 -33.5h30v-87h-30q-28 0 -45 -33.5t-17 -89.5q0 -180 -134 -240z" />
    <glyph glyph-name="asciitilde" unicode="~" horiz-adv-x="311" 
d="M251 333q0 -65 -27 -65q-12 0 -23 6.5t-15 11t-16 18.5q-10 12 -18 19t-23.5 13.5t-34.5 6.5q-45 0 -69 -30.5t-24 -88.5l59 -8q0 69 32 69q9 0 18 -4.5t13 -8t14.5 -15t12.5 -14.5q33 -34 75 -34q86 0 86 117z" />
    <glyph glyph-name="exclamdown" unicode="&#xa1;" horiz-adv-x="190" 
d="M140 142v-235h-88v235l16 257h56zM154 519q0 -25 -17 -42t-41.5 -17t-42 17t-17.5 42t17 42t42.5 17t42 -17t16.5 -42z" />
    <glyph glyph-name="cent" unicode="&#xa2;" 
d="M230 687v-687h47v687h-47zM474 424q-26 85 -84 130.5t-134 45.5q-103 0 -165.5 -65t-62.5 -183q0 -119 62.5 -185.5t165.5 -66.5q84 0 144.5 49t77.5 138l-100 15q-9 -53 -41.5 -82.5t-80.5 -29.5q-58 0 -91 42t-33 120q0 76 33 118t91 42q45 0 76 -27t44 -77z" />
    <glyph glyph-name="sterling" unicode="&#xa3;" horiz-adv-x="457" 
d="M384 272v86h-346v-86h346zM28 97v-97h412v97h-194l-118 -35l-12 35h-88zM108 388q33 -85 33 -162q0 -57 -28.5 -93t-84.5 -36l2 -24q107 0 158.5 43.5t51.5 114.5q0 83 -29 158q-34 82 -34 124q0 31 17 49.5t48 18.5q33 0 58 -33t34 -92l94 25q-13 89 -64 139t-124 50
q-76 0 -121 -38.5t-45 -102.5q0 -55 34 -141z" />
    <glyph glyph-name="currency" unicode="&#xa4;" horiz-adv-x="320" 
d="M205 394l44 44l43 -43l-45 -44zM246 264l46 -47l-42 -42l-46 47zM120 224l-48 -49l-43 44l48 47zM74 351l-45 44l43 43l45 -44zM161 253q22 0 38 16.5t16 39.5q0 22 -16 38t-38 16t-38 -16t-16 -38q0 -23 16 -39.5t38 -16.5zM50 309q0 46 32.5 78t78.5 32t78.5 -32
t32.5 -78q0 -47 -32 -79t-79 -32t-79 32t-32 79z" />
    <glyph glyph-name="yen" unicode="&#xa5;" horiz-adv-x="540" 
d="M336 342l181 312h-115l-113 -204l-10 -38h-13l-11 38l-115 204h-116l184 -312h13v-342h103v342h12zM102 301v-77h340v77h-340zM102 166v-76h340v76h-340z" />
    <glyph glyph-name="brokenbar" unicode="&#xa6;" horiz-adv-x="189" 
d="M44 231h102v-415h-102v415zM44 784h102v-415h-102v415z" />
    <glyph glyph-name="section" unicode="&#xa7;" horiz-adv-x="452" 
d="M210 408q71 -22 91.5 -36t20.5 -43t-22.5 -47.5t-55.5 -18.5q-72 22 -92 35.5t-20 42.5t22 48t56 19zM148 422q-56 -9 -88 -37t-32 -71q0 -50 39 -77.5t145 -53.5q57 -14 77.5 -29t20.5 -40q0 -24 -19.5 -38t-52.5 -14q-83 0 -106 85l-98 -17q41 -157 204 -157
q79 0 127.5 37.5t48.5 98.5q0 47 -25 75.5t-81 47.5v17q55 9 85.5 38.5t30.5 73.5q0 48 -39 75t-145 52q-56 14 -77 28t-21 39q0 24 20 38.5t54 14.5q82 0 106 -85l96 18q-40 156 -202 156q-80 0 -128 -37t-48 -98q0 -48 25 -78t83 -49v-13z" />
    <glyph glyph-name="dieresis" unicode="&#xa8;" horiz-adv-x="381" 
d="M255 666q8 17 25.5 23.5t35.5 -1.5q17 -8 23.5 -26t-1.5 -35t-26 -24t-36 1q-16 9 -22.5 27t1.5 35zM44 666q9 17 26.5 23.5t34.5 -1.5t24 -26t-1 -35q-9 -17 -27 -24t-35 1q-17 9 -23.5 27t1.5 35z" />
    <glyph glyph-name="copyright" unicode="&#xa9;" horiz-adv-x="721" 
d="M536 387l-82 -15q-23 80 -92 80q-46 0 -71 -32.5t-25 -93.5q0 -62 25 -95.5t71 -33.5q36 0 61.5 24t32.5 68l84 -15q-15 -74 -63.5 -115t-114.5 -41q-84 0 -134 55t-50 153t50 152t134 54q61 0 107.5 -37.5t66.5 -107.5zM96 324q0 -88 37.5 -153.5t97 -97.5t130 -32
t130 32t97.5 98t38 153t-38 152.5t-97.5 97.5t-130 32t-130 -32t-97 -97.5t-37.5 -152.5zM28 324q0 81 28 147.5t74.5 109.5t106 66t123.5 23q61 0 119.5 -23.5t106.5 -65.5t78 -109.5t30 -147.5q0 -81 -28 -148t-75 -110t-106.5 -66.5t-124 -23.5t-124 23.5t-106 66.5
t-74.5 110t-28 148z" />
    <glyph glyph-name="ordfeminine" unicode="&#xaa;" horiz-adv-x="352" 
d="M22 308h311v-66h-311v66zM116 446q0 -30 47 -30q34 0 55 15.5t21 40.5h12q0 -55 -31 -90t-79 -35q-45 0 -73 25t-28 65q0 37 24 60.5t67 28.5l108 13v-54l-83 -7q-40 -5 -40 -32zM314 362h-75l20 69l-20 7v109q0 21 -18 34.5t-46 13.5t-46 -13.5t-21 -35.5l-68 15
q8 48 44.5 76t90.5 28q59 0 99 -32t40 -81v-190z" />
    <glyph glyph-name="guillemotleft" unicode="&#xab;" horiz-adv-x="535" 
d="M372 250l130 -78v-92l-225 129v113l225 122v-92l-130 -70l-44 -10v-13zM128 250l131 -78v-92l-225 129v113l225 122v-92l-131 -70l-44 -10v-13z" />
    <glyph glyph-name="logicalnot" unicode="&#xac;" horiz-adv-x="378" 
d="M281 284h-247v66h312v-162h-65v96z" />
    <glyph glyph-name="uni00AD" unicode="&#xad;" horiz-adv-x="288" 
d="M16 313h258v-66h-258v66z" />
    <glyph glyph-name="registered" unicode="&#xae;" horiz-adv-x="711" 
d="M24 324q0 81 27.5 147.5t74 109.5t106 66t124.5 23q60 0 118.5 -23.5t106.5 -65.5t77.5 -109.5t29.5 -147.5q0 -81 -27.5 -148t-74.5 -110t-106.5 -66.5t-124 -23.5t-124 23.5t-106 66.5t-74 110t-27.5 148zM92 324q0 -88 37 -153.5t96.5 -97.5t130 -32t130 32t97 98
t37.5 153t-37.5 152.5t-97 97.5t-130 32t-130 -32t-96.5 -97.5t-37 -152.5zM302 347h65q62 0 62 49q0 53 -62 53h-65v-102zM216 140v384h162q62 0 100 -36.5t38 -89.5q0 -46 -23.5 -76t-65.5 -35l89 -147h-94l-74 137h-46v-137h-86z" />
    <glyph glyph-name="macron" unicode="&#xaf;" horiz-adv-x="342" 
d="M16 654h312v-76h-312v76z" />
    <glyph glyph-name="degree" unicode="&#xb0;" horiz-adv-x="272" 
d="M137.5 559q23.5 0 40 17.5t16.5 40.5t-16.5 40.5t-40 17.5t-40.5 -17.5t-17 -40.5t17 -40.5t40.5 -17.5zM16 617q0 50 36 85.5t85.5 35.5t85 -35.5t35.5 -85.5q0 -52 -34.5 -86t-86 -34t-86.5 34.5t-35 85.5z" />
    <glyph glyph-name="plusminus" unicode="&#xb1;" horiz-adv-x="382" 
d="M234 318h134v-86h-134v-133h-86v133h-132v86h132v132h86v-132zM16 38h352v-86h-352v86z" />
    <glyph glyph-name="uni00B2" unicode="&#xb2;" horiz-adv-x="307" 
d="M72 540l46 6l66 22q48 13 77.5 41t29.5 61q0 47 -37.5 76.5t-97.5 29.5q-124 0 -145 -110l69 -13q15 58 75 58q26 0 42 -11.5t16 -30.5q0 -35 -75 -53l-127 -28v-122h287v66l-225 -2z" />
    <glyph glyph-name="uni00B3" unicode="&#xb3;" horiz-adv-x="307" 
d="M230 617q31 4 49.5 23t18.5 47q0 39 -38 62.5t-100 23.5q-126 0 -149 -97l69 -15q15 48 78 48q28 0 45 -10t17 -28q0 -12 -11 -20t-30 -8h-54v-56h54q18 0 29.5 -8.5t11.5 -20.5q0 -36 -58 -36q-67 0 -82 55l-69 -15q23 -104 151 -104q61 0 98.5 22.5t37.5 61.5
q0 27 -18.5 46.5t-49.5 23.5v5z" />
    <glyph glyph-name="acute" unicode="&#xb4;" horiz-adv-x="236" 
d="M212 697l-120 -167h-68l92 167h96z" />
    <glyph glyph-name="mu" unicode="&#xb5;" horiz-adv-x="498" 
d="M146 -10v-184h-102v654h102v-285q0 -49 29.5 -80t74.5 -31q47 0 75 30t28 79v287h103v-460h-103l29 120l-17 6q-8 -65 -38 -102.5t-74 -37.5q-45 0 -78 38t-43 101l-16 -6z" />
    <glyph glyph-name="paragraph" unicode="&#xb6;" horiz-adv-x="380" 
d="M286 654h48v-654h-48v654zM242 0h-48v368h-7q-72 0 -116 38.5t-44 102.5t45 104.5t115 40.5h55v-654z" />
    <glyph glyph-name="periodcentered" unicode="&#xb7;" horiz-adv-x="162" 
d="M38 356q0 25 17 42t42 17t42 -17t17 -42t-17 -41.5t-42 -16.5t-42 16.5t-17 41.5z" />
    <glyph glyph-name="cedilla" unicode="&#xb8;" horiz-adv-x="217" 
d="M65 7l-23 -124l44 -7l10 50l-11 7l27 74h-47zM27 -151q20 -65 83 -65q38 0 60.5 26t22.5 69q0 36 -16.5 59t-41.5 23q-22 0 -38 -20t-20 -54q9 0 9 -11q6 43 31 43q31 0 31 -42q0 -51 -41 -51q-32 0 -41 33z" />
    <glyph glyph-name="uni00B9" unicode="&#xb9;" horiz-adv-x="307" 
d="M58 533h201v-70h-201v70zM16 700l100 21l8 48l21 -114l-129 -22v67zM200 473h-76v296h76v-296z" />
    <glyph glyph-name="ordmasculine" unicode="&#xba;" horiz-adv-x="352" 
d="M22 308h311v-66h-311v66zM104 508q0 -45 19 -69t54 -24t54.5 24t19.5 69q0 43 -19.5 66.5t-54.5 23.5t-54 -23.5t-19 -66.5zM28 508q0 75 40 116t109 41q64 0 106.5 -41.5t42.5 -115.5q0 -76 -40.5 -118.5t-108.5 -42.5t-108.5 42.5t-40.5 118.5z" />
    <glyph glyph-name="guillemotright" unicode="&#xbb;" horiz-adv-x="535" 
d="M166 274l-132 78v92l225 -130v-112l-225 -122v92l132 70l43 10v12zM408 274l-131 78v92l225 -130v-112l-225 -122v92l131 70l44 10v12z" />
    <glyph glyph-name="onequarter" unicode="&#xbc;" horiz-adv-x="703" 
d="M539 274l-60 -116l-21 -22v-8h99v174h77v-174h41v-66h-41v-67h-77v67h-169v88l86 157zM28 592l101 21l7 48h77v-236h59v-70h-202v70h66v118l-108 -18v67zM528 654h114l-474 -654h-116z" />
    <glyph glyph-name="onehalf" unicode="&#xbd;" horiz-adv-x="703" 
d="M449 69l1 -9l226 1v-66h-288v123l127 27q75 19 75 53q0 19 -16 30.5t-42 11.5q-60 0 -74 -58l-70 14q21 109 145 109q60 0 97.5 -29t37.5 -76q0 -33 -29 -61.5t-77 -41.5l-67 -21zM28 592l101 21l7 48h77v-236h59v-70h-202v70h66v118l-108 -18v67zM528 654h114l-474 -654
h-116z" />
    <glyph glyph-name="threequarters" unicode="&#xbe;" horiz-adv-x="706" 
d="M539 274l-60 -116l-21 -22v-8h99v174h77v-174h41v-66h-41v-67h-77v67h-169v88l86 157zM245 509v-5q31 -4 49 -23.5t18 -46.5q0 -39 -37 -61.5t-98 -22.5q-129 0 -151 104l69 15q15 -55 81 -55q28 0 43 9.5t15 26.5q0 12 -11.5 20.5t-28.5 8.5h-54v56h54q18 0 29 8t11 20
q0 18 -16.5 28t-44.5 10q-63 0 -78 -48l-69 15q22 97 148 97q62 0 100 -23.5t38 -63.5q0 -27 -18 -46t-49 -23zM531 654h115l-475 -654h-115z" />
    <glyph glyph-name="questiondown" unicode="&#xbf;" horiz-adv-x="433" 
d="M172 400q0 -55 -12 -87t-38 -53q-3 -3 -20 -17t-23 -20t-19 -22t-18 -30.5t-10 -38t-5 -50.5q0 -82 50.5 -134t136.5 -52q81 0 130.5 47t61.5 136l-94 20q-15 -112 -96 -112q-40 1 -63 26t-23 65q0 24 4 43.5t14 35.5t15.5 24t20 22t16.5 17q52 51 52 180h-80zM267 519
q0 -25 -17 -42t-42 -17q-24 0 -41 17t-17 42t16.5 42t42 17t42 -17t16.5 -42z" />
    <glyph glyph-name="Agrave" unicode="&#xc0;" horiz-adv-x="636" 
d="M187 876h96l92 -167h-67zM164 270h311v-96h-311v96zM300 515l-174 -515h-111l223 654h158l225 -654h-109l-177 515l-11 55h-13z" />
    <glyph glyph-name="Aacute" unicode="&#xc1;" horiz-adv-x="636" 
d="M451 876l-121 -167h-67l92 167h96zM164 270h311v-96h-311v96zM300 515l-174 -515h-111l223 654h158l225 -654h-109l-177 515l-11 55h-13z" />
    <glyph glyph-name="Acircumflex" unicode="&#xc2;" horiz-adv-x="636" 
d="M304 790l-68 -82h-88l114 136h114l114 -136h-88l-68 82l-9 21h-12zM164 270h311v-96h-311v96zM300 515l-174 -515h-111l223 654h158l225 -654h-109l-177 515l-11 55h-13z" />
    <glyph glyph-name="Atilde" unicode="&#xc3;" horiz-adv-x="636" 
d="M416 827q0 -65 -27 -65q-12 0 -23 6.5t-15 11t-16 18.5q-10 12 -18 19t-23.5 13.5t-34.5 6.5q-45 0 -69 -30.5t-24 -88.5l59 -8q0 69 32 69q7 0 13.5 -2t13 -7t10 -9t11 -12.5t10.5 -11.5q33 -34 75 -34q86 0 86 117zM164 270h311v-96h-311v96zM300 515l-174 -515h-111
l223 654h158l225 -654h-109l-177 515l-11 55h-13z" />
    <glyph glyph-name="Adieresis" unicode="&#xc4;" horiz-adv-x="636" 
d="M355 774q0 24 17 41t41 17t41 -17t17 -41t-17 -41.5t-41 -17.5t-41 17.5t-17 41.5zM160 774q0 24 17 41t41 17t41 -17t17 -41t-17 -41.5t-41 -17.5t-41 17.5t-17 41.5zM164 270h311v-96h-311v96zM300 515l-174 -515h-111l223 654h158l225 -654h-109l-177 515l-11 55h-13z
" />
    <glyph glyph-name="Aring" unicode="&#xc5;" horiz-adv-x="636" 
d="M319 771q16 0 28 12.5t12 29.5q0 16 -12 28.5t-28 12.5t-28.5 -12.5t-12.5 -28.5t12.5 -29t28.5 -13zM214 813q0 44 30.5 74t74.5 30t74 -30t30 -74t-30 -74t-74 -30t-74.5 30t-30.5 74zM164 270h311v-96h-311v96zM300 515l-174 -515h-111l223 654h158l225 -654h-109
l-177 515l-11 55h-13z" />
    <glyph glyph-name="AE" unicode="&#xc6;" horiz-adv-x="792" 
d="M376 654h392v-96h-290v-183h290v-97h-290v-181h290v-97h-392v654zM172 285h290v-96h-312zM350 537l-222 -537h-112l266 654h94v-73h-14z" />
    <glyph glyph-name="Ccedilla" unicode="&#xc7;" horiz-adv-x="600" 
d="M239 -152l59 15q8 -28 36 -28q30 0 30 41q0 32 -24 32q-18 0 -28 -33l-58 12l23 119h62l-33 -71l11 -6q18 31 46 31q27 0 44 -23t17 -59q0 -46 -23.5 -73t-63.5 -27q-74 0 -98 70zM569 444l-99 -20q-39 147 -161 147q-84 0 -131 -64.5t-47 -182.5q0 -116 47 -179.5
t131 -63.5q63 0 107 42.5t56 119.5l100 -21q-21 -115 -92 -178t-171 -63q-129 0 -205 90.5t-76 252.5q0 164 76 255t205 91q90 0 159.5 -59t100.5 -167z" />
    <glyph glyph-name="Egrave" unicode="&#xc8;" horiz-adv-x="534" 
d="M157 876h96l92 -167h-67zM44 654h465v-96h-363v-183h348v-97h-348v-181h363v-97h-465v654z" />
    <glyph glyph-name="Eacute" unicode="&#xc9;" horiz-adv-x="534" 
d="M421 876l-121 -167h-67l92 167h96zM44 654h465v-96h-363v-183h348v-97h-348v-181h363v-97h-465v654z" />
    <glyph glyph-name="Ecircumflex" unicode="&#xca;" horiz-adv-x="534" 
d="M273 790l-68 -82h-88l114 136h114l114 -136h-88l-68 82l-9 21h-12zM44 654h465v-96h-363v-183h348v-97h-348v-181h363v-97h-465v654z" />
    <glyph glyph-name="Edieresis" unicode="&#xcb;" horiz-adv-x="534" 
d="M324 774q0 24 17 41t41 17t41 -17t17 -41t-17 -41.5t-41 -17.5t-41 17.5t-17 41.5zM129 774q0 24 17 41t41 17t41 -17t17 -41t-17 -41.5t-41 -17.5t-41 17.5t-17 41.5zM44 654h465v-96h-363v-183h348v-97h-348v-181h363v-97h-465v654z" />
    <glyph glyph-name="Igrave" unicode="&#xcc;" horiz-adv-x="190" 
d="M-36 876h96l92 -167h-67zM44 654h102v-654h-102v654z" />
    <glyph glyph-name="Iacute" unicode="&#xcd;" horiz-adv-x="190" 
d="M228 876l-121 -167h-67l92 167h96zM44 654h102v-654h-102v654z" />
    <glyph glyph-name="Icircumflex" unicode="&#xce;" horiz-adv-x="190" 
d="M81 790l-68 -82h-88l114 136h114l114 -136h-88l-68 82l-9 21h-12zM44 654h102v-654h-102v654z" />
    <glyph glyph-name="Idieresis" unicode="&#xcf;" horiz-adv-x="190" 
d="M132 774q0 24 17 41t41 17t41 -17t17 -41t-17 -41.5t-41 -17.5t-41 17.5t-17 41.5zM-63 774q0 24 17 41t41 17t41 -17t17 -41t-17 -41.5t-41 -17.5t-41 17.5t-17 41.5zM44 654h102v-654h-102v654z" />
    <glyph glyph-name="Eth" unicode="&#xd0;" horiz-adv-x="564" 
d="M-11 370h322v-87h-322v87zM44 0v654h226q118 0 192 -92t74 -238q0 -145 -73.5 -234.5t-192.5 -89.5h-226zM146 98h113q84 0 129.5 60t45.5 171q0 110 -45.5 169.5t-129.5 59.5h-113v-460z" />
    <glyph glyph-name="Ntilde" unicode="&#xd1;" horiz-adv-x="606" 
d="M407 827q0 -65 -27 -65q-12 0 -23 6.5t-15 11t-16 18.5q-10 12 -18 19t-23.5 13.5t-34.5 6.5q-45 0 -69 -30.5t-24 -88.5l59 -8q0 69 32 69q7 0 13.5 -2t13 -7t10 -9t11 -12.5t10.5 -11.5q33 -34 75 -34q86 0 86 117zM459 654h103v-654h-135l-281 508v-508h-102v654h134
l281 -506v506z" />
    <glyph glyph-name="Ograve" unicode="&#xd2;" horiz-adv-x="611" 
d="M173 876h96l92 -167h-67zM131 327q0 -117 46.5 -181.5t128.5 -64.5t128 64.5t46 181.5t-46 183t-128 66t-128.5 -66t-46.5 -183zM28 327q0 163 75.5 255.5t202.5 92.5q119 0 198 -94t79 -254q0 -163 -74.5 -254.5t-202.5 -91.5t-203 91.5t-75 254.5z" />
    <glyph glyph-name="Oacute" unicode="&#xd3;" horiz-adv-x="611" 
d="M437 876l-121 -167h-67l92 167h96zM131 327q0 -117 46.5 -181.5t128.5 -64.5t128 64.5t46 181.5t-46 183t-128 66t-128.5 -66t-46.5 -183zM28 327q0 163 75.5 255.5t202.5 92.5q119 0 198 -94t79 -254q0 -163 -74.5 -254.5t-202.5 -91.5t-203 91.5t-75 254.5z" />
    <glyph glyph-name="Ocircumflex" unicode="&#xd4;" horiz-adv-x="611" 
d="M290 790l-68 -82h-88l114 136h114l114 -136h-88l-68 82l-9 21h-12zM131 327q0 -117 46.5 -181.5t128.5 -64.5t128 64.5t46 181.5t-46 183t-128 66t-128.5 -66t-46.5 -183zM28 327q0 163 75.5 255.5t202.5 92.5q119 0 198 -94t79 -254q0 -163 -74.5 -254.5t-202.5 -91.5
t-203 91.5t-75 254.5z" />
    <glyph glyph-name="Otilde" unicode="&#xd5;" horiz-adv-x="611" 
d="M402 827q0 -65 -27 -65q-12 0 -23 6.5t-15 11t-16 18.5q-10 12 -18 19t-23.5 13.5t-34.5 6.5q-45 0 -69 -30.5t-24 -88.5l59 -8q0 69 32 69q7 0 13.5 -2t13 -7t10 -9t11 -12.5t10.5 -11.5q33 -34 75 -34q86 0 86 117zM131 327q0 -117 46.5 -181.5t128.5 -64.5t128 64.5
t46 181.5t-46 183t-128 66t-128.5 -66t-46.5 -183zM28 327q0 163 75.5 255.5t202.5 92.5q119 0 198 -94t79 -254q0 -163 -74.5 -254.5t-202.5 -91.5t-203 91.5t-75 254.5z" />
    <glyph glyph-name="Odieresis" unicode="&#xd6;" horiz-adv-x="611" 
d="M341 774q0 24 17 41t41 17t41 -17t17 -41t-17 -41.5t-41 -17.5t-41 17.5t-17 41.5zM146 774q0 24 17 41t41 17t41 -17t17 -41t-17 -41.5t-41 -17.5t-41 17.5t-17 41.5zM131 327q0 -117 46.5 -181.5t128.5 -64.5t128 64.5t46 181.5t-46 183t-128 66t-128.5 -66t-46.5 -183
zM28 327q0 163 75.5 255.5t202.5 92.5q119 0 198 -94t79 -254q0 -163 -74.5 -254.5t-202.5 -91.5t-203 91.5t-75 254.5z" />
    <glyph glyph-name="multiply" unicode="&#xd7;" horiz-adv-x="382" 
d="M191 331l94 98l61 -60l-99 -95l99 -94l-60 -60l-94 99l-95 -99l-61 61l100 94l-100 94l61 60z" />
    <glyph glyph-name="Oslash" unicode="&#xd8;" horiz-adv-x="611" 
d="M477 673l81 -52l-442 -641l-80 52zM132 325.5q0 -116.5 46 -180.5t128.5 -64t128 64t45.5 180.5t-45.5 181t-128 64.5t-128.5 -64.5t-46 -181zM28 326q0 162 75.5 253t202.5 91q120 0 199 -92.5t79 -251.5q0 -164 -75 -254.5t-202.5 -90.5t-203 90.5t-75.5 254.5z" />
    <glyph glyph-name="Ugrave" unicode="&#xd9;" horiz-adv-x="577" 
d="M160 876h96l92 -167h-67zM146 654v-429q0 -68 37.5 -105.5t106.5 -37.5q68 0 104 37t36 106v429h103v-440q0 -100 -68.5 -165t-174.5 -65q-110 0 -178 63.5t-68 166.5v440h102z" />
    <glyph glyph-name="Uacute" unicode="&#xda;" horiz-adv-x="577" 
d="M424 876l-121 -167h-67l92 167h96zM146 654v-429q0 -68 37.5 -105.5t106.5 -37.5q68 0 104 37t36 106v429h103v-440q0 -100 -68.5 -165t-174.5 -65q-110 0 -178 63.5t-68 166.5v440h102z" />
    <glyph glyph-name="Ucircumflex" unicode="&#xdb;" horiz-adv-x="577" 
d="M277 790l-68 -82h-88l114 136h114l114 -136h-88l-68 82l-9 21h-12zM146 654v-429q0 -68 37.5 -105.5t106.5 -37.5q68 0 104 37t36 106v429h103v-440q0 -100 -68.5 -165t-174.5 -65q-110 0 -178 63.5t-68 166.5v440h102z" />
    <glyph glyph-name="Udieresis" unicode="&#xdc;" horiz-adv-x="577" 
d="M328 774q0 24 17 41t41 17t41 -17t17 -41t-17 -41.5t-41 -17.5t-41 17.5t-17 41.5zM133 774q0 24 17 41t41 17t41 -17t17 -41t-17 -41.5t-41 -17.5t-41 17.5t-17 41.5zM146 654v-429q0 -68 37.5 -105.5t106.5 -37.5q68 0 104 37t36 106v429h103v-440q0 -100 -68.5 -165
t-174.5 -65q-110 0 -178 63.5t-68 166.5v440h102z" />
    <glyph glyph-name="Yacute" unicode="&#xdd;" horiz-adv-x="612" 
d="M442 876l-121 -167h-67l92 167h96zM370 263l227 391h-115l-159 -284l-10 -38h-13l-11 38l-158 284h-116l227 -391h14v-263h102v263h12z" />
    <glyph glyph-name="Thorn" unicode="&#xde;" horiz-adv-x="543" 
d="M44 654h102v-123h145q99 0 161.5 -55.5t62.5 -142.5t-62 -141t-162 -54h-145v-138h-102v654zM146 434v-199h135q63 0 97 26t34 74t-34 73.5t-97 25.5h-135z" />
    <glyph glyph-name="germandbls" unicode="&#xdf;" horiz-adv-x="522" 
d="M326 0q75 2 121.5 49.5t46.5 124.5q0 68 -35.5 116.5t-94.5 58.5v12q44 9 70 50.5t26 99.5q0 86 -56 137t-150 51q-99 0 -154.5 -59t-55.5 -167v-473h102v484q0 59 29 93.5t80 34.5q47 0 75 -29.5t28 -82.5q0 -42 -17 -69.5t-44 -27.5h-70v-97h70q42 0 68 -31t26 -80
q0 -47 -23.5 -74t-63.5 -27h-99v-94h121z" />
    <glyph glyph-name="agrave" unicode="&#xe0;" horiz-adv-x="475" 
d="M111 693h96l92 -167h-67zM131 128q0 -28 22.5 -42t59.5 -14q51 0 83 29t32 74h18q0 -88 -46 -141t-121 -53q-65 0 -108 37t-43 95q0 52 31.5 82.5t97.5 49.5l171 45v-70l-136 -35q-61 -16 -61 -57zM431 0h-103l30 117l-30 13v174q0 38 -26 61t-69 23q-44 0 -71.5 -26.5
t-32.5 -68.5l-101 15q11 75 66 123t141 48q87 0 141.5 -47.5t54.5 -116.5v-315z" />
    <glyph glyph-name="aacute" unicode="&#xe1;" horiz-adv-x="475" 
d="M375 693l-121 -167h-67l92 167h96zM131 128q0 -28 22.5 -42t59.5 -14q51 0 83 29t32 74h18q0 -88 -46 -141t-121 -53q-65 0 -108 37t-43 95q0 52 31.5 82.5t97.5 49.5l171 45v-70l-136 -35q-61 -16 -61 -57zM431 0h-103l30 117l-30 13v174q0 38 -26 61t-69 23
q-44 0 -71.5 -26.5t-32.5 -68.5l-101 15q11 75 66 123t141 48q87 0 141.5 -47.5t54.5 -116.5v-315z" />
    <glyph glyph-name="acircumflex" unicode="&#xe2;" horiz-adv-x="475" 
d="M228 607l-68 -82h-88l114 136h114l114 -136h-88l-68 82l-9 21h-12zM131 128q0 -28 22.5 -42t59.5 -14q51 0 83 29t32 74h18q0 -88 -46 -141t-121 -53q-65 0 -108 37t-43 95q0 52 31.5 82.5t97.5 49.5l171 45v-70l-136 -35q-61 -16 -61 -57zM431 0h-103l30 117l-30 13v174
q0 38 -26 61t-69 23q-44 0 -71.5 -26.5t-32.5 -68.5l-101 15q11 75 66 123t141 48q87 0 141.5 -47.5t54.5 -116.5v-315z" />
    <glyph glyph-name="atilde" unicode="&#xe3;" horiz-adv-x="475" 
d="M340 644q0 -65 -27 -65q-12 0 -23 6.5t-15 11t-16 18.5q-10 12 -18 19t-23.5 13.5t-34.5 6.5q-45 0 -69 -30.5t-24 -88.5l59 -8q0 69 32 69q7 0 13.5 -2t13 -7t10 -9t11 -12.5t10.5 -11.5q33 -34 75 -34q86 0 86 117zM131 128q0 -28 22.5 -42t59.5 -14q51 0 83 29t32 74
h18q0 -88 -46 -141t-121 -53q-65 0 -108 37t-43 95q0 52 31.5 82.5t97.5 49.5l171 45v-70l-136 -35q-61 -16 -61 -57zM431 0h-103l30 117l-30 13v174q0 38 -26 61t-69 23q-44 0 -71.5 -26.5t-32.5 -68.5l-101 15q11 75 66 123t141 48q87 0 141.5 -47.5t54.5 -116.5v-315z
" />
    <glyph glyph-name="adieresis" unicode="&#xe4;" horiz-adv-x="475" 
d="M279 591q0 24 17 41t41 17t41 -17t17 -41t-17 -41.5t-41 -17.5t-41 17.5t-17 41.5zM84 591q0 24 17 41t41 17t41 -17t17 -41t-17 -41.5t-41 -17.5t-41 17.5t-17 41.5zM131 128q0 -28 22.5 -42t59.5 -14q51 0 83 29t32 74h18q0 -88 -46 -141t-121 -53q-65 0 -108 37
t-43 95q0 52 31.5 82.5t97.5 49.5l171 45v-70l-136 -35q-61 -16 -61 -57zM431 0h-103l30 117l-30 13v174q0 38 -26 61t-69 23q-44 0 -71.5 -26.5t-32.5 -68.5l-101 15q11 75 66 123t141 48q87 0 141.5 -47.5t54.5 -116.5v-315z" />
    <glyph glyph-name="aring" unicode="&#xe5;" horiz-adv-x="475" 
d="M243 588q16 0 28 12.5t12 29.5q0 16 -12 28.5t-28 12.5t-28.5 -12.5t-12.5 -28.5t12.5 -29t28.5 -13zM138 630q0 44 30.5 74t74.5 30t74 -30t30 -74t-30 -74t-74 -30t-74.5 30t-30.5 74zM131 128q0 -28 22.5 -42t59.5 -14q51 0 83 29t32 74h18q0 -88 -46 -141t-121 -53
q-65 0 -108 37t-43 95q0 52 31.5 82.5t97.5 49.5l171 45v-70l-136 -35q-61 -16 -61 -57zM431 0h-103l30 117l-30 13v174q0 38 -26 61t-69 23q-44 0 -71.5 -26.5t-32.5 -68.5l-101 15q11 75 66 123t141 48q87 0 141.5 -47.5t54.5 -116.5v-315z" />
    <glyph glyph-name="ae" unicode="&#xe6;" horiz-adv-x="799" 
d="M406 297v58h33l-11 -58h-22zM430 205q5 -63 39 -98t93 -35q44 0 74 25t38 68l98 -16q-17 -79 -73 -122.5t-139 -43.5q-104 0 -169 69.5t-65 181.5q0 28 27.5 46.5t69.5 18.5q0 82 44 133.5t115 51.5q85 0 137.5 -67t52.5 -176v-36h-342zM431 278h237q0 51 -33 83.5
t-85 32.5q-50 0 -81 -30t-38 -86zM132 127q0 -26 21 -40.5t57 -14.5q53 0 84.5 28t31.5 75h18q0 -87 -46.5 -140.5t-121.5 -53.5q-65 0 -106.5 37.5t-41.5 96.5q0 51 36.5 84t113.5 51l148 35v-76l-134 -29q-60 -13 -60 -53zM424 119q-98 0 -98 1v184q0 38 -27 61t-71 23
q-40 0 -66.5 -25.5t-31.5 -69.5l-102 15q12 78 66.5 124.5t135.5 46.5q84 0 139 -46.5t55 -117.5v-196z" />
    <glyph glyph-name="ccedilla" unicode="&#xe7;" horiz-adv-x="502" 
d="M184 -152l59 15q8 -28 36 -28q30 0 30 41q0 32 -24 32q-18 0 -28 -33l-58 12l23 119h62l-33 -71l11 -6q18 31 46 31q27 0 44 -23t17 -59q0 -46 -23.5 -73t-63.5 -27q-74 0 -98 70zM473 304l-97 -15q-28 103 -120 103q-59 0 -92 -41.5t-33 -118.5t33 -119t92 -42
q48 0 80.5 29.5t41.5 82.5l99 -15q-17 -89 -77 -138t-144 -49q-104 0 -166 66t-62 185q0 118 62 183.5t166 65.5q76 0 134 -46t83 -131z" />
    <glyph glyph-name="egrave" unicode="&#xe8;" 
d="M120 693h96l92 -167h-67zM132 203q5 -64 39 -98t92 -34q46 0 76.5 23t38.5 64l99 -16q-17 -75 -74.5 -118t-139.5 -43q-110 0 -172.5 67t-62.5 184q0 116 60 182.5t164 66.5q105 0 165 -67t60 -176v-35h-345zM134 275h239q0 51 -34.5 84t-86.5 33q-50 0 -80.5 -30.5
t-37.5 -86.5z" />
    <glyph glyph-name="eacute" unicode="&#xe9;" 
d="M384 693l-121 -167h-67l92 167h96zM132 203q5 -64 39 -98t92 -34q46 0 76.5 23t38.5 64l99 -16q-17 -75 -74.5 -118t-139.5 -43q-110 0 -172.5 67t-62.5 184q0 116 60 182.5t164 66.5q105 0 165 -67t60 -176v-35h-345zM134 275h239q0 51 -34.5 84t-86.5 33
q-50 0 -80.5 -30.5t-37.5 -86.5z" />
    <glyph glyph-name="ecircumflex" unicode="&#xea;" 
d="M237 607l-68 -82h-88l114 136h114l114 -136h-88l-68 82l-9 21h-12zM132 203q5 -64 39 -98t92 -34q46 0 76.5 23t38.5 64l99 -16q-17 -75 -74.5 -118t-139.5 -43q-110 0 -172.5 67t-62.5 184q0 116 60 182.5t164 66.5q105 0 165 -67t60 -176v-35h-345zM134 275h239
q0 51 -34.5 84t-86.5 33q-50 0 -80.5 -30.5t-37.5 -86.5z" />
    <glyph glyph-name="edieresis" unicode="&#xeb;" 
d="M288 591q0 24 17 41t41 17t41 -17t17 -41t-17 -41.5t-41 -17.5t-41 17.5t-17 41.5zM93 591q0 24 17 41t41 17t41 -17t17 -41t-17 -41.5t-41 -17.5t-41 17.5t-17 41.5zM132 203q5 -64 39 -98t92 -34q46 0 76.5 23t38.5 64l99 -16q-17 -75 -74.5 -118t-139.5 -43
q-110 0 -172.5 67t-62.5 184q0 116 60 182.5t164 66.5q105 0 165 -67t60 -176v-35h-345zM134 275h239q0 51 -34.5 84t-86.5 33q-50 0 -80.5 -30.5t-37.5 -86.5z" />
    <glyph glyph-name="igrave" unicode="&#xec;" horiz-adv-x="186" 
d="M-37 693h96l92 -167h-67zM44 460h102v-460h-102v460z" />
    <glyph glyph-name="iacute" unicode="&#xed;" horiz-adv-x="186" 
d="M227 693l-121 -167h-67l92 167h96zM44 460h102v-460h-102v460z" />
    <glyph glyph-name="icircumflex" unicode="&#xee;" horiz-adv-x="186" 
d="M81 607l-68 -82h-88l114 136h114l114 -136h-88l-68 82l-9 21h-12zM44 460h102v-460h-102v460z" />
    <glyph glyph-name="idieresis" unicode="&#xef;" horiz-adv-x="186" 
d="M132 591q0 24 17 41t41 17t41 -17t17 -41t-17 -41.5t-41 -17.5t-41 17.5t-17 41.5zM-63 591q0 24 17 41t41 17t41 -17t17 -41t-17 -41.5t-41 -17.5t-41 17.5t-17 41.5zM44 460h102v-460h-102v460z" />
    <glyph glyph-name="eth" unicode="&#xf0;" horiz-adv-x="503" 
d="M160 529l276 156l38 -65l-276 -156zM178 698q41 -12 71 -23t63 -30t55.5 -42t44.5 -58t35 -79t21 -104t8 -133l-104 -2v82l24 8l-28 88q-9 42 -22 72t-28.5 50t-42 35.5t-53 25t-72.5 22.5zM372 227q0 49 -30.5 83t-87.5 34q-56 0 -89 -35t-33 -100t29 -101.5t81 -36.5
q57 0 93.5 43.5t36.5 112.5zM476 229q0 -112 -68.5 -177.5t-165.5 -65.5t-155.5 60t-58.5 161q0 100 59.5 163t146.5 63q67 0 111.5 -55t44.5 -145z" />
    <glyph glyph-name="ntilde" unicode="&#xf1;" horiz-adv-x="500" 
d="M345 644q0 -65 -27 -65q-12 0 -23 6.5t-15 11t-16 18.5q-10 12 -18 19t-23.5 13.5t-34.5 6.5q-45 0 -69 -30.5t-24 -88.5l59 -8q0 69 32 69q7 0 13.5 -2t13 -7t10 -9t11 -12.5t10.5 -11.5q33 -34 75 -34q86 0 86 117zM353 287q0 47 -28 75.5t-73 28.5q-46 0 -76 -29.5
t-30 -76.5h-16q0 82 46 138t120 56q68 0 114 -52.5t46 -128.5v-298h-103v287zM44 460h102l-28 -120l28 -10v-330h-102v460z" />
    <glyph glyph-name="ograve" unicode="&#xf2;" 
d="M120 693h96l92 -167h-67zM131 232q0 -78 32 -119.5t89 -41.5q58 0 90 42t32 119t-32.5 118.5t-89.5 41.5t-89 -41.5t-32 -118.5zM28 232q0 118 60.5 183.5t163.5 65.5q97 0 161 -66.5t64 -182.5q0 -119 -61 -185t-164 -66t-163.5 66t-60.5 185z" />
    <glyph glyph-name="oacute" unicode="&#xf3;" 
d="M384 693l-121 -167h-67l92 167h96zM131 232q0 -78 32 -119.5t89 -41.5q58 0 90 42t32 119t-32.5 118.5t-89.5 41.5t-89 -41.5t-32 -118.5zM28 232q0 118 60.5 183.5t163.5 65.5q97 0 161 -66.5t64 -182.5q0 -119 -61 -185t-164 -66t-163.5 66t-60.5 185z" />
    <glyph glyph-name="ocircumflex" unicode="&#xf4;" 
d="M237 607l-68 -82h-88l114 136h114l114 -136h-88l-68 82l-9 21h-12zM131 232q0 -78 32 -119.5t89 -41.5q58 0 90 42t32 119t-32.5 118.5t-89.5 41.5t-89 -41.5t-32 -118.5zM28 232q0 118 60.5 183.5t163.5 65.5q97 0 161 -66.5t64 -182.5q0 -119 -61 -185t-164 -66
t-163.5 66t-60.5 185z" />
    <glyph glyph-name="otilde" unicode="&#xf5;" 
d="M349 644q0 -65 -27 -65q-12 0 -23 6.5t-15 11t-16 18.5q-10 12 -18 19t-23.5 13.5t-34.5 6.5q-45 0 -69 -30.5t-24 -88.5l59 -8q0 69 32 69q7 0 13.5 -2t13 -7t10 -9t11 -12.5t10.5 -11.5q33 -34 75 -34q86 0 86 117zM131 232q0 -78 32 -119.5t89 -41.5q58 0 90 42
t32 119t-32.5 118.5t-89.5 41.5t-89 -41.5t-32 -118.5zM28 232q0 118 60.5 183.5t163.5 65.5q97 0 161 -66.5t64 -182.5q0 -119 -61 -185t-164 -66t-163.5 66t-60.5 185z" />
    <glyph glyph-name="odieresis" unicode="&#xf6;" 
d="M288 591q0 24 17 41t41 17t41 -17t17 -41t-17 -41.5t-41 -17.5t-41 17.5t-17 41.5zM93 591q0 24 17 41t41 17t41 -17t17 -41t-17 -41.5t-41 -17.5t-41 17.5t-17 41.5zM131 232q0 -78 32 -119.5t89 -41.5q58 0 90 42t32 119t-32.5 118.5t-89.5 41.5t-89 -41.5t-32 -118.5z
M28 232q0 118 60.5 183.5t163.5 65.5q97 0 161 -66.5t64 -182.5q0 -119 -61 -185t-164 -66t-163.5 66t-60.5 185z" />
    <glyph glyph-name="divide" unicode="&#xf7;" horiz-adv-x="382" 
d="M132 414q0 25 16.5 41.5t42 16.5t42.5 -16.5t17 -41.5t-17.5 -42t-42 -17t-41.5 17t-17 42zM132 131q0 25 17 42t41.5 17t42 -17t17.5 -42t-17 -42t-42.5 -17t-42 17t-16.5 42zM16 318h352v-86h-352v86z" />
    <glyph glyph-name="oslash" unicode="&#xf8;" horiz-adv-x="495" 
d="M384 497l60 -47l-347 -485l-59 47zM126 232q0 -78 32 -119.5t90 -41.5q57 0 89.5 42t32.5 119t-32.5 118.5t-89.5 41.5q-58 0 -90 -41.5t-32 -118.5zM24 232q0 118 60.5 183.5t163.5 65.5q96 0 160 -66.5t64 -182.5q0 -119 -60.5 -185t-163.5 -66t-163.5 66t-60.5 185z
" />
    <glyph glyph-name="ugrave" unicode="&#xf9;" horiz-adv-x="500" 
d="M118 693h96l92 -167h-67zM146 173q0 -49 28.5 -79t73.5 -30q46 0 76 31t30 80h16q0 -82 -46.5 -138t-119.5 -56q-68 0 -114 52.5t-46 128.5v298h102v-287zM456 0h-102l28 120l-28 10v330h102v-460z" />
    <glyph glyph-name="uacute" unicode="&#xfa;" horiz-adv-x="500" 
d="M382 693l-121 -167h-67l92 167h96zM146 173q0 -49 28.5 -79t73.5 -30q46 0 76 31t30 80h16q0 -82 -46.5 -138t-119.5 -56q-68 0 -114 52.5t-46 128.5v298h102v-287zM456 0h-102l28 120l-28 10v330h102v-460z" />
    <glyph glyph-name="ucircumflex" unicode="&#xfb;" horiz-adv-x="500" 
d="M235 607l-68 -82h-88l114 136h114l114 -136h-88l-68 82l-9 21h-12zM146 173q0 -49 28.5 -79t73.5 -30q46 0 76 31t30 80h16q0 -82 -46.5 -138t-119.5 -56q-68 0 -114 52.5t-46 128.5v298h102v-287zM456 0h-102l28 120l-28 10v330h102v-460z" />
    <glyph glyph-name="udieresis" unicode="&#xfc;" horiz-adv-x="500" 
d="M286 591q0 24 17 41t41 17t41 -17t17 -41t-17 -41.5t-41 -17.5t-41 17.5t-17 41.5zM91 591q0 24 17 41t41 17t41 -17t17 -41t-17 -41.5t-41 -17.5t-41 17.5t-17 41.5zM146 173q0 -49 28.5 -79t73.5 -30q46 0 76 31t30 80h16q0 -82 -46.5 -138t-119.5 -56q-68 0 -114 52.5
t-46 128.5v298h102v-287zM456 0h-102l28 120l-28 10v330h102v-460z" />
    <glyph glyph-name="yacute" unicode="&#xfd;" horiz-adv-x="489" 
d="M375 693l-121 -167h-67l92 167h96zM262 150l101 310h111l-196 -546q-17 -48 -51 -74.5t-75 -26.5h-112l-1 94h73q25 0 38.5 10.5t21.5 38.5l12 44l-169 460h110l102 -310l11 -56h13z" />
    <glyph glyph-name="thorn" unicode="&#xfe;" horiz-adv-x="529" 
d="M122 231q0 119 48 184.5t135 65.5q85 0 140.5 -68.5t55.5 -184.5q0 -113 -53 -180t-139 -67q-89 0 -138 65.5t-49 184.5zM146 231.5q0 -76.5 33.5 -118.5t93.5 -42q59 0 92 41.5t33 118.5t-33 119t-92 42q-60 0 -93.5 -42t-33.5 -118.5zM44 687h102v-227l-30 -119l30 -11
v-200l-30 -11l30 -119v-194h-102v881z" />
    <glyph glyph-name="ydieresis" unicode="&#xff;" horiz-adv-x="489" 
d="M280 591q0 24 17 41t41 17t41 -17t17 -41t-17 -41.5t-41 -17.5t-41 17.5t-17 41.5zM85 591q0 24 17 41t41 17t41 -17t17 -41t-17 -41.5t-41 -17.5t-41 17.5t-17 41.5zM262 150l101 310h111l-196 -546q-17 -48 -51 -74.5t-75 -26.5h-112l-1 94h73q25 0 38.5 10.5
t21.5 38.5l12 44l-169 460h110l102 -310l11 -56h13z" />
    <glyph glyph-name="Amacron" unicode="&#x100;" horiz-adv-x="636" 
d="M184 780h268v-72h-268v72zM164 270h311v-96h-311v96zM300 515l-174 -515h-111l223 654h158l225 -654h-109l-177 515l-11 55h-13z" />
    <glyph glyph-name="amacron" unicode="&#x101;" horiz-adv-x="475" 
d="M108 597h268v-72h-268v72zM131 128q0 -28 22.5 -42t59.5 -14q51 0 83 29t32 74h18q0 -88 -46 -141t-121 -53q-65 0 -108 37t-43 95q0 52 31.5 82.5t97.5 49.5l171 45v-70l-136 -35q-61 -16 -61 -57zM431 0h-103l30 117l-30 13v174q0 38 -26 61t-69 23q-44 0 -71.5 -26.5
t-32.5 -68.5l-101 15q11 75 66 123t141 48q87 0 141.5 -47.5t54.5 -116.5v-315z" />
    <glyph glyph-name="Abreve" unicode="&#x102;" horiz-adv-x="636" 
d="M392 838q0 -29 -21.5 -50.5t-51.5 -21.5t-51.5 21.5t-21.5 50.5h-78q0 -56 43.5 -93.5t107.5 -37.5t107.5 37.5t43.5 93.5h-78zM164 270h311v-96h-311v96zM300 515l-174 -515h-111l223 654h158l225 -654h-109l-177 515l-11 55h-13z" />
    <glyph glyph-name="abreve" unicode="&#x103;" horiz-adv-x="475" 
d="M316 655q0 -29 -21.5 -50.5t-51.5 -21.5t-51.5 21.5t-21.5 50.5h-78q0 -56 43.5 -93.5t107.5 -37.5t107.5 37.5t43.5 93.5h-78zM131 128q0 -28 22.5 -42t59.5 -14q51 0 83 29t32 74h18q0 -88 -46 -141t-121 -53q-65 0 -108 37t-43 95q0 52 31.5 82.5t97.5 49.5l171 45
v-70l-136 -35q-61 -16 -61 -57zM431 0h-103l30 117l-30 13v174q0 38 -26 61t-69 23q-44 0 -71.5 -26.5t-32.5 -68.5l-101 15q11 75 66 123t141 48q87 0 141.5 -47.5t54.5 -116.5v-315z" />
    <glyph glyph-name="Aogonek" unicode="&#x104;" horiz-adv-x="636" 
d="M531 -59q-22 -26 -22 -66t36 -40q27 0 35 35l60 -12q-23 -80 -92 -80q-42 0 -67.5 23t-25.5 62q0 26 9.5 46.5t36.5 55.5l34 41h48zM164 270h311v-96h-311v96zM300 515l-174 -515h-111l223 654h158l225 -654h-109l-177 515l-11 55h-13z" />
    <glyph glyph-name="aogonek" unicode="&#x105;" horiz-adv-x="475" 
d="M213 -59q-22 -26 -22 -66t36 -40q27 0 35 35l60 -12q-23 -80 -92 -80q-42 0 -67.5 23t-25.5 62q0 26 9.5 46.5t36.5 55.5l34 41h48zM131 128q0 -28 22.5 -42t59.5 -14q51 0 83 29t32 74h18q0 -88 -46 -141t-121 -53q-65 0 -108 37t-43 95q0 52 31.5 82.5t97.5 49.5
l171 45v-70l-136 -35q-61 -16 -61 -57zM431 0h-103l30 117l-30 13v174q0 38 -26 61t-69 23q-44 0 -71.5 -26.5t-32.5 -68.5l-101 15q11 75 66 123t141 48q87 0 141.5 -47.5t54.5 -116.5v-315z" />
    <glyph glyph-name="Cacute" unicode="&#x106;" horiz-adv-x="600" 
d="M438 876l-121 -167h-67l92 167h96zM569 444l-99 -20q-39 147 -161 147q-84 0 -131 -64.5t-47 -182.5q0 -116 47 -179.5t131 -63.5q63 0 107 42.5t56 119.5l100 -21q-21 -115 -92 -178t-171 -63q-129 0 -205 90.5t-76 252.5q0 164 76 255t205 91q90 0 159.5 -59
t100.5 -167z" />
    <glyph glyph-name="cacute" unicode="&#x107;" horiz-adv-x="502" 
d="M384 693l-121 -167h-67l92 167h96zM473 304l-97 -15q-28 103 -120 103q-59 0 -92 -41.5t-33 -118.5t33 -119t92 -42q48 0 80.5 29.5t41.5 82.5l99 -15q-17 -89 -77 -138t-144 -49q-104 0 -166 66t-62 185q0 118 62 183.5t166 65.5q76 0 134 -46t83 -131z" />
    <glyph glyph-name="Ccircumflex" unicode="&#x108;" horiz-adv-x="600" 
d="M291 790l-68 -82h-88l114 136h114l114 -136h-88l-68 82l-9 21h-12zM569 444l-99 -20q-39 147 -161 147q-84 0 -131 -64.5t-47 -182.5q0 -116 47 -179.5t131 -63.5q63 0 107 42.5t56 119.5l100 -21q-21 -115 -92 -178t-171 -63q-129 0 -205 90.5t-76 252.5q0 164 76 255
t205 91q90 0 159.5 -59t100.5 -167z" />
    <glyph glyph-name="ccircumflex" unicode="&#x109;" horiz-adv-x="502" 
d="M237 607l-68 -82h-88l114 136h114l114 -136h-88l-68 82l-9 21h-12zM473 304l-97 -15q-28 103 -120 103q-59 0 -92 -41.5t-33 -118.5t33 -119t92 -42q48 0 80.5 29.5t41.5 82.5l99 -15q-17 -89 -77 -138t-144 -49q-104 0 -166 66t-62 185q0 118 62 183.5t166 65.5
q76 0 134 -46t83 -131z" />
    <glyph glyph-name="Cdotaccent" unicode="&#x10a;" horiz-adv-x="600" 
d="M246 793q0 24 17.5 41t41.5 17t41 -17t17 -41t-17 -41.5t-41 -17.5q-23 0 -41 18t-18 41zM569 444l-99 -20q-39 147 -161 147q-84 0 -131 -64.5t-47 -182.5q0 -116 47 -179.5t131 -63.5q63 0 107 42.5t56 119.5l100 -21q-21 -115 -92 -178t-171 -63q-129 0 -205 90.5
t-76 252.5q0 164 76 255t205 91q90 0 159.5 -59t100.5 -167z" />
    <glyph glyph-name="cdotaccent" unicode="&#x10b;" horiz-adv-x="502" 
d="M192 610q0 24 17.5 41t41.5 17t41 -17t17 -41t-17 -41.5t-41 -17.5q-23 0 -41 18t-18 41zM473 304l-97 -15q-28 103 -120 103q-59 0 -92 -41.5t-33 -118.5t33 -119t92 -42q48 0 80.5 29.5t41.5 82.5l99 -15q-17 -89 -77 -138t-144 -49q-104 0 -166 66t-62 185
q0 118 62 183.5t166 65.5q76 0 134 -46t83 -131z" />
    <glyph glyph-name="Ccaron" unicode="&#x10c;" horiz-adv-x="600" 
d="M321 763l68 81h88l-114 -136h-114l-114 136h88l68 -81l9 -22h12zM569 444l-99 -20q-39 147 -161 147q-84 0 -131 -64.5t-47 -182.5q0 -116 47 -179.5t131 -63.5q63 0 107 42.5t56 119.5l100 -21q-21 -115 -92 -178t-171 -63q-129 0 -205 90.5t-76 252.5q0 164 76 255
t205 91q90 0 159.5 -59t100.5 -167z" />
    <glyph glyph-name="ccaron" unicode="&#x10d;" horiz-adv-x="502" 
d="M267 580l68 81h88l-114 -136h-114l-114 136h88l68 -81l9 -22h12zM473 304l-97 -15q-28 103 -120 103q-59 0 -92 -41.5t-33 -118.5t33 -119t92 -42q48 0 80.5 29.5t41.5 82.5l99 -15q-17 -89 -77 -138t-144 -49q-104 0 -166 66t-62 185q0 118 62 183.5t166 65.5
q76 0 134 -46t83 -131z" />
    <glyph glyph-name="Dcaron" unicode="&#x10e;" horiz-adv-x="564" 
d="M277 763l68 81h88l-114 -136h-114l-114 136h88l68 -81l9 -22h12zM44 0v654h226q118 0 192 -92t74 -238q0 -145 -73.5 -234.5t-192.5 -89.5h-226zM146 98h113q84 0 129.5 60t45.5 171q0 110 -45.5 169.5t-129.5 59.5h-113v-460z" />
    <glyph glyph-name="dcaron" unicode="&#x10f;" horiz-adv-x="531" 
d="M546 696h92l-56 -178h-43zM379 231q0 77 -32 119t-90 42q-60 0 -93 -41.5t-33 -119.5q0 -77 33 -118.5t93 -41.5q58 0 90 41.5t32 118.5zM402 231q0 -120 -47.5 -185t-133.5 -65t-139.5 66.5t-53.5 180.5q0 119 57 186t141 67q83 0 129.5 -65t46.5 -185zM487 687v-687
h-108l29 119l-29 11v200l31 11l-31 119v227h108z" />
    <glyph glyph-name="Dcroat" unicode="&#x110;" horiz-adv-x="564" 
d="M-11 370h322v-87h-322v87zM44 0v654h226q118 0 192 -92t74 -238q0 -145 -73.5 -234.5t-192.5 -89.5h-226zM146 98h113q84 0 129.5 60t45.5 171q0 110 -45.5 169.5t-129.5 59.5h-113v-460z" />
    <glyph glyph-name="dcroat" unicode="&#x111;" horiz-adv-x="529" 
d="M232 630v-87h312v87h-312zM380 231q0 -77 -32.5 -118.5t-89.5 -41.5q-60 0 -93 41.5t-33 119t33 119t93 41.5q57 0 89.5 -42t32.5 -119zM402 231q0 120 -46.5 185t-129.5 65q-84 0 -141 -67t-57 -186q0 -114 54 -180.5t139.5 -66.5t133 65t47.5 185zM488 687h-108v-227
l30 -119l-30 -11v-200l28 -11l-28 -119h108v687z" />
    <glyph glyph-name="Emacron" unicode="&#x112;" horiz-adv-x="534" 
d="M153 780h268v-72h-268v72zM44 654h465v-96h-363v-183h348v-97h-348v-181h363v-97h-465v654z" />
    <glyph glyph-name="emacron" unicode="&#x113;" 
d="M117 597h268v-72h-268v72zM132 203q5 -64 39 -98t92 -34q46 0 76.5 23t38.5 64l99 -16q-17 -75 -74.5 -118t-139.5 -43q-110 0 -172.5 67t-62.5 184q0 116 60 182.5t164 66.5q105 0 165 -67t60 -176v-35h-345zM134 275h239q0 51 -34.5 84t-86.5 33q-50 0 -80.5 -30.5
t-37.5 -86.5z" />
    <glyph glyph-name="Ebreve" unicode="&#x114;" horiz-adv-x="534" 
d="M361 838q0 -29 -21.5 -50.5t-51.5 -21.5t-51.5 21.5t-21.5 50.5h-78q0 -56 43.5 -93.5t107.5 -37.5t107.5 37.5t43.5 93.5h-78zM44 654h465v-96h-363v-183h348v-97h-348v-181h363v-97h-465v654z" />
    <glyph glyph-name="ebreve" unicode="&#x115;" 
d="M325 655q0 -29 -21.5 -50.5t-51.5 -21.5t-51.5 21.5t-21.5 50.5h-78q0 -56 43.5 -93.5t107.5 -37.5t107.5 37.5t43.5 93.5h-78zM132 203q5 -64 39 -98t92 -34q46 0 76.5 23t38.5 64l99 -16q-17 -75 -74.5 -118t-139.5 -43q-110 0 -172.5 67t-62.5 184q0 116 60 182.5
t164 66.5q105 0 165 -67t60 -176v-35h-345zM134 275h239q0 51 -34.5 84t-86.5 33q-50 0 -80.5 -30.5t-37.5 -86.5z" />
    <glyph glyph-name="Edotaccent" unicode="&#x116;" horiz-adv-x="534" 
d="M229 793q0 24 17.5 41t41.5 17t41 -17t17 -41t-17 -41.5t-41 -17.5q-23 0 -41 18t-18 41zM44 654h465v-96h-363v-183h348v-97h-348v-181h363v-97h-465v654z" />
    <glyph glyph-name="edotaccent" unicode="&#x117;" 
d="M192 610q0 24 17.5 41t41.5 17t41 -17t17 -41t-17 -41.5t-41 -17.5q-23 0 -41 18t-18 41zM132 203q5 -64 39 -98t92 -34q46 0 76.5 23t38.5 64l99 -16q-17 -75 -74.5 -118t-139.5 -43q-110 0 -172.5 67t-62.5 184q0 116 60 182.5t164 66.5q105 0 165 -67t60 -176v-35
h-345zM134 275h239q0 51 -34.5 84t-86.5 33q-50 0 -80.5 -30.5t-37.5 -86.5z" />
    <glyph glyph-name="Eogonek" unicode="&#x118;" horiz-adv-x="534" 
d="M267 -59q-22 -26 -22 -66t36 -40q27 0 35 35l60 -12q-23 -80 -92 -80q-42 0 -67.5 23t-25.5 62q0 26 9.5 46.5t36.5 55.5l34 41h48zM44 654h465v-96h-363v-183h348v-97h-348v-181h363v-97h-465v654z" />
    <glyph glyph-name="eogonek" unicode="&#x119;" 
d="M240 -59q-22 -26 -22 -66t36 -40q27 0 35 35l60 -12q-23 -80 -92 -80q-42 0 -67.5 23t-25.5 62q0 26 9.5 46.5t36.5 55.5l34 41h48zM132 203q5 -64 39 -98t92 -34q46 0 76.5 23t38.5 64l99 -16q-17 -75 -74.5 -118t-139.5 -43q-110 0 -172.5 67t-62.5 184q0 116 60 182.5
t164 66.5q105 0 165 -67t60 -176v-35h-345zM134 275h239q0 51 -34.5 84t-86.5 33q-50 0 -80.5 -30.5t-37.5 -86.5z" />
    <glyph glyph-name="Ecaron" unicode="&#x11a;" horiz-adv-x="534" 
d="M303 763l68 81h88l-114 -136h-114l-114 136h88l68 -81l9 -22h12zM44 654h465v-96h-363v-183h348v-97h-348v-181h363v-97h-465v654z" />
    <glyph glyph-name="ecaron" unicode="&#x11b;" 
d="M267 580l68 81h88l-114 -136h-114l-114 136h88l68 -81l9 -22h12zM132 203q5 -64 39 -98t92 -34q46 0 76.5 23t38.5 64l99 -16q-17 -75 -74.5 -118t-139.5 -43q-110 0 -172.5 67t-62.5 184q0 116 60 182.5t164 66.5q105 0 165 -67t60 -176v-35h-345zM134 275h239
q0 51 -34.5 84t-86.5 33q-50 0 -80.5 -30.5t-37.5 -86.5z" />
    <glyph glyph-name="Gcircumflex" unicode="&#x11c;" horiz-adv-x="600" 
d="M285 790l-68 -82h-88l114 136h114l114 -136h-88l-68 82l-9 21h-12zM569 444q-31 109 -102 167.5t-167 58.5q-123 0 -197.5 -93.5t-74.5 -261.5q0 -155 71.5 -244.5t179.5 -89.5q96 0 154 74.5t58 185.5h-21q0 -73 -46 -116.5t-117 -43.5q-78 0 -127 64.5t-49 178.5
q0 118 46 182.5t128 64.5q126 0 165 -147zM241 337v-96h229v-67l37 -13l-37 -160h102v336h-331z" />
    <glyph glyph-name="gcircumflex" unicode="&#x11d;" horiz-adv-x="451" 
d="M184 675l-68 -82h-88l114 136h114l114 -136h-88l-68 82l-9 21h-12zM31 318q0 73 51.5 118t139.5 45q91 0 146.5 -49t55.5 -130q0 -73 -48 -119t-125 -46q-16 10 -83 12v18q-64 4 -100.5 45.5t-36.5 105.5zM134 308q0 -42 25 -65.5t69 -23.5t69 23.5t25 65.5
q0 41 -24.5 63.5t-69.5 22.5t-69.5 -22.5t-24.5 -63.5zM372 495q-33 0 -33 -24q0 -11 19 -33l-53 18l11 21q-30 21 -30 48q0 25 21.5 39t60.5 14h83v-83h-79zM15 -95q0 49 42 78t114 29v12q-109 18 -109 72q0 32 39.5 46.5t126.5 14.5l23 -20q-46 0 -65 -4t-19 -13
q0 -18 76 -36q107 -24 152.5 -62.5t45.5 -96.5q0 -70 -57 -110.5t-156 -40.5q-98 0 -155.5 35.5t-57.5 95.5zM117 -69q0 -30 30 -47.5t83 -17.5q51 0 79.5 17t28.5 47q0 23 -18.5 36t-80.5 34q-56 0 -89 -18.5t-33 -50.5z" />
    <glyph glyph-name="Gbreve" unicode="&#x11e;" horiz-adv-x="600" 
d="M373 838q0 -29 -21.5 -50.5t-51.5 -21.5t-51.5 21.5t-21.5 50.5h-78q0 -56 43.5 -93.5t107.5 -37.5t107.5 37.5t43.5 93.5h-78zM569 444q-31 109 -102 167.5t-167 58.5q-123 0 -197.5 -93.5t-74.5 -261.5q0 -155 71.5 -244.5t179.5 -89.5q96 0 154 74.5t58 185.5h-21
q0 -73 -46 -116.5t-117 -43.5q-78 0 -127 64.5t-49 178.5q0 118 46 182.5t128 64.5q126 0 165 -147zM241 337v-96h229v-67l37 -13l-37 -160h102v336h-331z" />
    <glyph glyph-name="gbreve" unicode="&#x11f;" horiz-adv-x="451" 
d="M272 723q0 -29 -21.5 -50.5t-51.5 -21.5t-51.5 21.5t-21.5 50.5h-78q0 -56 43.5 -93.5t107.5 -37.5t107.5 37.5t43.5 93.5h-78zM31 318q0 73 51.5 118t139.5 45q91 0 146.5 -49t55.5 -130q0 -73 -48 -119t-125 -46q-16 10 -83 12v18q-64 4 -100.5 45.5t-36.5 105.5z
M134 308q0 -42 25 -65.5t69 -23.5t69 23.5t25 65.5q0 41 -24.5 63.5t-69.5 22.5t-69.5 -22.5t-24.5 -63.5zM372 495q-33 0 -33 -24q0 -11 19 -33l-53 18l11 21q-30 21 -30 48q0 25 21.5 39t60.5 14h83v-83h-79zM15 -95q0 49 42 78t114 29v12q-109 18 -109 72q0 32 39.5 46.5
t126.5 14.5l23 -20q-46 0 -65 -4t-19 -13q0 -18 76 -36q107 -24 152.5 -62.5t45.5 -96.5q0 -70 -57 -110.5t-156 -40.5q-98 0 -155.5 35.5t-57.5 95.5zM117 -69q0 -30 30 -47.5t83 -17.5q51 0 79.5 17t28.5 47q0 23 -18.5 36t-80.5 34q-56 0 -89 -18.5t-33 -50.5z" />
    <glyph glyph-name="Gdotaccent" unicode="&#x120;" horiz-adv-x="600" 
d="M240 793q0 24 17.5 41t41.5 17t41 -17t17 -41t-17 -41.5t-41 -17.5q-23 0 -41 18t-18 41zM569 444q-31 109 -102 167.5t-167 58.5q-123 0 -197.5 -93.5t-74.5 -261.5q0 -155 71.5 -244.5t179.5 -89.5q96 0 154 74.5t58 185.5h-21q0 -73 -46 -116.5t-117 -43.5
q-78 0 -127 64.5t-49 178.5q0 118 46 182.5t128 64.5q126 0 165 -147zM241 337v-96h229v-67l37 -13l-37 -160h102v336h-331z" />
    <glyph glyph-name="gdotaccent" unicode="&#x121;" horiz-adv-x="451" 
d="M139 678q0 24 17.5 41t41.5 17t41 -17t17 -41t-17 -41.5t-41 -17.5q-23 0 -41 18t-18 41zM31 318q0 73 51.5 118t139.5 45q91 0 146.5 -49t55.5 -130q0 -73 -48 -119t-125 -46q-16 10 -83 12v18q-64 4 -100.5 45.5t-36.5 105.5zM134 308q0 -42 25 -65.5t69 -23.5t69 23.5
t25 65.5q0 41 -24.5 63.5t-69.5 22.5t-69.5 -22.5t-24.5 -63.5zM372 495q-33 0 -33 -24q0 -11 19 -33l-53 18l11 21q-30 21 -30 48q0 25 21.5 39t60.5 14h83v-83h-79zM15 -95q0 49 42 78t114 29v12q-109 18 -109 72q0 32 39.5 46.5t126.5 14.5l23 -20q-46 0 -65 -4t-19 -13
q0 -18 76 -36q107 -24 152.5 -62.5t45.5 -96.5q0 -70 -57 -110.5t-156 -40.5q-98 0 -155.5 35.5t-57.5 95.5zM117 -69q0 -30 30 -47.5t83 -17.5q51 0 79.5 17t28.5 47q0 23 -18.5 36t-80.5 34q-56 0 -89 -18.5t-33 -50.5z" />
    <glyph glyph-name="uni0122" unicode="&#x122;" horiz-adv-x="600" 
d="M253 -109q0 25 17 42t42 17t42 -18.5t17 -46.5q0 -92 -32.5 -132t-85.5 -40l-11 56q46 0 73.5 20.5t33.5 58.5q-14 -15 -37 -15q-25 0 -42 16.5t-17 41.5zM569 444q-31 109 -102 167.5t-167 58.5q-123 0 -197.5 -93.5t-74.5 -261.5q0 -155 71.5 -244.5t179.5 -89.5
q96 0 154 74.5t58 185.5h-21q0 -73 -46 -116.5t-117 -43.5q-78 0 -127 64.5t-49 178.5q0 118 46 182.5t128 64.5q126 0 165 -147zM241 337v-96h229v-67l37 -13l-37 -160h102v336h-331z" />
    <glyph glyph-name="uni0123" unicode="&#x123;" horiz-adv-x="451" 
d="M258 651q0 -25 -17 -42t-42 -17t-42 18.5t-17 45.5q0 93 32.5 133.5t85.5 40.5l11 -58q-46 0 -73.5 -20t-33.5 -58q14 16 37 16q25 0 42 -17t17 -42zM31 318q0 73 51.5 118t139.5 45q91 0 146.5 -49t55.5 -130q0 -73 -48 -119t-125 -46q-16 10 -83 12v18
q-64 4 -100.5 45.5t-36.5 105.5zM134 308q0 -42 25 -65.5t69 -23.5t69 23.5t25 65.5q0 41 -24.5 63.5t-69.5 22.5t-69.5 -22.5t-24.5 -63.5zM372 495q-33 0 -33 -24q0 -11 19 -33l-53 18l11 21q-30 21 -30 48q0 25 21.5 39t60.5 14h83v-83h-79zM15 -95q0 49 42 78t114 29v12
q-109 18 -109 72q0 32 39.5 46.5t126.5 14.5l23 -20q-46 0 -65 -4t-19 -13q0 -18 76 -36q107 -24 152.5 -62.5t45.5 -96.5q0 -70 -57 -110.5t-156 -40.5q-98 0 -155.5 35.5t-57.5 95.5zM117 -69q0 -30 30 -47.5t83 -17.5q51 0 79.5 17t28.5 47q0 23 -18.5 36t-80.5 34
q-56 0 -89 -18.5t-33 -50.5z" />
    <glyph glyph-name="Hcircumflex" unicode="&#x124;" horiz-adv-x="586" 
d="M277 790l-68 -82h-88l114 136h114l114 -136h-88l-68 82l-9 21h-12zM94 380h387v-97h-387v97zM439 654h103v-654h-103v654zM44 654h102v-654h-102v654z" />
    <glyph glyph-name="hcircumflex" unicode="&#x125;" horiz-adv-x="500" 
d="M79 811l-68 -82h-88l114 136h114l114 -136h-88l-68 82l-9 21h-12zM353 287q0 47 -28 75.5t-73 28.5q-46 0 -76 -29.5t-30 -76.5h-16q0 82 46.5 138t119.5 56q68 0 114 -52.5t46 -128.5v-298h-103v287zM146 460l-28 -120l28 -10v-330h-102v687h102v-227z" />
    <glyph glyph-name="Hbar" unicode="&#x126;" horiz-adv-x="585" 
d="M44 654h102v-104h293v104h103v-104h43v-86h-43v-464h-103v283h-293v-283h-102v464h-44v86h44v104zM439 380v84h-293v-84h293z" />
    <glyph glyph-name="hbar" unicode="&#x127;" horiz-adv-x="498" 
d="M-30 630h328v-87h-328v87zM353 287q0 47 -28 75.5t-73 28.5q-46 0 -76 -29.5t-30 -76.5h-16q0 82 46.5 138t119.5 56q68 0 114 -52.5t46 -128.5v-298h-103v287zM146 460l-28 -120l28 -10v-330h-102v687h102v-227z" />
    <glyph glyph-name="Itilde" unicode="&#x128;" horiz-adv-x="190" 
d="M193 827q0 -65 -27 -65q-12 0 -23 6.5t-15 11t-16 18.5q-10 12 -18 19t-23.5 13.5t-34.5 6.5q-45 0 -69 -30.5t-24 -88.5l59 -8q0 69 32 69q7 0 13.5 -2t13 -7t10 -9t11 -12.5t10.5 -11.5q33 -34 75 -34q86 0 86 117zM44 654h102v-654h-102v654z" />
    <glyph glyph-name="itilde" unicode="&#x129;" horiz-adv-x="186" 
d="M193 644q0 -65 -27 -65q-12 0 -23 6.5t-15 11t-16 18.5q-10 12 -18 19t-23.5 13.5t-34.5 6.5q-45 0 -69 -30.5t-24 -88.5l59 -8q0 69 32 69q7 0 13.5 -2t13 -7t10 -9t11 -12.5t10.5 -11.5q33 -34 75 -34q86 0 86 117zM44 460h102v-460h-102v460z" />
    <glyph glyph-name="Imacron" unicode="&#x12a;" horiz-adv-x="190" 
d="M-39 780h268v-72h-268v72zM44 654h102v-654h-102v654z" />
    <glyph glyph-name="imacron" unicode="&#x12b;" horiz-adv-x="186" 
d="M-39 597h268v-72h-268v72zM44 460h102v-460h-102v460z" />
    <glyph glyph-name="Ibreve" unicode="&#x12c;" horiz-adv-x="190" 
d="M169 838q0 -29 -21.5 -50.5t-51.5 -21.5t-51.5 21.5t-21.5 50.5h-78q0 -56 43.5 -93.5t107.5 -37.5t107.5 37.5t43.5 93.5h-78zM44 654h102v-654h-102v654z" />
    <glyph glyph-name="ibreve" unicode="&#x12d;" horiz-adv-x="186" 
d="M169 655q0 -29 -21.5 -50.5t-51.5 -21.5t-51.5 21.5t-21.5 50.5h-78q0 -56 43.5 -93.5t107.5 -37.5t107.5 37.5t43.5 93.5h-78zM44 460h102v-460h-102v460z" />
    <glyph glyph-name="Iogonek" unicode="&#x12e;" horiz-adv-x="190" 
d="M73 -59q-22 -26 -22 -66t36 -40q27 0 35 35l60 -12q-23 -80 -92 -80q-42 0 -67.5 23t-25.5 62q0 26 9.5 46.5t36.5 55.5l34 41h48zM44 654h102v-654h-102v654z" />
    <glyph glyph-name="iogonek" unicode="&#x12f;" horiz-adv-x="187" 
d="M71 -58q-22 -26 -22 -66t36 -40q27 0 35 35l60 -12q-23 -80 -92 -80q-42 0 -67.5 23t-25.5 62q0 26 9.5 46.5t36.5 55.5l34 41h48zM33 583q0 25 18 43t42.5 18t42.5 -18t18 -43t-18 -43t-42.5 -18t-42.5 18t-18 43zM44 460h102v-460h-102v460z" />
    <glyph glyph-name="Idotaccent" unicode="&#x130;" horiz-adv-x="190" 
d="M36 793q0 24 17.5 41t41.5 17t41 -17t17 -41t-17 -41.5t-41 -17.5q-23 0 -41 18t-18 41zM44 654h102v-654h-102v654z" />
    <glyph glyph-name="dotlessi" unicode="&#x131;" horiz-adv-x="186" 
d="M44 460h102v-460h-102v460z" />
    <glyph glyph-name="IJ" unicode="&#x132;" horiz-adv-x="582" 
d="M539 654v-496q0 -75 -46 -124.5t-121 -49.5t-121 49t-55 138l99 15q3 -48 23 -78t52 -30q30 0 48 25t18 66v485h103zM44 654h102v-654h-102v654z" />
    <glyph glyph-name="ij" unicode="&#x133;" horiz-adv-x="369" 
d="M215 583q0 25 18 43t43 18t42.5 -18t17.5 -43t-17.5 -43t-42.5 -18t-43 18t-18 43zM44 460h102v-460h-102v460zM33 583q0 25 18 43t42.5 18t42.5 -18t18 -43t-18 -43t-42.5 -18t-42.5 18t-18 43zM226 460h102v-494q0 -68 -44 -108.5t-118 -40.5h-42v98h42q25 0 42.5 20.5
t17.5 51.5v473z" />
    <glyph glyph-name="Jcircumflex" unicode="&#x134;" horiz-adv-x="507" 
d="M395 790l-68 -82h-88l114 136h114l114 -136h-88l-68 82l-9 21h-12zM463 654h-103v-470q0 -47 -31 -76.5t-83 -29.5t-84.5 34t-38.5 89l-98 -25q12 -84 71.5 -138t151.5 -54q96 0 155.5 53.5t59.5 135.5v481z" />
    <glyph glyph-name="jcircumflex" unicode="&#x135;" horiz-adv-x="187" 
d="M78 607l-68 -82h-88l114 136h114l114 -136h-88l-68 82l-9 21h-12zM44 460h102v-494q0 -66 -44 -105t-118 -39h-42v98h42q24 0 42 19.5t18 47.5v473z" />
    <glyph glyph-name="uni0136" unicode="&#x136;" horiz-adv-x="575" 
d="M226 -109q0 25 17 42t42 17t42 -18.5t17 -46.5q0 -92 -32.5 -132t-85.5 -40l-11 56q46 0 73.5 20.5t33.5 58.5q-14 -15 -37 -15q-25 0 -42 16.5t-17 41.5zM44 654h102v-310l284 310h130l-262 -300l262 -354h-138l-206 286l-70 -68v-218h-102v654z" />
    <glyph glyph-name="uni0137" unicode="&#x137;" horiz-adv-x="488" 
d="M185 -109q0 25 17 42t42 17t42 -18.5t17 -46.5q0 -92 -32.5 -132t-85.5 -40l-11 56q46 0 73.5 20.5t33.5 58.5q-14 -15 -37 -15q-25 0 -42 16.5t-17 41.5zM44 687h102v-442l205 215h125l-190 -212l190 -248h-124l-140 186l-66 -67v-119h-102v687z" />
    <glyph glyph-name="kgreenlandic" unicode="&#x138;" horiz-adv-x="493" 
d="M44 460h102v-215l205 215h125l-190 -212l190 -248h-124l-140 186l-66 -67v-119h-102v460z" />
    <glyph glyph-name="Lacute" unicode="&#x139;" horiz-adv-x="534" 
d="M227 876l-121 -167h-67l92 167h96zM44 654h102v-557h363v-97h-465v654z" />
    <glyph glyph-name="lacute" unicode="&#x13a;" horiz-adv-x="190" 
d="M227 897l-121 -167h-67l92 167h96zM44 687h102v-687h-102v687z" />
    <glyph glyph-name="uni013B" unicode="&#x13b;" horiz-adv-x="534" 
d="M229 -109q0 25 17 42t42 17t42 -18.5t17 -46.5q0 -92 -32.5 -132t-85.5 -40l-11 56q46 0 73.5 20.5t33.5 58.5q-14 -15 -37 -15q-25 0 -42 16.5t-17 41.5zM44 654h102v-557h363v-97h-465v654z" />
    <glyph glyph-name="uni013C" unicode="&#x13c;" horiz-adv-x="190" 
d="M35 -109q0 25 17 42t42 17t42 -18.5t17 -46.5q0 -92 -32.5 -132t-85.5 -40l-11 56q46 0 73.5 20.5t33.5 58.5q-14 -15 -37 -15q-25 0 -42 16.5t-17 41.5zM44 687h102v-687h-102v687z" />
    <glyph glyph-name="Lcaron" unicode="&#x13d;" horiz-adv-x="534" 
d="M209 675h92l-56 -178h-43zM44 654h102v-557h363v-97h-465v654z" />
    <glyph glyph-name="lcaron" unicode="&#x13e;" horiz-adv-x="190" 
d="M209 696h92l-56 -178h-43zM44 687h102v-687h-102v687z" />
    <glyph glyph-name="Ldot" unicode="&#x13f;" horiz-adv-x="534" 
d="M232 334q0 25 17 42t42 17t42 -17t17 -42t-17 -41.5t-42 -16.5t-42 16.5t-17 41.5zM44 654h102v-557h363v-97h-465v654z" />
    <glyph glyph-name="ldot" unicode="&#x140;" horiz-adv-x="352" 
d="M228 356q0 25 17 42t42 17t42 -17t17 -42t-17 -41.5t-42 -16.5t-42 16.5t-17 41.5zM44 687h102v-687h-102v687z" />
    <glyph glyph-name="Lslash" unicode="&#x141;" horiz-adv-x="534" 
d="M44 654h102v-257l101 36l32 -93l-133 -47v-196h363v-97h-465v258l-44 -17l-32 93l76 28v292z" />
    <glyph glyph-name="lslash" unicode="&#x142;" horiz-adv-x="204" 
d="M52 687h102v-257l58 21l28 -94l-86 -30v-327h-102v295l-61 -22l-27 93l88 31v290z" />
    <glyph glyph-name="Nacute" unicode="&#x143;" horiz-adv-x="606" 
d="M442 876l-121 -167h-67l92 167h96zM459 654h103v-654h-135l-281 508v-508h-102v654h134l281 -506v506z" />
    <glyph glyph-name="nacute" unicode="&#x144;" horiz-adv-x="500" 
d="M380 693l-121 -167h-67l92 167h96zM353 287q0 47 -28 75.5t-73 28.5q-46 0 -76 -29.5t-30 -76.5h-16q0 82 46 138t120 56q68 0 114 -52.5t46 -128.5v-298h-103v287zM44 460h102l-28 -120l28 -10v-330h-102v460z" />
    <glyph glyph-name="uni0145" unicode="&#x145;" horiz-adv-x="606" 
d="M252 -109q0 25 17 42t42 17t42 -18.5t17 -46.5q0 -92 -32.5 -132t-85.5 -40l-11 56q46 0 73.5 20.5t33.5 58.5q-14 -15 -37 -15q-25 0 -42 16.5t-17 41.5zM459 654h103v-654h-135l-281 508v-508h-102v654h134l281 -506v506z" />
    <glyph glyph-name="uni0146" unicode="&#x146;" horiz-adv-x="500" 
d="M198 -109q0 25 17 42t42 17t42 -18.5t17 -46.5q0 -92 -32.5 -132t-85.5 -40l-11 56q46 0 73.5 20.5t33.5 58.5q-14 -15 -37 -15q-25 0 -42 16.5t-17 41.5zM353 287q0 47 -28 75.5t-73 28.5q-46 0 -76 -29.5t-30 -76.5h-16q0 82 46 138t120 56q68 0 114 -52.5t46 -128.5
v-298h-103v287zM44 460h102l-28 -120l28 -10v-330h-102v460z" />
    <glyph glyph-name="Ncaron" unicode="&#x147;" horiz-adv-x="606" 
d="M325 763l68 81h88l-114 -136h-114l-114 136h88l68 -81l9 -22h12zM459 654h103v-654h-135l-281 508v-508h-102v654h134l281 -506v506z" />
    <glyph glyph-name="ncaron" unicode="&#x148;" horiz-adv-x="500" 
d="M263 580l68 81h88l-114 -136h-114l-114 136h88l68 -81l9 -22h12zM353 287q0 47 -28 75.5t-73 28.5q-46 0 -76 -29.5t-30 -76.5h-16q0 82 46 138t120 56q68 0 114 -52.5t46 -128.5v-298h-103v287zM44 460h102l-28 -120l28 -10v-330h-102v460z" />
    <glyph glyph-name="napostrophe" unicode="&#x149;" horiz-adv-x="597" 
d="M451 287q0 47 -28 75.5t-73 28.5q-46 0 -76 -29.5t-30 -76.5h-16q0 82 46 138t120 56q68 0 114 -52.5t46 -128.5v-298h-103v287zM142 460h102l-28 -120l28 -10v-330h-102v460zM7 687h91l-55 -199h-43z" />
    <glyph glyph-name="Eng" unicode="&#x14a;" horiz-adv-x="574" 
d="M44 654h102l-31 -173l31 -10v-471h-102v654zM428 428q0 72 -37.5 115t-99.5 43q-63 0 -104 -44.5t-41 -115.5h-16q0 111 54 177t144 66q86 0 144.5 -67t58.5 -164v-455q0 -82 -47.5 -127t-127.5 -45h-54v99h44q82 0 82 84v434z" />
    <glyph glyph-name="eng" unicode="&#x14b;" horiz-adv-x="499" 
d="M44 460h102l-31 -119l31 -11v-330h-102v460zM353 287q0 47 -27.5 75.5t-71.5 28.5q-47 0 -77.5 -29.5t-30.5 -76.5h-16q0 88 44 141t117 53q70 0 117.5 -52.5t47.5 -128.5v-338q0 -69 -37 -106.5t-100 -37.5h-64v94h44q22 0 38 17.5t16 43.5v316z" />
    <glyph glyph-name="Omacron" unicode="&#x14c;" horiz-adv-x="611" 
d="M170 780h268v-72h-268v72zM131 327q0 -117 46.5 -181.5t128.5 -64.5t128 64.5t46 181.5t-46 183t-128 66t-128.5 -66t-46.5 -183zM28 327q0 163 75.5 255.5t202.5 92.5q119 0 198 -94t79 -254q0 -163 -74.5 -254.5t-202.5 -91.5t-203 91.5t-75 254.5z" />
    <glyph glyph-name="omacron" unicode="&#x14d;" 
d="M117 597h268v-72h-268v72zM131 232q0 -78 32 -119.5t89 -41.5q58 0 90 42t32 119t-32.5 118.5t-89.5 41.5t-89 -41.5t-32 -118.5zM28 232q0 118 60.5 183.5t163.5 65.5q97 0 161 -66.5t64 -182.5q0 -119 -61 -185t-164 -66t-163.5 66t-60.5 185z" />
    <glyph glyph-name="Obreve" unicode="&#x14e;" horiz-adv-x="611" 
d="M378 838q0 -29 -21.5 -50.5t-51.5 -21.5t-51.5 21.5t-21.5 50.5h-78q0 -56 43.5 -93.5t107.5 -37.5t107.5 37.5t43.5 93.5h-78zM131 327q0 -117 46.5 -181.5t128.5 -64.5t128 64.5t46 181.5t-46 183t-128 66t-128.5 -66t-46.5 -183zM28 327q0 163 75.5 255.5t202.5 92.5
q119 0 198 -94t79 -254q0 -163 -74.5 -254.5t-202.5 -91.5t-203 91.5t-75 254.5z" />
    <glyph glyph-name="obreve" unicode="&#x14f;" 
d="M325 655q0 -29 -21.5 -50.5t-51.5 -21.5t-51.5 21.5t-21.5 50.5h-78q0 -56 43.5 -93.5t107.5 -37.5t107.5 37.5t43.5 93.5h-78zM131 232q0 -78 32 -119.5t89 -41.5q58 0 90 42t32 119t-32.5 118.5t-89.5 41.5t-89 -41.5t-32 -118.5zM28 232q0 118 60.5 183.5t163.5 65.5
q97 0 161 -66.5t64 -182.5q0 -119 -61 -185t-164 -66t-163.5 66t-60.5 185z" />
    <glyph glyph-name="Ohungarumlaut" unicode="&#x150;" horiz-adv-x="611" 
d="M469 876l-120 -167h-68l92 167h96zM320 876l-121 -167h-67l92 167h96zM131 327q0 -117 46.5 -181.5t128.5 -64.5t128 64.5t46 181.5t-46 183t-128 66t-128.5 -66t-46.5 -183zM28 327q0 163 75.5 255.5t202.5 92.5q119 0 198 -94t79 -254q0 -163 -74.5 -254.5
t-202.5 -91.5t-203 91.5t-75 254.5z" />
    <glyph glyph-name="ohungarumlaut" unicode="&#x151;" 
d="M416 693l-120 -167h-68l92 167h96zM267 693l-121 -167h-67l92 167h96zM131 232q0 -78 32 -119.5t89 -41.5q58 0 90 42t32 119t-32.5 118.5t-89.5 41.5t-89 -41.5t-32 -118.5zM28 232q0 118 60.5 183.5t163.5 65.5q97 0 161 -66.5t64 -182.5q0 -119 -61 -185t-164 -66
t-163.5 66t-60.5 185z" />
    <glyph glyph-name="OE" unicode="&#x152;" horiz-adv-x="954" 
d="M482 654h446v-96h-344v-183h344v-97h-344v-181h344v-97h-446v117l-22 3l32 205l-28 195l18 2v132zM132 324q0 -121 46 -187t128.5 -66t128 66t45.5 187q0 120 -45.5 186t-128 66t-129 -66t-45.5 -186zM28 324q0 162 68.5 251.5t185.5 89.5q94 0 157 -91t63 -250
q0 -163 -59.5 -253t-160.5 -90q-117 0 -185.5 90t-68.5 253z" />
    <glyph glyph-name="oe" unicode="&#x153;" horiz-adv-x="846" 
d="M427 205v-75h-56l16 75h40zM132 232q0 -78 30.5 -119.5t85.5 -41.5q58 0 91 42t33 119t-33 118.5t-91 41.5q-55 0 -85.5 -41.5t-30.5 -118.5zM28 232q0 118 59.5 183.5t160.5 65.5q97 0 162 -66.5t65 -182.5q0 -16 -43.5 -26.5t-48.5 -21.5q-3 -90 -45 -146.5t-110 -56.5
q-92 0 -146 66t-54 185zM438 269v59h37l-5 -59h-32zM476 205q5 -63 39 -98t93 -35q44 0 74 25t38 68l98 -16q-17 -79 -73 -122.5t-139 -43.5q-104 0 -168.5 69.5t-64.5 181.5q0 28 27.5 46.5t69.5 18.5q0 83 44 134t114 51q85 0 137.5 -63t52.5 -165v-51h-342zM477 278h237
q0 51 -33 83.5t-85 32.5q-50 0 -81 -30t-38 -86z" />
    <glyph glyph-name="Racute" unicode="&#x154;" horiz-adv-x="537" 
d="M401 876l-121 -167h-67l92 167h96zM258 276h111l146 -276h-110zM44 0v654h252q98 0 158.5 -60.5t60.5 -153.5q0 -89 -59.5 -143.5t-159.5 -54.5h-150v-242h-102zM146 338h140q126 0 126 106q0 54 -32 84t-94 30h-140v-220z" />
    <glyph glyph-name="racute" unicode="&#x155;" horiz-adv-x="338" 
d="M320 693l-121 -167h-67l92 167h96zM44 460h102l-30 -119l30 -11v-330h-102v460zM276 369q-53 0 -91.5 -30.5t-38.5 -78.5l-15 25q0 82 42.5 131t112.5 49h37v-96h-47z" />
    <glyph glyph-name="uni0156" unicode="&#x156;" horiz-adv-x="537" 
d="M211 -109q0 25 17 42t42 17t42 -18.5t17 -46.5q0 -92 -32.5 -132t-85.5 -40l-11 56q46 0 73.5 20.5t33.5 58.5q-14 -15 -37 -15q-25 0 -42 16.5t-17 41.5zM258 276h111l146 -276h-110zM44 0v654h252q98 0 158.5 -60.5t60.5 -153.5q0 -89 -59.5 -143.5t-159.5 -54.5h-150
v-242h-102zM146 338h140q126 0 126 106q0 54 -32 84t-94 30h-140v-220z" />
    <glyph glyph-name="uni0157" unicode="&#x157;" horiz-adv-x="338" 
d="M35 -108q0 25 17 42t42 17t42 -18.5t17 -46.5q0 -92 -32.5 -132t-85.5 -40l-11 56q46 0 73.5 20.5t33.5 58.5q-14 -15 -37 -15q-25 0 -42 16.5t-17 41.5zM44 460h102l-30 -119l30 -11v-330h-102v460zM276 369q-53 0 -91.5 -30.5t-38.5 -78.5l-15 25q0 82 42.5 131
t112.5 49h37v-96h-47z" />
    <glyph glyph-name="Rcaron" unicode="&#x158;" horiz-adv-x="537" 
d="M284 763l68 81h88l-114 -136h-114l-114 136h88l68 -81l9 -22h12zM258 276h111l146 -276h-110zM44 0v654h252q98 0 158.5 -60.5t60.5 -153.5q0 -89 -59.5 -143.5t-159.5 -54.5h-150v-242h-102zM146 338h140q126 0 126 106q0 54 -32 84t-94 30h-140v-220z" />
    <glyph glyph-name="rcaron" unicode="&#x159;" horiz-adv-x="338" 
d="M203 580l68 81h88l-114 -136h-114l-114 136h88l68 -81l9 -22h12zM44 460h102l-30 -119l30 -11v-330h-102v460zM276 369q-53 0 -91.5 -30.5t-38.5 -78.5l-15 25q0 82 42.5 131t112.5 49h37v-96h-47z" />
    <glyph glyph-name="Sacute" unicode="&#x15a;" horiz-adv-x="521" 
d="M384 876l-121 -167h-67l92 167h96zM493 173q0 -89 -59 -142t-154.5 -53t-160.5 52.5t-91 157.5l96 21q41 -132 153 -132q50 0 81.5 26t31.5 68q0 19 -8.5 34.5t-19.5 25t-33.5 18.5t-38 13.5t-46.5 11.5l-9 3q-34 8 -59.5 17t-54 25t-46 36t-29.5 50.5t-12 68.5
q0 90 57.5 143t156.5 53q92 0 154.5 -48.5t85.5 -145.5l-95 -21q-14 57 -50 86.5t-91 29.5q-54 0 -85 -26t-31 -69q0 -20 8 -35.5t19.5 -26t33.5 -19.5t39.5 -14.5t48.5 -12.5q36 -10 59.5 -17.5t54.5 -23.5t49.5 -35t31.5 -50t13 -69z" />
    <glyph glyph-name="sacute" unicode="&#x15b;" horiz-adv-x="436" 
d="M341 693l-121 -167h-67l92 167h96zM408 120q0 -63 -48 -102.5t-124 -39.5q-79 0 -135.5 43t-72.5 124l97 15q23 -98 105 -98q33 0 54 17t21 44q0 12 -5.5 21.5t-12.5 15.5t-22 12.5t-25 9.5t-29 9q-9 2 -13 3q-29 9 -48 15.5t-43 19.5t-38.5 27t-24.5 37t-10 51
q0 63 45.5 100t122.5 37q161 0 201 -151l-98 -20q-21 87 -95 87q-34 0 -54 -15t-20 -40q0 -14 7 -25t22 -18.5t28.5 -12.5t36.5 -12q4 -1 11 -3q22 -6 34 -10t32.5 -12t32 -15t26.5 -19t23 -25t13.5 -31t5.5 -39z" />
    <glyph glyph-name="Scircumflex" unicode="&#x15c;" horiz-adv-x="521" 
d="M237 790l-68 -82h-88l114 136h114l114 -136h-88l-68 82l-9 21h-12zM493 173q0 -89 -59 -142t-154.5 -53t-160.5 52.5t-91 157.5l96 21q41 -132 153 -132q50 0 81.5 26t31.5 68q0 19 -8.5 34.5t-19.5 25t-33.5 18.5t-38 13.5t-46.5 11.5l-9 3q-34 8 -59.5 17t-54 25
t-46 36t-29.5 50.5t-12 68.5q0 90 57.5 143t156.5 53q92 0 154.5 -48.5t85.5 -145.5l-95 -21q-14 57 -50 86.5t-91 29.5q-54 0 -85 -26t-31 -69q0 -20 8 -35.5t19.5 -26t33.5 -19.5t39.5 -14.5t48.5 -12.5q36 -10 59.5 -17.5t54.5 -23.5t49.5 -35t31.5 -50t13 -69z" />
    <glyph glyph-name="scircumflex" unicode="&#x15d;" horiz-adv-x="436" 
d="M194 607l-68 -82h-88l114 136h114l114 -136h-88l-68 82l-9 21h-12zM408 120q0 -63 -48 -102.5t-124 -39.5q-79 0 -135.5 43t-72.5 124l97 15q23 -98 105 -98q33 0 54 17t21 44q0 12 -5.5 21.5t-12.5 15.5t-22 12.5t-25 9.5t-29 9q-9 2 -13 3q-29 9 -48 15.5t-43 19.5
t-38.5 27t-24.5 37t-10 51q0 63 45.5 100t122.5 37q161 0 201 -151l-98 -20q-21 87 -95 87q-34 0 -54 -15t-20 -40q0 -14 7 -25t22 -18.5t28.5 -12.5t36.5 -12q4 -1 11 -3q22 -6 34 -10t32.5 -12t32 -15t26.5 -19t23 -25t13.5 -31t5.5 -39z" />
    <glyph glyph-name="Scedilla" unicode="&#x15e;" horiz-adv-x="521" 
d="M207 -152l59 15q8 -28 36 -28q30 0 30 41q0 32 -24 32q-18 0 -28 -33l-58 12l23 119h62l-33 -71l11 -6q18 31 46 31q27 0 44 -23t17 -59q0 -46 -23.5 -73t-63.5 -27q-74 0 -98 70zM493 173q0 -89 -59 -142t-154.5 -53t-160.5 52.5t-91 157.5l96 21q41 -132 153 -132
q50 0 81.5 26t31.5 68q0 19 -8.5 34.5t-19.5 25t-33.5 18.5t-38 13.5t-46.5 11.5l-9 3q-34 8 -59.5 17t-54 25t-46 36t-29.5 50.5t-12 68.5q0 90 57.5 143t156.5 53q92 0 154.5 -48.5t85.5 -145.5l-95 -21q-14 57 -50 86.5t-91 29.5q-54 0 -85 -26t-31 -69q0 -20 8 -35.5
t19.5 -26t33.5 -19.5t39.5 -14.5t48.5 -12.5q36 -10 59.5 -17.5t54.5 -23.5t49.5 -35t31.5 -50t13 -69z" />
    <glyph glyph-name="scedilla" unicode="&#x15f;" horiz-adv-x="436" 
d="M157 -152l59 15q8 -28 36 -28q30 0 30 41q0 32 -24 32q-18 0 -28 -33l-58 12l23 119h62l-33 -71l11 -6q18 31 46 31q27 0 44 -23t17 -59q0 -46 -23.5 -73t-63.5 -27q-74 0 -98 70zM408 120q0 -63 -48 -102.5t-124 -39.5q-79 0 -135.5 43t-72.5 124l97 15q23 -98 105 -98
q33 0 54 17t21 44q0 12 -5.5 21.5t-12.5 15.5t-22 12.5t-25 9.5t-29 9q-9 2 -13 3q-29 9 -48 15.5t-43 19.5t-38.5 27t-24.5 37t-10 51q0 63 45.5 100t122.5 37q161 0 201 -151l-98 -20q-21 87 -95 87q-34 0 -54 -15t-20 -40q0 -14 7 -25t22 -18.5t28.5 -12.5t36.5 -12
q4 -1 11 -3q22 -6 34 -10t32.5 -12t32 -15t26.5 -19t23 -25t13.5 -31t5.5 -39z" />
    <glyph glyph-name="Scaron" unicode="&#x160;" horiz-adv-x="521" 
d="M267 763l68 81h88l-114 -136h-114l-114 136h88l68 -81l9 -22h12zM493 173q0 -89 -59 -142t-154.5 -53t-160.5 52.5t-91 157.5l96 21q41 -132 153 -132q50 0 81.5 26t31.5 68q0 19 -8.5 34.5t-19.5 25t-33.5 18.5t-38 13.5t-46.5 11.5l-9 3q-34 8 -59.5 17t-54 25t-46 36
t-29.5 50.5t-12 68.5q0 90 57.5 143t156.5 53q92 0 154.5 -48.5t85.5 -145.5l-95 -21q-14 57 -50 86.5t-91 29.5q-54 0 -85 -26t-31 -69q0 -20 8 -35.5t19.5 -26t33.5 -19.5t39.5 -14.5t48.5 -12.5q36 -10 59.5 -17.5t54.5 -23.5t49.5 -35t31.5 -50t13 -69z" />
    <glyph glyph-name="scaron" unicode="&#x161;" horiz-adv-x="436" 
d="M224 580l68 81h88l-114 -136h-114l-114 136h88l68 -81l9 -22h12zM408 120q0 -63 -48 -102.5t-124 -39.5q-79 0 -135.5 43t-72.5 124l97 15q23 -98 105 -98q33 0 54 17t21 44q0 12 -5.5 21.5t-12.5 15.5t-22 12.5t-25 9.5t-29 9q-9 2 -13 3q-29 9 -48 15.5t-43 19.5
t-38.5 27t-24.5 37t-10 51q0 63 45.5 100t122.5 37q161 0 201 -151l-98 -20q-21 87 -95 87q-34 0 -54 -15t-20 -40q0 -14 7 -25t22 -18.5t28.5 -12.5t36.5 -12q4 -1 11 -3q22 -6 34 -10t32.5 -12t32 -15t26.5 -19t23 -25t13.5 -31t5.5 -39z" />
    <glyph glyph-name="uni0162" unicode="&#x162;" horiz-adv-x="552" 
d="M202 -151l59 15q8 -28 36 -28q30 0 30 41q0 32 -24 32q-18 0 -28 -33l-58 12l23 119h62l-33 -71l11 -6q18 31 46 31q27 0 44 -23t17 -59q0 -46 -23.5 -73t-63.5 -27q-74 0 -98 70zM27 654h498v-96h-198v-558h-103v558h-197v96z" />
    <glyph glyph-name="uni0163" unicode="&#x163;" horiz-adv-x="362" 
d="M173 -152l59 15q8 -28 36 -28q30 0 30 41q0 32 -24 32q-18 0 -28 -33l-58 12l23 119h62l-33 -71l11 -6q18 31 46 31q27 0 44 -23t17 -59q0 -46 -23.5 -73t-63.5 -27q-74 0 -98 70zM202 374v-214q0 -49 12 -61t54 -12h79v-87h-108q-68 0 -103.5 32.5t-35.5 116.5v225h-85
v86h85v135l102 11v-146h145v-86h-145z" />
    <glyph glyph-name="Tcaron" unicode="&#x164;" horiz-adv-x="552" 
d="M289 763l68 81h88l-114 -136h-114l-114 136h88l68 -81l9 -22h12zM27 654h498v-96h-198v-558h-103v558h-197v96z" />
    <glyph glyph-name="tcaron" unicode="&#x165;" horiz-adv-x="362" 
d="M264 681h92l-56 -178h-43zM202 374v-214q0 -49 12 -61t54 -12h79v-87h-108q-68 0 -103.5 32.5t-35.5 116.5v225h-85v86h85v135l102 11v-146h145v-86h-145z" />
    <glyph glyph-name="Tbar" unicode="&#x166;" horiz-adv-x="550" 
d="M94 411h363v-95h-363v95zM27 654h498v-96h-198v-558h-103v558h-197v96z" />
    <glyph glyph-name="tbar" unicode="&#x167;" horiz-adv-x="362" 
d="M16 310h332v-70h-332v70zM203 374v-214q0 -49 11.5 -61t53.5 -12h80v-87h-108q-69 0 -104 32.5t-35 116.5v225h-85v86h85v135l102 11v-146h145v-86h-145z" />
    <glyph glyph-name="Utilde" unicode="&#x168;" horiz-adv-x="577" 
d="M389 827q0 -65 -27 -65q-12 0 -23 6.5t-15 11t-16 18.5q-10 12 -18 19t-23.5 13.5t-34.5 6.5q-45 0 -69 -30.5t-24 -88.5l59 -8q0 69 32 69q7 0 13.5 -2t13 -7t10 -9t11 -12.5t10.5 -11.5q33 -34 75 -34q86 0 86 117zM146 654v-429q0 -68 37.5 -105.5t106.5 -37.5
q68 0 104 37t36 106v429h103v-440q0 -100 -68.5 -165t-174.5 -65q-110 0 -178 63.5t-68 166.5v440h102z" />
    <glyph glyph-name="utilde" unicode="&#x169;" horiz-adv-x="500" 
d="M347 644q0 -65 -27 -65q-12 0 -23 6.5t-15 11t-16 18.5q-10 12 -18 19t-23.5 13.5t-34.5 6.5q-45 0 -69 -30.5t-24 -88.5l59 -8q0 69 32 69q7 0 13.5 -2t13 -7t10 -9t11 -12.5t10.5 -11.5q33 -34 75 -34q86 0 86 117zM146 173q0 -49 28.5 -79t73.5 -30q46 0 76 31t30 80
h16q0 -82 -46.5 -138t-119.5 -56q-68 0 -114 52.5t-46 128.5v298h102v-287zM456 0h-102l28 120l-28 10v330h102v-460z" />
    <glyph glyph-name="Umacron" unicode="&#x16a;" horiz-adv-x="577" 
d="M157 780h268v-72h-268v72zM146 654v-429q0 -68 37.5 -105.5t106.5 -37.5q68 0 104 37t36 106v429h103v-440q0 -100 -68.5 -165t-174.5 -65q-110 0 -178 63.5t-68 166.5v440h102z" />
    <glyph glyph-name="umacron" unicode="&#x16b;" horiz-adv-x="500" 
d="M115 597h268v-72h-268v72zM146 173q0 -49 28.5 -79t73.5 -30q46 0 76 31t30 80h16q0 -82 -46.5 -138t-119.5 -56q-68 0 -114 52.5t-46 128.5v298h102v-287zM456 0h-102l28 120l-28 10v330h102v-460z" />
    <glyph glyph-name="Ubreve" unicode="&#x16c;" horiz-adv-x="577" 
d="M365 838q0 -29 -21.5 -50.5t-51.5 -21.5t-51.5 21.5t-21.5 50.5h-78q0 -56 43.5 -93.5t107.5 -37.5t107.5 37.5t43.5 93.5h-78zM146 654v-429q0 -68 37.5 -105.5t106.5 -37.5q68 0 104 37t36 106v429h103v-440q0 -100 -68.5 -165t-174.5 -65q-110 0 -178 63.5t-68 166.5
v440h102z" />
    <glyph glyph-name="ubreve" unicode="&#x16d;" horiz-adv-x="500" 
d="M323 655q0 -29 -21.5 -50.5t-51.5 -21.5t-51.5 21.5t-21.5 50.5h-78q0 -56 43.5 -93.5t107.5 -37.5t107.5 37.5t43.5 93.5h-78zM146 173q0 -49 28.5 -79t73.5 -30q46 0 76 31t30 80h16q0 -82 -46.5 -138t-119.5 -56q-68 0 -114 52.5t-46 128.5v298h102v-287zM456 0h-102
l28 120l-28 10v330h102v-460z" />
    <glyph glyph-name="Uring" unicode="&#x16e;" horiz-adv-x="577" 
d="M292 771q16 0 28 12.5t12 29.5q0 16 -12 28.5t-28 12.5t-28.5 -12.5t-12.5 -28.5t12.5 -29t28.5 -13zM187 813q0 44 30.5 74t74.5 30t74 -30t30 -74t-30 -74t-74 -30t-74.5 30t-30.5 74zM146 654v-429q0 -68 37.5 -105.5t106.5 -37.5q68 0 104 37t36 106v429h103v-440
q0 -100 -68.5 -165t-174.5 -65q-110 0 -178 63.5t-68 166.5v440h102z" />
    <glyph glyph-name="uring" unicode="&#x16f;" horiz-adv-x="500" 
d="M250 588q16 0 28 12.5t12 29.5q0 16 -12 28.5t-28 12.5t-28.5 -12.5t-12.5 -28.5t12.5 -29t28.5 -13zM145 630q0 44 30.5 74t74.5 30t74 -30t30 -74t-30 -74t-74 -30t-74.5 30t-30.5 74zM146 173q0 -49 28.5 -79t73.5 -30q46 0 76 31t30 80h16q0 -82 -46.5 -138
t-119.5 -56q-68 0 -114 52.5t-46 128.5v298h102v-287zM456 0h-102l28 120l-28 10v330h102v-460z" />
    <glyph glyph-name="Uhungarumlaut" unicode="&#x170;" horiz-adv-x="577" 
d="M456 876l-120 -167h-68l92 167h96zM307 876l-121 -167h-67l92 167h96zM146 654v-429q0 -68 37.5 -105.5t106.5 -37.5q68 0 104 37t36 106v429h103v-440q0 -100 -68.5 -165t-174.5 -65q-110 0 -178 63.5t-68 166.5v440h102z" />
    <glyph glyph-name="uhungarumlaut" unicode="&#x171;" horiz-adv-x="500" 
d="M414 693l-120 -167h-68l92 167h96zM265 693l-121 -167h-67l92 167h96zM146 173q0 -49 28.5 -79t73.5 -30q46 0 76 31t30 80h16q0 -82 -46.5 -138t-119.5 -56q-68 0 -114 52.5t-46 128.5v298h102v-287zM456 0h-102l28 120l-28 10v330h102v-460z" />
    <glyph glyph-name="Uogonek" unicode="&#x172;" horiz-adv-x="577" 
d="M269 -59q-22 -26 -22 -66t36 -40q27 0 35 35l60 -12q-23 -80 -92 -80q-42 0 -67.5 23t-25.5 62q0 26 9.5 46.5t36.5 55.5l34 41h48zM146 654v-429q0 -68 37.5 -105.5t106.5 -37.5q68 0 104 37t36 106v429h103v-440q0 -100 -68.5 -165t-174.5 -65q-110 0 -178 63.5
t-68 166.5v440h102z" />
    <glyph glyph-name="uogonek" unicode="&#x173;" horiz-adv-x="500" 
d="M235 -59q-22 -26 -22 -66t36 -40q27 0 35 35l60 -12q-23 -80 -92 -80q-42 0 -67.5 23t-25.5 62q0 26 9.5 46.5t36.5 55.5l34 41h48zM146 173q0 -49 28.5 -79t73.5 -30q46 0 76 31t30 80h16q0 -82 -46.5 -138t-119.5 -56q-68 0 -114 52.5t-46 128.5v298h102v-287zM456 0
h-102l28 120l-28 10v330h102v-460z" />
    <glyph glyph-name="Wcircumflex" unicode="&#x174;" horiz-adv-x="981" 
d="M472 790l-68 -82h-88l114 136h114l114 -136h-88l-68 82l-9 21h-12zM476 502l-122 -502h-159l-180 654h105l140 -499l10 -56h12l10 56l126 499h142l128 -499l10 -56h13l9 56l142 499h104l-180 -654h-160l-123 502l-7 60h-12z" />
    <glyph glyph-name="wcircumflex" unicode="&#x175;" horiz-adv-x="772" 
d="M370 607l-68 -82h-88l114 136h114l114 -136h-88l-68 82l-9 21h-12zM372 307l-76 -307h-154l-127 460h105l84 -305l8 -56h13l11 56l79 305h142l80 -305l10 -56h13l8 56l85 305h104l-126 -460h-154l-77 307l-8 61h-12z" />
    <glyph glyph-name="Ycircumflex" unicode="&#x176;" horiz-adv-x="612" 
d="M295 790l-68 -82h-88l114 136h114l114 -136h-88l-68 82l-9 21h-12zM370 263l227 391h-115l-159 -284l-10 -38h-13l-11 38l-158 284h-116l227 -391h14v-263h102v263h12z" />
    <glyph glyph-name="ycircumflex" unicode="&#x177;" horiz-adv-x="489" 
d="M229 607l-68 -82h-88l114 136h114l114 -136h-88l-68 82l-9 21h-12zM262 150l101 310h111l-196 -546q-17 -48 -51 -74.5t-75 -26.5h-112l-1 94h73q25 0 38.5 10.5t21.5 38.5l12 44l-169 460h110l102 -310l11 -56h13z" />
    <glyph glyph-name="Ydieresis" unicode="&#x178;" horiz-adv-x="612" 
d="M346 774q0 24 17 41t41 17t41 -17t17 -41t-17 -41.5t-41 -17.5t-41 17.5t-17 41.5zM151 774q0 24 17 41t41 17t41 -17t17 -41t-17 -41.5t-41 -17.5t-41 17.5t-17 41.5zM370 263l227 391h-115l-159 -284l-10 -38h-13l-11 38l-158 284h-116l227 -391h14v-263h102v263h12z
" />
    <glyph glyph-name="Zacute" unicode="&#x179;" horiz-adv-x="551" 
d="M402 876l-121 -167h-67l92 167h96zM33 654h485v-120l-311 -364l-85 -71v-12h396v-87h-485v121l329 381l73 54v12h-402v86z" />
    <glyph glyph-name="zacute" unicode="&#x17a;" horiz-adv-x="409" 
d="M338 693l-121 -167h-67l92 167h96zM28 460h353v-126l-199 -188l-58 -46v-13h257v-87h-353v131l203 198l53 32v13h-256v86z" />
    <glyph glyph-name="Zdotaccent" unicode="&#x17b;" horiz-adv-x="551" 
d="M210 793q0 24 17.5 41t41.5 17t41 -17t17 -41t-17 -41.5t-41 -17.5q-23 0 -41 18t-18 41zM33 654h485v-120l-311 -364l-85 -71v-12h396v-87h-485v121l329 381l73 54v12h-402v86z" />
    <glyph glyph-name="zdotaccent" unicode="&#x17c;" horiz-adv-x="409" 
d="M146 610q0 24 17.5 41t41.5 17t41 -17t17 -41t-17 -41.5t-41 -17.5q-23 0 -41 18t-18 41zM28 460h353v-126l-199 -188l-58 -46v-13h257v-87h-353v131l203 198l53 32v13h-256v86z" />
    <glyph glyph-name="Zcaron" unicode="&#x17d;" horiz-adv-x="551" 
d="M285 763l68 81h88l-114 -136h-114l-114 136h88l68 -81l9 -22h12zM33 654h485v-120l-311 -364l-85 -71v-12h396v-87h-485v121l329 381l73 54v12h-402v86z" />
    <glyph glyph-name="zcaron" unicode="&#x17e;" horiz-adv-x="409" 
d="M221 580l68 81h88l-114 -136h-114l-114 136h88l68 -81l9 -22h12zM28 460h353v-126l-199 -188l-58 -46v-13h257v-87h-353v131l203 198l53 32v13h-256v86z" />
    <glyph glyph-name="longs" unicode="&#x17f;" horiz-adv-x="262" 
d="M44 560q0 70 31.5 98t102.5 28h59v-86h-56q-35 0 -35 -52v-548h-102v560z" />
    <glyph glyph-name="uni018E" unicode="&#x18e;" horiz-adv-x="534" 
d="M490 0h-465v96h363v183h-348v97h348v181h-363v97h465v-654z" />
    <glyph glyph-name="uni018F" unicode="&#x18f;" 
d="M373 249q-2 142 -131 142q-46 0 -76.5 -23t-38.5 -64l-99 16q17 75 74.5 118t139.5 43q110 0 172.5 -67t62.5 -184q0 -116 -60 -182.5t-164 -66.5q-105 0 -165 64t-60 169v35h345zM371 177h-239q0 -46 34.5 -76.5t86.5 -30.5q103 0 118 107z" />
    <glyph glyph-name="Ohorn" unicode="&#x1a0;" horiz-adv-x="611" 
d="M474 792l96 -20q0 -76 -55 -137.5t-125 -61.5l-4 80q37 0 62.5 41.5t25.5 97.5zM131 327q0 -117 46.5 -181.5t128.5 -64.5t128 64.5t46 181.5t-46 183t-128 66t-128.5 -66t-46.5 -183zM28 327q0 163 75.5 255.5t202.5 92.5q119 0 198 -94t79 -254q0 -163 -74.5 -254.5
t-202.5 -91.5t-203 91.5t-75 254.5z" />
    <glyph glyph-name="ohorn" unicode="&#x1a1;" 
d="M416 599l96 -20q0 -76 -55 -137.5t-125 -61.5l-4 80q37 0 62.5 41.5t25.5 97.5zM131 232q0 -78 32 -119.5t89 -41.5q58 0 90 42t32 119t-32.5 118.5t-89.5 41.5t-89 -41.5t-32 -118.5zM28 232q0 118 60.5 183.5t163.5 65.5q97 0 161 -66.5t64 -182.5q0 -119 -61 -185
t-164 -66t-163.5 66t-60.5 185z" />
    <glyph glyph-name="Uhorn" unicode="&#x1af;" horiz-adv-x="577" 
d="M568 792l96 -20q0 -76 -55 -137.5t-125 -61.5l-4 80q37 0 62.5 41.5t25.5 97.5zM146 654v-429q0 -68 37.5 -105.5t106.5 -37.5q68 0 104 37t36 106v429h103v-440q0 -100 -68.5 -165t-174.5 -65q-110 0 -178 63.5t-68 166.5v440h102z" />
    <glyph glyph-name="uhorn" unicode="&#x1b0;" horiz-adv-x="500" 
d="M460 599l96 -20q0 -76 -55 -137.5t-125 -61.5l-4 80q37 0 62.5 41.5t25.5 97.5zM146 173q0 -49 28.5 -79t73.5 -30q46 0 76 31t30 80h16q0 -82 -46.5 -138t-119.5 -56q-68 0 -114 52.5t-46 128.5v298h102v-287zM456 0h-102l28 120l-28 10v330h102v-460z" />
    <glyph glyph-name="uni01CD" unicode="&#x1cd;" horiz-adv-x="636" 
d="M334 763l68 81h88l-114 -136h-114l-114 136h88l68 -81l9 -22h12zM164 270h311v-96h-311v96zM300 515l-174 -515h-111l223 654h158l225 -654h-109l-177 515l-11 55h-13z" />
    <glyph glyph-name="uni01CE" unicode="&#x1ce;" horiz-adv-x="475" 
d="M258 580l68 81h88l-114 -136h-114l-114 136h88l68 -81l9 -22h12zM131 128q0 -28 22.5 -42t59.5 -14q51 0 83 29t32 74h18q0 -88 -46 -141t-121 -53q-65 0 -108 37t-43 95q0 52 31.5 82.5t97.5 49.5l171 45v-70l-136 -35q-61 -16 -61 -57zM431 0h-103l30 117l-30 13v174
q0 38 -26 61t-69 23q-44 0 -71.5 -26.5t-32.5 -68.5l-101 15q11 75 66 123t141 48q87 0 141.5 -47.5t54.5 -116.5v-315z" />
    <glyph glyph-name="uni01CF" unicode="&#x1cf;" horiz-adv-x="190" 
d="M111 763l68 81h88l-114 -136h-114l-114 136h88l68 -81l9 -22h12zM44 654h102v-654h-102v654z" />
    <glyph glyph-name="uni01D0" unicode="&#x1d0;" horiz-adv-x="186" 
d="M111 580l68 81h88l-114 -136h-114l-114 136h88l68 -81l9 -22h12zM44 460h102v-460h-102v460z" />
    <glyph glyph-name="uni01D1" unicode="&#x1d1;" horiz-adv-x="611" 
d="M320 763l68 81h88l-114 -136h-114l-114 136h88l68 -81l9 -22h12zM131 327q0 -117 46.5 -181.5t128.5 -64.5t128 64.5t46 181.5t-46 183t-128 66t-128.5 -66t-46.5 -183zM28 327q0 163 75.5 255.5t202.5 92.5q119 0 198 -94t79 -254q0 -163 -74.5 -254.5t-202.5 -91.5
t-203 91.5t-75 254.5z" />
    <glyph glyph-name="uni01D2" unicode="&#x1d2;" 
d="M267 580l68 81h88l-114 -136h-114l-114 136h88l68 -81l9 -22h12zM131 232q0 -78 32 -119.5t89 -41.5q58 0 90 42t32 119t-32.5 118.5t-89.5 41.5t-89 -41.5t-32 -118.5zM28 232q0 118 60.5 183.5t163.5 65.5q97 0 161 -66.5t64 -182.5q0 -119 -61 -185t-164 -66
t-163.5 66t-60.5 185z" />
    <glyph glyph-name="uni01D3" unicode="&#x1d3;" horiz-adv-x="577" 
d="M307 763l68 81h88l-114 -136h-114l-114 136h88l68 -81l9 -22h12zM146 654v-429q0 -68 37.5 -105.5t106.5 -37.5q68 0 104 37t36 106v429h103v-440q0 -100 -68.5 -165t-174.5 -65q-110 0 -178 63.5t-68 166.5v440h102z" />
    <glyph glyph-name="uni01D4" unicode="&#x1d4;" horiz-adv-x="500" 
d="M265 580l68 81h88l-114 -136h-114l-114 136h88l68 -81l9 -22h12zM146 173q0 -49 28.5 -79t73.5 -30q46 0 76 31t30 80h16q0 -82 -46.5 -138t-119.5 -56q-68 0 -114 52.5t-46 128.5v298h102v-287zM456 0h-102l28 120l-28 10v330h102v-460z" />
    <glyph glyph-name="uni0237" unicode="&#x237;" horiz-adv-x="187" 
d="M44 460h102v-494q0 -66 -44 -105t-118 -39h-42v98h42q24 0 42 19.5t18 47.5v473z" />
    <glyph glyph-name="uni02BC" unicode="&#x2bc;" horiz-adv-x="97" 
d="M7 687h91l-55 -199h-43z" />
    <glyph glyph-name="gravecomb" unicode="&#x300;" horiz-adv-x="198" 
d="M1 697h96l92 -167h-67z" />
    <glyph glyph-name="acutecomb" unicode="&#x301;" horiz-adv-x="198" 
d="M199 697l-121 -167h-67l92 167h96z" />
    <glyph glyph-name="uni0302" unicode="&#x302;" horiz-adv-x="322" 
d="M147 611l-68 -82h-88l114 136h114l114 -136h-88l-68 82l-9 21h-12z" />
    <glyph glyph-name="tildecomb" unicode="&#x303;" horiz-adv-x="311" 
d="M251 648q0 -65 -27 -65q-12 0 -23 6.5t-15 11t-16 18.5q-10 12 -18 19t-23.5 13.5t-34.5 6.5q-45 0 -69 -30.5t-24 -88.5l59 -8q0 69 32 69q7 0 13.5 -2t13 -7t10 -9t11 -12.5t10.5 -11.5q33 -34 75 -34q86 0 86 117z" />
    <glyph glyph-name="uni0304" unicode="&#x304;" horiz-adv-x="288" 
d="M11 601h268v-72h-268v72z" />
    <glyph glyph-name="uni0306" unicode="&#x306;" horiz-adv-x="303" 
d="M225 659q0 -29 -21.5 -50.5t-51.5 -21.5t-51.5 21.5t-21.5 50.5h-78q0 -56 43.5 -93.5t107.5 -37.5t107.5 37.5t43.5 93.5h-78z" />
    <glyph glyph-name="uni0307" unicode="&#x307;" horiz-adv-x="99" 
d="M-9 614q0 24 17.5 41t41.5 17t41 -17t17 -41t-17 -41.5t-41 -17.5q-23 0 -41 18t-18 41z" />
    <glyph glyph-name="uni0308" unicode="&#x308;" horiz-adv-x="303" 
d="M192 595q0 24 17 41t41 17t41 -17t17 -41t-17 -41.5t-41 -17.5t-41 17.5t-17 41.5zM-3 595q0 24 17 41t41 17t41 -17t17 -41t-17 -41.5t-41 -17.5t-41 17.5t-17 41.5z" />
    <glyph glyph-name="hookabovecomb" unicode="&#x309;" horiz-adv-x="168" 
d="M110 620.5q0 10.5 -7 17.5t-18 7q-9 0 -17 -7t-11 -22l-61 18q7 35 33.5 53.5t56.5 18.5q36 0 61.5 -24.5t25.5 -60.5q0 -17 -8 -34t-15.5 -26t-23.5 -25t-19 -20l-41 41q14 13 21 20t15 20t8 23.5z" />
    <glyph glyph-name="uni030A" unicode="&#x30a;" horiz-adv-x="199" 
d="M101 569q16 0 28 12.5t12 29.5q0 16 -12 28.5t-28 12.5t-28.5 -12.5t-12.5 -28.5t12.5 -29t28.5 -13zM-4 611q0 44 30.5 74t74.5 30t74 -30t30 -74t-30 -74t-74 -30t-74.5 30t-30.5 74z" />
    <glyph glyph-name="uni030B" unicode="&#x30b;" horiz-adv-x="329" 
d="M338 697l-120 -167h-68l92 167h96zM189 697l-121 -167h-67l92 167h96z" />
    <glyph glyph-name="uni030C" unicode="&#x30c;" horiz-adv-x="322" 
d="M177 584l68 81h88l-114 -136h-114l-114 136h88l68 -81l9 -22h12z" />
    <glyph glyph-name="uni0312" unicode="&#x312;" horiz-adv-x="162" 
d="M141 587q0 -25 -17 -42t-42 -17t-42 18.5t-17 45.5q0 93 32.5 133.5t85.5 40.5l11 -58q-46 0 -73.5 -20t-33.5 -58q14 16 37 16q25 0 42 -17t17 -42z" />
    <glyph glyph-name="uni0315" unicode="&#x315;" horiz-adv-x="126" 
d="M157 496h92l-56 -178h-43z" />
    <glyph glyph-name="uni031B" unicode="&#x31b;" horiz-adv-x="244" 
d="M116 550l96 -20q0 -76 -55 -137.5t-125 -61.5l-4 80q37 0 62.5 41.5t25.5 97.5z" />
    <glyph glyph-name="dotbelowcomb" unicode="&#x323;" horiz-adv-x="99" 
d="M-11 -130.5q0 24.5 18 42.5t43 18t42.5 -18t17.5 -42q0 -25 -17.5 -43.5t-42.5 -18.5t-43 18.5t-18 43z" />
    <glyph glyph-name="uni0326" unicode="&#x326;" horiz-adv-x="162" 
d="M23 -108q0 25 17 42t42 17t42 -18.5t17 -46.5q0 -92 -32.5 -132t-85.5 -40l-11 56q46 0 73.5 20.5t33.5 58.5q-14 -15 -37 -15q-25 0 -42 16.5t-17 41.5z" />
    <glyph glyph-name="uni0327" unicode="&#x327;" horiz-adv-x="185" 
d="M-4 -151l59 15q8 -28 36 -28q30 0 30 41q0 32 -24 32q-18 0 -28 -33l-58 12l23 119h62l-33 -71l11 -6q18 31 46 31q27 0 44 -23t17 -59q0 -46 -23.5 -73t-63.5 -27q-74 0 -98 70z" />
    <glyph glyph-name="uni0328" unicode="&#x328;" horiz-adv-x="185" 
d="M77 -58q-22 -26 -22 -66t36 -40q27 0 35 35l60 -12q-23 -80 -92 -80q-42 0 -67.5 23t-25.5 62q0 26 9.5 46.5t36.5 55.5l34 41h48z" />
    <glyph glyph-name="uni0400" unicode="&#x400;" horiz-adv-x="534" 
d="M157 876h96l92 -167h-67zM44 654h465v-96h-363v-183h348v-97h-348v-181h363v-97h-465v654z" />
    <glyph glyph-name="uni0401" unicode="&#x401;" horiz-adv-x="534" 
d="M324 774q0 24 17 41t41 17t41 -17t17 -41t-17 -41.5t-41 -17.5t-41 17.5t-17 41.5zM129 774q0 24 17 41t41 17t41 -17t17 -41t-17 -41.5t-41 -17.5t-41 17.5t-17 41.5zM44 654h465v-96h-363v-183h348v-97h-348v-181h363v-97h-465v654z" />
    <glyph glyph-name="uni0402" unicode="&#x402;" horiz-adv-x="538" 
d="M286 97q122 0 122 92q0 89 -118 89q-63 0 -109 -35v-243h-102v558h-79v96h461v-96h-280v-218q58 35 125 35q94 0 149 -51t55 -140q0 -85 -57.5 -134.5t-155.5 -49.5h-56v97h45z" />
    <glyph glyph-name="uni0403" unicode="&#x403;" horiz-adv-x="503" 
d="M398 887l-121 -167h-67l92 167h96zM44 654v-654h102v558h337v96h-439z" />
    <glyph glyph-name="uni0404" unicode="&#x404;" horiz-adv-x="600" 
d="M65 368v-86h342v86h-342zM569 444q-31 108 -100.5 167t-159.5 59q-129 0 -205 -91t-76 -255q0 -162 76 -252.5t205 -90.5q100 0 171 63t92 178l-100 21q-12 -77 -56 -119.5t-107 -42.5q-84 0 -131 63.5t-47 179.5q0 118 47 182.5t131 64.5q122 0 161 -147z" />
    <glyph glyph-name="uni0405" unicode="&#x405;" horiz-adv-x="521" 
d="M494 173q0 -89 -59 -142t-154.5 -53t-160.5 52.5t-92 157.5l96 21q41 -132 153 -132q50 0 81.5 26t31.5 68q0 19 -8.5 34.5t-19 25t-33.5 18.5t-38 13.5t-46 11.5q-7 2 -10 3q-34 8 -59.5 17t-53.5 25t-46 36t-30 50.5t-12 68.5q0 90 58 143t156 53q92 0 154.5 -48.5
t85.5 -145.5l-94 -21q-14 57 -50.5 86.5t-91.5 29.5q-53 0 -84.5 -26t-31.5 -69q0 -20 8.5 -35.5t20 -26t33.5 -19.5t39 -14.5t48 -12.5q36 -10 59.5 -17.5t55 -23.5t49.5 -35t31.5 -50t13.5 -69z" />
    <glyph glyph-name="uni0406" unicode="&#x406;" horiz-adv-x="189" 
d="M44 654h102v-654h-102v654z" />
    <glyph glyph-name="uni0407" unicode="&#x407;" horiz-adv-x="189" 
d="M132 774q0 24 17 41t41 17t41 -17t17 -41t-17 -41.5t-41 -17.5t-41 17.5t-17 41.5zM-63 774q0 24 17 41t41 17t41 -17t17 -41t-17 -41.5t-41 -17.5t-41 17.5t-17 41.5zM44 654h102v-654h-102v654z" />
    <glyph glyph-name="uni0408" unicode="&#x408;" 
d="M463 654h-103v-470q0 -47 -31 -76.5t-83 -29.5t-84.5 34t-38.5 89l-98 -25q12 -84 71.5 -138t151.5 -54q96 0 155.5 53.5t59.5 135.5v481z" />
    <glyph glyph-name="uni0409" unicode="&#x409;" horiz-adv-x="951" 
d="M541 278v-181h145q132 0 132 89q0 43 -35.5 67.5t-103.5 24.5h-138zM541 654v-279h145q105 0 169.5 -53t64.5 -140q0 -83 -60.5 -132.5t-162.5 -49.5h-258v558h-180v-304q0 -78 -16.5 -131t-48 -78.5t-65.5 -35t-80 -9.5h-22v98h22q25 0 41.5 5t33.5 20.5t25 51t8 90.5
v389h384z" />
    <glyph glyph-name="uni040A" unicode="&#x40a;" horiz-adv-x="796" 
d="M44 0h101v280h159v-280h238q102 0 162.5 48.5t60.5 130.5q0 88 -64.5 142t-169.5 54h-125v279h-102v-276h-159v276h-101v-654zM406 97v181h118q68 0 103.5 -25.5t35.5 -69.5q0 -86 -132 -86h-125z" />
    <glyph glyph-name="uni040B" unicode="&#x40b;" horiz-adv-x="546" 
d="M408 173q0 48 -30 74t-84 26q-55 0 -93 -30v-243h-102v558h-99v96h461v-96h-260v-218q52 30 115 30q88 0 141 -55t53 -146v-169h-102v173z" />
    <glyph glyph-name="uni040C" unicode="&#x40c;" horiz-adv-x="577" 
d="M417 876l-121 -167h-67l92 167h96zM44 654h102v-310l284 310h130l-262 -300l262 -354h-138l-206 286l-70 -68v-218h-102v654z" />
    <glyph glyph-name="uni040D" unicode="&#x40d;" horiz-adv-x="604" 
d="M176 876h96l92 -167h-67zM147 654v-506l281 506h134v-654h-102v508l-281 -508h-135v654h103z" />
    <glyph glyph-name="uni040E" unicode="&#x40e;" horiz-adv-x="489" 
d="M319 838q0 -29 -21.5 -50.5t-51.5 -21.5t-51.5 21.5t-21.5 50.5h-78q0 -56 43.5 -93.5t107.5 -37.5t107.5 37.5t43.5 93.5h-78zM263 344l101 310h110l-194 -552q-17 -49 -51.5 -75.5t-76.5 -26.5h-112v94h74q25 0 38.5 11t21.5 39l12 44l-170 466h110l102 -310l10 -56h14
z" />
    <glyph glyph-name="uni040F" unicode="&#x40f;" horiz-adv-x="604" 
d="M256 0h-212v654h102v-558h312v558h102v-654h-202v-123h-102v123z" />
    <glyph glyph-name="uni0410" unicode="&#x410;" horiz-adv-x="636" 
d="M164 270h312v-96h-312v96zM300 515l-174 -515h-110l223 654h158l225 -654h-110l-176 515l-12 55h-12z" />
    <glyph glyph-name="uni0411" unicode="&#x411;" horiz-adv-x="553" 
d="M476 558h-330v-183h145q105 0 169.5 -53t64.5 -140q0 -83 -60.5 -132.5t-162.5 -49.5h-258v654h432v-96zM146 97h145q132 0 132 89q0 43 -35.5 67.5t-103.5 24.5h-138v-181z" />
    <glyph glyph-name="uni0412" unicode="&#x412;" horiz-adv-x="553" 
d="M146 97h145q132 0 132 90q0 91 -132 91h-145v-181zM146 375h145q63 0 92 23.5t29 69.5q0 47 -28.5 68.5t-92.5 21.5h-145v-183zM381 333v-13q65 -13 104.5 -54.5t39.5 -98.5q0 -76 -60 -121.5t-163 -45.5h-258v654h258q102 0 157.5 -46t55.5 -124q0 -59 -35 -99.5
t-99 -51.5z" />
    <glyph glyph-name="uni0413" unicode="&#x413;" horiz-adv-x="503" 
d="M44 654v-654h102v558h337v96h-439z" />
    <glyph glyph-name="uni0414" unicode="&#x414;" horiz-adv-x="640" 
d="M612 68v-228h-103v130h-380v-130h-101v228h49q18 0 30 3t25 16t21 35.5t13.5 63.5t5.5 99v368h379v-585h61zM449 68v489h-175v-283q0 -151 -67 -188l3 -18h239z" />
    <glyph glyph-name="uni0415" unicode="&#x415;" horiz-adv-x="534" 
d="M44 654h465v-96h-363v-183h348v-97h-348v-181h363v-97h-465v654z" />
    <glyph glyph-name="uni0416" unicode="&#x416;" horiz-adv-x="874" 
d="M488 386h41l205 268h125l-241 -318l241 -336h-129l-201 288h-41v-288h-102v288h-41l-205 -288h-125l241 337l-241 317h129l201 -268h41v268h102v-268z" />
    <glyph glyph-name="uni0417" unicode="&#x417;" horiz-adv-x="489" 
d="M346 334q53 9 84.5 49t31.5 99q0 84 -59 136t-153 52q-92 0 -148.5 -48t-73.5 -142l96 -20q13 59 42.5 87.5t81.5 28.5q50 0 80 -28.5t30 -74.5t-23 -74t-61 -28h-100v-87h100q38 0 61 -27.5t23 -73.5t-30 -74.5t-80 -28.5q-52 0 -81.5 33t-42.5 103l-96 -19
q17 -104 73.5 -157.5t148.5 -53.5q94 0 153 52t59 136q0 59 -31.5 99t-84.5 49v12z" />
    <glyph glyph-name="uni0418" unicode="&#x418;" horiz-adv-x="604" 
d="M147 654v-506l281 506h134v-654h-102v508l-281 -508h-135v654h103z" />
    <glyph glyph-name="uni0419" unicode="&#x419;" horiz-adv-x="604" 
d="M381 838q0 -29 -21.5 -50.5t-51.5 -21.5t-51.5 21.5t-21.5 50.5h-78q0 -56 43.5 -93.5t107.5 -37.5t107.5 37.5t43.5 93.5h-78zM147 654v-506l281 506h134v-654h-102v508l-281 -508h-135v654h103z" />
    <glyph glyph-name="uni041A" unicode="&#x41a;" horiz-adv-x="577" 
d="M44 654h102v-310l284 310h130l-262 -300l262 -354h-138l-206 286l-70 -68v-218h-102v654z" />
    <glyph glyph-name="uni041B" unicode="&#x41b;" horiz-adv-x="585" 
d="M541 654v-654h-102v558h-180v-304q0 -78 -16.5 -131t-48 -78.5t-65.5 -35t-80 -9.5h-22v98h22q25 0 41.5 5t33.5 20.5t25 51t8 90.5v389h384z" />
    <glyph glyph-name="uni041C" unicode="&#x41c;" horiz-adv-x="810" 
d="M419 143l214 511h135v-654h-98v498l-202 -498h-124l-198 498v-498h-102v654h140l209 -511l12 -44z" />
    <glyph glyph-name="uni041D" unicode="&#x41d;" horiz-adv-x="584" 
d="M44 654h102v-274h293v274h103v-654h-103v283h-293v-283h-102v654z" />
    <glyph glyph-name="uni041E" unicode="&#x41e;" horiz-adv-x="611" 
d="M132 325.5q0 -116.5 46 -180.5t128.5 -64t128 64t45.5 180.5t-45.5 181t-128 64.5t-128.5 -64.5t-46 -181zM28 326q0 162 75.5 253t202.5 91q120 0 199 -92.5t79 -251.5q0 -164 -75 -254.5t-202.5 -90.5t-203 90.5t-75.5 254.5z" />
    <glyph glyph-name="uni041F" unicode="&#x41f;" horiz-adv-x="566" 
d="M44 654h478v-654h-103v557h-273v-557h-102v654z" />
    <glyph glyph-name="uni0420" unicode="&#x420;" horiz-adv-x="537" 
d="M44 0v654h247q99 0 161.5 -58.5t62.5 -149.5q0 -89 -62 -144t-162 -55h-145v-247h-102zM146 343h135q63 0 97 27.5t34 78.5q0 53 -34 81t-97 28h-135v-215z" />
    <glyph glyph-name="uni0421" unicode="&#x421;" horiz-adv-x="600" 
d="M570 444l-100 -20q-19 72 -60 109.5t-100 37.5q-84 0 -131 -64.5t-47 -182.5q0 -116 47 -179.5t131 -63.5q63 0 106.5 42.5t55.5 119.5l100 -21q-21 -115 -92 -178t-170 -63q-129 0 -205.5 90.5t-76.5 252.5q0 164 76.5 255t205.5 91q90 0 159 -59t101 -167z" />
    <glyph glyph-name="uni0422" unicode="&#x422;" horiz-adv-x="550" 
d="M27 654h498v-96h-198v-558h-103v558h-197v96z" />
    <glyph glyph-name="uni0423" unicode="&#x423;" horiz-adv-x="489" 
d="M263 344l101 310h110l-194 -552q-17 -49 -51.5 -75.5t-76.5 -26.5h-112v94h74q25 0 38.5 11t21.5 39l12 44l-170 466h110l102 -310l10 -56h14z" />
    <glyph glyph-name="uni0424" unicode="&#x424;" horiz-adv-x="585" 
d="M242 654h102v-654h-102v654zM131 336q0 -85 42.5 -130t118.5 -45t119 45.5t43 129t-43 128.5t-119 45t-118.5 -45t-42.5 -128zM28 336q0 125 71.5 194.5t192.5 69.5q114 0 189.5 -70.5t75.5 -193.5q0 -127 -72 -196.5t-193 -69.5t-192.5 69.5t-71.5 196.5z" />
    <glyph glyph-name="uni0425" unicode="&#x425;" horiz-adv-x="626" 
d="M331 400l159 254h114l-206 -328l205 -326h-113l-159 254l-11 39h-12l-12 -39l-160 -254h-112l205 326l-205 328h112l160 -254l12 -39h12z" />
    <glyph glyph-name="uni0426" unicode="&#x426;" horiz-adv-x="570" 
d="M44 0v654h102v-558h242v558h102v-558h52v-190h-102v94h-396z" />
    <glyph glyph-name="uni0427" unicode="&#x427;" horiz-adv-x="512" 
d="M129 464q0 -57 33 -91.5t87 -34.5q52 0 86.5 18.5t45.5 39.5l40 -70q-52 -84 -175 -84q-94 0 -157 60.5t-63 150.5v201h103v-190zM366 654h102v-654h-102v654z" />
    <glyph glyph-name="uni0428" unicode="&#x428;" horiz-adv-x="754" 
d="M710 0h-666v654h102v-558h180v558h102v-558h180v558h102v-654z" />
    <glyph glyph-name="uni0429" unicode="&#x429;" horiz-adv-x="790" 
d="M44 0v654h102v-558h180v558h102v-558h180v558h102v-558h52v-190h-102v94h-616z" />
    <glyph glyph-name="uni042A" unicode="&#x42a;" horiz-adv-x="538" 
d="M181 380h95q105 0 169.5 -54t64.5 -141q0 -85 -60.5 -135t-162.5 -50h-208v555h-79v99h181v-274zM181 97h95q132 0 132 92q0 43 -35.5 68.5t-103.5 25.5h-88v-186z" />
    <glyph glyph-name="uni042B" unicode="&#x42b;" horiz-adv-x="729" 
d="M583 654h102v-654h-102v654zM146 380h145q105 0 169.5 -53.5t64.5 -141.5q0 -84 -60.5 -134.5t-162.5 -50.5h-258v654h102v-274zM146 97h145q132 0 132 92q0 44 -35.5 69t-103.5 25h-138v-186z" />
    <glyph glyph-name="uni042C" unicode="&#x42c;" horiz-adv-x="553" 
d="M146 380h145q105 0 169.5 -53.5t64.5 -141.5q0 -84 -60.5 -134.5t-162.5 -50.5h-258v654h102v-274zM146 97h145q132 0 132 92q0 44 -35.5 69t-103.5 25h-138v-186z" />
    <glyph glyph-name="uni042D" unicode="&#x42d;" horiz-adv-x="600" 
d="M535 283v86h-342v-86h342zM31 207q31 -108 100.5 -167t159.5 -59q129 0 205 91t76 255q0 162 -76 252.5t-205 90.5q-100 0 -171 -63t-92 -178l100 -21q12 77 56 119.5t107 42.5q84 0 131 -63.5t47 -179.5q0 -118 -47 -182.5t-131 -64.5q-122 0 -161 147z" />
    <glyph glyph-name="uni042E" unicode="&#x42e;" horiz-adv-x="777" 
d="M337 324q0 120 41 186t114 66t113.5 -66t40.5 -186q0 -121 -40.5 -187t-113.5 -66t-114 66t-41 187zM234 324q0 -160 69.5 -249t188.5 -89t188 88.5t69 249.5q0 157 -73 246.5t-184 89.5q-119 0 -188.5 -88t-69.5 -248zM44 0h101v280h124v98h-124v276h-101v-654z" />
    <glyph glyph-name="uni042F" unicode="&#x42f;" horiz-adv-x="549" 
d="M301 276l-152 -276h-110l151 276h111zM515 0h-102v242h-151q-101 0 -162 54.5t-61 145.5q0 92 62 152t161 60h253v-654zM413 338v220h-140q-65 0 -98 -30t-33 -84q0 -106 131 -106h140z" />
    <glyph glyph-name="uni0430" unicode="&#x430;" horiz-adv-x="475" 
d="M132 128q0 -28 22.5 -42t59.5 -14q51 0 82.5 29t31.5 74h18q0 -88 -45.5 -141t-120.5 -53q-66 0 -109 37t-43 95q0 52 31.5 82.5t98.5 49.5l170 45v-70l-136 -35q-60 -16 -60 -57zM432 0h-104l31 117l-31 13v174q0 38 -25.5 61t-68.5 23q-44 0 -72 -26.5t-32 -68.5
l-102 15q12 75 67 123t141 48t141 -47.5t55 -116.5v-315z" />
    <glyph glyph-name="uni0431" unicode="&#x431;" horiz-adv-x="503" 
d="M28 244q0 -117 66 -190t172 -73q94 0 151.5 61t57.5 160q0 102 -53.5 169t-135.5 67q-74 0 -121 -56t-47 -144zM131 216q0 62 31.5 97.5t86.5 35.5q58 0 90.5 -36.5t32.5 -102.5q0 -65 -30.5 -102t-82.5 -37q-55 0 -91.5 41.5t-36.5 103.5zM244 621q-87 -26 -132.5 -67.5
t-64.5 -112.5t-19 -197l103 -12q0 51 1 77l-25 13l29 78q9 58 34.5 87t88.5 45q78 21 128.5 52.5t63.5 62.5l-86 54q-17 -47 -121 -80z" />
    <glyph glyph-name="uni0432" unicode="&#x432;" horiz-adv-x="503" 
d="M146 87h135q92 0 92 53q0 50 -92 50h-135v-103zM146 276h135q81 0 81 48q0 50 -81 50h-135v-98zM351 240v-14q56 -8 90 -36t34 -66q0 -57 -49 -90.5t-134 -33.5h-248v460h248q83 0 128 -32t45 -87q0 -39 -30 -66.5t-84 -34.5z" />
    <glyph glyph-name="uni0433" unicode="&#x433;" horiz-adv-x="415" 
d="M44 460v-460h102v364h252v96h-354z" />
    <glyph glyph-name="uni0434" unicode="&#x434;" horiz-adv-x="560" 
d="M532 73v-233h-103v135h-300v-135h-101v233h34q24 0 38 8.5t25.5 46t11.5 107.5v225h339v-387h56zM374 73v291h-135v-140q0 -107 -47 -133l3 -18h179z" />
    <glyph glyph-name="uni0435" unicode="&#x435;" 
d="M132 203q6 -64 39.5 -98t92.5 -34q45 0 75.5 23t38.5 64l100 -16q-18 -75 -75 -118t-139 -43q-110 0 -173 67t-63 184q0 116 60 182.5t164 66.5q105 0 165.5 -67t60.5 -176v-35h-346zM134 275h240q0 51 -34.5 84t-87.5 33q-50 0 -80 -30.5t-38 -86.5z" />
    <glyph glyph-name="uni0436" unicode="&#x436;" horiz-adv-x="682" 
d="M392 280h31l122 180h122l-164 -229l164 -231h-124l-120 182h-31v-182h-102v182h-31l-122 -182h-122l164 232l-164 228h124l120 -180h31v180h102v-180z" />
    <glyph glyph-name="uni0437" unicode="&#x437;" horiz-adv-x="449" 
d="M326 239q44 6 69.5 34.5t25.5 70.5q0 60 -53.5 98t-139.5 38q-83 0 -134 -38t-66 -112l101 -15q19 73 97 73q41 0 66.5 -18t25.5 -47q0 -21 -17.5 -34t-46.5 -13h-96v-87h96q29 0 46.5 -13t17.5 -36q0 -34 -26 -54.5t-69 -20.5q-75 0 -94 86l-101 -14q15 -77 66 -117.5
t133 -40.5q86 0 140 42t54 109q0 39 -25.5 65t-69.5 32v12z" />
    <glyph glyph-name="uni0438" unicode="&#x438;" horiz-adv-x="518" 
d="M147 460h-103v-460h125l203 328v-328h102v460h-124l-203 -326v326z" />
    <glyph glyph-name="uni0439" unicode="&#x439;" horiz-adv-x="518" 
d="M331 655q0 -29 -21.5 -50.5t-51.5 -21.5t-51.5 21.5t-21.5 50.5h-78q0 -56 43.5 -93.5t107.5 -37.5t107.5 37.5t43.5 93.5h-78zM147 460h-103v-460h125l203 328v-328h102v460h-124l-203 -326v326z" />
    <glyph glyph-name="uni043A" unicode="&#x43a;" horiz-adv-x="493" 
d="M44 460h102v-215l205 215h125l-190 -212l190 -248h-124l-140 186l-66 -67v-119h-102v460z" />
    <glyph glyph-name="uni043B" unicode="&#x43b;" horiz-adv-x="503" 
d="M460 460v-460h-102v364h-136v-140q0 -56 -9 -97t-24 -65t-37.5 -38.5t-45 -19t-50.5 -4.5h-32v98h32q15 0 25 4t20 17t14.5 42t4.5 74v225h340z" />
    <glyph glyph-name="uni043C" unicode="&#x43c;" horiz-adv-x="668" 
d="M388 0h-104l-138 313v-313h-102v460h134l158 -361l159 361h129v-460h-97v313z" />
    <glyph glyph-name="uni043D" unicode="&#x43d;" horiz-adv-x="506" 
d="M44 460h102v-185h213v185h103v-460h-103v178h-213v-178h-102v460z" />
    <glyph glyph-name="uni043E" unicode="&#x43e;" 
d="M131 232q0 -78 32 -119.5t89 -41.5q58 0 90 42t32 119t-32.5 118.5t-89.5 41.5t-89 -41.5t-32 -118.5zM28 232q0 118 60.5 183.5t163.5 65.5q97 0 161 -66.5t64 -182.5q0 -119 -61 -185t-164 -66t-163.5 66t-60.5 185z" />
    <glyph glyph-name="uni043F" unicode="&#x43f;" horiz-adv-x="516" 
d="M44 460h428v-460h-103v363h-223v-363h-102v460z" />
    <glyph glyph-name="uni0440" unicode="&#x440;" horiz-adv-x="530" 
d="M146 229q0 77 34 119t94 42q59 0 92 -42t33 -119q0 -78 -33 -119.5t-92 -41.5q-60 0 -94 42t-34 119zM123 229q0 -120 46.5 -185t130.5 -65q86 0 144 67t58 186q0 114 -55 180.5t-143 66.5q-85 0 -133 -65t-48 -185zM44 -196h102v196l-30 119l30 11v200l-29 11l29 119
h-102v-656z" />
    <glyph glyph-name="uni0441" unicode="&#x441;" horiz-adv-x="502" 
d="M474 304l-98 -15q-13 50 -44 76.5t-76 26.5q-58 0 -91 -41.5t-33 -118.5t33 -119t91 -42q48 0 80.5 29.5t41.5 82.5l100 -15q-17 -89 -77.5 -138t-144.5 -49q-103 0 -165.5 66t-62.5 185q0 118 62.5 183.5t165.5 65.5q76 0 134 -46t84 -131z" />
    <glyph glyph-name="uni0442" unicode="&#x442;" horiz-adv-x="461" 
d="M27 460v-96h151v-364h104v364h152v96h-407z" />
    <glyph glyph-name="uni0443" unicode="&#x443;" horiz-adv-x="489" 
d="M263 150l101 310h110l-196 -546q-16 -48 -50 -74.5t-76 -26.5h-112v94h72q26 0 39.5 10.5t20.5 38.5l12 44l-168 460h110l102 -310l10 -56h14z" />
    <glyph glyph-name="uni0444" unicode="&#x444;" horiz-adv-x="545" 
d="M220 529h107v-607h-107v607zM128 230q0 -52 38 -80t106 -28t106 28t38 80q0 51 -38 79t-106 28t-106 -28t-38 -79zM28 230q0 95 66 147t178 52q105 0 175 -53t70 -146q0 -95 -66.5 -148t-178.5 -53t-178 53t-66 148z" />
    <glyph glyph-name="uni0445" unicode="&#x445;" horiz-adv-x="489" 
d="M262 303l98 157h114l-145 -228l145 -232h-113l-99 162l-11 39h-13l-11 -39l-99 -162h-113l145 232l-145 228h113l99 -157l11 -39h13z" />
    <glyph glyph-name="uni0446" unicode="&#x446;" horiz-adv-x="500" 
d="M44 0v460h102v-364h172v364h102v-364h52v-190h-102v94h-326z" />
    <glyph glyph-name="uni0447" unicode="&#x447;" horiz-adv-x="461" 
d="M138 310q0 -39 25 -62.5t65 -23.5q42 0 70 20t37 43l40 -55q-53 -99 -180 -99q-68 0 -114 42t-46 104v181h103v-150zM315 460h102v-460h-102v460z" />
    <glyph glyph-name="uni0448" unicode="&#x448;" horiz-adv-x="634" 
d="M590 0h-546v460h102v-364h120v364h102v-364h120v364h102v-460z" />
    <glyph glyph-name="uni0449" unicode="&#x449;" horiz-adv-x="708" 
d="M44 0v460h102v-364h120v364h102v-364h120v364h102v-364h82v-190h-102v94h-526z" />
    <glyph glyph-name="uni044A" unicode="&#x44a;" horiz-adv-x="491" 
d="M176 97h90q92 0 92 60t-95 60h-87v-120zM176 460v-145h92q86 0 139 -42.5t53 -116.5q0 -75 -49 -115.5t-139 -40.5h-198v364h-74v96h176z" />
    <glyph glyph-name="uni044B" unicode="&#x44b;" horiz-adv-x="644" 
d="M498 460h102v-460h-102v460zM146 97h110q97 0 97 58q0 62 -100 62h-107v-120zM146 460v-145h117q86 0 139 -43t53 -118q0 -74 -49 -114t-139 -40h-223v460h102z" />
    <glyph glyph-name="uni044C" unicode="&#x44c;" horiz-adv-x="486" 
d="M146 97h110q97 0 97 58q0 62 -100 62h-107v-120zM146 460v-145h117q86 0 139 -43t53 -118q0 -74 -49 -114t-139 -40h-223v460h102z" />
    <glyph glyph-name="uni044D" unicode="&#x44d;" horiz-adv-x="495" 
d="M176 273v-86h262v86h-262zM30 138q24 -76 80 -116.5t129 -40.5q104 0 166 65.5t62 183.5q0 119 -62 185t-166 66q-80 0 -137.5 -43.5t-73.5 -123.5l100 -15q9 44 38.5 68t72.5 24q59 0 92 -42t33 -119t-33 -118.5t-92 -41.5q-41 0 -69.5 21.5t-41.5 61.5z" />
    <glyph glyph-name="uni044E" unicode="&#x44e;" horiz-adv-x="671" 
d="M317 232q0 77 29.5 118.5t81.5 41.5q53 0 82.5 -41.5t29.5 -118.5t-29.5 -119t-82.5 -42q-52 0 -81.5 42t-29.5 119zM214 232q0 -117 58 -181.5t156 -64.5t156.5 64.5t58.5 181.5q0 114 -61.5 179t-153.5 65q-98 0 -156 -64t-58 -180zM44 0h101v185h124v98h-124v177h-101
v-460z" />
    <glyph glyph-name="uni044F" unicode="&#x44f;" horiz-adv-x="479" 
d="M44 0l106 204h110l-106 -204h-110zM334 363h-120q-88 0 -88 -53q0 -57 90 -57h118v110zM334 0v155h-118q-86 0 -139 41.5t-53 114.5q0 72 49 110.5t139 38.5h224v-460h-102z" />
    <glyph glyph-name="uni0450" unicode="&#x450;" 
d="M121 693h96l92 -167h-67zM132 203q6 -64 39.5 -98t92.5 -34q45 0 75.5 23t38.5 64l100 -16q-18 -75 -75 -118t-139 -43q-110 0 -173 67t-63 184q0 116 60 182.5t164 66.5q105 0 165.5 -67t60.5 -176v-35h-346zM134 275h240q0 51 -34.5 84t-87.5 33q-50 0 -80 -30.5
t-38 -86.5z" />
    <glyph glyph-name="uni0451" unicode="&#x451;" 
d="M288 591q0 24 17 41t41 17t41 -17t17 -41t-17 -41.5t-41 -17.5t-41 17.5t-17 41.5zM93 591q0 24 17 41t41 17t41 -17t17 -41t-17 -41.5t-41 -17.5t-41 17.5t-17 41.5zM132 203q6 -64 39.5 -98t92.5 -34q45 0 75.5 23t38.5 64l100 -16q-18 -75 -75 -118t-139 -43
q-110 0 -173 67t-63 184q0 116 60 182.5t164 66.5q105 0 165.5 -67t60.5 -176v-35h-346zM134 275h240q0 51 -34.5 84t-87.5 33q-50 0 -80 -30.5t-38 -86.5z" />
    <glyph glyph-name="uni0452" unicode="&#x452;" horiz-adv-x="498" 
d="M146 460l-28 -120l17 -6q13 64 56 104.5t105 40.5q68 0 114 -52.5t46 -128.5v-309q0 -69 -39.5 -106.5t-107.5 -37.5h-54v89h44q22 0 38 19t16 47v287q0 47 -28 75.5t-73 28.5q-46 0 -76 -29.5t-30 -76.5v-285h-102v538h-44v82h44v67h102v-67h157v-82h-157v-78z" />
    <glyph glyph-name="uni0453" unicode="&#x453;" horiz-adv-x="415" 
d="M344 693l-121 -167h-67l92 167h96zM44 460v-460h102v364h252v96h-354z" />
    <glyph glyph-name="uni0454" unicode="&#x454;" horiz-adv-x="495" 
d="M319 189v86h-262v-86h262zM465 324q-24 76 -80 116.5t-129 40.5q-104 0 -166 -65.5t-62 -183.5q0 -119 62 -185t166 -66q80 0 137.5 43.5t73.5 123.5l-101 15q-8 -44 -37.5 -68t-72.5 -24q-59 0 -92 42t-33 119t33 118.5t92 41.5q41 0 69.5 -21.5t40.5 -61.5z" />
    <glyph glyph-name="uni0455" unicode="&#x455;" horiz-adv-x="446" 
d="M418 120q0 21 -6 39t-13.5 31t-23 25t-27.5 19t-33 15t-33.5 12t-35.5 10q-7 2 -11 3q-25 7 -39 12t-30 12.5t-23 18.5t-7 25q0 25 21 40t57 15q78 0 101 -83l98 21q-41 146 -206 146q-79 0 -126 -37t-47 -100q0 -28 10.5 -51t25 -37t39.5 -27t44.5 -19.5t49.5 -14.5
q4 -2 13 -4q21 -6 31 -9t25.5 -9.5t23 -12.5t13.5 -15.5t6 -21.5q0 -27 -22 -44t-59 -17q-85 0 -109 94l-97 -16q16 -79 74 -120.5t139 -41.5q79 0 128 39.5t49 102.5z" />
    <glyph glyph-name="uni0456" unicode="&#x456;" horiz-adv-x="187" 
d="M33 583q0 25 18 43t42.5 18t42.5 -18t18 -43t-18 -43t-42.5 -18t-42.5 18t-18 43zM44 460h102v-460h-102v460z" />
    <glyph glyph-name="uni0457" unicode="&#x457;" horiz-adv-x="186" 
d="M132 591q0 24 17 41t41 17t41 -17t17 -41t-17 -41.5t-41 -17.5t-41 17.5t-17 41.5zM-63 591q0 24 17 41t41 17t41 -17t17 -41t-17 -41.5t-41 -17.5t-41 17.5t-17 41.5zM44 460h102v-460h-102v460z" />
    <glyph glyph-name="uni0458" unicode="&#x458;" horiz-adv-x="187" 
d="M33 583q0 25 18 43t42.5 18t42.5 -18t18 -43t-18 -43t-42.5 -18t-42.5 18t-18 43zM44 460h102v-494q0 -68 -44 -108.5t-118 -40.5h-42v98h42q24 0 42 20.5t18 51.5v473z" />
    <glyph glyph-name="uni0459" unicode="&#x459;" horiz-adv-x="778" 
d="M438 217v-120h120q87 0 87 59q0 61 -90 61h-117zM336 364h-120v-140q0 -69 -12.5 -115.5t-36 -69t-48.5 -31t-60 -8.5h-32v98h27q19 0 30.5 7t20.5 39t9 91v225h324v-145h117q86 0 139 -43.5t53 -120.5q0 -73 -49 -112t-139 -39h-223v364z" />
    <glyph glyph-name="uni045A" unicode="&#x45a;" horiz-adv-x="691" 
d="M371 97v106h102q85 0 85 -52q0 -54 -82 -54h-105zM371 460h-102v-460h203q90 0 139 37.5t49 107.5q0 71 -53 111t-139 40h-97v164zM44 0h101v197h154v98h-154v165h-101v-460z" />
    <glyph glyph-name="uni045B" unicode="&#x45b;" horiz-adv-x="498" 
d="M146 460l-28 -120l17 -6q13 64 56 104.5t105 40.5q68 0 114 -52.5t46 -128.5v-298h-103v287q0 47 -28 75.5t-73 28.5q-46 0 -76 -29.5t-30 -76.5v-285h-102v538h-44v82h44v67h102v-67h157v-82h-157v-78z" />
    <glyph glyph-name="uni045C" unicode="&#x45c;" horiz-adv-x="493" 
d="M377 693l-121 -167h-67l92 167h96zM44 460h102v-215l205 215h125l-190 -212l190 -248h-124l-140 186l-66 -67v-119h-102v460z" />
    <glyph glyph-name="uni045D" unicode="&#x45d;" horiz-adv-x="518" 
d="M126 693h96l92 -167h-67zM147 460h-103v-460h125l203 328v-328h102v460h-124l-203 -326v326z" />
    <glyph glyph-name="uni045E" unicode="&#x45e;" horiz-adv-x="489" 
d="M317 655q0 -29 -21.5 -50.5t-51.5 -21.5t-51.5 21.5t-21.5 50.5h-78q0 -56 43.5 -93.5t107.5 -37.5t107.5 37.5t43.5 93.5h-78zM263 150l101 310h110l-196 -546q-16 -48 -50 -74.5t-76 -26.5h-112v94h72q26 0 39.5 10.5t20.5 38.5l12 44l-168 460h110l102 -310l10 -56h14
z" />
    <glyph glyph-name="uni045F" unicode="&#x45f;" horiz-adv-x="500" 
d="M207 0h-163v460h102v-364h208v364h102v-460h-152v-123h-97v123z" />
    <glyph glyph-name="uni0490" unicode="&#x490;" horiz-adv-x="503" 
d="M44 654v-654h102v558h337v199h-102v-103h-337z" />
    <glyph glyph-name="uni0491" unicode="&#x491;" horiz-adv-x="415" 
d="M44 460v-460h102v364h252v169h-102v-73h-252z" />
    <glyph glyph-name="uni0492" unicode="&#x492;" horiz-adv-x="503" 
d="M0 378v-86h302v86h-302zM44 654v-654h102v558h337v96h-439z" />
    <glyph glyph-name="uni0493" unicode="&#x493;" horiz-adv-x="415" 
d="M0 268v-86h272v86h-272zM44 460v-460h102v364h252v96h-354z" />
    <glyph glyph-name="uni1EA0" unicode="&#x1ea0;" horiz-adv-x="636" 
d="M266 -131.5q0 24.5 18 42.5t43 18t42.5 -18t17.5 -42q0 -25 -17.5 -43.5t-42.5 -18.5t-43 18.5t-18 43zM164 270h311v-96h-311v96zM300 515l-174 -515h-111l223 654h158l225 -654h-109l-177 515l-11 55h-13z" />
    <glyph glyph-name="uni1EA1" unicode="&#x1ea1;" horiz-adv-x="475" 
d="M174 -131.5q0 24.5 18 42.5t43 18t42.5 -18t17.5 -42q0 -25 -17.5 -43.5t-42.5 -18.5t-43 18.5t-18 43zM131 128q0 -28 22.5 -42t59.5 -14q51 0 83 29t32 74h18q0 -88 -46 -141t-121 -53q-65 0 -108 37t-43 95q0 52 31.5 82.5t97.5 49.5l171 45v-70l-136 -35
q-61 -16 -61 -57zM431 0h-103l30 117l-30 13v174q0 38 -26 61t-69 23q-44 0 -71.5 -26.5t-32.5 -68.5l-101 15q11 75 66 123t141 48q87 0 141.5 -47.5t54.5 -116.5v-315z" />
    <glyph glyph-name="uni1EA2" unicode="&#x1ea2;" horiz-adv-x="636" 
d="M341 799.5q0 10.5 -7 17.5t-18 7q-9 0 -17 -7t-11 -22l-61 18q7 35 33.5 53.5t56.5 18.5q36 0 61.5 -24.5t25.5 -60.5q0 -17 -8 -34t-15.5 -26t-23.5 -25t-19 -20l-41 41q14 13 21 20t15 20t8 23.5zM164 270h311v-96h-311v96zM300 515l-174 -515h-111l223 654h158
l225 -654h-109l-177 515l-11 55h-13z" />
    <glyph glyph-name="uni1EA3" unicode="&#x1ea3;" horiz-adv-x="475" 
d="M265 616.5q0 10.5 -7 17.5t-18 7q-9 0 -17 -7t-11 -22l-61 18q7 35 33.5 53.5t56.5 18.5q36 0 61.5 -24.5t25.5 -60.5q0 -17 -8 -34t-15.5 -26t-23.5 -25t-19 -20l-41 41q14 13 21 20t15 20t8 23.5zM131 128q0 -28 22.5 -42t59.5 -14q51 0 83 29t32 74h18q0 -88 -46 -141
t-121 -53q-65 0 -108 37t-43 95q0 52 31.5 82.5t97.5 49.5l171 45v-70l-136 -35q-61 -16 -61 -57zM431 0h-103l30 117l-30 13v174q0 38 -26 61t-69 23q-44 0 -71.5 -26.5t-32.5 -68.5l-101 15q11 75 66 123t141 48q87 0 141.5 -47.5t54.5 -116.5v-315z" />
    <glyph glyph-name="uni1EA4" unicode="&#x1ea4;" horiz-adv-x="636" 
d="M633 980l-121 -167h-67l92 167h96zM304 790l-68 -82h-88l114 136h114l114 -136h-88l-68 82l-9 21h-12zM164 270h311v-96h-311v96zM300 515l-174 -515h-111l223 654h158l225 -654h-109l-177 515l-11 55h-13z" />
    <glyph glyph-name="uni1EA5" unicode="&#x1ea5;" horiz-adv-x="475" 
d="M557 797l-121 -167h-67l92 167h96zM228 607l-68 -82h-88l114 136h114l114 -136h-88l-68 82l-9 21h-12zM131 128q0 -28 22.5 -42t59.5 -14q51 0 83 29t32 74h18q0 -88 -46 -141t-121 -53q-65 0 -108 37t-43 95q0 52 31.5 82.5t97.5 49.5l171 45v-70l-136 -35
q-61 -16 -61 -57zM431 0h-103l30 117l-30 13v174q0 38 -26 61t-69 23q-44 0 -71.5 -26.5t-32.5 -68.5l-101 15q11 75 66 123t141 48q87 0 141.5 -47.5t54.5 -116.5v-315z" />
    <glyph glyph-name="uni1EA6" unicode="&#x1ea6;" horiz-adv-x="636" 
d="M365 980h96l92 -167h-67zM304 790l-68 -82h-88l114 136h114l114 -136h-88l-68 82l-9 21h-12zM164 270h311v-96h-311v96zM300 515l-174 -515h-111l223 654h158l225 -654h-109l-177 515l-11 55h-13z" />
    <glyph glyph-name="uni1EA7" unicode="&#x1ea7;" horiz-adv-x="475" 
d="M289 797h96l92 -167h-67zM228 607l-68 -82h-88l114 136h114l114 -136h-88l-68 82l-9 21h-12zM131 128q0 -28 22.5 -42t59.5 -14q51 0 83 29t32 74h18q0 -88 -46 -141t-121 -53q-65 0 -108 37t-43 95q0 52 31.5 82.5t97.5 49.5l171 45v-70l-136 -35q-61 -16 -61 -57z
M431 0h-103l30 117l-30 13v174q0 38 -26 61t-69 23q-44 0 -71.5 -26.5t-32.5 -68.5l-101 15q11 75 66 123t141 48q87 0 141.5 -47.5t54.5 -116.5v-315z" />
    <glyph glyph-name="uni1EA8" unicode="&#x1ea8;" horiz-adv-x="636" 
d="M500 907.5q0 10.5 -7 17.5t-18 7q-9 0 -17 -7t-11 -22l-61 18q7 35 33.5 53.5t56.5 18.5q36 0 61.5 -24.5t25.5 -60.5q0 -17 -8 -34t-15.5 -26t-23.5 -25t-19 -20l-41 41q14 13 21 20t15 20t8 23.5zM304 790l-68 -82h-88l114 136h114l114 -136h-88l-68 82l-9 21h-12z
M164 270h311v-96h-311v96zM300 515l-174 -515h-111l223 654h158l225 -654h-109l-177 515l-11 55h-13z" />
    <glyph glyph-name="uni1EA9" unicode="&#x1ea9;" horiz-adv-x="475" 
d="M424 724.5q0 10.5 -7 17.5t-18 7q-9 0 -17 -7t-11 -22l-61 18q7 35 33.5 53.5t56.5 18.5q36 0 61.5 -24.5t25.5 -60.5q0 -17 -8 -34t-15.5 -26t-23.5 -25t-19 -20l-41 41q14 13 21 20t15 20t8 23.5zM228 607l-68 -82h-88l114 136h114l114 -136h-88l-68 82l-9 21h-12z
M131 128q0 -28 22.5 -42t59.5 -14q51 0 83 29t32 74h18q0 -88 -46 -141t-121 -53q-65 0 -108 37t-43 95q0 52 31.5 82.5t97.5 49.5l171 45v-70l-136 -35q-61 -16 -61 -57zM431 0h-103l30 117l-30 13v174q0 38 -26 61t-69 23q-44 0 -71.5 -26.5t-32.5 -68.5l-101 15
q11 75 66 123t141 48q87 0 141.5 -47.5t54.5 -116.5v-315z" />
    <glyph glyph-name="uni1EAA" unicode="&#x1eaa;" horiz-adv-x="636" 
d="M417 1009q0 -65 -27 -65q-12 0 -23 6.5t-15 11t-16 18.5q-10 12 -18 19t-23.5 13.5t-34.5 6.5q-45 0 -69 -30.5t-24 -88.5l59 -8q0 69 32 69q7 0 13.5 -2t13 -7t10 -9t11 -12.5t10.5 -11.5q33 -34 75 -34q86 0 86 117zM304 790l-68 -82h-88l114 136h114l114 -136h-88
l-68 82l-9 21h-12zM164 270h311v-96h-311v96zM300 515l-174 -515h-111l223 654h158l225 -654h-109l-177 515l-11 55h-13z" />
    <glyph glyph-name="uni1EAB" unicode="&#x1eab;" horiz-adv-x="475" 
d="M335 816q0 -65 -27 -65q-12 0 -23 6.5t-15 11t-16 18.5q-10 12 -18 19t-23.5 13.5t-34.5 6.5q-45 0 -69 -30.5t-24 -88.5l59 -8q0 69 32 69q7 0 13.5 -2t13 -7t10 -9t11 -12.5t10.5 -11.5q33 -34 75 -34q86 0 86 117zM228 607l-68 -82h-88l114 136h114l114 -136h-88
l-68 82l-9 21h-12zM131 128q0 -28 22.5 -42t59.5 -14q51 0 83 29t32 74h18q0 -88 -46 -141t-121 -53q-65 0 -108 37t-43 95q0 52 31.5 82.5t97.5 49.5l171 45v-70l-136 -35q-61 -16 -61 -57zM431 0h-103l30 117l-30 13v174q0 38 -26 61t-69 23q-44 0 -71.5 -26.5
t-32.5 -68.5l-101 15q11 75 66 123t141 48q87 0 141.5 -47.5t54.5 -116.5v-315z" />
    <glyph glyph-name="uni1EAC" unicode="&#x1eac;" horiz-adv-x="636" 
d="M303 812l-68 -82h-88l114 136h114l114 -136h-88l-68 82l-9 21h-12zM266 -131.5q0 24.5 18 42.5t43 18t42.5 -18t17.5 -42q0 -25 -17.5 -43.5t-42.5 -18.5t-43 18.5t-18 43zM164 270h311v-96h-311v96zM300 515l-174 -515h-111l223 654h158l225 -654h-109l-177 515l-11 55
h-13z" />
    <glyph glyph-name="uni1EAD" unicode="&#x1ead;" horiz-adv-x="475" 
d="M220 623l-68 -82h-88l114 136h114l114 -136h-88l-68 82l-9 21h-12zM174 -131.5q0 24.5 18 42.5t43 18t42.5 -18t17.5 -42q0 -25 -17.5 -43.5t-42.5 -18.5t-43 18.5t-18 43zM131 128q0 -28 22.5 -42t59.5 -14q51 0 83 29t32 74h18q0 -88 -46 -141t-121 -53q-65 0 -108 37
t-43 95q0 52 31.5 82.5t97.5 49.5l171 45v-70l-136 -35q-61 -16 -61 -57zM431 0h-103l30 117l-30 13v174q0 38 -26 61t-69 23q-44 0 -71.5 -26.5t-32.5 -68.5l-101 15q11 75 66 123t141 48q87 0 141.5 -47.5t54.5 -116.5v-315z" />
    <glyph glyph-name="uni1EAE" unicode="&#x1eae;" horiz-adv-x="636" 
d="M451 1026l-121 -167h-67l92 167h96zM392 838q0 -29 -21.5 -50.5t-51.5 -21.5t-51.5 21.5t-21.5 50.5h-78q0 -56 43.5 -93.5t107.5 -37.5t107.5 37.5t43.5 93.5h-78zM164 270h311v-96h-311v96zM300 515l-174 -515h-111l223 654h158l225 -654h-109l-177 515l-11 55h-13z
" />
    <glyph glyph-name="uni1EAF" unicode="&#x1eaf;" horiz-adv-x="475" 
d="M361 854l-121 -167h-67l92 167h96zM316 655q0 -29 -21.5 -50.5t-51.5 -21.5t-51.5 21.5t-21.5 50.5h-78q0 -56 43.5 -93.5t107.5 -37.5t107.5 37.5t43.5 93.5h-78zM131 128q0 -28 22.5 -42t59.5 -14q51 0 83 29t32 74h18q0 -88 -46 -141t-121 -53q-65 0 -108 37t-43 95
q0 52 31.5 82.5t97.5 49.5l171 45v-70l-136 -35q-61 -16 -61 -57zM431 0h-103l30 117l-30 13v174q0 38 -26 61t-69 23q-44 0 -71.5 -26.5t-32.5 -68.5l-101 15q11 75 66 123t141 48q87 0 141.5 -47.5t54.5 -116.5v-315z" />
    <glyph glyph-name="uni1EB0" unicode="&#x1eb0;" horiz-adv-x="636" 
d="M187 1026h96l92 -167h-67zM392 838q0 -29 -21.5 -50.5t-51.5 -21.5t-51.5 21.5t-21.5 50.5h-78q0 -56 43.5 -93.5t107.5 -37.5t107.5 37.5t43.5 93.5h-78zM164 270h311v-96h-311v96zM300 515l-174 -515h-111l223 654h158l225 -654h-109l-177 515l-11 55h-13z" />
    <glyph glyph-name="uni1EB1" unicode="&#x1eb1;" horiz-adv-x="475" 
d="M97 854h96l92 -167h-67zM316 655q0 -29 -21.5 -50.5t-51.5 -21.5t-51.5 21.5t-21.5 50.5h-78q0 -56 43.5 -93.5t107.5 -37.5t107.5 37.5t43.5 93.5h-78zM131 128q0 -28 22.5 -42t59.5 -14q51 0 83 29t32 74h18q0 -88 -46 -141t-121 -53q-65 0 -108 37t-43 95
q0 52 31.5 82.5t97.5 49.5l171 45v-70l-136 -35q-61 -16 -61 -57zM431 0h-103l30 117l-30 13v174q0 38 -26 61t-69 23q-44 0 -71.5 -26.5t-32.5 -68.5l-101 15q11 75 66 123t141 48q87 0 141.5 -47.5t54.5 -116.5v-315z" />
    <glyph glyph-name="uni1EB2" unicode="&#x1eb2;" horiz-adv-x="636" 
d="M342 949.5q0 10.5 -7 17.5t-18 7q-9 0 -17 -7t-11 -22l-61 18q7 35 33.5 53.5t56.5 18.5q36 0 61.5 -24.5t25.5 -60.5q0 -17 -8 -34t-15.5 -26t-23.5 -25t-19 -20l-41 41q14 13 21 20t15 20t8 23.5zM392 838q0 -29 -21.5 -50.5t-51.5 -21.5t-51.5 21.5t-21.5 50.5h-78
q0 -56 43.5 -93.5t107.5 -37.5t107.5 37.5t43.5 93.5h-78zM164 270h311v-96h-311v96zM300 515l-174 -515h-111l223 654h158l225 -654h-109l-177 515l-11 55h-13z" />
    <glyph glyph-name="uni1EB3" unicode="&#x1eb3;" horiz-adv-x="475" 
d="M251 777.5q0 10.5 -7 17.5t-18 7q-9 0 -17 -7t-11 -22l-61 18q7 35 33.5 53.5t56.5 18.5q36 0 61.5 -24.5t25.5 -60.5q0 -17 -8 -34t-15.5 -26t-23.5 -25t-19 -20l-41 41q14 13 21 20t15 20t8 23.5zM316 655q0 -29 -21.5 -50.5t-51.5 -21.5t-51.5 21.5t-21.5 50.5h-78
q0 -56 43.5 -93.5t107.5 -37.5t107.5 37.5t43.5 93.5h-78zM131 128q0 -28 22.5 -42t59.5 -14q51 0 83 29t32 74h18q0 -88 -46 -141t-121 -53q-65 0 -108 37t-43 95q0 52 31.5 82.5t97.5 49.5l171 45v-70l-136 -35q-61 -16 -61 -57zM431 0h-103l30 117l-30 13v174
q0 38 -26 61t-69 23q-44 0 -71.5 -26.5t-32.5 -68.5l-101 15q11 75 66 123t141 48q87 0 141.5 -47.5t54.5 -116.5v-315z" />
    <glyph glyph-name="uni1EB4" unicode="&#x1eb4;" horiz-adv-x="636" 
d="M417 977q0 -65 -27 -65q-12 0 -23 6.5t-15 11t-16 18.5q-10 12 -18 19t-23.5 13.5t-34.5 6.5q-45 0 -69 -30.5t-24 -88.5l59 -8q0 69 32 69q7 0 13.5 -2t13 -7t10 -9t11 -12.5t10.5 -11.5q33 -34 75 -34q86 0 86 117zM392 838q0 -29 -21.5 -50.5t-51.5 -21.5t-51.5 21.5
t-21.5 50.5h-78q0 -56 43.5 -93.5t107.5 -37.5t107.5 37.5t43.5 93.5h-78zM164 270h311v-96h-311v96zM300 515l-174 -515h-111l223 654h158l225 -654h-109l-177 515l-11 55h-13z" />
    <glyph glyph-name="uni1EB5" unicode="&#x1eb5;" horiz-adv-x="475" 
d="M326 805q0 -65 -27 -65q-12 0 -23 6.5t-15 11t-16 18.5q-10 12 -18 19t-23.5 13.5t-34.5 6.5q-45 0 -69 -30.5t-24 -88.5l59 -8q0 69 32 69q7 0 13.5 -2t13 -7t10 -9t11 -12.5t10.5 -11.5q33 -34 75 -34q86 0 86 117zM316 655q0 -29 -21.5 -50.5t-51.5 -21.5t-51.5 21.5
t-21.5 50.5h-78q0 -56 43.5 -93.5t107.5 -37.5t107.5 37.5t43.5 93.5h-78zM131 128q0 -28 22.5 -42t59.5 -14q51 0 83 29t32 74h18q0 -88 -46 -141t-121 -53q-65 0 -108 37t-43 95q0 52 31.5 82.5t97.5 49.5l171 45v-70l-136 -35q-61 -16 -61 -57zM431 0h-103l30 117l-30 13
v174q0 38 -26 61t-69 23q-44 0 -71.5 -26.5t-32.5 -68.5l-101 15q11 75 66 123t141 48q87 0 141.5 -47.5t54.5 -116.5v-315z" />
    <glyph glyph-name="uni1EB6" unicode="&#x1eb6;" horiz-adv-x="636" 
d="M391 861q0 -29 -21.5 -50.5t-51.5 -21.5t-51.5 21.5t-21.5 50.5h-78q0 -56 43.5 -93.5t107.5 -37.5t107.5 37.5t43.5 93.5h-78zM266 -131.5q0 24.5 18 42.5t43 18t42.5 -18t17.5 -42q0 -25 -17.5 -43.5t-42.5 -18.5t-43 18.5t-18 43zM164 270h311v-96h-311v96zM300 515
l-174 -515h-111l223 654h158l225 -654h-109l-177 515l-11 55h-13z" />
    <glyph glyph-name="uni1EB7" unicode="&#x1eb7;" horiz-adv-x="475" 
d="M308 672q0 -29 -21.5 -50.5t-51.5 -21.5t-51.5 21.5t-21.5 50.5h-78q0 -56 43.5 -93.5t107.5 -37.5t107.5 37.5t43.5 93.5h-78zM174 -131.5q0 24.5 18 42.5t43 18t42.5 -18t17.5 -42q0 -25 -17.5 -43.5t-42.5 -18.5t-43 18.5t-18 43zM131 128q0 -28 22.5 -42t59.5 -14
q51 0 83 29t32 74h18q0 -88 -46 -141t-121 -53q-65 0 -108 37t-43 95q0 52 31.5 82.5t97.5 49.5l171 45v-70l-136 -35q-61 -16 -61 -57zM431 0h-103l30 117l-30 13v174q0 38 -26 61t-69 23q-44 0 -71.5 -26.5t-32.5 -68.5l-101 15q11 75 66 123t141 48q87 0 141.5 -47.5
t54.5 -116.5v-315z" />
    <glyph glyph-name="uni1EB8" unicode="&#x1eb8;" horiz-adv-x="534" 
d="M229 -131.5q0 24.5 18 42.5t43 18t42.5 -18t17.5 -42q0 -25 -17.5 -43.5t-42.5 -18.5t-43 18.5t-18 43zM44 654h465v-96h-363v-183h348v-97h-348v-181h363v-97h-465v654z" />
    <glyph glyph-name="uni1EB9" unicode="&#x1eb9;" 
d="M201 -131.5q0 24.5 18 42.5t43 18t42.5 -18t17.5 -42q0 -25 -17.5 -43.5t-42.5 -18.5t-43 18.5t-18 43zM132 203q5 -64 39 -98t92 -34q46 0 76.5 23t38.5 64l99 -16q-17 -75 -74.5 -118t-139.5 -43q-110 0 -172.5 67t-62.5 184q0 116 60 182.5t164 66.5q105 0 165 -67
t60 -176v-35h-345zM134 275h239q0 51 -34.5 84t-86.5 33q-50 0 -80.5 -30.5t-37.5 -86.5z" />
    <glyph glyph-name="uni1EBA" unicode="&#x1eba;" horiz-adv-x="534" 
d="M310 799.5q0 10.5 -7 17.5t-18 7q-9 0 -17 -7t-11 -22l-61 18q7 35 33.5 53.5t56.5 18.5q36 0 61.5 -24.5t25.5 -60.5q0 -17 -8 -34t-15.5 -26t-23.5 -25t-19 -20l-41 41q14 13 21 20t15 20t8 23.5zM44 654h465v-96h-363v-183h348v-97h-348v-181h363v-97h-465v654z" />
    <glyph glyph-name="uni1EBB" unicode="&#x1ebb;" 
d="M274 616.5q0 10.5 -7 17.5t-18 7q-9 0 -17 -7t-11 -22l-61 18q7 35 33.5 53.5t56.5 18.5q36 0 61.5 -24.5t25.5 -60.5q0 -17 -8 -34t-15.5 -26t-23.5 -25t-19 -20l-41 41q14 13 21 20t15 20t8 23.5zM132 203q5 -64 39 -98t92 -34q46 0 76.5 23t38.5 64l99 -16
q-17 -75 -74.5 -118t-139.5 -43q-110 0 -172.5 67t-62.5 184q0 116 60 182.5t164 66.5q105 0 165 -67t60 -176v-35h-345zM134 275h239q0 51 -34.5 84t-86.5 33q-50 0 -80.5 -30.5t-37.5 -86.5z" />
    <glyph glyph-name="uni1EBC" unicode="&#x1ebc;" horiz-adv-x="534" 
d="M385 827q0 -65 -27 -65q-12 0 -23 6.5t-15 11t-16 18.5q-10 12 -18 19t-23.5 13.5t-34.5 6.5q-45 0 -69 -30.5t-24 -88.5l59 -8q0 69 32 69q7 0 13.5 -2t13 -7t10 -9t11 -12.5t10.5 -11.5q33 -34 75 -34q86 0 86 117zM44 654h465v-96h-363v-183h348v-97h-348v-181h363
v-97h-465v654z" />
    <glyph glyph-name="uni1EBD" unicode="&#x1ebd;" 
d="M349 644q0 -65 -27 -65q-12 0 -23 6.5t-15 11t-16 18.5q-10 12 -18 19t-23.5 13.5t-34.5 6.5q-45 0 -69 -30.5t-24 -88.5l59 -8q0 69 32 69q7 0 13.5 -2t13 -7t10 -9t11 -12.5t10.5 -11.5q33 -34 75 -34q86 0 86 117zM132 203q5 -64 39 -98t92 -34q46 0 76.5 23t38.5 64
l99 -16q-17 -75 -74.5 -118t-139.5 -43q-110 0 -172.5 67t-62.5 184q0 116 60 182.5t164 66.5q105 0 165 -67t60 -176v-35h-345zM134 275h239q0 51 -34.5 84t-86.5 33q-50 0 -80.5 -30.5t-37.5 -86.5z" />
    <glyph glyph-name="uni1EBE" unicode="&#x1ebe;" horiz-adv-x="534" 
d="M602 980l-121 -167h-67l92 167h96zM273 790l-68 -82h-88l114 136h114l114 -136h-88l-68 82l-9 21h-12zM44 654h465v-96h-363v-183h348v-97h-348v-181h363v-97h-465v654z" />
    <glyph glyph-name="uni1EBF" unicode="&#x1ebf;" 
d="M566 797l-121 -167h-67l92 167h96zM237 607l-68 -82h-88l114 136h114l114 -136h-88l-68 82l-9 21h-12zM132 203q5 -64 39 -98t92 -34q46 0 76.5 23t38.5 64l99 -16q-17 -75 -74.5 -118t-139.5 -43q-110 0 -172.5 67t-62.5 184q0 116 60 182.5t164 66.5q105 0 165 -67
t60 -176v-35h-345zM134 275h239q0 51 -34.5 84t-86.5 33q-50 0 -80.5 -30.5t-37.5 -86.5z" />
    <glyph glyph-name="uni1EC0" unicode="&#x1ec0;" horiz-adv-x="534" 
d="M334 980h96l92 -167h-67zM273 790l-68 -82h-88l114 136h114l114 -136h-88l-68 82l-9 21h-12zM44 654h465v-96h-363v-183h348v-97h-348v-181h363v-97h-465v654z" />
    <glyph glyph-name="uni1EC1" unicode="&#x1ec1;" 
d="M298 797h96l92 -167h-67zM237 607l-68 -82h-88l114 136h114l114 -136h-88l-68 82l-9 21h-12zM132 203q5 -64 39 -98t92 -34q46 0 76.5 23t38.5 64l99 -16q-17 -75 -74.5 -118t-139.5 -43q-110 0 -172.5 67t-62.5 184q0 116 60 182.5t164 66.5q105 0 165 -67t60 -176v-35
h-345zM134 275h239q0 51 -34.5 84t-86.5 33q-50 0 -80.5 -30.5t-37.5 -86.5z" />
    <glyph glyph-name="uni1EC2" unicode="&#x1ec2;" horiz-adv-x="534" 
d="M469 907.5q0 10.5 -7 17.5t-18 7q-9 0 -17 -7t-11 -22l-61 18q7 35 33.5 53.5t56.5 18.5q36 0 61.5 -24.5t25.5 -60.5q0 -17 -8 -34t-15.5 -26t-23.5 -25t-19 -20l-41 41q14 13 21 20t15 20t8 23.5zM273 790l-68 -82h-88l114 136h114l114 -136h-88l-68 82l-9 21h-12z
M44 654h465v-96h-363v-183h348v-97h-348v-181h363v-97h-465v654z" />
    <glyph glyph-name="uni1EC3" unicode="&#x1ec3;" 
d="M433 724.5q0 10.5 -7 17.5t-18 7q-9 0 -17 -7t-11 -22l-61 18q7 35 33.5 53.5t56.5 18.5q36 0 61.5 -24.5t25.5 -60.5q0 -17 -8 -34t-15.5 -26t-23.5 -25t-19 -20l-41 41q14 13 21 20t15 20t8 23.5zM237 607l-68 -82h-88l114 136h114l114 -136h-88l-68 82l-9 21h-12z
M132 203q5 -64 39 -98t92 -34q46 0 76.5 23t38.5 64l99 -16q-17 -75 -74.5 -118t-139.5 -43q-110 0 -172.5 67t-62.5 184q0 116 60 182.5t164 66.5q105 0 165 -67t60 -176v-35h-345zM134 275h239q0 51 -34.5 84t-86.5 33q-50 0 -80.5 -30.5t-37.5 -86.5z" />
    <glyph glyph-name="uni1EC4" unicode="&#x1ec4;" horiz-adv-x="534" 
d="M383 1009q0 -65 -27 -65q-12 0 -23 6.5t-15 11t-16 18.5q-10 12 -18 19t-23.5 13.5t-34.5 6.5q-45 0 -69 -30.5t-24 -88.5l59 -8q0 69 32 69q7 0 13.5 -2t13 -7t10 -9t11 -12.5t10.5 -11.5q33 -34 75 -34q86 0 86 117zM273 790l-68 -82h-88l114 136h114l114 -136h-88
l-68 82l-9 21h-12zM44 654h465v-96h-363v-183h348v-97h-348v-181h363v-97h-465v654z" />
    <glyph glyph-name="uni1EC5" unicode="&#x1ec5;" 
d="M345 816q0 -65 -27 -65q-12 0 -23 6.5t-15 11t-16 18.5q-10 12 -18 19t-23.5 13.5t-34.5 6.5q-45 0 -69 -30.5t-24 -88.5l59 -8q0 69 32 69q7 0 13.5 -2t13 -7t10 -9t11 -12.5t10.5 -11.5q33 -34 75 -34q86 0 86 117zM237 607l-68 -82h-88l114 136h114l114 -136h-88
l-68 82l-9 21h-12zM132 203q5 -64 39 -98t92 -34q46 0 76.5 23t38.5 64l99 -16q-17 -75 -74.5 -118t-139.5 -43q-110 0 -172.5 67t-62.5 184q0 116 60 182.5t164 66.5q105 0 165 -67t60 -176v-35h-345zM134 275h239q0 51 -34.5 84t-86.5 33q-50 0 -80.5 -30.5t-37.5 -86.5z
" />
    <glyph glyph-name="uni1EC6" unicode="&#x1ec6;" horiz-adv-x="534" 
d="M261 812l-68 -82h-88l114 136h114l114 -136h-88l-68 82l-9 21h-12zM229 -131.5q0 24.5 18 42.5t43 18t42.5 -18t17.5 -42q0 -25 -17.5 -43.5t-42.5 -18.5t-43 18.5t-18 43zM44 654h465v-96h-363v-183h348v-97h-348v-181h363v-97h-465v654z" />
    <glyph glyph-name="uni1EC7" unicode="&#x1ec7;" 
d="M237 623l-68 -82h-88l114 136h114l114 -136h-88l-68 82l-9 21h-12zM201 -131.5q0 24.5 18 42.5t43 18t42.5 -18t17.5 -42q0 -25 -17.5 -43.5t-42.5 -18.5t-43 18.5t-18 43zM132 203q5 -64 39 -98t92 -34q46 0 76.5 23t38.5 64l99 -16q-17 -75 -74.5 -118t-139.5 -43
q-110 0 -172.5 67t-62.5 184q0 116 60 182.5t164 66.5q105 0 165 -67t60 -176v-35h-345zM134 275h239q0 51 -34.5 84t-86.5 33q-50 0 -80.5 -30.5t-37.5 -86.5z" />
    <glyph glyph-name="uni1EC8" unicode="&#x1ec8;" horiz-adv-x="190" 
d="M118 799.5q0 10.5 -7 17.5t-18 7q-9 0 -17 -7t-11 -22l-61 18q7 35 33.5 53.5t56.5 18.5q36 0 61.5 -24.5t25.5 -60.5q0 -17 -8 -34t-15.5 -26t-23.5 -25t-19 -20l-41 41q14 13 21 20t15 20t8 23.5zM44 654h102v-654h-102v654z" />
    <glyph glyph-name="uni1EC9" unicode="&#x1ec9;" horiz-adv-x="186" 
d="M118 616.5q0 10.5 -7 17.5t-18 7q-9 0 -17 -7t-11 -22l-61 18q7 35 33.5 53.5t56.5 18.5q36 0 61.5 -24.5t25.5 -60.5q0 -17 -8 -34t-15.5 -26t-23.5 -25t-19 -20l-41 41q14 13 21 20t15 20t8 23.5zM44 460h102v-460h-102v460z" />
    <glyph glyph-name="uni1ECA" unicode="&#x1eca;" horiz-adv-x="190" 
d="M33 -131.5q0 24.5 18 42.5t43 18t42.5 -18t17.5 -42q0 -25 -17.5 -43.5t-42.5 -18.5t-43 18.5t-18 43zM44 654h102v-654h-102v654z" />
    <glyph glyph-name="uni1ECB" unicode="&#x1ecb;" horiz-adv-x="187" 
d="M35 -131.5q0 24.5 18 42.5t43 18t42.5 -18t17.5 -42q0 -25 -17.5 -43.5t-42.5 -18.5t-43 18.5t-18 43zM33 583q0 25 18 43t42.5 18t42.5 -18t18 -43t-18 -43t-42.5 -18t-42.5 18t-18 43zM44 460h102v-460h-102v460z" />
    <glyph glyph-name="uni1ECC" unicode="&#x1ecc;" horiz-adv-x="611" 
d="M245 -131.5q0 24.5 18 42.5t43 18t42.5 -18t17.5 -42q0 -25 -17.5 -43.5t-42.5 -18.5t-43 18.5t-18 43zM131 327q0 -117 46.5 -181.5t128.5 -64.5t128 64.5t46 181.5t-46 183t-128 66t-128.5 -66t-46.5 -183zM28 327q0 163 75.5 255.5t202.5 92.5q119 0 198 -94t79 -254
q0 -163 -74.5 -254.5t-202.5 -91.5t-203 91.5t-75 254.5z" />
    <glyph glyph-name="uni1ECD" unicode="&#x1ecd;" 
d="M192 -131.5q0 24.5 18 42.5t43 18t42.5 -18t17.5 -42q0 -25 -17.5 -43.5t-42.5 -18.5t-43 18.5t-18 43zM131 232q0 -78 32 -119.5t89 -41.5q58 0 90 42t32 119t-32.5 118.5t-89.5 41.5t-89 -41.5t-32 -118.5zM28 232q0 118 60.5 183.5t163.5 65.5q97 0 161 -66.5
t64 -182.5q0 -119 -61 -185t-164 -66t-163.5 66t-60.5 185z" />
    <glyph glyph-name="uni1ECE" unicode="&#x1ece;" horiz-adv-x="611" 
d="M327 799.5q0 10.5 -7 17.5t-18 7q-9 0 -17 -7t-11 -22l-61 18q7 35 33.5 53.5t56.5 18.5q36 0 61.5 -24.5t25.5 -60.5q0 -17 -8 -34t-15.5 -26t-23.5 -25t-19 -20l-41 41q14 13 21 20t15 20t8 23.5zM131 327q0 -117 46.5 -181.5t128.5 -64.5t128 64.5t46 181.5t-46 183
t-128 66t-128.5 -66t-46.5 -183zM28 327q0 163 75.5 255.5t202.5 92.5q119 0 198 -94t79 -254q0 -163 -74.5 -254.5t-202.5 -91.5t-203 91.5t-75 254.5z" />
    <glyph glyph-name="uni1ECF" unicode="&#x1ecf;" 
d="M274 616.5q0 10.5 -7 17.5t-18 7q-9 0 -17 -7t-11 -22l-61 18q7 35 33.5 53.5t56.5 18.5q36 0 61.5 -24.5t25.5 -60.5q0 -17 -8 -34t-15.5 -26t-23.5 -25t-19 -20l-41 41q14 13 21 20t15 20t8 23.5zM131 232q0 -78 32 -119.5t89 -41.5q58 0 90 42t32 119t-32.5 118.5
t-89.5 41.5t-89 -41.5t-32 -118.5zM28 232q0 118 60.5 183.5t163.5 65.5q97 0 161 -66.5t64 -182.5q0 -119 -61 -185t-164 -66t-163.5 66t-60.5 185z" />
    <glyph glyph-name="uni1ED0" unicode="&#x1ed0;" horiz-adv-x="611" 
d="M619 980l-121 -167h-67l92 167h96zM290 790l-68 -82h-88l114 136h114l114 -136h-88l-68 82l-9 21h-12zM131 327q0 -117 46.5 -181.5t128.5 -64.5t128 64.5t46 181.5t-46 183t-128 66t-128.5 -66t-46.5 -183zM28 327q0 163 75.5 255.5t202.5 92.5q119 0 198 -94t79 -254
q0 -163 -74.5 -254.5t-202.5 -91.5t-203 91.5t-75 254.5z" />
    <glyph glyph-name="uni1ED1" unicode="&#x1ed1;" 
d="M566 797l-121 -167h-67l92 167h96zM237 607l-68 -82h-88l114 136h114l114 -136h-88l-68 82l-9 21h-12zM131 232q0 -78 32 -119.5t89 -41.5q58 0 90 42t32 119t-32.5 118.5t-89.5 41.5t-89 -41.5t-32 -118.5zM28 232q0 118 60.5 183.5t163.5 65.5q97 0 161 -66.5
t64 -182.5q0 -119 -61 -185t-164 -66t-163.5 66t-60.5 185z" />
    <glyph glyph-name="uni1ED2" unicode="&#x1ed2;" horiz-adv-x="611" 
d="M351 980h96l92 -167h-67zM290 790l-68 -82h-88l114 136h114l114 -136h-88l-68 82l-9 21h-12zM131 327q0 -117 46.5 -181.5t128.5 -64.5t128 64.5t46 181.5t-46 183t-128 66t-128.5 -66t-46.5 -183zM28 327q0 163 75.5 255.5t202.5 92.5q119 0 198 -94t79 -254
q0 -163 -74.5 -254.5t-202.5 -91.5t-203 91.5t-75 254.5z" />
    <glyph glyph-name="uni1ED3" unicode="&#x1ed3;" 
d="M298 797h96l92 -167h-67zM237 607l-68 -82h-88l114 136h114l114 -136h-88l-68 82l-9 21h-12zM131 232q0 -78 32 -119.5t89 -41.5q58 0 90 42t32 119t-32.5 118.5t-89.5 41.5t-89 -41.5t-32 -118.5zM28 232q0 118 60.5 183.5t163.5 65.5q97 0 161 -66.5t64 -182.5
q0 -119 -61 -185t-164 -66t-163.5 66t-60.5 185z" />
    <glyph glyph-name="uni1ED4" unicode="&#x1ed4;" horiz-adv-x="611" 
d="M486 907.5q0 10.5 -7 17.5t-18 7q-9 0 -17 -7t-11 -22l-61 18q7 35 33.5 53.5t56.5 18.5q36 0 61.5 -24.5t25.5 -60.5q0 -17 -8 -34t-15.5 -26t-23.5 -25t-19 -20l-41 41q14 13 21 20t15 20t8 23.5zM290 790l-68 -82h-88l114 136h114l114 -136h-88l-68 82l-9 21h-12z
M131 327q0 -117 46.5 -181.5t128.5 -64.5t128 64.5t46 181.5t-46 183t-128 66t-128.5 -66t-46.5 -183zM28 327q0 163 75.5 255.5t202.5 92.5q119 0 198 -94t79 -254q0 -163 -74.5 -254.5t-202.5 -91.5t-203 91.5t-75 254.5z" />
    <glyph glyph-name="uni1ED5" unicode="&#x1ed5;" 
d="M433 724.5q0 10.5 -7 17.5t-18 7q-9 0 -17 -7t-11 -22l-61 18q7 35 33.5 53.5t56.5 18.5q36 0 61.5 -24.5t25.5 -60.5q0 -17 -8 -34t-15.5 -26t-23.5 -25t-19 -20l-41 41q14 13 21 20t15 20t8 23.5zM237 607l-68 -82h-88l114 136h114l114 -136h-88l-68 82l-9 21h-12z
M131 232q0 -78 32 -119.5t89 -41.5q58 0 90 42t32 119t-32.5 118.5t-89.5 41.5t-89 -41.5t-32 -118.5zM28 232q0 118 60.5 183.5t163.5 65.5q97 0 161 -66.5t64 -182.5q0 -119 -61 -185t-164 -66t-163.5 66t-60.5 185z" />
    <glyph glyph-name="uni1ED6" unicode="&#x1ed6;" horiz-adv-x="611" 
d="M388 1009q0 -65 -27 -65q-12 0 -23 6.5t-15 11t-16 18.5q-10 12 -18 19t-23.5 13.5t-34.5 6.5q-45 0 -69 -30.5t-24 -88.5l59 -8q0 69 32 69q7 0 13.5 -2t13 -7t10 -9t11 -12.5t10.5 -11.5q33 -34 75 -34q86 0 86 117zM290 790l-68 -82h-88l114 136h114l114 -136h-88
l-68 82l-9 21h-12zM131 327q0 -117 46.5 -181.5t128.5 -64.5t128 64.5t46 181.5t-46 183t-128 66t-128.5 -66t-46.5 -183zM28 327q0 163 75.5 255.5t202.5 92.5q119 0 198 -94t79 -254q0 -163 -74.5 -254.5t-202.5 -91.5t-203 91.5t-75 254.5z" />
    <glyph glyph-name="uni1ED7" unicode="&#x1ed7;" 
d="M345 816q0 -65 -27 -65q-12 0 -23 6.5t-15 11t-16 18.5q-10 12 -18 19t-23.5 13.5t-34.5 6.5q-45 0 -69 -30.5t-24 -88.5l59 -8q0 69 32 69q7 0 13.5 -2t13 -7t10 -9t11 -12.5t10.5 -11.5q33 -34 75 -34q86 0 86 117zM237 607l-68 -82h-88l114 136h114l114 -136h-88
l-68 82l-9 21h-12zM131 232q0 -78 32 -119.5t89 -41.5q58 0 90 42t32 119t-32.5 118.5t-89.5 41.5t-89 -41.5t-32 -118.5zM28 232q0 118 60.5 183.5t163.5 65.5q97 0 161 -66.5t64 -182.5q0 -119 -61 -185t-164 -66t-163.5 66t-60.5 185z" />
    <glyph glyph-name="uni1ED8" unicode="&#x1ed8;" horiz-adv-x="611" 
d="M291 817l-68 -82h-88l114 136h114l114 -136h-88l-68 82l-9 21h-12zM245 -131.5q0 24.5 18 42.5t43 18t42.5 -18t17.5 -42q0 -25 -17.5 -43.5t-42.5 -18.5t-43 18.5t-18 43zM131 327q0 -117 46.5 -181.5t128.5 -64.5t128 64.5t46 181.5t-46 183t-128 66t-128.5 -66
t-46.5 -183zM28 327q0 163 75.5 255.5t202.5 92.5q119 0 198 -94t79 -254q0 -163 -74.5 -254.5t-202.5 -91.5t-203 91.5t-75 254.5z" />
    <glyph glyph-name="uni1ED9" unicode="&#x1ed9;" 
d="M237 623l-68 -82h-88l114 136h114l114 -136h-88l-68 82l-9 21h-12zM192 -131.5q0 24.5 18 42.5t43 18t42.5 -18t17.5 -42q0 -25 -17.5 -43.5t-42.5 -18.5t-43 18.5t-18 43zM131 232q0 -78 32 -119.5t89 -41.5q58 0 90 42t32 119t-32.5 118.5t-89.5 41.5t-89 -41.5
t-32 -118.5zM28 232q0 118 60.5 183.5t163.5 65.5q97 0 161 -66.5t64 -182.5q0 -119 -61 -185t-164 -66t-163.5 66t-60.5 185z" />
    <glyph glyph-name="uni1EDA" unicode="&#x1eda;" horiz-adv-x="611" 
d="M407 901l-121 -167h-67l92 167h96zM474 792l96 -20q0 -76 -55 -137.5t-125 -61.5l-4 80q37 0 62.5 41.5t25.5 97.5zM131 327q0 -117 46.5 -181.5t128.5 -64.5t128 64.5t46 181.5t-46 183t-128 66t-128.5 -66t-46.5 -183zM28 327q0 163 75.5 255.5t202.5 92.5
q119 0 198 -94t79 -254q0 -163 -74.5 -254.5t-202.5 -91.5t-203 91.5t-75 254.5z" />
    <glyph glyph-name="uni1EDB" unicode="&#x1edb;" 
d="M348 713l-121 -167h-67l92 167h96zM416 599l96 -20q0 -76 -55 -137.5t-125 -61.5l-4 80q37 0 62.5 41.5t25.5 97.5zM131 232q0 -78 32 -119.5t89 -41.5q58 0 90 42t32 119t-32.5 118.5t-89.5 41.5t-89 -41.5t-32 -118.5zM28 232q0 118 60.5 183.5t163.5 65.5
q97 0 161 -66.5t64 -182.5q0 -119 -61 -185t-164 -66t-163.5 66t-60.5 185z" />
    <glyph glyph-name="uni1EDC" unicode="&#x1edc;" horiz-adv-x="611" 
d="M143 901h96l92 -167h-67zM474 792l96 -20q0 -76 -55 -137.5t-125 -61.5l-4 80q37 0 62.5 41.5t25.5 97.5zM131 327q0 -117 46.5 -181.5t128.5 -64.5t128 64.5t46 181.5t-46 183t-128 66t-128.5 -66t-46.5 -183zM28 327q0 163 75.5 255.5t202.5 92.5q119 0 198 -94
t79 -254q0 -163 -74.5 -254.5t-202.5 -91.5t-203 91.5t-75 254.5z" />
    <glyph glyph-name="uni1EDD" unicode="&#x1edd;" 
d="M84 713h96l92 -167h-67zM416 599l96 -20q0 -76 -55 -137.5t-125 -61.5l-4 80q37 0 62.5 41.5t25.5 97.5zM131 232q0 -78 32 -119.5t89 -41.5q58 0 90 42t32 119t-32.5 118.5t-89.5 41.5t-89 -41.5t-32 -118.5zM28 232q0 118 60.5 183.5t163.5 65.5q97 0 161 -66.5
t64 -182.5q0 -119 -61 -185t-164 -66t-163.5 66t-60.5 185z" />
    <glyph glyph-name="uni1EDE" unicode="&#x1ede;" horiz-adv-x="611" 
d="M297 824.5q0 10.5 -7 17.5t-18 7q-9 0 -17 -7t-11 -22l-61 18q7 35 33.5 53.5t56.5 18.5q36 0 61.5 -24.5t25.5 -60.5q0 -17 -8 -34t-15.5 -26t-23.5 -25t-19 -20l-41 41q14 13 21 20t15 20t8 23.5zM474 792l96 -20q0 -76 -55 -137.5t-125 -61.5l-4 80q37 0 62.5 41.5
t25.5 97.5zM131 327q0 -117 46.5 -181.5t128.5 -64.5t128 64.5t46 181.5t-46 183t-128 66t-128.5 -66t-46.5 -183zM28 327q0 163 75.5 255.5t202.5 92.5q119 0 198 -94t79 -254q0 -163 -74.5 -254.5t-202.5 -91.5t-203 91.5t-75 254.5z" />
    <glyph glyph-name="uni1EDF" unicode="&#x1edf;" 
d="M238 636.5q0 10.5 -7 17.5t-18 7q-9 0 -17 -7t-11 -22l-61 18q7 35 33.5 53.5t56.5 18.5q36 0 61.5 -24.5t25.5 -60.5q0 -17 -8 -34t-15.5 -26t-23.5 -25t-19 -20l-41 41q14 13 21 20t15 20t8 23.5zM416 599l96 -20q0 -76 -55 -137.5t-125 -61.5l-4 80q37 0 62.5 41.5
t25.5 97.5zM131 232q0 -78 32 -119.5t89 -41.5q58 0 90 42t32 119t-32.5 118.5t-89.5 41.5t-89 -41.5t-32 -118.5zM28 232q0 118 60.5 183.5t163.5 65.5q97 0 161 -66.5t64 -182.5q0 -119 -61 -185t-164 -66t-163.5 66t-60.5 185z" />
    <glyph glyph-name="uni1EE0" unicode="&#x1ee0;" horiz-adv-x="611" 
d="M357 867q0 -65 -27 -65q-12 0 -23 6.5t-15 11t-16 18.5q-10 12 -18 19t-23.5 13.5t-34.5 6.5q-45 0 -69 -30.5t-24 -88.5l59 -8q0 69 32 69q7 0 13.5 -2t13 -7t10 -9t11 -12.5t10.5 -11.5q33 -34 75 -34q86 0 86 117zM474 792l96 -20q0 -76 -55 -137.5t-125 -61.5l-4 80
q37 0 62.5 41.5t25.5 97.5zM131 327q0 -117 46.5 -181.5t128.5 -64.5t128 64.5t46 181.5t-46 183t-128 66t-128.5 -66t-46.5 -183zM28 327q0 163 75.5 255.5t202.5 92.5q119 0 198 -94t79 -254q0 -163 -74.5 -254.5t-202.5 -91.5t-203 91.5t-75 254.5z" />
    <glyph glyph-name="uni1EE1" unicode="&#x1ee1;" 
d="M313 664q0 -65 -27 -65q-12 0 -23 6.5t-15 11t-16 18.5q-10 12 -18 19t-23.5 13.5t-34.5 6.5q-45 0 -69 -30.5t-24 -88.5l59 -8q0 69 32 69q7 0 13.5 -2t13 -7t10 -9t11 -12.5t10.5 -11.5q33 -34 75 -34q86 0 86 117zM416 599l96 -20q0 -76 -55 -137.5t-125 -61.5l-4 80
q37 0 62.5 41.5t25.5 97.5zM131 232q0 -78 32 -119.5t89 -41.5q58 0 90 42t32 119t-32.5 118.5t-89.5 41.5t-89 -41.5t-32 -118.5zM28 232q0 118 60.5 183.5t163.5 65.5q97 0 161 -66.5t64 -182.5q0 -119 -61 -185t-164 -66t-163.5 66t-60.5 185z" />
    <glyph glyph-name="uni1EE2" unicode="&#x1ee2;" horiz-adv-x="611" 
d="M250 -131.5q0 24.5 18 42.5t43 18t42.5 -18t17.5 -42q0 -25 -17.5 -43.5t-42.5 -18.5t-43 18.5t-18 43zM474 792l96 -20q0 -76 -55 -137.5t-125 -61.5l-4 80q37 0 62.5 41.5t25.5 97.5zM131 327q0 -117 46.5 -181.5t128.5 -64.5t128 64.5t46 181.5t-46 183t-128 66
t-128.5 -66t-46.5 -183zM28 327q0 163 75.5 255.5t202.5 92.5q119 0 198 -94t79 -254q0 -163 -74.5 -254.5t-202.5 -91.5t-203 91.5t-75 254.5z" />
    <glyph glyph-name="uni1EE3" unicode="&#x1ee3;" 
d="M193 -131.5q0 24.5 18 42.5t43 18t42.5 -18t17.5 -42q0 -25 -17.5 -43.5t-42.5 -18.5t-43 18.5t-18 43zM416 599l96 -20q0 -76 -55 -137.5t-125 -61.5l-4 80q37 0 62.5 41.5t25.5 97.5zM131 232q0 -78 32 -119.5t89 -41.5q58 0 90 42t32 119t-32.5 118.5t-89.5 41.5
t-89 -41.5t-32 -118.5zM28 232q0 118 60.5 183.5t163.5 65.5q97 0 161 -66.5t64 -182.5q0 -119 -61 -185t-164 -66t-163.5 66t-60.5 185z" />
    <glyph glyph-name="uni1EE4" unicode="&#x1ee4;" horiz-adv-x="577" 
d="M230 -131.5q0 24.5 18 42.5t43 18t42.5 -18t17.5 -42q0 -25 -17.5 -43.5t-42.5 -18.5t-43 18.5t-18 43zM146 654v-429q0 -68 37.5 -105.5t106.5 -37.5q68 0 104 37t36 106v429h103v-440q0 -100 -68.5 -165t-174.5 -65q-110 0 -178 63.5t-68 166.5v440h102z" />
    <glyph glyph-name="uni1EE5" unicode="&#x1ee5;" horiz-adv-x="500" 
d="M196 -131.5q0 24.5 18 42.5t43 18t42.5 -18t17.5 -42q0 -25 -17.5 -43.5t-42.5 -18.5t-43 18.5t-18 43zM146 173q0 -49 28.5 -79t73.5 -30q46 0 76 31t30 80h16q0 -82 -46.5 -138t-119.5 -56q-68 0 -114 52.5t-46 128.5v298h102v-287zM456 0h-102l28 120l-28 10v330h102
v-460z" />
    <glyph glyph-name="uni1EE6" unicode="&#x1ee6;" horiz-adv-x="577" 
d="M314 799.5q0 10.5 -7 17.5t-18 7q-9 0 -17 -7t-11 -22l-61 18q7 35 33.5 53.5t56.5 18.5q36 0 61.5 -24.5t25.5 -60.5q0 -17 -8 -34t-15.5 -26t-23.5 -25t-19 -20l-41 41q14 13 21 20t15 20t8 23.5zM146 654v-429q0 -68 37.5 -105.5t106.5 -37.5q68 0 104 37t36 106v429
h103v-440q0 -100 -68.5 -165t-174.5 -65q-110 0 -178 63.5t-68 166.5v440h102z" />
    <glyph glyph-name="uni1EE7" unicode="&#x1ee7;" horiz-adv-x="500" 
d="M272 616.5q0 10.5 -7 17.5t-18 7q-9 0 -17 -7t-11 -22l-61 18q7 35 33.5 53.5t56.5 18.5q36 0 61.5 -24.5t25.5 -60.5q0 -17 -8 -34t-15.5 -26t-23.5 -25t-19 -20l-41 41q14 13 21 20t15 20t8 23.5zM146 173q0 -49 28.5 -79t73.5 -30q46 0 76 31t30 80h16
q0 -82 -46.5 -138t-119.5 -56q-68 0 -114 52.5t-46 128.5v298h102v-287zM456 0h-102l28 120l-28 10v330h102v-460z" />
    <glyph glyph-name="uni1EE8" unicode="&#x1ee8;" horiz-adv-x="577" 
d="M411 876l-121 -167h-67l92 167h96zM568 792l96 -20q0 -76 -55 -137.5t-125 -61.5l-4 80q37 0 62.5 41.5t25.5 97.5zM146 654v-429q0 -68 37.5 -105.5t106.5 -37.5q68 0 104 37t36 106v429h103v-440q0 -100 -68.5 -165t-174.5 -65q-110 0 -178 63.5t-68 166.5v440h102z
" />
    <glyph glyph-name="uni1EE9" unicode="&#x1ee9;" horiz-adv-x="500" 
d="M363 693l-121 -167h-67l92 167h96zM460 599l96 -20q0 -76 -55 -137.5t-125 -61.5l-4 80q37 0 62.5 41.5t25.5 97.5zM146 173q0 -49 28.5 -79t73.5 -30q46 0 76 31t30 80h16q0 -82 -46.5 -138t-119.5 -56q-68 0 -114 52.5t-46 128.5v298h102v-287zM456 0h-102l28 120
l-28 10v330h102v-460z" />
    <glyph glyph-name="uni1EEA" unicode="&#x1eea;" horiz-adv-x="577" 
d="M147 876h96l92 -167h-67zM568 792l96 -20q0 -76 -55 -137.5t-125 -61.5l-4 80q37 0 62.5 41.5t25.5 97.5zM146 654v-429q0 -68 37.5 -105.5t106.5 -37.5q68 0 104 37t36 106v429h103v-440q0 -100 -68.5 -165t-174.5 -65q-110 0 -178 63.5t-68 166.5v440h102z" />
    <glyph glyph-name="uni1EEB" unicode="&#x1eeb;" horiz-adv-x="500" 
d="M99 693h96l92 -167h-67zM460 599l96 -20q0 -76 -55 -137.5t-125 -61.5l-4 80q37 0 62.5 41.5t25.5 97.5zM146 173q0 -49 28.5 -79t73.5 -30q46 0 76 31t30 80h16q0 -82 -46.5 -138t-119.5 -56q-68 0 -114 52.5t-46 128.5v298h102v-287zM456 0h-102l28 120l-28 10v330h102
v-460z" />
    <glyph glyph-name="uni1EEC" unicode="&#x1eec;" horiz-adv-x="577" 
d="M301 799.5q0 10.5 -7 17.5t-18 7q-9 0 -17 -7t-11 -22l-61 18q7 35 33.5 53.5t56.5 18.5q36 0 61.5 -24.5t25.5 -60.5q0 -17 -8 -34t-15.5 -26t-23.5 -25t-19 -20l-41 41q14 13 21 20t15 20t8 23.5zM568 792l96 -20q0 -76 -55 -137.5t-125 -61.5l-4 80q37 0 62.5 41.5
t25.5 97.5zM146 654v-429q0 -68 37.5 -105.5t106.5 -37.5q68 0 104 37t36 106v429h103v-440q0 -100 -68.5 -165t-174.5 -65q-110 0 -178 63.5t-68 166.5v440h102z" />
    <glyph glyph-name="uni1EED" unicode="&#x1eed;" horiz-adv-x="500" 
d="M254 616.5q0 10.5 -7 17.5t-18 7q-9 0 -17 -7t-11 -22l-61 18q7 35 33.5 53.5t56.5 18.5q36 0 61.5 -24.5t25.5 -60.5q0 -17 -8 -34t-15.5 -26t-23.5 -25t-19 -20l-41 41q14 13 21 20t15 20t8 23.5zM460 599l96 -20q0 -76 -55 -137.5t-125 -61.5l-4 80q37 0 62.5 41.5
t25.5 97.5zM146 173q0 -49 28.5 -79t73.5 -30q46 0 76 31t30 80h16q0 -82 -46.5 -138t-119.5 -56q-68 0 -114 52.5t-46 128.5v298h102v-287zM456 0h-102l28 120l-28 10v330h102v-460z" />
    <glyph glyph-name="uni1EEE" unicode="&#x1eee;" horiz-adv-x="577" 
d="M376 827q0 -65 -27 -65q-12 0 -23 6.5t-15 11t-16 18.5q-10 12 -18 19t-23.5 13.5t-34.5 6.5q-45 0 -69 -30.5t-24 -88.5l59 -8q0 69 32 69q7 0 13.5 -2t13 -7t10 -9t11 -12.5t10.5 -11.5q33 -34 75 -34q86 0 86 117zM568 792l96 -20q0 -76 -55 -137.5t-125 -61.5l-4 80
q37 0 62.5 41.5t25.5 97.5zM146 654v-429q0 -68 37.5 -105.5t106.5 -37.5q68 0 104 37t36 106v429h103v-440q0 -100 -68.5 -165t-174.5 -65q-110 0 -178 63.5t-68 166.5v440h102z" />
    <glyph glyph-name="uni1EEF" unicode="&#x1eef;" horiz-adv-x="500" 
d="M329 644q0 -65 -27 -65q-12 0 -23 6.5t-15 11t-16 18.5q-10 12 -18 19t-23.5 13.5t-34.5 6.5q-45 0 -69 -30.5t-24 -88.5l59 -8q0 69 32 69q7 0 13.5 -2t13 -7t10 -9t11 -12.5t10.5 -11.5q33 -34 75 -34q86 0 86 117zM460 599l96 -20q0 -76 -55 -137.5t-125 -61.5l-4 80
q37 0 62.5 41.5t25.5 97.5zM146 173q0 -49 28.5 -79t73.5 -30q46 0 76 31t30 80h16q0 -82 -46.5 -138t-119.5 -56q-68 0 -114 52.5t-46 128.5v298h102v-287zM456 0h-102l28 120l-28 10v330h102v-460z" />
    <glyph glyph-name="uni1EF0" unicode="&#x1ef0;" horiz-adv-x="577" 
d="M235 -131.5q0 24.5 18 42.5t43 18t42.5 -18t17.5 -42q0 -25 -17.5 -43.5t-42.5 -18.5t-43 18.5t-18 43zM568 792l96 -20q0 -76 -55 -137.5t-125 -61.5l-4 80q37 0 62.5 41.5t25.5 97.5zM146 654v-429q0 -68 37.5 -105.5t106.5 -37.5q68 0 104 37t36 106v429h103v-440
q0 -100 -68.5 -165t-174.5 -65q-110 0 -178 63.5t-68 166.5v440h102z" />
    <glyph glyph-name="uni1EF1" unicode="&#x1ef1;" horiz-adv-x="500" 
d="M197 -131.5q0 24.5 18 42.5t43 18t42.5 -18t17.5 -42q0 -25 -17.5 -43.5t-42.5 -18.5t-43 18.5t-18 43zM460 599l96 -20q0 -76 -55 -137.5t-125 -61.5l-4 80q37 0 62.5 41.5t25.5 97.5zM146 173q0 -49 28.5 -79t73.5 -30q46 0 76 31t30 80h16q0 -82 -46.5 -138
t-119.5 -56q-68 0 -114 52.5t-46 128.5v298h102v-287zM456 0h-102l28 120l-28 10v330h102v-460z" />
    <glyph glyph-name="Ygrave" unicode="&#x1ef2;" horiz-adv-x="612" 
d="M178 876h96l92 -167h-67zM370 263l227 391h-115l-159 -284l-10 -38h-13l-11 38l-158 284h-116l227 -391h14v-263h102v263h12z" />
    <glyph glyph-name="ygrave" unicode="&#x1ef3;" horiz-adv-x="489" 
d="M111 693h96l92 -167h-67zM262 150l101 310h111l-196 -546q-17 -48 -51 -74.5t-75 -26.5h-112l-1 94h73q25 0 38.5 10.5t21.5 38.5l12 44l-169 460h110l102 -310l11 -56h13z" />
    <glyph glyph-name="uni1EF4" unicode="&#x1ef4;" horiz-adv-x="612" 
d="M246 -120.5q0 24.5 18 42.5t43 18t42.5 -18t17.5 -42q0 -25 -17.5 -43.5t-42.5 -18.5t-43 18.5t-18 43zM370 263l227 391h-115l-159 -284l-10 -38h-13l-11 38l-158 284h-116l227 -391h14v-263h102v263h12z" />
    <glyph glyph-name="uni1EF5" unicode="&#x1ef5;" horiz-adv-x="489" 
d="M316 -131.5q0 24.5 18 42.5t43 18t42.5 -18t17.5 -42q0 -25 -17.5 -43.5t-42.5 -18.5t-43 18.5t-18 43zM262 150l101 310h111l-196 -546q-17 -48 -51 -74.5t-75 -26.5h-112l-1 94h73q25 0 38.5 10.5t21.5 38.5l12 44l-169 460h110l102 -310l11 -56h13z" />
    <glyph glyph-name="uni1EF6" unicode="&#x1ef6;" horiz-adv-x="612" 
d="M332 799.5q0 10.5 -7 17.5t-18 7q-9 0 -17 -7t-11 -22l-61 18q7 35 33.5 53.5t56.5 18.5q36 0 61.5 -24.5t25.5 -60.5q0 -17 -8 -34t-15.5 -26t-23.5 -25t-19 -20l-41 41q14 13 21 20t15 20t8 23.5zM370 263l227 391h-115l-159 -284l-10 -38h-13l-11 38l-158 284h-116
l227 -391h14v-263h102v263h12z" />
    <glyph glyph-name="uni1EF7" unicode="&#x1ef7;" horiz-adv-x="489" 
d="M266 616.5q0 10.5 -7 17.5t-18 7q-9 0 -17 -7t-11 -22l-61 18q7 35 33.5 53.5t56.5 18.5q36 0 61.5 -24.5t25.5 -60.5q0 -17 -8 -34t-15.5 -26t-23.5 -25t-19 -20l-41 41q14 13 21 20t15 20t8 23.5zM262 150l101 310h111l-196 -546q-17 -48 -51 -74.5t-75 -26.5h-112
l-1 94h73q25 0 38.5 10.5t21.5 38.5l12 44l-169 460h110l102 -310l11 -56h13z" />
    <glyph glyph-name="uni1EF8" unicode="&#x1ef8;" horiz-adv-x="612" 
d="M407 827q0 -65 -27 -65q-12 0 -23 6.5t-15 11t-16 18.5q-10 12 -18 19t-23.5 13.5t-34.5 6.5q-45 0 -69 -30.5t-24 -88.5l59 -8q0 69 32 69q7 0 13.5 -2t13 -7t10 -9t11 -12.5t10.5 -11.5q33 -34 75 -34q86 0 86 117zM370 263l227 391h-115l-159 -284l-10 -38h-13l-11 38
l-158 284h-116l227 -391h14v-263h102v263h12z" />
    <glyph glyph-name="uni1EF9" unicode="&#x1ef9;" horiz-adv-x="489" 
d="M341 644q0 -65 -27 -65q-12 0 -23 6.5t-15 11t-16 18.5q-10 12 -18 19t-23.5 13.5t-34.5 6.5q-45 0 -69 -30.5t-24 -88.5l59 -8q0 69 32 69q7 0 13.5 -2t13 -7t10 -9t11 -12.5t10.5 -11.5q33 -34 75 -34q86 0 86 117zM262 150l101 310h111l-196 -546q-17 -48 -51 -74.5
t-75 -26.5h-112l-1 94h73q25 0 38.5 10.5t21.5 38.5l12 44l-169 460h110l102 -310l11 -56h13z" />
    <glyph glyph-name="uni2010" unicode="&#x2010;" horiz-adv-x="283" 
d="M16 318h252v-86h-252v86z" />
    <glyph glyph-name="endash" unicode="&#x2013;" horiz-adv-x="496" 
d="M16 318h466v-86h-466v86z" />
    <glyph glyph-name="emdash" unicode="&#x2014;" horiz-adv-x="687" 
d="M16 318h656v-86h-656v86z" />
    <glyph glyph-name="quoteleft" unicode="&#x2018;" horiz-adv-x="188" 
d="M145 527q0 -25 -17 -42t-42 -17q-26 0 -42 26t-16 68q0 77 34 115.5t88 38.5l11 -57q-47 0 -76.5 -22.5t-35.5 -64.5q16 14 37 14q25 0 42 -17t17 -42z" />
    <glyph glyph-name="quoteright" unicode="&#x2019;" horiz-adv-x="188" 
d="M44 658q0 25 16.5 41.5t41.5 16.5q26 0 42.5 -26t16.5 -68q0 -77 -34.5 -115.5t-88.5 -38.5l-10 58q47 0 76.5 22.5t35.5 63.5q-16 -13 -36 -13q-26 0 -43 17t-17 42z" />
    <glyph glyph-name="quotesinglbase" unicode="&#x201a;" horiz-adv-x="193" 
d="M44 29.5q0 24.5 16.5 41.5t41.5 17q26 0 42.5 -26t16.5 -68q0 -77 -34.5 -115.5t-88.5 -38.5l-10 57q47 0 76.5 22.5t35.5 64.5q-15 -13 -36 -13q-26 0 -43 17t-17 41.5z" />
    <glyph glyph-name="quotereversed" unicode="&#x201b;" horiz-adv-x="188" 
d="M145 658q0 -25 -17.5 -42t-42.5 -17q-21 0 -37 13q7 -41 36.5 -63.5t76.5 -22.5l-11 -58q-54 0 -88 38.5t-34 115.5q0 42 16 68t42 26q25 0 42 -17t17 -41z" />
    <glyph glyph-name="quotedblleft" unicode="&#x201c;" horiz-adv-x="322" 
d="M278 527q0 -25 -16.5 -42t-41.5 -17q-26 0 -42.5 26t-16.5 68q0 77 34.5 115.5t88.5 38.5l10 -57q-47 0 -76 -22.5t-36 -64.5q16 14 38 14q25 0 41.5 -17t16.5 -42zM145 527q0 -25 -17 -42t-42 -17q-26 0 -42 26t-16 68q0 77 34 115.5t88 38.5l11 -57q-47 0 -76.5 -22.5
t-35.5 -64.5q16 14 37 14q25 0 42 -17t17 -42z" />
    <glyph glyph-name="quotedblright" unicode="&#x201d;" horiz-adv-x="322" 
d="M44 658q0 25 16.5 41.5t41.5 16.5q26 0 42.5 -26t16.5 -68q0 -77 -34.5 -115.5t-88.5 -38.5l-10 58q47 0 76.5 22.5t35.5 63.5q-16 -13 -36 -13q-26 0 -43 17t-17 42zM177 658q0 24 17 41t42 17q26 0 42 -26t16 -68q0 -77 -34 -115.5t-88 -38.5l-11 58q47 0 76.5 22.5
t36.5 63.5q-16 -13 -38 -13q-25 0 -42 16.5t-17 42.5z" />
    <glyph glyph-name="quotedblbase" unicode="&#x201e;" horiz-adv-x="322" 
d="M177 43.5q0 24.5 17 41.5t42 17q26 0 42 -26t16 -68q0 -77 -34 -115.5t-88 -38.5l-11 57q47 0 76.5 22.5t36.5 64.5q-15 -13 -37 -13q-25 0 -42.5 17t-17.5 41.5zM44 43.5q0 24.5 16.5 41.5t41.5 17q26 0 42.5 -26t16.5 -68q0 -77 -34.5 -115.5t-88.5 -38.5l-10 57
q47 0 76.5 22.5t35.5 64.5q-14 -13 -36 -13q-26 0 -43 17t-17 41.5z" />
    <glyph glyph-name="uni201F" unicode="&#x201f;" horiz-adv-x="322" 
d="M278 657.5q0 -25.5 -17 -42t-42 -16.5q-22 0 -37 13q7 -41 36 -63.5t76 -22.5l-10 -58q-54 0 -88.5 38.5t-34.5 115.5q0 42 16.5 68t42.5 26q25 0 41.5 -16.5t16.5 -42zM145 658q0 -25 -17.5 -42t-42.5 -17q-21 0 -37 13q7 -41 36.5 -63.5t76.5 -22.5l-11 -58
q-54 0 -88 38.5t-34 115.5q0 42 16 68t42 26q25 0 42 -17t17 -41z" />
    <glyph glyph-name="dagger" unicode="&#x2020;" horiz-adv-x="342" 
d="M123 369h-107v91h107v146h97v-146h108v-91h-108v-385h-97v385z" />
    <glyph glyph-name="daggerdbl" unicode="&#x2021;" horiz-adv-x="342" 
d="M123 460v146h97v-146h108v-91h-108v-148h108v-91h-108v-146h-97v146h-107v91h107v148h-107v91h107z" />
    <glyph glyph-name="bullet" unicode="&#x2022;" horiz-adv-x="201" 
d="M101.5 234q29.5 0 51 22.5t21.5 52.5t-21 51.5t-51.5 21.5t-52 -21.5t-21.5 -51.5t22 -52.5t51.5 -22.5z" />
    <glyph glyph-name="uni2023" unicode="&#x2023;" horiz-adv-x="186" 
d="M28 393l132 -84l-132 -86v170z" />
    <glyph glyph-name="ellipsis" unicode="&#x2026;" horiz-adv-x="520" 
d="M36 52q0 25 17.5 42t42 17t41.5 -17t17 -42t-16.5 -41.5t-42 -16.5t-42.5 16.5t-17 41.5zM366 52q0 25 17 42t42 17t42 -17t17 -42t-17 -41.5t-42 -16.5t-42 16.5t-17 41.5zM260 -6q-25 0 -41.5 16.5t-16.5 41.5t17 42t41 17q25 0 42 -17t17 -42t-16.5 -41.5t-42.5 -16.5
z" />
    <glyph glyph-name="perthousand" unicode="&#x2030;" horiz-adv-x="1083" 
d="M828 149q0 -83 75 -83q74 0 74 83q0 81 -74 81q-75 0 -75 -81zM744 149q0 75 43 116.5t116 41.5q68 0 113.5 -42t45.5 -116q0 -76 -43 -118t-116 -42t-116 42t-43 118zM470 149q0 -83 76 -83q74 0 74 83q0 39 -19.5 60t-54.5 21q-37 0 -56.5 -21t-19.5 -60zM386 149
q0 75 43 116.5t117 41.5q68 0 113 -42t45 -116q0 -76 -42.5 -118t-116 -42t-116.5 42t-43 118zM106 508q0 -41 19.5 -62.5t56.5 -21.5q74 0 74 84q0 79 -74 79q-37 0 -56.5 -20t-19.5 -59zM22 508q0 75 43 116t117 41q68 0 113 -41.5t45 -115.5q0 -76 -42.5 -118.5
t-116 -42.5t-116.5 42.5t-43 118.5zM544 654h114l-474 -654h-116z" />
    <glyph glyph-name="minute" unicode="&#x2032;" horiz-adv-x="214" 
d="M102 687h84l-94 -209h-64z" />
    <glyph glyph-name="second" unicode="&#x2033;" horiz-adv-x="328" 
d="M216 687h84l-95 -209h-64zM102 687h84l-94 -209h-64z" />
    <glyph glyph-name="uni2034" unicode="&#x2034;" horiz-adv-x="441" 
d="M102 687h84l-94 -209h-64zM330 687h84l-96 -209h-64zM141 478l75 209h84l-95 -209h-64z" />
    <glyph glyph-name="uni2035" unicode="&#x2035;" horiz-adv-x="214" 
d="M112 687h-84l94 -209h64z" />
    <glyph glyph-name="uni2036" unicode="&#x2036;" horiz-adv-x="328" 
d="M112 687h-84l94 -209h64zM226 687h-85l95 -209h64z" />
    <glyph glyph-name="uni2037" unicode="&#x2037;" horiz-adv-x="441" 
d="M339 687h-85l96 -209h64zM112 687h-84l94 -209h64zM300 478l-74 209h-85l95 -209h64z" />
    <glyph glyph-name="uni2070" unicode="&#x2070;" horiz-adv-x="318" 
d="M88 614q0 -89 72 -89q71 0 71 89q0 90 -71 90q-72 0 -72 -90zM11 614q0 78 37.5 118.5t108.5 40.5q73 0 112.5 -43t39.5 -121q0 -154 -149 -154t-149 159z" />
    <glyph glyph-name="uni2074" unicode="&#x2074;" horiz-adv-x="307" 
d="M162 741l-60 -115l-21 -22l1 -8h216v-66h-287v87l86 158zM258 463h-78v306h78v-306z" />
    <glyph glyph-name="uni2075" unicode="&#x2075;" horiz-adv-x="307" 
d="M11 590h75v38l-12 5l12 30v102l-75 4v-179zM11 769l11 -61h259v61h-270zM86 590q0 16 18.5 26.5t47.5 10.5q68 0 68 -55q0 -49 -62 -49q-57 0 -72 43l-75 -24q15 -38 55 -60.5t94 -22.5q63 0 100.5 31t37.5 82q0 48 -33.5 75.5t-91.5 27.5q-100 0 -100 -83z" />
    <glyph glyph-name="uni2076" unicode="&#x2076;" horiz-adv-x="307" 
d="M254 684q-24 27 -78 27q-72 0 -86 -52l-13 -44l12 -7q-1 -9 -1 -30l-77 9q0 98 37.5 143.5t118.5 45.5q85 0 120 -44zM88 578q0 -26 20.5 -43t51.5 -17q28 0 44 14.5t16 41.5q0 21 -18 33t-50 12q-29 0 -46.5 -11.5t-17.5 -29.5zM11 587l69 3q0 37 27.5 60.5t70.5 23.5
q52 0 86 -29t34 -73q0 -53 -36.5 -85.5t-97.5 -32.5q-67 0 -110 37.5t-43 95.5z" />
    <glyph glyph-name="uni2077" unicode="&#x2077;" horiz-adv-x="307" 
d="M72 463h91l135 207v99h-287v-66h225v-13l-32 -28z" />
    <glyph glyph-name="uni2078" unicode="&#x2078;" horiz-adv-x="307" 
d="M157 457q62 0 101.5 23t39.5 60q0 54 -80 82v5q69 21 69 64q0 37 -36.5 60t-93.5 23q-58 0 -96.5 -23t-38.5 -59q0 -51 77 -75v-5q-45 -13 -66.5 -30t-21.5 -42q0 -37 41 -60t105 -23zM157 710q24 0 38.5 -10t14.5 -26q0 -25 -47 -35q-63 10 -63 35q0 15 16.5 25.5
t40.5 10.5zM221 560q0 -17 -17.5 -28t-46.5 -11q-30 0 -49 11t-19 28q0 28 64 39q68 -11 68 -39z" />
    <glyph glyph-name="uni2079" unicode="&#x2079;" horiz-adv-x="307" 
d="M55 545q24 -27 79 -27q71 0 85 52l13 45l-12 7v28l78 -7q0 -98 -37.5 -143.5t-118.5 -45.5q-41 0 -73 12t-47 32zM220 650q0 27 -19.5 44.5t-50.5 17.5q-29 0 -45.5 -15t-16.5 -41q0 -21 18.5 -33.5t50.5 -12.5q29 0 46 11.5t17 28.5zM298 643l-70 -4q0 -37 -27 -60
t-70 -23q-52 0 -86 29t-34 73q0 53 36.5 85.5t97.5 32.5q67 0 110 -37.5t43 -95.5z" />
    <glyph glyph-name="uni2080" unicode="&#x2080;" horiz-adv-x="318" 
d="M88 38q0 -89 72 -88q71 0 71 88q0 90 -71 90q-72 0 -72 -90zM11 38q0 78 37.5 119t108.5 41q73 0 112.5 -43t39.5 -121q0 -154 -149 -154t-149 158z" />
    <glyph glyph-name="uni2081" unicode="&#x2081;" horiz-adv-x="307" 
d="M58 -39h201v-71h-201v71zM16 127l100 21l8 48l21 -114l-129 -22v67zM200 -100h-76v296h76v-296z" />
    <glyph glyph-name="uni2082" unicode="&#x2082;" horiz-adv-x="307" 
d="M72 -36l46 8l66 20q48 14 77.5 42t29.5 61q0 47 -37.5 76t-97.5 29q-124 0 -145 -109l69 -13q15 58 75 58q26 0 42 -11.5t16 -30.5q0 -35 -75 -54l-127 -26v-124h287v66l-225 -1z" />
    <glyph glyph-name="uni2083" unicode="&#x2083;" horiz-adv-x="307" 
d="M230 42q31 4 49.5 23t18.5 47q0 39 -38 62.5t-100 23.5q-126 0 -149 -97l69 -15q15 48 78 48q29 0 45.5 -10t16.5 -28q0 -12 -11 -20t-30 -8h-54v-56h54q18 0 29.5 -8.5t11.5 -20.5q0 -17 -15.5 -26.5t-42.5 -9.5q-67 -1 -82 55l-69 -15q23 -105 151 -105q61 0 98.5 23
t37.5 62q0 27 -18.5 46.5t-49.5 23.5v5z" />
    <glyph glyph-name="uni2084" unicode="&#x2084;" horiz-adv-x="307" 
d="M162 166l-60 -116l-21 -22l1 -8l216 1v-67h-287v88l86 158zM258 -112h-78v306h78v-306z" />
    <glyph glyph-name="uni2085" unicode="&#x2085;" horiz-adv-x="307" 
d="M11 15h75v39l-12 4l12 30v102l-75 4v-179zM11 194l11 -62h259v62h-270zM86 15q0 16 18 26.5t48 10.5q68 0 68 -54q0 -24 -16 -37t-46 -13q-26 0 -45.5 11.5t-26.5 30.5l-75 -23q15 -38 55 -60.5t94 -22.5q63 0 100.5 31t37.5 81q0 49 -33.5 76.5t-91.5 27.5
q-49 0 -74.5 -21.5t-25.5 -62.5z" />
    <glyph glyph-name="uni2086" unicode="&#x2086;" horiz-adv-x="307" 
d="M254 109q-24 27 -78 27q-72 0 -86 -52l-13 -44l12 -8q-1 -8 -1 -28l-77 8q0 97 37.5 142.5t118.5 45.5q40 0 72.5 -12t47.5 -32zM88 4q0 -27 20.5 -44t51.5 -17q28 0 44 14.5t16 40.5q0 21 -18 33.5t-50 12.5q-29 0 -46.5 -11.5t-17.5 -28.5zM11 12l69 3q0 37 27.5 60
t70.5 23q52 0 86 -29t34 -73q0 -53 -36.5 -85.5t-97.5 -32.5q-67 0 -110 38t-43 96z" />
    <glyph glyph-name="uni2087" unicode="&#x2087;" horiz-adv-x="307" 
d="M72 -112h91l135 206v100h-287v-66h225v-14l-32 -27z" />
    <glyph glyph-name="uni2088" unicode="&#x2088;" horiz-adv-x="307" 
d="M157 -118q62 0 101.5 23t39.5 59q0 55 -80 83v5q69 21 69 64q0 36 -36.5 59.5t-93.5 23.5t-96 -23.5t-39 -59.5q0 -26 18 -43.5t59 -30.5v-5q-88 -25 -88 -73q0 -36 41 -59t105 -23zM157 135q24 0 38.5 -10t14.5 -26q0 -26 -47 -35q-63 9 -63 35q0 15 16.5 25.5
t40.5 10.5zM221 -16q0 -17 -17.5 -27.5t-47 -10.5t-48.5 11t-19 27q0 29 64 40q68 -11 68 -40z" />
    <glyph glyph-name="uni2089" unicode="&#x2089;" horiz-adv-x="307" 
d="M55 -30q23 -26 79 -26q71 0 85 51l13 45l-12 6v30l78 -8q0 -98 -37.5 -144t-118.5 -46q-41 0 -73 12t-47 32zM220 76q0 26 -19.5 43t-50.5 17q-29 0 -45.5 -14.5t-16.5 -41.5q0 -21 18.5 -32.5t50.5 -11.5q29 0 46 11t17 29zM298 68l-70 -4q0 -37 -27 -60t-70 -23
q-52 -1 -86 28.5t-34 72.5q0 54 36.5 86t97.5 32q67 0 110 -37.5t43 -94.5z" />
    <glyph glyph-name="peseta" unicode="&#x20a7;" horiz-adv-x="1336" 
d="M1308 120q0 -63 -48 -102.5t-124 -39.5q-79 0 -135.5 43t-72.5 124l97 15q23 -98 105 -98q33 0 54 17t21 44q0 12 -5.5 21.5t-12.5 15.5t-22 12.5t-25 9.5t-29 9q-9 2 -13 3q-29 9 -48 15.5t-43 19.5t-38.5 27t-24.5 37t-10 51q0 63 45.5 100t122.5 37q161 0 201 -151
l-98 -20q-21 87 -95 87q-34 0 -54 -15t-20 -40q0 -14 7 -25t22 -18.5t28.5 -12.5t36.5 -12q4 -1 11 -3q22 -6 34 -10t32.5 -12t32 -15t26.5 -19t23 -25t13.5 -31t5.5 -39zM740 374v-214q0 -49 12 -61t54 -12h79v-87h-108q-68 0 -103.5 32.5t-35.5 116.5v225h-85v86h85v135
l102 11v-146h145v-86h-145zM44 0v654h247q99 0 161.5 -58.5t62.5 -149.5q0 -89 -62 -144t-162 -55h-145v-247h-102zM146 343h135q63 0 97 27.5t34 78.5q0 53 -34 81t-97 28h-135v-215z" />
    <glyph glyph-name="uni20A8" unicode="&#x20a8;" horiz-adv-x="974" 
d="M946 120q0 -63 -48 -102.5t-124 -39.5q-79 0 -135.5 43t-72.5 124l97 15q23 -98 105 -98q33 0 54 17t21 44q0 12 -5.5 21.5t-12.5 15.5t-22 12.5t-25 9.5t-29 9q-9 2 -13 3q-29 9 -48 15.5t-43 19.5t-38.5 27t-24.5 37t-10 51q0 63 45.5 100t122.5 37q161 0 201 -151
l-98 -20q-21 87 -95 87q-34 0 -54 -15t-20 -40q0 -14 7 -25t22 -18.5t28.5 -12.5t36.5 -12q4 -1 11 -3q22 -6 34 -10t32.5 -12t32 -15t26.5 -19t23 -25t13.5 -31t5.5 -39zM258 276h111l146 -276h-110zM44 0v654h252q98 0 158.5 -60.5t60.5 -153.5q0 -89 -59.5 -143.5
t-159.5 -54.5h-150v-242h-102zM146 338h140q126 0 126 106q0 54 -32 84t-94 30h-140v-220z" />
    <glyph glyph-name="dong" unicode="&#x20ab;" horiz-adv-x="509" 
d="M67 59h387v-67h-387v67zM227 636v-72h282v72h-282zM380 306q0 -67 -35 -103t-97 -36t-96.5 36t-34.5 103t34.5 102.5t96.5 35.5t97 -36t35 -102zM403 306q0 102 -45 157t-126 55q-84 0 -141 -57t-57 -159q0 -97 53.5 -153t139.5 -56q83 0 129.5 55.5t46.5 157.5zM463 687
h-83v-185l31 -119l-31 -10v-136l29 -11l-29 -119h83v580z" />
    <glyph glyph-name="uni2103" unicode="&#x2103;" horiz-adv-x="873" 
d="M842 444l-99 -20q-39 147 -161 147q-84 0 -131 -64.5t-47 -182.5q0 -116 47 -179.5t131 -63.5q63 0 107 42.5t56 119.5l100 -21q-21 -115 -92 -178t-171 -63q-129 0 -205 90.5t-76 252.5q0 164 76 255t205 91q90 0 159.5 -59t100.5 -167zM137.5 559q23.5 0 40 17.5
t16.5 40.5t-16.5 40.5t-40 17.5t-40.5 -17.5t-17 -40.5t17 -40.5t40.5 -17.5zM16 617q0 50 36 85.5t85.5 35.5t85 -35.5t35.5 -85.5q0 -52 -34.5 -86t-86 -34t-86.5 34.5t-35 85.5z" />
    <glyph glyph-name="uni2109" unicode="&#x2109;" horiz-adv-x="807" 
d="M317 654h465v-96h-363v-183h348v-97h-348v-278h-102v654zM137.5 559q23.5 0 40 17.5t16.5 40.5t-16.5 40.5t-40 17.5t-40.5 -17.5t-17 -40.5t17 -40.5t40.5 -17.5zM16 617q0 50 36 85.5t85.5 35.5t85 -35.5t35.5 -85.5q0 -52 -34.5 -86t-86 -34t-86.5 34.5t-35 85.5z" />
    <glyph glyph-name="uni2116" unicode="&#x2116;" horiz-adv-x="957" 
d="M627 308h311v-66h-311v66zM709 508q0 -45 19 -69t54 -24t54.5 24t19.5 69q0 43 -19.5 66.5t-54.5 23.5t-54 -23.5t-19 -66.5zM633 508q0 75 40 116t109 41q64 0 106.5 -41.5t42.5 -115.5q0 -76 -40.5 -118.5t-108.5 -42.5t-108.5 42.5t-40.5 118.5zM459 654h103v-654
h-135l-281 508v-508h-102v654h134l281 -506v506z" />
    <glyph glyph-name="trademark" unicode="&#x2122;" horiz-adv-x="379" 
d="M16 687h130v-38h-46v-147h-38v147h-46v38zM274 564l38 123h52v-185h-38v110l-38 -110h-39l-36 110v-110h-39v185h52l40 -123l4 -17z" />
    <glyph glyph-name="estimated" unicode="&#x212e;" horiz-adv-x="648" 
d="M178 348h436v26q0 101 -77.5 161t-208.5 60q-136 0 -215 -65.5t-79 -178.5q0 -115 79.5 -181t217.5 -66q110 0 185 43t98 119l-22 6q-19 -64 -88 -104.5t-159 -40.5q-156 0 -167 221zM178 373q9 97 46 149t98 52q64 0 106 -56.5t42 -144.5h-292z" />
    <glyph glyph-name="arrowleft" unicode="&#x2190;" horiz-adv-x="576" 
d="M143 243l66 -49v-76l-176 146v71l176 141v-75l-66 -50l-32 -13v-5h432v-72h-432v-5z" />
    <glyph glyph-name="arrowup" unicode="&#x2191;" horiz-adv-x="461" 
d="M177 442l-49 -66h-76l146 176h70l141 -176h-74l-50 66l-13 32h-6v-432h-71v432h-6z" />
    <glyph glyph-name="arrowright" unicode="&#x2192;" horiz-adv-x="576" 
d="M434 351l-66 49v76l175 -146v-71l-175 -141v76l66 49l32 13v5h-433v72h433v5z" />
    <glyph glyph-name="arrowdown" unicode="&#x2193;" horiz-adv-x="461" 
d="M285 152l50 66h74l-146 -176h-70l-141 176h75l50 -66l12 -32h6v432h71v-432h6z" />
    <glyph glyph-name="arrowboth" unicode="&#x2194;" horiz-adv-x="576" 
d="M143 243l66 -49v-76l-176 146v71l176 141v-75l-66 -50l-32 -13v-5h355v5l-32 13l-66 49v76l175 -146v-71l-175 -141v76l66 49l32 13v5h-355v-5z" />
    <glyph glyph-name="arrowupdn" unicode="&#x2195;" horiz-adv-x="461" 
d="M177 442l-49 -66h-76l146 176h70l141 -176h-74l-50 66l-13 32h-6v-354h6l13 32l50 66h74l-146 -176h-70l-141 176h75l50 -66l12 -32h6v354h-6z" />
    <glyph glyph-name="uni2196" unicode="&#x2196;" horiz-adv-x="576" 
d="M148 362l12 -83l-54 -53l-21 229l50 49l224 -25l-53 -52l-82 10l-32 15l-3 -4l305 -306l-50 -50l-306 306l-4 -5z" />
    <glyph glyph-name="uni2197" unicode="&#x2197;" horiz-adv-x="576" 
d="M354 437l-82 -10l-54 52l228 22l50 -50l-25 -225l-53 53l11 83l14 31l-4 5l-306 -306l-50 50l306 306l-4 4z" />
    <glyph glyph-name="uni2198" unicode="&#x2198;" horiz-adv-x="576" 
d="M429 233l-11 81l53 53l22 -227l-51 -50l-224 25l53 52l83 -11l31 -13l4 4l-306 305l50 51l306 -306l4 4z" />
    <glyph glyph-name="uni2199" unicode="&#x2199;" horiz-adv-x="576" 
d="M224 156l81 12l54 -53l-227 -21l-51 49l25 224l54 -53l-12 -81l-14 -32l4 -4l306 306l50 -51l-305 -305l3 -4z" />
    <glyph glyph-name="uni24EA" unicode="&#x24ea;" horiz-adv-x="711" 
d="M253 326q0 -114 102 -114q100 0 100 114q0 116 -100 116q-102 0 -102 -116zM205 326q0 78 37 119t108 41q73 0 113 -42.5t40 -120.5q0 -155 -148 -155q-150 0 -150 158zM34 324q0 155 95 245.5t227 90.5q58 0 115 -22.5t103.5 -64t75.5 -106.5t29 -143
q0 -155 -95.5 -246.5t-227.5 -91.5q-85 0 -157 38.5t-118.5 117t-46.5 182.5zM82 324q0 -135 80 -214t194 -79t194.5 79t80.5 214q0 134 -80.5 213t-194.5 79t-194 -78.5t-80 -213.5z" />
    <glyph glyph-name="uni24F5" unicode="&#x24f5;" horiz-adv-x="711" 
d="M82 324q0 -135 80 -214t194 -79t194.5 79t80.5 214q0 134 -80.5 213t-194.5 79t-194 -78.5t-80 -213.5zM34 324q0 155 95 245.5t227 90.5q58 0 115 -22.5t103.5 -64t75.5 -106.5t29 -143q0 -155 -95.5 -246.5t-227.5 -91.5q-85 0 -157 38.5t-118.5 117t-46.5 182.5z
M225 395l115 22l6 63h48v-260h74v-47h-202v47h80v147l-121 -18v46z" />
    <glyph glyph-name="uni24F6" unicode="&#x24f6;" horiz-adv-x="711" 
d="M256 227l46 11l91 36q106 41 106 102q0 47 -37.5 76t-97.5 29q-123 0 -144 -109l39 -9q20 73 105 73q40 0 64 -17t24 -45q0 -38 -106 -76l-126 -46v-79h287v47l-251 -2v9zM34 324q0 155 95 245.5t227 90.5q58 0 115 -22.5t103.5 -64t75.5 -106.5t29 -143
q0 -155 -95.5 -246.5t-227.5 -91.5q-85 0 -157 38.5t-118.5 117t-46.5 182.5zM82 324q0 -135 80 -214t194 -79t194.5 79t80.5 214q0 134 -80.5 213t-194.5 79t-194 -78.5t-80 -213.5z" />
    <glyph glyph-name="uni24F7" unicode="&#x24f7;" horiz-adv-x="711" 
d="M422 328q36 4 57 22.5t21 45.5q0 39 -38 62.5t-100 23.5q-127 0 -150 -97l41 -9q21 62 108 62q42 0 67 -14t25 -39q0 -17 -13 -27.5t-34 -10.5h-73v-45h73q20 0 33.5 -12t13.5 -29q0 -49 -89 -49q-91 0 -111 70l-41 -10q23 -105 153 -105q61 0 98 22t37 61
q0 27 -21.5 47.5t-56.5 24.5v6zM82 324q0 -135 80 -214t194 -79t194.5 79t80.5 214q0 134 -80.5 213t-194.5 79t-194 -78.5t-80 -213.5zM34 324q0 155 95 245.5t227 90.5q58 0 115 -22.5t103.5 -64t75.5 -106.5t29 -143q0 -155 -95.5 -246.5t-227.5 -91.5q-85 0 -157 38.5
t-118.5 117t-46.5 182.5z" />
    <glyph glyph-name="uni24F8" unicode="&#x24f8;" horiz-adv-x="711" 
d="M82 324q0 -135 80 -214t194 -79t194.5 79t80.5 214q0 134 -80.5 213t-194.5 79t-194 -78.5t-80 -213.5zM34 324q0 155 95 245.5t227 90.5q58 0 115 -22.5t103.5 -64t75.5 -106.5t29 -143q0 -155 -95.5 -246.5t-227.5 -91.5q-85 0 -157 38.5t-118.5 117t-46.5 182.5z
M437 173h-47v87h-179v68l116 153l35 -29l-90 -115l-31 -23l1 -8h148v174h47v-173h61v-47h-61v-87z" />
    <glyph glyph-name="uni24F9" unicode="&#x24f9;" horiz-adv-x="711" 
d="M34 324q0 155 95 245.5t227 90.5q58 0 115 -22.5t103.5 -64t75.5 -106.5t29 -143q0 -155 -95.5 -246.5t-227.5 -91.5q-85 0 -157 38.5t-118.5 117t-46.5 182.5zM82 324q0 -135 80 -214t194 -79t194.5 79t80.5 214q0 134 -80.5 213t-194.5 79t-194 -78.5t-80 -213.5z
M215 477v-178h45q0 22 26.5 36t69.5 14q98 0 98 -70q0 -32 -23 -49.5t-65 -17.5q-39 0 -67.5 14.5t-38.5 38.5l-45 -15q15 -38 55 -60.5t94 -22.5q63 0 100.5 31t37.5 82q0 53 -37.5 83t-102.5 30q-87 0 -108 -55l-6 1l12 33v59h225v46h-270z" />
    <glyph glyph-name="uni24FA" unicode="&#x24fa;" horiz-adv-x="711" 
d="M256 296q0 -38 30 -62t77 -24q40 0 62.5 20t22.5 57q0 27 -26 43t-72 16q-43 0 -68.5 -14t-25.5 -36zM442 412q-16 31 -74 31q-47 0 -71 -14t-34 -44l-16 -59l4 -3q8 30 36.5 48.5t68.5 18.5q61 0 100.5 -30.5t39.5 -76.5q0 -53 -36.5 -85t-97.5 -32q-67 0 -110 37
t-43 95q0 98 37.5 143.5t118.5 45.5q41 0 74 -16t46 -43zM82 324q0 -135 80 -214t194 -79t194.5 79t80.5 214q0 134 -80.5 213t-194.5 79t-194 -78.5t-80 -213.5zM34 324q0 155 95 245.5t227 90.5q58 0 115 -22.5t103.5 -64t75.5 -106.5t29 -143q0 -155 -95.5 -246.5
t-227.5 -91.5q-85 0 -157 38.5t-118.5 117t-46.5 182.5z" />
    <glyph glyph-name="uni24FB" unicode="&#x24fb;" horiz-adv-x="711" 
d="M304 173h57l145 227v80h-288v-47h261l-1 -13l-31 -27zM82 324q0 -135 80 -214t194 -79t194.5 79t80.5 214q0 134 -80.5 213t-194.5 79t-194 -78.5t-80 -213.5zM34 324q0 155 95 245.5t227 90.5q58 0 115 -22.5t103.5 -64t75.5 -106.5t29 -143q0 -155 -95.5 -246.5
t-227.5 -91.5q-85 0 -157 38.5t-118.5 117t-46.5 182.5z" />
    <glyph glyph-name="uni24FC" unicode="&#x24fc;" horiz-adv-x="711" 
d="M356 167q63 0 103 22.5t40 59.5q0 53 -95 79v5q44 12 64 28t20 40q0 37 -37.5 60.5t-94.5 23.5t-95.5 -24t-38.5 -60q0 -24 22 -40t71 -28v-5q-103 -26 -103 -79q0 -37 40 -59.5t104 -22.5zM356 441q37 0 61 -14t24 -35q0 -32 -81 -45q-90 13 -90 45q0 21 24.5 35
t61.5 14zM452 260q0 -22 -26 -35t-70 -13q-43 0 -70 13.5t-27 34.5q0 37 101 52q92 -15 92 -52zM82 324q0 -135 80 -214t194 -79t194.5 79t80.5 214q0 134 -80.5 213t-194.5 79t-194 -78.5t-80 -213.5zM34 324q0 155 95 245.5t227 90.5q58 0 115 -22.5t103.5 -64
t75.5 -106.5t29 -143q0 -155 -95.5 -246.5t-227.5 -91.5q-85 0 -157 38.5t-118.5 117t-46.5 182.5z" />
    <glyph glyph-name="uni24FD" unicode="&#x24fd;" horiz-adv-x="711" 
d="M34 324q0 155 95 245.5t227 90.5q58 0 115 -22.5t103.5 -64t75.5 -106.5t29 -143q0 -155 -95.5 -246.5t-227.5 -91.5q-85 0 -157 38.5t-118.5 117t-46.5 182.5zM82 324q0 -135 80 -214t194 -79t194.5 79t80.5 214q0 134 -80.5 213t-194.5 79t-194 -78.5t-80 -213.5z
M272 239q14 -29 74 -29q47 0 71.5 13t34.5 43l16 60l-5 3q-8 -30 -36.5 -48t-68.5 -18q-61 0 -100.5 30t-39.5 76q0 53 36.5 85.5t97.5 32.5q67 0 110.5 -37t43.5 -95q0 -98 -37.5 -143.5t-119.5 -45.5q-41 0 -74 16t-46 43zM458 356q0 38 -30 62.5t-77 24.5
q-40 0 -62.5 -20.5t-22.5 -57.5q0 -27 26 -42.5t72 -15.5q43 0 68.5 13.5t25.5 35.5z" />
    <glyph glyph-name="uni24FE" unicode="&#x24fe;" horiz-adv-x="711" 
d="M393 326q0 -114 48 -114q47 0 47 114q0 116 -47 116q-48 0 -48 -116zM346 326q0 78 23 119t67 41q47 0 73.5 -42.5t26.5 -120.5q0 -155 -95 -155t-95 158zM82 324q0 -135 80 -214t194 -79t194.5 79t80.5 214q0 134 -80.5 213t-194.5 79t-194 -78.5t-80 -213.5zM34 324
q0 155 95 245.5t227 90.5q58 0 115 -22.5t103.5 -64t75.5 -106.5t29 -143q0 -155 -95.5 -246.5t-227.5 -91.5q-85 0 -157 38.5t-118.5 117t-46.5 182.5zM173 395l72 22l7 63h47v-260h41v-47h-136v47h48v145l-79 -16v46z" />
    <glyph glyph-name="uni24FF" unicode="&#x24ff;" horiz-adv-x="711" 
d="M253 326q0 116 102 116q100 0 100 -116q0 -114 -100 -114q-102 0 -102 114zM205 326q0 -158 150 -158q148 0 148 155q0 78 -40 120.5t-113 42.5q-71 0 -108 -41t-37 -119zM34 324q0 155 95 245.5t227 90.5q58 0 115 -22.5t103.5 -64t75.5 -106.5t29 -143
q0 -155 -95.5 -246.5t-227.5 -91.5q-85 0 -157 38.5t-118.5 117t-46.5 182.5z" />
    <glyph glyph-name="uni2639" unicode="&#x2639;" horiz-adv-x="711" 
d="M298 229q0 26 18.5 44.5t43.5 18.5t43.5 -18.5t18.5 -44.5h-27q0 17 -10 28t-25 11t-25 -11t-10 -28h-27zM433 352q0 20 14.5 34t34.5 14t33.5 -14t13.5 -34t-13.5 -34.5t-33.5 -14.5t-34.5 14.5t-14.5 34.5zM184 352q0 20 14.5 34t34.5 14t34 -14t14 -34t-14 -34.5
t-34 -14.5t-34.5 14.5t-14.5 34.5zM82 324q0 -135 80 -214t194 -79t194.5 79t80.5 214q0 134 -80.5 213t-194.5 79t-194 -78.5t-80 -213.5zM34 324q0 155 95 245.5t227 90.5q58 0 115 -22.5t103.5 -64t75.5 -106.5t29 -143q0 -155 -95.5 -246.5t-227.5 -91.5
q-85 0 -157 38.5t-118.5 117t-46.5 182.5z" />
    <glyph glyph-name="smileface" unicode="&#x263a;" horiz-adv-x="711" 
d="M422 292q0 -26 -18 -44.5t-43 -18.5t-44 18.5t-19 44.5h27q0 -16 10.5 -27.5t25.5 -11.5t24.5 11t9.5 28h27zM433 352q0 20 14.5 34t34.5 14t33.5 -14t13.5 -34t-13.5 -34.5t-33.5 -14.5t-34.5 14.5t-14.5 34.5zM184 352q0 20 14.5 34t34.5 14t34 -14t14 -34t-14 -34.5
t-34 -14.5t-34.5 14.5t-14.5 34.5zM82 324q0 -135 80 -214t194 -79t194.5 79t80.5 214q0 134 -80.5 213t-194.5 79t-194 -78.5t-80 -213.5zM34 324q0 155 95 245.5t227 90.5q58 0 115 -22.5t103.5 -64t75.5 -106.5t29 -143q0 -155 -95.5 -246.5t-227.5 -91.5
q-85 0 -157 38.5t-118.5 117t-46.5 182.5z" />
    <glyph glyph-name="invsmileface" unicode="&#x263b;" horiz-adv-x="711" 
d="M422 292h-27q0 -17 -9.5 -28t-24.5 -11t-25.5 11.5t-10.5 27.5h-27q0 -26 19 -44.5t44 -18.5t43 18.5t18 44.5zM433 352q0 -20 14.5 -34.5t34.5 -14.5t33.5 14.5t13.5 34.5t-13.5 34t-33.5 14t-34.5 -14t-14.5 -34zM184 352q0 -20 14.5 -34.5t34.5 -14.5t34 14.5t14 34.5
t-14 34t-34 14t-34.5 -14t-14.5 -34zM34 324q0 155 95 245.5t227 90.5q58 0 115 -22.5t103.5 -64t75.5 -106.5t29 -143q0 -155 -95.5 -246.5t-227.5 -91.5q-85 0 -157 38.5t-118.5 117t-46.5 182.5z" />
    <glyph glyph-name="uni26AA" unicode="&#x26aa;" horiz-adv-x="711" 
d="M82 324q0 -135 80 -214t194 -79t194.5 79t80.5 214q0 134 -80.5 213t-194.5 79t-194 -78.5t-80 -213.5zM34 324q0 155 95 245.5t227 90.5q58 0 115 -22.5t103.5 -64t75.5 -106.5t29 -143q0 -155 -95.5 -246.5t-227.5 -91.5q-85 0 -157 38.5t-118.5 117t-46.5 182.5z" />
    <glyph glyph-name="uni26AB" unicode="&#x26ab;" horiz-adv-x="711" 
d="M34 324q0 155 95 245.5t227 90.5q58 0 115 -22.5t103.5 -64t75.5 -106.5t29 -143q0 -155 -95.5 -246.5t-227.5 -91.5q-85 0 -157 38.5t-118.5 117t-46.5 182.5z" />
    <glyph glyph-name="uni2776" unicode="&#x2776;" horiz-adv-x="711" 
d="M34 324q0 155 95 245.5t227 90.5q58 0 115 -22.5t103.5 -64t75.5 -106.5t29 -143q0 -155 -95.5 -246.5t-227.5 -91.5q-85 0 -157 38.5t-118.5 117t-46.5 182.5zM225 395v-46l121 18v-147h-80v-47h202v47h-74v260h-48l-6 -63z" />
    <glyph glyph-name="uni2777" unicode="&#x2777;" horiz-adv-x="711" 
d="M256 227l46 11l91 36q106 41 106 102q0 47 -37.5 76t-97.5 29q-123 0 -144 -109l39 -9q20 73 105 73q40 0 64 -17t24 -45q0 -38 -106 -76l-126 -46v-79h287v47l-251 -2v9zM34 324q0 155 95 245.5t227 90.5q58 0 115 -22.5t103.5 -64t75.5 -106.5t29 -143
q0 -155 -95.5 -246.5t-227.5 -91.5q-85 0 -157 38.5t-118.5 117t-46.5 182.5z" />
    <glyph glyph-name="uni2778" unicode="&#x2778;" horiz-adv-x="711" 
d="M422 328q36 4 57 22.5t21 45.5q0 39 -38 62.5t-100 23.5q-127 0 -150 -97l41 -9q21 62 108 62q42 0 67 -14t25 -39q0 -17 -13 -27.5t-34 -10.5h-73v-45h73q20 0 33.5 -12t13.5 -29q0 -49 -89 -49q-91 0 -111 70l-41 -10q23 -105 153 -105q61 0 98 22t37 61
q0 27 -21.5 47.5t-56.5 24.5v6zM34 324q0 155 95 245.5t227 90.5q58 0 115 -22.5t103.5 -64t75.5 -106.5t29 -143q0 -155 -95.5 -246.5t-227.5 -91.5q-85 0 -157 38.5t-118.5 117t-46.5 182.5z" />
    <glyph glyph-name="uni2779" unicode="&#x2779;" horiz-adv-x="711" 
d="M34 324q0 155 95 245.5t227 90.5q58 0 115 -22.5t103.5 -64t75.5 -106.5t29 -143q0 -155 -95.5 -246.5t-227.5 -91.5q-85 0 -157 38.5t-118.5 117t-46.5 182.5zM437 173v87h61v47h-61v173h-47v-174h-148l-1 8l31 23l90 115l-35 29l-116 -153v-68h179v-87h47z" />
    <glyph glyph-name="uni277A" unicode="&#x277a;" horiz-adv-x="711" 
d="M34 324q0 155 95 245.5t227 90.5q58 0 115 -22.5t103.5 -64t75.5 -106.5t29 -143q0 -155 -95.5 -246.5t-227.5 -91.5q-85 0 -157 38.5t-118.5 117t-46.5 182.5zM215 477v-178h45q0 22 26.5 36t69.5 14q98 0 98 -70q0 -32 -23 -49.5t-65 -17.5q-39 0 -67.5 14.5
t-38.5 38.5l-45 -15q15 -38 55 -60.5t94 -22.5q63 0 100.5 31t37.5 82q0 53 -37.5 83t-102.5 30q-87 0 -108 -55l-6 1l12 33v59h225v46h-270z" />
    <glyph glyph-name="uni277B" unicode="&#x277b;" horiz-adv-x="711" 
d="M256 296q0 22 25.5 36t68.5 14q46 0 72 -16t26 -43q0 -37 -22.5 -57t-62.5 -20q-47 0 -77 24t-30 62zM442 412l43 16q-13 27 -46 43t-74 16q-81 0 -118.5 -45.5t-37.5 -143.5q0 -58 43 -95t110 -37q61 0 97.5 32t36.5 85q0 46 -39.5 76.5t-100.5 30.5q-40 0 -68.5 -18.5
t-36.5 -48.5l-4 3l16 59q10 30 34 44t71 14q58 0 74 -31zM34 324q0 155 95 245.5t227 90.5q58 0 115 -22.5t103.5 -64t75.5 -106.5t29 -143q0 -155 -95.5 -246.5t-227.5 -91.5q-85 0 -157 38.5t-118.5 117t-46.5 182.5z" />
    <glyph glyph-name="uni277C" unicode="&#x277c;" horiz-adv-x="711" 
d="M304 173h57l145 227v80h-288v-47h261l-1 -13l-31 -27zM34 324q0 155 95 245.5t227 90.5q58 0 115 -22.5t103.5 -64t75.5 -106.5t29 -143q0 -155 -95.5 -246.5t-227.5 -91.5q-85 0 -157 38.5t-118.5 117t-46.5 182.5z" />
    <glyph glyph-name="uni277D" unicode="&#x277d;" horiz-adv-x="711" 
d="M356 167q63 0 103 22.5t40 59.5q0 53 -95 79v5q44 12 64 28t20 40q0 37 -37.5 60.5t-94.5 23.5t-95.5 -24t-38.5 -60q0 -24 22 -40t71 -28v-5q-103 -26 -103 -79q0 -37 40 -59.5t104 -22.5zM356 441q37 0 61 -14t24 -35q0 -32 -81 -45q-90 13 -90 45q0 21 24.5 35
t61.5 14zM452 260q0 -22 -26 -35t-70 -13q-43 0 -70 13.5t-27 34.5q0 37 101 52q92 -15 92 -52zM34 324q0 155 95 245.5t227 90.5q58 0 115 -22.5t103.5 -64t75.5 -106.5t29 -143q0 -155 -95.5 -246.5t-227.5 -91.5q-85 0 -157 38.5t-118.5 117t-46.5 182.5z" />
    <glyph glyph-name="uni277E" unicode="&#x277e;" horiz-adv-x="711" 
d="M34 324q0 155 95 245.5t227 90.5q58 0 115 -22.5t103.5 -64t75.5 -106.5t29 -143q0 -155 -95.5 -246.5t-227.5 -91.5q-85 0 -157 38.5t-118.5 117t-46.5 182.5zM272 239l-43 -14q13 -27 46 -43t74 -16q82 0 119.5 45.5t37.5 143.5q0 58 -43.5 95t-110.5 37
q-61 0 -97.5 -32.5t-36.5 -85.5q0 -46 39.5 -76t100.5 -30q40 0 68.5 18t36.5 48l5 -3l-16 -60q-10 -30 -34.5 -43t-71.5 -13q-60 0 -74 29zM458 356q0 -22 -25.5 -35.5t-68.5 -13.5q-46 0 -72 15.5t-26 42.5q0 37 22.5 57.5t62.5 20.5q47 0 77 -24.5t30 -62.5z" />
    <glyph glyph-name="uni277F" unicode="&#x277f;" horiz-adv-x="711" 
d="M393 326q0 116 48 116q47 0 47 -116q0 -114 -47 -114q-48 0 -48 114zM346 326q0 -158 95 -158t95 155q0 78 -26.5 120.5t-73.5 42.5q-44 0 -67 -41t-23 -119zM34 324q0 155 95 245.5t227 90.5q58 0 115 -22.5t103.5 -64t75.5 -106.5t29 -143q0 -155 -95.5 -246.5
t-227.5 -91.5q-85 0 -157 38.5t-118.5 117t-46.5 182.5zM173 395v-46l79 16v-145h-48v-47h136v47h-41v260h-47l-7 -63z" />
    <glyph glyph-name="uF0000" unicode="&#xf0000;" horiz-adv-x="322" 
d="M476 801l-121 -167h-67l92 167h96zM147 611l-68 -82h-88l114 136h114l114 -136h-88l-68 82l-9 21h-12z" />
    <glyph glyph-name="uF0001" unicode="&#xf0001;" horiz-adv-x="322" 
d="M208 801h96l92 -167h-67zM147 611l-68 -82h-88l114 136h114l114 -136h-88l-68 82l-9 21h-12z" />
    <glyph glyph-name="uF0002" unicode="&#xf0002;" horiz-adv-x="322" 
d="M343 728.5q0 10.5 -7 17.5t-18 7q-9 0 -17 -7t-11 -22l-61 18q7 35 33.5 53.5t56.5 18.5q36 0 61.5 -24.5t25.5 -60.5q0 -17 -8 -34t-15.5 -26t-23.5 -25t-19 -20l-41 41q14 13 21 20t15 20t8 23.5zM147 611l-68 -82h-88l114 136h114l114 -136h-88l-68 82l-9 21h-12z" />
    <glyph glyph-name="uF0003" unicode="&#xf0003;" horiz-adv-x="530" 
d="M380 231q0 77 -32.5 119t-89.5 42q-58 0 -90 -41.5t-32 -119t32 -119t90 -41.5q57 0 89.5 41.5t32.5 118.5zM402 231q0 -120 -47.5 -185t-133 -65t-139.5 66.5t-54 180.5q0 119 57 186t141 67q83 0 129.5 -65t46.5 -185zM488 460v-460h-108l28 119l-28 11v200l30 11
l-30 119h108z" />
    <glyph glyph-name="a.ss01" horiz-adv-x="530" 
d="M380 231q0 77 -32.5 119t-89.5 42q-58 0 -90 -41.5t-32 -119t32 -119t90 -41.5q57 0 89.5 41.5t32.5 118.5zM402 231q0 -120 -47.5 -185t-133 -65t-139.5 66.5t-54 180.5q0 119 57 186t141 67q83 0 129.5 -65t46.5 -185zM488 460v-460h-108l28 119l-28 11v200l30 11
l-30 119h108z" />
    <glyph glyph-name="g.ss02" horiz-adv-x="520" 
d="M386 333l20 5l-32 122h104v-451q0 -103 -57 -158t-153 -55q-93 0 -152.5 51t-73.5 131l100 22q6 -46 38.5 -75t83.5 -29q59 0 84.5 30.5t25.5 95.5l32 122l-18 6q-16 -65 -57.5 -100t-104.5 -35q-84 0 -141 62t-57 173q0 106 54 167.5t140 61.5q63 0 105.5 -37.5
t58.5 -108.5zM374 246q0 66 -32 102.5t-90 36.5q-57 0 -88.5 -36.5t-31.5 -102.5t31.5 -101t88.5 -35q58 0 90 35t32 101z" />
    <glyph glyph-name="zero.slsh" horiz-adv-x="526" 
d="M415 537l33 -76l-349 -359l-33 76zM132 324q0 -130 33.5 -189t98 -59t98.5 59t34 189q0 129 -34 188t-98.5 59t-98 -59t-33.5 -188zM28 324q0 175 62.5 258t173.5 83q49 0 90.5 -20t74.5 -59.5t51 -106.5t18 -155q0 -175 -62 -259t-172.5 -84t-173 84t-62.5 259z" />
    <glyph glyph-name="parenleft.case" horiz-adv-x="312" 
d="M238 -72q-95 53 -152.5 155t-57.5 250t57.5 249t152.5 154l46 -76q-70 -38 -119 -125.5t-49 -201.5t49 -202.5t119 -126.5z" />
    <glyph glyph-name="parenright.case" horiz-adv-x="312" 
d="M74 736q96 -53 153 -155t57 -250t-57 -249t-153 -154l-46 76q71 38 119.5 125.5t48.5 201.5t-48.5 202.5t-119.5 126.5z" />
    <glyph glyph-name="braceleft.case" horiz-adv-x="314" 
d="M256 737l30 -76q-36 -27 -57 -63t-21 -92q0 -68 -23.5 -113.5t-62.5 -56.5v-12q39 -11 62.5 -56t23.5 -113q0 -95 78 -151l-30 -75q-65 27 -100.5 86t-35.5 149q0 56 -16.5 89.5t-43.5 33.5h-32v87h32q27 0 43.5 33.5t16.5 89.5q0 180 136 240z" />
    <glyph glyph-name="braceright.case" horiz-adv-x="314" 
d="M60 -71l-32 75q37 28 57.5 64t20.5 92q0 68 24 113.5t64 56.5v12q-40 11 -64 56t-24 113q0 94 -78 151l32 75q64 -27 99 -86t35 -149q0 -56 17 -89.5t45 -33.5h30v-87h-30q-28 0 -45 -33.5t-17 -89.5q0 -180 -134 -240z" />
    <glyph glyph-name="bracketleft.case" horiz-adv-x="318" 
d="M44 728v-784h246v87h-159v611h159v86h-246z" />
    <glyph glyph-name="bracketright.case" horiz-adv-x="318" 
d="M275 -56v784h-247v-86h160v-612h-160v-86h247z" />
    <glyph glyph-name="hyphen.case" horiz-adv-x="382" 
d="M16 370h352v-86h-352v86z" />
    <glyph glyph-name="colon.case" horiz-adv-x="190" 
d="M36 430q0 25 17.5 42t42 17t41.5 -17t17 -42t-17 -42t-41.5 -17t-42 17t-17.5 42zM36 192q0 25 17.5 42t42 17t41.5 -17t17 -42t-16.5 -41.5t-42 -16.5t-42.5 16.5t-17 41.5z" />
    <glyph glyph-name="semicolon.case" horiz-adv-x="190" 
d="M37 430q0 25 17 42t42 17t42 -17t17 -42t-17 -42t-42 -17t-42 17t-17 42zM36 193q0 25 17.5 42t42 17t41.5 -17t17 -42q0 -101 -35 -145t-93 -44l-10 57q49 0 79 23t37 66q-13 -15 -36 -15q-26 0 -43 16.5t-17 41.5z" />
    <glyph glyph-name="less.case" horiz-adv-x="411" 
d="M154 302l224 -77v-89l-344 125v113l344 126v-90l-224 -76l-54 -10v-13z" />
    <glyph glyph-name="greater.case" horiz-adv-x="411" 
d="M258 334l-224 76v90l344 -126v-112l-344 -126v90l224 76l55 10v12z" />
    <glyph glyph-name="equal.case" horiz-adv-x="382" 
d="M16 287h352v-86h-352v86zM16 453h352v-86h-352v86z" />
    <glyph glyph-name="G.ss02" horiz-adv-x="600" 
d="M242 337v-96h224q0 -71 -44.5 -115.5t-115.5 -44.5q-81 0 -127.5 67t-46.5 182q0 113 46 177t128 64q125 0 164 -147l100 20q-31 108 -101.5 167t-168.5 59q-125 0 -198.5 -93t-73.5 -252t76.5 -251.5t207.5 -92.5q120 0 190 77t70 208v71h-330z" />
    <glyph glyph-name="guillemotleft.case" horiz-adv-x="535" 
d="M372 302l130 -78v-92l-225 129v113l225 122v-92l-130 -70l-44 -10v-13zM128 302l131 -78v-92l-225 129v113l225 122v-92l-131 -70l-44 -10v-13z" />
    <glyph glyph-name="guillemotright.case" horiz-adv-x="535" 
d="M166 326l-132 78v92l225 -130v-112l-225 -122v92l132 70l43 10v12zM408 326l-131 78v92l225 -130v-112l-225 -122v92l131 70l44 10v12z" />
    <glyph glyph-name="I.ss03" horiz-adv-x="475" 
d="M26 654h424v-96h-162v-462h162v-96h-424v96h160v462h-160v96z" />
    <glyph glyph-name="l.ss03" horiz-adv-x="227" 
d="M146 687v-539q0 -21 9.5 -35t22.5 -14h32v-99h-51q-52 0 -83.5 36.5t-31.5 98.5v552h102z" />
    <glyph glyph-name="zero.dnom" horiz-adv-x="329" 
d="M94 148q0 -90 72 -90q70 0 70 90t-70 90q-72 0 -72 -90zM16 147q0 78 37.5 119t108.5 41q72 0 112 -43t40 -121q0 -76 -37.5 -115t-110.5 -39q-74 0 -112 40t-38 118z" />
    <glyph glyph-name="one.dnom" horiz-adv-x="307" 
d="M58 70h201v-71h-201v71zM16 236l100 22l8 48l21 -114l-129 -22v66zM200 10h-76v296h76v-296z" />
    <glyph glyph-name="two.dnom" horiz-adv-x="307" 
d="M72 73l46 7l66 22q48 13 77.5 41t29.5 61q0 47 -37.5 76.5t-97.5 29.5q-124 0 -145 -110l69 -14q15 59 75 59q26 0 42 -11.5t16 -31.5q0 -34 -75 -53l-127 -27v-123h287v67l-225 -2z" />
    <glyph glyph-name="three.dnom" horiz-adv-x="323" 
d="M238 151q32 4 50 23t18 47q0 39 -38 62.5t-100 23.5q-126 0 -149 -97l69 -15q16 47 78 47q29 0 45.5 -9.5t16.5 -27.5q0 -12 -11 -20t-30 -8h-53v-57h53q18 0 29.5 -8t11.5 -20q0 -17 -15.5 -26.5t-42.5 -9.5q-67 0 -82 54l-69 -14q23 -104 151 -104q62 0 99 22.5
t37 61.5q0 27 -18 46.5t-50 23.5v5z" />
    <glyph glyph-name="four.dnom" horiz-adv-x="307" 
d="M162 275l-60 -115l-21 -22l1 -8h216v-66h-287v87l86 157zM258 -4h-78v307h78v-307z" />
    <glyph glyph-name="five.dnom" horiz-adv-x="323" 
d="M19 124h75v38l-12 4l12 30v102l-75 5v-179zM19 303l11 -61h259v61h-270zM94 124q0 16 18 26t48 10q68 0 68 -53q0 -24 -16 -37t-45 -13q-27 0 -46.5 11.5t-26.5 31.5l-75 -24q15 -38 55 -61t94 -23q63 0 100.5 31.5t37.5 82.5q0 48 -33.5 75t-91.5 27q-49 0 -74.5 -21
t-25.5 -61z" />
    <glyph glyph-name="six.dnom" horiz-adv-x="323" 
d="M262 218q-24 27 -78 27q-72 0 -86 -53l-13 -44l13 -6q-2 -9 -2 -30l-77 8q0 98 37.5 144t119.5 46q40 0 72 -12.5t47 -31.5zM96 112q0 -26 20.5 -43t51.5 -17q28 0 44 14.5t16 40.5q0 21 -18 33t-50 12q-29 0 -46.5 -11t-17.5 -29zM19 120l69 4q0 37 27.5 60.5t70.5 23.5
q52 0 86 -29.5t34 -72.5q0 -54 -36.5 -86t-97.5 -32q-67 0 -110 37.5t-43 94.5z" />
    <glyph glyph-name="seven.dnom" horiz-adv-x="307" 
d="M72 -4h91l135 208v99h-287v-67h225v-12l-32 -28z" />
    <glyph glyph-name="eight.dnom" horiz-adv-x="323" 
d="M164 -10q63 0 102.5 23t39.5 60q0 55 -80 83v5q37 11 53 26t16 37q0 37 -36.5 60.5t-94 23.5t-96 -23.5t-38.5 -59.5q0 -26 18 -43.5t59 -30.5v-5q-88 -25 -88 -73q0 -37 40.5 -60t104.5 -23zM164 244q24 0 39 -10t15 -26q0 -26 -46 -36q-64 10 -64 36q0 15 16 25.5
t40 10.5zM229 93q0 -17 -17.5 -28t-47 -11t-48 11t-18.5 28q0 29 64 40q67 -11 67 -40z" />
    <glyph glyph-name="nine.dnom" horiz-adv-x="323" 
d="M63 78q23 -26 79 -26q71 0 85 52l13 44l-12 7v29l78 -8q0 -97 -37.5 -142.5t-118.5 -45.5q-40 0 -72.5 11.5t-47.5 31.5zM228 184q0 27 -19.5 44.5t-50.5 17.5q-29 0 -45 -15t-16 -41q0 -22 18 -34t50 -12q29 0 46 11.5t17 28.5zM306 176l-70 -3q0 -37 -27 -60t-70 -23
q-52 0 -86 29t-34 73q0 53 36.5 85.5t97.5 32.5q67 0 110 -38t43 -96z" />
    <glyph glyph-name="zero.numr" horiz-adv-x="329" 
d="M94 505q0 -89 72 -89q70 0 70 89q0 90 -70 90q-72 0 -72 -90zM16 505q0 78 37.5 118.5t108.5 40.5q72 0 112 -43t40 -121q0 -76 -37.5 -115t-110.5 -39q-74 0 -112 40.5t-38 118.5z" />
    <glyph glyph-name="one.numr" horiz-adv-x="307" 
d="M58 424h201v-70h-201v70zM16 591l100 21l8 48l21 -114l-129 -22v67zM200 364h-76v296h76v-296z" />
    <glyph glyph-name="two.numr" horiz-adv-x="307" 
d="M72 430l46 8l66 20q48 14 77.5 42t29.5 61q0 47 -37.5 76.5t-97.5 29.5q-124 0 -145 -110l69 -13q15 58 75 58q26 0 42 -11.5t16 -30.5q0 -35 -75 -54l-127 -26v-124h287v66h-225z" />
    <glyph glyph-name="three.numr" horiz-adv-x="323" 
d="M238 508q32 4 50 23t18 47q0 39 -38 62.5t-100 23.5q-126 0 -149 -97l69 -15q16 48 78 48q29 0 45.5 -10t16.5 -28q0 -12 -11 -20t-30 -8h-53v-56h53q18 0 29.5 -8.5t11.5 -21.5q0 -35 -58 -35q-67 0 -82 55l-69 -15q23 -104 151 -104q62 0 99 22.5t37 60.5
q0 28 -18 47.5t-50 23.5v5z" />
    <glyph glyph-name="four.numr" horiz-adv-x="307" 
d="M162 632l-60 -115l-21 -22l1 -9l216 1v-66h-287v87l86 158zM258 354h-78v306h78v-306z" />
    <glyph glyph-name="five.numr" horiz-adv-x="323" 
d="M19 481h75v39l-12 4l12 30v102l-75 4v-179zM19 660l11 -61h259v61h-270zM94 481q0 16 18 26.5t48 10.5q68 0 68 -54q0 -23 -16 -36.5t-45 -13.5q-58 0 -73 43l-75 -24q15 -38 55 -60.5t94 -22.5q63 0 100.5 31t37.5 82q0 48 -33.5 75.5t-91.5 27.5q-100 0 -100 -83z" />
    <glyph glyph-name="six.numr" horiz-adv-x="323" 
d="M262 576q-24 26 -78 26q-72 0 -86 -52l-13 -44l13 -7q-2 -9 -2 -29l-77 8q0 98 37.5 143.5t119.5 45.5q84 0 119 -44zM96 470q0 -27 20.5 -44t51.5 -17q28 0 44 14.5t16 40.5q0 22 -18 34t-50 12q-29 0 -46.5 -11.5t-17.5 -28.5zM19 478l69 3q0 37 27.5 60.5t70.5 23.5
q52 0 86 -29t34 -73q0 -53 -36.5 -85.5t-97.5 -32.5q-67 0 -110 37.5t-43 95.5z" />
    <glyph glyph-name="seven.numr" horiz-adv-x="307" 
d="M72 354h91l135 207v99h-287v-66h225v-13l-32 -28z" />
    <glyph glyph-name="eight.numr" horiz-adv-x="323" 
d="M164 348q63 0 102.5 23t39.5 59q0 55 -80 83v5q37 11 53 26.5t16 37.5q0 37 -36.5 60t-94 23t-96 -23.5t-38.5 -59.5q0 -50 77 -74v-5q-88 -25 -88 -73q0 -36 40.5 -59t104.5 -23zM164 601q24 0 39 -10t15 -26q0 -25 -46 -35q-64 10 -64 35q0 15 16 25.5t40 10.5z
M229 450q0 -17 -17.5 -27.5t-47 -10.5t-48 11t-18.5 27q0 29 64 40q67 -11 67 -40z" />
    </font>
</defs>
</svg>
