<?xml version="1.0" standalone="no"?>
<!DOCTYPE svg PUBLIC "-//W3C//DTD SVG 1.1//EN" "http://www.w3.org/Graphics/SVG/1.1/DTD/svg11.dtd" >
<svg xmlns="http://www.w3.org/2000/svg" xmlns:xlink="http://www.w3.org/1999/xlink" version="1.1">
<metadata>
Created by FontForge 20201107 at Fri Aug 26 06:25:36 2022
 By 
Copyright (c) 2022, RandomMaerks (Bao Nguyen) || For more information, send me an email at: rmforbusiness@gmail.com
</metadata>
<defs>
<font id="RG-SpaciousBlackItalic" horiz-adv-x="603" >
  <font-face 
    font-family="Random Grotesque Spacious Black"
    font-weight="900"
    font-style="italic"
    font-stretch="expanded"
    units-per-em="1000"
    panose-1="2 0 10 3 0 0 0 0 0 0"
    ascent="800"
    descent="-200"
    x-height="460"
    cap-height="654"
    bbox="-137 -358 1748.08 1050"
    underline-thickness="50"
    underline-position="-100"
    unicode-range="U+0020-F0003"
  />
<missing-glyph horiz-adv-x="364" 
d="M33 0v666h265v-666h-265zM66 33h199v600h-199v-600z" />
    <glyph glyph-name="f_i" unicode="fi" horiz-adv-x="690" 
d="M586 588q6 36 36.5 62t66.5 26t57.5 -26t15.5 -62t-37 -62.5t-67 -26.5t-57 26.5t-15 62.5zM574 460h157l-81 -460h-157zM283 0h-157l58 334h-110l23 126h110l15 89q14 76 67.5 107t164.5 31h108l-22 -126h-99q-59 0 -66 -41l-11 -60h210l-22 -126h-210z" />
    <glyph glyph-name="f_f" unicode="ff" horiz-adv-x="872" 
d="M283 0h-157l58 334h-110l23 126h110l15 89q14 76 67.5 107t164.5 31h108l-22 -126h-99q-59 0 -66 -41l-11 -60h169l-23 -126h-168zM686 0h-158l59 334h-77l23 126h76l16 89q13 76 67 107t165 31h108l-22 -126h-100q-58 0 -66 -41l-10 -60h168l-22 -126h-169z" />
    <glyph glyph-name="f_l" unicode="fl" horiz-adv-x="711" 
d="M283 0h-157l58 334h-110l23 126h110l15 89q14 76 67.5 107t164.5 31h334l-32 -126h-315q-59 0 -66 -41l-11 -60h169l-23 -126h-168zM629 677l159 10l-121 -687h-157z" />
    <glyph glyph-name=".notdef" horiz-adv-x="364" 
d="M33 0v666h265v-666h-265zM66 33h199v600h-199v-600z" />
    <glyph glyph-name=".null" horiz-adv-x="0" 
 />
    <glyph glyph-name="nonmarkingreturn" horiz-adv-x="333" 
 />
    <glyph glyph-name="space" unicode=" " horiz-adv-x="292" 
 />
    <glyph glyph-name="exclam" unicode="!" horiz-adv-x="224" 
d="M121 420l41 234h128l-41 -234l-67 -258h-86zM41 52q6 34 32.5 56.5t60.5 22.5t52.5 -22.5t12.5 -56.5t-32.5 -56t-60.5 -22t-52.5 22t-12.5 56z" />
    <glyph glyph-name="quotedbl" unicode="&#x22;" horiz-adv-x="321" 
d="M301 687h130l-113 -219h-64zM145 687h131l-114 -219h-64z" />
    <glyph glyph-name="numbersign" unicode="#" horiz-adv-x="717" 
d="M82 284h599l-22 -126h-599zM182 500h589l-22 -126h-589zM628 654h161l-322 -654h-162zM366 654h161l-323 -654h-161z" />
    <glyph glyph-name="dollar" unicode="$" horiz-adv-x="513" 
d="M354 687l-121 -687h48l121 687h-48zM538 230q8 44 -6.5 77.5t-45.5 53t-67 30.5t-80 16q-56 6 -86.5 15t-27.5 26q3 20 34 32t79 12q92 0 106 -75l127 28q-24 151 -226 151q-101 0 -167.5 -38.5t-77.5 -103.5q-7 -39 6 -69.5t42 -49t62.5 -30t75.5 -18.5q30 -5 49 -9
t39.5 -10.5t29 -16.5t6.5 -23q-3 -18 -34.5 -29.5t-78.5 -11.5q-49 0 -78 22t-35 64l-125 -18q4 -86 66.5 -129t162.5 -43t169.5 41t80.5 106z" />
    <glyph glyph-name="percent" unicode="%" horiz-adv-x="890" 
d="M630 149q-4 -26 12 -39.5t50 -13.5q70 0 79 53q5 25 -10.5 38t-50.5 13q-71 0 -80 -51zM510 149q14 75 73 116.5t146 41.5q82 0 128.5 -42t32.5 -116q-13 -76 -71 -118t-145.5 -42t-132 42t-31.5 118zM233 508q-5 -27 11 -40.5t50 -13.5q70 0 80 54q4 24 -11.5 36.5
t-50.5 12.5q-71 0 -79 -49zM114 508q13 75 71.5 116t145.5 41q82 0 129 -41.5t34 -115.5q-14 -76 -72.5 -118.5t-146 -42.5t-131.5 42.5t-30 118.5zM713 654h170l-591 -654h-170z" />
    <glyph glyph-name="ampersand" unicode="&#x26;" horiz-adv-x="708" 
d="M448 80q-27 -41 -86 -71t-115 -30q-102 0 -156 47t-40 125q20 113 167 181l2 13q-88 76 -73 167q13 70 88.5 114t189.5 44q113 0 176 -44.5t66 -127.5l-157 -29q-6 67 -101 67q-42 0 -68 -10.5t-29 -28.5q-2 -12 3 -23.5t23 -33.5l90 -109l57 -92h15q59 59 93 140
l139 -30q-43 -113 -145 -196l95 -153h-168l-50 80h-16zM370 150l-73 83l-53 -33q-30 -21 -35 -48q-3 -18 14 -28.5t49 -10.5q55 0 98 37z" />
    <glyph glyph-name="quotesingle" unicode="'" horiz-adv-x="173" 
d="M145 687h131l-114 -219h-64z" />
    <glyph glyph-name="parenleft" unicode="(" horiz-adv-x="413" 
d="M303 -129q-132 42 -194 149t-35 261t127 260t247 148l40 -116q-106 -23 -186.5 -104t-99.5 -188t33 -189t150 -105z" />
    <glyph glyph-name="parenright" unicode=")" horiz-adv-x="413" 
d="M208 689q132 -42 194.5 -149t35.5 -261q-28 -154 -127.5 -260t-246.5 -148l-41 116q106 23 187 104t100 188q18 107 -34 189t-150 105z" />
    <glyph glyph-name="asterisk" unicode="*" horiz-adv-x="301" 
d="M233 730h91l-49 -92l17 -9l75 73l33 -78l-97 -20l-3 -17l90 -20l-59 -78l-52 71l-19 -9l18 -91h-91l48 91l-17 9l-75 -72l-33 78l99 21l3 17l-92 19l59 78l52 -72l19 9z" />
    <glyph glyph-name="plus" unicode="+" horiz-adv-x="510" 
d="M377 338h174l-22 -126h-174l-24 -133h-126l24 133h-176l22 126h176l23 133h126z" />
    <glyph glyph-name="comma" unicode="," horiz-adv-x="220" 
d="M43 72q6 34 33 56.5t60.5 22.5t52 -22.5t12.5 -56.5q-11 -65 -35 -112t-57 -72.5t-69.5 -37.5t-78.5 -12l4 82q156 0 194 94q-20 -20 -50 -20q-34 0 -53 22t-13 56z" />
    <glyph glyph-name="hyphen" unicode="-" horiz-adv-x="510" 
d="M75 338h476l-22 -126h-476z" />
    <glyph glyph-name="period" unicode="." horiz-adv-x="224" 
d="M44.5 72q5.5 34 32.5 56.5t60.5 22.5t52 -22.5t13 -56.5t-32 -56t-60.5 -22t-52.5 22t-13 56z" />
    <glyph glyph-name="slash" unicode="/" horiz-adv-x="451" 
d="M371 654h162l-340 -654h-162z" />
    <glyph glyph-name="zero" unicode="0" horiz-adv-x="624" 
d="M239 324q-35 -203 94 -203t164 203q19 105 -5.5 153.5t-87.5 48.5t-104.5 -48.5t-60.5 -153.5zM81 324q32 177 122.5 261.5t225.5 84.5q61 0 108 -19.5t80.5 -61.5t43 -107.5t-5.5 -157.5q-31 -177 -122 -262.5t-226 -85.5t-196 85.5t-30 262.5z" />
    <glyph glyph-name="one" unicode="1" horiz-adv-x="425" 
d="M383 0h-157l75 426l-214 -19l26 146l212 22l24 79h150z" />
    <glyph glyph-name="two" unicode="2" horiz-adv-x="588" 
d="M216 154l61 21l98 36q118 49 188 118.5t82 138.5q16 95 -47 153.5t-182 58.5q-232 0 -312 -205l145 -30q40 91 141 91q49 0 75.5 -19t20.5 -51q-6 -35 -46.5 -72t-109.5 -65l-272 -110l-38 -219h547l24 137h-377z" />
    <glyph glyph-name="three" unicode="3" horiz-adv-x="587" 
d="M499 334q57 9 97 49t50 99q16 88 -48 143t-180 55q-114 0 -193 -51.5t-117 -153.5l146 -30q20 47 52.5 69t84.5 22q48 0 74.5 -17.5t21.5 -45.5q-7 -37 -30 -59.5t-55 -22.5h-116l-22 -127h116q31 0 46.5 -22t8.5 -59q-5 -28 -37 -45.5t-81 -17.5q-51 0 -75 27t-26 84
l-156 -29q0 -111 60 -168.5t174 -57.5q116 0 199 55t99 143q10 59 -15.5 99t-79.5 49z" />
    <glyph glyph-name="four" unicode="4" horiz-adv-x="616" 
d="M432 616l-153 -244l-39 -40l-1 -16l414 1l-23 -136h-582l28 159l209 323zM533 0h-157l115 654h158z" />
    <glyph glyph-name="five" unicode="5" horiz-adv-x="578" 
d="M73 276h156l17 100l-29 13l47 87l31 174l-155 4zM140 654l-13 -136h489l24 136h-500zM229 276q6 34 38.5 55t80.5 21q54 0 76.5 -30.5t12 -88.5t-41.5 -90t-76 -32q-41 0 -68 20t-32 54l-161 -34q11 -85 73.5 -135t159.5 -50q117 0 199 73t103 195q21 114 -27 178
t-154 64q-82 0 -135.5 -51.5t-70.5 -147.5z" />
    <glyph glyph-name="six" unicode="6" horiz-adv-x="601" 
d="M494 479q-4 26 -25.5 41.5t-53.5 15.5q-52 0 -86.5 -26.5t-58.5 -91.5l-48 -86l28 -13q-13 -33 -24 -97l-148 62q20 110 52.5 187t79 122.5t101.5 66t125 20.5q85 0 145.5 -43t73.5 -113zM226 222q-9 -49 21.5 -80t86.5 -31q47 0 78.5 27t40.5 74q8 47 -18 72t-78 25
q-56 0 -90.5 -25.5t-40.5 -61.5zM78 284l136 -56q16 92 78.5 148.5t141.5 56.5q90 0 142 -63t34 -163q-20 -110 -101.5 -175.5t-200.5 -65.5q-56 0 -103.5 21t-80.5 61.5t-46 99.5t0 136z" />
    <glyph glyph-name="seven" unicode="7" horiz-adv-x="572" 
d="M170 0h167l295 486l30 168h-522l-24 -136h385l-5 -23l-66 -76z" />
    <glyph glyph-name="eight" unicode="8" horiz-adv-x="597" 
d="M294 -24q120 0 205.5 52t100.5 134q21 119 -109 181l2 12q71 27 109 62.5t47 83.5q14 80 -50 129.5t-181 49.5t-198.5 -50t-95.5 -129q-10 -55 15 -95.5t86 -70.5l-2 -12q-152 -56 -170 -161q-15 -82 53 -134t188 -52zM392.5 536q47.5 0 73 -15t21.5 -40
q-5 -29 -32 -45.5t-85 -29.5q-54 14 -75.5 30t-16.5 45q4 25 35.5 40t79 15zM445 183q-5 -28 -39.5 -45.5t-86.5 -17.5t-81 17t-24 46q7 35 38 54.5t94 33.5q57 -14 81.5 -34t17.5 -54z" />
    <glyph glyph-name="nine" unicode="9" horiz-adv-x="601" 
d="M221 167q4 -26 25 -41.5t54 -15.5q52 0 86.5 26.5t57.5 91.5l49 86l-28 13q13 33 24 97l147 -62q-19 -110 -52 -187t-79 -122.5t-101.5 -66t-125.5 -20.5q-84 0 -144.5 43t-73.5 113zM489 424q9 49 -21.5 80t-86.5 31q-47 0 -79 -27t-40 -74q-9 -47 17.5 -72t78.5 -25
q55 0 90 25.5t41 61.5zM636 362l-135 56q-16 -92 -79 -148.5t-141 -56.5q-91 0 -142.5 63t-33.5 163q19 110 101 175.5t200 65.5q57 0 104.5 -21t80.5 -61.5t45.5 -99.5t-0.5 -136z" />
    <glyph glyph-name="colon" unicode=":" horiz-adv-x="224" 
d="M98.5 378q5.5 34 32.5 56.5t60.5 22.5t52 -22.5t13 -56.5t-32.5 -56.5t-60.5 -22.5t-52 22.5t-13 56.5zM56.5 140q5.5 34 32.5 56.5t60.5 22.5t52 -22.5t13 -56.5t-32.5 -56t-60.5 -22t-52 22t-13 56z" />
    <glyph glyph-name="semicolon" unicode=";" horiz-adv-x="221" 
d="M56 142q6 34 32.5 56.5t60 22.5t52.5 -22.5t13 -56.5q-12 -65 -36 -112t-56.5 -72.5t-69 -37.5t-79.5 -12l5 82q155 0 193 94q-20 -20 -50 -20q-34 0 -52.5 22t-12.5 56zM98 378q6 34 33 56.5t60.5 22.5t52 -22.5t12.5 -56.5t-32.5 -56.5t-60 -22.5t-52.5 22.5t-13 56.5z
" />
    <glyph glyph-name="less" unicode="&#x3c;" horiz-adv-x="501" 
d="M249 251l246 -76l-23 -129l-403 143l27 153l453 144l-22 -130l-273 -75l-56 -9l-3 -13z" />
    <glyph glyph-name="equal" unicode="=" horiz-adv-x="510" 
d="M59 248h476l-22 -126h-476zM91 428h476l-22 -126h-476z" />
    <glyph glyph-name="greater" unicode="&#x3e;" horiz-adv-x="501" 
d="M346 281l-246 76l23 129l402 -143l-26 -153l-454 -144l23 130l272 75l57 9l2 13z" />
    <glyph glyph-name="question" unicode="?" horiz-adv-x="538" 
d="M363 161q8 50 27.5 78t57.5 52q8 6 33.5 21t38.5 25.5t31.5 29t29.5 43.5t17 58q15 89 -40.5 145.5t-168.5 56.5q-104 0 -177.5 -49.5t-106.5 -143.5l146 -30q31 87 113 87q42 0 62 -17.5t15 -44.5q-5 -28 -21 -52t-31 -36t-37.5 -27t-29.5 -21q-56 -45 -79 -175h120z
M207 52q6 34 33 56.5t60.5 22.5t52 -22.5t12.5 -56.5t-32.5 -56t-60 -22t-52.5 22t-13 56z" />
    <glyph glyph-name="at" unicode="@" horiz-adv-x="839" 
d="M740 320q-9 -48 -27.5 -79.5t-38.5 -31.5q-8 0 -13 6.5t-3 15.5l30 173q11 57 -39.5 95t-135.5 38q-81 0 -140 -36t-81 -100l108 -29q9 33 35 51.5t61 18.5q36 0 56 -13.5t16 -35.5l-2 -14l-167 -33q-64 -20 -97 -46.5t-40 -67.5q-9 -50 28.5 -81.5t106.5 -31.5
q55 0 99.5 34.5t66.5 94.5l17 -6l-28 -45q-6 -34 28 -58.5t78 -24.5q81 0 137.5 54.5t74.5 151.5q32 182 -58.5 281t-277.5 99q-180 0 -301 -100.5t-152 -275.5q-31 -177 56.5 -277.5t272.5 -100.5q40 0 77 8l13 122q-23 -5 -63 -5q-130 0 -189.5 66t-38.5 187
q21 120 102.5 186t208 66t184 -67t36.5 -189zM383 249q4 21 29 29l141 26l-5 -30q-4 -22 -33.5 -36t-70.5 -14q-65 0 -61 25z" />
    <glyph glyph-name="A" unicode="A" horiz-adv-x="784" 
d="M245 285h395l-26 -146h-394zM454 466l-262 -466h-176l371 654h234l145 -654h-176l-102 466v56h-14z" />
    <glyph glyph-name="B" unicode="B" horiz-adv-x="673" 
d="M224 147h176q115 0 124 52q5 27 -21.5 40.5t-83.5 13.5h-176zM269 400h176q104 0 114 57q5 27 -17 39t-78 12h-176zM561 333l-2 -13q63 -13 95 -54.5t22 -100.5q-14 -75 -92 -120t-199 -45h-344l116 654h344q120 0 177 -47t43 -125q-10 -59 -52 -99t-108 -50z" />
    <glyph glyph-name="C" unicode="C" horiz-adv-x="718" 
d="M767 444l-159 -30q-10 55 -48 83.5t-100 28.5q-87 0 -145.5 -53t-75.5 -149q-16 -92 24 -142.5t127 -50.5q66 0 117.5 32t74.5 90l149 -31q-47 -117 -146 -181.5t-222 -64.5q-157 0 -234 92t-48 256q30 169 139.5 262.5t266.5 93.5q112 0 186.5 -61.5t93.5 -174.5z" />
    <glyph glyph-name="D" unicode="D" horiz-adv-x="684" 
d="M41 0l116 654h306q137 0 207 -92t45 -238q-26 -145 -127.5 -234.5t-240.5 -89.5h-306zM224 148h138q79 0 130 47t66 134q16 86 -18.5 132.5t-113.5 46.5h-138z" />
    <glyph glyph-name="E" unicode="E" horiz-adv-x="662" 
d="M157 654h592l-26 -147h-435l-19 -107h406l-26 -147h-406l-19 -106h435l-26 -147h-592z" />
    <glyph glyph-name="F" unicode="F" horiz-adv-x="662" 
d="M157 654h592l-26 -147h-435l-19 -107h406l-26 -147h-406l-45 -253h-157z" />
    <glyph glyph-name="G" unicode="G" horiz-adv-x="718" 
d="M767 444q-18 114 -94.5 175t-194.5 61q-150 0 -259 -96t-139 -269q-28 -157 40.5 -248t197.5 -91q108 0 185.5 68.5t95.5 171.5h-26q-6 -38 -58.5 -61.5t-126.5 -23.5q-81 0 -123 51t-26 142q17 97 74.5 149.5t142.5 52.5q131 0 152 -112zM351 362l-26 -146h248l-12 -67
l48 -23l-74 -125h157l64 361h-405z" />
    <glyph glyph-name="H" unicode="H" horiz-adv-x="708" 
d="M189 410h461l-26 -147h-461zM621 654h158l-116 -654h-158zM157 654h157l-116 -654h-157z" />
    <glyph glyph-name="I" unicode="I" horiz-adv-x="243" 
d="M157 655h157l-116 -655h-157z" />
    <glyph glyph-name="J" unicode="J" horiz-adv-x="645" 
d="M717 654h-158l-81 -455q-6 -34 -44.5 -55t-96.5 -21t-89 33t-28 87l-160 -40q-1 -99 65.5 -161.5t187.5 -62.5q127 0 216 59.5t105 149.5z" />
    <glyph glyph-name="K" unicode="K" horiz-adv-x="736" 
d="M157 654h157l-50 -281l367 281h202l-343 -290l227 -364h-212l-156 270l-118 -87l-33 -183h-157z" />
    <glyph glyph-name="L" unicode="L" horiz-adv-x="662" 
d="M157 654h157l-90 -507h435l-26 -147h-592z" />
    <glyph glyph-name="M" unicode="M" horiz-adv-x="944" 
d="M520 206l317 448h178l-116 -654h-148l71 400l-263 -400h-179l-111 400l-71 -400h-157l116 654h188l149 -448l2 -54z" />
    <glyph glyph-name="N" unicode="N" horiz-adv-x="748" 
d="M661 654h158l-116 -654h-188l-241 430l-76 -430h-157l116 654h187l241 -428z" />
    <glyph glyph-name="O" unicode="O" horiz-adv-x="729" 
d="M240 327q-16 -93 23 -144.5t124.5 -51.5t142 51.5t73.5 144.5q16 93 -22.5 146t-123.5 53t-143 -53t-74 -146zM82 327q29 165 137.5 259t264.5 94q70 0 127.5 -24.5t96 -68.5t53 -111.5t0.5 -148.5q-29 -166 -137 -258.5t-264 -92.5t-231.5 93t-46.5 258z" />
    <glyph glyph-name="P" unicode="P" horiz-adv-x="660" 
d="M41 0l116 654h327q118 0 181.5 -64t46.5 -164q-17 -96 -102 -155t-204 -59h-170l-38 -212h-157zM262 358h160q57 0 91.5 18.5t40.5 52.5q7 38 -20.5 58.5t-85.5 20.5h-160z" />
    <glyph glyph-name="Q" unicode="Q" horiz-adv-x="727" 
d="M595 -52l-253 302l132 108l252 -302zM240 327q-16 -93 23 -144.5t124.5 -51.5t142 51.5t73.5 144.5q16 93 -22.5 146t-123.5 53t-143 -53t-74 -146zM82 327q29 165 137.5 259t264.5 94q70 0 127.5 -24.5t96 -68.5t53 -111.5t0.5 -148.5q-29 -166 -137 -258.5t-264 -92.5
t-231.5 93t-46.5 258z" />
    <glyph glyph-name="R" unicode="R" horiz-adv-x="660" 
d="M365 276h170l101 -276h-168zM41 0l116 654h327q118 0 181.5 -64t46.5 -164q-17 -96 -102 -155t-204 -59h-170l-38 -212h-157zM262 358h160q57 0 91.5 18.5t40.5 52.5q7 38 -20.5 58.5t-85.5 20.5h-160z" />
    <glyph glyph-name="S" unicode="S" horiz-adv-x="639" 
d="M645 182q-17 -98 -102.5 -153.5t-211.5 -55.5q-117 0 -188.5 54t-85.5 161l157 31q26 -92 143 -92q54 0 90 15t40 41q2 11 -1.5 20t-15 16t-22 11.5t-33 9.5t-37 7.5t-44.5 7.5q-5 0 -8 1q-244 40 -213 214q17 97 101.5 153.5t211.5 56.5q116 0 185.5 -51t80.5 -153
l-155 -31q-16 81 -134 81q-57 0 -93 -15.5t-40 -41.5q-5 -30 30 -44t126 -30q3 -1 4 -1q37 -7 67.5 -16t63 -26t52.5 -38.5t30 -55.5t2 -76z" />
    <glyph glyph-name="T" unicode="T" horiz-adv-x="677" 
d="M144 654h617l-26 -146h-230l-89 -508h-158l89 508h-229z" />
    <glyph glyph-name="U" unicode="U" horiz-adv-x="699" 
d="M314 654l-76 -429q-8 -47 27 -72.5t107 -25.5q71 0 113.5 25.5t50.5 72.5l76 429h158l-78 -440q-18 -103 -115.5 -169t-230.5 -66q-138 0 -211.5 65t-55.5 170l78 440h157z" />
    <glyph glyph-name="V" unicode="V" horiz-adv-x="784" 
d="M443 188l262 466h176l-372 -654h-233l-145 654h176l101 -466l1 -56h13z" />
    <glyph glyph-name="W" unicode="W" horiz-adv-x="1117" 
d="M623 448l-196 -448h-234l-61 654h166l37 -440l-2 -56h14l18 56l194 440h224l44 -440l-2 -56h12l18 56l195 440h165l-292 -654h-234l-42 448l4 59h-11z" />
    <glyph glyph-name="X" unicode="X" horiz-adv-x="736" 
d="M459 421l199 233h175l-282 -329l166 -325h-174l-117 233l-3 46h-13l-19 -46l-200 -233h-175l283 325l-168 329h174l119 -233l3 -46h13z" />
    <glyph glyph-name="Y" unicode="Y" horiz-adv-x="740" 
d="M508 263l329 391h-176l-202 -240l-18 -45h-13l-3 45l-116 240h-178l193 -391h14l-47 -263h158l47 263h12z" />
    <glyph glyph-name="Z" unicode="Z" horiz-adv-x="641" 
d="M150 654h569l-33 -188l-368 -266l-120 -61l-2 -12h430l-22 -127h-569l33 188l388 279l111 48l2 12h-441z" />
    <glyph glyph-name="bracketleft" unicode="[" horiz-adv-x="396" 
d="M161 676l-139 -784h328l23 127h-201l93 531h201l23 126h-328z" />
    <glyph glyph-name="backslash" unicode="\" horiz-adv-x="451" 
d="M308 654l110 -654h-162l-110 654h162z" />
    <glyph glyph-name="bracketright" unicode="]" horiz-adv-x="396" 
d="M335 -108l138 784h-328l-22 -127h201l-94 -531h-201l-22 -126h328z" />
    <glyph glyph-name="asciicircum" unicode="^" horiz-adv-x="476" 
d="M336 639l-91 -101h-135l175 176h154l113 -176h-135l-55 101l-4 21h-12z" />
    <glyph glyph-name="underscore" unicode="_" horiz-adv-x="575" 
d="M22 39h542l-17 -96h-541z" />
    <glyph glyph-name="grave" unicode="`" horiz-adv-x="290" 
d="M140 707h143l84 -177h-99z" />
    <glyph glyph-name="a" unicode="a" horiz-adv-x="575" 
d="M208 148q-3 -18 13.5 -27t46.5 -9q56 0 93.5 17.5t42.5 45.5h23q-16 -90 -84 -144.5t-164 -54.5q-69 0 -107.5 38.5t-27.5 98.5t56 95.5t127 51.5l199 40l-17 -95l-142 -29q-56 -12 -59 -28zM531 0h-158l60 110l-37 20l31 174q3 20 -20 32t-64 12q-43 0 -73 -18t-40 -47
l-152 20q28 79 106 130t185 51q109 0 169.5 -49t48.5 -120z" />
    <glyph glyph-name="b" unicode="b" horiz-adv-x="639" 
d="M239 231q-10 -57 18.5 -88.5t89.5 -31.5t99.5 31t48.5 89t-17.5 89.5t-88.5 31.5t-100.5 -32t-49.5 -89zM210 232q22 121 90 187.5t170 66.5t152.5 -71.5t30.5 -186.5q-21 -115 -94 -183.5t-175 -68.5q-104 0 -149.5 67t-24.5 189zM163 687h157l-40 -227l-61 -114l38 -16
l-36 -200l-42 -16l19 -114h-157z" />
    <glyph glyph-name="c" unicode="c" horiz-adv-x="597" 
d="M625 294l-155 -20q-7 38 -33.5 58t-70.5 20q-57 0 -95 -31.5t-48 -88.5q-10 -58 16.5 -89.5t84.5 -31.5q47 0 82.5 22.5t51.5 64.5l151 -20q-38 -97 -121.5 -149.5t-187.5 -52.5q-128 0 -192 67.5t-43 188.5q21 120 109 187t216 67q94 0 157 -50t78 -142z" />
    <glyph glyph-name="d" unicode="d" horiz-adv-x="641" 
d="M470 231q10 58 -16 89.5t-82 31.5q-60 0 -99.5 -31.5t-49.5 -89.5t18 -89t89 -31q56 0 93 31t47 89zM498 231q-22 -122 -88.5 -188.5t-164.5 -66.5q-100 0 -150.5 68t-30.5 184q22 121 100 189.5t176 68.5q95 0 137 -66.5t21 -188.5zM718 687l-121 -687h-168l59 114
l-36 16l35 200l44 16l-21 114l40 227h168z" />
    <glyph glyph-name="e" unicode="e" 
d="M216 188q-2 -37 28 -57t87 -20q44 0 76 12.5t44 34.5l150 -21q-34 -75 -113 -118t-181 -43q-134 0 -198.5 68.5t-43.5 187.5q21 118 107 186t214 68q129 0 191 -68t42 -180l-9 -50h-394zM236 290h233q5 27 -25.5 44.5t-81.5 17.5q-100 0 -126 -62z" />
    <glyph glyph-name="f" unicode="f" horiz-adv-x="470" 
d="M283 0h-157l58 334h-110l23 126h110l15 89q14 76 67.5 107t164.5 31h108l-22 -126h-99q-59 0 -66 -41l-11 -60h169l-23 -126h-168z" />
    <glyph glyph-name="g" unicode="g" horiz-adv-x="542" 
d="M84 328q12 68 86.5 113t184.5 45q115 0 176 -50.5t46 -133.5q-13 -73 -84 -119t-170 -46q-11 9 -35 14t-42.5 5.5t-53.5 0.5l4 20q-63 4 -92.5 47t-19.5 104zM239 308q-4 -23 17.5 -36t64.5 -13t69.5 13t30.5 36q4 22 -18 34t-65 12t-69 -12t-30 -34zM532 485
q-27 0 -30 -17q-1 -8 10 -25l-58 23l14 21q-30 27 -24 61q6 31 33 48t71 17h101l-23 -128h-94zM-8 -105q8 45 55 71t119 26l2 12q-54 7 -79.5 27.5t-19.5 54.5q7 42 63.5 61.5t172.5 19.5l18 -30q-90 0 -93 -15q-2 -15 102 -24q119 -13 163.5 -58t32.5 -110
q-13 -77 -92 -121.5t-202 -44.5q-122 0 -187.5 35.5t-54.5 95.5zM157 -60q-3 -16 25 -25t79 -9q105 0 111 33q2 11 -15 18t-75 18q-54 0 -88 -9.5t-37 -25.5z" />
    <glyph glyph-name="h" unicode="h" horiz-adv-x="612" 
d="M460 287q5 29 -21 46.5t-73 17.5q-46 0 -79 -18.5t-38 -47.5h-21q14 79 80.5 139t152.5 60q81 0 127 -54t32 -132l-53 -298h-158zM280 460l-57 -117l34 -13l-59 -330h-157l122 687h157z" />
    <glyph glyph-name="i" unicode="i" horiz-adv-x="236" 
d="M133 588q7 36 37.5 62t66.5 26t57.5 -26t14.5 -62q-6 -36 -36.5 -62.5t-66.5 -26.5t-57.5 26.5t-15.5 62.5zM122 460h157l-81 -460h-157z" />
    <glyph glyph-name="j" unicode="j" horiz-adv-x="228" 
d="M128 588q6 36 37 62t67 26t57 -26t15 -62t-37 -62.5t-66.5 -26.5t-57 26.5t-15.5 62.5zM117 460h157l-84 -474q-14 -80 -83.5 -127t-173.5 -47h-70l26 148h70q28 0 51.5 16.5t27.5 40.5z" />
    <glyph glyph-name="k" unicode="k" horiz-adv-x="631" 
d="M163 687h157l-75 -420l258 193h196l-245 -200l163 -260h-190l-109 177l-102 -76l-18 -101h-157z" />
    <glyph glyph-name="l" unicode="l" horiz-adv-x="243" 
d="M163 687h157l-122 -687h-157z" />
    <glyph glyph-name="m" unicode="m" horiz-adv-x="986" 
d="M832 277q6 34 -18 54t-77 20q-49 0 -80.5 -21t-37.5 -55h-22q17 96 81.5 152.5t162.5 56.5q83 0 124.5 -56t26.5 -140l-51 -288h-158zM461 277q6 34 -18 54t-75 20q-50 0 -82.5 -21t-38.5 -55h-21q17 95 78.5 152t148.5 57q65 0 108 -43.5t33 -100.5l-1 -5l35 -11
l-58 -324h-158zM123 460h157l-56 -117l33 -13l-59 -330h-157z" />
    <glyph glyph-name="n" unicode="n" horiz-adv-x="612" 
d="M459 281q6 32 -20 51t-73 19q-46 0 -79.5 -20t-38.5 -52h-21q14 81 81 143t153 62q81 0 126.5 -55.5t31.5 -136.5l-52 -292h-158zM123 460h157l-58 -123l34 -13l-58 -324h-157z" />
    <glyph glyph-name="o" unicode="o" 
d="M223 232q-10 -58 15.5 -89.5t81.5 -31.5t93 31.5t47 89.5q10 57 -16 88.5t-82 31.5t-92.5 -31t-46.5 -89zM65 232q21 121 107.5 187.5t213.5 66.5q119 0 186 -68t46 -186q-21 -121 -108 -188.5t-214 -67.5t-189.5 67.5t-41.5 188.5z" />
    <glyph glyph-name="p" unicode="p" horiz-adv-x="641" 
d="M240 229q10 58 49.5 89t100.5 31t89 -31t18 -89t-49.5 -89.5t-100 -31.5t-89 31.5t-18.5 89.5zM212 229q-22 -122 20 -188.5t138 -66.5q102 0 183 68t102 190q21 117 -32.5 184.5t-157.5 67.5q-99 0 -165.5 -66.5t-87.5 -188.5zM7 -197h158l34 197l-20 114l43 16l36 200
l-37 16l60 114h-158z" />
    <glyph glyph-name="q" unicode="q" horiz-adv-x="639" 
d="M478.5 229q10.5 57 -17.5 88.5t-89.5 31.5t-100 -31t-49 -89t17.5 -89.5t89 -31.5t100 32t49.5 89zM507 228q-21 -121 -89 -187.5t-170 -66.5t-152.5 71.5t-30.5 186.5t93.5 183.5t174.5 68.5q105 0 150.5 -67t23.5 -189zM560 -197h-157l35 197l60 114l-37 16l35 200
l43 16l-20 114h157z" />
    <glyph glyph-name="r" unicode="r" horiz-adv-x="458" 
d="M123 460h157l-61 -114l38 -16l-59 -330h-157zM405 324q-62 0 -110 -25t-55 -64l-11 50q14 84 74.5 134.5t146.5 50.5h72l-25 -146h-92z" />
    <glyph glyph-name="s" unicode="s" horiz-adv-x="534" 
d="M529 120q-11 -65 -80.5 -106t-169.5 -41t-162.5 43t-66.5 129l155 18q10 -66 86 -66q34 0 56.5 8.5t25.5 22.5q2 11 -4.5 19t-23 13.5t-30 9t-38.5 7.5q-33 7 -60 14.5t-54 21.5t-44 31t-25.5 43t-2.5 57q11 65 77.5 103.5t167.5 38.5q202 0 226 -151l-158 -28
q-10 55 -78 55q-75 0 -79 -24q-3 -16 18.5 -25t65.5 -16q35 -6 62 -13.5t57 -21.5t48.5 -32t28 -46.5t2.5 -63.5z" />
    <glyph glyph-name="t" unicode="t" horiz-adv-x="470" 
d="M342 334l-26 -149q-7 -39 4 -48.5t58 -9.5h96l-22 -127h-142q-91 0 -131 38t-23 136l28 160h-110l23 126h110l24 135l159 11l-26 -146h169l-23 -126h-168z" />
    <glyph glyph-name="u" unicode="u" horiz-adv-x="612" 
d="M230 173q-6 -34 19 -54t73 -20q46 0 79.5 21t39.5 55h21q-14 -79 -80.5 -139t-152.5 -60q-81 0 -127 53.5t-32 132.5l53 298h158zM567 0h-157l57 117l-34 13l59 330h157z" />
    <glyph glyph-name="v" unicode="v" horiz-adv-x="627" 
d="M360 170l156 290h174l-258 -460h-239l-96 460h173l55 -290l2 -50h13z" />
    <glyph glyph-name="w" unicode="w" horiz-adv-x="984" 
d="M527 272l-135 -272h-240l-55 460h163l34 -264l-2 -56h12l20 56l139 264h218l47 -264l-2 -56h14l18 56l127 264h162l-216 -460h-240l-40 272l4 59h-12z" />
    <glyph glyph-name="x" unicode="x" horiz-adv-x="627" 
d="M386 318l127 142h177l-211 -232l130 -228h-176l-78 142l-3 46h-13l-19 -46l-127 -142h-177l210 228l-129 232h176l78 -142l3 -46h13z" />
    <glyph glyph-name="y" unicode="y" horiz-adv-x="627" 
d="M363 182l153 278h174l-325 -541q-35 -59 -87.5 -90t-111.5 -31h-150l24 139h84q31 0 48.5 6.5t28.5 22.5l21 34l-125 460h173l57 -278l1 -56h13z" />
    <glyph glyph-name="z" unicode="z" horiz-adv-x="507" 
d="M105 460h457l-31 -180l-261 -128l-69 -11l-2 -14h305l-23 -127h-457l35 196l248 118l74 7l2 13h-300z" />
    <glyph glyph-name="braceleft" unicode="{" horiz-adv-x="395" 
d="M460 690l10 -116q-56 -10 -90.5 -41t-43.5 -79q-12 -68 -45 -113.5t-77 -56.5l-2 -12q41 -11 57.5 -56t4.5 -113q-8 -45 16 -76t77 -40l-51 -115q-101 17 -143 80t-25 160q8 47 -3.5 75t-39.5 28h-43l23 127h43q27 0 48.5 28t30.5 75q17 98 81.5 162t171.5 83z" />
    <glyph glyph-name="bar" unicode="|" horiz-adv-x="243" 
d="M180 784h157l-171 -968h-157z" />
    <glyph glyph-name="braceright" unicode="}" horiz-adv-x="395" 
d="M34 -128l-11 116q57 10 91.5 41t42.5 79q12 68 45 113.5t77 56.5l3 12q-41 11 -58 56t-5 113q8 45 -16 76t-76 40l51 115q100 -17 142.5 -80t25.5 -160q-8 -47 3.5 -75t39.5 -28h43l-23 -127h-43q-28 0 -49.5 -28t-29.5 -75q-17 -98 -81.5 -162t-171.5 -83z" />
    <glyph glyph-name="asciitilde" unicode="~" horiz-adv-x="403" 
d="M376 343q-5 -29 -14.5 -42t-26.5 -13q-22 0 -35 7.5t-29 23.5q-10 10 -18.5 16.5t-26 12t-40.5 5.5q-57 0 -93.5 -33.5t-47.5 -95.5l78 -8q10 59 47 59q12 0 22.5 -4t15 -7t15.5 -13.5t14 -12.5q34 -29 85 -29q111 0 133 127z" />
    <glyph glyph-name="exclamdown" unicode="&#xa1;" horiz-adv-x="224" 
d="M205 171l-41 -234h-128l41 234l66 258h86zM285 539q-6 -34 -32.5 -56.5t-60.5 -22.5t-52.5 22.5t-12.5 56.5t32.5 56t60 22t52.5 -22t13 -56z" />
    <glyph glyph-name="cent" unicode="&#xa2;" 
d="M399 687l-121 -687h47l121 687h-47zM646 414q-15 92 -78 142t-157 50q-128 0 -216 -67t-109 -187q-21 -121 43.5 -188.5t191.5 -67.5q104 0 187.5 52.5t121.5 149.5l-151 20q-16 -42 -51.5 -64.5t-82.5 -22.5q-58 0 -84.5 31.5t-16.5 89.5q10 57 48 88.5t95 31.5
q44 0 70.5 -20t33.5 -58z" />
    <glyph glyph-name="sterling" unicode="&#xa3;" horiz-adv-x="586" 
d="M554 252l22 126h-472l-22 -126h472zM54 147l-26 -147h536l26 147h-266l-130 -45l-10 45h-130zM167 388q18 -85 4 -162q-6 -35 -36 -57t-81 -22l-3 -29q129 0 197.5 31t77.5 82q15 83 -1 158q-20 68 -14 104q4 22 26.5 35t58.5 13t58 -23.5t24 -66.5l157 40q-3 86 -62 135
t-155 49q-108 0 -178.5 -40t-81.5 -106q-10 -55 9 -141z" />
    <glyph glyph-name="currency" unicode="&#xa4;" horiz-adv-x="408" 
d="M348 393l59 50l44 -53l-53 -44zM384 269l37 -47l-61 -52l-42 53zM172 225l-64 -55l-43 54l56 47zM131 346l-37 44l62 53l42 -50zM251.5 268q32.5 0 59 12t29.5 29q2 16 -20 27.5t-54.5 11.5t-59 -11.5t-28.5 -27.5q-3 -17 19 -29t54.5 -12zM106 309q8 46 58.5 78
t113.5 32t102.5 -32t31.5 -78q-9 -47 -58.5 -79t-114.5 -32t-103.5 32t-29.5 79z" />
    <glyph glyph-name="yen" unicode="&#xa5;" horiz-adv-x="655" 
d="M482 343l271 311h-182l-138 -160l-18 -45h-13l-3 45l-84 160h-184l167 -311h14l-61 -343h158l61 343h12zM175 306l-19 -107h418l19 107h-418zM150 166l-18 -106h418l18 106h-418z" />
    <glyph glyph-name="brokenbar" unicode="&#xa6;" horiz-adv-x="243" 
d="M82 231h157l-73 -415h-157zM180 784h157l-74 -415h-157z" />
    <glyph glyph-name="section" unicode="&#xa7;" horiz-adv-x="560" 
d="M331 388q69 -16 88 -26.5t15 -32.5q-3 -20 -28 -33t-60 -13q-70 16 -88.5 26.5t-15.5 31.5q4 20 29 33.5t60 13.5zM209 402q-55 -8 -90 -35t-42 -68q-9 -53 37.5 -83.5t179.5 -52.5q57 -9 76.5 -17t16.5 -22q-2 -10 -23.5 -16t-55.5 -6q-83 0 -99 50l-156 -22
q23 -162 232 -162q105 0 176 40.5t82 105.5q10 52 -8 84.5t-67 53.5l3 17q54 9 88.5 38.5t41.5 73.5q9 50 -38.5 79.5t-179.5 47.5q-56 7 -76 15t-18 22q2 10 23.5 16.5t55.5 6.5q84 0 100 -50l156 23q-24 161 -232 161q-105 0 -176 -40t-83 -105q-9 -54 9.5 -87.5
t68.5 -54.5z" />
    <glyph glyph-name="dieresis" unicode="&#xa8;" horiz-adv-x="465" 
d="M398 660q6 34 34.5 58.5t62 24.5t54.5 -24.5t15 -58.5q-6 -33 -35.5 -58.5t-63 -25.5t-53.5 25.5t-14 58.5zM132 660q6 34 35 58.5t63 24.5t54 -24.5t14 -58.5q-6 -33 -35 -58.5t-62.5 -25.5t-54 25.5t-14.5 58.5z" />
    <glyph glyph-name="copyright" unicode="&#xa9;" horiz-adv-x="819" 
d="M704 387l-125 -20q-16 55 -95 55q-51 0 -84 -24.5t-41 -71.5q-9 -48 15 -73.5t75 -25.5q42 0 73.5 17.5t45.5 49.5l120 -20q-32 -76 -102.5 -118.5t-156.5 -42.5q-107 0 -161 56t-36 157q17 100 90.5 155.5t181.5 55.5q79 0 133 -39t67 -111zM169 324q-11 -64 4 -116.5
t50.5 -86t85 -52t108.5 -18.5q80 0 152 31t125 94.5t68 147.5q11 63 -4 115.5t-50.5 86t-85.5 52t-109 18.5q-79 0 -151 -31t-125 -94t-68 -147zM81 324q15 83 59 151.5t106 112.5t134.5 68t147.5 24q55 0 107.5 -15t96.5 -45t75 -71.5t43 -100t0 -124.5
q-14 -83 -58.5 -152.5t-106.5 -113.5t-135 -68t-148 -24t-139 24t-110.5 68.5t-66 113.5t-5.5 152z" />
    <glyph glyph-name="ordfeminine" unicode="&#xaa;" horiz-adv-x="440" 
d="M79 318h395l-15 -86h-395zM228 456q-3 -15 43 -15q44 0 74 8.5t32 22.5h12q-9 -55 -55.5 -90t-110.5 -35q-53 0 -82.5 25t-22.5 65t40.5 66.5t84.5 30.5l147 10l-11 -64l-111 -5q-38 -3 -40 -19zM463 362h-105l36 64l-23 12l20 109q1 10 -19 16.5t-53 6.5q-78 0 -89 -24
l-89 20q19 46 71.5 72.5t122.5 26.5q78 0 124 -32t38 -81z" />
    <glyph glyph-name="guillemotleft" unicode="&#xab;" horiz-adv-x="653" 
d="M519 251l125 -84l-22 -129l-241 151l27 153l291 136l-23 -130l-152 -67l-56 -9l-3 -13zM207 251l125 -84l-22 -129l-241 151l27 153l291 136l-23 -130l-152 -67l-56 -9l-3 -13z" />
    <glyph glyph-name="logicalnot" unicode="&#xac;" horiz-adv-x="468" 
d="M397 284h-311l15 86h396l-32 -182h-85z" />
    <glyph glyph-name="uni00AD" unicode="&#xad;" horiz-adv-x="376" 
d="M75 328h342l-15 -86h-342z" />
    <glyph glyph-name="registered" unicode="&#xae;" horiz-adv-x="713" 
d="M29 324q14 83 58.5 151.5t106 112.5t134.5 68t148 24q55 0 107 -15t96 -45t75 -71.5t43 -100t1 -124.5q-15 -83 -59.5 -152.5t-106 -113.5t-134.5 -68t-148 -24t-139.5 24t-110.5 68.5t-66 113.5t-5 152zM117 324q-11 -64 4 -116.5t50 -86t85 -52t109 -18.5q79 0 151 31
t125.5 94.5t68.5 147.5q11 63 -4 115.5t-50.5 86t-85.5 52t-109 18.5q-79 0 -151 -31t-125 -94t-68 -147zM372 357h65q50 0 55 31q3 14 -8.5 22.5t-36.5 8.5h-65zM207 140l68 384h202q75 0 114 -37t29 -92q-8 -47 -37.5 -77.5t-73.5 -35.5l66 -142h-134l-39 122h-47
l-22 -122h-126z" />
    <glyph glyph-name="macron" unicode="&#xaf;" horiz-adv-x="406" 
d="M133 654h372l-19 -106h-372z" />
    <glyph glyph-name="degree" unicode="&#xb0;" horiz-adv-x="296" 
d="M249 574q17 0 31.5 13t17.5 30t-7 30t-27 13t-32 -13t-18 -30t7 -30t28 -13zM124 617q10 54 55.5 92.5t99.5 38.5t85.5 -38.5t21.5 -92.5q-9 -56 -53 -93t-99.5 -37t-87 37.5t-22.5 92.5z" />
    <glyph glyph-name="plusminus" unicode="&#xb1;" horiz-adv-x="510" 
d="M377 338h174l-22 -126h-174l-24 -133h-126l24 133h-176l22 126h176l23 133h126zM24 48h476l-22 -126h-476z" />
    <glyph glyph-name="uni00B2" unicode="&#xb2;" horiz-adv-x="357" 
d="M196 557l46 3l67 7q63 7 102.5 37t46.5 66q8 47 -31 76.5t-110 29.5q-144 0 -188 -110l96 -18q21 43 76 43q24 0 37 -6t12 -16q-5 -28 -75 -31l-152 -7l-30 -168h335l15 86l-248 -1z" />
    <glyph glyph-name="uni00B3" unicode="&#xb3;" horiz-adv-x="357" 
d="M397 617q28 4 47 23.5t24 46.5q7 39 -33.5 62.5t-113.5 23.5q-147 0 -190 -97l95 -20q20 33 78 33q25 0 39.5 -6t12.5 -17q-1 -8 -15.5 -13t-35.5 -5h-70l-12 -66h70q21 0 33.5 -5.5t11.5 -13.5q-4 -21 -56 -21q-63 0 -69 40l-102 -20q8 -104 156 -104q73 0 120.5 22.5
t54.5 61.5q5 27 -7.5 46.5t-37.5 23.5v5z" />
    <glyph glyph-name="acute" unicode="&#xb4;" horiz-adv-x="312" 
d="M409 707l-190 -177h-99l146 177h143z" />
    <glyph glyph-name="mu" unicode="&#xb5;" horiz-adv-x="612" 
d="M195 -20l-31 -174h-157l116 654h157l-51 -285q-6 -33 19 -54.5t69 -21.5q50 0 83.5 20.5t39.5 53.5l51 287h158l-82 -460h-158l58 117l-20 8q-20 -65 -59.5 -102t-87.5 -37q-47 0 -75 37t-27 99l-19 -8z" />
    <glyph glyph-name="paragraph" unicode="&#xb6;" horiz-adv-x="470" 
d="M487 654h48l-115 -654h-48zM316 0h-48l65 368h-49q-85 0 -131 38.5t-34 102.5q11 64 71 104.5t144 40.5h97z" />
    <glyph glyph-name="periodcentered" unicode="&#xb7;" horiz-adv-x="164" 
d="M98 356q6 34 32.5 56.5t60 22.5t52.5 -22.5t13 -56.5t-32.5 -56t-60.5 -22t-52.5 22t-12.5 56z" />
    <glyph glyph-name="cedilla" unicode="&#xb8;" horiz-adv-x="277" 
d="M82 7l-62 -124l42 -7l23 50l-9 7l65 74h-59zM-1 -151q16 -65 101 -65q51 0 86.5 26t43.5 69q6 36 -15 59t-59 23q-33 0 -60.5 -20t-40.5 -54q3 0 5.5 -3.5t1.5 -7.5q20 43 69 43q29 0 43 -11t11 -31q-5 -24 -26 -37.5t-54 -13.5q-56 0 -66 33z" />
    <glyph glyph-name="uni00B9" unicode="&#xb9;" horiz-adv-x="361" 
d="M158 558h249l-17 -95h-249zM143 715l113 21l14 33v-119l-142 -22zM324 473h-106l52 296h106z" />
    <glyph glyph-name="ordmasculine" unicode="&#xba;" horiz-adv-x="440" 
d="M79 318h395l-15 -86h-395zM225 508q-6 -33 12.5 -50.5t60 -17.5t67 17.5t31.5 50.5q5 31 -14.5 48t-60.5 17q-85 0 -96 -65zM119 508q13 75 71.5 116t146.5 41q83 0 130 -41.5t34 -115.5q-14 -76 -73 -118.5t-146.5 -42.5t-132 42.5t-30.5 118.5z" />
    <glyph glyph-name="guillemotright" unicode="&#xbb;" horiz-adv-x="653" 
d="M223 265l-126 84l23 129l240 -151l-27 -153l-291 -136l23 130l152 67l57 9l2 13zM535 265l-126 84l23 129l240 -151l-27 -153l-291 -136l23 130l152 67l57 9l2 13z" />
    <glyph glyph-name="onequarter" unicode="&#xbc;" horiz-adv-x="820" 
d="M672 273l-68 -115l-15 -22v-8h78l30 173h108l-30 -173h38l-16 -86h-38l-8 -47h-108l8 47h-189l19 107l103 163zM136 607l113 21l14 33h106l-38 -211h44l-16 -95h-201l16 95h51l16 89l-120 -19zM667 654h170l-590 -654h-170z" />
    <glyph glyph-name="onehalf" unicode="&#xbd;" horiz-adv-x="834" 
d="M570 89l-1 -9l248 1l-15 -86h-335l30 168l152 7q70 3 74 31q2 10 -11 16t-37 6q-55 0 -76 -43l-96 18q44 110 188 110q71 0 110 -29.5t31 -76.5q-7 -36 -46.5 -66t-103.5 -37l-66 -7zM136 607l113 21l14 33h106l-38 -211h44l-16 -95h-201l16 95h51l16 89l-120 -19z
M667 654h170l-590 -654h-170z" />
    <glyph glyph-name="threequarters" unicode="&#xbe;" horiz-adv-x="865" 
d="M714 273l-69 -115l-15 -22v-8h78l30 173h108l-30 -173h38l-15 -86h-38l-8 -47h-108l8 47h-189l19 107l102 163zM396 509l-1 -5q26 -4 38.5 -23.5t7.5 -46.5q-7 -39 -55 -61.5t-120 -22.5q-148 0 -157 104l103 20q6 -40 69 -40q52 0 56 21q1 8 -11.5 13.5t-33.5 5.5h-70
l12 66h70q21 0 35 5t16 13q2 11 -12.5 17t-39.5 6q-59 0 -78 -33l-95 20q43 97 190 97q72 0 112.5 -23.5t33.5 -62.5q-4 -27 -23.5 -46.5t-46.5 -23.5zM698 654h170l-591 -654h-170z" />
    <glyph glyph-name="questiondown" unicode="&#xbf;" horiz-adv-x="538" 
d="M278 430q-9 -50 -28 -77t-57 -53q-9 -6 -34 -21t-38 -25.5t-31.5 -29t-29.5 -43.5t-17 -58q-16 -89 40 -145.5t168 -56.5q105 0 178.5 49.5t105.5 143.5l-145 30q-31 -87 -114 -87q-41 0 -61.5 17.5t-15.5 44.5q5 28 21 52t31 36t38 27.5t29 20.5q57 45 80 175h-120z
M433 539q-6 -34 -32.5 -56.5t-60 -22.5t-52.5 22.5t-13 56.5t32.5 56t60.5 22t52.5 -22t12.5 -56z" />
    <glyph glyph-name="Agrave" unicode="&#xc0;" horiz-adv-x="784" 
d="M344 886h143l84 -177h-99zM245 285h395l-26 -146h-394zM454 466l-262 -466h-176l371 654h234l145 -654h-176l-102 466v56h-14z" />
    <glyph glyph-name="Aacute" unicode="&#xc1;" horiz-adv-x="784" 
d="M688 886l-190 -177h-99l146 177h143zM245 285h395l-26 -146h-394zM454 466l-262 -466h-176l371 654h234l145 -654h-176l-102 466v56h-14z" />
    <glyph glyph-name="Acircumflex" unicode="&#xc2;" horiz-adv-x="784" 
d="M484 781l-86 -73h-135l168 136h154l120 -136h-135l-60 73l-3 21h-12zM245 285h395l-26 -146h-394zM454 466l-262 -466h-176l371 654h234l145 -654h-176l-102 466v56h-14z" />
    <glyph glyph-name="Atilde" unicode="&#xc3;" horiz-adv-x="784" 
d="M624 832q-6 -29 -15.5 -42t-26.5 -13q-15 0 -28 5.5t-17.5 9.5t-18.5 16q-10 10 -18.5 16.5t-26 12t-40.5 5.5q-57 0 -93 -33.5t-47 -95.5l77 -8q11 59 47 59q12 0 22.5 -4t14.5 -6.5t16 -14t14 -12.5q34 -29 85 -29q111 0 133 127zM245 285h395l-26 -146h-394zM454 466
l-262 -466h-176l371 654h234l145 -654h-176l-102 466v56h-14z" />
    <glyph glyph-name="Adieresis" unicode="&#xc4;" horiz-adv-x="784" 
d="M547 799q5 34 34 58.5t63 24.5t54 -24.5t15 -58.5q-6 -33 -35.5 -58.5t-63 -25.5t-53.5 25.5t-14 58.5zM282 799q5 34 34 58.5t63 24.5t54 -24.5t15 -58.5q-6 -33 -35.5 -58.5t-63 -25.5t-53.5 25.5t-14 58.5zM245 285h395l-26 -146h-394zM454 466l-262 -466h-176
l371 654h234l145 -654h-176l-102 466v56h-14z" />
    <glyph glyph-name="Aring" unicode="&#xc5;" horiz-adv-x="784" 
d="M497 796q24 0 43.5 9.5t21.5 22.5q2 12 -14 21.5t-40 9.5t-44.5 -9.5t-22.5 -21.5q-2 -13 15 -22.5t41 -9.5zM352 828q9 50 58.5 84.5t112.5 34.5t100 -34.5t28 -84.5t-58 -84.5t-112 -34.5t-100.5 34.5t-28.5 84.5zM245 285h395l-26 -146h-394zM454 466l-262 -466h-176
l371 654h234l145 -654h-176l-102 466v56h-14z" />
    <glyph glyph-name="AE" unicode="&#xc6;" horiz-adv-x="930" 
d="M549 654h468l-26 -146h-310l-19 -108h310l-26 -147h-310l-19 -106h311l-26 -147h-469zM243 315h386l-26 -146h-408zM493 487l-292 -487h-185l393 654h140l-22 -123h-14z" />
    <glyph glyph-name="Ccedilla" unicode="&#xc7;" horiz-adv-x="718" 
d="M225 -152l83 20q10 -23 57 -23q50 0 55 31q4 22 -45 22q-34 0 -57 -23l-70 17l67 114h83l-62 -67l14 -10q30 31 72 31q38 0 59 -23t14 -59q-8 -48 -46 -76.5t-94 -28.5q-108 0 -130 75zM767 444l-159 -30q-10 55 -48 83.5t-100 28.5q-87 0 -145.5 -53t-75.5 -149
q-16 -92 24 -142.5t127 -50.5q66 0 117.5 32t74.5 90l149 -31q-47 -117 -146 -181.5t-222 -64.5q-157 0 -234 92t-48 256q30 169 139.5 262.5t266.5 93.5q112 0 186.5 -61.5t93.5 -174.5z" />
    <glyph glyph-name="Egrave" unicode="&#xc8;" horiz-adv-x="662" 
d="M309 886h143l84 -177h-99zM157 654h592l-26 -147h-435l-19 -107h406l-26 -147h-406l-19 -106h435l-26 -147h-592z" />
    <glyph glyph-name="Eacute" unicode="&#xc9;" horiz-adv-x="662" 
d="M653 886l-190 -177h-99l146 177h143zM157 654h592l-26 -147h-435l-19 -107h406l-26 -147h-406l-19 -106h435l-26 -147h-592z" />
    <glyph glyph-name="Ecircumflex" unicode="&#xca;" horiz-adv-x="662" 
d="M449 781l-86 -73h-135l168 136h154l120 -136h-135l-60 73l-3 21h-12zM157 654h592l-26 -147h-435l-19 -107h406l-26 -147h-406l-19 -106h435l-26 -147h-592z" />
    <glyph glyph-name="Edieresis" unicode="&#xcb;" horiz-adv-x="662" 
d="M512 799q5 34 34 58.5t63 24.5t54 -24.5t15 -58.5q-6 -33 -35.5 -58.5t-63 -25.5t-53.5 25.5t-14 58.5zM247 799q5 34 34 58.5t63 24.5t54 -24.5t15 -58.5q-6 -33 -35.5 -58.5t-63 -25.5t-53.5 25.5t-14 58.5zM157 654h592l-26 -147h-435l-19 -107h406l-26 -147h-406
l-19 -106h435l-26 -147h-592z" />
    <glyph glyph-name="Igrave" unicode="&#xcc;" horiz-adv-x="243" 
d="M75 886h143l84 -177h-99zM157 655h157l-116 -655h-157z" />
    <glyph glyph-name="Iacute" unicode="&#xcd;" horiz-adv-x="243" 
d="M419 886l-190 -177h-99l146 177h143zM157 655h157l-116 -655h-157z" />
    <glyph glyph-name="Icircumflex" unicode="&#xce;" horiz-adv-x="243" 
d="M215 781l-86 -73h-135l168 136h154l120 -136h-135l-60 73l-3 21h-12zM157 655h157l-116 -655h-157z" />
    <glyph glyph-name="Idieresis" unicode="&#xcf;" horiz-adv-x="243" 
d="M278 799q5 34 34 58.5t63 24.5t54 -24.5t15 -58.5q-6 -33 -35.5 -58.5t-63 -25.5t-53.5 25.5t-14 58.5zM13 799q5 34 34 58.5t63 24.5t54 -24.5t15 -58.5q-6 -33 -35.5 -58.5t-63 -25.5t-53.5 25.5t-14 58.5zM157 655h157l-116 -655h-157z" />
    <glyph glyph-name="Eth" unicode="&#xd0;" horiz-adv-x="678" 
d="M57 390h374l-22 -127h-374zM38 0l116 654h288q145 0 220 -92t50 -238q-26 -145 -132 -234.5t-254 -89.5h-288zM221 148h120q88 0 143.5 47t70.5 134q16 86 -23 132.5t-127 46.5h-120z" />
    <glyph glyph-name="Ntilde" unicode="&#xd1;" horiz-adv-x="748" 
d="M607 832q-6 -29 -15.5 -42t-26.5 -13q-15 0 -28 5.5t-17.5 9.5t-18.5 16q-10 10 -18.5 16.5t-26 12t-40.5 5.5q-57 0 -93 -33.5t-47 -95.5l77 -8q11 59 47 59q12 0 22.5 -4t14.5 -6.5t16 -14t14 -12.5q34 -29 85 -29q111 0 133 127zM661 654h158l-116 -654h-188l-241 430
l-76 -430h-157l116 654h187l241 -428z" />
    <glyph glyph-name="Ograve" unicode="&#xd2;" horiz-adv-x="729" 
d="M316 886h143l84 -177h-99zM240 327q-16 -93 23 -144.5t124.5 -51.5t142 51.5t73.5 144.5q16 93 -22.5 146t-123.5 53t-143 -53t-74 -146zM82 327q29 165 137.5 259t264.5 94q70 0 127.5 -24.5t96 -68.5t53 -111.5t0.5 -148.5q-29 -166 -137 -258.5t-264 -92.5t-231.5 93
t-46.5 258z" />
    <glyph glyph-name="Oacute" unicode="&#xd3;" horiz-adv-x="729" 
d="M660 886l-190 -177h-99l146 177h143zM240 327q-16 -93 23 -144.5t124.5 -51.5t142 51.5t73.5 144.5q16 93 -22.5 146t-123.5 53t-143 -53t-74 -146zM82 327q29 165 137.5 259t264.5 94q70 0 127.5 -24.5t96 -68.5t53 -111.5t0.5 -148.5q-29 -166 -137 -258.5t-264 -92.5
t-231.5 93t-46.5 258z" />
    <glyph glyph-name="Ocircumflex" unicode="&#xd4;" horiz-adv-x="729" 
d="M456 781l-86 -73h-135l168 136h154l120 -136h-135l-60 73l-3 21h-12zM240 327q-16 -93 23 -144.5t124.5 -51.5t142 51.5t73.5 144.5q16 93 -22.5 146t-123.5 53t-143 -53t-74 -146zM82 327q29 165 137.5 259t264.5 94q70 0 127.5 -24.5t96 -68.5t53 -111.5t0.5 -148.5
q-29 -166 -137 -258.5t-264 -92.5t-231.5 93t-46.5 258z" />
    <glyph glyph-name="Otilde" unicode="&#xd5;" horiz-adv-x="729" 
d="M596 832q-6 -29 -15.5 -42t-26.5 -13q-15 0 -28 5.5t-17.5 9.5t-18.5 16q-10 10 -18.5 16.5t-26 12t-40.5 5.5q-57 0 -93 -33.5t-47 -95.5l77 -8q11 59 47 59q12 0 22.5 -4t14.5 -6.5t16 -14t14 -12.5q34 -29 85 -29q111 0 133 127zM240 327q-16 -93 23 -144.5
t124.5 -51.5t142 51.5t73.5 144.5q16 93 -22.5 146t-123.5 53t-143 -53t-74 -146zM82 327q29 165 137.5 259t264.5 94q70 0 127.5 -24.5t96 -68.5t53 -111.5t0.5 -148.5q-29 -166 -137 -258.5t-264 -92.5t-231.5 93t-46.5 258z" />
    <glyph glyph-name="Odieresis" unicode="&#xd6;" horiz-adv-x="729" 
d="M519 799q5 34 34 58.5t63 24.5t54 -24.5t15 -58.5q-6 -33 -35.5 -58.5t-63 -25.5t-53.5 25.5t-14 58.5zM254 799q5 34 34 58.5t63 24.5t54 -24.5t15 -58.5q-6 -33 -35.5 -58.5t-63 -25.5t-53.5 25.5t-14 58.5zM240 327q-16 -93 23 -144.5t124.5 -51.5t142 51.5
t73.5 144.5q16 93 -22.5 146t-123.5 53t-143 -53t-74 -146zM82 327q29 165 137.5 259t264.5 94q70 0 127.5 -24.5t96 -68.5t53 -111.5t0.5 -148.5q-29 -166 -137 -258.5t-264 -92.5t-231.5 93t-46.5 258z" />
    <glyph glyph-name="multiply" unicode="&#xd7;" horiz-adv-x="488" 
d="M305 354l143 104l73 -89l-145 -94l112 -94l-105 -89l-106 104l-142 -104l-73 89l144 94l-111 94l105 89z" />
    <glyph glyph-name="Oslash" unicode="&#xd8;" horiz-adv-x="729" 
d="M684 680l96 -89l-636 -628l-95 89zM240 327q-16 -93 23 -144.5t124.5 -51.5t142 51.5t73.5 144.5q16 93 -22.5 146t-123.5 53t-143 -53t-74 -146zM82 327q29 165 137.5 259t264.5 94q70 0 127.5 -24.5t96 -68.5t53 -111.5t0.5 -148.5q-29 -166 -137 -258.5t-264 -92.5
t-231.5 93t-46.5 258z" />
    <glyph glyph-name="Ugrave" unicode="&#xd9;" horiz-adv-x="699" 
d="M304 886h143l84 -177h-99zM314 654l-76 -429q-8 -47 27 -72.5t107 -25.5q71 0 113.5 25.5t50.5 72.5l76 429h158l-78 -440q-18 -103 -115.5 -169t-230.5 -66q-138 0 -211.5 65t-55.5 170l78 440h157z" />
    <glyph glyph-name="Uacute" unicode="&#xda;" horiz-adv-x="699" 
d="M648 886l-190 -177h-99l146 177h143zM314 654l-76 -429q-8 -47 27 -72.5t107 -25.5q71 0 113.5 25.5t50.5 72.5l76 429h158l-78 -440q-18 -103 -115.5 -169t-230.5 -66q-138 0 -211.5 65t-55.5 170l78 440h157z" />
    <glyph glyph-name="Ucircumflex" unicode="&#xdb;" horiz-adv-x="699" 
d="M444 781l-86 -73h-135l168 136h154l120 -136h-135l-60 73l-3 21h-12zM314 654l-76 -429q-8 -47 27 -72.5t107 -25.5q71 0 113.5 25.5t50.5 72.5l76 429h158l-78 -440q-18 -103 -115.5 -169t-230.5 -66q-138 0 -211.5 65t-55.5 170l78 440h157z" />
    <glyph glyph-name="Udieresis" unicode="&#xdc;" horiz-adv-x="699" 
d="M507 799q5 34 34 58.5t63 24.5t54 -24.5t15 -58.5q-6 -33 -35.5 -58.5t-63 -25.5t-53.5 25.5t-14 58.5zM242 799q5 34 34 58.5t63 24.5t54 -24.5t15 -58.5q-6 -33 -35.5 -58.5t-63 -25.5t-53.5 25.5t-14 58.5zM314 654l-76 -429q-8 -47 27 -72.5t107 -25.5
q71 0 113.5 25.5t50.5 72.5l76 429h158l-78 -440q-18 -103 -115.5 -169t-230.5 -66q-138 0 -211.5 65t-55.5 170l78 440h157z" />
    <glyph glyph-name="Yacute" unicode="&#xdd;" horiz-adv-x="740" 
d="M670 886l-190 -177h-99l146 177h143zM508 263l329 391h-176l-202 -240l-18 -45h-13l-3 45l-116 240h-178l193 -391h14l-47 -263h158l47 263h12z" />
    <glyph glyph-name="Thorn" unicode="&#xde;" horiz-adv-x="663" 
d="M157 654h157l-21 -116h170q119 0 183.5 -58t48 -149.5t-100.5 -148.5t-204 -57h-170l-22 -125h-157zM267 391l-21 -119h160q58 0 92 15.5t39 44.5t-23.5 44t-86.5 15h-160z" />
    <glyph glyph-name="germandbls" unicode="&#xdf;" horiz-adv-x="642" 
d="M413 0q91 2 155.5 49.5t77.5 124.5q12 68 -19.5 116.5t-96.5 58.5l2 12q54 10 91.5 50.5t48.5 99.5q15 85 -49.5 136.5t-185.5 51.5q-128 0 -210.5 -59.5t-101.5 -166.5l-84 -473h157l86 484q7 41 42 64.5t89 23.5q51 0 77.5 -19t20.5 -53q-6 -31 -30.5 -51.5
t-57.5 -20.5h-75l-26 -147h75q49 0 74.5 -21.5t20.5 -54.5q-5 -28 -31.5 -44.5t-65.5 -16.5h-121l-26 -144h163z" />
    <glyph glyph-name="agrave" unicode="&#xe0;" horiz-adv-x="575" 
d="M244 703h143l84 -177h-99zM208 148q-3 -18 13.5 -27t46.5 -9q56 0 93.5 17.5t42.5 45.5h23q-16 -90 -84 -144.5t-164 -54.5q-69 0 -107.5 38.5t-27.5 98.5t56 95.5t127 51.5l199 40l-17 -95l-142 -29q-56 -12 -59 -28zM531 0h-158l60 110l-37 20l31 174q3 20 -20 32
t-64 12q-43 0 -73 -18t-40 -47l-152 20q28 79 106 130t185 51q109 0 169.5 -49t48.5 -120z" />
    <glyph glyph-name="aacute" unicode="&#xe1;" horiz-adv-x="575" 
d="M588 703l-190 -177h-99l146 177h143zM208 148q-3 -18 13.5 -27t46.5 -9q56 0 93.5 17.5t42.5 45.5h23q-16 -90 -84 -144.5t-164 -54.5q-69 0 -107.5 38.5t-27.5 98.5t56 95.5t127 51.5l199 40l-17 -95l-142 -29q-56 -12 -59 -28zM531 0h-158l60 110l-37 20l31 174
q3 20 -20 32t-64 12q-43 0 -73 -18t-40 -47l-152 20q28 79 106 130t185 51q109 0 169.5 -49t48.5 -120z" />
    <glyph glyph-name="acircumflex" unicode="&#xe2;" horiz-adv-x="575" 
d="M384 598l-86 -73h-135l168 136h154l120 -136h-135l-60 73l-3 21h-12zM208 148q-3 -18 13.5 -27t46.5 -9q56 0 93.5 17.5t42.5 45.5h23q-16 -90 -84 -144.5t-164 -54.5q-69 0 -107.5 38.5t-27.5 98.5t56 95.5t127 51.5l199 40l-17 -95l-142 -29q-56 -12 -59 -28zM531 0
h-158l60 110l-37 20l31 174q3 20 -20 32t-64 12q-43 0 -73 -18t-40 -47l-152 20q28 79 106 130t185 51q109 0 169.5 -49t48.5 -120z" />
    <glyph glyph-name="atilde" unicode="&#xe3;" horiz-adv-x="575" 
d="M524 649q-6 -29 -15.5 -42t-26.5 -13q-15 0 -28 5.5t-17.5 9.5t-18.5 16q-10 10 -18.5 16.5t-26 12t-40.5 5.5q-57 0 -93 -33.5t-47 -95.5l77 -8q11 59 47 59q12 0 22.5 -4t14.5 -6.5t16 -14t14 -12.5q34 -29 85 -29q111 0 133 127zM208 148q-3 -18 13.5 -27t46.5 -9
q56 0 93.5 17.5t42.5 45.5h23q-16 -90 -84 -144.5t-164 -54.5q-69 0 -107.5 38.5t-27.5 98.5t56 95.5t127 51.5l199 40l-17 -95l-142 -29q-56 -12 -59 -28zM531 0h-158l60 110l-37 20l31 174q3 20 -20 32t-64 12q-43 0 -73 -18t-40 -47l-152 20q28 79 106 130t185 51
q109 0 169.5 -49t48.5 -120z" />
    <glyph glyph-name="adieresis" unicode="&#xe4;" horiz-adv-x="575" 
d="M447 616q5 34 34 58.5t63 24.5t54 -24.5t15 -58.5q-6 -33 -35.5 -58.5t-63 -25.5t-53.5 25.5t-14 58.5zM182 616q5 34 34 58.5t63 24.5t54 -24.5t15 -58.5q-6 -33 -35.5 -58.5t-63 -25.5t-53.5 25.5t-14 58.5zM208 148q-3 -18 13.5 -27t46.5 -9q56 0 93.5 17.5t42.5 45.5
h23q-16 -90 -84 -144.5t-164 -54.5q-69 0 -107.5 38.5t-27.5 98.5t56 95.5t127 51.5l199 40l-17 -95l-142 -29q-56 -12 -59 -28zM531 0h-158l60 110l-37 20l31 174q3 20 -20 32t-64 12q-43 0 -73 -18t-40 -47l-152 20q28 79 106 130t185 51q109 0 169.5 -49t48.5 -120z" />
    <glyph glyph-name="aring" unicode="&#xe5;" horiz-adv-x="575" 
d="M396 613q24 0 43.5 9.5t21.5 22.5q2 12 -14 21.5t-40 9.5t-44.5 -9.5t-22.5 -21.5q-2 -13 15 -22.5t41 -9.5zM251 645q9 50 58.5 84.5t112.5 34.5t100 -34.5t28 -84.5t-58 -84.5t-112 -34.5t-100.5 34.5t-28.5 84.5zM208 148q-3 -18 13.5 -27t46.5 -9q56 0 93.5 17.5
t42.5 45.5h23q-16 -90 -84 -144.5t-164 -54.5q-69 0 -107.5 38.5t-27.5 98.5t56 95.5t127 51.5l199 40l-17 -95l-142 -29q-56 -12 -59 -28zM531 0h-158l60 110l-37 20l31 174q3 20 -20 32t-64 12q-43 0 -73 -18t-40 -47l-152 20q28 79 106 130t185 51q109 0 169.5 -49
t48.5 -120z" />
    <glyph glyph-name="ae" unicode="&#xe6;" horiz-adv-x="941" 
d="M550 292l12 68h38l-28 -68h-22zM561 190q-1 -37 29 -57.5t88 -20.5q41 0 71.5 15.5t42.5 42.5l149 -21q-34 -81 -110.5 -126t-178.5 -45q-127 0 -195 71t-48 185q5 28 50 46.5t109 18.5q15 85 74 137.5t138 52.5q99 0 148 -68.5t30 -179.5l-9 -51h-388zM580 293h229
q5 27 -23 44t-76 17q-50 0 -84 -16t-46 -45zM207 142q-2 -14 13.5 -22t44.5 -8q56 0 92.5 17.5t41.5 45.5h23q-16 -89 -78.5 -144t-149.5 -55q-76 0 -118 39t-32 100q22 123 231 155l144 20l-18 -106l-129 -14q-61 -8 -65 -28zM535 109h-59.5h-44t-34 0.5l-9.5 0.5l34 194
q3 20 -21.5 32t-67.5 12q-38 0 -65.5 -17.5t-37.5 -47.5l-152 20q29 83 105 132t175 49q105 0 166 -48t48 -121z" />
    <glyph glyph-name="ccedilla" unicode="&#xe7;" horiz-adv-x="597" 
d="M160 -152l83 20q10 -23 57 -23q50 0 55 31q4 22 -45 22q-34 0 -57 -23l-70 17l67 114h83l-62 -67l14 -10q30 31 72 31q38 0 59 -23t14 -59q-8 -48 -46 -76.5t-94 -28.5q-108 0 -130 75zM625 294l-155 -20q-7 38 -33.5 58t-70.5 20q-57 0 -95 -31.5t-48 -88.5
q-10 -58 16.5 -89.5t84.5 -31.5q47 0 82.5 22.5t51.5 64.5l151 -20q-38 -97 -121.5 -149.5t-187.5 -52.5q-128 0 -192 67.5t-43 188.5q21 120 109 187t216 67q94 0 157 -50t78 -142z" />
    <glyph glyph-name="egrave" unicode="&#xe8;" 
d="M253 703h143l84 -177h-99zM216 188q-2 -37 28 -57t87 -20q44 0 76 12.5t44 34.5l150 -21q-34 -75 -113 -118t-181 -43q-134 0 -198.5 68.5t-43.5 187.5q21 118 107 186t214 68q129 0 191 -68t42 -180l-9 -50h-394zM236 290h233q5 27 -25.5 44.5t-81.5 17.5
q-100 0 -126 -62z" />
    <glyph glyph-name="eacute" unicode="&#xe9;" 
d="M597 703l-190 -177h-99l146 177h143zM216 188q-2 -37 28 -57t87 -20q44 0 76 12.5t44 34.5l150 -21q-34 -75 -113 -118t-181 -43q-134 0 -198.5 68.5t-43.5 187.5q21 118 107 186t214 68q129 0 191 -68t42 -180l-9 -50h-394zM236 290h233q5 27 -25.5 44.5t-81.5 17.5
q-100 0 -126 -62z" />
    <glyph glyph-name="ecircumflex" unicode="&#xea;" 
d="M393 598l-86 -73h-135l168 136h154l120 -136h-135l-60 73l-3 21h-12zM216 188q-2 -37 28 -57t87 -20q44 0 76 12.5t44 34.5l150 -21q-34 -75 -113 -118t-181 -43q-134 0 -198.5 68.5t-43.5 187.5q21 118 107 186t214 68q129 0 191 -68t42 -180l-9 -50h-394zM236 290h233
q5 27 -25.5 44.5t-81.5 17.5q-100 0 -126 -62z" />
    <glyph glyph-name="edieresis" unicode="&#xeb;" 
d="M456 616q5 34 34 58.5t63 24.5t54 -24.5t15 -58.5q-6 -33 -35.5 -58.5t-63 -25.5t-53.5 25.5t-14 58.5zM191 616q5 34 34 58.5t63 24.5t54 -24.5t15 -58.5q-6 -33 -35.5 -58.5t-63 -25.5t-53.5 25.5t-14 58.5zM216 188q-2 -37 28 -57t87 -20q44 0 76 12.5t44 34.5
l150 -21q-34 -75 -113 -118t-181 -43q-134 0 -198.5 68.5t-43.5 187.5q21 118 107 186t214 68q129 0 191 -68t42 -180l-9 -50h-394zM236 290h233q5 27 -25.5 44.5t-81.5 17.5q-100 0 -126 -62z" />
    <glyph glyph-name="igrave" unicode="&#xec;" horiz-adv-x="236" 
d="M74 703h143l84 -177h-99zM122 460h157l-81 -460h-157z" />
    <glyph glyph-name="iacute" unicode="&#xed;" horiz-adv-x="236" 
d="M418 703l-190 -177h-99l146 177h143zM122 460h157l-81 -460h-157z" />
    <glyph glyph-name="icircumflex" unicode="&#xee;" horiz-adv-x="236" 
d="M214 598l-86 -73h-135l168 136h154l120 -136h-135l-60 73l-3 21h-12zM122 460h157l-81 -460h-157z" />
    <glyph glyph-name="idieresis" unicode="&#xef;" horiz-adv-x="236" 
d="M277 616q5 34 34 58.5t63 24.5t54 -24.5t15 -58.5q-6 -33 -35.5 -58.5t-63 -25.5t-53.5 25.5t-14 58.5zM12 616q5 34 34 58.5t63 24.5t54 -24.5t15 -58.5q-6 -33 -35.5 -58.5t-63 -25.5t-53.5 25.5t-14 58.5zM122 460h157l-81 -460h-157z" />
    <glyph glyph-name="eth" unicode="&#xf0;" horiz-adv-x="621" 
d="M297 539l353 161l37 -90l-352 -161zM354 728q47 -12 83 -25.5t72.5 -35t61 -48t44 -65t27.5 -86.5t6.5 -112t-15.5 -142l-158 -2q11 64 16 97l31 8l-16 103q-3 36 -13.5 61.5t-25 42.5t-43 30t-57 21.5t-79.5 19.5zM475 212q6 36 -22 61.5t-89 25.5q-59 0 -98.5 -24
t-46.5 -69q-8 -44 18.5 -69.5t81.5 -25.5q60 0 104 28.5t52 72.5zM633 214q-13 -71 -64 -124t-121.5 -78.5t-149.5 -25.5q-126 0 -190.5 60t-46.5 161q17 100 101.5 163t190.5 63q78 0 120.5 -59.5t25.5 -155.5z" />
    <glyph glyph-name="ntilde" unicode="&#xf1;" horiz-adv-x="612" 
d="M535 649q-6 -29 -15.5 -42t-26.5 -13q-15 0 -28 5.5t-17.5 9.5t-18.5 16q-10 10 -18.5 16.5t-26 12t-40.5 5.5q-57 0 -93 -33.5t-47 -95.5l77 -8q11 59 47 59q12 0 22.5 -4t14.5 -6.5t16 -14t14 -12.5q34 -29 85 -29q111 0 133 127zM459 281q6 32 -20 51t-73 19
q-46 0 -79.5 -20t-38.5 -52h-21q14 81 81 143t153 62q81 0 126.5 -55.5t31.5 -136.5l-52 -292h-158zM123 460h157l-58 -123l34 -13l-58 -324h-157z" />
    <glyph glyph-name="ograve" unicode="&#xf2;" 
d="M253 703h143l84 -177h-99zM223 232q-10 -58 15.5 -89.5t81.5 -31.5t93 31.5t47 89.5q10 57 -16 88.5t-82 31.5t-92.5 -31t-46.5 -89zM65 232q21 121 107.5 187.5t213.5 66.5q119 0 186 -68t46 -186q-21 -121 -108 -188.5t-214 -67.5t-189.5 67.5t-41.5 188.5z" />
    <glyph glyph-name="oacute" unicode="&#xf3;" 
d="M597 703l-190 -177h-99l146 177h143zM223 232q-10 -58 15.5 -89.5t81.5 -31.5t93 31.5t47 89.5q10 57 -16 88.5t-82 31.5t-92.5 -31t-46.5 -89zM65 232q21 121 107.5 187.5t213.5 66.5q119 0 186 -68t46 -186q-21 -121 -108 -188.5t-214 -67.5t-189.5 67.5t-41.5 188.5z
" />
    <glyph glyph-name="ocircumflex" unicode="&#xf4;" 
d="M393 598l-86 -73h-135l168 136h154l120 -136h-135l-60 73l-3 21h-12zM223 232q-10 -58 15.5 -89.5t81.5 -31.5t93 31.5t47 89.5q10 57 -16 88.5t-82 31.5t-92.5 -31t-46.5 -89zM65 232q21 121 107.5 187.5t213.5 66.5q119 0 186 -68t46 -186q-21 -121 -108 -188.5
t-214 -67.5t-189.5 67.5t-41.5 188.5z" />
    <glyph glyph-name="otilde" unicode="&#xf5;" 
d="M533 649q-6 -29 -15.5 -42t-26.5 -13q-15 0 -28 5.5t-17.5 9.5t-18.5 16q-10 10 -18.5 16.5t-26 12t-40.5 5.5q-57 0 -93 -33.5t-47 -95.5l77 -8q11 59 47 59q12 0 22.5 -4t14.5 -6.5t16 -14t14 -12.5q34 -29 85 -29q111 0 133 127zM223 232q-10 -58 15.5 -89.5
t81.5 -31.5t93 31.5t47 89.5q10 57 -16 88.5t-82 31.5t-92.5 -31t-46.5 -89zM65 232q21 121 107.5 187.5t213.5 66.5q119 0 186 -68t46 -186q-21 -121 -108 -188.5t-214 -67.5t-189.5 67.5t-41.5 188.5z" />
    <glyph glyph-name="odieresis" unicode="&#xf6;" 
d="M456 616q5 34 34 58.5t63 24.5t54 -24.5t15 -58.5q-6 -33 -35.5 -58.5t-63 -25.5t-53.5 25.5t-14 58.5zM191 616q5 34 34 58.5t63 24.5t54 -24.5t15 -58.5q-6 -33 -35.5 -58.5t-63 -25.5t-53.5 25.5t-14 58.5zM223 232q-10 -58 15.5 -89.5t81.5 -31.5t93 31.5t47 89.5
q10 57 -16 88.5t-82 31.5t-92.5 -31t-46.5 -89zM65 232q21 121 107.5 187.5t213.5 66.5q119 0 186 -68t46 -186q-21 -121 -108 -188.5t-214 -67.5t-189.5 67.5t-41.5 188.5z" />
    <glyph glyph-name="divide" unicode="&#xf7;" horiz-adv-x="510" 
d="M250 438q6 34 32.5 56.5t60 22.5t52.5 -22.5t13.5 -56.5t-32.5 -56.5t-61 -22.5t-52.5 22.5t-12.5 56.5zM193 110q6 34 32 56.5t60 22.5t53 -22.5t13 -56.5t-33 -56t-60.5 -22t-52 22t-12.5 56zM75 338h476l-22 -126h-476z" />
    <glyph glyph-name="oslash" unicode="&#xf8;" horiz-adv-x="581" 
d="M545 503l59 -75l-501 -469l-58 75zM213 232q-11 -58 14.5 -89.5t81.5 -31.5t93 31.5t48 89.5q10 57 -16 88.5t-82 31.5t-92.5 -31t-46.5 -89zM55 232q21 121 107.5 187.5t212.5 66.5q119 0 186 -68t47 -186q-22 -121 -109 -188.5t-213.5 -67.5t-189.5 67.5t-41 188.5z
" />
    <glyph glyph-name="ugrave" unicode="&#xf9;" horiz-adv-x="612" 
d="M259 703h143l84 -177h-99zM230 173q-6 -34 19 -54t73 -20q46 0 79.5 21t39.5 55h21q-14 -79 -80.5 -139t-152.5 -60q-81 0 -127 53.5t-32 132.5l53 298h158zM567 0h-157l57 117l-34 13l59 330h157z" />
    <glyph glyph-name="uacute" unicode="&#xfa;" horiz-adv-x="612" 
d="M603 703l-190 -177h-99l146 177h143zM230 173q-6 -34 19 -54t73 -20q46 0 79.5 21t39.5 55h21q-14 -79 -80.5 -139t-152.5 -60q-81 0 -127 53.5t-32 132.5l53 298h158zM567 0h-157l57 117l-34 13l59 330h157z" />
    <glyph glyph-name="ucircumflex" unicode="&#xfb;" horiz-adv-x="612" 
d="M399 598l-86 -73h-135l168 136h154l120 -136h-135l-60 73l-3 21h-12zM230 173q-6 -34 19 -54t73 -20q46 0 79.5 21t39.5 55h21q-14 -79 -80.5 -139t-152.5 -60q-81 0 -127 53.5t-32 132.5l53 298h158zM567 0h-157l57 117l-34 13l59 330h157z" />
    <glyph glyph-name="udieresis" unicode="&#xfc;" horiz-adv-x="612" 
d="M462 616q5 34 34 58.5t63 24.5t54 -24.5t15 -58.5q-6 -33 -35.5 -58.5t-63 -25.5t-53.5 25.5t-14 58.5zM197 616q5 34 34 58.5t63 24.5t54 -24.5t15 -58.5q-6 -33 -35.5 -58.5t-63 -25.5t-53.5 25.5t-14 58.5zM230 173q-6 -34 19 -54t73 -20q46 0 79.5 21t39.5 55h21
q-14 -79 -80.5 -139t-152.5 -60q-81 0 -127 53.5t-32 132.5l53 298h158zM567 0h-157l57 117l-34 13l59 330h157z" />
    <glyph glyph-name="yacute" unicode="&#xfd;" horiz-adv-x="627" 
d="M606 703l-190 -177h-99l146 177h143zM363 182l153 278h174l-325 -541q-35 -59 -87.5 -90t-111.5 -31h-150l24 139h84q31 0 48.5 6.5t28.5 22.5l21 34l-125 460h173l57 -278l1 -56h13z" />
    <glyph glyph-name="thorn" unicode="&#xfe;" horiz-adv-x="639" 
d="M210 232q22 121 90 187.5t170 66.5t152.5 -71.5t30.5 -186.5q-21 -115 -94 -183.5t-175 -68.5q-104 0 -149.5 67t-24.5 189zM239 231q-10 -57 18.5 -88.5t89.5 -31.5t99.5 31t48.5 89t-17.5 89.5t-88.5 31.5t-100.5 -32t-49.5 -89zM163 687h157l-40 -227l-61 -114l38 -16
l-36 -200l-42 -16l19 -114l-34 -194h-157z" />
    <glyph glyph-name="ydieresis" unicode="&#xff;" horiz-adv-x="627" 
d="M465 616q5 34 34 58.5t63 24.5t54 -24.5t15 -58.5q-6 -33 -35.5 -58.5t-63 -25.5t-53.5 25.5t-14 58.5zM200 616q5 34 34 58.5t63 24.5t54 -24.5t15 -58.5q-6 -33 -35.5 -58.5t-63 -25.5t-53.5 25.5t-14 58.5zM363 182l153 278h174l-325 -541q-35 -59 -87.5 -90
t-111.5 -31h-150l24 139h84q31 0 48.5 6.5t28.5 22.5l21 34l-125 460h173l57 -278l1 -56h13z" />
    <glyph glyph-name="Amacron" unicode="&#x100;" horiz-adv-x="784" 
d="M337 805h328l-17 -97h-328zM245 285h395l-26 -146h-394zM454 466l-262 -466h-176l371 654h234l145 -654h-176l-102 466v56h-14z" />
    <glyph glyph-name="amacron" unicode="&#x101;" horiz-adv-x="575" 
d="M237 622h328l-17 -97h-328zM208 148q-3 -18 13.5 -27t46.5 -9q56 0 93.5 17.5t42.5 45.5h23q-16 -90 -84 -144.5t-164 -54.5q-69 0 -107.5 38.5t-27.5 98.5t56 95.5t127 51.5l199 40l-17 -95l-142 -29q-56 -12 -59 -28zM531 0h-158l60 110l-37 20l31 174q3 20 -20 32
t-64 12q-43 0 -73 -18t-40 -47l-152 20q28 79 106 130t185 51q109 0 169.5 -49t48.5 -120z" />
    <glyph glyph-name="Abreve" unicode="&#x102;" horiz-adv-x="784" 
d="M586 838q-4 -21 -29.5 -36.5t-58 -15.5t-52.5 15.5t-16 36.5h-113q-10 -56 38 -93.5t129.5 -37.5t143 37.5t71.5 93.5h-113zM245 285h395l-26 -146h-394zM454 466l-262 -466h-176l371 654h234l145 -654h-176l-102 466v56h-14z" />
    <glyph glyph-name="abreve" unicode="&#x103;" horiz-adv-x="575" 
d="M486 655q-4 -21 -29.5 -36.5t-58 -15.5t-52.5 15.5t-16 36.5h-113q-10 -56 38 -93.5t129.5 -37.5t143 37.5t71.5 93.5h-113zM208 148q-3 -18 13.5 -27t46.5 -9q56 0 93.5 17.5t42.5 45.5h23q-16 -90 -84 -144.5t-164 -54.5q-69 0 -107.5 38.5t-27.5 98.5t56 95.5
t127 51.5l199 40l-17 -95l-142 -29q-56 -12 -59 -28zM531 0h-158l60 110l-37 20l31 174q3 20 -20 32t-64 12q-43 0 -73 -18t-40 -47l-152 20q28 79 106 130t185 51q109 0 169.5 -49t48.5 -120z" />
    <glyph glyph-name="Aogonek" unicode="&#x104;" horiz-adv-x="784" 
d="M629 -59q-40 -32 -46 -63q-3 -16 11.5 -24.5t43.5 -8.5q48 0 66 35l78 -12q-23 -46 -61.5 -70.5t-86.5 -24.5q-61 0 -93.5 21.5t-25.5 58.5q5 29 24.5 52.5t66.5 58.5l56 42h48zM245 285h395l-26 -146h-394zM454 466l-262 -466h-176l371 654h234l145 -654h-176l-102 466
v56h-14z" />
    <glyph glyph-name="aogonek" unicode="&#x105;" horiz-adv-x="575" 
d="M308 -59q-40 -32 -46 -63q-3 -16 11.5 -24.5t43.5 -8.5q48 0 66 35l78 -12q-23 -46 -61.5 -70.5t-86.5 -24.5q-61 0 -93.5 21.5t-25.5 58.5q5 29 24.5 52.5t66.5 58.5l56 42h48zM208 148q-3 -18 13.5 -27t46.5 -9q56 0 93.5 17.5t42.5 45.5h23q-16 -90 -84 -144.5
t-164 -54.5q-69 0 -107.5 38.5t-27.5 98.5t56 95.5t127 51.5l199 40l-17 -95l-142 -29q-56 -12 -59 -28zM531 0h-158l60 110l-37 20l31 174q3 20 -20 32t-64 12q-43 0 -73 -18t-40 -47l-152 20q28 79 106 130t185 51q109 0 169.5 -49t48.5 -120z" />
    <glyph glyph-name="Cacute" unicode="&#x106;" horiz-adv-x="718" 
d="M661 886l-190 -177h-99l146 177h143zM767 444l-159 -30q-10 55 -48 83.5t-100 28.5q-87 0 -145.5 -53t-75.5 -149q-16 -92 24 -142.5t127 -50.5q66 0 117.5 32t74.5 90l149 -31q-47 -117 -146 -181.5t-222 -64.5q-157 0 -234 92t-48 256q30 169 139.5 262.5t266.5 93.5
q112 0 186.5 -61.5t93.5 -174.5z" />
    <glyph glyph-name="cacute" unicode="&#x107;" horiz-adv-x="597" 
d="M597 703l-190 -177h-99l146 177h143zM625 294l-155 -20q-7 38 -33.5 58t-70.5 20q-57 0 -95 -31.5t-48 -88.5q-10 -58 16.5 -89.5t84.5 -31.5q47 0 82.5 22.5t51.5 64.5l151 -20q-38 -97 -121.5 -149.5t-187.5 -52.5q-128 0 -192 67.5t-43 188.5q21 120 109 187t216 67
q94 0 157 -50t78 -142z" />
    <glyph glyph-name="Ccircumflex" unicode="&#x108;" horiz-adv-x="718" 
d="M457 781l-86 -73h-135l168 136h154l120 -136h-135l-60 73l-3 21h-12zM767 444l-159 -30q-10 55 -48 83.5t-100 28.5q-87 0 -145.5 -53t-75.5 -149q-16 -92 24 -142.5t127 -50.5q66 0 117.5 32t74.5 90l149 -31q-47 -117 -146 -181.5t-222 -64.5q-157 0 -234 92t-48 256
q30 169 139.5 262.5t266.5 93.5q112 0 186.5 -61.5t93.5 -174.5z" />
    <glyph glyph-name="ccircumflex" unicode="&#x109;" horiz-adv-x="597" 
d="M393 598l-86 -73h-135l168 136h154l120 -136h-135l-60 73l-3 21h-12zM625 294l-155 -20q-7 38 -33.5 58t-70.5 20q-57 0 -95 -31.5t-48 -88.5q-10 -58 16.5 -89.5t84.5 -31.5q47 0 82.5 22.5t51.5 64.5l151 -20q-38 -97 -121.5 -149.5t-187.5 -52.5q-128 0 -192 67.5
t-43 188.5q21 120 109 187t216 67q94 0 157 -50t78 -142z" />
    <glyph glyph-name="Cdotaccent" unicode="&#x10a;" horiz-adv-x="718" 
d="M392 818q6 34 35.5 58.5t63.5 24.5q33 0 53.5 -24.5t14.5 -58.5q-6 -33 -35 -58.5t-63 -25.5q-33 0 -54 25.5t-15 58.5zM767 444l-159 -30q-10 55 -48 83.5t-100 28.5q-87 0 -145.5 -53t-75.5 -149q-16 -92 24 -142.5t127 -50.5q66 0 117.5 32t74.5 90l149 -31
q-47 -117 -146 -181.5t-222 -64.5q-157 0 -234 92t-48 256q30 169 139.5 262.5t266.5 93.5q112 0 186.5 -61.5t93.5 -174.5z" />
    <glyph glyph-name="cdotaccent" unicode="&#x10b;" horiz-adv-x="597" 
d="M328 635q6 34 35.5 58.5t63.5 24.5q33 0 53.5 -24.5t14.5 -58.5q-6 -33 -35 -58.5t-63 -25.5q-33 0 -54 25.5t-15 58.5zM625 294l-155 -20q-7 38 -33.5 58t-70.5 20q-57 0 -95 -31.5t-48 -88.5q-10 -58 16.5 -89.5t84.5 -31.5q47 0 82.5 22.5t51.5 64.5l151 -20
q-38 -97 -121.5 -149.5t-187.5 -52.5q-128 0 -192 67.5t-43 188.5q21 120 109 187t216 67q94 0 157 -50t78 -142z" />
    <glyph glyph-name="Ccaron" unicode="&#x10c;" horiz-adv-x="718" 
d="M482 771l85 73h135l-168 -136h-154l-120 136h135l61 -73l3 -21h12zM767 444l-159 -30q-10 55 -48 83.5t-100 28.5q-87 0 -145.5 -53t-75.5 -149q-16 -92 24 -142.5t127 -50.5q66 0 117.5 32t74.5 90l149 -31q-47 -117 -146 -181.5t-222 -64.5q-157 0 -234 92t-48 256
q30 169 139.5 262.5t266.5 93.5q112 0 186.5 -61.5t93.5 -174.5z" />
    <glyph glyph-name="ccaron" unicode="&#x10d;" horiz-adv-x="597" 
d="M418 588l85 73h135l-168 -136h-154l-120 136h135l61 -73l3 -21h12zM625 294l-155 -20q-7 38 -33.5 58t-70.5 20q-57 0 -95 -31.5t-48 -88.5q-10 -58 16.5 -89.5t84.5 -31.5q47 0 82.5 22.5t51.5 64.5l151 -20q-38 -97 -121.5 -149.5t-187.5 -52.5q-128 0 -192 67.5
t-43 188.5q21 120 109 187t216 67q94 0 157 -50t78 -142z" />
    <glyph glyph-name="Dcaron" unicode="&#x10e;" horiz-adv-x="684" 
d="M439 771l85 73h135l-168 -136h-154l-120 136h135l61 -73l3 -21h12zM41 0l116 654h306q137 0 207 -92t45 -238q-26 -145 -127.5 -234.5t-240.5 -89.5h-306zM224 148h138q79 0 130 47t66 134q16 86 -18.5 132.5t-113.5 46.5h-138z" />
    <glyph glyph-name="dcaron" unicode="&#x10f;" horiz-adv-x="641" 
d="M748 696h144l-125 -178h-75zM470 231q10 58 -16 89.5t-82 31.5q-60 0 -99.5 -31.5t-49.5 -89.5t18 -89t89 -31q56 0 93 31t47 89zM498 231q-22 -122 -88.5 -188.5t-164.5 -66.5q-100 0 -150.5 68t-30.5 184q22 121 100 189.5t176 68.5q95 0 137 -66.5t21 -188.5zM718 687
l-121 -687h-168l59 114l-36 16l35 200l44 16l-21 114l40 227h168z" />
    <glyph glyph-name="Dcroat" unicode="&#x110;" horiz-adv-x="678" 
d="M57 390h374l-22 -127h-374zM38 0l116 654h288q145 0 220 -92t50 -238q-26 -145 -132 -234.5t-254 -89.5h-288zM221 148h120q88 0 143.5 47t70.5 134q16 86 -23 132.5t-127 46.5h-120z" />
    <glyph glyph-name="dcroat" unicode="&#x111;" horiz-adv-x="637" 
d="M390 655l-23 -127h360l23 127h-360zM458 231q-10 -58 -45.5 -89t-88.5 -31q-58 0 -84.5 31t-16.5 89t47.5 89.5t95.5 31.5q54 0 78 -31.5t14 -89.5zM486 231q21 122 -19 188.5t-133 66.5q-95 0 -171.5 -68.5t-98.5 -189.5q-20 -116 29 -184t146 -68q96 0 160.5 66.5
t86.5 188.5zM706 687h-168l-40 -227l21 -114l-44 -16l-35 -200l36 -16l-59 -114h168z" />
    <glyph glyph-name="Emacron" unicode="&#x112;" horiz-adv-x="662" 
d="M302 805h328l-17 -97h-328zM157 654h592l-26 -147h-435l-19 -107h406l-26 -147h-406l-19 -106h435l-26 -147h-592z" />
    <glyph glyph-name="emacron" unicode="&#x113;" 
d="M246 622h328l-17 -97h-328zM216 188q-2 -37 28 -57t87 -20q44 0 76 12.5t44 34.5l150 -21q-34 -75 -113 -118t-181 -43q-134 0 -198.5 68.5t-43.5 187.5q21 118 107 186t214 68q129 0 191 -68t42 -180l-9 -50h-394zM236 290h233q5 27 -25.5 44.5t-81.5 17.5
q-100 0 -126 -62z" />
    <glyph glyph-name="Ebreve" unicode="&#x114;" horiz-adv-x="662" 
d="M551 838q-4 -21 -29.5 -36.5t-58 -15.5t-52.5 15.5t-16 36.5h-113q-10 -56 38 -93.5t129.5 -37.5t143 37.5t71.5 93.5h-113zM157 654h592l-26 -147h-435l-19 -107h406l-26 -147h-406l-19 -106h435l-26 -147h-592z" />
    <glyph glyph-name="ebreve" unicode="&#x115;" 
d="M495 655q-4 -21 -29.5 -36.5t-58 -15.5t-52.5 15.5t-16 36.5h-113q-10 -56 38 -93.5t129.5 -37.5t143 37.5t71.5 93.5h-113zM216 188q-2 -37 28 -57t87 -20q44 0 76 12.5t44 34.5l150 -21q-34 -75 -113 -118t-181 -43q-134 0 -198.5 68.5t-43.5 187.5q21 118 107 186
t214 68q129 0 191 -68t42 -180l-9 -50h-394zM236 290h233q5 27 -25.5 44.5t-81.5 17.5q-100 0 -126 -62z" />
    <glyph glyph-name="Edotaccent" unicode="&#x116;" horiz-adv-x="662" 
d="M384 818q6 34 35.5 58.5t63.5 24.5q33 0 53.5 -24.5t14.5 -58.5q-6 -33 -35 -58.5t-63 -25.5q-33 0 -54 25.5t-15 58.5zM157 654h592l-26 -147h-435l-19 -107h406l-26 -147h-406l-19 -106h435l-26 -147h-592z" />
    <glyph glyph-name="edotaccent" unicode="&#x117;" 
d="M328 635q6 34 35.5 58.5t63.5 24.5q33 0 53.5 -24.5t14.5 -58.5q-6 -33 -35 -58.5t-63 -25.5q-33 0 -54 25.5t-15 58.5zM216 188q-2 -37 28 -57t87 -20q44 0 76 12.5t44 34.5l150 -21q-34 -75 -113 -118t-181 -43q-134 0 -198.5 68.5t-43.5 187.5q21 118 107 186t214 68
q129 0 191 -68t42 -180l-9 -50h-394zM236 290h233q5 27 -25.5 44.5t-81.5 17.5q-100 0 -126 -62z" />
    <glyph glyph-name="Eogonek" unicode="&#x118;" horiz-adv-x="662" 
d="M308 -59q-40 -32 -46 -63q-3 -16 11.5 -24.5t43.5 -8.5q48 0 66 35l78 -12q-23 -46 -61.5 -70.5t-86.5 -24.5q-61 0 -93.5 21.5t-25.5 58.5q5 29 24.5 52.5t66.5 58.5l56 42h48zM157 654h592l-26 -147h-435l-19 -107h406l-26 -147h-406l-19 -106h435l-26 -147h-592z" />
    <glyph glyph-name="eogonek" unicode="&#x119;" 
d="M261 -59q-40 -32 -46 -63q-3 -16 11.5 -24.5t43.5 -8.5q48 0 66 35l78 -12q-23 -46 -61.5 -70.5t-86.5 -24.5q-61 0 -93.5 21.5t-25.5 58.5q5 29 24.5 52.5t66.5 58.5l56 42h48zM216 188q-2 -37 28 -57t87 -20q44 0 76 12.5t44 34.5l150 -21q-34 -75 -113 -118t-181 -43
q-134 0 -198.5 68.5t-43.5 187.5q21 118 107 186t214 68q129 0 191 -68t42 -180l-9 -50h-394zM236 290h233q5 27 -25.5 44.5t-81.5 17.5q-100 0 -126 -62z" />
    <glyph glyph-name="Ecaron" unicode="&#x11a;" horiz-adv-x="662" 
d="M474 771l85 73h135l-168 -136h-154l-120 136h135l61 -73l3 -21h12zM157 654h592l-26 -147h-435l-19 -107h406l-26 -147h-406l-19 -106h435l-26 -147h-592z" />
    <glyph glyph-name="ecaron" unicode="&#x11b;" 
d="M418 588l85 73h135l-168 -136h-154l-120 136h135l61 -73l3 -21h12zM216 188q-2 -37 28 -57t87 -20q44 0 76 12.5t44 34.5l150 -21q-34 -75 -113 -118t-181 -43q-134 0 -198.5 68.5t-43.5 187.5q21 118 107 186t214 68q129 0 191 -68t42 -180l-9 -50h-394zM236 290h233
q5 27 -25.5 44.5t-81.5 17.5q-100 0 -126 -62z" />
    <glyph glyph-name="Gcircumflex" unicode="&#x11c;" horiz-adv-x="718" 
d="M451 781l-86 -73h-135l168 136h154l120 -136h-135l-60 73l-3 21h-12zM767 444q-18 114 -94.5 175t-194.5 61q-150 0 -259 -96t-139 -269q-28 -157 40.5 -248t197.5 -91q108 0 185.5 68.5t95.5 171.5h-26q-6 -38 -58.5 -61.5t-126.5 -23.5q-81 0 -123 51t-26 142
q17 97 74.5 149.5t142.5 52.5q131 0 152 -112zM351 362l-26 -146h248l-12 -67l48 -23l-74 -125h157l64 361h-405z" />
    <glyph glyph-name="gcircumflex" unicode="&#x11d;" horiz-adv-x="542" 
d="M319 696l-86 -73h-135l168 136h154l120 -136h-135l-60 73l-3 21h-12zM84 328q12 68 86.5 113t184.5 45q115 0 176 -50.5t46 -133.5q-13 -73 -84 -119t-170 -46q-11 9 -35 14t-42.5 5.5t-53.5 0.5l4 20q-63 4 -92.5 47t-19.5 104zM239 308q-4 -23 17.5 -36t64.5 -13
t69.5 13t30.5 36q4 22 -18 34t-65 12t-69 -12t-30 -34zM532 485q-27 0 -30 -17q-1 -8 10 -25l-58 23l14 21q-30 27 -24 61q6 31 33 48t71 17h101l-23 -128h-94zM-8 -105q8 45 55 71t119 26l2 12q-54 7 -79.5 27.5t-19.5 54.5q7 42 63.5 61.5t172.5 19.5l18 -30
q-90 0 -93 -15q-2 -15 102 -24q119 -13 163.5 -58t32.5 -110q-13 -77 -92 -121.5t-202 -44.5q-122 0 -187.5 35.5t-54.5 95.5zM157 -60q-3 -16 25 -25t79 -9q105 0 111 33q2 11 -15 18t-75 18q-54 0 -88 -9.5t-37 -25.5z" />
    <glyph glyph-name="Gbreve" unicode="&#x11e;" horiz-adv-x="718" 
d="M553 838q-4 -21 -29.5 -36.5t-58 -15.5t-52.5 15.5t-16 36.5h-113q-10 -56 38 -93.5t129.5 -37.5t143 37.5t71.5 93.5h-113zM767 444q-18 114 -94.5 175t-194.5 61q-150 0 -259 -96t-139 -269q-28 -157 40.5 -248t197.5 -91q108 0 185.5 68.5t95.5 171.5h-26
q-6 -38 -58.5 -61.5t-126.5 -23.5q-81 0 -123 51t-26 142q17 97 74.5 149.5t142.5 52.5q131 0 152 -112zM351 362l-26 -146h248l-12 -67l48 -23l-74 -125h157l64 361h-405z" />
    <glyph glyph-name="gbreve" unicode="&#x11f;" horiz-adv-x="542" 
d="M421 753q-4 -21 -29.5 -36.5t-58 -15.5t-52.5 15.5t-16 36.5h-113q-10 -56 38 -93.5t129.5 -37.5t143 37.5t71.5 93.5h-113zM84 328q12 68 86.5 113t184.5 45q115 0 176 -50.5t46 -133.5q-13 -73 -84 -119t-170 -46q-11 9 -35 14t-42.5 5.5t-53.5 0.5l4 20
q-63 4 -92.5 47t-19.5 104zM239 308q-4 -23 17.5 -36t64.5 -13t69.5 13t30.5 36q4 22 -18 34t-65 12t-69 -12t-30 -34zM532 485q-27 0 -30 -17q-1 -8 10 -25l-58 23l14 21q-30 27 -24 61q6 31 33 48t71 17h101l-23 -128h-94zM-8 -105q8 45 55 71t119 26l2 12
q-54 7 -79.5 27.5t-19.5 54.5q7 42 63.5 61.5t172.5 19.5l18 -30q-90 0 -93 -15q-2 -15 102 -24q119 -13 163.5 -58t32.5 -110q-13 -77 -92 -121.5t-202 -44.5q-122 0 -187.5 35.5t-54.5 95.5zM157 -60q-3 -16 25 -25t79 -9q105 0 111 33q2 11 -15 18t-75 18q-54 0 -88 -9.5
t-37 -25.5z" />
    <glyph glyph-name="Gdotaccent" unicode="&#x120;" horiz-adv-x="718" 
d="M386 818q6 34 35.5 58.5t63.5 24.5q33 0 53.5 -24.5t14.5 -58.5q-6 -33 -35 -58.5t-63 -25.5q-33 0 -54 25.5t-15 58.5zM767 444q-18 114 -94.5 175t-194.5 61q-150 0 -259 -96t-139 -269q-28 -157 40.5 -248t197.5 -91q108 0 185.5 68.5t95.5 171.5h-26
q-6 -38 -58.5 -61.5t-126.5 -23.5q-81 0 -123 51t-26 142q17 97 74.5 149.5t142.5 52.5q131 0 152 -112zM351 362l-26 -146h248l-12 -67l48 -23l-74 -125h157l64 361h-405z" />
    <glyph glyph-name="gdotaccent" unicode="&#x121;" horiz-adv-x="542" 
d="M254 733q6 34 35.5 58.5t63.5 24.5q33 0 53.5 -24.5t14.5 -58.5q-6 -33 -35 -58.5t-63 -25.5q-33 0 -54 25.5t-15 58.5zM84 328q12 68 86.5 113t184.5 45q115 0 176 -50.5t46 -133.5q-13 -73 -84 -119t-170 -46q-11 9 -35 14t-42.5 5.5t-53.5 0.5l4 20q-63 4 -92.5 47
t-19.5 104zM239 308q-4 -23 17.5 -36t64.5 -13t69.5 13t30.5 36q4 22 -18 34t-65 12t-69 -12t-30 -34zM532 485q-27 0 -30 -17q-1 -8 10 -25l-58 23l14 21q-30 27 -24 61q6 31 33 48t71 17h101l-23 -128h-94zM-8 -105q8 45 55 71t119 26l2 12q-54 7 -79.5 27.5t-19.5 54.5
q7 42 63.5 61.5t172.5 19.5l18 -30q-90 0 -93 -15q-2 -15 102 -24q119 -13 163.5 -58t32.5 -110q-13 -77 -92 -121.5t-202 -44.5q-122 0 -187.5 35.5t-54.5 95.5zM157 -60q-3 -16 25 -25t79 -9q105 0 111 33q2 11 -15 18t-75 18q-54 0 -88 -9.5t-37 -25.5z" />
    <glyph glyph-name="uni0122" unicode="&#x122;" horiz-adv-x="718" 
d="M269 -124q6 34 32.5 56.5t60.5 22.5t52.5 -22.5t12.5 -56.5q-11 -65 -35 -112t-57 -72.5t-69.5 -37.5t-78.5 -12l4 82q155 0 194 94q-21 -20 -51 -20q-33 0 -52 22t-13 56zM767 444q-18 114 -94.5 175t-194.5 61q-150 0 -259 -96t-139 -269q-28 -157 40.5 -248t197.5 -91
q108 0 185.5 68.5t95.5 171.5h-26q-6 -38 -58.5 -61.5t-126.5 -23.5q-81 0 -123 51t-26 142q17 97 74.5 149.5t142.5 52.5q131 0 152 -112zM351 362l-26 -146h248l-12 -67l48 -23l-74 -125h157l64 361h-405z" />
    <glyph glyph-name="uni0123" unicode="&#x123;" horiz-adv-x="542" 
d="M413 701q-6 -34 -32.5 -56.5t-60.5 -22.5t-52.5 22.5t-12.5 56.5q11 65 35 112t57 72.5t69.5 37.5t78.5 12l-4 -82q-155 0 -194 -94q21 20 51 20q34 0 52.5 -22t12.5 -56zM84 328q12 68 86.5 113t184.5 45q115 0 176 -50.5t46 -133.5q-13 -73 -84 -119t-170 -46
q-11 9 -35 14t-42.5 5.5t-53.5 0.5l4 20q-63 4 -92.5 47t-19.5 104zM239 308q-4 -23 17.5 -36t64.5 -13t69.5 13t30.5 36q4 22 -18 34t-65 12t-69 -12t-30 -34zM532 485q-27 0 -30 -17q-1 -8 10 -25l-58 23l14 21q-30 27 -24 61q6 31 33 48t71 17h101l-23 -128h-94zM-8 -105
q8 45 55 71t119 26l2 12q-54 7 -79.5 27.5t-19.5 54.5q7 42 63.5 61.5t172.5 19.5l18 -30q-90 0 -93 -15q-2 -15 102 -24q119 -13 163.5 -58t32.5 -110q-13 -77 -92 -121.5t-202 -44.5q-122 0 -187.5 35.5t-54.5 95.5zM157 -60q-3 -16 25 -25t79 -9q105 0 111 33
q2 11 -15 18t-75 18q-54 0 -88 -9.5t-37 -25.5z" />
    <glyph glyph-name="Hcircumflex" unicode="&#x124;" horiz-adv-x="708" 
d="M445 781l-86 -73h-135l168 136h154l120 -136h-135l-60 73l-3 21h-12zM189 410h461l-26 -147h-461zM621 654h158l-116 -654h-158zM157 654h157l-116 -654h-157z" />
    <glyph glyph-name="hcircumflex" unicode="&#x125;" horiz-adv-x="612" 
d="M210 802l-86 -73h-135l168 136h154l120 -136h-135l-60 73l-3 21h-12zM460 287q5 29 -21 46.5t-73 17.5q-46 0 -79 -18.5t-38 -47.5h-21q14 79 80.5 139t152.5 60q81 0 127 -54t32 -132l-53 -298h-158zM280 460l-57 -117l34 -13l-59 -330h-157l122 687h157z" />
    <glyph glyph-name="Hbar" unicode="&#x126;" horiz-adv-x="703" 
d="M154 654h157l-13 -74h307l13 74h158l-13 -74h40l-22 -126h-40l-80 -454h-158l46 263h-307l-46 -263h-157l80 454h-39l22 126h39zM575 410l8 44h-307l-8 -44h307z" />
    <glyph glyph-name="hbar" unicode="&#x127;" horiz-adv-x="604" 
d="M84 655h391l-23 -127h-391zM456 287q5 29 -19 46.5t-69 17.5q-44 0 -75 -18.5t-37 -47.5h-21q14 79 79 139t149 60q78 0 122.5 -53.5t30.5 -132.5l-53 -298h-158zM287 460l-56 -117l33 -13l-58 -330h-157l121 687h157z" />
    <glyph glyph-name="Itilde" unicode="&#x128;" horiz-adv-x="243" 
d="M355 832q-6 -29 -15.5 -42t-26.5 -13q-15 0 -28 5.5t-17.5 9.5t-18.5 16q-10 10 -18.5 16.5t-26 12t-40.5 5.5q-57 0 -93 -33.5t-47 -95.5l77 -8q11 59 47 59q12 0 22.5 -4t14.5 -6.5t16 -14t14 -12.5q34 -29 85 -29q111 0 133 127zM157 655h157l-116 -655h-157z" />
    <glyph glyph-name="itilde" unicode="&#x129;" horiz-adv-x="236" 
d="M354 649q-6 -29 -15.5 -42t-26.5 -13q-15 0 -28 5.5t-17.5 9.5t-18.5 16q-10 10 -18.5 16.5t-26 12t-40.5 5.5q-57 0 -93 -33.5t-47 -95.5l77 -8q11 59 47 59q12 0 22.5 -4t14.5 -6.5t16 -14t14 -12.5q34 -29 85 -29q111 0 133 127zM122 460h157l-81 -460h-157z" />
    <glyph glyph-name="Imacron" unicode="&#x12a;" horiz-adv-x="243" 
d="M68 805h328l-17 -97h-328zM157 655h157l-116 -655h-157z" />
    <glyph glyph-name="imacron" unicode="&#x12b;" horiz-adv-x="236" 
d="M67 622h328l-17 -97h-328zM122 460h157l-81 -460h-157z" />
    <glyph glyph-name="Ibreve" unicode="&#x12c;" horiz-adv-x="243" 
d="M317 838q-4 -21 -29.5 -36.5t-58 -15.5t-52.5 15.5t-16 36.5h-113q-10 -56 38 -93.5t129.5 -37.5t143 37.5t71.5 93.5h-113zM157 655h157l-116 -655h-157z" />
    <glyph glyph-name="ibreve" unicode="&#x12d;" horiz-adv-x="236" 
d="M316 655q-4 -21 -29.5 -36.5t-58 -15.5t-52.5 15.5t-16 36.5h-113q-10 -56 38 -93.5t129.5 -37.5t143 37.5t71.5 93.5h-113zM122 460h157l-81 -460h-157z" />
    <glyph glyph-name="Iogonek" unicode="&#x12e;" horiz-adv-x="243" 
d="M70 -59q-40 -32 -46 -63q-3 -16 11.5 -24.5t43.5 -8.5q48 0 66 35l78 -12q-23 -46 -61.5 -70.5t-86.5 -24.5q-61 0 -93.5 21.5t-25.5 58.5q5 29 24.5 52.5t66.5 58.5l56 42h48zM157 655h157l-116 -655h-157z" />
    <glyph glyph-name="iogonek" unicode="&#x12f;" horiz-adv-x="236" 
d="M71 -59q-40 -32 -46 -63q-3 -16 11.5 -24.5t43.5 -8.5q48 0 66 35l78 -12q-23 -46 -61.5 -70.5t-86.5 -24.5q-61 0 -93.5 21.5t-25.5 58.5q5 29 24.5 52.5t66.5 58.5l56 42h48zM133 588q7 36 37.5 62t66.5 26t57.5 -26t14.5 -62q-6 -36 -36.5 -62.5t-66.5 -26.5
t-57.5 26.5t-15.5 62.5zM122 460h157l-81 -460h-157z" />
    <glyph glyph-name="Idotaccent" unicode="&#x130;" horiz-adv-x="243" 
d="M150 818q6 34 35.5 58.5t63.5 24.5q33 0 53.5 -24.5t14.5 -58.5q-6 -33 -35 -58.5t-63 -25.5q-33 0 -54 25.5t-15 58.5zM157 655h157l-116 -655h-157z" />
    <glyph glyph-name="dotlessi" unicode="&#x131;" horiz-adv-x="236" 
d="M122 460h157l-81 -460h-157z" />
    <glyph glyph-name="IJ" unicode="&#x132;" horiz-adv-x="777" 
d="M848 654l-88 -496q-13 -77 -90 -128t-185 -51q-109 0 -164.5 55.5t-51.5 158.5l157 20q-3 -40 19 -65t63 -25q40 0 66.5 12.5t29.5 33.5l86 485h158zM157 655h157l-116 -655h-157z" />
    <glyph glyph-name="ij" unicode="&#x133;" horiz-adv-x="473" 
d="M368 588q7 36 37.5 62t66.5 26t57.5 -26t14.5 -62q-6 -36 -36.5 -62.5t-66.5 -26.5t-57.5 26.5t-15.5 62.5zM122 460h157l-81 -460h-157zM133 588q7 36 37.5 62t66.5 26t57.5 -26t14.5 -62q-6 -36 -36.5 -62.5t-66.5 -26.5t-57.5 26.5t-15.5 62.5zM357 460h157l-84 -474
q-14 -80 -83.5 -127t-172.5 -47h-70l26 148h70q28 0 51.5 16.5t27.5 40.5z" />
    <glyph glyph-name="Jcircumflex" unicode="&#x134;" horiz-adv-x="645" 
d="M572 781l-86 -73h-135l168 136h154l120 -136h-135l-60 73l-3 21h-12zM717 654h-158l-81 -455q-6 -34 -44.5 -55t-96.5 -21t-89 33t-28 87l-160 -40q-1 -99 65.5 -161.5t187.5 -62.5q127 0 216 59.5t105 149.5z" />
    <glyph glyph-name="jcircumflex" unicode="&#x135;" horiz-adv-x="228" 
d="M203 598l-86 -73h-135l168 136h154l120 -136h-135l-60 73l-3 21h-12zM117 460h157l-84 -474q-14 -78 -83.5 -124t-172.5 -46h-70l26 148h70q28 0 51 15t27 38z" />
    <glyph glyph-name="uni0136" unicode="&#x136;" horiz-adv-x="736" 
d="M259 -124q6 34 32.5 56.5t60.5 22.5t52.5 -22.5t12.5 -56.5q-11 -65 -35 -112t-57 -72.5t-69.5 -37.5t-78.5 -12l4 82q155 0 194 94q-21 -20 -51 -20q-33 0 -52 22t-13 56zM157 654h157l-50 -281l367 281h202l-343 -290l227 -364h-212l-156 270l-118 -87l-33 -183h-157z
" />
    <glyph glyph-name="uni0137" unicode="&#x137;" horiz-adv-x="631" 
d="M203 -124q6 34 32.5 56.5t60.5 22.5t52.5 -22.5t12.5 -56.5q-11 -65 -35 -112t-57 -72.5t-69.5 -37.5t-78.5 -12l4 82q155 0 194 94q-21 -20 -51 -20q-33 0 -52 22t-13 56zM163 687h157l-75 -420l258 193h196l-245 -200l163 -260h-190l-109 177l-102 -76l-18 -101h-157z
" />
    <glyph glyph-name="kgreenlandic" unicode="&#x138;" horiz-adv-x="552" 
d="M123 460h157l-31 -175l176 175h190l-208 -212l126 -248h-184l-67 156l-68 -67l-16 -89h-157z" />
    <glyph glyph-name="Lacute" unicode="&#x139;" horiz-adv-x="662" 
d="M416 886l-190 -177h-99l146 177h143zM157 654h157l-90 -507h435l-26 -147h-592z" />
    <glyph glyph-name="lacute" unicode="&#x13a;" horiz-adv-x="243" 
d="M416 907l-190 -177h-99l146 177h143zM163 687h157l-122 -687h-157z" />
    <glyph glyph-name="uni013B" unicode="&#x13b;" horiz-adv-x="662" 
d="M255 -124q6 34 32.5 56.5t60.5 22.5t52.5 -22.5t12.5 -56.5q-11 -65 -35 -112t-57 -72.5t-69.5 -37.5t-78.5 -12l4 82q155 0 194 94q-21 -20 -51 -20q-33 0 -52 22t-13 56zM157 654h157l-90 -507h435l-26 -147h-592z" />
    <glyph glyph-name="uni013C" unicode="&#x13c;" horiz-adv-x="243" 
d="M19 -124q6 34 32.5 56.5t60.5 22.5t52.5 -22.5t12.5 -56.5q-11 -65 -35 -112t-57 -72.5t-69.5 -37.5t-78.5 -12l4 82q155 0 194 94q-21 -20 -51 -20q-33 0 -52 22t-13 56zM163 687h157l-122 -687h-157z" />
    <glyph glyph-name="Lcaron" unicode="&#x13d;" horiz-adv-x="662" 
d="M353 675h144l-125 -178h-75zM157 654h157l-90 -507h435l-26 -147h-592z" />
    <glyph glyph-name="lcaron" unicode="&#x13e;" horiz-adv-x="243" 
d="M353 696h144l-125 -178h-75zM163 687h157l-122 -687h-157z" />
    <glyph glyph-name="Ldot" unicode="&#x13f;" horiz-adv-x="662" 
d="M334 340q6 34 32.5 56.5t60 22.5t52.5 -22.5t13 -56.5t-32.5 -56t-60.5 -22t-52.5 22t-12.5 56zM157 654h157l-90 -507h435l-26 -147h-592z" />
    <glyph glyph-name="ldot" unicode="&#x140;" horiz-adv-x="405" 
d="M339 356q6 34 32.5 56.5t60 22.5t52.5 -22.5t13 -56.5t-32.5 -56t-60.5 -22t-52.5 22t-12.5 56zM163 687h157l-122 -687h-157z" />
    <glyph glyph-name="Lslash" unicode="&#x141;" horiz-adv-x="570" 
d="M152 654h157l-39 -219l148 44l22 -143l-198 -59l-22 -130h351l-26 -147h-508l39 225l-30 -9l-22 143l80 25z" />
    <glyph glyph-name="lslash" unicode="&#x142;" horiz-adv-x="262" 
d="M175 687h157l-39 -224l73 25l13 -144l-113 -36l-55 -308h-157l46 262l-77 -26l-12 143l117 37z" />
    <glyph glyph-name="Nacute" unicode="&#x143;" horiz-adv-x="748" 
d="M671 886l-190 -177h-99l146 177h143zM661 654h158l-116 -654h-188l-241 430l-76 -430h-157l116 654h187l241 -428z" />
    <glyph glyph-name="nacute" unicode="&#x144;" horiz-adv-x="612" 
d="M599 703l-190 -177h-99l146 177h143zM459 281q6 32 -20 51t-73 19q-46 0 -79.5 -20t-38.5 -52h-21q14 81 81 143t153 62q81 0 126.5 -55.5t31.5 -136.5l-52 -292h-158zM123 460h157l-58 -123l34 -13l-58 -324h-157z" />
    <glyph glyph-name="uni0145" unicode="&#x145;" horiz-adv-x="748" 
d="M275 -124q6 34 32.5 56.5t60.5 22.5t52.5 -22.5t12.5 -56.5q-11 -65 -35 -112t-57 -72.5t-69.5 -37.5t-78.5 -12l4 82q155 0 194 94q-21 -20 -51 -20q-33 0 -52 22t-13 56zM661 654h158l-116 -654h-188l-241 430l-76 -430h-157l116 654h187l241 -428z" />
    <glyph glyph-name="uni0146" unicode="&#x146;" horiz-adv-x="612" 
d="M211 -124q6 34 32.5 56.5t60.5 22.5t52.5 -22.5t12.5 -56.5q-11 -65 -35 -112t-57 -72.5t-69.5 -37.5t-78.5 -12l4 82q155 0 194 94q-21 -20 -51 -20q-33 0 -52 22t-13 56zM459 281q6 32 -20 51t-73 19q-46 0 -79.5 -20t-38.5 -52h-21q14 81 81 143t153 62
q81 0 126.5 -55.5t31.5 -136.5l-52 -292h-158zM123 460h157l-58 -123l34 -13l-58 -324h-157z" />
    <glyph glyph-name="Ncaron" unicode="&#x147;" horiz-adv-x="748" 
d="M492 771l85 73h135l-168 -136h-154l-120 136h135l61 -73l3 -21h12zM661 654h158l-116 -654h-188l-241 430l-76 -430h-157l116 654h187l241 -428z" />
    <glyph glyph-name="ncaron" unicode="&#x148;" horiz-adv-x="612" 
d="M420 588l85 73h135l-168 -136h-154l-120 136h135l61 -73l3 -21h12zM459 281q6 32 -20 51t-73 19q-46 0 -79.5 -20t-38.5 -52h-21q14 81 81 143t153 62q81 0 126.5 -55.5t31.5 -136.5l-52 -292h-158zM123 460h157l-58 -123l34 -13l-58 -324h-157z" />
    <glyph glyph-name="napostrophe" unicode="&#x149;" horiz-adv-x="780" 
d="M627 281q6 32 -20 51t-73 19q-46 0 -79.5 -20t-38.5 -52h-21q14 81 81 143t153 62q81 0 126.5 -55.5t31.5 -136.5l-52 -292h-158zM291 460h157l-58 -123l34 -13l-58 -324h-157zM158 687h131l-143 -219h-63z" />
    <glyph glyph-name="Eng" unicode="&#x14a;" horiz-adv-x="697" 
d="M157 654h157l-71 -168l38 -15l-83 -471h-157zM570 428q9 54 -24.5 86t-98.5 32q-67 0 -115.5 -33.5t-57.5 -86.5h-21q19 111 93.5 177t178.5 66t163 -67t42 -164l-81 -455q-15 -89 -83 -138t-169 -49h-72l27 149h52q81 0 89 49z" />
    <glyph glyph-name="eng" unicode="&#x14b;" horiz-adv-x="612" 
d="M123 460h157l-62 -114l39 -16l-59 -330h-157zM460 287q5 29 -19.5 46.5t-70.5 17.5q-48 0 -82 -18.5t-39 -47.5h-21q16 90 77 144.5t146 54.5t134 -53.5t35 -132.5l-58 -328q-14 -78 -67 -121t-132 -43h-86l25 139h46q21 0 38 10.5t20 25.5z" />
    <glyph glyph-name="Omacron" unicode="&#x14c;" horiz-adv-x="729" 
d="M309 805h328l-17 -97h-328zM240 327q-16 -93 23 -144.5t124.5 -51.5t142 51.5t73.5 144.5q16 93 -22.5 146t-123.5 53t-143 -53t-74 -146zM82 327q29 165 137.5 259t264.5 94q70 0 127.5 -24.5t96 -68.5t53 -111.5t0.5 -148.5q-29 -166 -137 -258.5t-264 -92.5t-231.5 93
t-46.5 258z" />
    <glyph glyph-name="omacron" unicode="&#x14d;" 
d="M246 622h328l-17 -97h-328zM223 232q-10 -58 15.5 -89.5t81.5 -31.5t93 31.5t47 89.5q10 57 -16 88.5t-82 31.5t-92.5 -31t-46.5 -89zM65 232q21 121 107.5 187.5t213.5 66.5q119 0 186 -68t46 -186q-21 -121 -108 -188.5t-214 -67.5t-189.5 67.5t-41.5 188.5z" />
    <glyph glyph-name="Obreve" unicode="&#x14e;" horiz-adv-x="729" 
d="M558 838q-4 -21 -29.5 -36.5t-58 -15.5t-52.5 15.5t-16 36.5h-113q-10 -56 38 -93.5t129.5 -37.5t143 37.5t71.5 93.5h-113zM240 327q-16 -93 23 -144.5t124.5 -51.5t142 51.5t73.5 144.5q16 93 -22.5 146t-123.5 53t-143 -53t-74 -146zM82 327q29 165 137.5 259
t264.5 94q70 0 127.5 -24.5t96 -68.5t53 -111.5t0.5 -148.5q-29 -166 -137 -258.5t-264 -92.5t-231.5 93t-46.5 258z" />
    <glyph glyph-name="obreve" unicode="&#x14f;" 
d="M495 655q-4 -21 -29.5 -36.5t-58 -15.5t-52.5 15.5t-16 36.5h-113q-10 -56 38 -93.5t129.5 -37.5t143 37.5t71.5 93.5h-113zM223 232q-10 -58 15.5 -89.5t81.5 -31.5t93 31.5t47 89.5q10 57 -16 88.5t-82 31.5t-92.5 -31t-46.5 -89zM65 232q21 121 107.5 187.5
t213.5 66.5q119 0 186 -68t46 -186q-21 -121 -108 -188.5t-214 -67.5t-189.5 67.5t-41.5 188.5z" />
    <glyph glyph-name="Ohungarumlaut" unicode="&#x150;" horiz-adv-x="729" 
d="M702 886l-172 -177h-99l128 177h143zM515 886l-172 -177h-99l128 177h143zM240 327q-16 -93 23 -144.5t124.5 -51.5t142 51.5t73.5 144.5q16 93 -22.5 146t-123.5 53t-143 -53t-74 -146zM82 327q29 165 137.5 259t264.5 94q70 0 127.5 -24.5t96 -68.5t53 -111.5
t0.5 -148.5q-29 -166 -137 -258.5t-264 -92.5t-231.5 93t-46.5 258z" />
    <glyph glyph-name="ohungarumlaut" unicode="&#x151;" 
d="M639 703l-172 -177h-99l128 177h143zM452 703l-172 -177h-99l128 177h143zM223 232q-10 -58 15.5 -89.5t81.5 -31.5t93 31.5t47 89.5q10 57 -16 88.5t-82 31.5t-92.5 -31t-46.5 -89zM65 232q21 121 107.5 187.5t213.5 66.5q119 0 186 -68t46 -186q-21 -121 -108 -188.5
t-214 -67.5t-189.5 67.5t-41.5 188.5z" />
    <glyph glyph-name="OE" unicode="&#x152;" horiz-adv-x="1047" 
d="M620 654h514l-26 -146h-356l-19 -108h356l-26 -147h-356l-19 -106h356l-26 -147h-514l16 87l-32 3l84 234v226l30 2zM239 324q-18 -102 15 -157.5t108.5 -55.5t127.5 55.5t70 157.5q18 101 -14.5 156.5t-108 55.5t-128 -55.5t-70.5 -156.5zM81 324q29 164 117.5 255
t212.5 91q102 0 153 -92.5t22 -253.5q-29 -165 -108.5 -256.5t-188.5 -91.5q-124 0 -180.5 91.5t-27.5 256.5z" />
    <glyph glyph-name="oe" unicode="&#x153;" horiz-adv-x="987" 
d="M530 205l-15 -85h-81l36 85h60zM223 232q-10 -58 13 -89.5t74 -31.5q58 0 96.5 31.5t48.5 89.5q10 57 -17 88.5t-86 31.5q-51 0 -85 -31.5t-44 -88.5zM65 232q21 121 105 187.5t206 66.5q121 0 189.5 -68t47.5 -186q-3 -16 -72 -26.5t-78 -21.5q-20 -92 -78.5 -150
t-138.5 -58q-104 0 -153 67.5t-28 188.5zM571 269l12 69h44l-17 -69h-39zM607 190q-1 -37 29 -57.5t88 -20.5q41 0 71.5 15.5t42.5 42.5l149 -21q-34 -81 -110.5 -126t-178.5 -45q-127 0 -194.5 71t-47.5 185q5 28 50 46.5t109 18.5q15 85 73.5 137.5t137.5 52.5
q99 0 149.5 -60t33.5 -158l-14 -81h-388zM626 293h229q5 27 -23 44t-76 17q-50 0 -84 -16t-46 -45z" />
    <glyph glyph-name="Racute" unicode="&#x154;" horiz-adv-x="660" 
d="M625 886l-190 -177h-99l146 177h143zM365 276h170l101 -276h-168zM41 0l116 654h327q118 0 181.5 -64t46.5 -164q-17 -96 -102 -155t-204 -59h-170l-38 -212h-157zM262 358h160q57 0 91.5 18.5t40.5 52.5q7 38 -20.5 58.5t-85.5 20.5h-160z" />
    <glyph glyph-name="racute" unicode="&#x155;" horiz-adv-x="458" 
d="M539 703l-190 -177h-99l146 177h143zM123 460h157l-61 -114l38 -16l-59 -330h-157zM405 324q-62 0 -110 -25t-55 -64l-11 50q14 84 74.5 134.5t146.5 50.5h72l-25 -146h-92z" />
    <glyph glyph-name="uni0156" unicode="&#x156;" horiz-adv-x="660" 
d="M229 -124q6 34 32.5 56.5t60.5 22.5t52.5 -22.5t12.5 -56.5q-11 -65 -35 -112t-57 -72.5t-69.5 -37.5t-78.5 -12l4 82q155 0 194 94q-21 -20 -51 -20q-33 0 -52 22t-13 56zM365 276h170l101 -276h-168zM41 0l116 654h327q118 0 181.5 -64t46.5 -164q-17 -96 -102 -155
t-204 -59h-170l-38 -212h-157zM262 358h160q57 0 91.5 18.5t40.5 52.5q7 38 -20.5 58.5t-85.5 20.5h-160z" />
    <glyph glyph-name="uni0157" unicode="&#x157;" horiz-adv-x="458" 
d="M19 -123q6 34 32.5 56.5t60.5 22.5t52.5 -22.5t12.5 -56.5q-11 -65 -35 -112t-57 -72.5t-69.5 -37.5t-78.5 -12l4 82q155 0 194 94q-21 -20 -51 -20q-33 0 -52 22t-13 56zM123 460h157l-61 -114l38 -16l-59 -330h-157zM405 324q-62 0 -110 -25t-55 -64l-11 50
q14 84 74.5 134.5t146.5 50.5h72l-25 -146h-92z" />
    <glyph glyph-name="Rcaron" unicode="&#x158;" horiz-adv-x="660" 
d="M446 771l85 73h135l-168 -136h-154l-120 136h135l61 -73l3 -21h12zM365 276h170l101 -276h-168zM41 0l116 654h327q118 0 181.5 -64t46.5 -164q-17 -96 -102 -155t-204 -59h-170l-38 -212h-157zM262 358h160q57 0 91.5 18.5t40.5 52.5q7 38 -20.5 58.5t-85.5 20.5h-160z
" />
    <glyph glyph-name="rcaron" unicode="&#x159;" horiz-adv-x="458" 
d="M360 588l85 73h135l-168 -136h-154l-120 136h135l61 -73l3 -21h12zM123 460h157l-61 -114l38 -16l-59 -330h-157zM405 324q-62 0 -110 -25t-55 -64l-11 50q14 84 74.5 134.5t146.5 50.5h72l-25 -146h-92z" />
    <glyph glyph-name="Sacute" unicode="&#x15a;" horiz-adv-x="639" 
d="M607 886l-190 -177h-99l146 177h143zM645 182q-17 -98 -102.5 -153.5t-211.5 -55.5q-117 0 -188.5 54t-85.5 161l157 31q26 -92 143 -92q54 0 90 15t40 41q2 11 -1.5 20t-15 16t-22 11.5t-33 9.5t-37 7.5t-44.5 7.5q-5 0 -8 1q-244 40 -213 214q17 97 101.5 153.5
t211.5 56.5q116 0 185.5 -51t80.5 -153l-155 -31q-16 81 -134 81q-57 0 -93 -15.5t-40 -41.5q-5 -30 30 -44t126 -30q3 -1 4 -1q37 -7 67.5 -16t63 -26t52.5 -38.5t30 -55.5t2 -76z" />
    <glyph glyph-name="sacute" unicode="&#x15b;" horiz-adv-x="534" 
d="M554 703l-190 -177h-99l146 177h143zM529 120q-11 -65 -80.5 -106t-169.5 -41t-162.5 43t-66.5 129l155 18q10 -66 86 -66q34 0 56.5 8.5t25.5 22.5q2 11 -4.5 19t-23 13.5t-30 9t-38.5 7.5q-33 7 -60 14.5t-54 21.5t-44 31t-25.5 43t-2.5 57q11 65 77.5 103.5
t167.5 38.5q202 0 226 -151l-158 -28q-10 55 -78 55q-75 0 -79 -24q-3 -16 18.5 -25t65.5 -16q35 -6 62 -13.5t57 -21.5t48.5 -32t28 -46.5t2.5 -63.5z" />
    <glyph glyph-name="Scircumflex" unicode="&#x15c;" horiz-adv-x="639" 
d="M403 781l-86 -73h-135l168 136h154l120 -136h-135l-60 73l-3 21h-12zM645 182q-17 -98 -102.5 -153.5t-211.5 -55.5q-117 0 -188.5 54t-85.5 161l157 31q26 -92 143 -92q54 0 90 15t40 41q2 11 -1.5 20t-15 16t-22 11.5t-33 9.5t-37 7.5t-44.5 7.5q-5 0 -8 1
q-244 40 -213 214q17 97 101.5 153.5t211.5 56.5q116 0 185.5 -51t80.5 -153l-155 -31q-16 81 -134 81q-57 0 -93 -15.5t-40 -41.5q-5 -30 30 -44t126 -30q3 -1 4 -1q37 -7 67.5 -16t63 -26t52.5 -38.5t30 -55.5t2 -76z" />
    <glyph glyph-name="scircumflex" unicode="&#x15d;" horiz-adv-x="534" 
d="M350 598l-86 -73h-135l168 136h154l120 -136h-135l-60 73l-3 21h-12zM529 120q-11 -65 -80.5 -106t-169.5 -41t-162.5 43t-66.5 129l155 18q10 -66 86 -66q34 0 56.5 8.5t25.5 22.5q2 11 -4.5 19t-23 13.5t-30 9t-38.5 7.5q-33 7 -60 14.5t-54 21.5t-44 31t-25.5 43
t-2.5 57q11 65 77.5 103.5t167.5 38.5q202 0 226 -151l-158 -28q-10 55 -78 55q-75 0 -79 -24q-3 -16 18.5 -25t65.5 -16q35 -6 62 -13.5t57 -21.5t48.5 -32t28 -46.5t2.5 -63.5z" />
    <glyph glyph-name="Scedilla" unicode="&#x15e;" horiz-adv-x="639" 
d="M193 -152l83 20q10 -23 57 -23q50 0 55 31q4 22 -45 22q-34 0 -57 -23l-70 17l67 114h83l-62 -67l14 -10q30 31 72 31q38 0 59 -23t14 -59q-8 -48 -46 -76.5t-94 -28.5q-108 0 -130 75zM645 182q-17 -98 -102.5 -153.5t-211.5 -55.5q-117 0 -188.5 54t-85.5 161l157 31
q26 -92 143 -92q54 0 90 15t40 41q2 11 -1.5 20t-15 16t-22 11.5t-33 9.5t-37 7.5t-44.5 7.5q-5 0 -8 1q-244 40 -213 214q17 97 101.5 153.5t211.5 56.5q116 0 185.5 -51t80.5 -153l-155 -31q-16 81 -134 81q-57 0 -93 -15.5t-40 -41.5q-5 -30 30 -44t126 -30q3 -1 4 -1
q37 -7 67.5 -16t63 -26t52.5 -38.5t30 -55.5t2 -76z" />
    <glyph glyph-name="scedilla" unicode="&#x15f;" horiz-adv-x="534" 
d="M133 -152l83 20q10 -23 57 -23q50 0 55 31q4 22 -45 22q-34 0 -57 -23l-70 17l67 114h83l-62 -67l14 -10q30 31 72 31q38 0 59 -23t14 -59q-8 -48 -46 -76.5t-94 -28.5q-108 0 -130 75zM529 120q-11 -65 -80.5 -106t-169.5 -41t-162.5 43t-66.5 129l155 18q10 -66 86 -66
q34 0 56.5 8.5t25.5 22.5q2 11 -4.5 19t-23 13.5t-30 9t-38.5 7.5q-33 7 -60 14.5t-54 21.5t-44 31t-25.5 43t-2.5 57q11 65 77.5 103.5t167.5 38.5q202 0 226 -151l-158 -28q-10 55 -78 55q-75 0 -79 -24q-3 -16 18.5 -25t65.5 -16q35 -6 62 -13.5t57 -21.5t48.5 -32
t28 -46.5t2.5 -63.5z" />
    <glyph glyph-name="Scaron" unicode="&#x160;" horiz-adv-x="639" 
d="M428 771l85 73h135l-168 -136h-154l-120 136h135l61 -73l3 -21h12zM645 182q-17 -98 -102.5 -153.5t-211.5 -55.5q-117 0 -188.5 54t-85.5 161l157 31q26 -92 143 -92q54 0 90 15t40 41q2 11 -1.5 20t-15 16t-22 11.5t-33 9.5t-37 7.5t-44.5 7.5q-5 0 -8 1
q-244 40 -213 214q17 97 101.5 153.5t211.5 56.5q116 0 185.5 -51t80.5 -153l-155 -31q-16 81 -134 81q-57 0 -93 -15.5t-40 -41.5q-5 -30 30 -44t126 -30q3 -1 4 -1q37 -7 67.5 -16t63 -26t52.5 -38.5t30 -55.5t2 -76z" />
    <glyph glyph-name="scaron" unicode="&#x161;" horiz-adv-x="534" 
d="M375 588l85 73h135l-168 -136h-154l-120 136h135l61 -73l3 -21h12zM529 120q-11 -65 -80.5 -106t-169.5 -41t-162.5 43t-66.5 129l155 18q10 -66 86 -66q34 0 56.5 8.5t25.5 22.5q2 11 -4.5 19t-23 13.5t-30 9t-38.5 7.5q-33 7 -60 14.5t-54 21.5t-44 31t-25.5 43
t-2.5 57q11 65 77.5 103.5t167.5 38.5q202 0 226 -151l-158 -28q-10 55 -78 55q-75 0 -79 -24q-3 -16 18.5 -25t65.5 -16q35 -6 62 -13.5t57 -21.5t48.5 -32t28 -46.5t2.5 -63.5z" />
    <glyph glyph-name="uni0162" unicode="&#x162;" horiz-adv-x="677" 
d="M192 -151l83 20q10 -23 57 -23q50 0 55 31q4 22 -45 22q-34 0 -57 -23l-70 17l67 114h83l-62 -67l14 -10q30 31 72 31q38 0 59 -23t14 -59q-8 -48 -46 -76.5t-94 -28.5q-108 0 -130 75zM144 654h617l-26 -146h-230l-89 -508h-158l89 508h-229z" />
    <glyph glyph-name="uni0163" unicode="&#x163;" horiz-adv-x="470" 
d="M184 -152l83 20q10 -23 57 -23q50 0 55 31q4 22 -45 22q-34 0 -57 -23l-70 17l67 114h83l-62 -67l14 -10q30 31 72 31q38 0 59 -23t14 -59q-8 -48 -46 -76.5t-94 -28.5q-108 0 -130 75zM342 334l-26 -149q-7 -39 4 -48.5t58 -9.5h96l-22 -127h-142q-91 0 -131 38t-23 136
l28 160h-110l23 126h110l24 135l159 11l-26 -146h169l-23 -126h-168z" />
    <glyph glyph-name="Tcaron" unicode="&#x164;" horiz-adv-x="677" 
d="M454 771l85 73h135l-168 -136h-154l-120 136h135l61 -73l3 -21h12zM144 654h617l-26 -146h-230l-89 -508h-158l89 508h-229z" />
    <glyph glyph-name="tcaron" unicode="&#x165;" horiz-adv-x="470" 
d="M437 671h144l-125 -178h-75zM342 334l-26 -149q-7 -39 4 -48.5t58 -9.5h96l-22 -127h-142q-91 0 -131 38t-23 136l28 160h-110l23 126h110l24 135l159 11l-26 -146h169l-23 -126h-168z" />
    <glyph glyph-name="Tbar" unicode="&#x166;" horiz-adv-x="677" 
d="M188 421h447l-26 -145h-447zM144 654h617l-26 -146h-230l-89 -508h-158l89 508h-229z" />
    <glyph glyph-name="tbar" unicode="&#x167;" horiz-adv-x="470" 
d="M69 291h434l-17 -96h-434zM342 334l-26 -149q-7 -39 4 -48.5t58 -9.5h96l-22 -127h-142q-91 0 -131 38t-23 136l28 160h-110l23 126h110l24 135l159 11l-26 -146h169l-23 -126h-168z" />
    <glyph glyph-name="Utilde" unicode="&#x168;" horiz-adv-x="699" 
d="M584 832q-6 -29 -15.5 -42t-26.5 -13q-15 0 -28 5.5t-17.5 9.5t-18.5 16q-10 10 -18.5 16.5t-26 12t-40.5 5.5q-57 0 -93 -33.5t-47 -95.5l77 -8q11 59 47 59q12 0 22.5 -4t14.5 -6.5t16 -14t14 -12.5q34 -29 85 -29q111 0 133 127zM314 654l-76 -429q-8 -47 27 -72.5
t107 -25.5q71 0 113.5 25.5t50.5 72.5l76 429h158l-78 -440q-18 -103 -115.5 -169t-230.5 -66q-138 0 -211.5 65t-55.5 170l78 440h157z" />
    <glyph glyph-name="utilde" unicode="&#x169;" horiz-adv-x="612" 
d="M539 649q-6 -29 -15.5 -42t-26.5 -13q-15 0 -28 5.5t-17.5 9.5t-18.5 16q-10 10 -18.5 16.5t-26 12t-40.5 5.5q-57 0 -93 -33.5t-47 -95.5l77 -8q11 59 47 59q12 0 22.5 -4t14.5 -6.5t16 -14t14 -12.5q34 -29 85 -29q111 0 133 127zM230 173q-6 -34 19 -54t73 -20
q46 0 79.5 21t39.5 55h21q-14 -79 -80.5 -139t-152.5 -60q-81 0 -127 53.5t-32 132.5l53 298h158zM567 0h-157l57 117l-34 13l59 330h157z" />
    <glyph glyph-name="Umacron" unicode="&#x16a;" horiz-adv-x="699" 
d="M297 805h328l-17 -97h-328zM314 654l-76 -429q-8 -47 27 -72.5t107 -25.5q71 0 113.5 25.5t50.5 72.5l76 429h158l-78 -440q-18 -103 -115.5 -169t-230.5 -66q-138 0 -211.5 65t-55.5 170l78 440h157z" />
    <glyph glyph-name="umacron" unicode="&#x16b;" horiz-adv-x="612" 
d="M252 622h328l-17 -97h-328zM230 173q-6 -34 19 -54t73 -20q46 0 79.5 21t39.5 55h21q-14 -79 -80.5 -139t-152.5 -60q-81 0 -127 53.5t-32 132.5l53 298h158zM567 0h-157l57 117l-34 13l59 330h157z" />
    <glyph glyph-name="Ubreve" unicode="&#x16c;" horiz-adv-x="699" 
d="M546 838q-4 -21 -29.5 -36.5t-58 -15.5t-52.5 15.5t-16 36.5h-113q-10 -56 38 -93.5t129.5 -37.5t143 37.5t71.5 93.5h-113zM314 654l-76 -429q-8 -47 27 -72.5t107 -25.5q71 0 113.5 25.5t50.5 72.5l76 429h158l-78 -440q-18 -103 -115.5 -169t-230.5 -66
q-138 0 -211.5 65t-55.5 170l78 440h157z" />
    <glyph glyph-name="ubreve" unicode="&#x16d;" horiz-adv-x="612" 
d="M501 655q-4 -21 -29.5 -36.5t-58 -15.5t-52.5 15.5t-16 36.5h-113q-10 -56 38 -93.5t129.5 -37.5t143 37.5t71.5 93.5h-113zM230 173q-6 -34 19 -54t73 -20q46 0 79.5 21t39.5 55h21q-14 -79 -80.5 -139t-152.5 -60q-81 0 -127 53.5t-32 132.5l53 298h158zM567 0h-157
l57 117l-34 13l59 330h157z" />
    <glyph glyph-name="Uring" unicode="&#x16e;" horiz-adv-x="699" 
d="M457 796q24 0 43.5 9.5t21.5 22.5q2 12 -14 21.5t-40 9.5t-44.5 -9.5t-22.5 -21.5q-2 -13 15 -22.5t41 -9.5zM312 828q9 50 58.5 84.5t112.5 34.5t100 -34.5t28 -84.5t-58 -84.5t-112 -34.5t-100.5 34.5t-28.5 84.5zM314 654l-76 -429q-8 -47 27 -72.5t107 -25.5
q71 0 113.5 25.5t50.5 72.5l76 429h158l-78 -440q-18 -103 -115.5 -169t-230.5 -66q-138 0 -211.5 65t-55.5 170l78 440h157z" />
    <glyph glyph-name="uring" unicode="&#x16f;" horiz-adv-x="612" 
d="M412 613q24 0 43.5 9.5t21.5 22.5q2 12 -14 21.5t-40 9.5t-44.5 -9.5t-22.5 -21.5q-2 -13 15 -22.5t41 -9.5zM267 645q9 50 58.5 84.5t112.5 34.5t100 -34.5t28 -84.5t-58 -84.5t-112 -34.5t-100.5 34.5t-28.5 84.5zM230 173q-6 -34 19 -54t73 -20q46 0 79.5 21t39.5 55
h21q-14 -79 -80.5 -139t-152.5 -60q-81 0 -127 53.5t-32 132.5l53 298h158zM567 0h-157l57 117l-34 13l59 330h157z" />
    <glyph glyph-name="Uhungarumlaut" unicode="&#x170;" horiz-adv-x="699" 
d="M690 886l-172 -177h-99l128 177h143zM503 886l-172 -177h-99l128 177h143zM314 654l-76 -429q-8 -47 27 -72.5t107 -25.5q71 0 113.5 25.5t50.5 72.5l76 429h158l-78 -440q-18 -103 -115.5 -169t-230.5 -66q-138 0 -211.5 65t-55.5 170l78 440h157z" />
    <glyph glyph-name="uhungarumlaut" unicode="&#x171;" horiz-adv-x="612" 
d="M645 703l-172 -177h-99l128 177h143zM458 703l-172 -177h-99l128 177h143zM230 173q-6 -34 19 -54t73 -20q46 0 79.5 21t39.5 55h21q-14 -79 -80.5 -139t-152.5 -60q-81 0 -127 53.5t-32 132.5l53 298h158zM567 0h-157l57 117l-34 13l59 330h157z" />
    <glyph glyph-name="Uogonek" unicode="&#x172;" horiz-adv-x="699" 
d="M301 -59q-40 -32 -46 -63q-3 -16 11.5 -24.5t43.5 -8.5q48 0 66 35l78 -12q-23 -46 -61.5 -70.5t-86.5 -24.5q-61 0 -93.5 21.5t-25.5 58.5q5 29 24.5 52.5t66.5 58.5l56 42h48zM314 654l-76 -429q-8 -47 27 -72.5t107 -25.5q71 0 113.5 25.5t50.5 72.5l76 429h158
l-78 -440q-18 -103 -115.5 -169t-230.5 -66q-138 0 -211.5 65t-55.5 170l78 440h157z" />
    <glyph glyph-name="uogonek" unicode="&#x173;" horiz-adv-x="612" 
d="M262 -59q-40 -32 -46 -63q-3 -16 11.5 -24.5t43.5 -8.5q48 0 66 35l78 -12q-23 -46 -61.5 -70.5t-86.5 -24.5q-61 0 -93.5 21.5t-25.5 58.5q5 29 24.5 52.5t66.5 58.5l56 42h48zM230 173q-6 -34 19 -54t73 -20q46 0 79.5 21t39.5 55h21q-14 -79 -80.5 -139t-152.5 -60
q-81 0 -127 53.5t-32 132.5l53 298h158zM567 0h-157l57 117l-34 13l59 330h157z" />
    <glyph glyph-name="Wcircumflex" unicode="&#x174;" horiz-adv-x="1117" 
d="M647 781l-86 -73h-135l168 136h154l120 -136h-135l-60 73l-3 21h-12zM623 448l-196 -448h-234l-61 654h166l37 -440l-2 -56h14l18 56l194 440h224l44 -440l-2 -56h12l18 56l195 440h165l-292 -654h-234l-42 448l4 59h-11z" />
    <glyph glyph-name="wcircumflex" unicode="&#x175;" horiz-adv-x="984" 
d="M582 598l-86 -73h-135l168 136h154l120 -136h-135l-60 73l-3 21h-12zM527 272l-135 -272h-240l-55 460h163l34 -264l-2 -56h12l20 56l139 264h218l47 -264l-2 -56h14l18 56l127 264h162l-216 -460h-240l-40 272l4 59h-12z" />
    <glyph glyph-name="Ycircumflex" unicode="&#x176;" horiz-adv-x="740" 
d="M466 781l-86 -73h-135l168 136h154l120 -136h-135l-60 73l-3 21h-12zM508 263l329 391h-176l-202 -240l-18 -45h-13l-3 45l-116 240h-178l193 -391h14l-47 -263h158l47 263h12z" />
    <glyph glyph-name="ycircumflex" unicode="&#x177;" horiz-adv-x="627" 
d="M402 598l-86 -73h-135l168 136h154l120 -136h-135l-60 73l-3 21h-12zM363 182l153 278h174l-325 -541q-35 -59 -87.5 -90t-111.5 -31h-150l24 139h84q31 0 48.5 6.5t28.5 22.5l21 34l-125 460h173l57 -278l1 -56h13z" />
    <glyph glyph-name="Ydieresis" unicode="&#x178;" horiz-adv-x="740" 
d="M529 799q5 34 34 58.5t63 24.5t54 -24.5t15 -58.5q-6 -33 -35.5 -58.5t-63 -25.5t-53.5 25.5t-14 58.5zM264 799q5 34 34 58.5t63 24.5t54 -24.5t15 -58.5q-6 -33 -35.5 -58.5t-63 -25.5t-53.5 25.5t-14 58.5zM508 263l329 391h-176l-202 -240l-18 -45h-13l-3 45
l-116 240h-178l193 -391h14l-47 -263h158l47 263h12z" />
    <glyph glyph-name="Zacute" unicode="&#x179;" horiz-adv-x="641" 
d="M610 886l-190 -177h-99l146 177h143zM150 654h569l-33 -188l-368 -266l-120 -61l-2 -12h430l-22 -127h-569l33 188l388 279l111 48l2 12h-441z" />
    <glyph glyph-name="zacute" unicode="&#x17a;" horiz-adv-x="507" 
d="M551 703l-190 -177h-99l146 177h143zM105 460h457l-31 -180l-261 -128l-69 -11l-2 -14h305l-23 -127h-457l35 196l248 118l74 7l2 13h-300z" />
    <glyph glyph-name="Zdotaccent" unicode="&#x17b;" horiz-adv-x="641" 
d="M342 818q6 34 35.5 58.5t63.5 24.5q33 0 53.5 -24.5t14.5 -58.5q-6 -33 -35 -58.5t-63 -25.5q-33 0 -54 25.5t-15 58.5zM150 654h569l-33 -188l-368 -266l-120 -61l-2 -12h430l-22 -127h-569l33 188l388 279l111 48l2 12h-441z" />
    <glyph glyph-name="zdotaccent" unicode="&#x17c;" horiz-adv-x="507" 
d="M282 635q6 34 35.5 58.5t63.5 24.5q33 0 53.5 -24.5t14.5 -58.5q-6 -33 -35 -58.5t-63 -25.5q-33 0 -54 25.5t-15 58.5zM105 460h457l-31 -180l-261 -128l-69 -11l-2 -14h305l-23 -127h-457l35 196l248 118l74 7l2 13h-300z" />
    <glyph glyph-name="Zcaron" unicode="&#x17d;" horiz-adv-x="641" 
d="M432 771l85 73h135l-168 -136h-154l-120 136h135l61 -73l3 -21h12zM150 654h569l-33 -188l-368 -266l-120 -61l-2 -12h430l-22 -127h-569l33 188l388 279l111 48l2 12h-441z" />
    <glyph glyph-name="zcaron" unicode="&#x17e;" horiz-adv-x="507" 
d="M372 588l85 73h135l-168 -136h-154l-120 136h135l61 -73l3 -21h12zM105 460h457l-31 -180l-261 -128l-69 -11l-2 -14h305l-23 -127h-457l35 196l248 118l74 7l2 13h-300z" />
    <glyph glyph-name="longs" unicode="&#x17f;" horiz-adv-x="405" 
d="M140 559q12 71 66 99.5t168 28.5h126l-23 -126h-117q-63 0 -68 -31l-94 -530h-157z" />
    <glyph glyph-name="uni018E" unicode="&#x18e;" horiz-adv-x="662" 
d="M619 0h-592l26 147h434l19 107h-406l26 147h406l19 106h-435l26 147h592z" />
    <glyph glyph-name="uni018F" unicode="&#x18f;" 
d="M467 274q1 37 -28.5 57t-86.5 20q-44 0 -76 -12.5t-44 -34.5l-150 21q34 75 113 118t181 43q134 0 198.5 -68.5t43.5 -187.5q-21 -118 -107 -186t-214 -68q-129 0 -191 68t-42 180l9 50h394zM447 172h-233q-5 -27 25 -44.5t82 -17.5q100 0 126 62z" />
    <glyph glyph-name="Ohorn" unicode="&#x1a0;" horiz-adv-x="729" 
d="M669 802l135 -30q-16 -90 -102.5 -164.5t-184.5 -74.5l17 120q51 0 87.5 44.5t47.5 104.5zM240 327q-16 -93 23 -144.5t124.5 -51.5t142 51.5t73.5 144.5q16 93 -22.5 146t-123.5 53t-143 -53t-74 -146zM82 327q29 165 137.5 259t264.5 94q70 0 127.5 -24.5t96 -68.5
t53 -111.5t0.5 -148.5q-29 -166 -137 -258.5t-264 -92.5t-231.5 93t-46.5 258z" />
    <glyph glyph-name="ohorn" unicode="&#x1a1;" 
d="M595 609l135 -30q-16 -90 -102.5 -164.5t-184.5 -74.5l17 120q51 0 87.5 44.5t47.5 104.5zM223 232q-10 -58 15.5 -89.5t81.5 -31.5t93 31.5t47 89.5q10 57 -16 88.5t-82 31.5t-92.5 -31t-46.5 -89zM65 232q21 121 107.5 187.5t213.5 66.5q119 0 186 -68t46 -186
q-21 -121 -108 -188.5t-214 -67.5t-189.5 67.5t-41.5 188.5z" />
    <glyph glyph-name="Uhorn" unicode="&#x1af;" horiz-adv-x="699" 
d="M784 802l135 -30q-16 -90 -102.5 -164.5t-184.5 -74.5l17 120q51 0 87.5 44.5t47.5 104.5zM314 654l-76 -429q-8 -47 27 -72.5t107 -25.5q71 0 113.5 25.5t50.5 72.5l76 429h158l-78 -440q-18 -103 -115.5 -169t-230.5 -66q-138 0 -211.5 65t-55.5 170l78 440h157z" />
    <glyph glyph-name="uhorn" unicode="&#x1b0;" horiz-adv-x="612" 
d="M646 609l135 -30q-16 -90 -102.5 -164.5t-184.5 -74.5l17 120q51 0 87.5 44.5t47.5 104.5zM230 173q-6 -34 19 -54t73 -20q46 0 79.5 21t39.5 55h21q-14 -79 -80.5 -139t-152.5 -60q-81 0 -127 53.5t-32 132.5l53 298h158zM567 0h-157l57 117l-34 13l59 330h157z" />
    <glyph glyph-name="uni01CD" unicode="&#x1cd;" horiz-adv-x="784" 
d="M509 771l85 73h135l-168 -136h-154l-120 136h135l61 -73l3 -21h12zM245 285h395l-26 -146h-394zM454 466l-262 -466h-176l371 654h234l145 -654h-176l-102 466v56h-14z" />
    <glyph glyph-name="uni01CE" unicode="&#x1ce;" horiz-adv-x="575" 
d="M409 588l85 73h135l-168 -136h-154l-120 136h135l61 -73l3 -21h12zM208 148q-3 -18 13.5 -27t46.5 -9q56 0 93.5 17.5t42.5 45.5h23q-16 -90 -84 -144.5t-164 -54.5q-69 0 -107.5 38.5t-27.5 98.5t56 95.5t127 51.5l199 40l-17 -95l-142 -29q-56 -12 -59 -28zM531 0h-158
l60 110l-37 20l31 174q3 20 -20 32t-64 12q-43 0 -73 -18t-40 -47l-152 20q28 79 106 130t185 51q109 0 169.5 -49t48.5 -120z" />
    <glyph glyph-name="uni01CF" unicode="&#x1cf;" horiz-adv-x="243" 
d="M240 771l85 73h135l-168 -136h-154l-120 136h135l61 -73l3 -21h12zM157 655h157l-116 -655h-157z" />
    <glyph glyph-name="uni01D0" unicode="&#x1d0;" horiz-adv-x="236" 
d="M239 588l85 73h135l-168 -136h-154l-120 136h135l61 -73l3 -21h12zM122 460h157l-81 -460h-157z" />
    <glyph glyph-name="uni01D1" unicode="&#x1d1;" horiz-adv-x="729" 
d="M481 771l85 73h135l-168 -136h-154l-120 136h135l61 -73l3 -21h12zM240 327q-16 -93 23 -144.5t124.5 -51.5t142 51.5t73.5 144.5q16 93 -22.5 146t-123.5 53t-143 -53t-74 -146zM82 327q29 165 137.5 259t264.5 94q70 0 127.5 -24.5t96 -68.5t53 -111.5t0.5 -148.5
q-29 -166 -137 -258.5t-264 -92.5t-231.5 93t-46.5 258z" />
    <glyph glyph-name="uni01D2" unicode="&#x1d2;" 
d="M418 588l85 73h135l-168 -136h-154l-120 136h135l61 -73l3 -21h12zM223 232q-10 -58 15.5 -89.5t81.5 -31.5t93 31.5t47 89.5q10 57 -16 88.5t-82 31.5t-92.5 -31t-46.5 -89zM65 232q21 121 107.5 187.5t213.5 66.5q119 0 186 -68t46 -186q-21 -121 -108 -188.5
t-214 -67.5t-189.5 67.5t-41.5 188.5z" />
    <glyph glyph-name="uni01D3" unicode="&#x1d3;" horiz-adv-x="699" 
d="M469 771l85 73h135l-168 -136h-154l-120 136h135l61 -73l3 -21h12zM314 654l-76 -429q-8 -47 27 -72.5t107 -25.5q71 0 113.5 25.5t50.5 72.5l76 429h158l-78 -440q-18 -103 -115.5 -169t-230.5 -66q-138 0 -211.5 65t-55.5 170l78 440h157z" />
    <glyph glyph-name="uni01D4" unicode="&#x1d4;" horiz-adv-x="612" 
d="M424 588l85 73h135l-168 -136h-154l-120 136h135l61 -73l3 -21h12zM230 173q-6 -34 19 -54t73 -20q46 0 79.5 21t39.5 55h21q-14 -79 -80.5 -139t-152.5 -60q-81 0 -127 53.5t-32 132.5l53 298h158zM567 0h-157l57 117l-34 13l59 330h157z" />
    <glyph glyph-name="uni0237" unicode="&#x237;" horiz-adv-x="228" 
d="M117 460h157l-84 -474q-14 -78 -83.5 -124t-172.5 -46h-70l26 148h70q28 0 51 15t27 38z" />
    <glyph glyph-name="uni02BC" unicode="&#x2bc;" horiz-adv-x="170" 
d="M158 687h131l-143 -219h-63z" />
    <glyph glyph-name="gravecomb" unicode="&#x300;" horiz-adv-x="198" 
d="M85 707h143l84 -177h-99z" />
    <glyph glyph-name="acutecomb" unicode="&#x301;" horiz-adv-x="200" 
d="M364 707l-190 -177h-99l146 177h143z" />
    <glyph glyph-name="uni0302" unicode="&#x302;" horiz-adv-x="318" 
d="M253 602l-86 -73h-135l168 136h154l120 -136h-135l-60 73l-3 21h-12z" />
    <glyph glyph-name="tildecomb" unicode="&#x303;" horiz-adv-x="311" 
d="M386 653q-6 -29 -15.5 -42t-26.5 -13q-15 0 -28 5.5t-17.5 9.5t-18.5 16q-10 10 -18.5 16.5t-26 12t-40.5 5.5q-57 0 -93 -33.5t-47 -95.5l77 -8q11 59 47 59q12 0 22.5 -4t14.5 -6.5t16 -14t14 -12.5q34 -29 85 -29q111 0 133 127z" />
    <glyph glyph-name="uni0304" unicode="&#x304;" horiz-adv-x="290" 
d="M92 626h328l-17 -97h-328z" />
    <glyph glyph-name="uni0306" unicode="&#x306;" horiz-adv-x="303" 
d="M346 659q-4 -21 -29.5 -36.5t-58 -15.5t-52.5 15.5t-16 36.5h-113q-10 -56 38 -93.5t129.5 -37.5t143 37.5t71.5 93.5h-113z" />
    <glyph glyph-name="uni0307" unicode="&#x307;" horiz-adv-x="93" 
d="M77 639q6 34 35.5 58.5t63.5 24.5q33 0 53.5 -24.5t14.5 -58.5q-6 -33 -35 -58.5t-63 -25.5q-33 0 -54 25.5t-15 58.5z" />
    <glyph glyph-name="uni0308" unicode="&#x308;" horiz-adv-x="297" 
d="M310 620q5 34 34 58.5t63 24.5t54 -24.5t15 -58.5q-6 -33 -35.5 -58.5t-63 -25.5t-53.5 25.5t-14 58.5zM45 620q5 34 34 58.5t63 24.5t54 -24.5t15 -58.5q-6 -33 -35.5 -58.5t-63 -25.5t-53.5 25.5t-14 58.5z" />
    <glyph glyph-name="hookabovecomb" unicode="&#x309;" horiz-adv-x="166" 
d="M238 621q2 8 -10.5 14t-30.5 6q-41 0 -53 -30l-82 23q18 40 61.5 61t87.5 21q54 0 88 -27.5t27 -67.5q-2 -14 -11.5 -27.5t-25 -25.5t-28 -20.5t-32.5 -20t-28 -16.5l-41 56q75 35 78 54z" />
    <glyph glyph-name="uni030A" unicode="&#x30a;" horiz-adv-x="195" 
d="M205 594q24 0 43.5 9.5t21.5 22.5q2 12 -14 21.5t-40 9.5t-44.5 -9.5t-22.5 -21.5q-2 -13 15 -22.5t41 -9.5zM60 626q9 50 58.5 84.5t112.5 34.5t100 -34.5t28 -84.5t-58 -84.5t-112 -34.5t-100.5 34.5t-28.5 84.5z" />
    <glyph glyph-name="uni030B" unicode="&#x30b;" horiz-adv-x="327" 
d="M512 707l-172 -177h-99l128 177h143zM325 707l-172 -177h-99l128 177h143z" />
    <glyph glyph-name="uni030C" unicode="&#x30c;" horiz-adv-x="318" 
d="M278 592l85 73h135l-168 -136h-154l-120 136h135l61 -73l3 -21h12z" />
    <glyph glyph-name="uni0312" unicode="&#x312;" horiz-adv-x="162" 
d="M268 607q-6 -34 -32.5 -56.5t-60.5 -22.5t-52.5 22.5t-12.5 56.5q11 65 35 112t57 72.5t69.5 37.5t78.5 12l-4 -82q-155 0 -194 -94q21 20 51 20q34 0 52.5 -22t12.5 -56z" />
    <glyph glyph-name="uni0315" unicode="&#x315;" horiz-adv-x="136" 
d="M287 496h144l-125 -178h-75z" />
    <glyph glyph-name="uni031B" unicode="&#x31b;" horiz-adv-x="292" 
d="M237 560l135 -30q-16 -90 -102.5 -164.5t-184.5 -74.5l17 120q51 0 87.5 44.5t47.5 104.5z" />
    <glyph glyph-name="dotbelowcomb" unicode="&#x323;" horiz-adv-x="93" 
d="M-67 -153q6 36 36.5 62t66.5 26t57.5 -26t15.5 -62q-7 -36 -37.5 -62.5t-66.5 -26.5t-57.5 26.5t-14.5 62.5z" />
    <glyph glyph-name="uni0326" unicode="&#x326;" horiz-adv-x="160" 
d="M-20 -123q6 34 32.5 56.5t60.5 22.5t52.5 -22.5t12.5 -56.5q-11 -65 -35 -112t-57 -72.5t-69.5 -37.5t-78.5 -12l4 82q155 0 194 94q-21 -20 -51 -20q-33 0 -52 22t-13 56z" />
    <glyph glyph-name="uni0327" unicode="&#x327;" horiz-adv-x="183" 
d="M-77 -151l83 20q10 -23 57 -23q50 0 55 31q4 22 -45 22q-34 0 -57 -23l-70 17l67 114h83l-62 -67l14 -10q30 31 72 31q38 0 59 -23t14 -59q-8 -48 -46 -76.5t-94 -28.5q-108 0 -130 75z" />
    <glyph glyph-name="uni0328" unicode="&#x328;" horiz-adv-x="185" 
d="M49 -58q-40 -32 -46 -63q-3 -16 11.5 -24.5t43.5 -8.5q48 0 66 35l78 -12q-23 -46 -61.5 -70.5t-86.5 -24.5q-61 0 -93.5 21.5t-25.5 58.5q5 29 24.5 52.5t66.5 58.5l56 42h48z" />
    <glyph glyph-name="uni0400" unicode="&#x400;" horiz-adv-x="662" 
d="M308 886h143l84 -177h-99zM157 654h592l-26 -147h-435l-19 -107h406l-26 -147h-406l-19 -106h435l-26 -147h-592z" />
    <glyph glyph-name="uni0401" unicode="&#x401;" horiz-adv-x="662" 
d="M510 799q5 34 34 58.5t63 24.5t54 -24.5t15 -58.5q-6 -33 -35.5 -58.5t-63 -25.5t-53.5 25.5t-14 58.5zM245 799q5 34 34 58.5t63 24.5t54 -24.5t15 -58.5q-6 -33 -35.5 -58.5t-63 -25.5t-53.5 25.5t-14 58.5zM157 654h592l-26 -147h-435l-19 -107h406l-26 -147h-406
l-19 -106h435l-26 -147h-592z" />
    <glyph glyph-name="uni0402" unicode="&#x402;" horiz-adv-x="639" 
d="M366 147q117 0 127 57q9 49 -105 49q-35 0 -71.5 -8.5t-59.5 -21.5l-39 -223h-157l90 508h-61l25 146h565l-25 -146h-347l-25 -138q75 30 158 30q112 0 168 -55.5t39 -150.5q-16 -89 -96 -141.5t-201 -52.5h-75l26 147h64z" />
    <glyph glyph-name="uni0403" unicode="&#x403;" horiz-adv-x="613" 
d="M622 897l-190 -177h-99l146 177h143zM157 654l-116 -654h157l90 508h396l26 146h-553z" />
    <glyph glyph-name="uni0404" unicode="&#x404;" horiz-adv-x="718" 
d="M135 388l-23 -126h408l23 126h-408zM767 444q-19 113 -93.5 174.5t-186.5 61.5q-157 0 -266.5 -93.5t-139.5 -262.5q-29 -164 48 -256t234 -92q123 0 222 64.5t146 181.5l-149 31q-23 -58 -74.5 -90t-117.5 -32q-87 0 -127 50.5t-24 142.5q17 96 75.5 149t145.5 53
q62 0 100 -28.5t48 -83.5z" />
    <glyph glyph-name="uni0405" unicode="&#x405;" horiz-adv-x="639" 
d="M645 182q-17 -98 -102.5 -153.5t-211.5 -55.5q-117 0 -188.5 54t-85.5 161l157 31q26 -92 143 -92q54 0 90 15t40 41q2 11 -1.5 20t-15 16t-22 11.5t-33 9.5t-37 7.5t-44.5 7.5q-5 0 -8 1q-244 40 -213 214q17 97 101.5 153.5t211.5 56.5q116 0 185.5 -51t80.5 -153
l-155 -31q-16 81 -134 81q-57 0 -93 -15.5t-40 -41.5q-5 -30 30 -44t126 -30q3 -1 4 -1q37 -7 67.5 -16t63 -26t52.5 -38.5t30 -55.5t2 -76z" />
    <glyph glyph-name="uni0406" unicode="&#x406;" horiz-adv-x="243" 
d="M157 655h157l-116 -655h-157z" />
    <glyph glyph-name="uni0407" unicode="&#x407;" horiz-adv-x="243" 
d="M276 799q5 34 34 58.5t63 24.5t54 -24.5t15 -58.5q-6 -33 -35.5 -58.5t-63 -25.5t-53.5 25.5t-14 58.5zM11 799q5 34 34 58.5t63 24.5t54 -24.5t15 -58.5q-6 -33 -35.5 -58.5t-63 -25.5t-53.5 25.5t-14 58.5zM157 655h157l-116 -655h-157z" />
    <glyph glyph-name="uni0408" unicode="&#x408;" horiz-adv-x="645" 
d="M717 654h-158l-81 -455q-6 -34 -44.5 -55t-96.5 -21t-89 33t-28 87l-160 -40q-1 -99 65.5 -161.5t187.5 -62.5q127 0 216 59.5t105 149.5z" />
    <glyph glyph-name="uni0409" unicode="&#x409;" horiz-adv-x="1053" 
d="M664 253l-18 -106h128q121 0 130 52q4 25 -26 39.5t-93 14.5h-121zM735 654l-45 -254h128q125 0 191.5 -56.5t50.5 -148.5q-16 -89 -97.5 -142t-203.5 -53h-296l89 508h-149l-44 -254q-12 -63 -34 -109.5t-49.5 -74t-65.5 -43.5t-73.5 -21.5t-79.5 -5.5h-28l26 148h28
q24 0 39.5 3.5t33 14.5t29.5 35.5t19 63.5l68 389h463z" />
    <glyph glyph-name="uni040A" unicode="&#x40a;" horiz-adv-x="923" 
d="M41 0h156l45 255h156l-45 -255h282q120 0 200 51.5t95 137.5q16 95 -48.5 153t-186.5 58h-114l45 254h-157l-45 -251h-156l45 251h-156zM536 147l19 106h107q59 0 87.5 -16t23.5 -44q-8 -46 -123 -46h-114z" />
    <glyph glyph-name="uni040B" unicode="&#x40b;" horiz-adv-x="655" 
d="M488 173q5 33 -20.5 51.5t-77.5 18.5q-59 0 -104 -30l-38 -213h-157l90 508h-91l25 146h565l-25 -146h-317l-27 -148q69 30 147 30q101 0 152 -60.5t34 -160.5l-30 -169h-157z" />
    <glyph glyph-name="uni040C" unicode="&#x40c;" horiz-adv-x="736" 
d="M656 886l-190 -177h-99l146 177h143zM157 654h157l-50 -281l367 281h202l-343 -290l227 -364h-212l-156 270l-118 -87l-33 -183h-157z" />
    <glyph glyph-name="uni040D" unicode="&#x40d;" horiz-adv-x="748" 
d="M323 886h143l84 -177h-99zM315 654l-78 -440l383 440h199l-116 -654h-157l78 442l-383 -442h-200l116 654h158z" />
    <glyph glyph-name="uni040E" unicode="&#x40e;" horiz-adv-x="627" 
d="M504 838q-4 -21 -29.5 -36.5t-58 -15.5t-52.5 15.5t-16 36.5h-113q-10 -56 38 -93.5t129.5 -37.5t143 37.5t71.5 93.5h-113zM399 385l151 268h174l-323 -531q-35 -59 -88 -90t-112 -31h-162l25 139h96q31 0 48.5 6.5t28.5 22.5l20 34l-126 450h173l59 -268l1 -56h13z" />
    <glyph glyph-name="uni040F" unicode="&#x40f;" horiz-adv-x="642" 
d="M246 0h-205l116 654h157l-90 -508h242l90 508h157l-116 -654h-194l-21 -123h-157z" />
    <glyph glyph-name="uni0410" unicode="&#x410;" horiz-adv-x="784" 
d="M245 285h395l-26 -146h-394zM454 466l-262 -466h-176l371 654h234l145 -654h-176l-102 466v56h-14z" />
    <glyph glyph-name="uni0411" unicode="&#x411;" horiz-adv-x="673" 
d="M687 508h-399l-19 -108h176q122 0 187 -56.5t49 -148.5q-16 -89 -96 -142t-200 -53h-344l116 654h556zM224 147h176q115 0 125 52q4 25 -25 39.5t-88 14.5h-169z" />
    <glyph glyph-name="uni0412" unicode="&#x412;" horiz-adv-x="673" 
d="M224 147h176q115 0 124 52q5 27 -21.5 40.5t-83.5 13.5h-176zM269 400h176q104 0 114 57q5 27 -17 39t-78 12h-176zM561 333l-2 -13q63 -13 95 -54.5t22 -100.5q-14 -75 -92 -120t-199 -45h-344l116 654h344q120 0 177 -47t43 -125q-10 -59 -52 -99t-108 -50z" />
    <glyph glyph-name="uni0413" unicode="&#x413;" horiz-adv-x="613" 
d="M157 654l-116 -654h157l90 508h396l26 146h-553z" />
    <glyph glyph-name="uni0414" unicode="&#x414;" horiz-adv-x="768" 
d="M758 88l-44 -248h-158l18 100h-404l-18 -100h-156l44 248h69q17 0 29.5 3t27.5 14.5t26.5 32t23 57.5t20.5 90l65 368h477l-99 -565h79zM522 88l74 419h-163l-41 -233q-24 -131 -96 -163l-1 -23h227z" />
    <glyph glyph-name="uni0415" unicode="&#x415;" horiz-adv-x="662" 
d="M157 654h592l-26 -147h-435l-19 -107h406l-26 -147h-406l-19 -106h435l-26 -147h-592z" />
    <glyph glyph-name="uni0416" unicode="&#x416;" horiz-adv-x="1077" 
d="M688 411h44l247 243h196l-317 -318l201 -336h-200l-153 263h-44l-46 -263h-157l47 263h-44l-250 -263h-196l319 337l-204 317h200l157 -243h44l43 243h156z" />
    <glyph glyph-name="uni0417" unicode="&#x417;" horiz-adv-x="595" 
d="M507 334q57 9 97 49t50 99q16 88 -49 143t-183 55q-116 0 -196 -51.5t-118 -153.5l146 -30q20 47 54 69t87 22q50 0 77.5 -17.5t22.5 -45.5q-7 -37 -31.5 -59.5t-57.5 -22.5h-120l-22 -127h120q33 0 49.5 -22t9.5 -59q-5 -28 -38.5 -45.5t-83.5 -17.5q-52 0 -77.5 27
t-27.5 84l-156 -29q1 -111 61.5 -168.5t176.5 -57.5q118 0 202 55t100 143q10 59 -15.5 99t-79.5 49z" />
    <glyph glyph-name="uni0418" unicode="&#x418;" horiz-adv-x="748" 
d="M315 654l-78 -440l383 440h199l-116 -654h-157l78 442l-383 -442h-200l116 654h158z" />
    <glyph glyph-name="uni0419" unicode="&#x419;" horiz-adv-x="748" 
d="M564 838q-4 -21 -29.5 -36.5t-58 -15.5t-52.5 15.5t-16 36.5h-113q-10 -56 38 -93.5t129.5 -37.5t143 37.5t71.5 93.5h-113zM315 654l-78 -440l383 440h199l-116 -654h-157l78 442l-383 -442h-200l116 654h158z" />
    <glyph glyph-name="uni041A" unicode="&#x41a;" horiz-adv-x="736" 
d="M157 654h157l-50 -281l367 281h202l-343 -290l227 -364h-212l-156 270l-118 -87l-33 -183h-157z" />
    <glyph glyph-name="uni041B" unicode="&#x41b;" horiz-adv-x="705" 
d="M777 654l-115 -654h-157l89 508h-173l-44 -254q-12 -63 -35 -109.5t-51.5 -74t-67.5 -43.5t-76.5 -21.5t-83.5 -5.5h-34l26 148h34q26 0 43.5 3.5t37 14.5t32.5 35.5t20 63.5l68 389h487z" />
    <glyph glyph-name="uni041C" unicode="&#x41c;" horiz-adv-x="944" 
d="M520 206l317 448h178l-116 -654h-148l71 400l-263 -400h-179l-111 400l-71 -400h-157l116 654h188l149 -448l2 -54z" />
    <glyph glyph-name="uni041D" unicode="&#x41d;" horiz-adv-x="708" 
d="M157 654h157l-43 -244h307l43 244h158l-116 -654h-158l47 263h-307l-47 -263h-157z" />
    <glyph glyph-name="uni041E" unicode="&#x41e;" horiz-adv-x="729" 
d="M240 327q-16 -93 23 -144.5t124.5 -51.5t142 51.5t73.5 144.5q16 93 -22.5 146t-123.5 53t-143 -53t-74 -146zM82 327q29 165 137.5 259t264.5 94q70 0 127.5 -24.5t96 -68.5t53 -111.5t0.5 -148.5q-29 -166 -137 -258.5t-264 -92.5t-231.5 93t-46.5 258z" />
    <glyph glyph-name="uni041F" unicode="&#x41f;" horiz-adv-x="688" 
d="M157 654h602l-116 -654h-158l90 507h-287l-90 -507h-157z" />
    <glyph glyph-name="uni0420" unicode="&#x420;" horiz-adv-x="660" 
d="M41 0l116 654h327q118 0 181.5 -64t46.5 -164q-17 -96 -102 -155t-204 -59h-170l-38 -212h-157zM262 358h160q57 0 91.5 18.5t40.5 52.5q7 38 -20.5 58.5t-85.5 20.5h-160z" />
    <glyph glyph-name="uni0421" unicode="&#x421;" horiz-adv-x="718" 
d="M767 444l-159 -30q-10 55 -48 83.5t-100 28.5q-87 0 -145.5 -53t-75.5 -149q-16 -92 24 -142.5t127 -50.5q66 0 117.5 32t74.5 90l149 -31q-47 -117 -146 -181.5t-222 -64.5q-157 0 -234 92t-48 256q30 169 139.5 262.5t266.5 93.5q112 0 186.5 -61.5t93.5 -174.5z" />
    <glyph glyph-name="uni0422" unicode="&#x422;" horiz-adv-x="677" 
d="M144 654h617l-26 -146h-230l-89 -508h-158l89 508h-229z" />
    <glyph glyph-name="uni0423" unicode="&#x423;" horiz-adv-x="627" 
d="M399 385l151 268h174l-323 -531q-35 -59 -88 -90t-112 -31h-162l25 139h96q31 0 48.5 6.5t28.5 22.5l20 34l-126 450h173l59 -268l1 -56h13z" />
    <glyph glyph-name="uni0424" unicode="&#x424;" horiz-adv-x="723" 
d="M393 654h169l-116 -654h-169zM247 335q-12 -68 27 -104.5t120.5 -36.5t133.5 36.5t64 104.5q12 67 -27.5 103.5t-120.5 36.5t-133 -36.5t-64 -103.5zM83 335q23 130 126.5 202t258.5 72q93 0 163.5 -31t105 -94.5t19.5 -148.5q-23 -131 -127 -203.5t-258.5 -72.5
t-232.5 72.5t-55 203.5z" />
    <glyph glyph-name="uni0425" unicode="&#x425;" horiz-adv-x="736" 
d="M459 421l199 233h175l-282 -329l166 -325h-174l-117 233l-3 46h-13l-19 -46l-200 -233h-175l283 325l-168 329h174l119 -233l3 -46h13z" />
    <glyph glyph-name="uni0426" unicode="&#x426;" horiz-adv-x="690" 
d="M41 0l116 654h157l-90 -508h238l90 508h157l-90 -508h70l-42 -240h-157l16 94h-465z" />
    <glyph glyph-name="uni0427" unicode="&#x427;" horiz-adv-x="640" 
d="M270 464q-7 -41 23.5 -66t88.5 -25q52 0 88.5 7.5t48.5 15.5l39 -120q-67 -49 -205 -49q-121 0 -190.5 64.5t-52.5 161.5l36 201h158zM555 654h157l-115 -654h-157z" />
    <glyph glyph-name="uni0428" unicode="&#x428;" horiz-adv-x="906" 
d="M861 0h-820l116 654h157l-90 -508h175l90 508h157l-90 -508h174l90 508h157z" />
    <glyph glyph-name="uni0429" unicode="&#x429;" horiz-adv-x="940" 
d="M41 0l116 654h157l-90 -508h175l90 508h157l-90 -508h174l90 508h157l-90 -508h52l-42 -240h-157l16 94h-715z" />
    <glyph glyph-name="uni042A" unicode="&#x42a;" horiz-adv-x="639" 
d="M306 410h108q122 0 187 -58t48 -152q-16 -91 -96.5 -145.5t-199.5 -54.5h-276l89 505h-77l26 149h234zM260 147h108q115 0 125 57q5 27 -23.5 43t-88.5 16h-101z" />
    <glyph glyph-name="uni042B" unicode="&#x42b;" horiz-adv-x="901" 
d="M815 654h157l-116 -654h-157zM271 410h152q122 0 186.5 -57.5t48.5 -151.5q-16 -92 -96.5 -146.5t-200.5 -54.5h-320l116 654h157zM224 147h152q115 0 126 58q4 27 -24.5 42.5t-87.5 15.5h-145z" />
    <glyph glyph-name="uni042C" unicode="&#x42c;" horiz-adv-x="673" 
d="M271 410h170q124 0 190.5 -57.5t50.5 -151.5q-16 -92 -98.5 -146.5t-204.5 -54.5h-338l116 654h157zM224 147h170q121 0 132 58q4 27 -26 42.5t-92 15.5h-163z" />
    <glyph glyph-name="uni042D" unicode="&#x42d;" horiz-adv-x="718" 
d="M697 268l23 126h-408l-23 -126h408zM65 212q19 -113 94 -174.5t186 -61.5q157 0 266.5 93.5t139.5 262.5q29 164 -48 256t-234 92q-123 0 -222 -64.5t-146 -181.5l149 -31q23 58 74.5 90t117.5 32q87 0 127 -50.5t24 -142.5q-17 -96 -75.5 -149t-145.5 -53
q-62 0 -100 28.5t-48 83.5z" />
    <glyph glyph-name="uni042E" unicode="&#x42e;" horiz-adv-x="892" 
d="M474 324q17 98 65 152t117 54q68 0 97 -54t12 -152q-18 -99 -66 -153t-116 -54q-69 0 -98 54t-11 153zM316 324q-29 -163 37 -253.5t206 -90.5t237.5 90.5t126.5 253.5q14 82 1.5 146t-46 107.5t-84.5 66t-114 22.5q-140 0 -238 -89.5t-126 -252.5zM41 0h156l45 255h116
l26 148h-116l45 251h-156z" />
    <glyph glyph-name="uni042F" unicode="&#x42f;" horiz-adv-x="660" 
d="M410 276l-200 -276h-169l199 276h170zM636 0h-157l38 212h-170q-120 0 -183.5 59t-46.5 155q17 100 103 164t205 64h327zM543 358l26 150h-160q-58 0 -92.5 -20.5t-41.5 -58.5q-6 -34 22 -52.5t86 -18.5h160z" />
    <glyph glyph-name="uni0430" unicode="&#x430;" horiz-adv-x="575" 
d="M208 148q-3 -18 13.5 -27t46.5 -9q56 0 93.5 17.5t42.5 45.5h23q-16 -90 -84 -144.5t-164 -54.5q-69 0 -107.5 38.5t-27.5 98.5t56 95.5t127 51.5l199 40l-17 -95l-142 -29q-56 -12 -59 -28zM531 0h-158l60 110l-37 20l31 174q3 20 -20 32t-64 12q-43 0 -73 -18t-40 -47
l-152 20q28 79 106 130t185 51q109 0 169.5 -49t48.5 -120z" />
    <glyph glyph-name="uni0431" unicode="&#x431;" horiz-adv-x="621" 
d="M67 244q-21 -119 49.5 -193.5t203.5 -74.5q122 0 207.5 62.5t103.5 163.5q18 105 -32 173t-147 68q-90 0 -158 -60t-85 -155zM219 206q8 48 46.5 75.5t96.5 27.5q62 0 91.5 -26t20.5 -73q-8 -46 -46 -72.5t-96 -26.5q-55 0 -88 27t-25 68zM415 641q-88 -21 -144.5 -48
t-97.5 -74t-64.5 -111t-41.5 -164l154 -22q11 62 23 87l-33 18l48 83q20 45 55.5 68t113.5 34q99 15 169 47t94 63l-111 84q-33 -45 -165 -65z" />
    <glyph glyph-name="uni0432" unicode="&#x432;" horiz-adv-x="623" 
d="M221 127h160q81 0 85 23q3 17 -78 17h-160zM250 294h160q70 0 74 20q2 10 -14 15t-53 5h-160zM514 237l-2 -13q54 -8 83.5 -35.5t22.5 -64.5q-10 -57 -77 -90.5t-172 -33.5h-328l82 460h328q104 0 154.5 -32t41.5 -87q-8 -40 -42.5 -68.5t-90.5 -35.5z" />
    <glyph glyph-name="uni0433" unicode="&#x433;" horiz-adv-x="513" 
d="M123 460l-82 -460h157l56 314h296l26 146h-453z" />
    <glyph glyph-name="uni0434" unicode="&#x434;" horiz-adv-x="678" 
d="M669 98l-45 -258h-158l19 110h-314l-19 -110h-156l45 258h29q22 0 37 4t31.5 17t29 42t20.5 74l39 225h437l-64 -362h69zM443 98l39 216h-123l-16 -90q-15 -83 -66 -103l-1 -23h167z" />
    <glyph glyph-name="uni0435" unicode="&#x435;" 
d="M216 188q-2 -37 28 -57t87 -20q44 0 76 12.5t44 34.5l150 -21q-34 -75 -113 -118t-181 -43q-134 0 -198.5 68.5t-43.5 187.5q21 118 107 186t214 68q129 0 191 -68t42 -180l-9 -50h-394zM236 290h233q5 27 -25.5 44.5t-81.5 17.5q-100 0 -126 -62z" />
    <glyph glyph-name="uni0436" unicode="&#x436;" horiz-adv-x="865" 
d="M563 304h28l147 156h190l-228 -230l147 -230h-190l-92 156h-28l-27 -156h-157l28 156h-28l-147 -156h-190l228 230l-147 230h190l92 -156h28l27 156h157z" />
    <glyph glyph-name="uni0437" unicode="&#x437;" horiz-adv-x="567" 
d="M464 239q57 6 93.5 34.5t44.5 70.5q11 62 -53 101.5t-177 39.5q-109 0 -182.5 -38t-106.5 -112l153 -20q25 33 109 33q46 0 71 -9.5t22 -25.5q-3 -17 -81 -17h-112l-22 -127h112q36 0 55.5 -8t17.5 -21q-3 -18 -32.5 -29t-75.5 -11q-82 0 -93 51l-160 -19
q6 -77 66 -117.5t168 -40.5q113 0 192 43.5t91 112.5q7 39 -20 65t-82 32z" />
    <glyph glyph-name="uni0438" unicode="&#x438;" horiz-adv-x="646" 
d="M281 460h-158l-82 -460h180l271 268l-48 -268h157l82 460h-179l-270 -266z" />
    <glyph glyph-name="uni0439" unicode="&#x439;" horiz-adv-x="646" 
d="M516 655q-4 -21 -29.5 -36.5t-58 -15.5t-52.5 15.5t-16 36.5h-113q-10 -56 38 -93.5t129.5 -37.5t143 37.5t71.5 93.5h-113zM281 460h-158l-82 -460h180l271 268l-48 -268h157l82 460h-179l-270 -266z" />
    <glyph glyph-name="uni043A" unicode="&#x43a;" horiz-adv-x="636" 
d="M123 460h157l-35 -193l258 193h196l-245 -200l163 -260h-190l-109 177l-102 -76l-18 -101h-157z" />
    <glyph glyph-name="uni043B" unicode="&#x43b;" horiz-adv-x="625" 
d="M662 460l-81 -460h-157l56 314h-141l-16 -90q-10 -56 -29.5 -97t-44 -65t-57 -38.5t-63.5 -19t-70 -4.5h-38l26 148h38q33 0 53 16.5t30 70.5l39 225h455z" />
    <glyph glyph-name="uni043C" unicode="&#x43c;" horiz-adv-x="791" 
d="M467 0h-139l-89 232l-41 -232h-157l82 460h190l112 -302l223 302h180l-82 -460h-148l41 232z" />
    <glyph glyph-name="uni043D" unicode="&#x43d;" horiz-adv-x="618" 
d="M123 460h157l-29 -160h217l29 160h158l-82 -460h-158l27 153h-217l-27 -153h-157z" />
    <glyph glyph-name="uni043E" unicode="&#x43e;" 
d="M223 232q-10 -58 15.5 -89.5t81.5 -31.5t93 31.5t47 89.5q10 57 -16 88.5t-82 31.5t-92.5 -31t-46.5 -89zM65 232q21 121 107.5 187.5t213.5 66.5q119 0 186 -68t46 -186q-21 -121 -108 -188.5t-214 -67.5t-189.5 67.5t-41.5 188.5z" />
    <glyph glyph-name="uni043F" unicode="&#x43f;" horiz-adv-x="638" 
d="M123 460h552l-82 -460h-158l56 313h-237l-56 -313h-157z" />
    <glyph glyph-name="uni0440" unicode="&#x440;" horiz-adv-x="641" 
d="M240 229q10 58 49.5 89t100.5 31t89 -31t18 -89t-49.5 -89.5t-100 -31.5t-89 31.5t-18.5 89.5zM212 229q-22 -122 20 -188.5t138 -66.5q102 0 183 68t102 190q21 117 -32.5 184.5t-157.5 67.5q-99 0 -165.5 -66.5t-87.5 -188.5zM7 -197h158l34 197l-20 114l43 16l36 200
l-37 16l60 114h-158z" />
    <glyph glyph-name="uni0441" unicode="&#x441;" horiz-adv-x="597" 
d="M625 294l-155 -20q-7 38 -33.5 58t-70.5 20q-57 0 -95 -31.5t-48 -88.5q-10 -58 16.5 -89.5t84.5 -31.5q47 0 82.5 22.5t51.5 64.5l151 -20q-38 -97 -121.5 -149.5t-187.5 -52.5q-128 0 -192 67.5t-43 188.5q21 120 109 187t216 67q94 0 157 -50t78 -142z" />
    <glyph glyph-name="uni0442" unicode="&#x442;" horiz-adv-x="576" 
d="M110 460l-26 -146h178l-55 -314h158l55 314h180l26 146h-516z" />
    <glyph glyph-name="uni0443" unicode="&#x443;" horiz-adv-x="627" 
d="M363 182l153 278h174l-325 -541q-35 -59 -87.5 -90t-111.5 -31h-150l24 139h84q31 0 48.5 6.5t28.5 22.5l21 34l-125 460h173l57 -278l1 -56h13z" />
    <glyph glyph-name="uni0444" unicode="&#x444;" horiz-adv-x="683" 
d="M345 529h179l-107 -607h-179zM224 230q-7 -37 31 -57.5t112 -20.5t119.5 20.5t52.5 57.5q6 37 -32 57t-112.5 20t-119.5 -20t-51 -57zM65 230q18 102 113 158t240 56q89 0 155.5 -24t101.5 -73.5t23 -116.5q-18 -103 -114 -159.5t-241 -56.5t-220.5 56.5t-57.5 159.5z
" />
    <glyph glyph-name="uni0445" unicode="&#x445;" horiz-adv-x="627" 
d="M386 318l127 142h177l-211 -232l130 -228h-176l-78 142l-3 46h-13l-19 -46l-127 -142h-177l210 228l-129 232h176l78 -142l3 -46h13z" />
    <glyph glyph-name="uni0446" unicode="&#x446;" horiz-adv-x="630" 
d="M41 0l82 460h157l-56 -314h178l56 314h157l-56 -314h70l-42 -240h-157l16 94h-405z" />
    <glyph glyph-name="uni0447" unicode="&#x447;" horiz-adv-x="581" 
d="M244 310q-4 -23 20.5 -37t68.5 -14t78 20t47 43l44 -90q-90 -109 -256 -109q-83 0 -131 39t-38 97l36 201h158zM462 460h157l-81 -460h-157z" />
    <glyph glyph-name="uni0448" unicode="&#x448;" horiz-adv-x="702" 
d="M741 0h-700l82 460h163l-56 -314h103l56 314h169l-56 -314h102l56 314h163z" />
    <glyph glyph-name="uni0449" unicode="&#x449;" horiz-adv-x="880" 
d="M41 0l82 460h163l-56 -314h103l56 314h169l-56 -314h102l56 314h163l-56 -314h112l-42 -240h-157l16 94h-655z" />
    <glyph glyph-name="uni044A" unicode="&#x44a;" horiz-adv-x="609" 
d="M270 147h113q70 0 74 25q4 20 -69 20h-110zM325 460l-21 -120h110q104 0 159 -45t41 -124q-14 -82 -81 -126.5t-175 -44.5h-271l55 314h-87l26 146h244z" />
    <glyph glyph-name="uni044B" unicode="&#x44b;" horiz-adv-x="811" 
d="M691 460h157l-82 -460h-157zM224 147h117q80 0 84 21q4 24 -79 24h-114zM280 460l-22 -120h124q104 0 159 -46t41 -127q-14 -80 -80.5 -123.5t-175.5 -43.5h-285l82 460h157z" />
    <glyph glyph-name="uni044C" unicode="&#x44c;" 
d="M224 147h135q86 0 90 21q4 24 -85 24h-132zM280 460l-22 -120h142q107 0 163.5 -46t42.5 -127q-14 -80 -82 -123.5t-180 -43.5h-303l82 460h157z" />
    <glyph glyph-name="uni044D" unicode="&#x44d;" 
d="M278 293l-22 -126h312l22 126h-312zM50 148q18 -83 83 -127.5t160 -44.5q128 0 216 67t109 187q21 121 -43.5 188.5t-191.5 67.5q-104 0 -186.5 -47.5t-118.5 -134.5l150 -20q15 32 49.5 49.5t81.5 17.5q58 0 84.5 -31.5t16.5 -89.5q-10 -57 -48 -88.5t-95 -31.5
q-93 0 -111 58z" />
    <glyph glyph-name="uni044E" unicode="&#x44e;" horiz-adv-x="796" 
d="M449 232q10 57 42.5 88.5t79.5 31.5q49 0 70 -31.5t11 -88.5q-10 -58 -42.5 -89.5t-80.5 -31.5t-69 31.5t-11 89.5zM291 232q-20 -117 38.5 -181.5t177.5 -64.5t201 64.5t102 181.5q20 114 -42.5 179t-174.5 65q-119 0 -200 -64t-102 -180zM41 0h156l29 160h128l26 148
h-128l27 152h-156z" />
    <glyph glyph-name="uni044F" unicode="&#x44f;" horiz-adv-x="605" 
d="M45 0l152 204h170l-150 -204h-172zM454 313h-150q-60 0 -62 -16q-4 -19 60 -19h146zM399 0l23 130h-142q-104 0 -159.5 44.5t-41.5 122.5t80 120.5t175 42.5h308l-81 -460h-162z" />
    <glyph glyph-name="uni0450" unicode="&#x450;" 
d="M252 703h143l84 -177h-99zM216 188q-2 -37 28 -57t87 -20q44 0 76 12.5t44 34.5l150 -21q-34 -75 -113 -118t-181 -43q-134 0 -198.5 68.5t-43.5 187.5q21 118 107 186t214 68q129 0 191 -68t42 -180l-9 -50h-394zM236 290h233q5 27 -25.5 44.5t-81.5 17.5
q-100 0 -126 -62z" />
    <glyph glyph-name="uni0451" unicode="&#x451;" 
d="M454 616q5 34 34 58.5t63 24.5t54 -24.5t15 -58.5q-6 -33 -35.5 -58.5t-63 -25.5t-53.5 25.5t-14 58.5zM189 616q5 34 34 58.5t63 24.5t54 -24.5t15 -58.5q-6 -33 -35.5 -58.5t-63 -25.5t-53.5 25.5t-14 58.5zM216 188q-2 -37 28 -57t87 -20q44 0 76 12.5t44 34.5
l150 -21q-34 -75 -113 -118t-181 -43q-134 0 -198.5 68.5t-43.5 187.5q21 118 107 186t214 68q129 0 191 -68t42 -180l-9 -50h-394zM236 290h233q5 27 -25.5 44.5t-81.5 17.5q-100 0 -126 -62z" />
    <glyph glyph-name="uni0452" unicode="&#x452;" horiz-adv-x="606" 
d="M289 460l-57 -117l19 -7q28 63 86 105.5t127 42.5q79 0 123 -53.5t31 -132.5l-55 -309q-14 -78 -72.5 -121t-146.5 -43h-66l23 129h46q21 0 39 13t21 33l51 287q5 29 -19 46.5t-69 17.5q-44 0 -75.5 -18.5t-36.5 -47.5l-50 -285h-157l91 518h-51l21 117h51l9 52h157
l-9 -52h163l-21 -117h-163z" />
    <glyph glyph-name="uni0453" unicode="&#x453;" horiz-adv-x="513" 
d="M553 703l-190 -177h-99l146 177h143zM123 460l-82 -460h157l56 314h296l26 146h-453z" />
    <glyph glyph-name="uni0454" unicode="&#x454;" 
d="M411 169l22 126h-318l-22 -126h318zM633 314q-18 83 -83 127.5t-160 44.5q-128 0 -216 -67t-109 -187q-21 -121 43 -188.5t192 -67.5q104 0 186.5 47.5t118.5 134.5l-150 20q-15 -32 -50 -49.5t-81 -17.5q-58 0 -84.5 31.5t-16.5 89.5q10 57 48 88.5t95 31.5
q93 0 111 -58z" />
    <glyph glyph-name="uni0455" unicode="&#x455;" horiz-adv-x="534" 
d="M529 120q7 35 -2.5 63.5t-28 46.5t-48.5 32t-57 21.5t-62 13.5q-44 7 -65.5 16t-18.5 25q4 24 79 24q68 0 78 -55l158 28q-24 151 -226 151q-101 0 -167.5 -38.5t-77.5 -103.5q-6 -31 2.5 -57t25.5 -43t44 -31t54 -21.5t60 -14.5q25 -4 38.5 -7.5t30 -9t23 -13.5t4.5 -19
q-3 -14 -25.5 -22.5t-56.5 -8.5q-76 0 -86 66l-155 -18q4 -86 66.5 -129t162.5 -43t169.5 41t80.5 106z" />
    <glyph glyph-name="uni0456" unicode="&#x456;" horiz-adv-x="238" 
d="M133 588q7 36 37.5 62t66.5 26t57.5 -26t14.5 -62q-6 -36 -36.5 -62.5t-66.5 -26.5t-57.5 26.5t-15.5 62.5zM122 460h157l-81 -460h-157z" />
    <glyph glyph-name="uni0457" unicode="&#x457;" horiz-adv-x="236" 
d="M275 616q5 34 34 58.5t63 24.5t54 -24.5t15 -58.5q-6 -33 -35.5 -58.5t-63 -25.5t-53.5 25.5t-14 58.5zM10 616q5 34 34 58.5t63 24.5t54 -24.5t15 -58.5q-6 -33 -35.5 -58.5t-63 -25.5t-53.5 25.5t-14 58.5zM122 460h157l-81 -460h-157z" />
    <glyph glyph-name="uni0458" unicode="&#x458;" horiz-adv-x="228" 
d="M128 588q6 36 37 62t67 26t57 -26t15 -62t-37 -62.5t-66.5 -26.5t-57 26.5t-15.5 62.5zM117 460h157l-84 -474q-14 -80 -83.5 -127t-173.5 -47h-70l26 148h70q28 0 51.5 16.5t27.5 40.5z" />
    <glyph glyph-name="uni0459" unicode="&#x459;" horiz-adv-x="880" 
d="M551 192l-8 -45h113q66 0 70 22q4 23 -65 23h-110zM415 314h-89l-16 -90q-10 -56 -28.5 -97t-41.5 -65t-54 -38.5t-60 -19t-65 -4.5h-32l26 148h22q31 0 50 16.5t28 70.5l40 225h403l-21 -120h100q106 0 162.5 -47.5t41.5 -131.5q-13 -77 -81 -119t-179 -42h-261z" />
    <glyph glyph-name="uni045A" unicode="&#x45a;" horiz-adv-x="813" 
d="M496 147l7 36h100q59 0 56 -18q-4 -18 -60 -18h-103zM552 460h-157l-82 -460h241q112 0 179.5 40.5t80.5 114.5q13 78 -44 122t-163 44h-80zM41 0h156l31 172h166l26 148h-166l25 140h-156z" />
    <glyph glyph-name="uni045B" unicode="&#x45b;" horiz-adv-x="606" 
d="M289 460l-57 -117l19 -7q28 63 86 105.5t127 42.5q79 0 123 -53.5t31 -132.5l-53 -298h-158l51 287q5 29 -19 46.5t-69 17.5q-44 0 -75.5 -18.5t-36.5 -47.5l-50 -285h-157l91 518h-51l21 117h51l9 52h157l-9 -52h163l-21 -117h-163z" />
    <glyph glyph-name="uni045C" unicode="&#x45c;" horiz-adv-x="636" 
d="M609 703l-190 -177h-99l146 177h143zM123 460h157l-35 -193l258 193h196l-245 -200l163 -260h-190l-109 177l-102 -76l-18 -101h-157z" />
    <glyph glyph-name="uni045D" unicode="&#x45d;" horiz-adv-x="646" 
d="M274 703h143l84 -177h-99zM281 460h-158l-82 -460h180l271 268l-48 -268h157l82 460h-179l-270 -266z" />
    <glyph glyph-name="uni045E" unicode="&#x45e;" horiz-adv-x="627" 
d="M503 655q-4 -21 -29.5 -36.5t-58 -15.5t-52.5 15.5t-16 36.5h-113q-10 -56 38 -93.5t129.5 -37.5t143 37.5t71.5 93.5h-113zM363 182l153 278h174l-325 -541q-35 -59 -87.5 -90t-111.5 -31h-150l24 139h84q31 0 48.5 6.5t28.5 22.5l21 34l-125 460h173l57 -278l1 -56h13z
" />
    <glyph glyph-name="uni045F" unicode="&#x45f;" horiz-adv-x="638" 
d="M249 0h-208l82 460h158l-56 -313h237l56 313h157l-82 -460h-197l-21 -123h-147z" />
    <glyph glyph-name="uni0490" unicode="&#x490;" horiz-adv-x="529" 
d="M157 654l-116 -654h157l90 508h312l44 249h-157l-18 -103h-312z" />
    <glyph glyph-name="uni0491" unicode="&#x491;" horiz-adv-x="513" 
d="M123 460l-82 -460h157l56 314h296l38 219h-157l-12 -73h-296z" />
    <glyph glyph-name="uni0492" unicode="&#x492;" horiz-adv-x="525" 
d="M70 398l-22 -126h312l22 126h-312zM154 654l-115 -654h157l90 508h312l25 146h-469z" />
    <glyph glyph-name="uni0493" unicode="&#x493;" horiz-adv-x="509" 
d="M47 268l-22 -126h314l22 126h-314zM120 460l-81 -460h157l55 314h296l26 146h-453z" />
    <glyph glyph-name="uni1EA0" unicode="&#x1ea0;" horiz-adv-x="784" 
d="M283 -154q6 36 36.5 62t66.5 26t57.5 -26t15.5 -62q-7 -36 -37.5 -62.5t-66.5 -26.5t-57.5 26.5t-14.5 62.5zM245 285h395l-26 -146h-394zM454 466l-262 -466h-176l371 654h234l145 -654h-176l-102 466v56h-14z" />
    <glyph glyph-name="uni1EA1" unicode="&#x1ea1;" horiz-adv-x="575" 
d="M166 -154q6 36 36.5 62t66.5 26t57.5 -26t15.5 -62q-7 -36 -37.5 -62.5t-66.5 -26.5t-57.5 26.5t-14.5 62.5zM208 148q-3 -18 13.5 -27t46.5 -9q56 0 93.5 17.5t42.5 45.5h23q-16 -90 -84 -144.5t-164 -54.5q-69 0 -107.5 38.5t-27.5 98.5t56 95.5t127 51.5l199 40
l-17 -95l-142 -29q-56 -12 -59 -28zM531 0h-158l60 110l-37 20l31 174q3 20 -20 32t-64 12q-43 0 -73 -18t-40 -47l-152 20q28 79 106 130t185 51q109 0 169.5 -49t48.5 -120z" />
    <glyph glyph-name="uni1EA2" unicode="&#x1ea2;" horiz-adv-x="784" 
d="M542 800q2 8 -10.5 14t-30.5 6q-41 0 -53 -30l-82 23q18 40 61.5 61t87.5 21q54 0 88 -27.5t27 -67.5q-2 -14 -11.5 -27.5t-25 -25.5t-28 -20.5t-32.5 -20t-28 -16.5l-41 56q75 35 78 54zM245 285h395l-26 -146h-394zM454 466l-262 -466h-176l371 654h234l145 -654h-176
l-102 466v56h-14z" />
    <glyph glyph-name="uni1EA3" unicode="&#x1ea3;" horiz-adv-x="575" 
d="M441 617q2 8 -10.5 14t-30.5 6q-41 0 -53 -30l-82 23q18 40 61.5 61t87.5 21q54 0 88 -27.5t27 -67.5q-2 -14 -11.5 -27.5t-25 -25.5t-28 -20.5t-32.5 -20t-28 -16.5l-41 56q75 35 78 54zM208 148q-3 -18 13.5 -27t46.5 -9q56 0 93.5 17.5t42.5 45.5h23
q-16 -90 -84 -144.5t-164 -54.5q-69 0 -107.5 38.5t-27.5 98.5t56 95.5t127 51.5l199 40l-17 -95l-142 -29q-56 -12 -59 -28zM531 0h-158l60 110l-37 20l31 174q3 20 -20 32t-64 12q-43 0 -73 -18t-40 -47l-152 20q28 79 106 130t185 51q109 0 169.5 -49t48.5 -120z" />
    <glyph glyph-name="uni1EA4" unicode="&#x1ea4;" horiz-adv-x="784" 
d="M944 990l-190 -177h-99l146 177h143zM483 781l-86 -73h-135l168 136h154l120 -136h-135l-60 73l-3 21h-12zM245 285h395l-26 -146h-394zM454 466l-262 -466h-176l371 654h234l145 -654h-176l-102 466v56h-14z" />
    <glyph glyph-name="uni1EA5" unicode="&#x1ea5;" horiz-adv-x="575" 
d="M843 807l-190 -177h-99l146 177h143zM382 598l-86 -73h-135l168 136h154l120 -136h-135l-60 73l-3 21h-12zM208 148q-3 -18 13.5 -27t46.5 -9q56 0 93.5 17.5t42.5 45.5h23q-16 -90 -84 -144.5t-164 -54.5q-69 0 -107.5 38.5t-27.5 98.5t56 95.5t127 51.5l199 40l-17 -95
l-142 -29q-56 -12 -59 -28zM531 0h-158l60 110l-37 20l31 174q3 20 -20 32t-64 12q-43 0 -73 -18t-40 -47l-152 20q28 79 106 130t185 51q109 0 169.5 -49t48.5 -120z" />
    <glyph glyph-name="uni1EA6" unicode="&#x1ea6;" horiz-adv-x="784" 
d="M566 990h143l84 -177h-99zM483 781l-86 -73h-135l168 136h154l120 -136h-135l-60 73l-3 21h-12zM245 285h395l-26 -146h-394zM454 466l-262 -466h-176l371 654h234l145 -654h-176l-102 466v56h-14z" />
    <glyph glyph-name="uni1EA7" unicode="&#x1ea7;" horiz-adv-x="575" 
d="M465 807h143l84 -177h-99zM382 598l-86 -73h-135l168 136h154l120 -136h-135l-60 73l-3 21h-12zM208 148q-3 -18 13.5 -27t46.5 -9q56 0 93.5 17.5t42.5 45.5h23q-16 -90 -84 -144.5t-164 -54.5q-69 0 -107.5 38.5t-27.5 98.5t56 95.5t127 51.5l199 40l-17 -95l-142 -29
q-56 -12 -59 -28zM531 0h-158l60 110l-37 20l31 174q3 20 -20 32t-64 12q-43 0 -73 -18t-40 -47l-152 20q28 79 106 130t185 51q109 0 169.5 -49t48.5 -120z" />
    <glyph glyph-name="uni1EA8" unicode="&#x1ea8;" horiz-adv-x="784" 
d="M749 913q1 8 -11 14t-31 6q-40 0 -53 -30l-82 23q19 40 62 61t87 21q55 0 89 -27.5t27 -67.5q-3 -14 -12 -27.5t-24.5 -25.5t-28.5 -20.5t-33 -20t-28 -16.5l-41 56q75 35 79 54zM483 781l-86 -73h-135l168 136h154l120 -136h-135l-60 73l-3 21h-12zM245 285h395
l-26 -146h-394zM454 466l-262 -466h-176l371 654h234l145 -654h-176l-102 466v56h-14z" />
    <glyph glyph-name="uni1EA9" unicode="&#x1ea9;" horiz-adv-x="575" 
d="M648 730q1 8 -11 14t-31 6q-40 0 -53 -30l-82 23q19 40 62 61t87 21q55 0 89 -27.5t27 -67.5q-3 -14 -12 -27.5t-24.5 -25.5t-28.5 -20.5t-33 -20t-28 -16.5l-41 56q75 35 79 54zM382 598l-86 -73h-135l168 136h154l120 -136h-135l-60 73l-3 21h-12zM208 148
q-3 -18 13.5 -27t46.5 -9q56 0 93.5 17.5t42.5 45.5h23q-16 -90 -84 -144.5t-164 -54.5q-69 0 -107.5 38.5t-27.5 98.5t56 95.5t127 51.5l199 40l-17 -95l-142 -29q-56 -12 -59 -28zM531 0h-158l60 110l-37 20l31 174q3 20 -20 32t-64 12q-43 0 -73 -18t-40 -47l-152 20
q28 79 106 130t185 51q109 0 169.5 -49t48.5 -120z" />
    <glyph glyph-name="uni1EAA" unicode="&#x1eaa;" horiz-adv-x="784" 
d="M623 1014q-6 -29 -15.5 -42t-26.5 -13q-15 0 -28 5.5t-17.5 9.5t-18.5 16q-10 10 -18.5 16.5t-26 12t-40.5 5.5q-57 0 -93 -33.5t-47 -95.5l77 -8q11 59 47 59q12 0 22.5 -4t14.5 -6.5t16 -14t14 -12.5q34 -29 85 -29q111 0 133 127zM484 781l-86 -73h-135l168 136h154
l120 -136h-135l-60 73l-3 21h-12zM245 285h395l-26 -146h-394zM454 466l-262 -466h-176l371 654h234l145 -654h-176l-102 466v56h-14z" />
    <glyph glyph-name="uni1EAB" unicode="&#x1eab;" horiz-adv-x="575" 
d="M513 821q-6 -29 -15.5 -42t-26.5 -13q-15 0 -28 5.5t-17.5 9.5t-18.5 16q-10 10 -18.5 16.5t-26 12t-40.5 5.5q-57 0 -93 -33.5t-47 -95.5l77 -8q11 59 47 59q12 0 22.5 -4t14.5 -6.5t16 -14t14 -12.5q34 -29 85 -29q111 0 133 127zM384 598l-86 -73h-135l168 136h154
l120 -136h-135l-60 73l-3 21h-12zM208 148q-3 -18 13.5 -27t46.5 -9q56 0 93.5 17.5t42.5 45.5h23q-16 -90 -84 -144.5t-164 -54.5q-69 0 -107.5 38.5t-27.5 98.5t56 95.5t127 51.5l199 40l-17 -95l-142 -29q-56 -12 -59 -28zM531 0h-158l60 110l-37 20l31 174q3 20 -20 32
t-64 12q-43 0 -73 -18t-40 -47l-152 20q28 79 106 130t185 51q109 0 169.5 -49t48.5 -120z" />
    <glyph glyph-name="uni1EAC" unicode="&#x1eac;" horiz-adv-x="784" 
d="M480 813l-86 -73h-135l168 136h154l120 -136h-135l-60 73l-3 21h-12zM283 -154q6 36 36.5 62t66.5 26t57.5 -26t15.5 -62q-7 -36 -37.5 -62.5t-66.5 -26.5t-57.5 26.5t-14.5 62.5zM245 285h395l-26 -146h-394zM454 466l-262 -466h-176l371 654h234l145 -654h-176
l-102 466v56h-14z" />
    <glyph glyph-name="uni1EAD" unicode="&#x1ead;" horiz-adv-x="575" 
d="M374 619l-86 -73h-135l168 136h154l120 -136h-135l-60 73l-3 21h-12zM166 -154q6 36 36.5 62t66.5 26t57.5 -26t15.5 -62q-7 -36 -37.5 -62.5t-66.5 -26.5t-57.5 26.5t-14.5 62.5zM208 148q-3 -18 13.5 -27t46.5 -9q56 0 93.5 17.5t42.5 45.5h23q-16 -90 -84 -144.5
t-164 -54.5q-69 0 -107.5 38.5t-27.5 98.5t56 95.5t127 51.5l199 40l-17 -95l-142 -29q-56 -12 -59 -28zM531 0h-158l60 110l-37 20l31 174q3 20 -20 32t-64 12q-43 0 -73 -18t-40 -47l-152 20q28 79 106 130t185 51q109 0 169.5 -49t48.5 -120z" />
    <glyph glyph-name="uni1EAE" unicode="&#x1eae;" horiz-adv-x="784" 
d="M689 1041l-190 -177h-99l146 177h143zM586 838q-4 -21 -29.5 -36.5t-58 -15.5t-52.5 15.5t-16 36.5h-113q-10 -56 38 -93.5t129.5 -37.5t143 37.5t71.5 93.5h-113zM245 285h395l-26 -146h-394zM454 466l-262 -466h-176l371 654h234l145 -654h-176l-102 466v56h-14z" />
    <glyph glyph-name="uni1EAF" unicode="&#x1eaf;" horiz-adv-x="575" 
d="M569 864l-190 -177h-99l146 177h143zM486 655q-4 -21 -29.5 -36.5t-58 -15.5t-52.5 15.5t-16 36.5h-113q-10 -56 38 -93.5t129.5 -37.5t143 37.5t71.5 93.5h-113zM208 148q-3 -18 13.5 -27t46.5 -9q56 0 93.5 17.5t42.5 45.5h23q-16 -90 -84 -144.5t-164 -54.5
q-69 0 -107.5 38.5t-27.5 98.5t56 95.5t127 51.5l199 40l-17 -95l-142 -29q-56 -12 -59 -28zM531 0h-158l60 110l-37 20l31 174q3 20 -20 32t-64 12q-43 0 -73 -18t-40 -47l-152 20q28 79 106 130t185 51q109 0 169.5 -49t48.5 -120z" />
    <glyph glyph-name="uni1EB0" unicode="&#x1eb0;" horiz-adv-x="784" 
d="M344 1041h143l84 -177h-99zM586 838q-4 -21 -29.5 -36.5t-58 -15.5t-52.5 15.5t-16 36.5h-113q-10 -56 38 -93.5t129.5 -37.5t143 37.5t71.5 93.5h-113zM245 285h395l-26 -146h-394zM454 466l-262 -466h-176l371 654h234l145 -654h-176l-102 466v56h-14z" />
    <glyph glyph-name="uni1EB1" unicode="&#x1eb1;" horiz-adv-x="575" 
d="M224 864h143l84 -177h-99zM486 655q-4 -21 -29.5 -36.5t-58 -15.5t-52.5 15.5t-16 36.5h-113q-10 -56 38 -93.5t129.5 -37.5t143 37.5t71.5 93.5h-113zM208 148q-3 -18 13.5 -27t46.5 -9q56 0 93.5 17.5t42.5 45.5h23q-16 -90 -84 -144.5t-164 -54.5q-69 0 -107.5 38.5
t-27.5 98.5t56 95.5t127 51.5l199 40l-17 -95l-142 -29q-56 -12 -59 -28zM531 0h-158l60 110l-37 20l31 174q3 20 -20 32t-64 12q-43 0 -73 -18t-40 -47l-152 20q28 79 106 130t185 51q109 0 169.5 -49t48.5 -120z" />
    <glyph glyph-name="uni1EB2" unicode="&#x1eb2;" horiz-adv-x="784" 
d="M542 955q2 8 -10.5 14t-30.5 6q-41 0 -53 -30l-82 23q18 40 61.5 61t87.5 21q54 0 88 -27.5t27 -67.5q-2 -14 -11.5 -27.5t-25 -25.5t-28 -20.5t-32.5 -20t-28 -16.5l-41 56q75 35 78 54zM586 838q-4 -21 -29.5 -36.5t-58 -15.5t-52.5 15.5t-16 36.5h-113
q-10 -56 38 -93.5t129.5 -37.5t143 37.5t71.5 93.5h-113zM245 285h395l-26 -146h-394zM454 466l-262 -466h-176l371 654h234l145 -654h-176l-102 466v56h-14z" />
    <glyph glyph-name="uni1EB3" unicode="&#x1eb3;" horiz-adv-x="575" 
d="M422 778q2 8 -10.5 14t-30.5 6q-41 0 -53 -30l-82 23q18 40 61.5 61t87.5 21q54 0 88 -27.5t27 -67.5q-2 -14 -11.5 -27.5t-25 -25.5t-28 -20.5t-32.5 -20t-28 -16.5l-41 56q75 35 78 54zM486 655q-4 -21 -29.5 -36.5t-58 -15.5t-52.5 15.5t-16 36.5h-113
q-10 -56 38 -93.5t129.5 -37.5t143 37.5t71.5 93.5h-113zM208 148q-3 -18 13.5 -27t46.5 -9q56 0 93.5 17.5t42.5 45.5h23q-16 -90 -84 -144.5t-164 -54.5q-69 0 -107.5 38.5t-27.5 98.5t56 95.5t127 51.5l199 40l-17 -95l-142 -29q-56 -12 -59 -28zM531 0h-158l60 110
l-37 20l31 174q3 20 -20 32t-64 12q-43 0 -73 -18t-40 -47l-152 20q28 79 106 130t185 51q109 0 169.5 -49t48.5 -120z" />
    <glyph glyph-name="uni1EB4" unicode="&#x1eb4;" horiz-adv-x="784" 
d="M624 987q-6 -29 -15.5 -42t-26.5 -13q-15 0 -28 5.5t-17.5 9.5t-18.5 16q-10 10 -18.5 16.5t-26 12t-40.5 5.5q-57 0 -93 -33.5t-47 -95.5l77 -8q11 59 47 59q12 0 22.5 -4t14.5 -6.5t16 -14t14 -12.5q34 -29 85 -29q111 0 133 127zM586 838q-4 -21 -29.5 -36.5
t-58 -15.5t-52.5 15.5t-16 36.5h-113q-10 -56 38 -93.5t129.5 -37.5t143 37.5t71.5 93.5h-113zM245 285h395l-26 -146h-394zM454 466l-262 -466h-176l371 654h234l145 -654h-176l-102 466v56h-14z" />
    <glyph glyph-name="uni1EB5" unicode="&#x1eb5;" horiz-adv-x="575" 
d="M504 810q-6 -29 -15.5 -42t-26.5 -13q-15 0 -28 5.5t-17.5 9.5t-18.5 16q-10 10 -18.5 16.5t-26 12t-40.5 5.5q-57 0 -93 -33.5t-47 -95.5l77 -8q11 59 47 59q12 0 22.5 -4t14.5 -6.5t16 -14t14 -12.5q34 -29 85 -29q111 0 133 127zM486 655q-4 -21 -29.5 -36.5
t-58 -15.5t-52.5 15.5t-16 36.5h-113q-10 -56 38 -93.5t129.5 -37.5t143 37.5t71.5 93.5h-113zM208 148q-3 -18 13.5 -27t46.5 -9q56 0 93.5 17.5t42.5 45.5h23q-16 -90 -84 -144.5t-164 -54.5q-69 0 -107.5 38.5t-27.5 98.5t56 95.5t127 51.5l199 40l-17 -95l-142 -29
q-56 -12 -59 -28zM531 0h-158l60 110l-37 20l31 174q3 20 -20 32t-64 12q-43 0 -73 -18t-40 -47l-152 20q28 79 106 130t185 51q109 0 169.5 -49t48.5 -120z" />
    <glyph glyph-name="uni1EB6" unicode="&#x1eb6;" horiz-adv-x="784" 
d="M583 871q-4 -21 -29.5 -36.5t-58 -15.5t-52.5 15.5t-16 36.5h-113q-10 -56 38 -93.5t129.5 -37.5t143 37.5t71.5 93.5h-113zM283 -154q6 36 36.5 62t66.5 26t57.5 -26t15.5 -62q-7 -36 -37.5 -62.5t-66.5 -26.5t-57.5 26.5t-14.5 62.5zM245 285h395l-26 -146h-394z
M454 466l-262 -466h-176l371 654h234l145 -654h-176l-102 466v56h-14z" />
    <glyph glyph-name="uni1EB7" unicode="&#x1eb7;" horiz-adv-x="575" 
d="M477 677q-4 -21 -29.5 -36.5t-58 -15.5t-52.5 15.5t-16 36.5h-113q-10 -56 38 -93.5t129.5 -37.5t143 37.5t71.5 93.5h-113zM166 -154q6 36 36.5 62t66.5 26t57.5 -26t15.5 -62q-7 -36 -37.5 -62.5t-66.5 -26.5t-57.5 26.5t-14.5 62.5zM208 148q-3 -18 13.5 -27t46.5 -9
q56 0 93.5 17.5t42.5 45.5h23q-16 -90 -84 -144.5t-164 -54.5q-69 0 -107.5 38.5t-27.5 98.5t56 95.5t127 51.5l199 40l-17 -95l-142 -29q-56 -12 -59 -28zM531 0h-158l60 110l-37 20l31 174q3 20 -20 32t-64 12q-43 0 -73 -18t-40 -47l-152 20q28 79 106 130t185 51
q109 0 169.5 -49t48.5 -120z" />
    <glyph glyph-name="uni1EB8" unicode="&#x1eb8;" horiz-adv-x="662" 
d="M240 -154q6 36 36.5 62t66.5 26t57.5 -26t15.5 -62q-7 -36 -37.5 -62.5t-66.5 -26.5t-57.5 26.5t-14.5 62.5zM157 654h592l-26 -147h-435l-19 -107h406l-26 -147h-406l-19 -106h435l-26 -147h-592z" />
    <glyph glyph-name="uni1EB9" unicode="&#x1eb9;" 
d="M193 -154q6 36 36.5 62t66.5 26t57.5 -26t15.5 -62q-7 -36 -37.5 -62.5t-66.5 -26.5t-57.5 26.5t-14.5 62.5zM216 188q-2 -37 28 -57t87 -20q44 0 76 12.5t44 34.5l150 -21q-34 -75 -113 -118t-181 -43q-134 0 -198.5 68.5t-43.5 187.5q21 118 107 186t214 68
q129 0 191 -68t42 -180l-9 -50h-394zM236 290h233q5 27 -25.5 44.5t-81.5 17.5q-100 0 -126 -62z" />
    <glyph glyph-name="uni1EBA" unicode="&#x1eba;" horiz-adv-x="662" 
d="M506 800q2 8 -10.5 14t-30.5 6q-41 0 -53 -30l-82 23q18 40 61.5 61t87.5 21q54 0 88 -27.5t27 -67.5q-2 -14 -11.5 -27.5t-25 -25.5t-28 -20.5t-32.5 -20t-28 -16.5l-41 56q75 35 78 54zM157 654h592l-26 -147h-435l-19 -107h406l-26 -147h-406l-19 -106h435l-26 -147
h-592z" />
    <glyph glyph-name="uni1EBB" unicode="&#x1ebb;" 
d="M450 617q2 8 -10.5 14t-30.5 6q-41 0 -53 -30l-82 23q18 40 61.5 61t87.5 21q54 0 88 -27.5t27 -67.5q-2 -14 -11.5 -27.5t-25 -25.5t-28 -20.5t-32.5 -20t-28 -16.5l-41 56q75 35 78 54zM216 188q-2 -37 28 -57t87 -20q44 0 76 12.5t44 34.5l150 -21q-34 -75 -113 -118
t-181 -43q-134 0 -198.5 68.5t-43.5 187.5q21 118 107 186t214 68q129 0 191 -68t42 -180l-9 -50h-394zM236 290h233q5 27 -25.5 44.5t-81.5 17.5q-100 0 -126 -62z" />
    <glyph glyph-name="uni1EBC" unicode="&#x1ebc;" horiz-adv-x="662" 
d="M588 832q-6 -29 -15.5 -42t-26.5 -13q-15 0 -28 5.5t-17.5 9.5t-18.5 16q-10 10 -18.5 16.5t-26 12t-40.5 5.5q-57 0 -93 -33.5t-47 -95.5l77 -8q11 59 47 59q12 0 22.5 -4t14.5 -6.5t16 -14t14 -12.5q34 -29 85 -29q111 0 133 127zM157 654h592l-26 -147h-435l-19 -107
h406l-26 -147h-406l-19 -106h435l-26 -147h-592z" />
    <glyph glyph-name="uni1EBD" unicode="&#x1ebd;" 
d="M532 649q-6 -29 -15.5 -42t-26.5 -13q-15 0 -28 5.5t-17.5 9.5t-18.5 16q-10 10 -18.5 16.5t-26 12t-40.5 5.5q-57 0 -93 -33.5t-47 -95.5l77 -8q11 59 47 59q12 0 22.5 -4t14.5 -6.5t16 -14t14 -12.5q34 -29 85 -29q111 0 133 127zM216 188q-2 -37 28 -57t87 -20
q44 0 76 12.5t44 34.5l150 -21q-34 -75 -113 -118t-181 -43q-134 0 -198.5 68.5t-43.5 187.5q21 118 107 186t214 68q129 0 191 -68t42 -180l-9 -50h-394zM236 290h233q5 27 -25.5 44.5t-81.5 17.5q-100 0 -126 -62z" />
    <glyph glyph-name="uni1EBE" unicode="&#x1ebe;" horiz-adv-x="662" 
d="M908 990l-190 -177h-99l146 177h143zM447 781l-86 -73h-135l168 136h154l120 -136h-135l-60 73l-3 21h-12zM157 654h592l-26 -147h-435l-19 -107h406l-26 -147h-406l-19 -106h435l-26 -147h-592z" />
    <glyph glyph-name="uni1EBF" unicode="&#x1ebf;" 
d="M852 807l-190 -177h-99l146 177h143zM391 598l-86 -73h-135l168 136h154l120 -136h-135l-60 73l-3 21h-12zM216 188q-2 -37 28 -57t87 -20q44 0 76 12.5t44 34.5l150 -21q-34 -75 -113 -118t-181 -43q-134 0 -198.5 68.5t-43.5 187.5q21 118 107 186t214 68
q129 0 191 -68t42 -180l-9 -50h-394zM236 290h233q5 27 -25.5 44.5t-81.5 17.5q-100 0 -126 -62z" />
    <glyph glyph-name="uni1EC0" unicode="&#x1ec0;" horiz-adv-x="662" 
d="M530 990h143l84 -177h-99zM447 781l-86 -73h-135l168 136h154l120 -136h-135l-60 73l-3 21h-12zM157 654h592l-26 -147h-435l-19 -107h406l-26 -147h-406l-19 -106h435l-26 -147h-592z" />
    <glyph glyph-name="uni1EC1" unicode="&#x1ec1;" 
d="M474 807h143l84 -177h-99zM391 598l-86 -73h-135l168 136h154l120 -136h-135l-60 73l-3 21h-12zM216 188q-2 -37 28 -57t87 -20q44 0 76 12.5t44 34.5l150 -21q-34 -75 -113 -118t-181 -43q-134 0 -198.5 68.5t-43.5 187.5q21 118 107 186t214 68q129 0 191 -68t42 -180
l-9 -50h-394zM236 290h233q5 27 -25.5 44.5t-81.5 17.5q-100 0 -126 -62z" />
    <glyph glyph-name="uni1EC2" unicode="&#x1ec2;" horiz-adv-x="662" 
d="M713 913q1 8 -11 14t-31 6q-40 0 -53 -30l-82 23q19 40 62 61t87 21q55 0 89 -27.5t27 -67.5q-3 -14 -12 -27.5t-24.5 -25.5t-28.5 -20.5t-33 -20t-28 -16.5l-41 56q75 35 79 54zM447 781l-86 -73h-135l168 136h154l120 -136h-135l-60 73l-3 21h-12zM157 654h592
l-26 -147h-435l-19 -107h406l-26 -147h-406l-19 -106h435l-26 -147h-592z" />
    <glyph glyph-name="uni1EC3" unicode="&#x1ec3;" 
d="M657 730q1 8 -11 14t-31 6q-40 0 -53 -30l-82 23q19 40 62 61t87 21q55 0 89 -27.5t27 -67.5q-3 -14 -12 -27.5t-24.5 -25.5t-28.5 -20.5t-33 -20t-28 -16.5l-41 56q75 35 79 54zM391 598l-86 -73h-135l168 136h154l120 -136h-135l-60 73l-3 21h-12zM216 188
q-2 -37 28 -57t87 -20q44 0 76 12.5t44 34.5l150 -21q-34 -75 -113 -118t-181 -43q-134 0 -198.5 68.5t-43.5 187.5q21 118 107 186t214 68q129 0 191 -68t42 -180l-9 -50h-394zM236 290h233q5 27 -25.5 44.5t-81.5 17.5q-100 0 -126 -62z" />
    <glyph glyph-name="uni1EC4" unicode="&#x1ec4;" horiz-adv-x="662" 
d="M584 1014q-6 -29 -15.5 -42t-26.5 -13q-15 0 -28 5.5t-17.5 9.5t-18.5 16q-10 10 -18.5 16.5t-26 12t-40.5 5.5q-57 0 -93 -33.5t-47 -95.5l77 -8q11 59 47 59q12 0 22.5 -4t14.5 -6.5t16 -14t14 -12.5q34 -29 85 -29q111 0 133 127zM449 781l-86 -73h-135l168 136h154
l120 -136h-135l-60 73l-3 21h-12zM157 654h592l-26 -147h-435l-19 -107h406l-26 -147h-406l-19 -106h435l-26 -147h-592z" />
    <glyph glyph-name="uni1EC5" unicode="&#x1ec5;" 
d="M523 821q-6 -29 -15.5 -42t-26.5 -13q-15 0 -28 5.5t-17.5 9.5t-18.5 16q-10 10 -18.5 16.5t-26 12t-40.5 5.5q-57 0 -93 -33.5t-47 -95.5l77 -8q11 59 47 59q12 0 22.5 -4t14.5 -6.5t16 -14t14 -12.5q34 -29 85 -29q111 0 133 127zM393 598l-86 -73h-135l168 136h154
l120 -136h-135l-60 73l-3 21h-12zM216 188q-2 -37 28 -57t87 -20q44 0 76 12.5t44 34.5l150 -21q-34 -75 -113 -118t-181 -43q-134 0 -198.5 68.5t-43.5 187.5q21 118 107 186t214 68q129 0 191 -68t42 -180l-9 -50h-394zM236 290h233q5 27 -25.5 44.5t-81.5 17.5
q-100 0 -126 -62z" />
    <glyph glyph-name="uni1EC6" unicode="&#x1ec6;" horiz-adv-x="662" 
d="M428 813l-86 -73h-135l168 136h154l120 -136h-135l-60 73l-3 21h-12zM240 -154q6 36 36.5 62t66.5 26t57.5 -26t15.5 -62q-7 -36 -37.5 -62.5t-66.5 -26.5t-57.5 26.5t-14.5 62.5zM157 654h592l-26 -147h-435l-19 -107h406l-26 -147h-406l-19 -106h435l-26 -147h-592z
" />
    <glyph glyph-name="uni1EC7" unicode="&#x1ec7;" 
d="M391 619l-86 -73h-135l168 136h154l120 -136h-135l-60 73l-3 21h-12zM193 -154q6 36 36.5 62t66.5 26t57.5 -26t15.5 -62q-7 -36 -37.5 -62.5t-66.5 -26.5t-57.5 26.5t-14.5 62.5zM216 188q-2 -37 28 -57t87 -20q44 0 76 12.5t44 34.5l150 -21q-34 -75 -113 -118
t-181 -43q-134 0 -198.5 68.5t-43.5 187.5q21 118 107 186t214 68q129 0 191 -68t42 -180l-9 -50h-394zM236 290h233q5 27 -25.5 44.5t-81.5 17.5q-100 0 -126 -62z" />
    <glyph glyph-name="uni1EC8" unicode="&#x1ec8;" horiz-adv-x="243" 
d="M272 800q2 8 -10.5 14t-30.5 6q-41 0 -53 -30l-82 23q18 40 61.5 61t87.5 21q54 0 88 -27.5t27 -67.5q-2 -14 -11.5 -27.5t-25 -25.5t-28 -20.5t-32.5 -20t-28 -16.5l-41 56q75 35 78 54zM157 655h157l-116 -655h-157z" />
    <glyph glyph-name="uni1EC9" unicode="&#x1ec9;" horiz-adv-x="236" 
d="M271 617q2 8 -10.5 14t-30.5 6q-41 0 -53 -30l-82 23q18 40 61.5 61t87.5 21q54 0 88 -27.5t27 -67.5q-2 -14 -11.5 -27.5t-25 -25.5t-28 -20.5t-32.5 -20t-28 -16.5l-41 56q75 35 78 54zM122 460h157l-81 -460h-157z" />
    <glyph glyph-name="uni1ECA" unicode="&#x1eca;" horiz-adv-x="243" 
d="M2 -154q6 36 36.5 62t66.5 26t57.5 -26t15.5 -62q-7 -36 -37.5 -62.5t-66.5 -26.5t-57.5 26.5t-14.5 62.5zM157 655h157l-116 -655h-157z" />
    <glyph glyph-name="uni1ECB" unicode="&#x1ecb;" horiz-adv-x="236" 
d="M4 -154q6 36 36.5 62t66.5 26t57.5 -26t15.5 -62q-7 -36 -37.5 -62.5t-66.5 -26.5t-57.5 26.5t-14.5 62.5zM133 588q7 36 37.5 62t66.5 26t57.5 -26t14.5 -62q-6 -36 -36.5 -62.5t-66.5 -26.5t-57.5 26.5t-15.5 62.5zM122 460h157l-81 -460h-157z" />
    <glyph glyph-name="uni1ECC" unicode="&#x1ecc;" horiz-adv-x="729" 
d="M247 -154q6 36 36.5 62t66.5 26t57.5 -26t15.5 -62q-7 -36 -37.5 -62.5t-66.5 -26.5t-57.5 26.5t-14.5 62.5zM240 327q-16 -93 23 -144.5t124.5 -51.5t142 51.5t73.5 144.5q16 93 -22.5 146t-123.5 53t-143 -53t-74 -146zM82 327q29 165 137.5 259t264.5 94
q70 0 127.5 -24.5t96 -68.5t53 -111.5t0.5 -148.5q-29 -166 -137 -258.5t-264 -92.5t-231.5 93t-46.5 258z" />
    <glyph glyph-name="uni1ECD" unicode="&#x1ecd;" 
d="M184 -154q6 36 36.5 62t66.5 26t57.5 -26t15.5 -62q-7 -36 -37.5 -62.5t-66.5 -26.5t-57.5 26.5t-14.5 62.5zM223 232q-10 -58 15.5 -89.5t81.5 -31.5t93 31.5t47 89.5q10 57 -16 88.5t-82 31.5t-92.5 -31t-46.5 -89zM65 232q21 121 107.5 187.5t213.5 66.5
q119 0 186 -68t46 -186q-21 -121 -108 -188.5t-214 -67.5t-189.5 67.5t-41.5 188.5z" />
    <glyph glyph-name="uni1ECE" unicode="&#x1ece;" horiz-adv-x="729" 
d="M513 800q2 8 -10.5 14t-30.5 6q-41 0 -53 -30l-82 23q18 40 61.5 61t87.5 21q54 0 88 -27.5t27 -67.5q-2 -14 -11.5 -27.5t-25 -25.5t-28 -20.5t-32.5 -20t-28 -16.5l-41 56q75 35 78 54zM240 327q-16 -93 23 -144.5t124.5 -51.5t142 51.5t73.5 144.5q16 93 -22.5 146
t-123.5 53t-143 -53t-74 -146zM82 327q29 165 137.5 259t264.5 94q70 0 127.5 -24.5t96 -68.5t53 -111.5t0.5 -148.5q-29 -166 -137 -258.5t-264 -92.5t-231.5 93t-46.5 258z" />
    <glyph glyph-name="uni1ECF" unicode="&#x1ecf;" 
d="M450 617q2 8 -10.5 14t-30.5 6q-41 0 -53 -30l-82 23q18 40 61.5 61t87.5 21q54 0 88 -27.5t27 -67.5q-2 -14 -11.5 -27.5t-25 -25.5t-28 -20.5t-32.5 -20t-28 -16.5l-41 56q75 35 78 54zM223 232q-10 -58 15.5 -89.5t81.5 -31.5t93 31.5t47 89.5q10 57 -16 88.5
t-82 31.5t-92.5 -31t-46.5 -89zM65 232q21 121 107.5 187.5t213.5 66.5q119 0 186 -68t46 -186q-21 -121 -108 -188.5t-214 -67.5t-189.5 67.5t-41.5 188.5z" />
    <glyph glyph-name="uni1ED0" unicode="&#x1ed0;" horiz-adv-x="729" 
d="M915 990l-190 -177h-99l146 177h143zM454 781l-86 -73h-135l168 136h154l120 -136h-135l-60 73l-3 21h-12zM240 327q-16 -93 23 -144.5t124.5 -51.5t142 51.5t73.5 144.5q16 93 -22.5 146t-123.5 53t-143 -53t-74 -146zM82 327q29 165 137.5 259t264.5 94
q70 0 127.5 -24.5t96 -68.5t53 -111.5t0.5 -148.5q-29 -166 -137 -258.5t-264 -92.5t-231.5 93t-46.5 258z" />
    <glyph glyph-name="uni1ED1" unicode="&#x1ed1;" 
d="M852 807l-190 -177h-99l146 177h143zM391 598l-86 -73h-135l168 136h154l120 -136h-135l-60 73l-3 21h-12zM223 232q-10 -58 15.5 -89.5t81.5 -31.5t93 31.5t47 89.5q10 57 -16 88.5t-82 31.5t-92.5 -31t-46.5 -89zM65 232q21 121 107.5 187.5t213.5 66.5q119 0 186 -68
t46 -186q-21 -121 -108 -188.5t-214 -67.5t-189.5 67.5t-41.5 188.5z" />
    <glyph glyph-name="uni1ED2" unicode="&#x1ed2;" horiz-adv-x="729" 
d="M537 990h143l84 -177h-99zM454 781l-86 -73h-135l168 136h154l120 -136h-135l-60 73l-3 21h-12zM240 327q-16 -93 23 -144.5t124.5 -51.5t142 51.5t73.5 144.5q16 93 -22.5 146t-123.5 53t-143 -53t-74 -146zM82 327q29 165 137.5 259t264.5 94q70 0 127.5 -24.5
t96 -68.5t53 -111.5t0.5 -148.5q-29 -166 -137 -258.5t-264 -92.5t-231.5 93t-46.5 258z" />
    <glyph glyph-name="uni1ED3" unicode="&#x1ed3;" 
d="M474 807h143l84 -177h-99zM391 598l-86 -73h-135l168 136h154l120 -136h-135l-60 73l-3 21h-12zM223 232q-10 -58 15.5 -89.5t81.5 -31.5t93 31.5t47 89.5q10 57 -16 88.5t-82 31.5t-92.5 -31t-46.5 -89zM65 232q21 121 107.5 187.5t213.5 66.5q119 0 186 -68t46 -186
q-21 -121 -108 -188.5t-214 -67.5t-189.5 67.5t-41.5 188.5z" />
    <glyph glyph-name="uni1ED4" unicode="&#x1ed4;" horiz-adv-x="729" 
d="M720 913q1 8 -11 14t-31 6q-40 0 -53 -30l-82 23q19 40 62 61t87 21q55 0 89 -27.5t27 -67.5q-3 -14 -12 -27.5t-24.5 -25.5t-28.5 -20.5t-33 -20t-28 -16.5l-41 56q75 35 79 54zM454 781l-86 -73h-135l168 136h154l120 -136h-135l-60 73l-3 21h-12zM240 327
q-16 -93 23 -144.5t124.5 -51.5t142 51.5t73.5 144.5q16 93 -22.5 146t-123.5 53t-143 -53t-74 -146zM82 327q29 165 137.5 259t264.5 94q70 0 127.5 -24.5t96 -68.5t53 -111.5t0.5 -148.5q-29 -166 -137 -258.5t-264 -92.5t-231.5 93t-46.5 258z" />
    <glyph glyph-name="uni1ED5" unicode="&#x1ed5;" 
d="M657 730q1 8 -11 14t-31 6q-40 0 -53 -30l-82 23q19 40 62 61t87 21q55 0 89 -27.5t27 -67.5q-3 -14 -12 -27.5t-24.5 -25.5t-28.5 -20.5t-33 -20t-28 -16.5l-41 56q75 35 79 54zM391 598l-86 -73h-135l168 136h154l120 -136h-135l-60 73l-3 21h-12zM223 232
q-10 -58 15.5 -89.5t81.5 -31.5t93 31.5t47 89.5q10 57 -16 88.5t-82 31.5t-92.5 -31t-46.5 -89zM65 232q21 121 107.5 187.5t213.5 66.5q119 0 186 -68t46 -186q-21 -121 -108 -188.5t-214 -67.5t-189.5 67.5t-41.5 188.5z" />
    <glyph glyph-name="uni1ED6" unicode="&#x1ed6;" horiz-adv-x="729" 
d="M566 1014q-6 -29 -15.5 -42t-26.5 -13q-15 0 -28 5.5t-17.5 9.5t-18.5 16q-10 10 -18.5 16.5t-26 12t-40.5 5.5q-57 0 -93 -33.5t-47 -95.5l77 -8q11 59 47 59q12 0 22.5 -4t14.5 -6.5t16 -14t14 -12.5q34 -29 85 -29q111 0 133 127zM456 781l-86 -73h-135l168 136h154
l120 -136h-135l-60 73l-3 21h-12zM240 327q-16 -93 23 -144.5t124.5 -51.5t142 51.5t73.5 144.5q16 93 -22.5 146t-123.5 53t-143 -53t-74 -146zM82 327q29 165 137.5 259t264.5 94q70 0 127.5 -24.5t96 -68.5t53 -111.5t0.5 -148.5q-29 -166 -137 -258.5t-264 -92.5
t-231.5 93t-46.5 258z" />
    <glyph glyph-name="uni1ED7" unicode="&#x1ed7;" 
d="M523 821q-6 -29 -15.5 -42t-26.5 -13q-15 0 -28 5.5t-17.5 9.5t-18.5 16q-10 10 -18.5 16.5t-26 12t-40.5 5.5q-57 0 -93 -33.5t-47 -95.5l77 -8q11 59 47 59q12 0 22.5 -4t14.5 -6.5t16 -14t14 -12.5q34 -29 85 -29q111 0 133 127zM393 598l-86 -73h-135l168 136h154
l120 -136h-135l-60 73l-3 21h-12zM223 232q-10 -58 15.5 -89.5t81.5 -31.5t93 31.5t47 89.5q10 57 -16 88.5t-82 31.5t-92.5 -31t-46.5 -89zM65 232q21 121 107.5 187.5t213.5 66.5q119 0 186 -68t46 -186q-21 -121 -108 -188.5t-214 -67.5t-189.5 67.5t-41.5 188.5z" />
    <glyph glyph-name="uni1ED8" unicode="&#x1ed8;" horiz-adv-x="729" 
d="M455 813l-86 -73h-135l168 136h154l120 -136h-135l-60 73l-3 21h-12zM247 -154q6 36 36.5 62t66.5 26t57.5 -26t15.5 -62q-7 -36 -37.5 -62.5t-66.5 -26.5t-57.5 26.5t-14.5 62.5zM240 327q-16 -93 23 -144.5t124.5 -51.5t142 51.5t73.5 144.5q16 93 -22.5 146t-123.5 53
t-143 -53t-74 -146zM82 327q29 165 137.5 259t264.5 94q70 0 127.5 -24.5t96 -68.5t53 -111.5t0.5 -148.5q-29 -166 -137 -258.5t-264 -92.5t-231.5 93t-46.5 258z" />
    <glyph glyph-name="uni1ED9" unicode="&#x1ed9;" 
d="M391 619l-86 -73h-135l168 136h154l120 -136h-135l-60 73l-3 21h-12zM184 -154q6 36 36.5 62t66.5 26t57.5 -26t15.5 -62q-7 -36 -37.5 -62.5t-66.5 -26.5t-57.5 26.5t-14.5 62.5zM223 232q-10 -58 15.5 -89.5t81.5 -31.5t93 31.5t47 89.5q10 57 -16 88.5t-82 31.5
t-92.5 -31t-46.5 -89zM65 232q21 121 107.5 187.5t213.5 66.5q119 0 186 -68t46 -186q-21 -121 -108 -188.5t-214 -67.5t-189.5 67.5t-41.5 188.5z" />
    <glyph glyph-name="uni1EDA" unicode="&#x1eda;" horiz-adv-x="729" 
d="M601 926l-190 -177h-99l146 177h143zM669 802l135 -30q-16 -90 -102.5 -164.5t-184.5 -74.5l17 120q51 0 87.5 44.5t47.5 104.5zM240 327q-16 -93 23 -144.5t124.5 -51.5t142 51.5t73.5 144.5q16 93 -22.5 146t-123.5 53t-143 -53t-74 -146zM82 327q29 165 137.5 259
t264.5 94q70 0 127.5 -24.5t96 -68.5t53 -111.5t0.5 -148.5q-29 -166 -137 -258.5t-264 -92.5t-231.5 93t-46.5 258z" />
    <glyph glyph-name="uni1EDB" unicode="&#x1edb;" 
d="M550 723l-190 -177h-99l146 177h143zM595 609l135 -30q-16 -90 -102.5 -164.5t-184.5 -74.5l17 120q51 0 87.5 44.5t47.5 104.5zM223 232q-10 -58 15.5 -89.5t81.5 -31.5t93 31.5t47 89.5q10 57 -16 88.5t-82 31.5t-92.5 -31t-46.5 -89zM65 232q21 121 107.5 187.5
t213.5 66.5q119 0 186 -68t46 -186q-21 -121 -108 -188.5t-214 -67.5t-189.5 67.5t-41.5 188.5z" />
    <glyph glyph-name="uni1EDC" unicode="&#x1edc;" horiz-adv-x="729" 
d="M256 926h143l84 -177h-99zM669 802l135 -30q-16 -90 -102.5 -164.5t-184.5 -74.5l17 120q51 0 87.5 44.5t47.5 104.5zM240 327q-16 -93 23 -144.5t124.5 -51.5t142 51.5t73.5 144.5q16 93 -22.5 146t-123.5 53t-143 -53t-74 -146zM82 327q29 165 137.5 259t264.5 94
q70 0 127.5 -24.5t96 -68.5t53 -111.5t0.5 -148.5q-29 -166 -137 -258.5t-264 -92.5t-231.5 93t-46.5 258z" />
    <glyph glyph-name="uni1EDD" unicode="&#x1edd;" 
d="M206 723h143l84 -177h-99zM595 609l135 -30q-16 -90 -102.5 -164.5t-184.5 -74.5l17 120q51 0 87.5 44.5t47.5 104.5zM223 232q-10 -58 15.5 -89.5t81.5 -31.5t93 31.5t47 89.5q10 57 -16 88.5t-82 31.5t-92.5 -31t-46.5 -89zM65 232q21 121 107.5 187.5t213.5 66.5
q119 0 186 -68t46 -186q-21 -121 -108 -188.5t-214 -67.5t-189.5 67.5t-41.5 188.5z" />
    <glyph glyph-name="uni1EDE" unicode="&#x1ede;" horiz-adv-x="729" 
d="M454 840q2 8 -10.5 14t-30.5 6q-41 0 -53 -30l-82 23q18 40 61.5 61t87.5 21q54 0 88 -27.5t27 -67.5q-2 -14 -11.5 -27.5t-25 -25.5t-28 -20.5t-32.5 -20t-28 -16.5l-41 56q75 35 78 54zM669 802l135 -30q-16 -90 -102.5 -164.5t-184.5 -74.5l17 120q51 0 87.5 44.5
t47.5 104.5zM240 327q-16 -93 23 -144.5t124.5 -51.5t142 51.5t73.5 144.5q16 93 -22.5 146t-123.5 53t-143 -53t-74 -146zM82 327q29 165 137.5 259t264.5 94q70 0 127.5 -24.5t96 -68.5t53 -111.5t0.5 -148.5q-29 -166 -137 -258.5t-264 -92.5t-231.5 93t-46.5 258z" />
    <glyph glyph-name="uni1EDF" unicode="&#x1edf;" 
d="M405 637q2 8 -10.5 14t-30.5 6q-41 0 -53 -30l-82 23q18 40 61.5 61t87.5 21q54 0 88 -27.5t27 -67.5q-2 -14 -11.5 -27.5t-25 -25.5t-28 -20.5t-32.5 -20t-28 -16.5l-41 56q75 35 78 54zM595 609l135 -30q-16 -90 -102.5 -164.5t-184.5 -74.5l17 120q51 0 87.5 44.5
t47.5 104.5zM223 232q-10 -58 15.5 -89.5t81.5 -31.5t93 31.5t47 89.5q10 57 -16 88.5t-82 31.5t-92.5 -31t-46.5 -89zM65 232q21 121 107.5 187.5t213.5 66.5q119 0 186 -68t46 -186q-21 -121 -108 -188.5t-214 -67.5t-189.5 67.5t-41.5 188.5z" />
    <glyph glyph-name="uni1EE0" unicode="&#x1ee0;" horiz-adv-x="729" 
d="M536 872q-6 -29 -15.5 -42t-26.5 -13q-15 0 -28 5.5t-17.5 9.5t-18.5 16q-10 10 -18.5 16.5t-26 12t-40.5 5.5q-57 0 -93 -33.5t-47 -95.5l77 -8q11 59 47 59q12 0 22.5 -4t14.5 -6.5t16 -14t14 -12.5q34 -29 85 -29q111 0 133 127zM669 802l135 -30
q-16 -90 -102.5 -164.5t-184.5 -74.5l17 120q51 0 87.5 44.5t47.5 104.5zM240 327q-16 -93 23 -144.5t124.5 -51.5t142 51.5t73.5 144.5q16 93 -22.5 146t-123.5 53t-143 -53t-74 -146zM82 327q29 165 137.5 259t264.5 94q70 0 127.5 -24.5t96 -68.5t53 -111.5t0.5 -148.5
q-29 -166 -137 -258.5t-264 -92.5t-231.5 93t-46.5 258z" />
    <glyph glyph-name="uni1EE1" unicode="&#x1ee1;" 
d="M486 669q-6 -29 -15.5 -42t-26.5 -13q-15 0 -28 5.5t-17.5 9.5t-18.5 16q-10 10 -18.5 16.5t-26 12t-40.5 5.5q-57 0 -93 -33.5t-47 -95.5l77 -8q11 59 47 59q12 0 22.5 -4t14.5 -6.5t16 -14t14 -12.5q34 -29 85 -29q111 0 133 127zM595 609l135 -30
q-16 -90 -102.5 -164.5t-184.5 -74.5l17 120q51 0 87.5 44.5t47.5 104.5zM223 232q-10 -58 15.5 -89.5t81.5 -31.5t93 31.5t47 89.5q10 57 -16 88.5t-82 31.5t-92.5 -31t-46.5 -89zM65 232q21 121 107.5 187.5t213.5 66.5q119 0 186 -68t46 -186q-21 -121 -108 -188.5
t-214 -67.5t-189.5 67.5t-41.5 188.5z" />
    <glyph glyph-name="uni1EE2" unicode="&#x1ee2;" horiz-adv-x="729" 
d="M258 -154q6 36 36.5 62t66.5 26t57.5 -26t15.5 -62q-7 -36 -37.5 -62.5t-66.5 -26.5t-57.5 26.5t-14.5 62.5zM669 802l135 -30q-16 -90 -102.5 -164.5t-184.5 -74.5l17 120q51 0 87.5 44.5t47.5 104.5zM240 327q-16 -93 23 -144.5t124.5 -51.5t142 51.5t73.5 144.5
q16 93 -22.5 146t-123.5 53t-143 -53t-74 -146zM82 327q29 165 137.5 259t264.5 94q70 0 127.5 -24.5t96 -68.5t53 -111.5t0.5 -148.5q-29 -166 -137 -258.5t-264 -92.5t-231.5 93t-46.5 258z" />
    <glyph glyph-name="uni1EE3" unicode="&#x1ee3;" 
d="M188 -154q6 36 36.5 62t66.5 26t57.5 -26t15.5 -62q-7 -36 -37.5 -62.5t-66.5 -26.5t-57.5 26.5t-14.5 62.5zM595 609l135 -30q-16 -90 -102.5 -164.5t-184.5 -74.5l17 120q51 0 87.5 44.5t47.5 104.5zM223 232q-10 -58 15.5 -89.5t81.5 -31.5t93 31.5t47 89.5
q10 57 -16 88.5t-82 31.5t-92.5 -31t-46.5 -89zM65 232q21 121 107.5 187.5t213.5 66.5q119 0 186 -68t46 -186q-21 -121 -108 -188.5t-214 -67.5t-189.5 67.5t-41.5 188.5z" />
    <glyph glyph-name="uni1EE4" unicode="&#x1ee4;" horiz-adv-x="699" 
d="M236 -154q6 36 36.5 62t66.5 26t57.5 -26t15.5 -62q-7 -36 -37.5 -62.5t-66.5 -26.5t-57.5 26.5t-14.5 62.5zM314 654l-76 -429q-8 -47 27 -72.5t107 -25.5q71 0 113.5 25.5t50.5 72.5l76 429h158l-78 -440q-18 -103 -115.5 -169t-230.5 -66q-138 0 -211.5 65t-55.5 170
l78 440h157z" />
    <glyph glyph-name="uni1EE5" unicode="&#x1ee5;" horiz-adv-x="612" 
d="M197 -154q6 36 36.5 62t66.5 26t57.5 -26t15.5 -62q-7 -36 -37.5 -62.5t-66.5 -26.5t-57.5 26.5t-14.5 62.5zM230 173q-6 -34 19 -54t73 -20q46 0 79.5 21t39.5 55h21q-14 -79 -80.5 -139t-152.5 -60q-81 0 -127 53.5t-32 132.5l53 298h158zM567 0h-157l57 117l-34 13
l59 330h157z" />
    <glyph glyph-name="uni1EE6" unicode="&#x1ee6;" horiz-adv-x="699" 
d="M503 800q2 8 -10.5 14t-30.5 6q-41 0 -53 -30l-82 23q18 40 61.5 61t87.5 21q54 0 88 -27.5t27 -67.5q-2 -14 -11.5 -27.5t-25 -25.5t-28 -20.5t-32.5 -20t-28 -16.5l-41 56q75 35 78 54zM314 654l-76 -429q-8 -47 27 -72.5t107 -25.5q71 0 113.5 25.5t50.5 72.5l76 429
h158l-78 -440q-18 -103 -115.5 -169t-230.5 -66q-138 0 -211.5 65t-55.5 170l78 440h157z" />
    <glyph glyph-name="uni1EE7" unicode="&#x1ee7;" horiz-adv-x="612" 
d="M458 617q2 8 -10.5 14t-30.5 6q-41 0 -53 -30l-82 23q18 40 61.5 61t87.5 21q54 0 88 -27.5t27 -67.5q-2 -14 -11.5 -27.5t-25 -25.5t-28 -20.5t-32.5 -20t-28 -16.5l-41 56q75 35 78 54zM230 173q-6 -34 19 -54t73 -20q46 0 79.5 21t39.5 55h21q-14 -79 -80.5 -139
t-152.5 -60q-81 0 -127 53.5t-32 132.5l53 298h158zM567 0h-157l57 117l-34 13l59 330h157z" />
    <glyph glyph-name="uni1EE8" unicode="&#x1ee8;" horiz-adv-x="699" 
d="M620 886l-190 -177h-99l146 177h143zM784 802l135 -30q-16 -90 -102.5 -164.5t-184.5 -74.5l17 120q51 0 87.5 44.5t47.5 104.5zM314 654l-76 -429q-8 -47 27 -72.5t107 -25.5q71 0 113.5 25.5t50.5 72.5l76 429h158l-78 -440q-18 -103 -115.5 -169t-230.5 -66
q-138 0 -211.5 65t-55.5 170l78 440h157z" />
    <glyph glyph-name="uni1EE9" unicode="&#x1ee9;" horiz-adv-x="612" 
d="M568 703l-190 -177h-99l146 177h143zM646 609l135 -30q-16 -90 -102.5 -164.5t-184.5 -74.5l17 120q51 0 87.5 44.5t47.5 104.5zM230 173q-6 -34 19 -54t73 -20q46 0 79.5 21t39.5 55h21q-14 -79 -80.5 -139t-152.5 -60q-81 0 -127 53.5t-32 132.5l53 298h158zM567 0
h-157l57 117l-34 13l59 330h157z" />
    <glyph glyph-name="uni1EEA" unicode="&#x1eea;" horiz-adv-x="699" 
d="M276 886h143l84 -177h-99zM784 802l135 -30q-16 -90 -102.5 -164.5t-184.5 -74.5l17 120q51 0 87.5 44.5t47.5 104.5zM314 654l-76 -429q-8 -47 27 -72.5t107 -25.5q71 0 113.5 25.5t50.5 72.5l76 429h158l-78 -440q-18 -103 -115.5 -169t-230.5 -66q-138 0 -211.5 65
t-55.5 170l78 440h157z" />
    <glyph glyph-name="uni1EEB" unicode="&#x1eeb;" horiz-adv-x="612" 
d="M224 703h143l84 -177h-99zM646 609l135 -30q-16 -90 -102.5 -164.5t-184.5 -74.5l17 120q51 0 87.5 44.5t47.5 104.5zM230 173q-6 -34 19 -54t73 -20q46 0 79.5 21t39.5 55h21q-14 -79 -80.5 -139t-152.5 -60q-81 0 -127 53.5t-32 132.5l53 298h158zM567 0h-157l57 117
l-34 13l59 330h157z" />
    <glyph glyph-name="uni1EEC" unicode="&#x1eec;" horiz-adv-x="699" 
d="M475 800q2 8 -10.5 14t-30.5 6q-41 0 -53 -30l-82 23q18 40 61.5 61t87.5 21q54 0 88 -27.5t27 -67.5q-2 -14 -11.5 -27.5t-25 -25.5t-28 -20.5t-32.5 -20t-28 -16.5l-41 56q75 35 78 54zM784 802l135 -30q-16 -90 -102.5 -164.5t-184.5 -74.5l17 120q51 0 87.5 44.5
t47.5 104.5zM314 654l-76 -429q-8 -47 27 -72.5t107 -25.5q71 0 113.5 25.5t50.5 72.5l76 429h158l-78 -440q-18 -103 -115.5 -169t-230.5 -66q-138 0 -211.5 65t-55.5 170l78 440h157z" />
    <glyph glyph-name="uni1EED" unicode="&#x1eed;" horiz-adv-x="612" 
d="M423 617q2 8 -10.5 14t-30.5 6q-41 0 -53 -30l-82 23q18 40 61.5 61t87.5 21q54 0 88 -27.5t27 -67.5q-2 -14 -11.5 -27.5t-25 -25.5t-28 -20.5t-32.5 -20t-28 -16.5l-41 56q75 35 78 54zM646 609l135 -30q-16 -90 -102.5 -164.5t-184.5 -74.5l17 120q51 0 87.5 44.5
t47.5 104.5zM230 173q-6 -34 19 -54t73 -20q46 0 79.5 21t39.5 55h21q-14 -79 -80.5 -139t-152.5 -60q-81 0 -127 53.5t-32 132.5l53 298h158zM567 0h-157l57 117l-34 13l59 330h157z" />
    <glyph glyph-name="uni1EEE" unicode="&#x1eee;" horiz-adv-x="699" 
d="M556 832q-6 -29 -15.5 -42t-26.5 -13q-15 0 -28 5.5t-17.5 9.5t-18.5 16q-10 10 -18.5 16.5t-26 12t-40.5 5.5q-57 0 -93 -33.5t-47 -95.5l77 -8q11 59 47 59q12 0 22.5 -4t14.5 -6.5t16 -14t14 -12.5q34 -29 85 -29q111 0 133 127zM784 802l135 -30
q-16 -90 -102.5 -164.5t-184.5 -74.5l17 120q51 0 87.5 44.5t47.5 104.5zM314 654l-76 -429q-8 -47 27 -72.5t107 -25.5q71 0 113.5 25.5t50.5 72.5l76 429h158l-78 -440q-18 -103 -115.5 -169t-230.5 -66q-138 0 -211.5 65t-55.5 170l78 440h157z" />
    <glyph glyph-name="uni1EEF" unicode="&#x1eef;" horiz-adv-x="612" 
d="M504 649q-6 -29 -15.5 -42t-26.5 -13q-15 0 -28 5.5t-17.5 9.5t-18.5 16q-10 10 -18.5 16.5t-26 12t-40.5 5.5q-57 0 -93 -33.5t-47 -95.5l77 -8q11 59 47 59q12 0 22.5 -4t14.5 -6.5t16 -14t14 -12.5q34 -29 85 -29q111 0 133 127zM646 609l135 -30
q-16 -90 -102.5 -164.5t-184.5 -74.5l17 120q51 0 87.5 44.5t47.5 104.5zM230 173q-6 -34 19 -54t73 -20q46 0 79.5 21t39.5 55h21q-14 -79 -80.5 -139t-152.5 -60q-81 0 -127 53.5t-32 132.5l53 298h158zM567 0h-157l57 117l-34 13l59 330h157z" />
    <glyph glyph-name="uni1EF0" unicode="&#x1ef0;" horiz-adv-x="699" 
d="M246 -154q6 36 36.5 62t66.5 26t57.5 -26t15.5 -62q-7 -36 -37.5 -62.5t-66.5 -26.5t-57.5 26.5t-14.5 62.5zM784 802l135 -30q-16 -90 -102.5 -164.5t-184.5 -74.5l17 120q51 0 87.5 44.5t47.5 104.5zM314 654l-76 -429q-8 -47 27 -72.5t107 -25.5q71 0 113.5 25.5
t50.5 72.5l76 429h158l-78 -440q-18 -103 -115.5 -169t-230.5 -66q-138 0 -211.5 65t-55.5 170l78 440h157z" />
    <glyph glyph-name="uni1EF1" unicode="&#x1ef1;" horiz-adv-x="612" 
d="M198 -154q6 36 36.5 62t66.5 26t57.5 -26t15.5 -62q-7 -36 -37.5 -62.5t-66.5 -26.5t-57.5 26.5t-14.5 62.5zM646 609l135 -30q-16 -90 -102.5 -164.5t-184.5 -74.5l17 120q51 0 87.5 44.5t47.5 104.5zM230 173q-6 -34 19 -54t73 -20q46 0 79.5 21t39.5 55h21
q-14 -79 -80.5 -139t-152.5 -60q-81 0 -127 53.5t-32 132.5l53 298h158zM567 0h-157l57 117l-34 13l59 330h157z" />
    <glyph glyph-name="Ygrave" unicode="&#x1ef2;" horiz-adv-x="740" 
d="M325 886h143l84 -177h-99zM508 263l329 391h-176l-202 -240l-18 -45h-13l-3 45l-116 240h-178l193 -391h14l-47 -263h158l47 263h12z" />
    <glyph glyph-name="ygrave" unicode="&#x1ef3;" horiz-adv-x="627" 
d="M261 703h143l84 -177h-99zM363 182l153 278h174l-325 -541q-35 -59 -87.5 -90t-111.5 -31h-150l24 139h84q31 0 48.5 6.5t28.5 22.5l21 34l-125 460h173l57 -278l1 -56h13z" />
    <glyph glyph-name="uni1EF4" unicode="&#x1ef4;" horiz-adv-x="740" 
d="M253 -148q6 36 36.5 62t66.5 26t57.5 -26t15.5 -62q-7 -36 -37.5 -62.5t-66.5 -26.5t-57.5 26.5t-14.5 62.5zM508 263l329 391h-176l-202 -240l-18 -45h-13l-3 45l-116 240h-178l193 -391h14l-47 -263h158l47 263h12z" />
    <glyph glyph-name="uni1EF5" unicode="&#x1ef5;" horiz-adv-x="627" 
d="M379 -154q6 36 36.5 62t66.5 26t57.5 -26t15.5 -62q-7 -36 -37.5 -62.5t-66.5 -26.5t-57.5 26.5t-14.5 62.5zM363 182l153 278h174l-325 -541q-35 -59 -87.5 -90t-111.5 -31h-150l24 139h84q31 0 48.5 6.5t28.5 22.5l21 34l-125 460h173l57 -278l1 -56h13z" />
    <glyph glyph-name="uni1EF6" unicode="&#x1ef6;" horiz-adv-x="740" 
d="M523 800q2 8 -10.5 14t-30.5 6q-41 0 -53 -30l-82 23q18 40 61.5 61t87.5 21q54 0 88 -27.5t27 -67.5q-2 -14 -11.5 -27.5t-25 -25.5t-28 -20.5t-32.5 -20t-28 -16.5l-41 56q75 35 78 54zM508 263l329 391h-176l-202 -240l-18 -45h-13l-3 45l-116 240h-178l193 -391h14
l-47 -263h158l47 263h12z" />
    <glyph glyph-name="uni1EF7" unicode="&#x1ef7;" horiz-adv-x="627" 
d="M459 617q2 8 -10.5 14t-30.5 6q-41 0 -53 -30l-82 23q18 40 61.5 61t87.5 21q54 0 88 -27.5t27 -67.5q-2 -14 -11.5 -27.5t-25 -25.5t-28 -20.5t-32.5 -20t-28 -16.5l-41 56q75 35 78 54zM363 182l153 278h174l-325 -541q-35 -59 -87.5 -90t-111.5 -31h-150l24 139h84
q31 0 48.5 6.5t28.5 22.5l21 34l-125 460h173l57 -278l1 -56h13z" />
    <glyph glyph-name="uni1EF8" unicode="&#x1ef8;" horiz-adv-x="740" 
d="M605 832q-6 -29 -15.5 -42t-26.5 -13q-15 0 -28 5.5t-17.5 9.5t-18.5 16q-10 10 -18.5 16.5t-26 12t-40.5 5.5q-57 0 -93 -33.5t-47 -95.5l77 -8q11 59 47 59q12 0 22.5 -4t14.5 -6.5t16 -14t14 -12.5q34 -29 85 -29q111 0 133 127zM508 263l329 391h-176l-202 -240
l-18 -45h-13l-3 45l-116 240h-178l193 -391h14l-47 -263h158l47 263h12z" />
    <glyph glyph-name="uni1EF9" unicode="&#x1ef9;" horiz-adv-x="627" 
d="M541 649q-6 -29 -15.5 -42t-26.5 -13q-15 0 -28 5.5t-17.5 9.5t-18.5 16q-10 10 -18.5 16.5t-26 12t-40.5 5.5q-57 0 -93 -33.5t-47 -95.5l77 -8q11 59 47 59q12 0 22.5 -4t14.5 -6.5t16 -14t14 -12.5q34 -29 85 -29q111 0 133 127zM363 182l153 278h174l-325 -541
q-35 -59 -87.5 -90t-111.5 -31h-150l24 139h84q31 0 48.5 6.5t28.5 22.5l21 34l-125 460h173l57 -278l1 -56h13z" />
    <glyph glyph-name="uni2010" unicode="&#x2010;" horiz-adv-x="390" 
d="M75 338h356l-22 -126h-356z" />
    <glyph glyph-name="endash" unicode="&#x2013;" horiz-adv-x="610" 
d="M75 338h576l-22 -126h-576z" />
    <glyph glyph-name="emdash" unicode="&#x2014;" horiz-adv-x="829" 
d="M75 338h796l-22 -126h-796z" />
    <glyph glyph-name="quoteleft" unicode="&#x2018;" horiz-adv-x="229" 
d="M272.5 512q-5.5 -34 -32.5 -56.5t-60.5 -22.5t-50 34.5t-7.5 84.5q9 54 31.5 92.5t54.5 60t68 31.5t79 10l-5 -82q-155 0 -193 -94q20 20 50 20q34 0 52.5 -22t13 -56z" />
    <glyph glyph-name="quoteright" unicode="&#x2019;" horiz-adv-x="229" 
d="M163 667q6 34 32.5 56.5t60 22.5t50.5 -34.5t8 -84.5q-10 -54 -32.5 -92.5t-54.5 -60t-68 -31.5t-78 -10l4 82q155 0 194 94q-21 -20 -51 -20q-34 0 -52.5 22t-12.5 56z" />
    <glyph glyph-name="quotesinglbase" unicode="&#x201a;" horiz-adv-x="240" 
d="M50 27q6 34 32.5 56.5t60 22.5t50.5 -34.5t8 -84.5q-10 -54 -32.5 -92.5t-54.5 -60t-68 -31.5t-78 -10l4 82q155 0 194 94q-21 -20 -51 -20q-34 0 -52.5 22t-12.5 56z" />
    <glyph glyph-name="quotereversed" unicode="&#x201b;" horiz-adv-x="229" 
d="M300 667q-6 -34 -32.5 -56t-60.5 -22q-30 0 -43 20q2 -46 43.5 -70t116.5 -24l-24 -82q-43 0 -75 9.5t-57.5 32t-33 59.5t0.5 93q9 50 37.5 84.5t62 34.5t52.5 -22.5t13 -56.5z" />
    <glyph glyph-name="quotedblleft" unicode="&#x201c;" horiz-adv-x="399" 
d="M442.5 512q-5.5 -34 -32.5 -56.5t-60.5 -22.5t-50 34.5t-7.5 84.5q9 54 31.5 92.5t54.5 60t68 31.5t79 10l-5 -82q-155 0 -193 -94q20 20 50 20q34 0 52.5 -22t13 -56zM272.5 512q-5.5 -34 -32.5 -56.5t-60.5 -22.5t-50 34.5t-7.5 84.5q18 104 72.5 149t130.5 45l-5 -82
q-129 0 -163 -94q20 20 50 20q34 0 52.5 -22t13 -56z" />
    <glyph glyph-name="quotedblright" unicode="&#x201d;" horiz-adv-x="399" 
d="M163 667q6 34 32.5 56.5t60 22.5t50.5 -34.5t8 -84.5q-10 -54 -32.5 -92.5t-54.5 -60t-68 -31.5t-78 -10l4 82q155 0 194 94q-21 -20 -51 -20q-34 0 -52.5 22t-12.5 56zM333 667q6 34 32.5 56.5t60 22.5t50.5 -34.5t8 -84.5q-19 -104 -73 -149t-130 -45l4 82
q129 0 164 94q-21 -20 -51 -20q-34 0 -52.5 22t-12.5 56z" />
    <glyph glyph-name="quotedblbase" unicode="&#x201e;" horiz-adv-x="399" 
d="M225 55q6 34 32.5 56.5t60 22.5t50.5 -34.5t8 -84.5q-18 -104 -72.5 -149t-130.5 -45l4 82q129 0 164 94q-21 -20 -51 -20q-34 0 -52.5 22t-12.5 56zM55 55q6 34 32.5 56.5t60 22.5t50.5 -34.5t8 -84.5q-10 -54 -32.5 -92.5t-54.5 -60t-68 -31.5t-78 -10l4 82
q155 0 194 94q-21 -20 -51 -20q-34 0 -52.5 22t-12.5 56z" />
    <glyph glyph-name="uni201F" unicode="&#x201f;" horiz-adv-x="399" 
d="M470 667q-6 -34 -32.5 -56t-60.5 -22q-30 0 -43 20q2 -46 43.5 -70t116.5 -24l-24 -82q-43 0 -75 9.5t-57.5 32t-33 59.5t0.5 93q9 50 37.5 84.5t62 34.5t52.5 -22.5t13 -56.5zM300 667q-6 -34 -32.5 -56t-60.5 -22q-30 0 -43 20q0 -46 33.5 -70t96.5 -24l-24 -82
q-76 0 -115 45t-20 149q9 50 37.5 84.5t62 34.5t52.5 -22.5t13 -56.5z" />
    <glyph glyph-name="dagger" unicode="&#x2020;" horiz-adv-x="430" 
d="M198 324h-124l24 136h124l26 146h147l-26 -146h125l-24 -136h-125l-60 -340h-147z" />
    <glyph glyph-name="daggerdbl" unicode="&#x2021;" horiz-adv-x="430" 
d="M222 460l26 146h147l-26 -146h125l-24 -136h-125l-10 -58h125l-24 -136h-125l-26 -146h-147l26 146h-124l24 136h124l10 58h-124l24 136h124z" />
    <glyph glyph-name="bullet" unicode="&#x2022;" horiz-adv-x="227" 
d="M152 219q36 0 66.5 27t37.5 63q6 37 -15 62.5t-58 25.5q-36 0 -67 -26t-37 -62q-7 -36 15 -63t58 -27z" />
    <glyph glyph-name="uni2023" unicode="&#x2023;" horiz-adv-x="197" 
d="M96 408l130 -99l-165 -101z" />
    <glyph glyph-name="ellipsis" unicode="&#x2026;" horiz-adv-x="708" 
d="M44.5 72q5.5 34 32.5 56.5t60.5 22.5t52 -22.5t13 -56.5t-32 -56t-60.5 -22t-52.5 22t-13 56zM528.5 72q5.5 34 32.5 56.5t60.5 22.5t52 -22.5t13 -56.5t-32 -56t-60.5 -22t-52.5 22t-13 56zM352 -6q-34 0 -52.5 22t-13 56t32.5 56.5t60.5 22.5t52 -22.5t13 -56.5
t-32 -56t-60.5 -22z" />
    <glyph glyph-name="perthousand" unicode="&#x2030;" horiz-adv-x="1302" 
d="M1042 149q-4 -26 12 -39.5t50 -13.5q70 0 79 53q5 25 -10.5 38t-50.5 13q-71 0 -80 -51zM922 149q14 75 73 116.5t146 41.5q82 0 128.5 -42t32.5 -116q-13 -76 -71 -118t-145.5 -42t-132 42t-31.5 118zM630 149q-4 -26 12 -39.5t50 -13.5q70 0 79 53q5 25 -10.5 38
t-50.5 13q-71 0 -80 -51zM510 149q14 75 73 116.5t146 41.5q82 0 128.5 -42t32.5 -116q-13 -76 -71 -118t-145.5 -42t-132 42t-31.5 118zM233 508q-5 -27 11 -40.5t50 -13.5q70 0 80 54q4 24 -11.5 36.5t-50.5 12.5q-71 0 -79 -49zM114 508q13 75 71.5 116t145.5 41
q82 0 129 -41.5t34 -115.5q-14 -76 -72.5 -118.5t-146 -42.5t-131.5 42.5t-30 118.5zM713 654h170l-591 -654h-170z" />
    <glyph glyph-name="minute" unicode="&#x2032;" horiz-adv-x="224" 
d="M205 687h114l-122 -239h-94z" />
    <glyph glyph-name="second" unicode="&#x2033;" horiz-adv-x="354" 
d="M335 687h114l-122 -239h-94zM205 687h114l-122 -239h-94z" />
    <glyph glyph-name="uni2034" unicode="&#x2034;" horiz-adv-x="484" 
d="M205 687h114l-122 -239h-94zM465 687h114l-122 -239h-94zM233 448l102 239h114l-122 -239h-94z" />
    <glyph glyph-name="uni2035" unicode="&#x2035;" horiz-adv-x="224" 
d="M259 687h-114l38 -239h94z" />
    <glyph glyph-name="uni2036" unicode="&#x2036;" horiz-adv-x="354" 
d="M259 687h-114l38 -239h94zM389 687h-114l38 -239h94z" />
    <glyph glyph-name="uni2037" unicode="&#x2037;" horiz-adv-x="484" 
d="M519 687h-114l38 -239h94zM259 687h-114l38 -239h94zM407 448l-18 239h-114l38 -239h94z" />
    <glyph glyph-name="uni2070" unicode="&#x2070;" horiz-adv-x="368" 
d="M227 614q-11 -64 55 -64q65 0 76 64q11 65 -54 65q-66 0 -77 -65zM120 614q14 78 64.5 118.5t133.5 40.5q84 0 122.5 -43t24.5 -121q-13 -76 -64 -115t-136 -39t-122 40.5t-23 118.5z" />
    <glyph glyph-name="uni2074" unicode="&#x2074;" horiz-adv-x="357" 
d="M311 741l-68 -115l-15 -22v-8h224l-15 -86h-335l18 107l103 163zM390 463h-108l54 306h108z" />
    <glyph glyph-name="uni2075" unicode="&#x2075;" horiz-adv-x="357" 
d="M116 590h105l7 40l-11 5l17 28l17 102l-104 4zM147 769l-2 -76h307l13 76h-318zM221 590q1 10 19 16.5t45 6.5q30 0 44 -9.5t11 -27.5q-6 -33 -64 -33q-23 0 -38.5 9t-19.5 24l-111 -34q11 -38 53.5 -60.5t105.5 -22.5q74 0 123.5 31t57.5 82q8 43 -23.5 68t-93.5 25
q-109 0 -122 -73z" />
    <glyph glyph-name="uni2076" unicode="&#x2076;" horiz-adv-x="357" 
d="M430 668q-41 23 -103 23q-77 0 -98 -47l-15 -29l13 -7q-3 -10 -7 -35l-105 14q17 98 68 143.5t145 45.5q93 0 139 -28zM220 573q-3 -15 12 -25t41 -10q60 0 66 33q3 15 -12 24t-44 9q-26 0 -43.5 -8.5t-19.5 -22.5zM115 587l100 3q6 35 41.5 57t84.5 22q53 0 83.5 -27.5
t22.5 -69.5q-9 -53 -58 -85.5t-120 -32.5q-78 0 -121 37.5t-33 95.5z" />
    <glyph glyph-name="uni2077" unicode="&#x2077;" horiz-adv-x="357" 
d="M153 463h132l176 187l21 119h-335l-15 -86h238l-2 -13l-43 -28z" />
    <glyph glyph-name="uni2078" unicode="&#x2078;" horiz-adv-x="357" 
d="M262 457q73 0 123 23t57 60q9 53 -51 81l1 5q58 22 65 65q7 37 -32 60t-107 23t-117.5 -23t-55.5 -59q-9 -50 49 -74l-1 -5q-40 -13 -61 -30.5t-25 -42.5q-7 -37 37 -60t118 -23zM303 690q21 0 33.5 -6.5t10.5 -16.5q-3 -19 -41 -26q-32 4 -45.5 10t-11.5 16t17.5 16.5
t36.5 6.5zM341 569q-2 -12 -19.5 -20t-44.5 -8t-42.5 8t-13.5 20q3 19 57 28q34 -4 49.5 -11t13.5 -17z" />
    <glyph glyph-name="uni2079" unicode="&#x2079;" horiz-adv-x="357" 
d="M145 562q41 -23 103 -23q77 0 98 47l15 29l-13 7q3 10 7 35l105 -14q-17 -98 -68 -143.5t-145 -45.5q-93 0 -139 28zM355 657q3 15 -12 25t-41 10q-60 0 -66 -33q-3 -15 12 -24t44 -9q26 0 43.5 8.5t19.5 22.5zM460 643l-100 -3q-6 -35 -48 -57t-101 -22
q-44 0 -67.5 27.5t-15.5 69.5q9 53 58 85.5t120 32.5q78 0 121 -37.5t33 -95.5z" />
    <glyph glyph-name="uni2080" unicode="&#x2080;" horiz-adv-x="368" 
d="M125 39q-11 -64 55 -64q65 0 76 64q12 65 -53 65q-66 0 -78 -65zM18 39q14 78 65 118.5t134 40.5q84 0 122 -43t25 -121q-14 -76 -65 -115t-136 -39t-121.5 40.5t-23.5 118.5z" />
    <glyph glyph-name="uni2081" unicode="&#x2081;" horiz-adv-x="361" 
d="M56 -17h249l-17 -95h-249zM42 140l113 21l13 33v-119l-141 -22zM222 -102h-106l52 296h106z" />
    <glyph glyph-name="uni2082" unicode="&#x2082;" horiz-adv-x="357" 
d="M94 -18l47 3l66 7q63 7 103 37t46 66q9 47 -30.5 76.5t-109.5 29.5q-144 0 -188 -110l95 -18q22 43 77 43q24 0 37 -6t11 -16q-5 -28 -74 -31l-153 -7l-29 -168h335l15 86l-248 -1v9z" />
    <glyph glyph-name="uni2083" unicode="&#x2083;" horiz-adv-x="357" 
d="M296 42q27 4 46.5 23.5t23.5 46.5q7 39 -33.5 62.5t-112.5 23.5q-147 0 -191 -97l96 -20q19 33 78 33q25 0 39.5 -6t12.5 -17q-2 -8 -16 -13t-36 -5h-70l-11 -66h70q21 0 33.5 -5.5t10.5 -13.5q-3 -21 -55 -21q-63 0 -69 40l-103 -20q9 -104 157 -104q72 0 120 22.5
t55 61.5q5 27 -7.5 46.5t-38.5 23.5z" />
    <glyph glyph-name="uni2084" unicode="&#x2084;" horiz-adv-x="357" 
d="M210 166l-68 -115l-15 -22l-1 -8h224l-15 -86h-335l19 107l103 163zM289 -112h-108l54 306h108z" />
    <glyph glyph-name="uni2085" unicode="&#x2085;" horiz-adv-x="357" 
d="M14 15h105l7 40l-11 5l17 28l18 102l-104 4zM46 194l-3 -76h307l14 76h-318zM119 15q2 10 19.5 16.5t44.5 6.5q31 0 45 -9.5t11 -27.5q-6 -33 -64 -33q-24 0 -39.5 9t-18.5 24l-111 -34q11 -38 53.5 -60.5t104.5 -22.5q74 0 123.5 31t58.5 82q8 43 -23.5 68t-94.5 25
q-109 0 -121 -73z" />
    <glyph glyph-name="uni2086" unicode="&#x2086;" horiz-adv-x="357" 
d="M329 93q-41 23 -103 23q-77 0 -98 -47l-15 -29l12 -7l-7 -35l-104 14q17 98 68 143.5t145 45.5q92 0 139 -28zM118 -2q-2 -15 13 -25t41 -10q60 0 66 33q3 15 -12 24t-44 9q-27 0 -44 -8.5t-20 -22.5zM14 12l99 3q6 35 41.5 57t84.5 22q54 0 84 -27.5t23 -69.5
q-9 -53 -58 -85.5t-121 -32.5q-78 0 -121 37.5t-32 95.5z" />
    <glyph glyph-name="uni2087" unicode="&#x2087;" horiz-adv-x="357" 
d="M52 -112h132l176 187l21 119h-335l-15 -86h238l-3 -13l-43 -28z" />
    <glyph glyph-name="uni2088" unicode="&#x2088;" horiz-adv-x="357" 
d="M161 -118q73 0 123 23t56 60q10 53 -50 81l1 5q57 22 65 65q7 37 -32.5 60t-107 23t-117 -23t-56.5 -59q-9 -50 49 -74l-1 -5q-40 -13 -60.5 -30.5t-25.5 -42.5q-6 -37 37.5 -60t118.5 -23zM202 115q21 0 33.5 -6.5t10.5 -16.5q-3 -19 -42 -26q-32 4 -45 10t-11 16
t17 16.5t37 6.5zM240 -6q-3 -12 -20 -20t-44 -8t-43 8t-13 20q3 19 56 28q35 -4 50 -11t14 -17z" />
    <glyph glyph-name="uni2089" unicode="&#x2089;" horiz-adv-x="357" 
d="M43 -13q42 -23 103 -23q78 0 99 47l15 29l-13 7q3 10 7 35l105 -14q-18 -98 -69 -143.5t-145 -45.5q-92 0 -139 28zM254 82q3 15 -12.5 25t-41.5 10q-60 0 -66 -33q-2 -15 13 -24t44 -9q26 0 43.5 8.5t19.5 22.5zM359 68l-100 -3q-6 -35 -48.5 -57t-101.5 -22
q-43 0 -66.5 27.5t-16.5 69.5q10 53 58.5 85.5t120.5 32.5q78 0 121 -37.5t33 -95.5z" />
    <glyph glyph-name="peseta" unicode="&#x20a7;" horiz-adv-x="1662" 
d="M1677.15 120q-22.457 -65 -99.1846 -106t-176.728 -41t-154.92 43t-43.7617 129l158.174 18q-1.63477 -66 74.3652 -66q34 0 57.999 8.5q23.998 8.5 29.4658 22.5q3.93945 11 -1.15039 19t-20.6211 13.5q-15.5303 5.5 -28.4131 9q-12.8838 3.5 -37.1787 7.5
q-31.7656 7 -57.4434 14.5t-50.2109 21.5q-24.5312 14 -38.5352 31t-17.9199 43q-3.91797 26 7.54688 57q22.457 65 95.7441 103.5q73.2861 38.5 174.286 38.5q202 0 199.384 -151l-162.936 -28q-0.305664 55 -68.3057 55q-75 0 -83.2305 -24q-5.82031 -16 14.0928 -25
q19.9141 -9 62.6797 -16q33.9434 -6 59.6211 -13.5t53.21 -21.5t42.8594 -32t19.8037 -46.5t-8.69336 -63.5zM1059.87 334l-52.2646 -149q-13.874 -39 -4.54883 -48.5q9.32617 -9.5 56.3262 -9.5h96l-44.3867 -127h-142q-91 0 -124.302 38t0.972656 136l56.2031 160h-110
l45.21 126h110l47.7969 135l160.938 11l-51.7354 -146h169l-45.21 -126h-168zM41 0l231.28 654h327q118 0 170.219 -64t17.5918 -164q-33.9219 -96 -129.321 -155q-95.4004 -59 -214.4 -59h-170l-75.3691 -212h-157zM325.104 358h160q57 0 94.7607 18.5
q37.7617 18.5 49.7539 52.5q13.6992 38 -10.1875 58.5t-81.8867 20.5h-160z" />
    <glyph glyph-name="uni20A8" unicode="&#x20a8;" horiz-adv-x="1194" 
d="M1209.15 120q-22.457 -65 -99.1846 -106t-176.728 -41t-154.92 43t-43.7617 129l158.174 18q-1.63477 -66 74.3652 -66q34 0 57.999 8.5q23.998 8.5 29.4658 22.5q3.93945 11 -1.15039 19t-20.6211 13.5q-15.5303 5.5 -28.4131 9q-12.8838 3.5 -37.1787 7.5
q-31.7656 7 -57.4434 14.5t-50.2109 21.5q-24.5312 14 -38.5352 31t-17.9199 43q-3.91797 26 7.54688 57q22.457 65 95.7441 103.5q73.2861 38.5 174.286 38.5q202 0 199.384 -151l-162.936 -28q-0.305664 55 -68.3057 55q-75 0 -83.2305 -24q-5.82031 -16 14.0928 -25
q19.9141 -9 62.6797 -16q33.9434 -6 59.6211 -13.5t53.21 -21.5t42.8594 -32t19.8037 -46.5t-8.69336 -63.5zM413.65 276h170l52.3496 -276h-168zM41 0l231.28 654h327q118 0 170.219 -64t17.5918 -164q-33.9219 -96 -129.321 -155q-95.4004 -59 -214.4 -59h-170
l-75.3691 -212h-157zM325.104 358h160q57 0 94.7607 18.5q37.7617 18.5 49.7539 52.5q13.6992 38 -10.1875 58.5t-81.8867 20.5h-160z" />
    <glyph glyph-name="dong" unicode="&#x20ab;" horiz-adv-x="513" 
d="M81 69h387l-15 -87h-387zM343 646l-17 -97h282l17 97h-282zM401 306q-9 -52 -40 -80.5t-76.5 -28.5t-65.5 28.5t-11 80.5t39 80t75.5 28t66.5 -28t12 -80zM429 306q18 102 -12.5 157t-101.5 55q-80 0 -144 -57t-82 -159q-17 -97 24 -153t122 -56q74 0 125 55.5t69 157.5z
M586 687h-118l-33 -185l21 -114l-43 -15l-24 -136l36 -16l-59 -114h118z" />
    <glyph glyph-name="uni2103" unicode="&#x2103;" horiz-adv-x="926" 
d="M1138.26 444l-164.288 -30q-0.305664 55 -33.2812 83.5q-32.9766 28.5 -94.9766 28.5q-87 0 -154.843 -53q-67.8418 -53 -101.764 -149q-32.2168 -92 -1.11816 -142.5t118.099 -50.5q66 0 123.141 32t90.3633 90l143.536 -31q-67.624 -117 -177.993 -181.5
t-233.369 -64.5q-157 0 -217.783 92t-2.875 256q59.7891 169 185.771 262.5t282.981 93.5q112 0 175.659 -61.5t62.7412 -174.5zM351.179 574q17 0 33.792 13q16.791 13 22.7871 30q5.99707 17 -1.71094 30q-7.70898 13 -24.709 13t-34.291 -13q-17.292 -13 -23.2891 -30
q-5.99609 -17 1.71289 -30q7.70801 -13 25.708 -13zM233.758 617q19.5195 54 71.8057 92.5t106.286 38.5t78.7139 -38.5t5.19434 -92.5q-18.8711 -56 -69.3926 -93t-106.021 -37t-80.3906 37.5q-24.8896 37.5 -6.19531 92.5z" />
    <glyph glyph-name="uni2109" unicode="&#x2109;" horiz-adv-x="868" 
d="M565.28 654h592l-51.9111 -147h-435l-37.8613 -107h406l-51.9121 -147h-406l-89.5957 -253h-157zM351.179 574q17 0 33.792 13q16.791 13 22.7871 30q5.99707 17 -1.71094 30q-7.70898 13 -24.709 13t-34.291 -13q-17.292 -13 -23.2891 -30q-5.99609 -17 1.71289 -30
q7.70801 -13 25.708 -13zM233.758 617q19.5195 54 71.8057 92.5t106.286 38.5t78.7139 -38.5t5.19434 -92.5q-18.8711 -56 -69.3926 -93t-106.021 -37t-80.3906 37.5q-24.8896 37.5 -6.19531 92.5z" />
    <glyph glyph-name="uni2116" unicode="&#x2116;" horiz-adv-x="1102" 
d="M881.054 318h395l-30.1592 -86h-395zM1060.54 508q-11.8164 -33 3.59863 -50.5t56.915 -17.5t70.085 17.5t40.4014 50.5q10.4648 31 -6.03906 48t-57.5039 17q-85 0 -107.457 -65zM954.545 508q26.2207 75 91.9473 116t153.727 41q83 0 122.686 -41.5
q39.6846 -41.5 13.6406 -115.5q-27.3965 -76 -93.8877 -118.5t-153.991 -42.5t-124.509 42.5t-9.6123 118.5zM776.28 654h158l-231.28 -654h-188l-165.204 430l-151.796 -430h-157l231.28 654h187l165.557 -428z" />
    <glyph glyph-name="trademark" unicode="&#x2122;" horiz-adv-x="479" 
d="M138 687h178l-8 -48h-65l-24 -137h-48l24 137h-65zM448 571l78 116h56l-32 -185h-48l17 98l-69 -98h-39l-33 98l-17 -98h-49l32 185h56l40 -116v-22z" />
    <glyph glyph-name="estimated" unicode="&#x212e;" horiz-adv-x="738" 
d="M260 343h500l6 31q18 101 -60.5 161t-228.5 60q-156 0 -257.5 -65.5t-121.5 -178.5q-21 -115 58.5 -181t236.5 -66q127 0 220.5 43t133.5 119l-33 9q-32 -61 -116 -99.5t-185 -38.5q-177 0 -153 206zM266 378q27 90 78 138t121 48q74 0 113 -52.5t24 -133.5h-336z" />
    <glyph glyph-name="arrowleft" unicode="&#x2190;" horiz-adv-x="666" 
d="M195 228l52 -49l-17 -101l-152 166l19 111l209 156l-18 -100l-70 -50l-34 -13l-1 -5h506l-17 -97h-506l-1 -5z" />
    <glyph glyph-name="arrowup" unicode="&#x2191;" horiz-adv-x="590" 
d="M309 472l-60 -62h-101l198 182h111l124 -182h-100l-39 62l-7 32h-5l-89 -506h-97l89 506h-5z" />
    <glyph glyph-name="arrowright" unicode="&#x2192;" horiz-adv-x="666" 
d="M572 361l-52 49l18 101l152 -166l-20 -111l-208 -156l17 100l70 50l34 13l1 5h-506l17 97h506l1 5z" />
    <glyph glyph-name="arrowdown" unicode="&#x2193;" horiz-adv-x="590" 
d="M380 118l59 60h101l-197 -180h-111l-125 180h100l40 -60l7 -32h5l89 506h97l-89 -506h5z" />
    <glyph glyph-name="arrowboth" unicode="&#x2194;" horiz-adv-x="666" 
d="M195 228l52 -49l-17 -101l-152 166l19 111l209 156l-18 -100l-70 -50l-34 -13l-1 -5h418l1 5l-30 13l-52 49l18 101l152 -166l-20 -111l-208 -156l17 100l70 50l34 13l1 5h-418l-1 -5z" />
    <glyph glyph-name="arrowupdn" unicode="&#x2195;" horiz-adv-x="590" 
d="M309 472l-60 -62h-101l198 182h111l124 -182h-100l-39 62l-7 32h-5l-74 -418h5l19 32l59 60h101l-197 -180h-111l-125 180h100l40 -60l7 -32h5l74 418h-5z" />
    <glyph glyph-name="uni2196" unicode="&#x2196;" horiz-adv-x="666" 
d="M225 373l-5 -78l-84 -72l33 246l92 78l235 -17l-83 -71l-77 8l-29 13l-5 -3l295 -358l-81 -69l-294 358l-4 -4z" />
    <glyph glyph-name="uni2197" unicode="&#x2197;" horiz-adv-x="590" 
d="M453 467l-80 -9l-59 71l248 12l65 -79l-60 -239l-59 71l22 79l19 32l-2 3l-421 -358l-57 69l421 358l-3 3z" />
    <glyph glyph-name="uni2198" unicode="&#x2198;" horiz-adv-x="666" 
d="M542 216l5 78l84 72l-32 -246l-93 -78l-235 17l83 71l78 -8l29 -13l4 3l-295 358l81 69l295 -358l4 4z" />
    <glyph glyph-name="uni2199" unicode="&#x2199;" horiz-adv-x="590" 
d="M236 123l79 8l59 -72l-247 -10l-65 79l59 237l59 -70l-21 -78l-20 -32l3 -4l421 358l57 -68l-421 -358l3 -4z" />
    <glyph glyph-name="uni24EA" unicode="&#x24ea;" horiz-adv-x="717" 
d="M312 326q-20 -114 82 -114q100 0 120 114q21 116 -79 116q-102 0 -123 -116zM264.5 326q13.5 78 58 119t114.5 41q73 0 105.5 -42.5t19.5 -120.5q-14 -76 -58.5 -115.5t-117.5 -39.5t-104 40t-17.5 118zM93 324q14 78 52 143t90.5 106.5t114 64t124.5 22.5
q59 0 111.5 -22.5t92 -64t57 -106.5t3.5 -143q-14 -79 -52.5 -144t-91 -107t-114.5 -64.5t-125 -22.5t-116.5 22.5t-91 64.5t-53 107t-1.5 144zM141 324q-12 -68 0.5 -124.5t44 -93t77.5 -56t100 -19.5q74 0 141.5 33t118.5 101t67 159q12 68 -1 124t-44.5 92.5t-77.5 56
t-101 19.5q-73 0 -140.5 -33t-118 -101t-66.5 -158z" />
    <glyph glyph-name="uni24F5" unicode="&#x24f5;" horiz-adv-x="717" 
d="M141 324q-12 -68 0.5 -124.5t44 -93t77.5 -56t100 -19.5q74 0 141.5 33t118.5 101t67 159q12 68 -1 124t-44.5 92.5t-77.5 56t-101 19.5q-73 0 -140.5 -33t-118 -101t-66.5 -158zM93 324q14 78 52 143t90.5 106.5t114 64t124.5 22.5q59 0 111.5 -22.5t92 -64t57 -106.5
t3.5 -143q-14 -79 -52.5 -144t-91 -107t-114.5 -64.5t-125 -22.5t-116.5 22.5t-91 64.5t-53 107t-1.5 144zM296 395l119 22l17 63h48l-45 -260h74l-9 -47h-202l9 47h80l26 147l-125 -18z" />
    <glyph glyph-name="uni24F6" unicode="&#x24f6;" horiz-adv-x="717" 
d="M298 227l48 11l97 36q113 41 124 102q8 47 -24 76t-92 29q-123 0 -164 -109l38 -9q33 73 118 73q40 0 61 -17t16 -45q-7 -38 -120 -76l-134 -46l-14 -79h287l9 47l-252 -2zM93 324q14 78 52 143t90.5 106.5t114 64t124.5 22.5q59 0 111.5 -22.5t92 -64t57 -106.5
t3.5 -143q-14 -79 -52.5 -144t-91 -107t-114.5 -64.5t-125 -22.5t-116.5 22.5t-91 64.5t-53 107t-1.5 144zM141 324q-12 -68 0.5 -124.5t44 -93t77.5 -56t100 -19.5q74 0 141.5 33t118.5 101t67 159q12 68 -1 124t-44.5 92.5t-77.5 56t-101 19.5q-73 0 -140.5 -33t-118 -101
t-66.5 -158z" />
    <glyph glyph-name="uni24F7" unicode="&#x24f7;" horiz-adv-x="717" 
d="M482 328q37 4 61 22.5t29 45.5q7 39 -27 62.5t-96 23.5q-127 0 -167 -97l39 -9q32 62 119 62q42 0 64.5 -14t18.5 -39q-3 -17 -18 -27.5t-36 -10.5h-73l-8 -45h73q20 0 31.5 -12t8.5 -29q-4 -24 -30 -36.5t-68 -12.5q-90 0 -98 70l-43 -10q2 -51 36 -78t98 -27
q62 0 102.5 22t47.5 61q5 27 -13 47.5t-52 24.5zM141 324q-12 -68 0.5 -124.5t44 -93t77.5 -56t100 -19.5q74 0 141.5 33t118.5 101t67 159q12 68 -1 124t-44.5 92.5t-77.5 56t-101 19.5q-73 0 -140.5 -33t-118 -101t-66.5 -158zM93 324q14 78 52 143t90.5 106.5t114 64
t124.5 22.5q59 0 111.5 -22.5t92 -64t57 -106.5t3.5 -143q-14 -79 -52.5 -144t-91 -107t-114.5 -64.5t-125 -22.5t-116.5 22.5t-91 64.5t-53 107t-1.5 144z" />
    <glyph glyph-name="uni24F8" unicode="&#x24f8;" horiz-adv-x="717" 
d="M141 324q-12 -68 0.5 -124.5t44 -93t77.5 -56t100 -19.5q74 0 141.5 33t118.5 101t67 159q12 68 -1 124t-44.5 92.5t-77.5 56t-101 19.5q-73 0 -140.5 -33t-118 -101t-66.5 -158zM93 324q14 78 52 143t90.5 106.5t114 64t124.5 22.5q59 0 111.5 -22.5t92 -64t57 -106.5
t3.5 -143q-14 -79 -52.5 -144t-91 -107t-114.5 -64.5t-125 -22.5t-116.5 22.5t-91 64.5t-53 107t-1.5 144zM469 173h-47l16 87h-179l12 68l143 153l30 -29l-111 -115l-35 -23v-8h148l30 174h47l-30 -173h61l-8 -47h-61z" />
    <glyph glyph-name="uni24F9" unicode="&#x24f9;" horiz-adv-x="717" 
d="M93 324q14 78 52 143t90.5 106.5t114 64t124.5 22.5q59 0 111.5 -22.5t92 -64t57 -106.5t3.5 -143q-14 -79 -52.5 -144t-91 -107t-114.5 -64.5t-125 -22.5t-116.5 22.5t-91 64.5t-53 107t-1.5 144zM141 324q-12 -68 0.5 -124.5t44 -93t77.5 -56t100 -19.5q74 0 141.5 33
t118.5 101t67 159q12 68 -1 124t-44.5 92.5t-77.5 56t-101 19.5q-73 0 -140.5 -33t-118 -101t-66.5 -158zM301 477l-31 -178h45q3 22 32 36t72 14q49 0 70.5 -17.5t15.5 -52.5q-6 -32 -32 -49.5t-68 -17.5q-39 0 -65 14.5t-31 38.5l-48 -15q8 -38 44.5 -60.5t89.5 -22.5
q63 0 106 31t52 82q10 53 -22.5 83t-97.5 30q-87 0 -118 -55l-5 1l17 33l11 59h225l8 46h-270z" />
    <glyph glyph-name="uni24FA" unicode="&#x24fa;" horiz-adv-x="717" 
d="M310 296q-7 -38 19 -62t73 -24q40 0 66 20t32 57q5 27 -18.5 43t-68.5 16q-43 0 -71 -14t-32 -36zM516 412q-10 31 -68 31q-47 0 -73.5 -14t-41.5 -44l-27 -59l4 -3q13 30 44.5 48.5t72.5 18.5q60 0 94.5 -30.5t26.5 -76.5q-10 -53 -52 -85t-103 -32q-67 0 -103.5 37
t-26.5 95q18 98 63 143.5t127 45.5q41 0 71 -16t38 -43zM141 324q-12 -68 0.5 -124.5t44 -93t77.5 -56t100 -19.5q74 0 141.5 33t118.5 101t67 159q12 68 -1 124t-44.5 92.5t-77.5 56t-101 19.5q-73 0 -140.5 -33t-118 -101t-66.5 -158zM93 324q14 78 52 143t90.5 106.5
t114 64t124.5 22.5q59 0 111.5 -22.5t92 -64t57 -106.5t3.5 -143q-14 -79 -52.5 -144t-91 -107t-114.5 -64.5t-125 -22.5t-116.5 22.5t-91 64.5t-53 107t-1.5 144z" />
    <glyph glyph-name="uni24FB" unicode="&#x24fb;" horiz-adv-x="717" 
d="M336 173h57l185 227l14 80h-288l-8 -47h261l-3 -13l-36 -27zM141 324q-12 -68 0.5 -124.5t44 -93t77.5 -56t100 -19.5q74 0 141.5 33t118.5 101t67 159q12 68 -1 124t-44.5 92.5t-77.5 56t-101 19.5q-73 0 -140.5 -33t-118 -101t-66.5 -158zM93 324q14 78 52 143
t90.5 106.5t114 64t124.5 22.5q59 0 111.5 -22.5t92 -64t57 -106.5t3.5 -143q-14 -79 -52.5 -144t-91 -107t-114.5 -64.5t-125 -22.5t-116.5 22.5t-91 64.5t-53 107t-1.5 144z" />
    <glyph glyph-name="uni24FC" unicode="&#x24fc;" horiz-adv-x="717" 
d="M387 167q63 0 107 22.5t51 59.5q9 53 -81 79l1 5q46 12 68.5 28t27.5 40q6 37 -27.5 60.5t-90.5 23.5t-99.5 -24t-48.5 -60q-5 -24 14 -40t67 -28l-1 -5q-108 -26 -117 -79q-7 -37 29 -59.5t100 -22.5zM436 441q36 0 58 -14t18 -35q-6 -32 -89 -45q-46 7 -65.5 17.5
t-16.5 27.5q4 21 31 35t64 14zM500 260q-4 -22 -32.5 -35t-72.5 -13q-43 0 -67.5 13.5t-20.5 34.5q6 37 110 52q45 -7 65.5 -20t17.5 -32zM141 324q-12 -68 0.5 -124.5t44 -93t77.5 -56t100 -19.5q74 0 141.5 33t118.5 101t67 159q12 68 -1 124t-44.5 92.5t-77.5 56
t-101 19.5q-73 0 -140.5 -33t-118 -101t-66.5 -158zM93 324q14 78 52 143t90.5 106.5t114 64t124.5 22.5q59 0 111.5 -22.5t92 -64t57 -106.5t3.5 -143q-14 -79 -52.5 -144t-91 -107t-114.5 -64.5t-125 -22.5t-116.5 22.5t-91 64.5t-53 107t-1.5 144z" />
    <glyph glyph-name="uni24FD" unicode="&#x24fd;" horiz-adv-x="717" 
d="M93 324q14 78 52 143t90.5 106.5t114 64t124.5 22.5q59 0 111.5 -22.5t92 -64t57 -106.5t3.5 -143q-14 -79 -52.5 -144t-91 -107t-114.5 -64.5t-125 -22.5t-116.5 22.5t-91 64.5t-53 107t-1.5 144zM141 324q-12 -68 0.5 -124.5t44 -93t77.5 -56t100 -19.5q74 0 141.5 33
t118.5 101t67 159q12 68 -1 124t-44.5 92.5t-77.5 56t-101 19.5q-73 0 -140.5 -33t-118 -101t-66.5 -158zM316 239q9 -29 69 -29q47 0 74 13t42 43l26 60l-4 3q-13 -30 -44.5 -48t-72.5 -18q-61 0 -95 30t-26 76q9 53 51.5 85.5t103.5 32.5q67 0 104 -37t26 -95
q-17 -98 -62.5 -143.5t-127.5 -45.5q-41 0 -71.5 16t-38.5 43zM523 356q6 38 -19.5 62.5t-72.5 24.5q-40 0 -66 -20.5t-33 -57.5q-5 -27 18.5 -42.5t69.5 -15.5q43 0 71 13.5t32 35.5z" />
    <glyph glyph-name="uni24FE" unicode="&#x24fe;" horiz-adv-x="717" 
d="M452 326q-20 -114 28 -114q47 0 67 114q21 116 -26 116q-48 0 -69 -116zM405 326q14 78 44.5 119t73.5 41q48 0 66.5 -42.5t5.5 -120.5q-28 -155 -123 -155t-67 158zM141 324q-12 -68 0.5 -124.5t44 -93t77.5 -56t100 -19.5q74 0 141.5 33t118.5 101t67 159q12 68 -1 124
t-44.5 92.5t-77.5 56t-101 19.5q-73 0 -140.5 -33t-118 -101t-66.5 -158zM93 324q14 78 52 143t90.5 106.5t114 64t124.5 22.5q59 0 111.5 -22.5t92 -64t57 -106.5t3.5 -143q-14 -79 -52.5 -144t-91 -107t-114.5 -64.5t-125 -22.5t-116.5 22.5t-91 64.5t-53 107t-1.5 144z
M244 395l76 22l18 63h47l-45 -260h41l-9 -47h-136l9 47h48l25 145l-82 -16z" />
    <glyph glyph-name="uni24FF" unicode="&#x24ff;" horiz-adv-x="717" 
d="M312 326q21 116 123 116q100 0 79 -116q-20 -114 -120 -114q-102 0 -82 114zM264.5 326q-13.5 -78 17.5 -118t104 -40t117.5 39.5t58.5 115.5q13 78 -19.5 120.5t-105.5 42.5q-70 0 -114.5 -41t-58 -119zM93 324q14 78 52 143t90.5 106.5t114 64t124.5 22.5
q59 0 111.5 -22.5t92 -64t57 -106.5t3.5 -143q-14 -79 -52.5 -144t-91 -107t-114.5 -64.5t-125 -22.5t-116.5 22.5t-91 64.5t-53 107t-1.5 144z" />
    <glyph glyph-name="uni2639" unicode="&#x2639;" horiz-adv-x="717" 
d="M340 229q5 26 26.5 44.5t47 18.5t40.5 -18.5t10 -44.5h-27q3 17 -5 28t-23 11t-27 -11t-15 -28h-27zM496.5 352q3.5 20 20.5 34t37 14t31 -14t7.5 -34t-19.5 -34.5t-36 -14.5t-32 14.5t-8.5 34.5zM247.5 352q3.5 20 20.5 34t37.5 14t31.5 -14t7.5 -34t-20 -34.5
t-36.5 -14.5t-32 14.5t-8.5 34.5zM141 324q-12 -68 0.5 -124.5t44 -93t77.5 -56t100 -19.5q74 0 141.5 33t118.5 101t67 159q12 68 -1 124t-44.5 92.5t-77.5 56t-101 19.5q-73 0 -140.5 -33t-118 -101t-66.5 -158zM93 324q14 78 52 143t90.5 106.5t114 64t124.5 22.5
q59 0 111.5 -22.5t92 -64t57 -106.5t3.5 -143q-14 -79 -52.5 -144t-91 -107t-114.5 -64.5t-125 -22.5t-116.5 22.5t-91 64.5t-53 107t-1.5 144z" />
    <glyph glyph-name="smileface" unicode="&#x263a;" horiz-adv-x="717" 
d="M475 292q-4 -26 -25.5 -44.5t-46.5 -18.5t-40.5 19t-11.5 44h27q-3 -16 5.5 -27.5t23.5 -11.5t26.5 11t14.5 28h27zM496.5 352q3.5 20 20.5 34t37 14t31 -14t7.5 -34t-19.5 -34.5t-36 -14.5t-32 14.5t-8.5 34.5zM247.5 352q3.5 20 20.5 34t37.5 14t31.5 -14t7.5 -34
t-20 -34.5t-36.5 -14.5t-32 14.5t-8.5 34.5zM141 324q-12 -68 0.5 -124.5t44 -93t77.5 -56t100 -19.5q74 0 141.5 33t118.5 101t67 159q12 68 -1 124t-44.5 92.5t-77.5 56t-101 19.5q-73 0 -140.5 -33t-118 -101t-66.5 -158zM93 324q14 78 52 143t90.5 106.5t114 64
t124.5 22.5q59 0 111.5 -22.5t92 -64t57 -106.5t3.5 -143q-14 -79 -52.5 -144t-91 -107t-114.5 -64.5t-125 -22.5t-116.5 22.5t-91 64.5t-53 107t-1.5 144z" />
    <glyph glyph-name="invsmileface" unicode="&#x263b;" horiz-adv-x="717" 
d="M475 292h-27q-3 -17 -14.5 -28t-26.5 -11t-23.5 11.5t-5.5 27.5h-27q-4 -25 11.5 -44t40.5 -19t46.5 18.5t25.5 44.5zM496.5 352q-3.5 -20 8.5 -34.5t32 -14.5t36 14.5t19.5 34.5t-7.5 34t-31 14t-37 -14t-20.5 -34zM247.5 352q-3.5 -20 8.5 -34.5t32 -14.5t36.5 14.5
t20 34.5t-7.5 34t-31.5 14t-37.5 -14t-20.5 -34zM93 324q14 78 52 143t90.5 106.5t114 64t124.5 22.5q59 0 111.5 -22.5t92 -64t57 -106.5t3.5 -143q-14 -79 -52.5 -144t-91 -107t-114.5 -64.5t-125 -22.5t-116.5 22.5t-91 64.5t-53 107t-1.5 144z" />
    <glyph glyph-name="uni26AA" unicode="&#x26aa;" horiz-adv-x="717" 
d="M141 324q-12 -68 0.5 -124.5t44 -93t77.5 -56t100 -19.5q74 0 141.5 33t118.5 101t67 159q12 68 -1 124t-44.5 92.5t-77.5 56t-101 19.5q-73 0 -140.5 -33t-118 -101t-66.5 -158zM93 324q14 78 52 143t90.5 106.5t114 64t124.5 22.5q59 0 111.5 -22.5t92 -64t57 -106.5
t3.5 -143q-14 -79 -52.5 -144t-91 -107t-114.5 -64.5t-125 -22.5t-116.5 22.5t-91 64.5t-53 107t-1.5 144z" />
    <glyph glyph-name="uni26AB" unicode="&#x26ab;" horiz-adv-x="717" 
d="M93 324q14 78 52 143t90.5 106.5t114 64t124.5 22.5q59 0 111.5 -22.5t92 -64t57 -106.5t3.5 -143q-14 -79 -52.5 -144t-91 -107t-114.5 -64.5t-125 -22.5t-116.5 22.5t-91 64.5t-53 107t-1.5 144z" />
    <glyph glyph-name="uni2776" unicode="&#x2776;" horiz-adv-x="717" 
d="M93 324q14 78 52 143t90.5 106.5t114 64t124.5 22.5q59 0 111.5 -22.5t92 -64t57 -106.5t3.5 -143q-14 -79 -52.5 -144t-91 -107t-114.5 -64.5t-125 -22.5t-116.5 22.5t-91 64.5t-53 107t-1.5 144zM296 395l-8 -46l125 18l-26 -147h-80l-9 -47h202l9 47h-74l45 260h-48
l-17 -63z" />
    <glyph glyph-name="uni2777" unicode="&#x2777;" horiz-adv-x="717" 
d="M298 227l48 11l97 36q113 41 124 102q8 47 -24 76t-92 29q-123 0 -164 -109l38 -9q33 73 118 73q40 0 61 -17t16 -45q-7 -38 -120 -76l-134 -46l-14 -79h287l9 47l-252 -2zM93 324q14 78 52 143t90.5 106.5t114 64t124.5 22.5q59 0 111.5 -22.5t92 -64t57 -106.5
t3.5 -143q-14 -79 -52.5 -144t-91 -107t-114.5 -64.5t-125 -22.5t-116.5 22.5t-91 64.5t-53 107t-1.5 144z" />
    <glyph glyph-name="uni2778" unicode="&#x2778;" horiz-adv-x="717" 
d="M482 328q37 4 61 22.5t29 45.5q7 39 -27 62.5t-96 23.5q-127 0 -167 -97l39 -9q32 62 119 62q42 0 64.5 -14t18.5 -39q-3 -17 -18 -27.5t-36 -10.5h-73l-8 -45h73q20 0 31.5 -12t8.5 -29q-4 -24 -30 -36.5t-68 -12.5q-90 0 -98 70l-43 -10q2 -51 36 -78t98 -27
q62 0 102.5 22t47.5 61q5 27 -13 47.5t-52 24.5zM93 324q14 78 52 143t90.5 106.5t114 64t124.5 22.5q59 0 111.5 -22.5t92 -64t57 -106.5t3.5 -143q-14 -79 -52.5 -144t-91 -107t-114.5 -64.5t-125 -22.5t-116.5 22.5t-91 64.5t-53 107t-1.5 144z" />
    <glyph glyph-name="uni2779" unicode="&#x2779;" horiz-adv-x="717" 
d="M93 324q14 78 52 143t90.5 106.5t114 64t124.5 22.5q59 0 111.5 -22.5t92 -64t57 -106.5t3.5 -143q-14 -79 -52.5 -144t-91 -107t-114.5 -64.5t-125 -22.5t-116.5 22.5t-91 64.5t-53 107t-1.5 144zM469 173l16 87h61l8 47h-61l30 173h-47l-30 -174h-148v8l35 23l111 115
l-30 29l-143 -153l-12 -68h179l-16 -87h47z" />
    <glyph glyph-name="uni277A" unicode="&#x277a;" horiz-adv-x="717" 
d="M93 324q14 78 52 143t90.5 106.5t114 64t124.5 22.5q59 0 111.5 -22.5t92 -64t57 -106.5t3.5 -143q-14 -79 -52.5 -144t-91 -107t-114.5 -64.5t-125 -22.5t-116.5 22.5t-91 64.5t-53 107t-1.5 144zM301 477l-31 -178h45q3 22 32 36t72 14q49 0 70.5 -17.5t15.5 -52.5
q-6 -32 -32 -49.5t-68 -17.5q-39 0 -65 14.5t-31 38.5l-48 -15q8 -38 44.5 -60.5t89.5 -22.5q63 0 106 31t52 82q10 53 -22.5 83t-97.5 30q-87 0 -118 -55l-5 1l17 33l11 59h225l8 46h-270z" />
    <glyph glyph-name="uni277B" unicode="&#x277b;" horiz-adv-x="717" 
d="M310 296q4 22 32 36t71 14q45 0 68.5 -16t18.5 -43q-6 -37 -32 -57t-66 -20q-47 0 -73 24t-19 62zM516 412l46 16q-8 27 -38 43t-71 16q-82 0 -127 -45.5t-63 -143.5q-10 -58 26.5 -95t103.5 -37q61 0 103 32t52 85q8 46 -26.5 76.5t-94.5 30.5q-41 0 -72.5 -18.5
t-44.5 -48.5l-4 3l27 59q15 30 41.5 44t73.5 14q58 0 68 -31zM93 324q14 78 52 143t90.5 106.5t114 64t124.5 22.5q59 0 111.5 -22.5t92 -64t57 -106.5t3.5 -143q-14 -79 -52.5 -144t-91 -107t-114.5 -64.5t-125 -22.5t-116.5 22.5t-91 64.5t-53 107t-1.5 144z" />
    <glyph glyph-name="uni277C" unicode="&#x277c;" horiz-adv-x="717" 
d="M336 173h57l185 227l14 80h-288l-8 -47h261l-3 -13l-36 -27zM93 324q14 78 52 143t90.5 106.5t114 64t124.5 22.5q59 0 111.5 -22.5t92 -64t57 -106.5t3.5 -143q-14 -79 -52.5 -144t-91 -107t-114.5 -64.5t-125 -22.5t-116.5 22.5t-91 64.5t-53 107t-1.5 144z" />
    </font>
</defs>
</svg>
