<svg width="1037" height="81" viewBox="0 0 1037 81" fill="none" xmlns="http://www.w3.org/2000/svg">
<g clip-path="url(#clip0_2210_4)">
<path d="M19.865 44.055H50.28L48.278 55.297H17.94L19.865 44.055ZM35.958 30.118L15.784 66H2.232L30.799 15.642H48.817L59.982 66H46.43L38.576 30.118V25.806H37.498L35.958 30.118ZM64.5388 66L73.4708 15.642H98.6498C104.707 15.642 109.353 17.2847 112.587 20.57C115.872 23.8553 117.079 28.0647 116.206 33.198C115.333 38.126 112.715 42.1043 108.352 45.133C103.989 48.1617 98.7525 49.676 92.6438 49.676H79.5538L76.6278 66H64.5388ZM81.5558 38.434H93.8758C96.8018 38.434 99.1375 37.972 100.883 37.048C102.68 36.0727 103.732 34.7123 104.04 32.967C104.399 31.0163 103.86 29.5277 102.423 28.501C101.037 27.423 98.8552 26.884 95.8778 26.884H83.5578L81.5558 38.434ZM147.557 33.583L162.88 15.642H176.355L154.641 40.975L167.423 66H154.025L145.016 48.059L144.785 44.517H143.784L142.321 48.059L126.921 66H113.446L135.237 40.975L122.301 15.642H135.699L144.862 33.583L145.093 37.125H146.094L147.557 33.583ZM193.166 15.642L187.16 49.522L216.651 15.642H231.974L223.042 66H210.953L216.959 31.966L187.468 66H172.068L181 15.642H193.166ZM237.599 15.642H285.108L283.106 26.884H265.396L258.543 66H246.377L253.23 26.884H235.597L237.599 15.642ZM290.71 15.642H336.294L334.292 26.961H300.797L299.334 35.2H330.596L328.594 46.519H297.332L295.869 54.681H329.364L327.362 66H281.778L290.71 15.642ZM341.693 15.642H353.782L349.932 37.279L378.191 15.642H393.745L367.334 37.972L384.813 66H368.489L356.477 45.21L347.391 51.909L344.85 66H332.761L341.693 15.642ZM397.389 15.642H444.898L442.896 26.884H425.186L418.333 66H406.167L413.02 26.884H395.387L397.389 15.642ZM469.134 36.355L480.761 15.719H494.159L469.288 56.606C467.491 59.6347 465.233 61.9447 462.512 63.536C459.791 65.1273 456.917 65.923 453.888 65.923H441.414L443.339 55.22H450.731C452.322 55.22 453.554 55.066 454.427 54.758C455.351 54.3987 456.095 53.8083 456.66 52.987L458.2 50.369L448.498 15.719H461.819L466.362 36.355L466.439 40.667H467.44L469.134 36.355ZM489.844 66L498.776 15.642H523.955C530.012 15.642 534.658 17.2847 537.892 20.57C541.177 23.8553 542.383 28.0647 541.511 33.198C540.638 38.126 538.02 42.1043 533.657 45.133C529.293 48.1617 524.057 49.676 517.949 49.676H504.859L501.933 66H489.844ZM506.861 38.434H519.181C522.107 38.434 524.442 37.972 526.188 37.048C527.984 36.0727 529.037 34.7123 529.345 32.967C529.704 31.0163 529.165 29.5277 527.728 28.501C526.342 27.423 524.16 26.884 521.183 26.884H508.863L506.861 38.434ZM556.384 44.055H586.799L584.797 55.297H554.459L556.384 44.055ZM572.477 30.118L552.303 66H538.751L567.318 15.642H585.336L596.501 66H582.949L575.095 30.118V25.806H574.017L572.477 30.118ZM623.541 66L632.473 15.642H657.652C663.709 15.642 668.355 17.2847 671.589 20.57C674.874 23.8553 676.08 28.0647 675.208 33.198C674.335 38.126 671.717 42.1043 667.354 45.133C662.99 48.1617 657.754 49.676 651.646 49.676H638.556L635.63 66H623.541ZM640.558 38.434H652.878C655.804 38.434 658.139 37.972 659.885 37.048C661.681 36.0727 662.734 34.7123 663.042 32.967C663.401 31.0163 662.862 29.5277 661.425 28.501C660.039 27.423 657.857 26.884 654.88 26.884H642.56L640.558 38.434ZM683.305 15.642H728.889L726.887 26.961H693.392L691.929 35.2H723.191L721.189 46.519H689.927L688.464 54.681H721.959L719.957 66H674.373L683.305 15.642ZM788.495 66H725.355L734.287 15.642H746.376L739.446 54.758H752.921L759.851 15.642H771.94L765.01 54.758H778.408L785.338 15.642H797.427L788.495 66ZM804.068 15.642H849.652L847.65 26.961H814.155L812.692 35.2H843.954L841.952 46.519H810.69L809.227 54.681H842.722L840.72 66H795.136L804.068 15.642ZM855.051 15.642H867.14L863.829 34.43H887.468L890.779 15.642H902.945L894.013 66H881.847L885.466 45.749H861.827L858.208 66H846.119L855.051 15.642ZM921.734 15.642L915.728 49.522L945.219 15.642H960.542L951.61 66H939.521L945.527 31.966L916.036 66H900.636L909.568 15.642H921.734ZM986.648 44.748L971.248 66H958.235L973.558 44.748H986.648ZM1004.05 66H991.961L994.887 49.676H981.797C975.637 49.676 970.914 48.1617 967.629 45.133C964.395 42.1043 963.214 38.126 964.087 33.198C964.96 28.0647 967.603 23.8553 972.018 20.57C976.433 17.2847 981.694 15.642 987.803 15.642H1012.98L1004.05 66ZM996.889 38.434L998.891 26.884H986.571C983.594 26.884 981.207 27.423 979.41 28.501C977.665 29.5277 976.612 31.0163 976.253 32.967C975.945 34.7123 976.51 36.0727 977.947 37.048C979.384 37.972 981.592 38.434 984.569 38.434H996.889Z" fill="#EA2D80"/>
</g>
<defs>
<clipPath id="clip0_2210_4">
<rect width="1037" height="81" fill="white"/>
</clipPath>
</defs>
</svg>
