<svg width="28" height="32" viewBox="0 0 28 32" fill="none" xmlns="http://www.w3.org/2000/svg">
<path d="M12.8615 29.942C13.424 30.4857 14.3049 30.4857 14.8674 29.942L26.3239 18.486C26.7926 18.0172 26.9236 17.2477 26.5111 16.7227C26.0236 16.0852 25.1052 16.0297 24.5427 16.5734L17.5678 23.5671C16.6678 24.4671 15.149 23.8291 15.149 22.5729V2.13557C15.149 1.47932 14.6988 0.841377 14.0425 0.747627C13.2363 0.635127 12.5612 1.25421 12.5612 2.02296V22.5546C12.5612 23.8108 11.0424 24.4479 10.1424 23.5479L3.22376 16.6293C2.75501 16.1605 1.98637 16.0291 1.46137 16.4416C0.823868 16.9291 0.767471 17.8484 1.31122 18.4109L12.8615 29.942Z" fill="white" stroke="white" stroke-width="1.47169" stroke-miterlimit="10"/>
</svg>
