<svg width="27" height="23" viewBox="0 0 27 23" fill="none" xmlns="http://www.w3.org/2000/svg">
<path d="M25.6845 12.4105C26.1351 11.9599 26.1351 11.2293 25.6845 10.7692L16.3249 1.40966C15.9407 1.02541 15.3192 0.925752 14.8828 1.24833C14.3515 1.64681 14.3183 2.40114 14.769 2.8518L20.471 8.5538C21.2015 9.28435 20.6845 10.532 19.6504 10.532L2.96157 10.532C2.42077 10.532 1.9085 10.902 1.8326 11.4333C1.73772 12.0879 2.24529 12.643 2.88096 12.643L19.6456 12.643C20.6798 12.643 21.1968 13.8906 20.4662 14.6211L14.8211 20.2662C14.4369 20.6505 14.3373 21.272 14.6599 21.7084C15.0583 22.2397 15.8126 22.2729 16.2633 21.8222L25.6845 12.4105Z" fill="white" stroke="white" stroke-width="1.6695" stroke-miterlimit="10"/>
</svg>
