<svg width="33" height="32" viewBox="0 0 33 32" fill="none" xmlns="http://www.w3.org/2000/svg">
<path d="M31.3865 3.216C31.3865 2.14725 30.5244 1.28516 29.4556 1.28516H7.4244C6.52439 1.28516 5.6619 1.90354 5.5494 2.78479C5.39939 3.87229 6.24302 4.80994 7.29302 4.80994H20.7179C22.4429 4.80994 23.2866 6.89119 22.0866 8.09119L2.45537 27.7219C1.81787 28.3594 1.64932 29.3912 2.19307 30.1224C2.84932 31.0037 4.10543 31.0601 4.85543 30.3101L24.5805 10.5851C25.7992 9.36633 27.8617 10.2288 27.8617 11.9538V25.2473C27.8617 26.1473 28.4806 27.0098 29.3618 27.1223C30.4493 27.2723 31.3865 26.4282 31.3865 25.3782V3.216Z" fill="#161616" stroke="#161616" stroke-width="2.00025" stroke-miterlimit="10"/>
</svg>
