<svg width="33" height="32" viewBox="0 0 33 32" fill="none" xmlns="http://www.w3.org/2000/svg">
<path d="M31.0486 3.216C31.0486 2.14725 30.186 1.28516 29.1173 1.28516H7.08602C6.18602 1.28516 5.32352 1.90354 5.21102 2.78479C5.06102 3.87229 5.90464 4.80994 6.95464 4.80994H20.3795C22.1045 4.80994 22.9482 6.89119 21.7482 8.09119L2.11699 27.7219C1.47949 28.3594 1.31094 29.3912 1.85469 30.1224C2.51094 31.0037 3.76705 31.0601 4.51705 30.3101L24.2421 10.5851C25.4608 9.36633 27.5233 10.2288 27.5233 11.9538V25.2473C27.5233 26.1473 28.1422 27.0098 29.0234 27.1223C30.1109 27.2723 31.0486 26.4282 31.0486 25.3782V3.216Z" fill="white" stroke="white" stroke-width="2.00025" stroke-miterlimit="10"/>
</svg>
