<svg width="1920" height="114" viewBox="0 0 1920 114" fill="none" xmlns="http://www.w3.org/2000/svg">
<g clip-path="url(#clip0_2238_4)">
<path d="M74.3469 55.6781H113.6L111.016 70.1869H71.8625L74.3469 55.6781ZM95.1163 37.6912L69.08 84H51.59L88.4581 19.0087H111.712L126.121 84H108.631L98.495 37.6912V32.1262H97.1038L95.1163 37.6912ZM151.778 61.2431C151.115 65.0856 151.712 68.0669 153.567 70.1869C155.488 72.2406 158.436 73.2675 162.411 73.2675C166.452 73.2675 169.765 72.2406 172.348 70.1869C174.998 68.0669 176.655 65.0856 177.317 61.2431C177.98 57.4006 177.383 54.4525 175.528 52.3987C173.673 50.345 170.725 49.3181 166.684 49.3181C162.643 49.3181 159.297 50.345 156.647 52.3987C154.063 54.4525 152.44 57.4006 151.778 61.2431ZM148.995 61.2431C150.387 53.1606 153.268 46.9331 157.641 42.5606C162.08 38.1219 167.578 35.9025 174.137 35.9025C181.027 35.9025 186.228 38.155 189.739 42.66C193.317 47.0987 194.41 53.1937 193.018 60.945C191.627 69.0275 188.248 75.3212 182.882 79.8262C177.516 84.3312 171.454 86.5838 164.697 86.5838C158.337 86.5838 153.765 84.3975 150.983 80.025C148.2 75.5862 147.538 69.3256 148.995 61.2431ZM128.623 103.577L140.151 38.2875H155.852L149.89 49.6162L153.567 51.2062L149.989 71.0812L145.716 72.6712L147.703 84L144.325 103.577H128.623ZM202.521 38.2875H253.799L251.215 52.7962H233.327L227.862 84H212.161L217.626 52.7962H199.937L202.521 38.2875ZM256.3 50.4112H303.603L301.416 62.9325H254.114L256.3 50.4112ZM315.107 19.0087H374.931L363.403 84H347.702L356.646 33.6169H328.125L319.181 84H303.579L315.107 19.0087ZM391.772 61.2431C391.11 65.0856 391.706 68.0669 393.561 70.1869C395.482 72.2406 398.43 73.2675 402.405 73.2675C406.447 73.2675 409.759 72.2406 412.343 70.1869C414.993 68.0669 416.649 65.0856 417.312 61.2431C417.974 57.4006 417.378 54.4525 415.523 52.3987C413.668 50.345 410.72 49.3181 406.679 49.3181C402.637 49.3181 399.292 50.345 396.642 52.3987C394.058 54.4525 392.435 57.4006 391.772 61.2431ZM388.99 61.2431C390.381 53.1606 393.263 46.9331 397.635 42.5606C402.074 38.1219 407.573 35.9025 414.132 35.9025C421.022 35.9025 426.222 38.155 429.734 42.66C433.311 47.0987 434.404 53.1937 433.013 60.945C431.622 69.0275 428.243 75.3212 422.877 79.8262C417.51 84.3312 411.449 86.5838 404.691 86.5838C398.331 86.5838 393.76 84.3975 390.977 80.025C388.195 75.5862 387.532 69.3256 388.99 61.2431ZM368.618 103.577L380.145 38.2875H395.847L389.884 49.6162L393.561 51.2062L389.984 71.0812L385.71 72.6712L387.698 84L384.319 103.577H368.618ZM459.509 38.2875L454.838 64.7212L481.669 38.2875H499.458L491.309 84H475.707L480.477 57.3675L453.546 84H435.659L443.808 38.2875H459.509ZM508.052 38.2875H523.654L520.772 54.1875H542.336L545.218 38.2875H560.919L552.771 84H537.069L539.753 68.7956H518.188L515.505 84H499.903L508.052 38.2875ZM568.19 38.2875H619.468L616.884 52.7962H598.996L593.531 84H577.83L583.295 52.7962H565.606L568.19 38.2875ZM696.896 55.6781H736.149L733.566 70.1869H694.412L696.896 55.6781ZM717.666 37.6912L691.629 84H674.139L711.008 19.0087H734.261L748.671 84H731.181L721.044 37.6912V32.1262H719.653L717.666 37.6912ZM774.327 61.2431C773.665 65.0856 774.261 68.0669 776.116 70.1869C778.037 72.2406 780.985 73.2675 784.96 73.2675C789.002 73.2675 792.314 72.2406 794.898 70.1869C797.548 68.0669 799.204 65.0856 799.867 61.2431C800.529 57.4006 799.933 54.4525 798.078 52.3987C796.223 50.345 793.275 49.3181 789.234 49.3181C785.192 49.3181 781.847 50.345 779.197 52.3987C776.613 54.4525 774.99 57.4006 774.327 61.2431ZM771.545 61.2431C772.936 53.1606 775.818 46.9331 780.19 42.5606C784.629 38.1219 790.128 35.9025 796.687 35.9025C803.577 35.9025 808.777 38.155 812.289 42.66C815.866 47.0987 816.959 53.1937 815.568 60.945C814.177 69.0275 810.798 75.3212 805.432 79.8262C800.065 84.3312 794.004 86.5838 787.246 86.5838C780.886 86.5838 776.315 84.3975 773.532 80.025C770.75 75.5862 770.087 69.3256 771.545 61.2431ZM751.173 103.577L762.7 38.2875H778.402L772.439 49.6162L776.116 51.2062L772.539 71.0812L768.265 72.6712L770.253 84L766.874 103.577H751.173ZM825.071 38.2875H876.348L873.764 52.7962H855.877L850.411 84H834.71L840.176 52.7962H822.487L825.071 38.2875ZM878.85 50.4112H926.152L923.966 62.9325H876.663L878.85 50.4112ZM937.656 19.0087H997.48L985.953 84H970.251L979.195 33.6169H950.674L941.731 84H926.129L937.656 19.0087ZM1014.32 61.2431C1013.66 65.0856 1014.26 68.0669 1016.11 70.1869C1018.03 72.2406 1020.98 73.2675 1024.95 73.2675C1029 73.2675 1032.31 72.2406 1034.89 70.1869C1037.54 68.0669 1039.2 65.0856 1039.86 61.2431C1040.52 57.4006 1039.93 54.4525 1038.07 52.3987C1036.22 50.345 1033.27 49.3181 1029.23 49.3181C1025.19 49.3181 1021.84 50.345 1019.19 52.3987C1016.61 54.4525 1014.98 57.4006 1014.32 61.2431ZM1011.54 61.2431C1012.93 53.1606 1015.81 46.9331 1020.18 42.5606C1024.62 38.1219 1030.12 35.9025 1036.68 35.9025C1043.57 35.9025 1048.77 38.155 1052.28 42.66C1055.86 47.0987 1056.95 53.1937 1055.56 60.945C1054.17 69.0275 1050.79 75.3212 1045.43 79.8262C1040.06 84.3312 1034 86.5838 1027.24 86.5838C1020.88 86.5838 1016.31 84.3975 1013.53 80.025C1010.74 75.5862 1010.08 69.3256 1011.54 61.2431ZM991.167 103.577L1002.69 38.2875H1018.4L1012.43 49.6162L1016.11 51.2062L1012.53 71.0812L1008.26 72.6712L1010.25 84L1006.87 103.577H991.167ZM1082.06 38.2875L1077.39 64.7212L1104.22 38.2875H1122.01L1113.86 84H1098.26L1103.03 57.3675L1076.1 84H1058.21L1066.36 38.2875H1082.06ZM1130.6 38.2875H1146.2L1143.32 54.1875H1164.89L1167.77 38.2875H1183.47L1175.32 84H1159.62L1162.3 68.7956H1140.74L1138.05 84H1122.45L1130.6 38.2875ZM1190.74 38.2875H1242.02L1239.43 52.7962H1221.55L1216.08 84H1200.38L1205.84 52.7962H1188.16L1190.74 38.2875ZM1319.45 55.6781H1358.7L1356.12 70.1869H1316.96L1319.45 55.6781ZM1340.22 37.6912L1314.18 84H1296.69L1333.56 19.0087H1356.81L1371.22 84H1353.73L1343.59 37.6912V32.1262H1342.2L1340.22 37.6912ZM1396.88 61.2431C1396.21 65.0856 1396.81 68.0669 1398.67 70.1869C1400.59 72.2406 1403.53 73.2675 1407.51 73.2675C1411.55 73.2675 1414.86 72.2406 1417.45 70.1869C1420.1 68.0669 1421.75 65.0856 1422.42 61.2431C1423.08 57.4006 1422.48 54.4525 1420.63 52.3987C1418.77 50.345 1415.82 49.3181 1411.78 49.3181C1407.74 49.3181 1404.4 50.345 1401.75 52.3987C1399.16 54.4525 1397.54 57.4006 1396.88 61.2431ZM1394.09 61.2431C1395.49 53.1606 1398.37 46.9331 1402.74 42.5606C1407.18 38.1219 1412.68 35.9025 1419.24 35.9025C1426.13 35.9025 1431.33 38.155 1434.84 42.66C1438.42 47.0987 1439.51 53.1937 1438.12 60.945C1436.73 69.0275 1433.35 75.3212 1427.98 79.8262C1422.61 84.3312 1416.55 86.5838 1409.8 86.5838C1403.44 86.5838 1398.86 84.3975 1396.08 80.025C1393.3 75.5862 1392.64 69.3256 1394.09 61.2431ZM1373.72 103.577L1385.25 38.2875H1400.95L1394.99 49.6162L1398.67 51.2062L1395.09 71.0812L1390.81 72.6712L1392.8 84L1389.42 103.577H1373.72ZM1447.62 38.2875H1498.9L1496.31 52.7962H1478.43L1472.96 84H1457.26L1462.73 52.7962H1445.04L1447.62 38.2875ZM1501.4 50.4112H1548.7L1546.52 62.9325H1499.21L1501.4 50.4112ZM1560.21 19.0087H1620.03L1608.5 84H1592.8L1601.74 33.6169H1573.22L1564.28 84H1548.68L1560.21 19.0087ZM1636.87 61.2431C1636.21 65.0856 1636.8 68.0669 1638.66 70.1869C1640.58 72.2406 1643.53 73.2675 1647.5 73.2675C1651.55 73.2675 1654.86 72.2406 1657.44 70.1869C1660.09 68.0669 1661.75 65.0856 1662.41 61.2431C1663.07 57.4006 1662.48 54.4525 1660.62 52.3987C1658.77 50.345 1655.82 49.3181 1651.78 49.3181C1647.74 49.3181 1644.39 50.345 1641.74 52.3987C1639.16 54.4525 1637.53 57.4006 1636.87 61.2431ZM1634.09 61.2431C1635.48 53.1606 1638.36 46.9331 1642.73 42.5606C1647.17 38.1219 1652.67 35.9025 1659.23 35.9025C1666.12 35.9025 1671.32 38.155 1674.83 42.66C1678.41 47.0987 1679.5 53.1937 1678.11 60.945C1676.72 69.0275 1673.34 75.3212 1667.98 79.8262C1662.61 84.3312 1656.55 86.5838 1649.79 86.5838C1643.43 86.5838 1638.86 84.3975 1636.08 80.025C1633.29 75.5862 1632.63 69.3256 1634.09 61.2431ZM1613.72 103.577L1625.24 38.2875H1640.95L1634.98 49.6162L1638.66 51.2062L1635.08 71.0812L1630.81 72.6712L1632.8 84L1629.42 103.577H1613.72ZM1704.61 38.2875L1699.94 64.7212L1726.77 38.2875H1744.56L1736.41 84H1720.81L1725.58 57.3675L1698.65 84H1680.76L1688.91 38.2875H1704.61ZM1753.15 38.2875H1768.75L1765.87 54.1875H1787.44L1790.32 38.2875H1806.02L1797.87 84H1782.17L1784.85 68.7956H1763.29L1760.6 84H1745L1753.15 38.2875ZM1813.29 38.2875H1864.57L1861.98 52.7962H1844.1L1838.63 84H1822.93L1828.39 52.7962H1810.71L1813.29 38.2875Z" fill="#EA2D80"/>
</g>
<defs>
<clipPath id="clip0_2238_4">
<rect width="1920" height="114" fill="white"/>
</clipPath>
</defs>
</svg>
