<svg width="180" height="73" viewBox="0 0 180 73" fill="none" xmlns="http://www.w3.org/2000/svg">
<mask id="mask0_1_3712" style="mask-type:luminance" maskUnits="userSpaceOnUse" x="0" y="0" width="180" height="73">
<path d="M168.18 72.69H11.7399C5.50993 72.69 0.419922 67.59 0.419922 61.37V12.3C0.419922 6.06999 5.51993 0.97998 11.7399 0.97998H168.18C174.41 0.97998 179.5 6.07999 179.5 12.3V61.36C179.5 67.59 174.41 72.69 168.18 72.69Z" fill="white"/>
</mask>
<g mask="url(#mask0_1_3712)">
<path d="M167.98 17.89C162.26 19.79 156.44 21.43 150.56 22.76C147.36 23.45 144.12 24.13 140.86 24.48C140.93 24.75 141 25.02 141.08 25.29C141.36 25.26 141.6 25.24 141.77 25.23C144.8 24.92 147.8 24.39 150.77 23.77C156.71 22.51 162.57 20.85 168.3 18.87C172.6 17.37 176.85 15.7 180.92 13.63C181.37 13.39 181.83 13.15 182.28 12.91C182.22 12.7 182.15 12.49 182.08 12.28C177.55 14.53 172.78 16.27 167.98 17.89Z" fill="#EEEEEE"/>
</g>
<mask id="mask1_1_3712" style="mask-type:luminance" maskUnits="userSpaceOnUse" x="0" y="0" width="180" height="73">
<path d="M168.18 72.69H11.7399C5.50993 72.69 0.419922 67.59 0.419922 61.37V12.3C0.419922 6.06999 5.51993 0.97998 11.7399 0.97998H168.18C174.41 0.97998 179.5 6.07999 179.5 12.3V61.36C179.5 67.59 174.41 72.69 168.18 72.69Z" fill="white"/>
</mask>
<g mask="url(#mask1_1_3712)">
<path d="M182.3 12.9099C181.85 13.1499 181.41 13.3899 180.96 13.6199C176.89 15.6799 172.64 17.3499 168.34 18.8599C166.92 19.3499 165.49 19.82 164.05 20.27C167.75 19.38 169.66 20.2399 170.64 21.5599C173.18 25.7399 168.69 28.8999 167.36 29.6599C165.73 30.5299 163.86 31.02 161.89 31.02C156.98 31.02 152.78 27.9999 151.04 23.7199C150.96 23.7399 150.89 23.75 150.81 23.77C147.83 24.39 144.83 24.9199 141.81 25.2299C141.64 25.2499 141.41 25.2699 141.12 25.2899C141.04 25.0199 140.97 24.7499 140.9 24.4799C144.16 24.1299 147.39 23.4499 150.6 22.7599C154.25 21.9399 157.88 20.9899 161.48 19.9399C159.43 20.3099 157.8 20.35 156.52 20.15C156.36 20.11 156.16 20.07 155.94 20.02C152.33 19.32 151.94 15.64 151.9 15.15C151.89 14.96 151.89 14.77 151.9 14.59C151.97 13.34 152.52 12.3199 153.12 11.5599C155.27 9.12994 158.4 7.59991 161.9 7.59991C167.25 7.59991 171.76 11.19 173.16 16.09C176.21 14.97 179.21 13.7299 182.12 12.2899C179.25 3.78992 171.21 -2.33008 161.74 -2.33008C149.86 -2.33008 140.23 7.29993 140.23 19.1799C140.23 31.0599 149.86 40.6899 161.74 40.6899C173.62 40.6899 183.25 31.0599 183.25 19.1799C183.22 16.9899 182.9 14.8899 182.3 12.9099Z" fill="#EEEEEE"/>
</g>
<mask id="mask2_1_3712" style="mask-type:luminance" maskUnits="userSpaceOnUse" x="0" y="0" width="180" height="73">
<path d="M168.18 72.69H11.7399C5.50993 72.69 0.419922 67.59 0.419922 61.37V12.3C0.419922 6.06999 5.51993 0.97998 11.7399 0.97998H168.18C174.41 0.97998 179.5 6.07999 179.5 12.3V61.36C179.5 67.59 174.41 72.69 168.18 72.69Z" fill="white"/>
</mask>
<g mask="url(#mask2_1_3712)">
<path d="M137.2 24.71C136.83 24.71 136.46 24.7 136.09 24.67C135.55 24.63 135.01 24.56 134.51 24.38C134.24 24.28 133.94 24.13 133.85 23.86C133.59 22.81 136.18 21.1 137.04 20.54C138.07 19.88 139.13 19.27 140.21 18.69C140.21 18.67 140.21 18.64 140.21 18.62C137.96 19.63 134.06 21.52 133.36 23.29C132.53 25.88 138.63 25.49 141.09 25.27C141.01 25 140.94 24.73 140.87 24.46C139.64 24.6 138.42 24.69 137.2 24.71Z" fill="#EEEEEE"/>
</g>
</svg>
