<svg width="1926" height="221" viewBox="0 0 1926 221" fill="none" xmlns="http://www.w3.org/2000/svg">
<g clip-path="url(#clip0_2221_11)">
<path d="M89.9992 62.0269H113.549L106.049 104.177L161.099 62.0269H191.399L139.949 105.527L173.999 160.127H142.199L118.799 119.627L101.099 132.677L96.1492 160.127H72.5992L89.9992 62.0269ZM212.898 125.777C211.898 131.577 212.798 136.077 215.598 139.277C218.498 142.377 222.948 143.927 228.948 143.927C235.048 143.927 240.048 142.377 243.948 139.277C247.948 136.077 250.448 131.577 251.448 125.777C252.448 119.977 251.548 115.527 248.748 112.427C245.948 109.327 241.498 107.777 235.398 107.777C229.298 107.777 224.248 109.327 220.248 112.427C216.348 115.527 213.898 119.977 212.898 125.777ZM208.698 125.777C210.798 113.577 215.148 104.177 221.748 97.5769C228.448 90.8769 236.748 87.5269 246.648 87.5269C257.048 87.5269 264.898 90.9269 270.198 97.727C275.598 104.427 277.248 113.627 275.148 125.327C273.048 137.527 267.948 147.027 259.848 153.827C251.748 160.627 242.598 164.027 232.398 164.027C222.798 164.027 215.898 160.727 211.698 154.127C207.498 147.427 206.498 137.977 208.698 125.777ZM177.948 189.677L195.348 91.127H219.048L210.048 108.227L215.598 110.627L210.198 140.627L203.748 143.027L206.748 160.127L201.648 189.677H177.948ZM304.192 137.927C303.892 139.727 304.542 141.077 306.142 141.977C307.842 142.877 310.192 143.327 313.192 143.327C318.792 143.327 323.442 142.477 327.142 140.777C330.942 138.977 333.092 136.677 333.592 133.877H337.042C335.442 142.877 331.242 150.127 324.442 155.627C317.642 161.027 309.442 163.727 299.842 163.727C292.942 163.727 287.542 161.827 283.642 158.027C279.842 154.127 278.492 149.177 279.592 143.177C280.692 137.177 283.492 132.427 287.992 128.927C292.492 125.327 298.842 122.727 307.042 121.127L336.892 115.127L334.342 129.377L313.042 133.727C307.442 134.927 304.492 136.327 304.192 137.927ZM352.642 160.127H328.942L337.942 143.627L332.392 140.627L337.042 114.527C337.342 112.527 336.342 110.927 334.042 109.727C331.742 108.527 328.542 107.927 324.442 107.927C320.142 107.927 316.492 108.827 313.492 110.627C310.492 112.427 308.492 114.777 307.492 117.677L284.692 114.677C287.492 106.777 292.792 100.277 300.592 95.1769C308.392 90.0769 317.642 87.5269 328.342 87.5269C339.242 87.5269 347.692 89.9769 353.692 94.8769C359.792 99.777 362.242 105.777 361.042 112.877L352.642 160.127ZM453.021 116.027L429.771 119.027C429.071 115.227 427.371 112.327 424.671 110.327C422.071 108.327 418.571 107.327 414.171 107.327C408.471 107.327 403.721 108.927 399.921 112.127C396.121 115.227 393.721 119.627 392.721 125.327C391.721 131.127 392.521 135.627 395.121 138.827C397.821 141.927 402.071 143.477 407.871 143.477C412.571 143.477 416.671 142.377 420.171 140.177C423.771 137.877 426.371 134.627 427.971 130.427L450.621 133.427C446.821 143.127 440.721 150.627 432.321 155.927C424.021 161.127 414.671 163.727 404.271 163.727C391.471 163.727 381.871 160.377 375.471 153.677C369.071 146.877 366.921 137.427 369.021 125.327C371.121 113.327 376.571 103.977 385.371 97.2769C394.171 90.5769 404.971 87.2269 417.771 87.2269C427.171 87.2269 435.021 89.7269 441.321 94.727C447.621 99.727 451.521 106.827 453.021 116.027ZM490.923 91.127L483.873 131.027L524.373 91.127H551.223L538.923 160.127H515.373L522.573 119.927L481.923 160.127H454.923L467.223 91.127H490.923ZM578.896 141.077H602.896C610.996 141.077 615.246 139.927 615.646 137.627C615.946 135.927 612.046 135.077 603.946 135.077H579.946L578.896 141.077ZM583.246 116.027H607.246C614.246 116.027 617.946 115.027 618.346 113.027C618.546 112.027 617.846 111.277 616.246 110.777C614.646 110.277 611.996 110.027 608.296 110.027H584.296L583.246 116.027ZM622.846 124.577L622.546 126.527C627.946 127.327 632.096 129.127 634.996 131.927C637.996 134.627 639.146 137.827 638.446 141.527C637.446 147.227 633.596 151.777 626.896 155.177C620.196 158.477 611.596 160.127 601.096 160.127H551.896L564.196 91.127H613.396C623.796 91.127 631.496 92.727 636.496 95.9269C641.596 99.1269 643.696 103.477 642.796 108.977C641.996 112.977 639.846 116.427 636.346 119.327C632.946 122.127 628.446 123.877 622.846 124.577ZM672.653 125.327C671.653 131.127 672.403 135.627 674.903 138.827C677.503 141.927 681.603 143.477 687.203 143.477C692.803 143.477 697.453 141.927 701.153 138.827C704.853 135.627 707.203 131.127 708.203 125.327C709.203 119.627 708.403 115.227 705.803 112.127C703.203 108.927 699.103 107.327 693.503 107.327C687.903 107.327 683.253 108.877 679.553 111.977C675.953 115.077 673.653 119.527 672.653 125.327ZM648.953 125.327C651.053 113.227 656.403 103.877 665.003 97.2769C673.703 90.5769 684.403 87.2269 697.103 87.2269C709.003 87.2269 718.303 90.6269 725.003 97.427C731.703 104.227 734.003 113.527 731.903 125.327C729.803 137.427 724.403 146.877 715.703 153.677C707.003 160.377 696.303 163.727 683.603 163.727C670.903 163.727 661.403 160.377 655.103 153.677C648.903 146.877 646.853 137.427 648.953 125.327ZM738.134 157.727C736.234 155.527 735.584 152.727 736.184 149.327C736.784 145.927 738.434 143.127 741.134 140.927C743.834 138.627 746.834 137.477 750.134 137.477C753.534 137.477 756.134 138.627 757.934 140.927C759.834 143.127 760.484 145.927 759.884 149.327C758.784 155.827 757.034 161.427 754.634 166.127C752.234 170.827 749.384 174.427 746.084 176.927C742.784 179.527 739.284 181.427 735.584 182.627C731.984 183.827 728.084 184.427 723.884 184.427L724.484 172.127C740.084 172.127 749.784 167.427 753.584 158.027C751.584 160.027 749.084 161.027 746.084 161.027C742.684 161.027 740.034 159.927 738.134 157.727ZM824.792 91.127H848.342L843.092 120.077L881.792 91.127H911.192L874.442 121.127L898.892 160.127H870.392L854.042 133.577L838.742 144.977L836.042 160.127H812.492L824.792 91.127ZM932.903 137.927C932.603 139.727 933.253 141.077 934.853 141.977C936.553 142.877 938.903 143.327 941.903 143.327C947.503 143.327 952.153 142.477 955.853 140.777C959.653 138.977 961.803 136.677 962.303 133.877H965.753C964.153 142.877 959.953 150.127 953.153 155.627C946.353 161.027 938.153 163.727 928.553 163.727C921.653 163.727 916.253 161.827 912.353 158.027C908.553 154.127 907.203 149.177 908.303 143.177C909.403 137.177 912.203 132.427 916.703 128.927C921.203 125.327 927.553 122.727 935.753 121.127L965.603 115.127L963.053 129.377L941.753 133.727C936.153 134.927 933.203 136.327 932.903 137.927ZM981.353 160.127H957.653L966.653 143.627L961.103 140.627L965.753 114.527C966.053 112.527 965.053 110.927 962.753 109.727C960.453 108.527 957.253 107.927 953.153 107.927C948.853 107.927 945.203 108.827 942.203 110.627C939.203 112.427 937.203 114.777 936.203 117.677L913.403 114.677C916.203 106.777 921.503 100.277 929.303 95.1769C937.103 90.0769 946.353 87.5269 957.053 87.5269C967.953 87.5269 976.403 89.9769 982.403 94.8769C988.503 99.777 990.953 105.777 989.753 112.877L981.353 160.127ZM1006.43 91.127H1029.98L1024.73 120.077L1063.43 91.127H1092.83L1056.08 121.127L1080.53 160.127H1052.03L1035.68 133.577L1020.38 144.977L1017.68 160.127H994.132L1006.43 91.127ZM1145.59 91.127H1169.14L1164.79 115.127H1197.34L1201.69 91.127H1225.39L1213.09 160.127H1189.39L1193.44 137.177H1160.89L1156.84 160.127H1133.29L1145.59 91.127ZM1262.02 91.127L1254.97 131.027L1295.47 91.127H1322.32L1310.02 160.127H1286.47L1293.67 119.927L1253.02 160.127H1226.02L1238.32 91.127H1262.02ZM1379.09 91.127H1402.64L1397.39 120.077L1436.09 91.127H1465.49L1428.74 121.127L1453.19 160.127H1424.69L1408.34 133.577L1393.04 144.977L1390.34 160.127H1366.79L1379.09 91.127ZM1492 125.777C1491 131.577 1491.9 136.077 1494.7 139.277C1497.6 142.377 1502.05 143.927 1508.05 143.927C1514.15 143.927 1519.15 142.377 1523.05 139.277C1527.05 136.077 1529.55 131.577 1530.55 125.777C1531.55 119.977 1530.65 115.527 1527.85 112.427C1525.05 109.327 1520.6 107.777 1514.5 107.777C1508.4 107.777 1503.35 109.327 1499.35 112.427C1495.45 115.527 1493 119.977 1492 125.777ZM1487.8 125.777C1489.9 113.577 1494.25 104.177 1500.85 97.5769C1507.55 90.8769 1515.85 87.5269 1525.75 87.5269C1536.15 87.5269 1544 90.9269 1549.3 97.727C1554.7 104.427 1556.35 113.627 1554.25 125.327C1552.15 137.527 1547.05 147.027 1538.95 153.827C1530.85 160.627 1521.7 164.027 1511.5 164.027C1501.9 164.027 1495 160.727 1490.8 154.127C1486.6 147.427 1485.6 137.977 1487.8 125.777ZM1457.05 189.677L1474.45 91.127H1498.15L1489.15 108.227L1494.7 110.627L1489.3 140.627L1482.85 143.027L1485.85 160.127L1480.75 189.677H1457.05ZM1606.54 132.827L1629.49 91.127H1655.59L1606.84 172.277C1603.34 178.177 1598.94 182.677 1593.64 185.777C1588.44 188.877 1582.89 190.427 1576.99 190.427H1554.49L1558.09 169.577H1570.69C1573.79 169.577 1576.19 169.227 1577.89 168.527C1579.69 167.927 1581.14 166.827 1582.24 165.227L1585.39 160.127L1566.64 91.127H1592.59L1601.14 132.827L1601.29 141.227H1603.24L1606.54 132.827ZM1662.64 91.127H1740.04L1736.14 113.027H1709.14L1700.89 160.127H1677.19L1685.44 113.027H1658.74L1662.64 91.127ZM1774.71 91.127L1767.66 131.027L1808.16 91.127H1835.01L1822.71 160.127H1799.16L1806.36 119.927L1765.71 160.127H1738.71L1751.01 91.127H1774.71ZM1847.69 97.127L1853.84 62.0269H1873.04L1866.89 97.127L1856.84 135.827H1843.94L1847.69 97.127ZM1837.49 160.727C1835.69 158.527 1835.09 155.727 1835.69 152.327C1836.29 148.927 1837.89 146.127 1840.49 143.927C1843.19 141.627 1846.24 140.477 1849.64 140.477C1853.04 140.477 1855.64 141.627 1857.44 143.927C1859.34 146.127 1859.99 148.927 1859.39 152.327C1858.79 155.727 1857.14 158.527 1854.44 160.727C1851.84 162.927 1848.84 164.027 1845.44 164.027C1842.04 164.027 1839.39 162.927 1837.49 160.727Z" fill="#EA2D80"/>
</g>
<defs>
<clipPath id="clip0_2221_11">
<rect width="1926" height="221" fill="white"/>
</clipPath>
</defs>
</svg>
