<svg width="1990" height="163" viewBox="0 0 1990 163" fill="none" xmlns="http://www.w3.org/2000/svg">
<g clip-path="url(#clip0_2074_2)">
<path d="M9.0741 126.746L26.2566 29.8723H74.6935C86.346 29.8723 95.2829 33.0323 101.504 39.3523C107.824 45.6723 110.145 53.7698 108.466 63.6448C106.787 73.1248 101.751 80.778 93.3572 86.6042C84.9635 92.4305 74.891 95.3436 63.1397 95.3436H37.9585L32.3297 126.746H9.0741ZM41.8097 73.7173H65.5097C71.1385 73.7173 75.6316 72.8286 78.9891 71.0511C82.4454 69.1748 84.4697 66.558 85.0622 63.2005C85.7535 59.448 84.7166 56.5842 81.9516 54.6092C79.2854 52.5355 75.0885 51.4986 69.361 51.4986H45.661L41.8097 73.7173ZM131.597 104.824C131.3 106.601 131.942 107.934 133.522 108.823C135.201 109.712 137.522 110.156 140.484 110.156C146.014 110.156 150.606 109.317 154.26 107.638C158.012 105.86 160.135 103.589 160.629 100.824H164.036C162.456 109.712 158.308 116.871 151.593 122.302C144.878 127.635 136.781 130.301 127.301 130.301C120.487 130.301 115.155 128.425 111.303 124.672C107.551 120.821 106.218 115.933 107.304 110.008C108.39 104.083 111.155 99.3923 115.599 95.9361C120.043 92.3811 126.313 89.8136 134.411 88.2336L163.888 82.3086L161.37 96.3805L140.336 100.676C134.806 101.861 131.893 103.244 131.597 104.824ZM179.441 126.746H156.037L164.925 110.452L159.444 107.49L164.036 81.7161C164.332 79.7411 163.345 78.1611 161.073 76.9761C158.802 75.7911 155.642 75.1986 151.593 75.1986C147.347 75.1986 143.743 76.0873 140.78 77.8648C137.818 79.6423 135.843 81.963 134.855 84.8267L112.34 81.8642C115.105 74.063 120.339 67.6442 128.042 62.608C135.744 57.5717 144.878 55.0536 155.445 55.0536C166.208 55.0536 174.553 57.473 180.478 62.3117C186.502 67.1505 188.921 73.0755 187.736 80.0867L179.441 126.746ZM254.717 91.3442L254.421 93.1217C259.852 93.7142 263.901 95.2942 266.567 97.8617C269.234 100.429 270.221 103.639 269.53 107.49C268.345 114.304 263.852 119.883 256.051 124.228C248.249 128.474 238.769 130.597 227.611 130.597C216.946 130.597 208.651 128.622 202.726 124.672C196.801 120.624 193.542 114.797 192.949 107.194L216.649 104.379C217.736 109.415 222.327 111.934 230.425 111.934C234.967 111.934 238.671 111.39 241.534 110.304C244.497 109.218 246.126 107.786 246.422 106.009C246.62 104.725 245.731 103.688 243.756 102.898C241.88 102.108 239.164 101.713 235.609 101.713H219.019L222.278 82.9011H238.868C246.571 82.9011 250.57 82.0617 250.866 80.383C251.162 78.803 250.076 77.5686 247.607 76.6798C245.139 75.6923 241.633 75.1986 237.091 75.1986C228.796 75.1986 223.414 76.828 220.945 80.0867L198.282 77.1242C201.541 69.8167 206.774 64.2867 213.983 60.5342C221.291 56.7817 230.326 54.9055 241.09 54.9055C252.249 54.9055 260.988 56.8805 267.308 60.8305C273.628 64.6817 276.245 69.6686 275.159 75.7911C274.369 79.9386 272.147 83.4442 268.493 86.308C264.938 89.073 260.346 90.7517 254.717 91.3442ZM305.581 92.8255C304.594 98.553 305.482 102.997 308.247 106.157C311.111 109.218 315.505 110.749 321.43 110.749C327.454 110.749 332.392 109.218 336.243 106.157C340.193 102.997 342.662 98.553 343.649 92.8255C344.637 87.098 343.748 82.7036 340.983 79.6423C338.218 76.5811 333.824 75.0505 327.8 75.0505C321.776 75.0505 316.789 76.5811 312.839 79.6423C308.988 82.7036 306.569 87.098 305.581 92.8255ZM301.434 92.8255C303.507 80.778 307.803 71.4955 314.32 64.978C320.937 58.3617 329.133 55.0536 338.909 55.0536C349.179 55.0536 356.931 58.4111 362.165 65.1261C367.497 71.7423 369.127 80.8273 367.053 92.3811C364.979 104.429 359.943 113.81 351.944 120.525C343.945 127.24 334.91 130.597 324.837 130.597C315.357 130.597 308.544 127.339 304.396 120.821C300.249 114.205 299.261 104.873 301.434 92.8255ZM271.068 155.927L288.25 58.6086H311.654L302.767 75.4948L308.247 77.8648L302.915 107.49L296.545 109.86L299.508 126.746L294.472 155.927H271.068ZM395.734 104.824C395.437 106.601 396.079 107.934 397.659 108.823C399.338 109.712 401.659 110.156 404.621 110.156C410.151 110.156 414.743 109.317 418.397 107.638C422.149 105.86 424.272 103.589 424.766 100.824H428.173C426.593 109.712 422.445 116.871 415.73 122.302C409.015 127.635 400.918 130.301 391.438 130.301C384.624 130.301 379.292 128.425 375.44 124.672C371.688 120.821 370.355 115.933 371.441 110.008C372.527 104.083 375.292 99.3923 379.736 95.9361C384.18 92.3811 390.45 89.8136 398.548 88.2336L428.025 82.3086L425.507 96.3805L404.473 100.676C398.943 101.861 396.03 103.244 395.734 104.824ZM443.578 126.746H420.174L429.062 110.452L423.581 107.49L428.173 81.7161C428.469 79.7411 427.482 78.1611 425.21 76.9761C422.939 75.7911 419.779 75.1986 415.73 75.1986C411.484 75.1986 407.88 76.0873 404.917 77.8648C401.955 79.6423 399.98 81.963 398.992 84.8267L376.477 81.8642C379.242 74.063 384.476 67.6442 392.179 62.608C399.881 57.5717 409.015 55.0536 419.582 55.0536C430.345 55.0536 438.69 57.473 444.615 62.3117C450.639 67.1505 453.058 73.0755 451.873 80.0867L443.578 126.746ZM460.049 90.6036L481.083 92.9736C482.761 83.5923 486.958 75.9392 493.673 70.0142C500.388 64.0892 508.189 61.1267 517.077 61.1267C526.656 61.1267 533.914 64.4842 538.851 71.1992C543.789 77.9142 545.369 86.4561 543.591 96.8248C541.814 106.799 536.679 114.896 528.186 121.117C519.793 127.24 509.572 130.301 497.524 130.301C484.391 130.301 474.318 126.647 467.307 119.34C460.394 111.934 457.975 102.355 460.049 90.6036ZM482.564 96.2323C481.774 100.281 483.008 103.639 486.267 106.305C489.526 108.971 493.871 110.304 499.302 110.304C505.029 110.304 509.769 109.02 513.522 106.453C517.274 103.787 519.546 100.182 520.336 95.6398C521.224 90.9986 520.188 87.3942 517.225 84.8267C514.361 82.2592 509.868 80.9755 503.746 80.9755C498.018 80.9755 493.229 82.358 489.378 85.123C485.625 87.7892 483.354 91.4923 482.564 96.2323ZM511.596 31.798C524.631 29.823 532.778 26.6136 536.037 22.1698L552.479 34.6123C550.109 37.6736 545.468 40.7842 538.555 43.9442C531.643 47.1042 523.298 49.4248 513.522 50.9061C505.819 51.9923 500.191 53.6711 496.636 55.9423C493.179 58.2136 490.464 61.5711 488.489 66.0148L481.379 78.3092L486.267 80.9755C485.082 83.4442 483.946 87.7398 482.86 93.8623L460.049 90.6036C461.826 80.7286 463.851 72.6311 466.122 66.3111C468.492 59.9911 471.701 54.5105 475.75 49.8692C479.799 45.228 484.588 41.5742 490.118 38.908C495.747 36.2417 502.906 33.8717 511.596 31.798ZM575.156 92.3811C574.168 98.1086 574.909 102.552 577.378 105.712C579.945 108.774 583.994 110.304 589.524 110.304C595.054 110.304 599.646 108.774 603.3 105.712C606.953 102.552 609.274 98.1086 610.261 92.3811C611.249 86.7523 610.459 82.4073 607.891 79.3461C605.324 76.1861 601.275 74.6061 595.745 74.6061C590.215 74.6061 585.623 76.1367 581.97 79.198C578.415 82.2592 576.143 86.6536 575.156 92.3811ZM551.752 92.3811C553.826 80.4323 559.109 71.1992 567.601 64.6817C576.193 58.0655 586.759 54.7573 599.3 54.7573C611.051 54.7573 620.235 58.1148 626.851 64.8298C633.468 71.5448 635.739 80.7286 633.665 92.3811C631.591 104.33 626.259 113.662 617.668 120.377C609.076 126.993 598.51 130.301 585.969 130.301C573.428 130.301 564.046 126.993 557.825 120.377C551.703 113.662 549.678 104.33 551.752 92.3811ZM647.669 58.6086H724.101L720.25 80.2348H693.588L685.441 126.746H662.037L670.184 80.2348H643.818L647.669 58.6086ZM734.94 58.6086H758.195L753.011 87.1967L791.227 58.6086H820.26L783.969 88.2336L808.114 126.746H779.97L763.824 100.528L748.715 111.785L746.049 126.746H722.794L734.94 58.6086ZM841.7 104.824C841.404 106.601 842.045 107.934 843.625 108.823C845.304 109.712 847.625 110.156 850.587 110.156C856.117 110.156 860.709 109.317 864.363 107.638C868.115 105.86 870.239 103.589 870.732 100.824H874.139C872.559 109.712 868.412 116.871 861.697 122.302C854.982 127.635 846.884 130.301 837.404 130.301C830.59 130.301 825.258 128.425 821.407 124.672C817.654 120.821 816.321 115.933 817.407 110.008C818.494 104.083 821.259 99.3923 825.702 95.9361C830.146 92.3811 836.417 89.8136 844.514 88.2336L873.991 82.3086L871.473 96.3805L850.439 100.676C844.909 101.861 841.996 103.244 841.7 104.824ZM889.544 126.746H866.14L875.028 110.452L869.547 107.49L874.139 81.7161C874.435 79.7411 873.448 78.1611 871.177 76.9761C868.905 75.7911 865.745 75.1986 861.697 75.1986C857.45 75.1986 853.846 76.0873 850.884 77.8648C847.921 79.6423 845.946 81.963 844.959 84.8267L822.444 81.8642C825.209 74.063 830.442 67.6442 838.145 62.608C845.847 57.5717 854.982 55.0536 865.548 55.0536C876.312 55.0536 884.656 57.473 890.581 62.3117C896.605 67.1505 899.024 73.0755 897.839 80.0867L889.544 126.746ZM993.111 99.7873L1015.77 58.6086H1041.55L993.408 138.744C989.951 144.57 985.606 149.014 980.373 152.075C975.238 155.137 969.757 156.667 963.931 156.667H941.712L945.267 136.078H957.709C960.771 136.078 963.141 135.732 964.819 135.041C966.597 134.449 968.029 133.362 969.115 131.782L972.226 126.746L953.71 58.6086H979.336L987.779 99.7873L987.927 108.082H989.853L993.111 99.7873ZM1101.38 126.746H1080.79L1067.61 92.3811L1061.54 126.746H1038.28L1050.43 58.6086H1078.57L1095.16 103.342L1128.19 58.6086H1154.86L1142.71 126.746H1120.79L1126.86 92.3811L1101.38 126.746ZM1167.6 58.6086H1190.85L1186.56 82.3086H1218.7L1223 58.6086H1246.4L1234.25 126.746H1210.85L1214.85 104.083H1182.71L1178.71 126.746H1155.45L1167.6 58.6086ZM1343.3 58.6086H1366.55L1354.41 126.746H1331.15L1343.3 58.6086ZM1274.12 104.972H1291.45C1299.35 104.972 1303.5 103.935 1303.9 101.861C1304.29 99.4911 1300.39 98.3061 1292.2 98.3061H1275.31L1274.12 104.972ZM1282.42 58.6086L1279.16 76.3836H1297.53C1307.8 76.3836 1315.65 78.6548 1321.08 83.1973C1326.51 87.7398 1328.54 94.0105 1327.15 102.009C1325.77 109.909 1321.77 116.032 1315.15 120.377C1308.64 124.623 1300 126.746 1289.23 126.746H1247.02L1259.16 58.6086H1282.42ZM1418.18 79.6423L1436.99 58.6086H1463.21L1431.96 92.9736L1451.21 126.746H1425.14L1413.59 105.712L1413.15 98.8986H1411.22L1408.41 105.712L1389.59 126.746H1363.38L1394.48 92.9736L1375.37 58.6086H1401.44L1413 79.6423L1413.44 86.4561H1415.37L1418.18 79.6423ZM1507.05 90.6036L1528.08 92.9736C1529.76 83.5923 1533.96 75.9392 1540.67 70.0142C1547.39 64.0892 1555.19 61.1267 1564.08 61.1267C1573.66 61.1267 1580.91 64.4842 1585.85 71.1992C1590.79 77.9142 1592.37 86.4561 1590.59 96.8248C1588.81 106.799 1583.68 114.896 1575.19 121.117C1566.79 127.24 1556.57 130.301 1544.53 130.301C1531.39 130.301 1521.32 126.647 1514.31 119.34C1507.4 111.934 1504.98 102.355 1507.05 90.6036ZM1529.56 96.2323C1528.77 100.281 1530.01 103.639 1533.27 106.305C1536.53 108.971 1540.87 110.304 1546.3 110.304C1552.03 110.304 1556.77 109.02 1560.52 106.453C1564.28 103.787 1566.55 100.182 1567.34 95.6398C1568.23 90.9986 1567.19 87.3942 1564.23 84.8267C1561.36 82.2592 1556.87 80.9755 1550.75 80.9755C1545.02 80.9755 1540.23 82.358 1536.38 85.123C1532.63 87.7892 1530.35 91.4923 1529.56 96.2323ZM1558.6 31.798C1571.63 29.823 1579.78 26.6136 1583.04 22.1698L1599.48 34.6123C1597.11 37.6736 1592.47 40.7842 1585.56 43.9442C1578.64 47.1042 1570.3 49.4248 1560.52 50.9061C1552.82 51.9923 1547.19 53.6711 1543.64 55.9423C1540.18 58.2136 1537.46 61.5711 1535.49 66.0148L1528.38 78.3092L1533.27 80.9755C1532.08 83.4442 1530.95 87.7398 1529.86 93.8623L1507.05 90.6036C1508.83 80.7286 1510.85 72.6311 1513.12 66.3111C1515.49 59.9911 1518.7 54.5105 1522.75 49.8692C1526.8 45.228 1531.59 41.5742 1537.12 38.908C1542.75 36.2417 1549.91 33.8717 1558.6 31.798ZM1622.16 92.3811C1621.17 98.1086 1621.91 102.552 1624.38 105.712C1626.95 108.774 1630.99 110.304 1636.52 110.304C1642.05 110.304 1646.65 108.774 1650.3 105.712C1653.95 102.552 1656.27 98.1086 1657.26 92.3811C1658.25 86.7523 1657.46 82.4073 1654.89 79.3461C1652.32 76.1861 1648.28 74.6061 1642.75 74.6061C1637.22 74.6061 1632.62 76.1367 1628.97 79.198C1625.42 82.2592 1623.14 86.6536 1622.16 92.3811ZM1598.75 92.3811C1600.83 80.4323 1606.11 71.1992 1614.6 64.6817C1623.19 58.0655 1633.76 54.7573 1646.3 54.7573C1658.05 54.7573 1667.24 58.1148 1673.85 64.8298C1680.47 71.5448 1682.74 80.7286 1680.67 92.3811C1678.59 104.33 1673.26 113.662 1664.67 120.377C1656.08 126.993 1645.51 130.301 1632.97 130.301C1620.43 130.301 1611.05 126.993 1604.83 120.377C1598.7 113.662 1596.68 104.33 1598.75 92.3811ZM1694.67 58.6086H1771.1L1767.25 80.2348H1740.59L1732.44 126.746H1709.04L1717.18 80.2348H1690.82L1694.67 58.6086ZM1796.75 92.3811C1795.77 98.1086 1796.51 102.552 1798.97 105.712C1801.54 108.774 1805.59 110.304 1811.12 110.304C1816.65 110.304 1821.24 108.774 1824.9 105.712C1828.55 102.552 1830.87 98.1086 1831.86 92.3811C1832.85 86.7523 1832.06 82.4073 1829.49 79.3461C1826.92 76.1861 1822.87 74.6061 1817.34 74.6061C1811.81 74.6061 1807.22 76.1367 1803.57 79.198C1800.01 82.2592 1797.74 86.6536 1796.75 92.3811ZM1773.35 92.3811C1775.42 80.4323 1780.71 71.1992 1789.2 64.6817C1797.79 58.0655 1808.36 54.7573 1820.9 54.7573C1832.65 54.7573 1841.83 58.1148 1848.45 64.8298C1855.06 71.5448 1857.34 80.7286 1855.26 92.3811C1853.19 104.33 1847.86 113.662 1839.26 120.377C1830.67 126.993 1820.11 130.301 1807.57 130.301C1795.02 130.301 1785.64 126.993 1779.42 120.377C1773.3 113.662 1771.28 104.33 1773.35 92.3811ZM1885.71 107.934H1909.41C1917.41 107.934 1921.6 106.799 1922 104.527C1922.29 102.849 1918.44 102.009 1910.44 102.009H1886.74L1885.71 107.934ZM1890 83.1973H1913.7C1920.62 83.1973 1924.27 82.2098 1924.66 80.2348C1924.86 79.2473 1924.17 78.5067 1922.59 78.013C1921.01 77.5192 1918.39 77.2723 1914.74 77.2723H1891.04L1890 83.1973ZM1929.11 91.6405L1928.81 93.5661C1934.14 94.3561 1938.24 96.1336 1941.11 98.8986C1944.07 101.565 1945.2 104.725 1944.51 108.379C1943.53 114.007 1939.72 118.5 1933.11 121.858C1926.49 125.117 1918 126.746 1907.63 126.746H1859.05L1871.19 58.6086H1919.78C1930.05 58.6086 1937.65 60.1886 1942.59 63.3486C1947.62 66.5086 1949.7 70.8042 1948.81 76.2355C1948.02 80.1855 1945.9 83.5923 1942.44 86.4561C1939.08 89.2211 1934.64 90.9492 1929.11 91.6405Z" fill="black"/>
</g>
<defs>
<clipPath id="clip0_2074_2">
<rect width="1990" height="163" fill="white"/>
</clipPath>
</defs>
</svg>
