<svg width="36" height="25" viewBox="0 0 36 25" fill="none" xmlns="http://www.w3.org/2000/svg">
<path d="M7.02522 15.2686C6.76272 15.0061 6.85634 14.7243 6.89384 14.6305C6.93134 14.5555 7.06267 14.2744 7.43767 14.2744H34.9438C34.9625 14.2744 34.9813 14.2744 35.0188 14.2744C35.1126 13.2056 35.1314 12.0429 35.0564 10.8054H35.0376H7.45643C7.10018 10.8054 6.95011 10.5243 6.91261 10.4493C6.87511 10.3743 6.78149 10.0746 7.04399 9.81209L12.9501 3.90603C13.5876 3.26853 13.6815 2.25559 13.1753 1.58059C12.8753 1.16809 12.4062 0.925032 11.8999 0.887532C11.3937 0.850032 10.9062 1.03757 10.55 1.39382L0.70625 11.2376C-0.00625001 11.9501 -0.00625001 13.1119 0.70625 13.8432L10.4937 23.6311C10.8687 23.9873 11.3378 24.1932 11.8066 24.1932C12.1628 24.1932 12.5191 24.0813 12.8191 23.8563C13.2316 23.5563 13.4751 23.0872 13.5126 22.581C13.5501 22.0747 13.3626 21.5868 13.0064 21.2306L7.02522 15.2686Z" fill="white"/>
</svg>
