<svg width="436" height="592" viewBox="0 0 436 592" fill="none" xmlns="http://www.w3.org/2000/svg">
<path opacity="0.99" d="M421.99 0.849976H14.1001C6.5101 0.849976 0.359863 7.99997 0.359863 16.83V491.03C0.359863 499.85 6.5101 507.01 14.1001 507.01H121.2H133.73C139.77 507.01 144.97 512.13 145.82 519.08C150.86 560.21 181.28 591.83 218.05 591.83C254.82 591.83 284.17 559.6 289.22 518.47C290.07 511.51 296.79 505.65 302.83 505.65L317.61 507H422C429.59 507 435.74 499.85 435.74 491.02V16.82C435.73 7.99998 429.58 0.849976 421.99 0.849976Z" fill="#161616"/>
</svg>
