<svg width="1872" height="1203" viewBox="0 0 1872 1203" fill="none" xmlns="http://www.w3.org/2000/svg">
<path d="M1840.43 0.0078125H31.7812C14.7 0.0078125 0.84375 13.8641 0.84375 30.9453V949.339C0.84375 966.42 14.7 980.277 31.7812 980.277H714.994C732.187 980.277 745.969 994.302 745.931 1011.51C745.931 1011.63 745.931 1011.72 745.931 1011.83C745.931 1116.87 831.074 1202.01 936.112 1202.01C1041.15 1202.01 1126.29 1116.87 1126.29 1011.83C1126.29 1011.72 1126.29 1011.63 1126.29 1011.51C1126.28 994.321 1140.04 980.277 1157.23 980.277H1840.44C1857.53 980.277 1871.38 966.42 1871.38 949.339V30.9453C1871.38 13.8641 1857.53 0.0078125 1840.43 0.0078125Z" fill="#161616"/>
</svg>
