<svg width="1986" height="176" viewBox="0 0 1986 176" fill="none" xmlns="http://www.w3.org/2000/svg">
<g clip-path="url(#clip0_2074_4)">
<path d="M6.03984 127L20.1773 47.2937H57.4711C68.6023 47.2937 77.0117 51.0312 82.6992 58.5062C88.3867 65.9812 90.2148 75.65 88.1836 87.5125C86.0711 99.2937 80.8711 108.841 72.5836 116.153C64.3773 123.384 54.6273 127 43.3336 127H6.03984ZM28.343 108.962H45.1617C51.5805 108.962 56.8617 107.053 61.0055 103.234C65.1492 99.4156 67.8305 93.9719 69.0492 86.9031C70.3492 79.9156 69.5773 74.5531 66.7336 70.8156C63.9711 66.9969 59.3805 65.0875 52.9617 65.0875H36.143L28.343 108.962ZM109.706 108.962C109.462 110.425 109.99 111.522 111.29 112.253C112.672 112.984 114.581 113.35 117.018 113.35C121.568 113.35 125.347 112.659 128.353 111.278C131.44 109.816 133.187 107.947 133.593 105.672H136.397C135.097 112.984 131.684 118.875 126.159 123.344C120.634 127.731 113.972 129.925 106.172 129.925C100.565 129.925 96.1778 128.381 93.0091 125.294C89.9216 122.125 88.8247 118.103 89.7185 113.228C90.6122 108.353 92.8872 104.494 96.5435 101.65C100.2 98.725 105.359 96.6125 112.022 95.3125L136.275 90.4375L134.203 102.016L116.897 105.55C112.347 106.525 109.95 107.662 109.706 108.962ZM149.072 127H129.815L137.128 113.594L132.618 111.156L136.397 89.95C136.64 88.325 135.828 87.025 133.959 86.05C132.09 85.075 129.49 84.5875 126.159 84.5875C122.665 84.5875 119.7 85.3187 117.262 86.7812C114.825 88.2437 113.2 90.1531 112.387 92.5094L93.8622 90.0719C96.1372 83.6531 100.443 78.3719 106.781 74.2281C113.118 70.0844 120.634 68.0125 129.328 68.0125C138.184 68.0125 145.05 70.0031 149.925 73.9844C154.881 77.9656 156.872 82.8406 155.897 88.6094L149.072 127ZM193.759 86.2937L190.59 104.453C190.021 107.622 190.184 109.612 191.078 110.425C191.971 111.156 194.328 111.522 198.146 111.522H209.846L207.165 127H189.859C182.465 127 177.143 125.456 173.893 122.369C170.643 119.281 169.709 113.756 171.09 105.794L174.503 86.2937H161.096L163.899 70.9375H177.306L180.231 54.4844L199.609 53.1437L196.44 70.9375H217.037L214.234 86.2937H193.759ZM234.675 108.962C234.432 110.425 234.96 111.522 236.26 112.253C237.641 112.984 239.55 113.35 241.988 113.35C246.538 113.35 250.316 112.659 253.322 111.278C256.41 109.816 258.157 107.947 258.563 105.672H261.366C260.066 112.984 256.654 118.875 251.129 123.344C245.604 127.731 238.941 129.925 231.141 129.925C225.535 129.925 221.147 128.381 217.979 125.294C214.891 122.125 213.794 118.103 214.688 113.228C215.582 108.353 217.857 104.494 221.513 101.65C225.169 98.725 230.329 96.6125 236.991 95.3125L261.244 90.4375L259.172 102.016L241.866 105.55C237.316 106.525 234.919 107.662 234.675 108.962ZM274.041 127H254.785L262.097 113.594L257.588 111.156L261.366 89.95C261.61 88.325 260.797 87.025 258.929 86.05C257.06 85.075 254.46 84.5875 251.129 84.5875C247.635 84.5875 244.669 85.3187 242.232 86.7812C239.794 88.2437 238.169 90.1531 237.357 92.5094L218.832 90.0719C221.107 83.6531 225.413 78.3719 231.75 74.2281C238.088 70.0844 245.604 68.0125 254.297 68.0125C263.154 68.0125 270.019 70.0031 274.894 73.9844C279.85 77.9656 281.841 82.8406 280.866 88.6094L274.041 127ZM393.623 104.819C392.242 112.781 388.058 119.037 381.07 123.587C374.164 128.056 365.592 130.291 355.355 130.291C345.848 130.291 338.17 128.097 332.32 123.709C326.551 119.322 323.098 112.781 321.961 104.087L341.095 100.309C343.208 107.784 349.017 111.522 358.523 111.522C362.911 111.522 366.567 110.912 369.492 109.694C372.417 108.475 374.042 106.809 374.367 104.697C374.53 103.803 374.448 102.991 374.123 102.259C373.88 101.528 373.27 100.878 372.295 100.309C371.401 99.7406 370.508 99.2937 369.614 98.9687C368.801 98.5625 367.461 98.1562 365.592 97.75C363.805 97.3437 362.301 97.0594 361.083 96.8969C359.945 96.6531 358.158 96.3281 355.72 95.9219C355.314 95.9219 354.989 95.8812 354.745 95.8C334.92 92.55 326.267 83.8562 328.786 69.7187C330.167 61.8375 334.27 55.6219 341.095 51.0719C348.001 46.4406 356.614 44.125 366.933 44.125C376.358 44.125 383.873 46.1969 389.48 50.3406C395.167 54.4844 398.458 60.7 399.351 68.9875L380.461 72.7656C379.161 66.1844 373.717 62.8937 364.13 62.8937C359.498 62.8937 355.72 63.5437 352.795 64.8437C349.87 66.0625 348.245 67.7281 347.92 69.8406C347.514 72.2781 348.733 74.0656 351.576 75.2031C354.42 76.3406 359.539 77.5594 366.933 78.8594C367.176 78.9406 367.339 78.9812 367.42 78.9812C370.426 79.55 373.148 80.2 375.586 80.9312C378.105 81.6625 380.664 82.7187 383.264 84.1C385.945 85.4812 388.098 87.0656 389.723 88.8531C391.348 90.5594 392.567 92.7937 393.38 95.5562C394.192 98.3187 394.273 101.406 393.623 104.819ZM469.024 91.1688L450.133 93.6062C449.565 90.5187 448.183 88.1625 445.99 86.5375C443.877 84.9125 441.033 84.1 437.458 84.1C432.827 84.1 428.968 85.4 425.88 88C422.793 90.5187 420.843 94.0937 420.03 98.725C419.218 103.437 419.868 107.094 421.98 109.694C424.174 112.212 427.627 113.472 432.34 113.472C436.158 113.472 439.49 112.578 442.333 110.791C445.258 108.922 447.371 106.281 448.671 102.869L467.074 105.306C463.986 113.187 459.03 119.281 452.205 123.587C445.461 127.812 437.865 129.925 429.415 129.925C419.015 129.925 411.215 127.203 406.015 121.759C400.815 116.234 399.068 108.556 400.774 98.725C402.48 88.975 406.908 81.3781 414.058 75.9344C421.208 70.4906 429.983 67.7687 440.383 67.7687C448.021 67.7687 454.399 69.8 459.518 73.8625C464.636 77.925 467.805 83.6937 469.024 91.1688ZM481.782 55.3375C482.351 52.4125 483.854 49.8937 486.291 47.7812C488.81 45.6687 491.532 44.6125 494.457 44.6125C497.382 44.6125 499.697 45.6687 501.404 47.7812C503.191 49.8937 503.801 52.4125 503.232 55.3375C502.744 58.2625 501.241 60.8219 498.722 63.0156C496.285 65.1281 493.604 66.1844 490.679 66.1844C487.754 66.1844 485.397 65.1281 483.61 63.0156C481.904 60.8219 481.294 58.2625 481.782 55.3375ZM480.441 70.9375H499.576L489.704 127H470.569L480.441 70.9375ZM520.7 104.087C520.537 107.094 521.675 109.409 524.112 111.034C526.55 112.659 530.084 113.472 534.716 113.472C538.291 113.472 541.378 112.984 543.978 112.009C546.578 110.953 548.366 109.531 549.341 107.744L567.622 110.303C564.859 116.397 560.269 121.191 553.85 124.684C547.431 128.178 540.078 129.925 531.791 129.925C520.903 129.925 512.819 127.162 507.537 121.637C502.337 116.031 500.591 108.394 502.297 98.725C504.003 89.1375 508.35 81.5812 515.337 76.0562C522.325 70.5312 531.019 67.7687 541.419 67.7687C551.9 67.7687 559.659 70.5312 564.697 76.0562C569.734 81.5812 571.441 88.8937 569.816 97.9937L568.719 104.087H520.7ZM523.137 91.6562H551.534C551.941 89.4625 550.884 87.675 548.366 86.2937C545.928 84.8312 542.637 84.1 538.494 84.1C530.369 84.1 525.25 86.6187 523.137 91.6562ZM623.75 92.7531C624.237 90.1531 623.425 88.0812 621.312 86.5375C619.2 84.9937 616.234 84.2219 612.416 84.2219C608.678 84.2219 605.428 85.0344 602.666 86.6594C599.984 88.2844 598.441 90.3969 598.034 92.9969H595.475C596.612 86.4156 599.903 80.6062 605.347 75.5687C610.791 70.5312 617.006 68.0125 623.994 68.0125C630.575 68.0125 635.694 70.2875 639.35 74.8375C643.087 79.3062 644.387 84.8312 643.25 91.4125L636.912 127H617.656L623.75 92.7531ZM582.8 70.9375H601.934L594.866 85.9281L599.009 87.5125L591.941 127H572.806L582.8 70.9375ZM718.606 91.1688L699.715 93.6062C699.146 90.5187 697.765 88.1625 695.571 86.5375C693.459 84.9125 690.615 84.1 687.04 84.1C682.409 84.1 678.55 85.4 675.462 88C672.375 90.5187 670.425 94.0937 669.612 98.725C668.8 103.437 669.45 107.094 671.562 109.694C673.756 112.212 677.209 113.472 681.921 113.472C685.74 113.472 689.071 112.578 691.915 110.791C694.84 108.922 696.953 106.281 698.253 102.869L716.656 105.306C713.568 113.187 708.612 119.281 701.787 123.587C695.043 127.812 687.446 129.925 678.996 129.925C668.596 129.925 660.796 127.203 655.596 121.759C650.396 116.234 648.65 108.556 650.356 98.725C652.062 88.975 656.49 81.3781 663.64 75.9344C670.79 70.4906 679.565 67.7687 689.965 67.7687C697.603 67.7687 703.981 69.8 709.1 73.8625C714.218 77.925 717.387 83.6937 718.606 91.1688ZM741.479 104.087C741.317 107.094 742.454 109.409 744.892 111.034C747.329 112.659 750.864 113.472 755.495 113.472C759.07 113.472 762.157 112.984 764.757 112.009C767.357 110.953 769.145 109.531 770.12 107.744L788.401 110.303C785.639 116.397 781.048 121.191 774.629 124.684C768.211 128.178 760.857 129.925 752.57 129.925C741.682 129.925 733.598 127.162 728.317 121.637C723.117 116.031 721.37 108.394 723.076 98.725C724.782 89.1375 729.129 81.5812 736.117 76.0562C743.104 70.5312 751.798 67.7687 762.198 67.7687C772.679 67.7687 780.439 70.5312 785.476 76.0562C790.514 81.5812 792.22 88.8937 790.595 97.9937L789.498 104.087H741.479ZM743.917 91.6562H772.314C772.72 89.4625 771.664 87.675 769.145 86.2937C766.707 84.8312 763.417 84.1 759.273 84.1C751.148 84.1 746.029 86.6187 743.917 91.6562ZM795.536 125.05C793.992 123.262 793.464 120.987 793.951 118.225C794.439 115.462 795.779 113.187 797.973 111.4C800.167 109.531 802.604 108.597 805.286 108.597C808.048 108.597 810.161 109.531 811.623 111.4C813.167 113.187 813.695 115.462 813.207 118.225C812.314 123.506 810.892 128.056 808.942 131.875C806.992 135.694 804.676 138.619 801.995 140.65C799.314 142.763 796.47 144.306 793.464 145.281C790.539 146.256 787.37 146.744 783.957 146.744L784.445 136.75C797.12 136.75 805.001 132.931 808.089 125.294C806.464 126.919 804.432 127.731 801.995 127.731C799.232 127.731 797.079 126.837 795.536 125.05ZM914.329 101.894L952.964 47.2937H974.658L960.52 127H942.483L951.136 78.25L919.083 127H897.267L883.739 78.25L875.086 127H855.951L870.089 47.2937H893.001L911.161 101.894L911.404 108.475L914.329 101.894ZM991.395 108.962C991.152 110.425 991.68 111.522 992.98 112.253C994.361 112.984 996.27 113.35 998.708 113.35C1003.26 113.35 1007.04 112.659 1010.04 111.278C1013.13 109.816 1014.88 107.947 1015.28 105.672H1018.09C1016.79 112.984 1013.37 118.875 1007.85 123.344C1002.32 127.731 995.661 129.925 987.861 129.925C982.255 129.925 977.867 128.381 974.699 125.294C971.611 122.125 970.514 118.103 971.408 113.228C972.302 108.353 974.577 104.494 978.233 101.65C981.889 98.725 987.049 96.6125 993.711 95.3125L1017.96 90.4375L1015.89 102.016L998.586 105.55C994.036 106.525 991.639 107.662 991.395 108.962ZM1030.76 127H1011.5L1018.82 113.594L1014.31 111.156L1018.09 89.95C1018.33 88.325 1017.52 87.025 1015.65 86.05C1013.78 85.075 1011.18 84.5875 1007.85 84.5875C1004.35 84.5875 1001.39 85.3187 998.952 86.7812C996.514 88.2437 994.889 90.1531 994.077 92.5094L975.552 90.0719C977.827 83.6531 982.133 78.3719 988.47 74.2281C994.808 70.0844 1002.32 68.0125 1011.02 68.0125C1019.87 68.0125 1026.74 70.0031 1031.61 73.9844C1036.57 77.9656 1038.56 82.8406 1037.59 88.6094L1030.76 127ZM1112.32 91.1688L1093.43 93.6062C1092.86 90.5187 1091.48 88.1625 1089.28 86.5375C1087.17 84.9125 1084.33 84.1 1080.75 84.1C1076.12 84.1 1072.26 85.4 1069.18 88C1066.09 90.5187 1064.14 94.0937 1063.33 98.725C1062.51 103.437 1063.16 107.094 1065.28 109.694C1067.47 112.212 1070.92 113.472 1075.63 113.472C1079.45 113.472 1082.78 112.578 1085.63 110.791C1088.55 108.922 1090.67 106.281 1091.97 102.869L1110.37 105.306C1107.28 113.187 1102.33 119.281 1095.5 123.587C1088.76 127.812 1081.16 129.925 1072.71 129.925C1062.31 129.925 1054.51 127.203 1049.31 121.759C1044.11 116.234 1042.36 108.556 1044.07 98.725C1045.78 88.975 1050.2 81.3781 1057.35 75.9344C1064.5 70.4906 1073.28 67.7687 1083.68 67.7687C1091.32 67.7687 1097.69 69.8 1102.81 73.8625C1107.93 77.925 1111.1 83.6937 1112.32 91.1688ZM1164.93 92.0219C1165.34 89.6656 1164.48 87.7969 1162.37 86.4156C1160.26 84.9531 1157.29 84.2219 1153.47 84.2219C1149.74 84.2219 1146.53 84.9937 1143.85 86.5375C1141.16 88 1139.62 89.9094 1139.21 92.2656H1136.66C1137.79 85.8469 1141.04 80.2 1146.41 75.325C1151.85 70.45 1158.06 68.0125 1165.05 68.0125C1171.63 68.0125 1176.79 70.2062 1180.53 74.5937C1184.27 78.9812 1185.57 84.3437 1184.43 90.6812L1177.97 127H1158.71L1164.93 92.0219ZM1142.99 70.9375L1136.05 85.1969L1140.19 86.7812L1133 127H1113.86L1128.73 43.2719H1147.87L1142.99 70.9375ZM1199.7 55.3375C1200.27 52.4125 1201.77 49.8937 1204.21 47.7812C1206.73 45.6687 1209.45 44.6125 1212.38 44.6125C1215.3 44.6125 1217.62 45.6687 1219.32 47.7812C1221.11 49.8937 1221.72 52.4125 1221.15 55.3375C1220.66 58.2625 1219.16 60.8219 1216.64 63.0156C1214.2 65.1281 1211.52 66.1844 1208.6 66.1844C1205.67 66.1844 1203.32 65.1281 1201.53 63.0156C1199.82 60.8219 1199.21 58.2625 1199.7 55.3375ZM1198.36 70.9375H1217.5L1207.62 127H1188.49L1198.36 70.9375ZM1268.24 92.7531C1268.72 90.1531 1267.91 88.0812 1265.8 86.5375C1263.69 84.9937 1260.72 84.2219 1256.9 84.2219C1253.16 84.2219 1249.91 85.0344 1247.15 86.6594C1244.47 88.2844 1242.93 90.3969 1242.52 92.9969H1239.96C1241.1 86.4156 1244.39 80.6062 1249.83 75.5687C1255.28 70.5312 1261.49 68.0125 1268.48 68.0125C1275.06 68.0125 1280.18 70.2875 1283.84 74.8375C1287.57 79.3062 1288.87 84.8312 1287.74 91.4125L1281.4 127H1262.14L1268.24 92.7531ZM1227.29 70.9375H1246.42L1239.35 85.9281L1243.49 87.5125L1236.43 127H1217.29L1227.29 70.9375ZM1313.24 104.087C1313.08 107.094 1314.22 109.409 1316.66 111.034C1319.09 112.659 1322.63 113.472 1327.26 113.472C1330.84 113.472 1333.92 112.984 1336.52 112.009C1339.12 110.953 1340.91 109.531 1341.89 107.744L1360.17 110.303C1357.4 116.397 1352.81 121.191 1346.39 124.684C1339.98 128.178 1332.62 129.925 1324.34 129.925C1313.45 129.925 1305.36 127.162 1300.08 121.637C1294.88 116.031 1293.14 108.394 1294.84 98.725C1296.55 89.1375 1300.89 81.5812 1307.88 76.0562C1314.87 70.5312 1323.56 67.7687 1333.96 67.7687C1344.44 67.7687 1352.2 70.5312 1357.24 76.0562C1362.28 81.5812 1363.99 88.8937 1362.36 97.9937L1361.26 104.087H1313.24ZM1315.68 91.6562H1344.08C1344.49 89.4625 1343.43 87.675 1340.91 86.2937C1338.47 84.8312 1335.18 84.1 1331.04 84.1C1322.91 84.1 1317.79 86.6187 1315.68 91.6562ZM1415.07 47.2937H1434.21L1423.24 109.084H1476.26L1473.09 127H1400.94L1415.07 47.2937ZM1502.96 104.087C1502.8 107.094 1503.94 109.409 1506.37 111.034C1508.81 112.659 1512.34 113.472 1516.98 113.472C1520.55 113.472 1523.64 112.984 1526.24 112.009C1528.84 110.953 1530.63 109.531 1531.6 107.744L1549.88 110.303C1547.12 116.397 1542.53 121.191 1536.11 124.684C1529.69 128.178 1522.34 129.925 1514.05 129.925C1503.16 129.925 1495.08 127.162 1489.8 121.637C1484.6 116.031 1482.85 108.394 1484.56 98.725C1486.26 89.1375 1490.61 81.5812 1497.6 76.0562C1504.59 70.5312 1513.28 67.7687 1523.68 67.7687C1534.16 67.7687 1541.92 70.5312 1546.96 76.0562C1551.99 81.5812 1553.7 88.8937 1552.08 97.9937L1550.98 104.087H1502.96ZM1505.4 91.6562H1533.79C1534.2 89.4625 1533.14 87.675 1530.63 86.2937C1528.19 84.8312 1524.9 84.1 1520.75 84.1C1512.63 84.1 1507.51 86.6187 1505.4 91.6562ZM1575.42 108.962C1575.18 110.425 1575.7 111.522 1577 112.253C1578.39 112.984 1580.29 113.35 1582.73 113.35C1587.28 113.35 1591.06 112.659 1594.07 111.278C1597.15 109.816 1598.9 107.947 1599.31 105.672H1602.11C1600.81 112.984 1597.4 118.875 1591.87 123.344C1586.35 127.731 1579.69 129.925 1571.89 129.925C1566.28 129.925 1561.89 128.381 1558.72 125.294C1555.64 122.125 1554.54 118.103 1555.43 113.228C1556.33 108.353 1558.6 104.494 1562.26 101.65C1565.91 98.725 1571.07 96.6125 1577.74 95.3125L1601.99 90.4375L1599.92 102.016L1582.61 105.55C1578.06 106.525 1575.66 107.662 1575.42 108.962ZM1614.79 127H1595.53L1602.84 113.594L1598.33 111.156L1602.11 89.95C1602.35 88.325 1601.54 87.025 1599.67 86.05C1597.8 85.075 1595.2 84.5875 1591.87 84.5875C1588.38 84.5875 1585.41 85.3187 1582.98 86.7812C1580.54 88.2437 1578.91 90.1531 1578.1 92.5094L1559.58 90.0719C1561.85 83.6531 1566.16 78.3719 1572.49 74.2281C1578.83 70.0844 1586.35 68.0125 1595.04 68.0125C1603.9 68.0125 1610.76 70.0031 1615.64 73.9844C1620.59 77.9656 1622.59 82.8406 1621.61 88.6094L1614.79 127ZM1635.16 70.9375H1654.3L1646.86 84.8312L1651.49 86.7812L1644.3 127H1625.17L1635.16 70.9375ZM1669.53 87.5125C1664.49 87.5125 1660.02 88.5281 1656.12 90.5594C1652.22 92.5906 1649.99 95.1906 1649.42 98.3594L1648.08 92.2656C1649.22 85.4406 1652.22 79.9969 1657.1 75.9344C1662.06 71.7906 1668.03 69.7187 1675.02 69.7187H1683.79L1680.74 87.5125H1669.53ZM1731.93 92.7531C1732.42 90.1531 1731.61 88.0812 1729.49 86.5375C1727.38 84.9937 1724.42 84.2219 1720.6 84.2219C1716.86 84.2219 1713.61 85.0344 1710.85 86.6594C1708.17 88.2844 1706.62 90.3969 1706.22 92.9969H1703.66C1704.79 86.4156 1708.08 80.6062 1713.53 75.5687C1718.97 70.5312 1725.19 68.0125 1732.18 68.0125C1738.76 68.0125 1743.88 70.2875 1747.53 74.8375C1751.27 79.3062 1752.57 84.8312 1751.43 91.4125L1745.09 127H1725.84L1731.93 92.7531ZM1690.98 70.9375H1710.12L1703.05 85.9281L1707.19 87.5125L1700.12 127H1680.99L1690.98 70.9375ZM1766.83 55.3375C1767.39 52.4125 1768.9 49.8937 1771.33 47.7812C1773.85 45.6687 1776.58 44.6125 1779.5 44.6125C1782.43 44.6125 1784.74 45.6687 1786.45 47.7812C1788.23 49.8937 1788.84 52.4125 1788.28 55.3375C1787.79 58.2625 1786.28 60.8219 1783.77 63.0156C1781.33 65.1281 1778.65 66.1844 1775.72 66.1844C1772.8 66.1844 1770.44 65.1281 1768.65 63.0156C1766.95 60.8219 1766.34 58.2625 1766.83 55.3375ZM1765.48 70.9375H1784.62L1774.75 127H1755.61L1765.48 70.9375ZM1835.36 92.7531C1835.85 90.1531 1835.03 88.0812 1832.92 86.5375C1830.81 84.9937 1827.84 84.2219 1824.02 84.2219C1820.29 84.2219 1817.04 85.0344 1814.27 86.6594C1811.59 88.2844 1810.05 90.3969 1809.64 92.9969H1807.08C1808.22 86.4156 1811.51 80.6062 1816.96 75.5687C1822.4 70.5312 1828.62 68.0125 1835.6 68.0125C1842.18 68.0125 1847.3 70.2875 1850.96 74.8375C1854.7 79.3062 1856 84.8312 1854.86 91.4125L1848.52 127H1829.27L1835.36 92.7531ZM1794.41 70.9375H1813.54L1806.47 85.9281L1810.62 87.5125L1803.55 127H1784.42L1794.41 70.9375ZM1864.4 87.025C1865.38 81.5 1868.87 76.9094 1874.88 73.2531C1880.98 69.5969 1888.49 67.7687 1897.43 67.7687C1906.77 67.7687 1913.92 69.8406 1918.88 73.9844C1923.84 78.0469 1925.71 83.45 1924.49 90.1937C1923.43 96.125 1920.02 100.959 1914.25 104.697C1908.48 108.434 1901.57 110.303 1893.53 110.303C1892.64 109.572 1891.21 109.003 1889.26 108.597C1887.31 108.191 1885.57 107.987 1884.02 107.987C1882.56 107.906 1880.41 107.866 1877.56 107.866L1878.05 105.428C1872.93 105.103 1869.16 103.194 1866.72 99.7C1864.36 96.2062 1863.59 91.9812 1864.4 87.025ZM1883.29 89.4625C1882.97 91.3312 1883.66 92.7937 1885.36 93.85C1887.15 94.9062 1889.79 95.4344 1893.29 95.4344C1896.78 95.4344 1899.58 94.9062 1901.7 93.85C1903.89 92.7937 1905.15 91.3312 1905.47 89.4625C1905.8 87.675 1905.07 86.2937 1903.28 85.3187C1901.49 84.3437 1898.85 83.8562 1895.36 83.8562C1891.86 83.8562 1889.06 84.3437 1886.95 85.3187C1884.84 86.2937 1883.62 87.675 1883.29 89.4625ZM1919 67.8906C1916.81 67.8906 1915.59 68.5812 1915.35 69.9625C1915.26 70.6125 1915.67 71.6281 1916.56 73.0094L1909.5 70.2062L1911.2 67.6469C1908.76 65.4531 1907.79 62.975 1908.28 60.2125C1908.76 57.6937 1910.11 55.7437 1912.3 54.3625C1914.49 52.9812 1917.38 52.2906 1920.95 52.2906H1933.26L1930.46 67.8906H1919ZM1853.19 139.797C1853.84 136.141 1856.07 133.256 1859.89 131.144C1863.71 129.031 1868.55 127.975 1874.4 127.975L1874.64 126.512C1870.25 125.944 1867 124.847 1864.89 123.222C1862.86 121.516 1862.09 119.281 1862.57 116.519C1863.14 113.106 1865.7 110.628 1870.25 109.084C1874.88 107.459 1881.91 106.647 1891.34 106.647L1893.53 110.303C1886.22 110.303 1882.44 110.912 1882.2 112.131C1882.03 113.35 1886.18 114.325 1894.63 115.056C1904.3 116.112 1910.92 118.469 1914.49 122.125C1918.15 125.781 1919.49 130.25 1918.51 135.531C1917.46 141.788 1913.72 146.703 1907.3 150.278C1900.88 153.934 1892.68 155.763 1882.68 155.763C1872.77 155.763 1865.13 154.3 1859.77 151.375C1854.49 148.531 1852.3 144.672 1853.19 139.797ZM1877.81 131.144C1875.05 131.956 1873.54 133.013 1873.3 134.313C1873.06 135.613 1874.07 136.628 1876.35 137.359C1878.62 138.091 1881.83 138.456 1885.97 138.456C1894.51 138.456 1899.01 137.116 1899.5 134.434C1899.66 133.541 1899.06 132.809 1897.67 132.241C1896.29 131.672 1893.25 130.941 1888.53 130.047C1884.15 130.047 1880.57 130.413 1877.81 131.144Z" fill="black"/>
</g>
<defs>
<clipPath id="clip0_2074_4">
<rect width="1986" height="176" fill="white"/>
</clipPath>
</defs>
</svg>
