<svg width="38" height="24" viewBox="0 0 38 24" fill="none" xmlns="http://www.w3.org/2000/svg">
<path d="M37.5062 2.63226L35.725 3.62653L37.5062 4.39465V6.15704L35.725 7.0387L37.5062 7.92035V9.68274L35.725 10.6953L37.5062 11.4259V13.1883L35.725 14.1258L37.5062 14.9516V16.714L35.725 17.3695L37.5062 18.4764V20.2388L35.725 21.2321L37.5062 22.0012V23.7635H0.699707V22.0012L2.48132 21.2321L0.699707 20.2388V18.4764L2.48132 17.5947L0.699707 16.714V14.9516L2.48132 14.0699L0.699707 13.1883L3.04346 11.4259L5.31259 9.66351L7.60004 7.90112L9.86871 6.13873L12.1562 4.37634L14.4248 2.61395L15.8311 1.54462L16.7123 0.851562H37.5062V2.63226Z" fill="#E63950"/>
<path d="M37.5062 2.62958L35.725 3.62384L37.5062 4.39197V6.15436L35.725 7.03601L37.5062 7.91766V9.68005L35.725 10.6926L37.5062 11.4232V13.1856L35.725 14.1231L37.5062 14.9489V16.7113L35.725 17.3668L37.5062 18.4737V20.2361L35.725 21.2294L37.5062 21.9985V23.7609H15.8311V1.56116L16.7122 0.867188H37.5062V2.62958Z" fill="#E63950"/>
<path d="M37.5063 2.63281H14.4249L12.1375 4.3952H37.4875V2.63281H37.5063Z" fill="#D9D9D9"/>
<path d="M37.5062 6.14062H9.86874L7.5813 7.90302H37.4875V6.14062H37.5062Z" fill="#D9D9D9"/>
<path d="M37.5062 9.66406H5.31256L3.02466 11.4265H37.4874V9.66406H37.5062Z" fill="#D9D9D9"/>
<path d="M0.699707 13.1875H37.5062V14.9508H0.699707V13.1875Z" fill="#D9D9D9"/>
<path d="M0.699707 16.7148H37.5062V18.4772H0.699707V16.7148Z" fill="#D9D9D9"/>
<path d="M0.699707 20.2188H37.5062V21.9821H0.699707V20.2188Z" fill="#D9D9D9"/>
<path d="M15.8311 13.1875H37.5062V14.9508H15.8311V13.1875Z" fill="#D9D9D9"/>
<path d="M15.8311 16.7148H37.5062V18.4772H15.8311V16.7148Z" fill="#D9D9D9"/>
<path d="M15.8311 20.2188H37.5062V21.9821H15.8311V20.2188Z" fill="#D9D9D9"/>
<path d="M0.699707 0.867188H16.7123V13.1856H0.699707V0.867188Z" fill="#3AAAFF"/>
<path d="M4.30005 4.375H6.08121V6.13739H4.30005V4.375Z" fill="#D9D9D9"/>
<path d="M4.30005 7.89844H6.08121V9.66083H4.30005V7.89844Z" fill="#D9D9D9"/>
<path d="M7.84363 7.89844H9.62479V9.66083H7.84363V7.89844Z" fill="#D9D9D9"/>
<path d="M7.84363 4.375H9.62479V6.13739H7.84363V4.375Z" fill="#D9D9D9"/>
<path d="M11.3876 4.375H13.1687V6.13739H11.3876V4.375Z" fill="#D9D9D9"/>
<path d="M11.3876 7.89844H13.1687V9.66083H11.3876V7.89844Z" fill="#D9D9D9"/>
<path d="M15.8311 0.867188H16.7122V13.1856H15.8311V0.867188Z" fill="#3AAAFF"/>
</svg>
