<svg width="790" height="177" viewBox="0 0 790 177" fill="none" xmlns="http://www.w3.org/2000/svg">
<path d="M769.32 176.149H19.99C8.96999 176.149 0 167.18 0 156.16V20.6597C0 9.63967 8.96999 0.669434 19.99 0.669434H769.32C780.34 0.669434 789.31 9.63967 789.31 20.6597V156.16C789.31 167.19 780.34 176.149 769.32 176.149ZM20 5.11963C11.43 5.11963 4.44995 12.0897 4.44995 20.6597V156.16C4.44995 164.73 11.42 171.709 20 171.709H769.33C777.9 171.709 784.88 164.74 784.88 156.16V20.6597C784.88 12.0897 777.91 5.11963 769.33 5.11963H20Z" fill="url(#paint0_linear_1_7818)"/>
<defs>
<linearGradient id="paint0_linear_1_7818" x1="5.6142" y1="173.97" x2="799.697" y2="-0.656434" gradientUnits="userSpaceOnUse">
<stop stop-color="#F22D7A"/>
<stop offset="1" stop-color="#932BBC"/>
</linearGradient>
</defs>
</svg>
