<svg width="2003" height="153" viewBox="0 0 2003 153" fill="none" xmlns="http://www.w3.org/2000/svg">
<g clip-path="url(#clip0_2050_2)">
<path d="M86.8775 25.054L75.693 88.1462L130.612 25.054H159.147L142.513 118.832H120.001L131.185 55.453L76.2665 118.832H47.5882L64.2216 25.054H86.8775ZM238.592 76.6749L216.367 79.5428C215.698 75.9102 214.073 73.1379 211.491 71.226C209.006 69.3142 205.66 68.3582 201.454 68.3582C196.005 68.3582 191.464 69.8877 187.832 72.9467C184.199 75.9102 181.905 80.1163 180.949 85.5652C179.993 91.1097 180.758 95.4114 183.243 98.4704C185.824 101.434 189.887 102.916 195.432 102.916C199.925 102.916 203.844 101.864 207.19 99.761C210.631 97.5623 213.117 94.4555 214.646 90.4405L236.298 93.3083C232.666 102.581 226.834 109.751 218.804 114.817C210.87 119.788 201.932 122.273 191.99 122.273C179.754 122.273 170.577 119.071 164.459 112.666C158.341 106.166 156.286 97.1321 158.293 85.5652C160.301 74.0939 165.511 65.1558 173.923 58.751C182.335 52.3462 192.659 49.1437 204.895 49.1437C213.881 49.1437 221.385 51.5336 227.408 56.3133C233.43 61.093 237.159 67.8802 238.592 76.6749ZM250.305 52.8719H324.295L320.566 73.8071H294.756L286.869 118.832H264.214L272.1 73.8071H246.576L250.305 52.8719ZM349.126 85.5652C348.17 91.1097 348.887 95.4114 351.277 98.4704C353.762 101.434 357.682 102.916 363.035 102.916C368.388 102.916 372.833 101.434 376.37 98.4704C379.907 95.4114 382.154 91.1097 383.11 85.5652C384.066 80.1163 383.301 75.9102 380.816 72.9467C378.33 69.8877 374.411 68.3582 369.057 68.3582C363.704 68.3582 359.259 69.8399 355.722 72.8034C352.281 75.7668 350.082 80.0207 349.126 85.5652ZM326.47 85.5652C328.478 73.9983 333.592 65.0602 341.813 58.751C350.13 52.3462 360.358 49.1437 372.499 49.1437C383.875 49.1437 392.765 52.394 399.17 58.8944C405.574 65.3948 407.773 74.2851 405.766 85.5652C403.758 97.1321 398.596 106.166 390.279 112.666C381.963 119.071 371.734 122.273 359.594 122.273C347.453 122.273 338.372 119.071 332.349 112.666C326.422 106.166 324.463 97.1321 326.47 85.5652ZM437.963 85.9954C437.007 91.5398 437.867 95.8416 440.544 98.9006C443.316 101.864 447.57 103.346 453.306 103.346C459.137 103.346 463.917 101.864 467.645 98.9006C471.468 95.8416 473.858 91.5398 474.814 85.9954C475.77 80.4509 474.91 76.197 472.233 73.2335C469.557 70.2701 465.303 68.7884 459.471 68.7884C453.64 68.7884 448.813 70.2701 444.989 73.2335C441.261 76.197 438.919 80.4509 437.963 85.9954ZM433.948 85.9954C435.955 74.3329 440.114 65.347 446.423 59.0378C452.828 52.6329 460.762 49.4305 470.226 49.4305C480.168 49.4305 487.672 52.6807 492.738 59.1812C497.9 65.586 499.478 74.3807 497.47 85.5652C495.463 97.2277 490.587 106.309 482.844 112.81C475.101 119.31 466.354 122.56 456.604 122.56C447.427 122.56 440.831 119.406 436.816 113.096C432.801 106.692 431.845 97.6579 433.948 85.9954ZM404.552 147.08L421.186 52.8719H443.842L435.238 69.2186L440.544 71.5128L435.382 100.191L429.216 102.485L432.084 118.832L427.208 147.08H404.552ZM535.702 52.8719L528.963 91.0141L567.678 52.8719H593.345L581.587 118.832H559.075L565.958 80.4031L527.098 118.832H501.288L513.046 52.8719H535.702ZM594.562 118.832L616.357 89.5802H640.734L619.225 118.832H594.562ZM653.209 73.9505H631.7C625.965 73.9505 623.001 74.7152 622.81 76.2447C622.428 78.061 625.296 78.9692 631.414 78.9692H652.349L653.209 73.9505ZM645.323 118.832L648.621 100.191H628.259C618.317 100.191 610.67 98.0881 605.316 93.8819C600.059 89.5802 598.099 83.7011 599.437 76.2447C600.776 68.7884 604.599 63.0527 610.909 59.0378C617.218 54.9272 625.582 52.8719 636.002 52.8719H680.167L668.552 118.832H645.323ZM809.285 92.7348C807.66 102.103 802.737 109.464 794.516 114.817C786.39 120.075 776.305 122.704 764.26 122.704C753.076 122.704 744.042 120.123 737.159 114.96C730.372 109.798 726.309 102.103 724.971 91.8744L747.483 87.4293C749.969 96.224 756.804 100.621 767.988 100.621C773.15 100.621 777.452 99.9043 780.894 98.4704C784.335 97.0365 786.247 95.0768 786.629 92.5914C786.82 91.5398 786.725 90.5839 786.342 89.7236C786.056 88.8632 785.339 88.0984 784.192 87.4293C783.14 86.7601 782.089 86.2344 781.037 85.852C780.081 85.374 778.504 84.896 776.305 84.4181C774.202 83.9401 772.434 83.6055 771 83.4143C769.661 83.1275 767.558 82.7452 764.69 82.2672C764.212 82.2672 763.83 82.2194 763.543 82.1238C740.218 78.3 730.037 68.0714 733.001 51.438C734.626 42.1654 739.453 34.8524 747.483 29.4991C755.609 24.0502 765.742 21.3258 777.882 21.3258C788.971 21.3258 797.814 23.7634 804.41 28.6388C811.101 33.5141 814.973 40.827 816.025 50.5777L793.799 55.0228C792.269 47.2797 785.865 43.4081 774.584 43.4081C769.136 43.4081 764.69 44.1728 761.249 45.7023C757.808 47.1363 755.896 49.0959 755.513 51.5814C755.035 54.4492 756.469 56.5523 759.815 57.8906C763.161 59.229 769.183 60.6629 777.882 62.1924C778.169 62.288 778.36 62.3358 778.456 62.3358C781.993 63.0049 785.195 63.7697 788.063 64.63C791.027 65.4904 794.038 66.7331 797.097 68.3582C800.251 69.9833 802.785 71.8474 804.697 73.9505C806.609 75.958 808.042 78.5868 808.998 81.837C809.954 85.0872 810.05 88.7198 809.285 92.7348ZM842.792 85.9954C841.836 91.5398 842.696 95.8416 845.373 98.9006C848.145 101.864 852.399 103.346 858.135 103.346C863.966 103.346 868.746 101.864 872.474 98.9006C876.297 95.8416 878.687 91.5398 879.643 85.9954C880.599 80.4509 879.739 76.197 877.062 73.2335C874.386 70.2701 870.132 68.7884 864.3 68.7884C858.469 68.7884 853.642 70.2701 849.818 73.2335C846.09 76.197 843.748 80.4509 842.792 85.9954ZM838.777 85.9954C840.784 74.3329 844.943 65.347 851.252 59.0378C857.657 52.6329 865.591 49.4305 875.055 49.4305C884.997 49.4305 892.501 52.6807 897.567 59.1812C902.729 65.586 904.307 74.3807 902.299 85.5652C900.292 97.2277 895.416 106.309 887.673 112.81C879.93 119.31 871.183 122.56 861.433 122.56C852.255 122.56 845.659 119.406 841.645 113.096C837.63 106.692 836.674 97.6579 838.777 85.9954ZM809.381 147.08L826.015 52.8719H848.671L840.067 69.2186L845.373 71.5128L840.211 100.191L834.045 102.485L836.913 118.832L832.037 147.08H809.381ZM933.218 94.0253C932.644 97.2755 933.553 99.8566 935.942 101.768C938.332 103.68 941.821 104.636 946.41 104.636C950.807 104.636 954.583 103.633 957.738 101.625C960.988 99.6176 962.9 96.9887 963.474 93.7385H966.485C965.146 101.29 961.275 107.934 954.87 113.67C948.561 119.406 941.296 122.273 933.075 122.273C925.331 122.273 919.261 119.74 914.864 114.674C910.467 109.512 908.937 103.155 910.275 95.6026L917.875 52.8719H940.531L933.218 94.0253ZM981.541 118.832H959.028L967.202 102.055L962.326 100.191L970.787 52.8719H993.299L981.541 118.832ZM1037.08 70.9393L1033.35 92.3046C1032.68 96.0328 1032.87 98.3748 1033.92 99.3308C1034.97 100.191 1037.75 100.621 1042.24 100.621H1056L1052.85 118.832H1032.49C1023.79 118.832 1017.53 117.016 1013.7 113.383C1009.88 109.751 1008.78 103.25 1010.41 93.8819L1014.42 70.9393H998.648L1001.95 52.8719H1017.72L1021.16 33.5141L1043.96 31.9368L1040.23 52.8719H1064.46L1061.17 70.9393H1037.08ZM1121.21 78.539C1121.78 75.48 1120.83 73.0423 1118.34 71.226C1115.86 69.4098 1112.37 68.5016 1107.87 68.5016C1103.48 68.5016 1099.65 69.4575 1096.4 71.3694C1093.25 73.2813 1091.43 75.7668 1090.95 78.8258H1087.94C1089.28 71.0827 1093.15 64.2477 1099.56 58.3208C1105.96 52.394 1113.27 49.4305 1121.5 49.4305C1129.24 49.4305 1135.26 52.1072 1139.56 57.4605C1143.96 62.7181 1145.49 69.2186 1144.15 76.9617L1136.7 118.832H1114.04L1121.21 78.539ZM1073.03 52.8719H1095.54L1087.22 70.5091L1092.1 72.3732L1083.78 118.832H1061.27L1073.03 52.8719ZM1162.26 34.5178C1162.93 31.0764 1164.7 28.113 1167.57 25.6275C1170.53 23.1421 1173.73 21.8994 1177.18 21.8994C1180.62 21.8994 1183.34 23.1421 1185.35 25.6275C1187.45 28.113 1188.17 31.0764 1187.5 34.5178C1186.93 37.9592 1185.16 40.9704 1182.19 43.5515C1179.33 46.0369 1176.17 47.2797 1172.73 47.2797C1169.29 47.2797 1166.52 46.0369 1164.41 43.5515C1162.41 40.9704 1161.69 37.9592 1162.26 34.5178ZM1160.69 52.8719H1183.2L1171.58 118.832H1149.07L1160.69 52.8719ZM1200.45 20.322H1222.96L1212.21 80.5465L1249.2 52.8719H1277.31L1242.18 81.5502L1265.55 118.832H1238.31L1222.68 93.4517L1208.05 104.349L1205.47 118.832H1182.96L1200.45 20.322ZM1401.9 92.7348C1400.27 102.103 1395.35 109.464 1387.13 114.817C1379 120.075 1368.92 122.704 1356.87 122.704C1345.69 122.704 1336.65 120.123 1329.77 114.96C1322.98 109.798 1318.92 102.103 1317.58 91.8744L1340.09 87.4293C1342.58 96.224 1349.41 100.621 1360.6 100.621C1365.76 100.621 1370.06 99.9043 1373.5 98.4704C1376.95 97.0365 1378.86 95.0768 1379.24 92.5914C1379.43 91.5398 1379.34 90.5839 1378.95 89.7236C1378.67 88.8632 1377.95 88.0984 1376.8 87.4293C1375.75 86.7601 1374.7 86.2344 1373.65 85.852C1372.69 85.374 1371.11 84.896 1368.92 84.4181C1366.81 83.9401 1365.04 83.6055 1363.61 83.4143C1362.27 83.1275 1360.17 82.7452 1357.3 82.2672C1356.82 82.2672 1356.44 82.2194 1356.15 82.1238C1332.83 78.3 1322.65 68.0714 1325.61 51.438C1327.24 42.1654 1332.06 34.8524 1340.09 29.4991C1348.22 24.0502 1358.35 21.3258 1370.49 21.3258C1381.58 21.3258 1390.42 23.7634 1397.02 28.6388C1403.71 33.5141 1407.58 40.827 1408.63 50.5777L1386.41 55.0228C1384.88 47.2797 1378.47 43.4081 1367.19 43.4081C1361.75 43.4081 1357.3 44.1728 1353.86 45.7023C1350.42 47.1363 1348.51 49.0959 1348.12 51.5814C1347.65 54.4492 1349.08 56.5523 1352.43 57.8906C1355.77 59.229 1361.79 60.6629 1370.49 62.1924C1370.78 62.288 1370.97 62.3358 1371.07 62.3358C1374.6 63.0049 1377.81 63.7697 1380.67 64.63C1383.64 65.4904 1386.65 66.7331 1389.71 68.3582C1392.86 69.9833 1395.4 71.8474 1397.31 73.9505C1399.22 75.958 1400.65 78.5868 1401.61 81.837C1402.56 85.0872 1402.66 88.7198 1401.9 92.7348ZM1432.96 85.5652C1432.01 91.1097 1432.73 95.4114 1435.12 98.4704C1437.6 101.434 1441.52 102.916 1446.87 102.916C1452.23 102.916 1456.67 101.434 1460.21 98.4704C1463.75 95.4114 1465.99 91.1097 1466.95 85.5652C1467.9 80.1163 1467.14 75.9102 1464.65 72.9467C1462.17 69.8877 1458.25 68.3582 1452.9 68.3582C1447.54 68.3582 1443.1 69.8399 1439.56 72.8034C1436.12 75.7668 1433.92 80.0207 1432.96 85.5652ZM1410.31 85.5652C1412.32 73.9983 1417.43 65.0602 1425.65 58.751C1433.97 52.3462 1444.2 49.1437 1456.34 49.1437C1467.71 49.1437 1476.6 52.394 1483.01 58.8944C1489.41 65.3948 1491.61 74.2851 1489.6 85.5652C1487.6 97.1321 1482.43 106.166 1474.12 112.666C1465.8 119.071 1455.57 122.273 1443.43 122.273C1431.29 122.273 1422.21 119.071 1416.19 112.666C1410.26 106.166 1408.3 97.1321 1410.31 85.5652ZM1510.76 20.322H1533.27L1515.78 118.832H1493.27L1510.76 20.322ZM1555.23 94.0253C1554.66 97.2755 1555.57 99.8566 1557.96 101.768C1560.35 103.68 1563.84 104.636 1568.43 104.636C1572.82 104.636 1576.6 103.633 1579.75 101.625C1583 99.6176 1584.92 96.9887 1585.49 93.7385H1588.5C1587.16 101.29 1583.29 107.934 1576.89 113.67C1570.58 119.406 1563.31 122.273 1555.09 122.273C1547.35 122.273 1541.28 119.74 1536.88 114.674C1532.48 109.512 1530.95 103.155 1532.29 95.6026L1539.89 52.8719H1562.55L1555.23 94.0253ZM1603.56 118.832H1581.05L1589.22 102.055L1584.34 100.191L1592.8 52.8719H1615.32L1603.56 118.832ZM1659.09 70.9393L1655.37 92.3046C1654.7 96.0328 1654.89 98.3748 1655.94 99.3308C1656.99 100.191 1659.76 100.621 1664.26 100.621H1678.02L1674.87 118.832H1654.51C1645.81 118.832 1639.54 117.016 1635.72 113.383C1631.9 109.751 1630.8 103.25 1632.42 93.8819L1636.44 70.9393H1620.66L1623.96 52.8719H1639.74L1643.18 33.5141L1665.98 31.9368L1662.25 52.8719H1686.48L1683.18 70.9393H1659.09ZM1696.48 34.5178C1697.15 31.0764 1698.92 28.113 1701.79 25.6275C1704.75 23.1421 1707.95 21.8994 1711.39 21.8994C1714.83 21.8994 1717.56 23.1421 1719.57 25.6275C1721.67 28.113 1722.39 31.0764 1721.72 34.5178C1721.14 37.9592 1719.37 40.9704 1716.41 43.5515C1713.54 46.0369 1710.39 47.2797 1706.95 47.2797C1703.51 47.2797 1700.73 46.0369 1698.63 43.5515C1696.62 40.9704 1695.91 37.9592 1696.48 34.5178ZM1694.9 52.8719H1717.41L1705.8 118.832H1683.29L1694.9 52.8719ZM1743.27 85.5652C1742.32 91.1097 1743.03 95.4114 1745.42 98.4704C1747.91 101.434 1751.83 102.916 1757.18 102.916C1762.53 102.916 1766.98 101.434 1770.52 98.4704C1774.05 95.4114 1776.3 91.1097 1777.26 85.5652C1778.21 80.1163 1777.45 75.9102 1774.96 72.9467C1772.48 69.8877 1768.56 68.3582 1763.2 68.3582C1757.85 68.3582 1753.41 69.8399 1749.87 72.8034C1746.43 75.7668 1744.23 80.0207 1743.27 85.5652ZM1720.62 85.5652C1722.62 73.9983 1727.74 65.0602 1735.96 58.751C1744.28 52.3462 1754.5 49.1437 1766.65 49.1437C1778.02 49.1437 1786.91 52.394 1793.32 58.8944C1799.72 65.3948 1801.92 74.2851 1799.91 85.5652C1797.9 97.1321 1792.74 106.166 1784.43 112.666C1776.11 119.071 1765.88 122.273 1753.74 122.273C1741.6 122.273 1732.52 119.071 1726.5 112.666C1720.57 106.166 1718.61 97.1321 1720.62 85.5652ZM1863.51 78.539C1864.09 75.48 1863.13 73.0423 1860.64 71.226C1858.16 69.4098 1854.67 68.5016 1850.18 68.5016C1845.78 68.5016 1841.96 69.4575 1838.71 71.3694C1835.55 73.2813 1833.73 75.7668 1833.26 78.8258H1830.25C1831.58 71.0827 1835.46 64.2477 1841.86 58.3208C1848.26 52.394 1855.58 49.4305 1863.8 49.4305C1871.54 49.4305 1877.56 52.1072 1881.87 57.4605C1886.26 62.7181 1887.79 69.2186 1886.45 76.9617L1879 118.832H1856.34L1863.51 78.539ZM1815.33 52.8719H1837.84L1829.53 70.5091L1834.4 72.3732L1826.09 118.832H1803.57L1815.33 52.8719ZM1961.35 101.625C1960.3 107.839 1956.43 112.905 1949.73 116.825C1943.14 120.744 1935.06 122.704 1925.5 122.704C1915.94 122.704 1908.15 120.648 1902.13 116.538C1896.2 112.427 1893.05 106.261 1892.66 98.0403L1914.89 95.4592C1915.85 101.768 1919.96 104.923 1927.22 104.923C1930.47 104.923 1933.15 104.541 1935.25 103.776C1937.45 102.916 1938.69 101.816 1938.98 100.478C1939.17 99.4264 1938.93 98.5182 1938.26 97.7535C1937.69 96.9887 1936.59 96.3674 1934.96 95.8894C1933.44 95.3158 1932 94.8856 1930.66 94.5989C1929.42 94.2165 1927.6 93.8341 1925.21 93.4517C1922.06 92.7826 1919.19 92.1134 1916.61 91.4442C1914.03 90.6795 1911.45 89.628 1908.87 88.2896C1906.29 86.9513 1904.18 85.4696 1902.56 83.8445C1900.93 82.2194 1899.69 80.1641 1898.83 77.6787C1898.07 75.1932 1897.97 72.4688 1898.54 69.5053C1899.59 63.2917 1903.27 58.3686 1909.58 54.736C1915.99 51.0078 1924.02 49.1437 1933.67 49.1437C1952.98 49.1437 1963.79 56.3611 1966.08 70.7959L1943.42 74.8108C1942.47 69.5531 1938.74 66.9243 1932.24 66.9243C1925.07 66.9243 1921.29 68.0714 1920.91 70.3657C1920.63 71.8952 1921.49 73.0901 1923.49 73.9505C1925.6 74.8108 1928.75 75.5756 1932.96 76.2447C1936.3 76.8183 1939.27 77.4875 1941.85 78.2522C1944.43 78.9214 1947.15 79.9251 1950.02 81.2634C1952.89 82.6018 1955.18 84.1313 1956.9 85.852C1958.72 87.5727 1960.06 89.8191 1960.92 92.5914C1961.87 95.268 1962.02 98.2792 1961.35 101.625Z" fill="#932BBC"/>
</g>
<defs>
<clipPath id="clip0_2050_2">
<rect width="2003" height="153" fill="white"/>
</clipPath>
</defs>
</svg>
