<svg width="194" height="154" viewBox="0 0 194 154" fill="none" xmlns="http://www.w3.org/2000/svg">
<path d="M123.627 72.4371C103.354 79.1638 82.7739 84.9904 61.9339 89.6704C50.5939 92.1038 39.1406 94.5038 27.6006 95.7504C27.8473 96.7171 28.1074 97.6771 28.3874 98.6304C29.3874 98.5438 30.2206 98.4638 30.8206 98.4038C41.5406 97.3038 52.1674 95.4371 62.7074 93.2304C83.7474 88.7704 104.474 82.9038 124.801 75.8771C140.027 70.5571 155.094 64.6438 169.494 57.3371C171.101 56.4905 172.714 55.6438 174.321 54.7704C174.094 54.0238 173.854 53.2771 173.601 52.5371C157.541 60.5438 140.621 66.6971 123.627 72.4371Z" fill="#161616"/>
<path d="M174.334 54.8247C172.76 55.678 171.174 56.5114 169.6 57.3447C155.2 64.6514 140.141 70.5647 124.907 75.8847C119.874 77.6247 114.814 79.2914 109.727 80.8847C122.834 77.7247 129.607 80.7914 133.054 85.4447C142.041 100.245 126.134 111.451 121.42 114.118C115.634 117.185 109.041 118.918 102.041 118.918C84.6605 118.918 69.7871 108.218 63.6271 93.058C63.3538 93.118 63.0871 93.178 62.8138 93.2313C52.2738 95.4313 41.6471 97.3047 30.9271 98.4047C30.3271 98.458 29.4938 98.538 28.4938 98.6314C28.2138 97.678 27.9472 96.718 27.7072 95.7514C39.2472 94.5047 50.7005 92.1047 62.0405 89.6714C74.9805 86.7647 87.8205 83.418 100.554 79.6847C93.2939 81.0114 87.5338 81.1314 82.9871 80.4247C82.4071 80.278 81.7271 80.1313 80.9471 79.978C68.1604 77.4913 66.7805 64.458 66.6538 62.738C66.6271 62.0514 66.6338 61.3847 66.6538 60.7447C66.9138 56.3114 68.8405 52.718 70.9605 50.0247C78.5538 41.4247 89.6605 36.0047 102.041 36.0047C120.981 36.0047 136.941 48.7047 141.901 66.0514C152.687 62.0647 163.327 57.7047 173.62 52.578C163.447 22.478 134.974 0.804688 101.44 0.804688C59.3738 0.804688 25.2671 34.9047 25.2671 76.978C25.2671 119.051 59.3671 153.151 101.44 153.151C143.507 153.151 177.614 119.051 177.614 76.978C177.607 69.2713 176.46 61.838 174.334 54.8247Z" fill="#161616"/>
<path d="M14.6338 96.6115C13.3204 96.6115 12.0072 96.5781 10.7072 96.4848C8.79385 96.3314 6.89375 96.1048 5.10708 95.4648C4.14708 95.0915 3.0804 94.5648 2.75373 93.6115C1.83373 89.9048 10.9939 83.8514 14.0472 81.8581C17.6872 79.5114 21.4604 77.3715 25.2737 75.3248C25.2737 75.2448 25.2738 75.1581 25.2804 75.0781C17.3138 78.6381 3.50049 85.3581 1.02049 91.6115C-1.93284 100.771 19.6939 99.4048 28.3805 98.6315C28.1005 97.6781 27.8337 96.7181 27.5937 95.7515C23.2871 96.2181 18.9671 96.5248 14.6338 96.6115Z" fill="#161616"/>
<path d="M192.267 35.6707C189.047 32.9107 181.567 33.1774 177.361 33.3574C180.694 33.4707 191.721 33.7307 192.301 37.844C192.507 42.664 179.754 49.324 175.547 51.5574C174.901 51.8907 174.247 52.2174 173.601 52.5374C173.854 53.2774 174.087 54.024 174.321 54.7707C179.861 51.7574 185.301 48.4707 189.934 44.1774C192.061 42.1507 195.194 38.344 192.267 35.6707Z" fill="#161616"/>
</svg>
