<svg width="259" height="204" viewBox="0 0 259 204" fill="none" xmlns="http://www.w3.org/2000/svg">
<path d="M164.545 95.921C137.398 104.928 109.84 112.731 81.9345 118.997C66.7497 122.256 51.4131 125.469 35.9604 127.139C36.2907 128.433 36.6391 129.719 37.014 130.995C38.353 130.879 39.4688 130.772 40.2723 130.692C54.6269 129.219 68.8566 126.719 82.9702 123.764C111.144 117.792 138.898 109.936 166.116 100.527C186.506 93.4036 206.681 85.4854 225.963 75.7014C228.114 74.5677 230.275 73.4339 232.426 72.2645C232.123 71.2647 231.801 70.2648 231.462 69.2739C209.957 79.9953 187.3 88.2349 164.545 95.921Z" fill="#161616"/>
<path d="M232.443 72.3356C230.337 73.4782 228.212 74.5941 226.105 75.71C206.823 85.494 186.657 93.4122 166.259 100.536C159.519 102.866 152.743 105.098 145.932 107.231C163.482 103 172.552 107.106 177.167 113.337C189.201 133.155 167.901 148.162 161.59 151.732C153.841 155.839 145.012 158.16 135.639 158.16C112.366 158.16 92.45 143.832 84.2015 123.532C83.8355 123.612 83.4784 123.693 83.1124 123.764C68.9988 126.71 54.7691 129.218 40.4145 130.691C39.611 130.763 38.4953 130.87 37.1562 130.995C36.7813 129.718 36.4242 128.433 36.1029 127.138C51.5555 125.469 66.8921 122.255 82.077 118.997C99.4043 115.105 116.598 110.624 133.648 105.624C123.927 107.401 116.214 107.562 110.126 106.615C109.349 106.419 108.438 106.222 107.394 106.017C90.2718 102.687 88.424 85.2351 88.2544 82.9319C88.2187 82.0124 88.2276 81.1197 88.2544 80.2627C88.6025 74.3263 91.1824 69.5146 94.0212 65.9081C104.189 54.3923 119.062 47.1346 135.639 47.1346C161.001 47.1346 182.372 64.1406 189.014 87.3686C203.458 82.0303 217.705 76.192 231.488 69.3272C217.866 29.0217 179.738 0 134.835 0C78.506 0 32.8354 45.6616 32.8354 102C32.8354 158.338 78.4971 204 134.835 204C191.165 204 236.835 158.338 236.835 102C236.827 91.6804 235.291 81.7268 232.443 72.3356Z" fill="#161616"/>
<path d="M18.597 128.29C16.8384 128.29 15.0798 128.245 13.3391 128.12C10.777 127.915 8.23268 127.611 5.84024 126.754C4.55475 126.254 3.1264 125.549 2.68898 124.273C1.45705 119.309 13.7229 111.203 17.8115 108.534C22.6856 105.392 27.7382 102.526 32.8444 99.7859C32.8444 99.6787 32.8444 99.5627 32.8534 99.4556C22.1856 104.223 3.68894 113.221 0.368089 121.595C-3.58658 133.86 25.3727 132.03 37.0046 130.995C36.6296 129.718 36.2724 128.433 35.951 127.138C30.1842 127.763 24.3995 128.174 18.597 128.29Z" fill="#161616"/>
<path d="M256.457 46.6884C252.145 42.9926 242.129 43.3497 236.496 43.5907C240.96 43.7425 255.725 44.0906 256.502 49.5986C256.778 56.0528 239.701 64.9709 234.068 67.9614C233.202 68.4078 232.327 68.8452 231.461 69.2737C231.801 70.2646 232.113 71.2644 232.426 72.2643C239.844 68.2292 247.128 63.8282 253.333 58.0792C256.18 55.3654 260.376 50.2681 256.457 46.6884Z" fill="#161616"/>
</svg>
