<svg width="1994" height="180" viewBox="0 0 1994 180" fill="none" xmlns="http://www.w3.org/2000/svg">
<g clip-path="url(#clip0_2074_3)">
<path d="M89.919 108.669L140.441 37.2687H168.81L150.322 141.5H126.735L138.05 77.75L96.1346 141.5H67.6064L49.9158 77.75L38.6002 141.5H13.5783L32.0658 37.2687H62.0283L85.7752 108.669L86.0939 117.275L89.919 108.669ZM193.088 104.525C192.026 110.687 192.822 115.469 195.479 118.869C198.241 122.162 202.597 123.809 208.547 123.809C214.497 123.809 219.438 122.162 223.369 118.869C227.301 115.469 229.797 110.687 230.86 104.525C231.922 98.4687 231.072 93.7937 228.31 90.5C225.547 87.1 221.191 85.4 215.241 85.4C209.291 85.4 204.351 87.0469 200.419 90.3406C196.594 93.6344 194.151 98.3625 193.088 104.525ZM167.907 104.525C170.138 91.6687 175.822 81.7344 184.96 74.7219C194.204 67.6031 205.572 64.0437 219.066 64.0437C231.71 64.0437 241.591 67.6562 248.71 74.8812C255.829 82.1062 258.272 91.9875 256.041 104.525C253.81 117.381 248.072 127.422 238.829 134.647C229.585 141.766 218.216 145.325 204.722 145.325C191.229 145.325 181.135 141.766 174.441 134.647C167.854 127.422 165.676 117.381 167.907 104.525ZM264.255 102.612L286.887 105.162C288.693 95.0687 293.208 86.8344 300.433 80.4594C307.658 74.0844 316.052 70.8969 325.615 70.8969C335.921 70.8969 343.73 74.5094 349.043 81.7344C354.355 88.9594 356.055 98.15 354.143 109.306C352.23 120.037 346.705 128.75 337.568 135.444C328.537 142.031 317.54 145.325 304.577 145.325C290.446 145.325 279.608 141.394 272.065 133.531C264.627 125.562 262.024 115.256 264.255 102.612ZM288.48 108.669C287.63 113.025 288.958 116.637 292.465 119.506C295.971 122.375 300.646 123.809 306.49 123.809C312.652 123.809 317.752 122.428 321.79 119.666C325.827 116.797 328.271 112.919 329.121 108.031C330.077 103.037 328.962 99.1594 325.774 96.3969C322.693 93.6344 317.858 92.2531 311.271 92.2531C305.108 92.2531 299.955 93.7406 295.812 96.7156C291.774 99.5844 289.33 103.569 288.48 108.669ZM319.718 39.3406C333.743 37.2156 342.508 33.7625 346.015 28.9812L363.705 42.3687C361.155 45.6625 356.162 49.0094 348.724 52.4094C341.287 55.8094 332.308 58.3062 321.79 59.9C313.502 61.0687 307.446 62.875 303.621 65.3187C299.902 67.7625 296.98 71.375 294.855 76.1562L287.205 89.3844L292.465 92.2531C291.19 94.9094 289.968 99.5312 288.799 106.119L264.255 102.612C266.168 91.9875 268.346 83.275 270.79 76.475C273.34 69.675 276.793 63.7781 281.149 58.7844C285.505 53.7906 290.658 49.8594 296.608 46.9906C302.665 44.1219 310.368 41.5719 319.718 39.3406ZM397.348 68.1875L389.858 110.581L432.889 68.1875H461.417L448.348 141.5H423.326L430.976 98.7875L387.786 141.5H359.098L372.167 68.1875H397.348ZM561.104 68.1875L548.194 141.5H523.172L532.097 91.4562H509.626L507.076 105.8C506.013 111.75 504.419 116.903 502.294 121.259C500.276 125.616 497.938 129.069 495.282 131.619C492.732 134.169 489.704 136.241 486.197 137.834C482.797 139.322 479.451 140.331 476.157 140.862C472.863 141.287 469.144 141.5 465.001 141.5H458.944L463.088 117.912H469.144C472.651 117.912 475.466 117.062 477.591 115.362C479.716 113.556 481.31 109.784 482.372 104.047L488.588 68.1875H561.104ZM590.907 118.072H612.422C621.56 118.072 626.341 116.956 626.766 114.725C627.191 112.175 622.676 110.9 613.219 110.9H592.182L590.907 118.072ZM599.832 68.1875L596.326 87.3125H618.957C630.326 87.3125 638.985 89.7562 644.935 94.6438C650.991 99.5312 653.276 106.278 651.788 114.884C650.301 123.384 645.944 129.972 638.719 134.647C631.494 139.216 621.932 141.5 610.032 141.5H561.741L574.81 68.1875H599.832ZM670.84 68.1875H695.861L691.24 93.6875H725.824L730.446 68.1875H755.627L742.558 141.5H717.377L721.68 117.116H687.096L682.793 141.5H657.771L670.84 68.1875ZM782.906 117.912C782.588 119.825 783.278 121.259 784.978 122.216C786.784 123.172 789.281 123.65 792.469 123.65C798.419 123.65 803.359 122.747 807.291 120.941C811.328 119.028 813.613 116.584 814.144 113.609H817.809C816.109 123.172 811.647 130.875 804.422 136.719C797.197 142.456 788.484 145.325 778.284 145.325C770.953 145.325 765.216 143.306 761.072 139.269C757.034 135.125 755.6 129.866 756.769 123.491C757.938 117.116 760.913 112.069 765.694 108.35C770.475 104.525 777.222 101.762 785.934 100.062L817.65 93.6875L814.941 108.828L792.309 113.45C786.359 114.725 783.225 116.212 782.906 117.912ZM834.384 141.5H809.203L818.766 123.969L812.869 120.781L817.809 93.05C818.128 90.925 817.066 89.225 814.622 87.95C812.178 86.675 808.778 86.0375 804.422 86.0375C799.853 86.0375 795.975 86.9937 792.788 88.9062C789.6 90.8187 787.475 93.3156 786.413 96.3969L762.188 93.2094C765.163 84.8156 770.794 77.9094 779.081 72.4906C787.369 67.0719 797.197 64.3625 808.566 64.3625C820.147 64.3625 829.125 66.9656 835.5 72.1719C841.981 77.3781 844.584 83.7531 843.309 91.2969L834.384 141.5ZM848.6 141.5L872.825 108.987H899.919L876.012 141.5H848.6ZM913.784 91.6156H889.878C883.503 91.6156 880.209 92.4656 879.997 94.1656C879.572 96.1844 882.759 97.1937 889.559 97.1937H912.828L913.784 91.6156ZM905.019 141.5L908.684 120.781H886.053C875.003 120.781 866.503 118.444 860.553 113.769C854.709 108.987 852.531 102.453 854.019 94.1656C855.506 85.8781 859.756 79.5031 866.769 75.0406C873.781 70.4719 883.078 68.1875 894.659 68.1875H943.747L930.837 141.5H905.019ZM1022.71 105.003C1021.65 111.166 1022.6 115.947 1025.58 119.347C1028.66 122.641 1033.39 124.287 1039.76 124.287C1046.25 124.287 1051.56 122.641 1055.7 119.347C1059.95 115.947 1062.61 111.166 1063.67 105.003C1064.73 98.8406 1063.78 94.1125 1060.8 90.8187C1057.83 87.525 1053.1 85.8781 1046.62 85.8781C1040.14 85.8781 1034.77 87.525 1030.52 90.8187C1026.38 94.1125 1023.77 98.8406 1022.71 105.003ZM1018.25 105.003C1020.48 92.0406 1025.1 82.0531 1032.11 75.0406C1039.23 67.9219 1048.05 64.3625 1058.57 64.3625C1069.62 64.3625 1077.96 67.975 1083.59 75.2C1089.33 82.3187 1091.08 92.0937 1088.85 104.525C1086.62 117.487 1081.2 127.581 1072.6 134.806C1063.99 142.031 1054.27 145.644 1043.43 145.644C1033.23 145.644 1025.9 142.137 1021.44 135.125C1016.97 128.006 1015.91 117.966 1018.25 105.003ZM985.577 172.897L1004.06 68.1875H1029.25L1019.68 86.3562L1025.58 88.9062L1019.84 120.781L1012.99 123.331L1016.18 141.5L1010.76 172.897H985.577ZM1119.71 117.912C1119.39 119.825 1120.08 121.259 1121.78 122.216C1123.59 123.172 1126.09 123.65 1129.27 123.65C1135.22 123.65 1140.16 122.747 1144.09 120.941C1148.13 119.028 1150.42 116.584 1150.95 113.609H1154.61C1152.91 123.172 1148.45 130.875 1141.23 136.719C1134 142.456 1125.29 145.325 1115.09 145.325C1107.76 145.325 1102.02 143.306 1097.88 139.269C1093.84 135.125 1092.4 129.866 1093.57 123.491C1094.74 117.116 1097.72 112.069 1102.5 108.35C1107.28 104.525 1114.03 101.762 1122.74 100.062L1154.45 93.6875L1151.74 108.828L1129.11 113.45C1123.16 114.725 1120.03 116.212 1119.71 117.912ZM1171.19 141.5H1146.01L1155.57 123.969L1149.67 120.781L1154.61 93.05C1154.93 90.925 1153.87 89.225 1151.43 87.95C1148.98 86.675 1145.58 86.0375 1141.23 86.0375C1136.66 86.0375 1132.78 86.9937 1129.59 88.9062C1126.4 90.8187 1124.28 93.3156 1123.22 96.3969L1098.99 93.2094C1101.97 84.8156 1107.6 77.9094 1115.89 72.4906C1124.17 67.0719 1134 64.3625 1145.37 64.3625C1156.95 64.3625 1165.93 66.9656 1172.3 72.1719C1178.79 77.3781 1181.39 83.7531 1180.11 91.2969L1171.19 141.5ZM1252.18 103.409L1251.86 105.322C1257.71 105.959 1262.06 107.659 1264.93 110.422C1267.8 113.184 1268.86 116.637 1268.12 120.781C1266.84 128.112 1262.01 134.116 1253.62 138.791C1245.22 143.359 1235.02 145.644 1223.02 145.644C1211.54 145.644 1202.62 143.519 1196.24 139.269C1189.87 134.912 1186.36 128.644 1185.72 120.463L1211.22 117.434C1212.39 122.853 1217.33 125.562 1226.04 125.562C1230.93 125.562 1234.92 124.978 1238 123.809C1241.19 122.641 1242.94 121.1 1243.26 119.187C1243.47 117.806 1242.51 116.691 1240.39 115.841C1238.37 114.991 1235.45 114.566 1231.62 114.566H1213.77L1217.28 94.325H1235.13C1243.42 94.325 1247.72 93.4219 1248.04 91.6156C1248.36 89.9156 1247.19 88.5875 1244.53 87.6312C1241.88 86.5687 1238.1 86.0375 1233.22 86.0375C1224.29 86.0375 1218.5 87.7906 1215.84 91.2969L1191.46 88.1094C1194.97 80.2469 1200.6 74.2969 1208.35 70.2594C1216.22 66.2219 1225.94 64.2031 1237.52 64.2031C1249.53 64.2031 1258.93 66.3281 1265.73 70.5781C1272.53 74.7219 1275.34 80.0875 1274.18 86.675C1273.33 91.1375 1270.94 94.9094 1267 97.9906C1263.18 100.966 1258.24 102.772 1252.18 103.409ZM1306.91 105.003C1305.85 111.166 1306.8 115.947 1309.78 119.347C1312.86 122.641 1317.59 124.287 1323.96 124.287C1330.44 124.287 1335.76 122.641 1339.9 119.347C1344.15 115.947 1346.81 111.166 1347.87 105.003C1348.93 98.8406 1347.97 94.1125 1345 90.8187C1342.02 87.525 1337.3 85.8781 1330.82 85.8781C1324.33 85.8781 1318.97 87.525 1314.72 90.8187C1310.57 94.1125 1307.97 98.8406 1306.91 105.003ZM1302.45 105.003C1304.68 92.0406 1309.3 82.0531 1316.31 75.0406C1323.43 67.9219 1332.25 64.3625 1342.77 64.3625C1353.82 64.3625 1362.16 67.975 1367.79 75.2C1373.53 82.3187 1375.28 92.0937 1373.05 104.525C1370.82 117.487 1365.4 127.581 1356.79 134.806C1348.19 142.031 1338.47 145.644 1327.63 145.644C1317.43 145.644 1310.1 142.137 1305.63 135.125C1301.17 128.006 1300.11 117.966 1302.45 105.003ZM1269.77 172.897L1288.26 68.1875H1313.44L1303.88 86.3562L1309.78 88.9062L1304.04 120.781L1297.19 123.331L1300.37 141.5L1294.96 172.897H1269.77ZM1403.91 117.912C1403.59 119.825 1404.28 121.259 1405.98 122.216C1407.79 123.172 1410.28 123.65 1413.47 123.65C1419.42 123.65 1424.36 122.747 1428.29 120.941C1432.33 119.028 1434.61 116.584 1435.15 113.609H1438.81C1437.11 123.172 1432.65 130.875 1425.42 136.719C1418.2 142.456 1409.49 145.325 1399.29 145.325C1391.96 145.325 1386.22 143.306 1382.07 139.269C1378.04 135.125 1376.6 129.866 1377.77 123.491C1378.94 117.116 1381.91 112.069 1386.7 108.35C1391.48 104.525 1398.22 101.762 1406.94 100.062L1438.65 93.6875L1435.94 108.828L1413.31 113.45C1407.36 114.725 1404.23 116.212 1403.91 117.912ZM1455.39 141.5H1430.21L1439.77 123.969L1433.87 120.781L1438.81 93.05C1439.13 90.925 1438.07 89.225 1435.62 87.95C1433.18 86.675 1429.78 86.0375 1425.42 86.0375C1420.86 86.0375 1416.98 86.9937 1413.79 88.9062C1410.6 90.8187 1408.48 93.3156 1407.41 96.3969L1383.19 93.2094C1386.16 84.8156 1391.8 77.9094 1400.08 72.4906C1408.37 67.0719 1418.2 64.3625 1429.57 64.3625C1441.15 64.3625 1450.13 66.9656 1456.5 72.1719C1462.98 77.3781 1465.59 83.7531 1464.31 91.2969L1455.39 141.5ZM1473.11 102.612L1495.74 105.162C1497.55 95.0687 1502.06 86.8344 1509.29 80.4594C1516.51 74.0844 1524.91 70.8969 1534.47 70.8969C1544.77 70.8969 1552.58 74.5094 1557.9 81.7344C1563.21 88.9594 1564.91 98.15 1563 109.306C1561.08 120.037 1555.56 128.75 1546.42 135.444C1537.39 142.031 1526.39 145.325 1513.43 145.325C1499.3 145.325 1488.46 141.394 1480.92 133.531C1473.48 125.562 1470.88 115.256 1473.11 102.612ZM1497.33 108.669C1496.48 113.025 1497.81 116.637 1501.32 119.506C1504.82 122.375 1509.5 123.809 1515.34 123.809C1521.51 123.809 1526.61 122.428 1530.64 119.666C1534.68 116.797 1537.12 112.919 1537.97 108.031C1538.93 103.037 1537.81 99.1594 1534.63 96.3969C1531.55 93.6344 1526.71 92.2531 1520.12 92.2531C1513.96 92.2531 1508.81 93.7406 1504.66 96.7156C1500.63 99.5844 1498.18 103.569 1497.33 108.669ZM1528.57 39.3406C1542.6 37.2156 1551.36 33.7625 1554.87 28.9812L1572.56 42.3687C1570.01 45.6625 1565.01 49.0094 1557.58 52.4094C1550.14 55.8094 1541.16 58.3062 1530.64 59.9C1522.36 61.0687 1516.3 62.875 1512.47 65.3187C1508.76 67.7625 1505.83 71.375 1503.71 76.1562L1496.06 89.3844L1501.32 92.2531C1500.04 94.9094 1498.82 99.5312 1497.65 106.119L1473.11 102.612C1475.02 91.9875 1477.2 83.275 1479.64 76.475C1482.19 69.675 1485.65 63.7781 1490 58.7844C1494.36 53.7906 1499.51 49.8594 1505.46 46.9906C1511.52 44.1219 1519.22 41.5719 1528.57 39.3406ZM1596.96 104.525C1595.9 110.687 1596.69 115.469 1599.35 118.869C1602.11 122.162 1606.47 123.809 1612.42 123.809C1618.37 123.809 1623.31 122.162 1627.24 118.869C1631.17 115.469 1633.67 110.687 1634.73 104.525C1635.79 98.4687 1634.94 93.7937 1632.18 90.5C1629.42 87.1 1625.06 85.4 1619.11 85.4C1613.16 85.4 1608.22 87.0469 1604.29 90.3406C1600.46 93.6344 1598.02 98.3625 1596.96 104.525ZM1571.78 104.525C1574.01 91.6687 1579.69 81.7344 1588.83 74.7219C1598.07 67.6031 1609.44 64.0437 1622.94 64.0437C1635.58 64.0437 1645.46 67.6562 1652.58 74.8812C1659.7 82.1062 1662.14 91.9875 1659.91 104.525C1657.68 117.381 1651.94 127.422 1642.7 134.647C1633.45 141.766 1622.09 145.325 1608.59 145.325C1595.1 145.325 1585 141.766 1578.31 134.647C1571.72 127.422 1569.55 117.381 1571.78 104.525ZM1674.98 68.1875H1757.22L1753.07 91.4562H1724.38L1715.62 141.5H1690.44L1699.2 91.4562H1670.83L1674.98 68.1875ZM1768.88 68.1875H1793.9L1788.32 98.9469L1829.44 68.1875H1860.68L1821.63 100.062L1847.61 141.5H1817.33L1799.96 113.291L1783.7 125.403L1780.83 141.5H1755.81L1768.88 68.1875ZM1883.75 117.912C1883.43 119.825 1884.12 121.259 1885.82 122.216C1887.62 123.172 1890.12 123.65 1893.31 123.65C1899.26 123.65 1904.2 122.747 1908.13 120.941C1912.17 119.028 1914.45 116.584 1914.98 113.609H1918.65C1916.95 123.172 1912.49 130.875 1905.26 136.719C1898.04 142.456 1889.32 145.325 1879.12 145.325C1871.79 145.325 1866.05 143.306 1861.91 139.269C1857.87 135.125 1856.44 129.866 1857.61 123.491C1858.78 117.116 1861.75 112.069 1866.53 108.35C1871.31 104.525 1878.06 101.762 1886.77 100.062L1918.49 93.6875L1915.78 108.828L1893.15 113.45C1887.2 114.725 1884.06 116.212 1883.75 117.912ZM1935.22 141.5H1910.04L1919.6 123.969L1913.71 120.781L1918.65 93.05C1918.97 90.925 1917.9 89.225 1915.46 87.95C1913.02 86.675 1909.62 86.0375 1905.26 86.0375C1900.69 86.0375 1896.81 86.9937 1893.63 88.9062C1890.44 90.8187 1888.31 93.3156 1887.25 96.3969L1863.03 93.2094C1866 84.8156 1871.63 77.9094 1879.92 72.4906C1888.21 67.0719 1898.04 64.3625 1909.4 64.3625C1920.99 64.3625 1929.96 66.9656 1936.34 72.1719C1942.82 77.3781 1945.42 83.7531 1944.15 91.2969L1935.22 141.5Z" fill="black"/>
</g>
<defs>
<clipPath id="clip0_2074_3">
<rect width="1994" height="180" fill="white"/>
</clipPath>
</defs>
</svg>
