<svg width="44" height="34" viewBox="0 0 44 34" fill="none" xmlns="http://www.w3.org/2000/svg">
<path d="M27.9199 15.98C23.4299 17.47 18.87 18.76 14.25 19.8C11.74 20.34 9.20014 20.87 6.64014 21.15C6.69014 21.36 6.75006 21.58 6.81006 21.79C7.03006 21.77 7.2201 21.75 7.3501 21.74C9.7201 21.5 12.0802 21.08 14.4102 20.59C19.0702 19.6 23.6599 18.3 28.1699 16.75C31.5399 15.57 34.8798 14.26 38.0698 12.64C38.4298 12.45 38.7801 12.26 39.1401 12.07C39.0901 11.9 39.04 11.74 38.98 11.57C35.44 13.35 31.6899 14.71 27.9199 15.98Z" fill="#F22D7A"/>
<path d="M39.1602 12.08C38.8102 12.27 38.4599 12.45 38.1099 12.64C34.9199 14.26 31.58 15.57 28.21 16.75C27.09 17.14 25.9701 17.51 24.8501 17.86C27.7501 17.16 29.25 17.84 30.02 18.87C32.01 22.15 28.4899 24.63 27.4399 25.22C26.1599 25.9 24.6999 26.28 23.1499 26.28C19.2999 26.28 16.0001 23.91 14.6401 20.55C14.5801 20.56 14.52 20.58 14.46 20.59C12.13 21.08 9.7699 21.49 7.3999 21.74C7.2699 21.75 7.07986 21.77 6.85986 21.79C6.79986 21.58 6.73994 21.37 6.68994 21.15C9.24994 20.87 11.7798 20.34 14.2998 19.8C17.1698 19.16 20.0101 18.41 22.8301 17.59C21.2201 17.88 19.9499 17.91 18.9399 17.75C18.8099 17.72 18.6602 17.69 18.4902 17.65C15.6602 17.1 15.3498 14.21 15.3198 13.83C15.3098 13.68 15.3198 13.53 15.3198 13.39C15.3798 12.41 15.8 11.61 16.27 11.02C17.95 9.12 20.4102 7.91 23.1602 7.91C27.3602 7.91 30.8902 10.72 31.9902 14.57C34.3802 13.69 36.74 12.72 39.02 11.59C36.77 4.92 30.4598 0.119995 23.0298 0.119995C13.7098 0.119995 6.1499 7.68 6.1499 17C6.1499 26.32 13.7098 33.88 23.0298 33.88C32.3498 33.88 39.9102 26.32 39.9102 17C39.8802 15.28 39.6302 13.63 39.1602 12.08Z" fill="#F22D7A"/>
<path d="M3.77011 21.34C3.48011 21.34 3.19 21.33 2.9 21.31C2.48 21.28 2.06025 21.23 1.66025 21.08C1.45025 21 1.21023 20.88 1.14023 20.67C0.940232 19.85 2.97023 18.51 3.64023 18.07C4.45023 17.55 5.27998 17.08 6.12998 16.62C6.12998 16.6 6.12998 16.58 6.12998 16.57C4.35998 17.36 1.3001 18.85 0.750095 20.23C0.100096 22.26 4.89015 21.96 6.81015 21.79C6.75015 21.58 6.69023 21.37 6.64023 21.15C5.69023 21.25 4.73011 21.32 3.77011 21.34Z" fill="#F22D7A"/>
<path d="M43.1299 7.84001C42.4199 7.23001 40.7601 7.29002 39.8301 7.33002C40.5701 7.36002 43.0101 7.41002 43.1401 8.32002C43.1901 9.39002 40.3602 10.86 39.4302 11.36C39.2902 11.43 39.14 11.51 39 11.58C39.06 11.74 39.1102 11.91 39.1602 12.08C40.3902 11.41 41.5901 10.68 42.6201 9.73001C43.0801 9.27001 43.7799 8.43001 43.1299 7.84001Z" fill="#F22D7A"/>
</svg>
