<svg width="480" height="35" viewBox="0 0 480 35" fill="none" xmlns="http://www.w3.org/2000/svg">
<g clip-path="url(#clip0_2001_2)">
<path d="M451.456 29.9352C449.222 33.0259 446.246 32.1757 443.51 30.4254C443.46 30.3953 443.409 30.3553 443.369 30.3253C427.105 16.5525 408.345 3.69991 391.329 17.9228C385.817 22.3737 380.306 28.6049 374.042 27.2646C366.055 25.4943 359.311 19.303 351.334 16.6125C351.274 16.5925 351.204 16.5726 351.144 16.5626C349.16 16.1625 346.945 17.0225 344.981 16.5825C321.681 9.46101 300.136 29.045 278.089 24.144C256.574 19.2531 233.555 4.14997 213.001 21.3635C212.951 21.4035 212.901 21.4434 212.841 21.4734C211.097 22.5137 209.384 23.4539 207.66 24.254C202.429 26.7045 197.168 27.9247 191.656 25.4742C170.611 16.1323 150.569 9.45111 129.775 21.9136C114.743 30.8154 99.7111 16.1324 84.4288 17.0226C74.4075 17.4627 64.8874 26.3645 54.3651 23.6939C37.1887 19.333 1.06231 15.9225 0 16C-0.0623096 14.5775 -0.000138866 15.8023 -0.000138866 15.1921V-9.06274C-0.000138866 -12.1234 -0.000138866 -15.404 -0.000138866 -18.8747C-0.000138866 -133.368 -0.000138866 -843.002 -0.000138866 -843.002H480.999C480.999 -843.002 480.999 -171.816 480.999 -41.9094C480.999 -37.7186 480.999 -33.6976 480.999 -29.8469V16.2105C473.999 15.2105 459.464 20.7863 451.456 29.9352Z" fill="#F22D7A"/>
</g>
<defs>
<clipPath id="clip0_2001_2">
<rect width="480" height="35" fill="white"/>
</clipPath>
</defs>
</svg>
