<svg width="480" height="35" viewBox="0 0 480 35" fill="none" xmlns="http://www.w3.org/2000/svg">
<path d="M478.419 24.5135C478.409 24.5135 478.389 24.5035 478.379 24.5035C478.319 24.4835 478.269 24.4634 478.209 24.4434C476.439 23.5833 474.659 22.9432 472.879 22.4831C472.839 22.4731 472.799 22.453 472.749 22.443C464.729 19.1724 457.498 24.9437 450.518 32.9352C448.288 36.0259 445.318 35.1757 442.588 33.4254C442.538 33.3953 442.488 33.3552 442.448 33.3253C426.217 19.5524 407.496 6.69995 390.516 20.9228C385.015 25.3737 379.515 31.6049 373.265 30.2646C365.295 28.4943 358.564 22.303 350.604 19.6125C350.544 19.5925 350.474 19.5726 350.414 19.5626C348.434 19.1625 346.224 20.0225 344.264 19.5825C321.013 12.461 299.512 32.045 277.511 27.144C256.04 22.2531 233.069 7.14996 212.559 24.3635C212.509 24.4034 212.458 24.4435 212.398 24.4734C210.658 25.5137 208.948 26.4539 207.228 27.254C202.008 29.7045 196.758 30.9247 191.258 28.4742C170.257 19.1324 150.256 12.4511 129.505 24.9136C114.505 33.8154 99.504 19.1324 84.2534 20.0226C74.253 20.4627 64.7526 29.3644 54.2522 26.6939C37.1115 22.333 17.8208 21.953 1.0601 19.4225C0.450077 19.3325 0 18.8023 0 18.1921V-6.06274C0 -9.12341 0 -12.404 0 -15.8747C0 -130.368 0 -840.002 0 -840.002H479.999C479.999 -840.002 479.999 -168.816 479.999 -38.9094C479.999 -34.7186 479.999 -30.6977 479.999 -26.8469V23.3232C480.029 24.1634 479.209 24.7635 478.419 24.5135Z" fill="#F22D7A"/>
</svg>
