<svg width="1921" height="62" viewBox="0 0 1921 62" fill="none" xmlns="http://www.w3.org/2000/svg">
<path d="M1920.75 39.2574C1914.47 38.8449 1919.76 38.8449 1913.79 37.8511C1906.53 35.8449 1899.22 34.3634 1891.91 33.3322C1859.74 25.851 1830.74 38.8446 1802.74 56.8443C1793.74 63.8379 1781.74 61.8501 1770.74 57.8376C1705.74 26.8445 1630.75 -2.14194 1562.75 29.845C1540.75 39.8386 1518.75 53.844 1493.74 50.8441C1461.75 46.8504 1434.74 32.8447 1402.74 26.8449C1394.73 25.8511 1385.75 27.8386 1377.74 26.8449C1284.75 10.8514 1198.74 54.8382 1110.74 43.8322C1024.74 32.8261 932.749 -1.14876 850.619 37.7193C843.548 40.1005 836.571 42.2565 829.612 44.094C808.737 49.5876 787.731 52.3442 765.731 46.8506C681.725 25.851 601.733 10.87 518.74 38.8445C458.741 58.8316 398.742 25.8512 337.749 27.8574C297.744 28.8511 259.745 48.857 217.752 42.8571C147.756 32.8636 68.7584 32.17 0.750977 26.1701V-30.717C0.750977 -37.5981 0.750977 -44.948 0.750977 -52.7478C0.750977 -309.937 0.750977 -1044.77 0.750977 -1044.77H1920.73C1920.73 -1044.77 1920.73 -396.298 1920.73 -104.497C1920.73 -95.0848 1920.73 -86.047 1920.73 -77.4035V39.2574H1920.75Z" fill="#F22D7A"/>
</svg>
