<svg width="1920" height="128" viewBox="0 0 1920 128" fill="none" xmlns="http://www.w3.org/2000/svg">
<g clip-path="url(#clip0_2002_9)">
<path d="M1919.98 84.5C1907.98 85.5 1904.51 93.7452 1891.15 91.8619C1858.97 84.3825 1829.97 97.3732 1801.96 115.369C1792.95 122.361 1780.95 120.373 1769.95 116.362C1704.93 85.3756 1629.93 56.3958 1561.9 88.3755C1539.9 98.3668 1517.89 112.369 1492.88 109.37C1460.88 105.377 1433.86 91.3746 1401.86 85.3761C1393.85 84.3826 1384.86 86.3696 1376.85 85.3761C1283.84 69.3863 1197.8 113.363 1109.78 102.359C1023.76 91.3559 931.741 57.3888 849.589 96.248C842.516 98.6287 835.537 100.784 828.577 102.621C807.697 108.114 786.685 110.87 764.679 105.377C680.651 84.3824 600.639 69.4048 517.624 97.3729C457.609 117.356 397.595 84.3827 336.586 86.3884C296.57 87.3819 258.562 107.383 216.557 101.385C146.543 91.3935 71.0187 84 -0.499878 84V27.8273C-0.499878 20.9477 -0.499878 13.5995 -0.499878 5.80139C-0.499878 -251.33 -0.499878 -986 -0.499878 -986H1919.98C1919.98 -986 1919.98 -337.671 1919.98 -45.9362C1919.98 -36.526 1919.98 -27.4903 1919.98 -18.8487V79V84.5Z" fill="#F22D7A"/>
</g>
<defs>
<clipPath id="clip0_2002_9">
<rect width="1920" height="128" fill="white"/>
</clipPath>
</defs>
</svg>
