<svg width="76" height="58" viewBox="0 0 76 58" fill="none" xmlns="http://www.w3.org/2000/svg">
<path d="M30.3596 48.286C30.3596 48.286 22.1846 61.2792 1.69081 56.6667C1.69081 56.6667 -4.25302 55.7295 9.11574 43.767L14.4404 42.1172L19.5784 44.2165L30.3596 48.286Z" fill="#932BBC"/>
<path d="M30.3596 9.97369C30.3596 9.97369 22.1846 -3.02046 1.69081 1.59204C1.69081 1.59204 -4.25302 2.53023 9.11574 14.4927L14.4404 16.1425L19.5784 14.0615L30.3596 9.97369Z" fill="#932BBC"/>
<path d="M60.3394 41.3419C60.3394 41.3419 75.6772 31.8729 75.6772 28.9292C75.6772 25.9854 60.3394 16.9102 60.3394 16.9102V41.3419Z" fill="#932BBC"/>
<path d="M60.5646 41.2067L60.3586 29.0192L60.5646 17.0377C37.1833 2.65641 13.5962 14.281 13.5962 14.281V29.0375V29.1876V43.9441C13.5962 43.9628 37.1833 55.5879 60.5646 41.2067Z" fill="#932BBC"/>
<path d="M1.896 41.6006V16.4373C1.896 15.2561 2.85206 14.2812 4.05206 14.2812H13.5964V43.7567H4.05206C2.87081 43.7567 1.896 42.8006 1.896 41.6006Z" fill="#932BBC"/>
<path d="M39.8467 37.8731C44.6723 37.8731 48.5836 33.9609 48.5836 29.1353C48.5836 24.3097 44.6723 20.3984 39.8467 20.3984C35.0211 20.3984 31.1089 24.3097 31.1089 29.1353C31.1089 33.9609 35.0211 37.8731 39.8467 37.8731Z" fill="#932BBC"/>
<path d="M39.847 33.6412C42.3323 33.6412 44.3468 31.6257 44.3468 29.1404C44.3468 26.6552 42.3323 24.6406 39.847 24.6406C37.3617 24.6406 35.3472 26.6552 35.3472 29.1404C35.3472 31.6257 37.3617 33.6412 39.847 33.6412Z" fill="#932BBC"/>
</svg>
