<svg width="110" height="181" viewBox="0 0 110 181" fill="none" xmlns="http://www.w3.org/2000/svg">
<path d="M90.5602 87.5995L90.5103 88.1652L90.9886 88.4714C91.1731 88.5895 97.2208 92.5147 102.142 101.185C107.051 109.831 110.877 123.26 106.559 142.48L106.552 142.51L106.549 142.532L106.548 142.534L106.548 142.536C106.547 142.543 106.544 142.558 106.538 142.58C106.528 142.625 106.509 142.696 106.478 142.784C106.417 142.962 106.313 143.195 106.148 143.421C105.846 143.835 105.297 144.294 104.176 144.262C102.981 144.228 101.075 143.631 98.1609 141.634C95.2625 139.648 91.4491 136.332 86.4556 131.003C85.4108 129.887 84.5186 128.641 83.7999 127.3L82.0362 127.742L82.028 138.129C82.0269 139.895 80.5989 141.321 78.8452 141.32L30.7348 141.28C28.9818 141.279 27.5563 139.851 27.5573 138.084L27.5655 128.395L27.5684 124.985L25.8227 127.915C25.1736 129.004 24.4083 130.022 23.5358 130.951C18.5339 136.272 14.7152 139.581 11.8137 141.563C8.89685 143.556 6.98977 144.149 5.79384 144.181C4.67347 144.211 4.125 143.751 3.82328 143.336C3.65888 143.111 3.55567 142.878 3.49418 142.699C3.46391 142.611 3.44512 142.54 3.43462 142.496C3.4294 142.474 3.42631 142.458 3.42494 142.451C3.42468 142.45 3.42472 142.45 3.42458 142.45C3.42435 142.448 3.42404 142.446 3.42412 142.447L3.42087 142.426L3.41421 142.396C-0.851644 123.259 2.94167 109.872 7.83061 101.23C12.7328 92.5646 18.7749 88.6048 19.0693 88.4154L19.5448 88.1093L19.4959 87.546C18.0961 71.4183 20.1369 50.9979 32.4893 30.633H32.5121L32.7851 30.1772C33.8801 28.3492 38.2481 21.1342 42.9889 14.383C45.3615 11.0042 47.8101 7.76665 49.9772 5.3827C51.0625 4.18879 52.0543 3.23463 52.9119 2.58632C53.8096 1.90776 54.4076 1.68334 54.7339 1.68359C55.0629 1.68385 55.671 1.91201 56.5873 2.59423C57.4623 3.24575 58.4779 4.20329 59.5918 5.39975C61.816 7.78889 64.3415 11.0318 66.7937 14.415C71.6936 21.175 76.2318 28.398 77.3689 30.2273L77.644 30.6699H77.6516C89.9701 51.0532 91.9814 71.4747 90.5602 87.5995Z" fill="url(#paint0_linear_433_4374)" stroke="black" stroke-width="1.875"/>
<path d="M72.6406 143.167C72.6345 143.225 72.628 143.285 72.6211 143.347C72.5362 144.116 72.3957 145.229 72.1738 146.598C71.7296 149.337 70.9609 153.09 69.6642 157.145C67.1066 165.144 62.552 174.14 54.5609 179.002C46.5777 174.127 42.0377 165.123 39.493 157.12C38.2028 153.063 37.4402 149.309 37.0005 146.569C36.7808 145.199 36.642 144.086 36.5584 143.317C36.5516 143.255 36.5453 143.195 36.5392 143.138L54.4037 143.152L54.4064 143.152L54.7707 143.153L54.7734 143.153L72.6406 143.167Z" fill="url(#paint1_linear_433_4374)" stroke="black" stroke-width="1.875"/>
<path d="M70.8235 69.5678C70.8235 78.1285 63.6454 85.1199 54.7262 85.1199C45.8069 85.1199 38.6289 78.1285 38.6289 69.5678C38.6289 61.0071 45.8069 54.0156 54.7262 54.0156C63.6454 54.0156 70.8235 61.0071 70.8235 69.5678Z" fill="white" stroke="black" stroke-width="1.875"/>
<defs>
<linearGradient id="paint0_linear_433_4374" x1="55.0007" y1="-0.466845" x2="55.0007" y2="175.9" gradientUnits="userSpaceOnUse">
<stop stop-color="#F22D7A"/>
<stop offset="0.8836" stop-color="#9E2BB4"/>
<stop offset="1" stop-color="#932BBC"/>
</linearGradient>
<linearGradient id="paint1_linear_433_4374" x1="54.5911" y1="-0.325329" x2="54.5911" y2="175.839" gradientUnits="userSpaceOnUse">
<stop stop-color="#F22D7A"/>
<stop offset="0.8836" stop-color="#9E2BB4"/>
<stop offset="1" stop-color="#932BBC"/>
</linearGradient>
</defs>
</svg>
