<svg width="110" height="179" viewBox="0 0 110 179" fill="none" xmlns="http://www.w3.org/2000/svg">
<path d="M106.583 141.784L106.589 141.754C110.885 122.114 106.988 108.453 102.079 99.7221C99.6195 95.3474 96.8962 92.1939 94.7946 90.1387C93.744 89.1113 92.8497 88.3592 92.2229 87.8672C92.2217 87.8663 92.2206 87.8653 92.2194 87.8644L84.9738 107.593L84.9697 107.604L84.9653 107.615L83.4579 111.417L83.4579 111.417C81.9613 115.191 81.7811 119.384 82.9488 123.28L106.583 141.784ZM106.583 141.784L106.58 141.805M106.583 141.784L106.58 141.805M106.58 141.805L106.58 141.805M106.58 141.805L106.58 141.805M106.58 141.805L106.579 141.807M106.58 141.805L106.579 141.807M106.579 141.807C106.579 141.807 106.579 141.808 106.579 141.81C106.577 141.817 106.574 141.833 106.569 141.856C106.558 141.902 106.539 141.974 106.509 142.064C106.448 142.246 106.345 142.483 106.182 142.712C105.883 143.134 105.348 143.589 104.262 143.557C103.096 143.523 101.227 142.925 98.3594 140.907C95.5085 138.9 91.7565 135.551 86.8428 130.165L86.8427 130.165M106.579 141.807L86.8427 130.165M86.8427 130.165C85.0549 128.207 83.7208 125.853 82.9488 123.28L86.8427 130.165Z" fill="#E3E3E3" stroke="black" stroke-width="1.875"/>
<path d="M18.9036 87.8681C18.9439 87.8395 18.9832 87.8117 19.0215 87.7849L26.7429 106.965L26.7477 106.977L26.7527 106.989L28.3529 110.672L28.3529 110.672C29.933 114.307 30.115 118.338 28.8725 122.084C28.0518 124.558 26.6298 126.829 24.7196 128.724C19.4717 133.929 15.4635 137.167 12.4153 139.109C9.35412 141.058 7.33596 141.65 6.05096 141.682C4.83036 141.713 4.23766 141.241 3.92421 140.839C3.75336 140.62 3.64725 140.396 3.58462 140.227C3.55371 140.143 3.5347 140.076 3.52423 140.035C3.51902 140.014 3.51603 140 3.5148 139.994C3.51475 139.994 3.5147 139.994 3.51466 139.994L3.51064 139.969L3.50305 139.938C-1.037 120.948 3.13336 107.758 8.37327 99.328C11.0005 95.1012 13.9082 92.0535 16.1543 90.0656C17.277 89.072 18.2329 88.3445 18.9036 87.8681Z" fill="#E3E3E3" stroke="black" stroke-width="1.875"/>
<path d="M77.6636 29.1823L32.301 29.1472C32.8016 28.34 33.4983 27.2267 34.3412 25.9054C36.129 23.1032 38.5717 19.3702 41.1955 15.6401C43.823 11.9047 46.6161 8.19512 49.1057 5.42799C50.3524 4.04232 51.5003 2.9186 52.4953 2.14882C53.5358 1.34381 54.2437 1.05831 54.6406 1.05859C55.0406 1.05888 55.7605 1.34857 56.8227 2.15729C57.8382 2.9304 59.0145 4.05764 60.295 5.44596C62.8521 8.21853 65.7351 11.9339 68.4525 15.6737C71.1663 19.4086 73.6991 23.146 75.5545 25.9513C76.424 27.2662 77.1442 28.3753 77.6636 29.1823Z" fill="#E3E3E3" stroke="black" stroke-width="1.875"/>
<path d="M83.245 117.308L55.1233 117.285H55.1225H54.8207H54.82L26.6987 117.263C26.5445 116.93 26.3238 116.44 26.0531 115.803C25.4983 114.5 24.7339 112.581 23.9022 110.137C22.2383 105.248 20.3073 98.2629 19.244 89.8911C17.1317 73.2606 18.4451 51.1891 32.0479 29.184L78.0262 29.2201C91.593 51.2471 92.8737 73.3206 90.7377 89.9478C89.6624 98.3179 87.7217 105.3 86.0511 110.187C85.2161 112.629 84.4491 114.547 83.8926 115.85C83.621 116.486 83.3996 116.975 83.245 117.308Z" fill="#E3E3E3" stroke="black" stroke-width="1.875"/>
<path d="M80.7343 139.809H80.7339L31.1187 139.769H31.1185C29.2677 139.768 27.8104 138.311 27.8125 136.568L27.8125 136.568L27.8272 119.184L84.0617 119.228L84.047 136.611C84.0449 138.356 82.5843 139.811 80.7343 139.809ZM80.7332 140.746L31.1179 140.706L80.7332 140.746Z" fill="#E3E3E3" stroke="black" stroke-width="1.875"/>
<path d="M70.9375 68.5586C70.9375 76.7931 63.8532 83.5586 55 83.5586C46.1467 83.5586 39.0625 76.7931 39.0625 68.5586C39.0625 60.3241 46.1467 53.5586 55 53.5586C63.8532 53.5586 70.9375 60.3241 70.9375 68.5586Z" fill="white" stroke="black" stroke-width="1.875"/>
<path d="M54.8189 141.698H54.8197H55.1813H55.1817L72.7215 141.714C72.7158 141.768 72.7098 141.824 72.7034 141.882C72.62 142.643 72.4819 143.745 72.2638 145.099C71.8273 147.811 71.072 151.525 69.7977 155.539C67.2851 163.453 62.8127 172.35 54.9707 177.161C47.1366 172.337 42.6785 163.432 40.1787 155.514C38.9108 151.498 38.1614 147.783 37.7292 145.071C37.5133 143.715 37.377 142.613 37.2948 141.852C37.2885 141.794 37.2826 141.738 37.277 141.684L54.8189 141.698Z" fill="#EDEDED" stroke="black" stroke-width="1.875"/>
</svg>
