<svg width="69" height="101" viewBox="0 0 69 101" fill="none" xmlns="http://www.w3.org/2000/svg">
<path d="M67.5143 81.5378L67.5108 81.5534L67.509 81.5654L67.509 81.5657C67.5089 81.5661 67.5088 81.5666 67.5087 81.5673C67.5083 81.5691 67.5078 81.5718 67.507 81.5754C67.5061 81.5797 67.5049 81.5852 67.5034 81.5919C67.4978 81.6163 67.4877 81.655 67.4716 81.7028C67.4388 81.8001 67.384 81.9265 67.2971 82.0487C67.1373 82.2733 66.852 82.516 66.273 82.4992C65.6513 82.4811 64.6542 82.162 63.125 81.0858C61.6045 80.0156 59.6034 78.2292 56.9828 75.357L56.9827 75.3569C56.0293 74.3123 55.3178 73.0569 54.906 71.6849C54.2832 69.6071 54.3793 67.3706 55.1775 65.3578L55.1775 65.3578L55.9815 63.3303L55.9816 63.3303L55.986 63.3183L59.8504 52.7964C59.851 52.7969 59.8516 52.7974 59.8522 52.7979C60.1865 53.0603 60.6635 53.4614 61.2238 54.0094C62.3446 55.1055 63.7971 56.7874 65.1089 59.1206C67.7269 63.7768 69.8056 71.0628 67.5143 81.5378Z" fill="#E3E3E3" stroke="black"/>
<path d="M9.17607 52.7975C9.17656 52.7971 9.17705 52.7967 9.17754 52.7964L13.0241 63.3282L13.024 63.3282L13.0286 63.34L13.8287 65.3697L13.8287 65.3698C14.6233 67.3847 14.7153 69.6223 14.0899 71.7004C13.6771 73.0719 12.9631 74.3265 12.0085 75.3703C9.38436 78.2391 7.38127 80.0227 5.85969 81.0907C4.32947 82.1648 3.3323 82.4823 2.71093 82.4993C2.13232 82.5151 1.84753 82.272 1.68814 82.0469C1.60144 81.9245 1.54682 81.798 1.51418 81.7005C1.49812 81.6526 1.48813 81.6139 1.48251 81.5894C1.47972 81.5773 1.47805 81.5688 1.47729 81.5648C1.47716 81.5641 1.47706 81.5636 1.47699 81.5631C1.47686 81.5624 1.4768 81.5621 1.4768 81.5621L1.47513 81.5509L1.47176 81.5353C-0.802101 71.0524 1.28728 63.7671 3.91155 59.1135C5.22654 56.7817 6.68106 55.1017 7.80314 54.0071C8.36409 53.4599 8.8415 53.0595 9.17607 52.7975Z" fill="#E3E3E3" stroke="black"/>
<path d="M46.1061 15.4993L22.8759 15.4806C23.133 15.0495 23.4919 14.4529 23.9267 13.7442C24.8435 12.2496 26.0962 10.2587 27.4417 8.26924C28.7892 6.27698 30.2215 4.29864 31.498 2.82305C32.1374 2.08404 32.7255 1.4853 33.2348 1.07555C33.7699 0.644965 34.1257 0.499859 34.3157 0.5C34.3984 0.500061 34.534 0.529346 34.7326 0.627921C34.9275 0.724661 35.1559 0.874527 35.4156 1.08014C35.9354 1.49168 36.5381 2.09228 37.1947 2.83269C38.5058 4.31116 39.9842 6.29254 41.3778 8.2872C42.7695 10.2791 44.0684 12.2724 45.0198 13.7686C45.4684 14.4739 45.8394 15.0683 46.1061 15.4993Z" fill="#E3E3E3" stroke="black"/>
<path d="M49.3812 68.998C49.3896 68.9811 49.4517 68.8559 49.5555 68.6298C49.5065 68.5822 49.4487 68.538 49.3806 68.5002L49.3804 68.9996L49.3812 68.998ZM49.41 67.7222C49.2653 68.0613 49.1473 68.3223 49.0648 68.4997L34.0663 68.4876H34.0658H33.9049H33.9045L18.9061 68.4755C18.8239 68.2979 18.7061 68.0366 18.5617 67.6972C18.2659 67.0018 17.8582 65.9787 17.4146 64.6753C16.5272 62.0678 15.4973 58.3423 14.9301 53.8773C13.8037 45.0089 14.5039 33.2394 21.7562 21.5048L33.901 21.7149L33.9092 21.7151L33.9173 21.7149L46.2835 21.5247C53.5163 33.271 54.1991 45.0416 53.0602 53.9082C52.4868 58.3723 51.4518 62.0961 50.561 64.7021C50.1157 66.0048 49.7067 67.0273 49.41 67.7222Z" fill="#E3E3E3" stroke="black"/>
<path d="M46.7984 80.5H46.7982L21.1903 80.4788H21.1902C20.259 80.4782 19.4989 79.7166 19.5 78.7716L19.5 78.7714L19.5076 69.5004L48.4996 69.5237L48.492 78.7945C48.4909 79.7408 47.7292 80.5011 46.7984 80.5ZM46.7978 81L21.1899 80.9788L46.7978 81Z" fill="#E3E3E3" stroke="black"/>
<path d="M43.5 42C43.5 46.6693 39.4964 50.5 34.5 50.5C29.5036 50.5 25.5 46.6693 25.5 42C25.5 37.3307 29.5036 33.5 34.5 33.5C39.4964 33.5 43.5 37.3307 43.5 42Z" fill="white" stroke="black"/>
<path d="M33.3986 81.5079H33.399H33.6015H33.6017L43.4489 81.5161C43.4458 81.5441 43.4425 81.573 43.4391 81.6029C43.3924 82.0084 43.3151 82.5957 43.1931 83.3179C42.9488 84.7631 42.526 86.743 41.8127 88.8827C40.405 93.1057 37.8955 97.8622 33.4836 100.429C29.076 97.8551 26.5746 93.0947 25.174 88.8695C24.4644 86.7287 24.0449 84.7481 23.8031 83.3026C23.6822 82.5802 23.6059 81.9928 23.5599 81.5872C23.5565 81.5573 23.5533 81.5283 23.5502 81.5004L33.3986 81.5079Z" fill="#EDEDED" stroke="black"/>
</svg>
