<svg width="58" height="96" viewBox="0 0 58 96" fill="none" xmlns="http://www.w3.org/2000/svg">
<path d="M47.9654 46.2058L47.9387 46.508L48.1944 46.6712C48.2929 46.7341 51.5182 48.8223 54.1429 53.4344C56.7603 58.0337 58.8011 65.1774 56.4981 75.4021L56.4945 75.4181L56.4928 75.4295C56.4928 75.4292 56.4926 75.4303 56.4925 75.431C56.4924 75.4314 56.4924 75.4311 56.4923 75.4318C56.4916 75.4355 56.4899 75.4436 56.4871 75.4553C56.4815 75.4789 56.4715 75.5165 56.4553 75.5632C56.4224 75.658 56.3672 75.7817 56.2794 75.9016C56.1184 76.1215 55.8255 76.366 55.2274 76.3492C54.5893 76.3312 53.5725 76.0136 52.0187 74.9512C50.4729 73.8943 48.4391 72.1306 45.776 69.2953C45.2188 68.7017 44.743 68.039 44.3597 67.3258L43.4193 67.562L43.4149 73.0877C43.4144 74.0255 42.6539 74.7846 41.7174 74.7841L16.0586 74.763C15.1225 74.7624 14.3634 74.002 14.3639 73.0637C14.3639 73.0637 14.3639 73.0637 14.3639 73.0636L14.3683 67.9094L14.3698 66.0945L13.439 67.6526C13.0929 68.232 12.6848 68.7737 12.2195 69.2677C9.55189 72.0987 7.51527 73.8591 5.96777 74.9134C4.41219 75.9733 3.39492 76.2892 2.75675 76.3062C2.15866 76.3221 1.86609 76.0771 1.7054 75.8568C1.61781 75.7368 1.56284 75.6131 1.5301 75.5182C1.51398 75.4715 1.50399 75.4339 1.4984 75.4103C1.49562 75.3985 1.49398 75.3904 1.49326 75.3867C1.49313 75.386 1.49315 75.3863 1.49308 75.3859C1.49294 75.3852 1.49278 75.3841 1.49283 75.3844L1.49109 75.373L1.48752 75.3571C-0.787461 65.1768 1.23551 58.0557 3.84273 53.4585C6.45707 48.8488 9.67943 46.7422 9.83647 46.6414L10.0906 46.4782L10.0645 46.1773C9.31797 37.5979 10.4063 26.7348 16.9939 15.9011H17.0061L17.1518 15.6585C17.7358 14.686 20.0654 10.8476 22.5937 7.25605C23.8591 5.45852 25.165 3.7362 26.3208 2.46798C26.8996 1.83284 27.4285 1.32525 27.8859 0.980359C28.3645 0.619449 28.6837 0.499863 28.8581 0.5C29.034 0.500138 29.3585 0.621707 29.847 0.984569C30.3137 1.33117 30.8553 1.84056 31.4494 2.47705C32.6356 3.74804 33.9825 5.47325 35.2903 7.27308C37.9036 10.8694 40.3239 14.712 40.9304 15.6852L41.0771 15.9207H41.0812C47.6508 26.7642 48.7234 37.6279 47.9654 46.2058Z" fill="url(#paint0_linear_1_13484)" stroke="black"/>
<path d="M38.4563 75.4811C38.453 75.5113 38.4496 75.5427 38.446 75.5752C38.4009 75.9842 38.3261 76.5765 38.2081 77.3046C37.9718 78.7619 37.5629 80.7583 36.873 82.9157C35.5125 87.1705 33.0897 91.9562 28.8392 94.5424C24.593 91.949 22.178 87.1594 20.8243 82.9024C20.138 80.7438 19.7323 78.7468 19.4983 77.2892C19.3815 76.5608 19.3076 75.9684 19.2632 75.5593C19.2596 75.5268 19.2563 75.4955 19.2531 75.4653L28.7556 75.4728L28.7571 75.4729L28.9509 75.4736L28.9523 75.4736L38.4563 75.4811Z" fill="url(#paint1_linear_1_13484)" stroke="black"/>
<path d="M37.3448 36.6123C37.3448 41.1811 33.6411 44.8848 29.0723 44.8848C24.5035 44.8848 20.7998 41.1811 20.7998 36.6123C20.7998 32.0436 24.5035 28.3398 29.0723 28.3398C33.6411 28.3398 37.3448 32.0436 37.3448 36.6123Z" fill="white" stroke="black"/>
<defs>
<linearGradient id="paint0_linear_1_13484" x1="29" y1="1.00402" x2="29" y2="95.7565" gradientUnits="userSpaceOnUse">
<stop stop-color="#E3E3E3"/>
<stop offset="0.1957" stop-color="#E3E0E4"/>
<stop offset="0.3289" stop-color="#E3D7E7"/>
<stop offset="0.4434" stop-color="#E2C8EC"/>
<stop offset="0.4553" stop-color="#E2C6ED"/>
<stop offset="1" stop-color="#932BBC"/>
</linearGradient>
<linearGradient id="paint1_linear_1_13484" x1="28.855" y1="0.78918" x2="28.855" y2="95.4326" gradientUnits="userSpaceOnUse">
<stop stop-color="#E3E3E3"/>
<stop offset="0.1957" stop-color="#E3E0E4"/>
<stop offset="0.3289" stop-color="#E3D7E7"/>
<stop offset="0.4434" stop-color="#E2C8EC"/>
<stop offset="0.4553" stop-color="#E2C6ED"/>
<stop offset="1" stop-color="#932BBC"/>
</linearGradient>
</defs>
</svg>
