<svg width="67" height="21" viewBox="0 0 67 21" fill="none" xmlns="http://www.w3.org/2000/svg">
<path d="M10.2598 20.4C15.882 20.4 20.4399 15.8422 20.4399 10.22C20.4399 4.59771 15.882 0.0400391 10.2598 0.0400391C4.63751 0.0400391 0.0800781 4.59771 0.0800781 10.22C0.0800781 15.8422 4.63751 20.4 10.2598 20.4Z" fill="white"/>
<path d="M15.39 4.96986C15.03 5.10986 4.83973 9.47987 4.83973 9.47987C4.83973 9.47987 4.35002 9.64986 4.39002 9.96986C4.43002 10.2899 4.82996 10.4299 4.82996 10.4299L7.45008 11.3298C7.45008 11.3298 8.23978 13.9699 8.39978 14.4699C8.55978 14.9699 8.68006 14.9799 8.68006 14.9799C8.82006 15.0399 8.95984 14.9398 8.95984 14.9398L10.6498 13.3699L13.2899 15.4299C13.9999 15.7499 14.2596 15.0899 14.2596 15.0899L16.08 5.60987C16.25 4.87987 15.77 4.81986 15.39 4.96986Z" stroke="#161616" stroke-width="0.4495" stroke-miterlimit="10"/>
<path d="M7.47021 11.3298L14.1802 6.85986L9.41992 12.4498" stroke="#161616" stroke-width="0.4495" stroke-miterlimit="10" stroke-linecap="round" stroke-linejoin="round"/>
<path d="M8.85986 14.9697L9.41992 12.4497L10.54 13.2898" stroke="#161616" stroke-width="0.4495" stroke-miterlimit="10" stroke-linecap="round" stroke-linejoin="round"/>
<path d="M56.7798 20.4C62.402 20.4 66.96 15.8422 66.96 10.22C66.96 4.59771 62.402 0.0400391 56.7798 0.0400391C51.1575 0.0400391 46.6001 4.59771 46.6001 10.22C46.6001 15.8422 51.1575 20.4 56.7798 20.4Z" fill="white"/>
<path d="M33.6201 20.4C39.2424 20.4 43.7998 15.8422 43.7998 10.22C43.7998 4.59771 39.2424 0.0400391 33.6201 0.0400391C27.9979 0.0400391 23.4399 4.59771 23.4399 10.22C23.4399 15.8422 27.9979 20.4 33.6201 20.4Z" fill="white"/>
<path d="M37.8197 11.63C38.6997 12.41 38.88 12.69 38.91 12.74C39.27 13.32 38.5096 13.39 38.5096 13.39H36.89C36.89 13.39 36.5 13.39 36.16 13.17C35.61 12.81 35.0397 12.11 34.6297 12.23C34.2897 12.33 34.2899 12.7901 34.2899 13.1801C34.2899 13.3201 34.1698 13.38 33.8998 13.38C33.6298 13.38 33.51 13.38 33.39 13.38C32.5 13.38 31.5399 13.08 30.5799 12.08C29.2199 10.66 28.0296 7.80005 28.0296 7.80005C28.0296 7.80005 27.9599 7.65995 28.0399 7.56995C28.1299 7.46995 28.3597 7.47998 28.3597 7.47998H29.93C29.93 7.47998 30.08 7.50996 30.18 7.57996C30.27 7.63996 30.3197 7.76001 30.3197 7.76001C30.3197 7.76001 30.5798 8.62994 30.9198 9.18994C31.5798 10.2699 31.8797 10.3001 32.1097 10.1801C32.4397 10.0101 32.3299 8.85999 32.3299 8.85999C32.3299 8.85999 32.3398 8.37001 32.1698 8.14001C32.0398 7.97001 31.79 7.87999 31.68 7.85999C31.59 7.84999 31.74 7.68999 31.93 7.60999C32.18 7.49999 32.5197 7.46997 33.1097 7.46997C33.5697 7.46997 33.6997 7.50004 33.8797 7.54004C34.4197 7.66004 34.2899 7.99002 34.2899 9.15002C34.2899 9.52002 34.2399 10.04 34.5199 10.22C34.6399 10.29 35.0499 10.3899 35.7899 9.18994C36.1399 8.61994 36.4198 7.68005 36.4198 7.68005C36.4198 7.68005 36.4797 7.58003 36.5697 7.53003C36.6597 7.48003 36.6596 7.47998 36.7796 7.47998C36.8996 7.47998 38.16 7.46997 38.43 7.46997C38.7 7.46997 38.9596 7.47 39.0096 7.63C39.0696 7.86 38.8097 8.65002 38.1297 9.52002C37.0197 10.95 36.8997 10.82 37.8197 11.63Z" stroke="#161616" stroke-width="0.474" stroke-miterlimit="10"/>
<path d="M56.7402 6.03003C58.8902 6.03003 60.62 6.20999 61.46 6.35999C61.91 6.47999 62.2701 6.78004 62.3301 7.17004C62.5101 8.13004 62.6299 9.13994 62.6299 10.1899C62.5999 11.4699 62.4501 12.52 62.3301 13.27C62.2401 13.84 61.64 14.02 61.46 14.08C60.38 14.29 58.5898 14.4399 56.7998 14.4399C55.0098 14.4399 53.1901 14.32 52.1401 14.08C51.6901 13.96 51.33 13.66 51.27 13.27C51.03 12.43 50.9399 11.33 50.9399 10.22C50.9399 8.84997 51.0602 7.82995 51.1802 7.19995C51.2702 6.62995 51.8998 6.45001 52.0498 6.39001C53.0298 6.18001 54.8502 6.03003 56.7402 6.03003ZM56.7402 5.43994C54.7702 5.43994 52.9202 5.59005 51.9302 5.80005C51.2702 5.95005 50.6998 6.39996 50.5898 7.07996C50.4698 7.79996 50.3501 8.86997 50.3501 10.22C50.3501 11.56 50.4701 12.61 50.6201 13.36C50.7401 14.02 51.31 14.5 51.96 14.64C53.01 14.85 54.8 15 56.77 15C58.74 15 60.5301 14.85 61.5801 14.64C62.2401 14.49 62.8099 14.04 62.9199 13.36C63.0399 12.61 63.1902 11.5399 63.2202 10.1899C63.2202 8.84994 63.0699 7.77002 62.9199 7.02002C62.7999 6.36002 62.2301 5.87999 61.5801 5.73999C60.5301 5.58999 58.7102 5.43994 56.7402 5.43994Z" fill="#161616"/>
<path d="M55.7202 8.83991L57.5 9.85992C57.77 10.0199 57.77 10.4099 57.5 10.5699L56.3301 11.2399C56.0601 11.3999 55.7202 11.2 55.7202 10.89V8.83991ZM55.73 12.2599L58.6802 10.5699C58.9502 10.4099 58.9502 10.0199 58.6802 9.85992L55.73 8.16998C55.46 8.00998 55.1201 8.20996 55.1201 8.51996V11.9C55.1201 12.22 55.46 12.4099 55.73 12.2599Z" fill="#161616"/>
</svg>
