<svg width="153" height="47" viewBox="0 0 153 47" fill="none" xmlns="http://www.w3.org/2000/svg">
<path d="M23.2473 46.766C36.0362 46.766 46.4028 36.3984 46.4028 23.6096C46.4028 10.8207 36.0362 0.453125 23.2473 0.453125C10.4585 0.453125 0.0917969 10.8207 0.0917969 23.6096C0.0917969 36.3984 10.4585 46.766 23.2473 46.766Z" fill="url(#paint0_linear_2276_6)"/>
<path d="M76.423 46.766C89.2118 46.766 99.5785 36.3984 99.5785 23.6096C99.5785 10.8207 89.2118 0.453125 76.423 0.453125C63.6341 0.453125 53.2656 10.8207 53.2656 23.6096C53.2656 36.3984 63.6341 46.766 76.423 46.766Z" fill="url(#paint1_linear_2276_6)"/>
<path d="M129.11 46.766C141.898 46.766 152.267 36.3984 152.267 23.6096C152.267 10.8207 141.898 0.453125 129.11 0.453125C116.321 0.453125 105.954 10.8207 105.954 23.6096C105.954 36.3984 116.321 46.766 129.11 46.766Z" fill="url(#paint2_linear_2276_6)"/>
<defs>
<linearGradient id="paint0_linear_2276_6" x1="-7.67477" y1="32.6246" x2="146.027" y2="-12.1362" gradientUnits="userSpaceOnUse">
<stop stop-color="#F22D7A"/>
<stop offset="1" stop-color="#932BBC"/>
</linearGradient>
<linearGradient id="paint1_linear_2276_6" x1="-3.52014" y1="46.8971" x2="150.187" y2="2.13276" gradientUnits="userSpaceOnUse">
<stop stop-color="#F22D7A"/>
<stop offset="1" stop-color="#932BBC"/>
</linearGradient>
<linearGradient id="paint2_linear_2276_6" x1="0.598516" y1="61.041" x2="154.308" y2="16.2769" gradientUnits="userSpaceOnUse">
<stop stop-color="#F22D7A"/>
<stop offset="1" stop-color="#932BBC"/>
</linearGradient>
</defs>
</svg>
