<svg width="122" height="38" viewBox="0 0 122 38" fill="none" xmlns="http://www.w3.org/2000/svg">
<path d="M18.8179 37.1221C28.9868 37.1221 37.2305 28.8789 37.2305 18.71C37.2305 8.54102 28.9868 0.296875 18.8179 0.296875C8.64896 0.296875 0.405273 8.54102 0.405273 18.71C0.405273 28.8789 8.64896 37.1221 18.8179 37.1221Z" fill="white"/>
<path d="M103.023 37.1221C113.192 37.1221 121.436 28.8789 121.436 18.71C121.436 8.54102 113.192 0.296875 103.023 0.296875C92.8546 0.296875 84.6113 8.54102 84.6113 18.71C84.6113 28.8789 92.8546 37.1221 103.023 37.1221Z" fill="white"/>
<path d="M61.1177 37.1221C71.2866 37.1221 79.5303 28.8789 79.5303 18.71C79.5303 8.54102 71.2866 0.296875 61.1177 0.296875C50.9488 0.296875 42.7051 8.54102 42.7051 18.71C42.7051 28.8789 50.9488 37.1221 61.1177 37.1221Z" fill="white"/>
</svg>
