<svg width="282" height="282" viewBox="0 0 282 282" fill="none" xmlns="http://www.w3.org/2000/svg">
<g clip-path="url(#clip0_256_32423)">
<path d="M42.4493 74.1012C40.6569 73.0361 38.945 72.7604 37.3137 73.2741C35.6823 73.7878 34.2766 75.0376 33.0966 77.0235C31.9165 79.0093 31.487 80.8479 31.8081 82.5392C32.1239 84.21 33.1586 85.5665 34.9124 86.6086C36.6919 87.666 38.3947 87.9276 40.0209 87.3933C41.647 86.8591 43.0692 85.5668 44.2876 83.5164C44.6017 82.9877 44.807 82.5688 44.9035 82.2597L46.0128 82.6833C45.8477 83.196 45.6081 83.7166 45.2939 84.2453C43.9147 86.5664 42.2437 88.0425 40.281 88.6733C38.3259 89.2913 36.3104 88.9835 34.2342 87.7498C32.1839 86.5315 30.959 84.9224 30.5595 82.9227C30.1599 80.923 30.6268 78.8013 31.9601 76.5575C33.3547 74.2106 35.0346 72.705 36.9997 72.0406C38.9649 71.3763 41.0113 71.6763 43.139 72.9406C44.3382 73.6533 45.139 74.4345 45.5414 75.2842C45.9514 76.1211 45.9265 76.9264 45.4668 77.7001C45.2216 78.1128 44.8369 78.4077 44.3129 78.5848C43.7965 78.7491 43.3127 78.6971 42.8613 78.429L42.2256 77.7371L42.0719 77.9075C42.6791 78.5301 42.9745 79.325 42.958 80.2923C42.9492 81.2468 42.6498 82.2204 42.0598 83.2134C41.4391 84.2579 40.7464 84.9978 39.9816 85.4333C39.2246 85.8558 38.5494 85.8908 37.9562 85.5384C36.9633 84.9483 36.8036 83.6756 37.4769 81.7202L39.4116 76.6146L39.1408 76.4537C38.6508 76.1625 38.0851 76.2189 37.4437 76.623C36.8099 77.0141 36.2249 77.661 35.6885 78.5637C35.1598 79.4534 34.8751 80.2701 34.8346 81.0137C34.8017 81.7445 35.033 82.3094 35.5286 82.7086L34.6873 83.5959C34.0056 82.9814 33.6703 82.1802 33.6815 81.1923C33.6875 80.1838 34.0277 79.1122 34.702 77.9775C35.4146 76.7782 36.2303 75.9194 37.1491 75.401C38.0755 74.8697 38.8869 74.8109 39.5832 75.2247L43.2583 77.4086C43.4646 77.5312 43.6873 77.5675 43.9263 77.5176C44.173 77.4548 44.3539 77.3267 44.4688 77.1333C44.6987 76.7464 44.6259 76.267 44.2504 75.6949C43.8621 75.1152 43.2617 74.5839 42.4493 74.1012ZM38.6229 84.4165C39.2934 84.8149 40.1421 84.1502 41.1689 82.4222C41.7743 81.4035 42.1047 80.4657 42.1602 79.6089C42.2105 78.7314 41.9713 78.1356 41.4426 77.8215L40.3594 77.1778L38.4926 81.905C37.9992 83.2345 38.0426 84.0717 38.6229 84.4165Z" fill="#F32D7A"/>
<path d="M59.6962 58.942C60.6082 59.7673 60.9755 60.8481 60.798 62.1844C60.6195 63.4996 59.9414 64.8078 58.7639 66.1092C57.5965 67.3994 56.3316 68.2272 54.9693 68.5926C53.6059 68.9369 52.1904 68.7686 50.7227 68.0879L51.3345 66.9423C53.8006 67.8386 55.9344 67.2913 57.7359 65.3003C58.6416 64.2993 59.1923 63.3107 59.3878 62.3345C59.5933 61.3472 59.4013 60.5869 58.8119 60.0535C58.6116 59.8723 58.3985 59.7502 58.1723 59.6872C57.935 59.6141 57.7104 59.5828 57.4986 59.5934C57.2856 59.5828 57.0229 59.6384 56.7104 59.7602C56.408 59.8709 56.1534 59.9845 55.9469 60.101C55.7292 60.2075 55.4355 60.3868 55.0657 60.6389C54.696 60.891 54.4089 61.0965 54.2045 61.2554C53.9889 61.4042 53.6711 61.6325 53.251 61.9402C53.1695 62.008 53.108 62.0535 53.0667 62.0768C52.5852 62.4301 52.1803 62.7211 51.8519 62.9499C51.5124 63.1687 51.1103 63.4118 50.6458 63.6792C50.1913 63.9356 49.7811 64.1207 49.4151 64.2346C49.048 64.3272 48.6587 64.3998 48.2472 64.4522C47.8346 64.4834 47.4389 64.4289 47.0602 64.2885C46.6815 64.1481 46.3197 63.9219 45.9749 63.6099C45.0406 62.7645 44.6577 61.6898 44.8262 60.3858C44.9836 59.0717 45.6711 57.7417 46.8889 56.3959C48.0262 55.139 49.2386 54.3244 50.5262 53.9521C51.8028 53.5698 53.1047 53.6959 54.432 54.3305L53.8353 55.4595C52.8353 54.9997 51.8332 54.9223 50.8289 55.2273C49.8246 55.5324 48.8646 56.191 47.9487 57.2031C46.9725 58.282 46.3917 59.304 46.2063 60.2691C46.0198 61.2129 46.2324 61.9616 46.8442 62.5151C47.0777 62.7265 47.3293 62.8732 47.5989 62.9553C47.8685 63.0374 48.1612 63.0494 48.4768 62.9911C48.7814 62.9228 49.0799 62.8389 49.3723 62.7393C49.6535 62.6297 49.9901 62.4589 50.3821 62.2269C50.773 61.9737 51.112 61.7444 51.3991 61.5389C51.6962 61.3223 52.0593 61.0439 52.4884 60.7039C52.847 60.4417 53.124 60.2474 53.3195 60.1208C53.5038 59.9841 53.7707 59.8009 54.1203 59.571C54.4689 59.32 54.752 59.1412 54.9697 59.0348C55.1763 58.9182 55.4403 58.7829 55.7618 58.6288C56.0934 58.4636 56.3747 58.3539 56.6056 58.2999C56.8365 58.2459 57.0998 58.2009 57.3953 58.1649C57.701 58.1178 57.9719 58.1202 58.2081 58.1721C58.4443 58.224 58.6933 58.3177 58.9549 58.4534C59.2155 58.5678 59.4626 58.7307 59.6962 58.942Z" fill="#942BBD"/>
<path d="M67.094 44.1842L66.2794 45.2725C65.1061 44.6005 63.9348 44.3329 62.7654 44.4695C61.6073 44.5964 60.4943 45.1201 59.4263 46.0407C57.9833 47.2844 57.2103 48.6736 57.1071 50.2081C57.0154 51.7329 57.6256 53.2565 58.938 54.7789C60.2503 56.3014 61.6672 57.1297 63.1888 57.2638C64.7104 57.3979 66.1984 56.8381 67.6527 55.5846C68.7775 54.615 69.4814 53.5132 69.7643 52.2792C70.0586 51.0354 69.8632 49.7978 69.1781 48.5664L70.4063 47.9236C71.2175 49.4621 71.4439 50.9998 71.0853 52.5367C70.7268 54.0735 69.8715 55.4247 68.5194 56.5901C66.7924 58.0787 64.9762 58.763 63.0706 58.643C61.1667 58.5018 59.4312 57.5223 57.8643 55.7044C56.2875 53.8752 55.5746 52.0143 55.7256 50.1217C55.8879 48.2193 56.8326 46.5238 58.5595 45.0352C59.7866 43.9775 61.1508 43.366 62.652 43.2008C64.1533 43.0356 65.6339 43.3634 67.094 44.1842Z" fill="#942BBD"/>
<path d="M75.8366 42.8713L77.3364 41.876L84.9696 44.2634L83.5073 45.2338L75.8366 42.8713ZM74.2087 51.4048L66.0719 39.1441L72.3898 34.9513C73.7271 34.0638 75.0424 33.7129 76.3359 33.8987C77.6293 34.0845 78.6369 34.721 79.3585 35.8084C80.0635 36.8707 80.2317 37.9923 79.8631 39.173C79.4988 40.3329 78.6292 41.3691 77.2544 42.2815L72.0989 45.7029L75.371 50.6334L74.2087 51.4048ZM71.3524 44.5781L76.3017 41.2935C78.6263 39.7508 79.2454 38.1608 78.1588 36.5235C77.6114 35.6986 76.8905 35.2499 75.9962 35.1773C75.0936 35.0922 74.0674 35.4312 72.9176 36.1943L67.9683 39.4788L71.3524 44.5781Z" fill="#942BBD"/>
<path d="M82.3637 32.0653C81.9138 33.5591 82.134 35.207 83.0242 37.0091C83.9145 38.8112 85.0795 39.984 86.5191 40.5276C87.9656 41.0511 89.5361 40.8943 91.2306 40.0571C92.9251 39.22 93.9973 38.0714 94.447 36.6111C94.8901 35.1374 94.6665 33.4995 93.7763 31.6974C92.886 29.8953 91.711 28.7191 90.2513 28.1687C88.8049 27.6117 87.2413 27.7484 85.5602 28.5789C83.8791 29.4094 82.8137 30.5715 82.3637 32.0653ZM81.7534 37.6369C80.6837 35.4717 80.4451 33.4816 81.0374 31.6665C81.6365 29.8313 82.9515 28.4121 84.9822 27.4089C86.2195 26.7977 87.4685 26.5152 88.7295 26.5615C89.9904 26.6078 91.1825 27.0227 92.3057 27.8063C93.4358 28.5697 94.3496 29.6575 95.0472 31.0696C96.1168 33.2348 96.3555 35.225 95.7631 37.0401C95.1641 38.8417 93.8493 40.2441 91.8186 41.2473C89.7879 42.2505 87.8684 42.4459 86.0601 41.8335C84.2586 41.201 82.823 39.8021 81.7534 37.6369Z" fill="#942BBD"/>
<path d="M94.0706 23.6273L95.3894 23.1726L99.745 35.808L110.466 32.1123L110.906 33.3886L98.8662 37.5389L94.0706 23.6273Z" fill="#942BBD"/>
<path d="M108.384 18.9055L109.747 18.6122L112.558 31.6783L123.644 29.2935L123.928 30.6133L111.478 33.2914L108.384 18.9055Z" fill="#942BBD"/>
<path d="M146.991 22.2218C146.957 20.137 146.293 18.5351 145 17.4159C143.707 16.2968 141.905 15.756 139.596 15.7934C137.286 15.8309 135.495 16.4301 134.224 17.5909C132.967 18.7364 132.356 20.3291 132.389 22.3688C132.422 24.4385 133.093 26.0253 134.401 27.1292C135.709 28.2332 137.556 28.7658 139.941 28.7271C140.555 28.7171 141.02 28.672 141.334 28.5919L141.555 29.7585C141.032 29.887 140.463 29.9562 139.848 29.9662C137.149 30.01 135.015 29.3621 133.448 28.0223C131.896 26.6823 131.101 24.805 131.062 22.3903C131.023 20.0056 131.75 18.1186 133.242 16.7292C134.735 15.3398 136.786 14.6239 139.396 14.5815C142.126 14.5372 144.289 15.1772 145.885 16.5014C147.482 17.8257 148.301 19.7252 148.341 22.1998C148.363 23.5947 148.119 24.6863 147.606 25.4747C147.109 26.2629 146.41 26.6643 145.511 26.6789C145.031 26.6867 144.578 26.514 144.152 26.1609C143.741 25.8075 143.532 25.3683 143.523 24.8434L143.778 23.9391L143.553 23.8978C143.341 24.7413 142.82 25.4099 141.988 25.9035C141.17 26.3968 140.184 26.6528 139.03 26.6716C137.815 26.6913 136.821 26.4899 136.049 26.0674C135.292 25.6446 134.908 25.0882 134.897 24.3983C134.878 23.2435 135.878 22.4397 137.896 21.9868L143.257 20.9547L143.252 20.6397C143.243 20.0698 142.898 19.6178 142.218 19.2838C141.552 18.9496 140.694 18.791 139.645 18.808C138.61 18.8248 137.765 19.0111 137.111 19.3667C136.471 19.7222 136.112 20.2156 136.032 20.8469L134.835 20.5963C135.001 19.6935 135.507 18.9877 136.354 18.4789C137.215 17.9549 138.306 17.6821 139.626 17.6607C141.021 17.6381 142.18 17.8818 143.103 18.3919C144.042 18.9017 144.517 19.5616 144.531 20.3714L144.6 24.6459C144.604 24.8859 144.69 25.0945 144.858 25.2718C145.041 25.4488 145.244 25.5355 145.469 25.5319C145.919 25.5246 146.289 25.211 146.579 24.5913C146.869 23.9565 147.006 23.1666 146.991 22.2218ZM136.202 24.3772C136.215 25.1571 137.226 25.5307 139.236 25.4981C140.42 25.4788 141.392 25.268 142.151 24.8657C142.924 24.4481 143.306 23.9318 143.296 23.3169L143.275 22.057L138.272 22.9484C136.881 23.226 136.191 23.7022 136.202 24.3772Z" fill="#F32D7A"/>
<path d="M168.896 29.0554C168.668 30.264 167.937 31.1411 166.704 31.6867C165.489 32.2203 164.019 32.3242 162.295 31.9984C160.585 31.6753 159.219 31.028 158.197 30.0562C157.192 29.0726 156.597 27.7771 156.412 26.1699L157.709 26.0943C158.23 28.6658 159.81 30.2009 162.449 30.6994C163.775 30.95 164.906 30.9042 165.841 30.5618C166.79 30.2222 167.339 29.6618 167.486 28.8806C167.537 28.6153 167.529 28.3697 167.465 28.1439C167.404 27.9033 167.313 27.6954 167.194 27.5201C167.092 27.3329 166.907 27.1378 166.64 26.9347C166.388 26.7344 166.159 26.5765 165.951 26.461C165.747 26.3308 165.441 26.1738 165.033 25.9898C164.625 25.8059 164.3 25.6681 164.058 25.5766C163.818 25.4703 163.458 25.3182 162.976 25.1203C162.876 25.0861 162.805 25.0574 162.763 25.0343C162.211 24.8078 161.751 24.6141 161.385 24.4533C161.021 24.2777 160.604 24.0615 160.133 23.8047C159.678 23.5506 159.306 23.2972 159.018 23.0443C158.747 22.7794 158.482 22.4851 158.223 22.1613C157.981 21.8256 157.821 21.4596 157.743 21.0632C157.666 20.6669 157.67 20.2403 157.756 19.7834C157.99 18.5453 158.707 17.658 159.908 17.1216C161.111 16.5704 162.604 16.4633 164.388 16.8003C166.053 17.115 167.381 17.7245 168.37 18.6289C169.362 19.5186 169.934 20.6952 170.085 22.1586L168.81 22.2384C168.681 21.1454 168.224 20.25 167.44 19.5523C166.656 18.8546 165.593 18.379 164.252 18.1256C162.822 17.8554 161.647 17.893 160.727 18.2381C159.825 18.5713 159.297 19.1433 159.144 19.9539C159.085 20.2635 159.091 20.5546 159.162 20.8275C159.232 21.1003 159.375 21.3562 159.589 21.5952C159.806 21.8194 160.034 22.0303 160.271 22.2278C160.511 22.4106 160.833 22.6087 161.235 22.8221C161.655 23.0236 162.027 23.1932 162.353 23.3309C162.692 23.4715 163.119 23.6361 163.633 23.8248C164.044 23.994 164.354 24.1289 164.564 24.2297C164.777 24.3157 165.072 24.4478 165.451 24.6262C165.847 24.7926 166.147 24.9409 166.351 25.0711C166.559 25.1866 166.812 25.3413 167.111 25.5352C167.425 25.7319 167.665 25.9147 167.832 26.0836C167.998 26.2524 168.174 26.4536 168.359 26.6869C168.558 26.9231 168.698 27.1555 168.777 27.3841C168.856 27.6128 168.905 27.8741 168.926 28.168C168.965 28.4501 168.954 28.7458 168.896 29.0554Z" fill="#942BBD"/>
<path d="M185.309 27.6802L183.956 27.551C183.92 26.1994 183.538 25.0598 182.813 24.1324C182.102 23.2095 181.076 22.5316 179.734 22.0987C177.921 21.5138 176.332 21.5767 174.968 22.2872C173.619 23.0023 172.635 24.3163 172.018 26.2293C171.401 28.1422 171.431 29.7832 172.108 31.1523C172.786 32.5214 174.038 33.5007 175.865 34.0902C177.279 34.5461 178.586 34.5738 179.787 34.1731C181.002 33.7771 181.957 32.9662 182.652 31.7404L183.84 32.4546C182.949 33.948 181.753 34.9415 180.254 35.4352C178.755 35.9288 177.157 35.9016 175.458 35.3535C173.288 34.6535 171.758 33.4587 170.869 31.7691C169.999 30.0698 169.932 28.0781 170.669 25.7941C171.41 23.4957 172.628 21.9185 174.323 21.0625C176.032 20.211 177.972 20.1353 180.141 20.8353C181.683 21.3327 182.915 22.1794 183.838 23.3753C184.76 24.5713 185.251 26.0062 185.309 27.6802Z" fill="#942BBD"/>
<path d="M190.97 34.4872L192.6 35.2522L194.523 43.0154L192.934 42.2696L190.97 34.4872ZM182.832 37.5267L189.086 24.2067L195.949 27.4292C197.402 28.1113 198.385 29.0533 198.898 30.2552C199.411 31.4571 199.39 32.6486 198.835 33.8299C198.293 34.9841 197.422 35.7101 196.222 36.0082C195.041 36.2991 193.704 36.0939 192.211 35.3927L186.61 32.763L184.095 38.1195L182.832 37.5267ZM187.183 31.541L192.56 34.0655C195.086 35.2512 196.766 34.9547 197.601 33.176C198.022 32.2798 198.031 31.4307 197.629 30.6287C197.233 29.8132 196.41 29.1121 195.161 28.5256L189.784 26.0012L187.183 31.541Z" fill="#942BBD"/>
<path d="M203.593 34.4298C202.083 34.8209 200.789 35.8647 199.711 37.5612C198.633 39.2577 198.236 40.8623 198.519 42.375C198.822 43.883 199.772 45.1438 201.367 46.1573C202.962 47.1709 204.501 47.4907 205.982 47.1169C207.472 46.7305 208.756 45.689 209.833 43.9924C210.911 42.2959 211.307 40.6809 211.019 39.1476C210.744 37.6223 209.815 36.3569 208.233 35.3514C206.65 34.3459 205.104 34.0387 203.593 34.4298ZM198.515 36.8011C199.81 34.7627 201.387 33.5254 203.246 33.0892C205.125 32.6484 207.021 33.0353 208.933 34.2499C210.097 34.99 210.987 35.9108 211.602 37.0125C212.218 38.1142 212.482 39.3485 212.395 40.7152C212.33 42.0774 211.875 43.4232 211.03 44.7526C209.735 46.791 208.158 48.0282 206.299 48.4644C204.448 48.888 202.567 48.4924 200.655 47.2778C198.743 46.0631 197.58 44.5241 197.164 42.6607C196.77 40.7926 197.22 38.8394 198.515 36.8011Z" fill="#942BBD"/>
<path d="M216.882 40.0606L217.956 40.9505L209.43 51.2425L218.162 58.477L217.301 59.5166L207.494 51.3921L216.882 40.0606Z" fill="#942BBD"/>
<path d="M228.369 49.8254L229.331 50.8361L219.647 60.0478L227.463 68.264L226.485 69.1945L217.708 59.9676L228.369 49.8254Z" fill="#942BBD"/>
<path d="M245.64 84.5072C247.407 83.3993 248.434 82.0023 248.722 80.3165C249.01 78.6306 248.54 76.8092 247.313 74.8524C246.085 72.8955 244.646 71.6736 242.995 71.1866C241.364 70.7044 239.685 71.0052 237.957 72.0893C236.203 73.1893 235.193 74.5846 234.925 76.2752C234.658 77.9658 235.158 79.8213 236.425 81.8417C236.752 82.3627 237.031 82.7367 237.262 82.9637L236.378 83.7569C235.997 83.376 235.644 82.925 235.317 82.404C233.882 80.1168 233.332 77.9561 233.668 75.9219C234.011 73.9005 235.206 72.2481 237.251 70.9647C239.272 69.6974 241.263 69.3427 243.224 69.9007C245.185 70.4587 246.86 71.8433 248.247 74.0542C249.697 76.3669 250.269 78.549 249.963 80.6006C249.656 82.6522 248.454 84.3356 246.358 85.6508C245.176 86.3921 244.115 86.7477 243.175 86.7174C242.244 86.6999 241.539 86.3099 241.06 85.5475C240.805 85.1409 240.719 84.664 240.8 84.1169C240.89 83.5825 241.157 83.1758 241.602 82.8969L242.508 82.6473L242.427 82.4328C241.596 82.6886 240.753 82.5882 239.9 82.1317C239.055 81.6879 238.326 80.9768 237.712 79.9984C237.067 78.9691 236.725 78.0149 236.687 77.1357C236.657 76.2692 236.934 75.6526 237.518 75.2859C238.497 74.6722 239.702 75.1114 241.134 76.6036L244.792 80.6569L245.059 80.4895C245.542 80.1866 245.75 79.6575 245.684 78.9024C245.625 78.16 245.317 77.344 244.759 76.4545C244.209 75.5778 243.612 74.9515 242.969 74.5757C242.334 74.2127 241.726 74.1604 241.145 74.419L240.74 73.2653C241.598 72.9395 242.464 73.0072 243.337 73.4685C244.232 73.9345 245.029 74.7266 245.731 75.8448C246.472 77.0265 246.864 78.1444 246.905 79.1985C246.955 80.2653 246.636 81.0139 245.95 81.4444L242.329 83.7161C242.125 83.8436 241.991 84.0251 241.926 84.2605C241.87 84.5087 241.901 84.7281 242.021 84.9187C242.26 85.2999 242.719 85.4541 243.4 85.3815C244.093 85.3008 244.84 85.0094 245.64 84.5072ZM238.212 76.3914C237.551 76.8059 237.755 77.8645 238.823 79.5672C239.453 80.5711 240.136 81.2934 240.873 81.7342C241.63 82.1797 242.27 82.2391 242.791 81.9123L243.858 81.2427L240.506 77.4227C239.548 76.3765 238.784 76.0327 238.212 76.3914Z" fill="#F32D7A"/>
<path d="M253.215 113.948C252.038 114.305 250.922 114.064 249.868 113.224C248.832 112.394 248.059 111.139 247.55 109.46C247.045 107.794 246.986 106.284 247.374 104.928C247.78 103.582 248.653 102.455 249.992 101.547L250.66 102.661C248.622 104.314 247.993 106.425 248.772 108.994C249.164 110.286 249.729 111.267 250.465 111.937C251.205 112.622 251.956 112.849 252.717 112.618C252.975 112.539 253.19 112.419 253.36 112.258C253.545 112.092 253.687 111.916 253.787 111.729C253.906 111.551 253.994 111.298 254.05 110.967C254.111 110.651 254.144 110.374 254.151 110.137C254.172 109.896 254.169 109.551 254.143 109.105C254.117 108.658 254.089 108.306 254.058 108.049C254.041 107.788 254.009 107.398 253.962 106.879C253.946 106.774 253.938 106.698 253.939 106.651C253.884 106.056 253.843 105.559 253.816 105.16C253.803 104.756 253.802 104.286 253.812 103.75C253.826 103.229 253.878 102.782 253.969 102.409C254.079 102.047 254.217 101.676 254.384 101.296C254.569 100.926 254.82 100.615 255.135 100.363C255.45 100.11 255.831 99.9164 256.275 99.7814C257.481 99.4155 258.6 99.6404 259.631 100.456C260.677 101.267 261.463 102.542 261.99 104.278C262.482 105.9 262.556 107.359 262.213 108.655C261.884 109.946 261.105 110.997 259.878 111.809L259.217 110.716C260.126 110.095 260.708 109.276 260.964 108.258C261.219 107.24 261.149 106.078 260.752 104.771C260.33 103.379 259.753 102.355 259.021 101.699C258.307 101.054 257.556 100.851 256.767 101.09C256.465 101.182 256.21 101.322 256.001 101.511C255.792 101.7 255.631 101.944 255.518 102.245C255.42 102.541 255.338 102.84 255.273 103.142C255.222 103.44 255.196 103.816 255.193 104.272C255.209 104.737 255.231 105.146 255.259 105.498C255.292 105.864 255.344 106.319 255.414 106.862C255.454 107.304 255.478 107.641 255.486 107.874C255.509 108.103 255.528 108.426 255.545 108.844C255.581 109.272 255.589 109.607 255.568 109.848C255.562 110.085 255.542 110.381 255.508 110.736C255.479 111.105 255.429 111.403 255.356 111.629C255.283 111.855 255.186 112.103 255.065 112.375C254.948 112.662 254.807 112.893 254.641 113.069C254.475 113.244 254.266 113.41 254.015 113.564C253.783 113.729 253.516 113.857 253.215 113.948Z" fill="#942BBD"/>
<path d="M262.042 127.906L261.53 126.647C262.711 125.988 263.545 125.123 264.031 124.051C264.52 122.994 264.646 121.77 264.409 120.38C264.088 118.502 263.297 117.123 262.036 116.243C260.777 115.377 259.157 115.114 257.176 115.452C255.195 115.791 253.754 116.577 252.854 117.811C251.954 119.045 251.665 120.608 251.988 122.501C252.238 123.965 252.819 125.136 253.73 126.015C254.643 126.909 255.804 127.381 257.213 127.429L257.129 128.813C255.393 128.714 253.959 128.114 252.828 127.014C251.696 125.914 250.98 124.484 250.68 122.724C250.296 120.477 250.647 118.568 251.734 116.998C252.837 115.44 254.572 114.459 256.937 114.055C259.318 113.648 261.28 113.998 262.823 115.104C264.369 116.225 265.333 117.909 265.717 120.157C265.99 121.754 265.81 123.238 265.176 124.609C264.543 125.98 263.498 127.079 262.042 127.906Z" fill="#942BBD"/>
<path d="M258.636 136.048L258.715 137.847L252.732 143.154L252.655 141.4L258.636 136.048ZM252.166 130.251L266.867 129.607L267.199 137.182C267.269 138.785 266.891 140.093 266.065 141.105C265.238 142.118 264.173 142.652 262.869 142.709C261.596 142.765 260.548 142.331 259.727 141.406C258.921 140.495 258.482 139.216 258.41 137.567L258.139 131.386L252.227 131.645L252.166 130.251ZM259.488 131.327L259.748 137.261C259.87 140.048 260.913 141.399 262.876 141.313C263.865 141.269 264.621 140.883 265.145 140.155C265.683 139.426 265.922 138.372 265.862 136.993L265.602 131.059L259.488 131.327Z" fill="#942BBD"/>
<path d="M264.543 147.235C263.493 146.08 261.967 145.421 259.964 145.258C257.96 145.094 256.355 145.49 255.148 146.445C253.955 147.416 253.282 148.843 253.128 150.727C252.974 152.611 253.408 154.121 254.429 155.258C255.464 156.396 256.984 157.047 258.987 157.21C260.991 157.374 262.604 156.972 263.827 156.003C265.048 155.049 265.735 153.638 265.888 151.769C266.041 149.9 265.592 148.389 264.543 147.235ZM260.079 143.845C262.486 144.042 264.315 144.861 265.567 146.302C266.833 147.76 267.373 149.618 267.189 151.875C267.076 153.251 266.676 154.467 265.988 155.525C265.299 156.582 264.33 157.391 263.08 157.951C261.844 158.527 260.442 158.751 258.872 158.623C256.465 158.427 254.635 157.607 253.384 156.166C252.147 154.725 251.621 152.876 251.805 150.619C251.989 148.361 252.809 146.615 254.265 145.379C255.734 144.16 257.672 143.648 260.079 143.845Z" fill="#942BBD"/>
<path d="M265.762 161.605L265.474 162.97L252.397 160.214L250.058 171.311L248.737 171.032L251.363 158.571L265.762 161.605Z" fill="#942BBD"/>
<path d="M262.464 176.329L262.014 177.65L249.361 173.348L245.71 184.084L244.432 183.649L248.532 171.592L262.464 176.329Z" fill="#942BBD"/>
<path d="M239.744 207.653C241.544 208.706 243.257 208.97 244.885 208.445C246.513 207.92 247.91 206.661 249.077 204.667C250.243 202.673 250.66 200.832 250.328 199.142C250 197.474 248.956 196.125 247.196 195.094C245.409 194.049 243.704 193.799 242.082 194.344C240.459 194.89 239.046 196.192 237.842 198.25C237.531 198.781 237.329 199.201 237.234 199.511L236.122 199.095C236.284 198.581 236.52 198.059 236.83 197.528C238.194 195.198 239.855 193.71 241.813 193.066C243.764 192.435 245.781 192.729 247.866 193.949C249.924 195.153 251.16 196.754 251.573 198.751C251.987 200.747 251.534 202.872 250.216 205.125C248.838 207.481 247.168 208.998 245.207 209.676C243.247 210.354 241.198 210.068 239.062 208.818C237.858 208.114 237.052 207.338 236.644 206.491C236.228 205.657 236.248 204.851 236.702 204.074C236.944 203.66 237.327 203.363 237.85 203.182C238.365 203.014 238.849 203.063 239.302 203.328L239.943 204.015L240.095 203.844C239.484 203.226 239.183 202.433 239.193 201.465C239.195 200.511 239.488 199.535 240.071 198.538C240.685 197.489 241.373 196.745 242.134 196.304C242.889 195.876 243.564 195.837 244.159 196.185C245.156 196.769 245.324 198.04 244.664 200L242.764 205.119L243.036 205.278C243.528 205.566 244.094 205.505 244.732 205.097C245.363 204.702 245.944 204.051 246.474 203.144C246.997 202.251 247.276 201.432 247.311 200.689C247.339 199.958 247.104 199.394 246.606 198.998L247.441 198.105C248.127 198.715 248.468 199.514 248.463 200.502C248.464 201.511 248.131 202.585 247.465 203.724C246.76 204.928 245.95 205.792 245.035 206.317C244.112 206.855 243.301 206.919 242.602 206.51L238.912 204.351C238.705 204.23 238.482 204.195 238.244 204.246C237.997 204.311 237.817 204.44 237.704 204.634C237.477 205.023 237.553 205.502 237.932 206.071C238.324 206.648 238.928 207.176 239.744 207.653ZM243.5 197.312C242.827 196.918 241.983 197.588 240.968 199.323C240.369 200.346 240.045 201.286 239.996 202.143C239.951 203.021 240.194 203.615 240.725 203.926L241.813 204.562L243.647 199.822C244.132 198.489 244.083 197.653 243.5 197.312Z" fill="#F32D7A"/>
<path d="M222.591 222.922C221.673 222.103 221.298 221.024 221.467 219.687C221.636 218.37 222.306 217.058 223.474 215.748C224.633 214.45 225.892 213.614 227.252 213.239C228.613 212.886 230.03 213.044 231.502 213.715L230.898 214.865C228.426 213.985 226.296 214.547 224.508 216.55C223.609 217.557 223.065 218.55 222.876 219.527C222.677 220.516 222.874 221.275 223.467 221.804C223.669 221.984 223.883 222.105 224.11 222.166C224.347 222.238 224.572 222.267 224.784 222.255C224.997 222.264 225.259 222.207 225.571 222.083C225.873 221.97 226.126 221.855 226.332 221.737C226.549 221.629 226.842 221.448 227.21 221.193C227.578 220.939 227.863 220.731 228.067 220.571C228.281 220.421 228.597 220.19 229.015 219.88C229.096 219.811 229.158 219.765 229.199 219.742C229.678 219.385 230.081 219.091 230.408 218.86C230.746 218.639 231.146 218.394 231.609 218.123C232.061 217.863 232.47 217.676 232.836 217.559C233.202 217.464 233.591 217.389 234.002 217.334C234.414 217.3 234.81 217.351 235.19 217.489C235.57 217.627 235.933 217.851 236.28 218.16C237.22 218.999 237.61 220.072 237.451 221.377C237.302 222.692 236.624 224.026 235.415 225.381C234.286 226.645 233.08 227.468 231.794 227.849C230.521 228.24 229.218 228.123 227.886 227.497L228.475 226.364C229.478 226.817 230.481 226.888 231.483 226.576C232.485 226.264 233.441 225.599 234.35 224.581C235.319 223.495 235.892 222.469 236.071 221.503C236.251 220.558 236.034 219.81 235.418 219.261C235.183 219.051 234.931 218.906 234.66 218.826C234.39 218.746 234.098 218.736 233.782 218.796C233.478 218.867 233.18 218.953 232.889 219.054C232.608 219.166 232.273 219.339 231.882 219.573C231.493 219.829 231.156 220.061 230.87 220.268C230.574 220.487 230.213 220.768 229.786 221.111C229.43 221.375 229.154 221.572 228.959 221.7C228.776 221.837 228.51 222.022 228.162 222.255C227.815 222.508 227.533 222.689 227.317 222.797C227.111 222.915 226.848 223.052 226.527 223.208C226.197 223.376 225.916 223.487 225.686 223.543C225.455 223.598 225.192 223.645 224.897 223.683C224.592 223.732 224.321 223.732 224.084 223.681C223.847 223.631 223.598 223.539 223.335 223.405C223.074 223.293 222.826 223.131 222.591 222.922Z" fill="#942BBD"/>
<path d="M215.299 237.742L216.106 236.648C217.284 237.312 218.457 237.572 219.625 237.427C220.782 237.292 221.892 236.761 222.954 235.833C224.388 234.58 225.152 233.185 225.244 231.65C225.326 230.125 224.705 228.605 223.382 227.092C222.06 225.578 220.637 224.76 219.115 224.636C217.592 224.512 216.108 225.082 214.662 226.346C213.544 227.323 212.848 228.429 212.573 229.665C212.287 230.911 212.491 232.147 213.185 233.374L211.961 234.025C211.139 232.492 210.902 230.956 211.251 229.417C211.599 227.878 212.445 226.521 213.789 225.346C215.506 223.846 217.317 223.149 219.223 223.256C221.128 223.384 222.87 224.352 224.45 226.159C226.039 227.978 226.764 229.834 226.626 231.727C226.477 233.631 225.544 235.333 223.827 236.833C222.607 237.899 221.247 238.52 219.747 238.695C218.247 238.871 216.764 238.553 215.299 237.742Z" fill="#942BBD"/>
<path d="M206.557 239.104L205.064 240.11L197.415 237.774L198.87 236.794L206.557 239.104ZM208.127 230.56L216.347 242.765L210.058 247.001C208.726 247.897 207.413 248.257 206.119 248.08C204.824 247.903 203.812 247.273 203.083 246.191C202.371 245.133 202.195 244.013 202.556 242.83C202.912 241.667 203.775 240.625 205.143 239.704L210.275 236.247L206.97 231.339L208.127 230.56ZM211.029 237.367L206.103 240.685C203.789 242.244 203.18 243.838 204.278 245.468C204.831 246.289 205.555 246.733 206.45 246.799C207.353 246.878 208.377 246.532 209.521 245.761L214.448 242.443L211.029 237.367Z" fill="#942BBD"/>
<path d="M200.125 249.964C200.565 248.467 200.333 246.821 199.43 245.025C198.528 243.229 197.354 242.065 195.911 241.531C194.461 241.018 192.891 241.186 191.203 242.034C189.514 242.883 188.45 244.039 188.011 245.503C187.578 246.98 187.813 248.616 188.716 250.412C189.618 252.208 190.802 253.376 192.265 253.916C193.715 254.463 195.278 254.315 196.953 253.473C198.629 252.631 199.686 251.461 200.125 249.964ZM200.697 244.388C201.782 246.546 202.034 248.535 201.454 250.354C200.868 252.193 199.563 253.621 197.539 254.639C196.306 255.259 195.059 255.55 193.798 255.512C192.537 255.475 191.342 255.068 190.213 254.293C189.078 253.537 188.157 252.456 187.449 251.048C186.364 248.891 186.112 246.902 186.692 245.083C187.278 243.277 188.583 241.866 190.607 240.848C192.63 239.831 194.548 239.622 196.361 240.222C198.167 240.842 199.612 242.231 200.697 244.388Z" fill="#942BBD"/>
<path d="M188.447 258.486L187.131 258.95L182.692 246.343L171.996 250.11L171.547 248.837L183.559 244.607L188.447 258.486Z" fill="#942BBD"/>
<path d="M174.179 263.303L172.818 263.606L169.918 250.559L158.848 253.019L158.555 251.702L170.987 248.939L174.179 263.303Z" fill="#942BBD"/>
<path d="M135.602 260.199C135.641 262.283 136.308 263.884 137.604 265C138.9 266.116 140.703 266.652 143.013 266.609C145.322 266.566 147.111 265.962 148.38 264.798C149.633 263.65 150.241 262.056 150.203 260.016C150.165 257.946 149.49 256.361 148.179 255.26C146.868 254.16 145.021 253.632 142.636 253.676C142.021 253.688 141.557 253.734 141.243 253.815L141.019 252.649C141.542 252.519 142.11 252.448 142.725 252.437C145.425 252.386 147.56 253.029 149.13 254.365C150.685 255.701 151.485 257.577 151.53 259.991C151.575 262.376 150.853 264.265 149.363 265.658C147.874 267.051 145.825 267.772 143.215 267.82C140.486 267.871 138.321 267.237 136.721 265.916C135.121 264.596 134.298 262.698 134.252 260.224C134.226 258.829 134.468 257.737 134.978 256.947C135.474 256.158 136.171 255.755 137.071 255.738C137.551 255.729 138.004 255.901 138.431 256.253C138.843 256.605 139.053 257.044 139.063 257.569L138.81 258.473L139.036 258.514C139.245 257.67 139.765 257 140.596 256.505C141.412 256.009 142.397 255.751 143.552 255.729C144.767 255.707 145.761 255.906 146.534 256.326C147.292 256.747 147.677 257.303 147.69 257.993C147.712 259.147 146.714 259.954 144.697 260.411L139.338 261.457L139.344 261.772C139.355 262.341 139.701 262.793 140.382 263.125C141.048 263.458 141.906 263.614 142.956 263.594C143.991 263.575 144.835 263.387 145.489 263.03C146.127 262.673 146.485 262.178 146.564 261.547L147.761 261.794C147.598 262.698 147.093 263.405 146.248 263.916C145.388 264.442 144.297 264.717 142.978 264.742C141.583 264.768 140.423 264.527 139.499 264.019C138.559 263.512 138.082 262.853 138.066 262.043L137.987 257.769C137.982 257.529 137.896 257.32 137.727 257.143C137.544 256.967 137.34 256.881 137.115 256.885C136.665 256.893 136.296 257.208 136.007 257.828C135.719 258.464 135.584 259.254 135.602 260.199ZM146.385 258.017C146.371 257.237 145.359 256.866 143.349 256.903C142.164 256.926 141.193 257.139 140.435 257.543C139.663 257.962 139.283 258.48 139.294 259.095L139.318 260.354L144.319 259.451C145.709 259.17 146.398 258.692 146.385 258.017Z" fill="#F32D7A"/>
<path d="M113.609 253.549C113.829 252.339 114.553 251.457 115.782 250.903C116.994 250.361 118.463 250.247 120.19 250.561C121.902 250.873 123.272 251.511 124.301 252.476C125.312 253.452 125.916 254.744 126.112 256.35L124.816 256.434C124.277 253.866 122.686 252.342 120.045 251.861C118.716 251.62 117.586 251.673 116.654 252.022C115.706 252.368 115.162 252.932 115.019 253.714C114.971 253.98 114.98 254.226 115.045 254.451C115.109 254.691 115.2 254.898 115.321 255.073C115.424 255.259 115.61 255.453 115.879 255.655C116.132 255.853 116.363 256.009 116.571 256.124C116.776 256.252 117.083 256.407 117.492 256.589C117.902 256.77 118.228 256.905 118.47 256.995C118.711 257.1 119.072 257.249 119.555 257.444C119.656 257.478 119.727 257.506 119.768 257.529C120.323 257.751 120.783 257.942 121.151 258.1C121.516 258.273 121.934 258.487 122.407 258.74C122.864 258.991 123.238 259.242 123.528 259.493C123.8 259.756 124.067 260.049 124.328 260.371C124.573 260.705 124.735 261.07 124.815 261.465C124.896 261.861 124.894 262.288 124.811 262.745C124.586 263.985 123.875 264.877 122.678 265.422C121.478 265.981 119.986 266.098 118.2 265.773C116.532 265.47 115.201 264.87 114.205 263.972C113.207 263.089 112.628 261.916 112.467 260.454L113.741 260.366C113.878 261.458 114.34 262.35 115.129 263.042C115.918 263.735 116.984 264.203 118.327 264.447C119.758 264.708 120.933 264.662 121.851 264.311C122.751 263.971 123.275 263.396 123.423 262.584C123.479 262.274 123.471 261.983 123.399 261.711C123.326 261.438 123.182 261.183 122.966 260.946C122.747 260.723 122.519 260.514 122.28 260.318C122.038 260.137 121.716 259.941 121.312 259.73C120.891 259.532 120.517 259.365 120.191 259.229C119.85 259.091 119.422 258.929 118.907 258.744C118.495 258.578 118.184 258.445 117.973 258.345C117.76 258.261 117.463 258.131 117.084 257.955C116.687 257.791 116.385 257.645 116.18 257.516C115.972 257.402 115.718 257.249 115.418 257.057C115.102 256.863 114.861 256.682 114.693 256.514C114.525 256.346 114.348 256.146 114.162 255.914C113.961 255.679 113.82 255.448 113.739 255.22C113.659 254.992 113.607 254.731 113.584 254.437C113.544 254.155 113.552 253.859 113.609 253.549Z" fill="#942BBD"/>
<path d="M97.1882 255.038L98.5422 255.158C98.5882 256.51 98.977 257.647 99.7086 258.569C100.426 259.487 101.457 260.158 102.802 260.582C104.619 261.154 106.207 261.081 107.566 260.361C108.911 259.637 109.885 258.316 110.489 256.399C111.093 254.482 111.052 252.841 110.365 251.476C109.679 250.112 108.42 249.141 106.588 248.564C105.172 248.118 103.865 248.099 102.667 248.508C101.454 248.912 100.504 249.73 99.8179 250.96L98.625 250.254C99.5064 248.755 100.695 247.753 102.19 247.249C103.686 246.745 105.285 246.762 106.987 247.298C109.162 247.983 110.7 249.168 111.6 250.851C112.482 252.545 112.563 254.536 111.841 256.825C111.115 259.128 109.908 260.714 108.219 261.581C106.516 262.444 104.577 262.533 102.403 261.848C100.858 261.361 99.6198 260.523 98.6893 259.333C97.7589 258.143 97.2585 256.712 97.1882 255.038Z" fill="#942BBD"/>
<path d="M91.4939 248.288L89.8594 247.534L87.8835 239.784L89.4772 240.519L91.4939 248.288ZM99.6113 245.193L93.4484 258.555L86.5629 255.379C85.1055 254.707 84.1162 253.772 83.5952 252.574C83.0742 251.375 83.087 250.183 83.6336 248.998C84.1676 247.841 85.0338 247.109 86.2322 246.802C87.4107 246.504 88.7492 246.7 90.2475 247.391L95.8662 249.982L98.3445 244.609L99.6113 245.193ZM95.3007 251.208L89.9068 248.72C87.3733 247.552 85.695 247.86 84.8721 249.644C84.4574 250.543 84.454 251.392 84.8617 252.191C85.2632 253.004 86.0905 253.7 87.3436 254.278L92.7376 256.765L95.3007 251.208Z" fill="#942BBD"/>
<path d="M78.8711 248.42C80.3786 248.018 81.6656 246.966 82.7319 245.262C83.7982 243.558 84.1848 241.951 83.8915 240.44C83.5776 238.934 82.6196 237.68 81.0175 236.677C79.4154 235.675 77.8749 235.365 76.3959 235.749C74.9091 236.146 73.6325 237.196 72.5661 238.9C71.4998 240.604 71.1156 242.221 71.4136 243.753C71.6989 245.276 72.6362 246.535 74.2256 247.53C75.815 248.524 77.3635 248.821 78.8711 248.42ZM83.9335 246.014C82.6523 248.061 81.0838 249.309 79.228 249.758C77.3515 250.212 75.4533 249.838 73.5333 248.636C72.3635 247.904 71.4673 246.989 70.8447 245.892C70.2221 244.794 69.9494 243.562 70.0265 242.194C70.083 240.832 70.529 239.483 71.3645 238.148C72.6457 236.101 74.2142 234.853 76.07 234.404C77.9179 233.968 79.8018 234.35 81.7218 235.552C83.6418 236.754 84.8158 238.285 85.244 240.145C85.6515 242.011 85.2147 243.967 83.9335 246.014Z" fill="#942BBD"/>
<path d="M65.537 242.87L64.4567 241.988L72.9128 231.638L64.1312 224.463L64.9854 223.418L74.8472 231.475L65.537 242.87Z" fill="#942BBD"/>
<path d="M53.9821 233.186L53.0139 232.182L62.636 222.906L54.7657 214.742L55.7376 213.805L64.5761 222.974L53.9821 233.186Z" fill="#942BBD"/>
<path d="M36.4905 198.629C34.7318 199.749 33.7142 201.153 33.4375 202.84C33.1608 204.528 33.6428 206.346 34.8836 208.295C36.1245 210.243 37.5721 211.455 39.2266 211.931C40.8604 212.402 42.5377 212.09 44.2584 210.994C46.0044 209.882 47.0054 208.48 47.2614 206.788C47.5174 205.095 47.0048 203.243 45.7237 201.232C45.3934 200.713 45.112 200.341 44.8795 200.115L45.7576 199.316C46.1408 199.694 46.4976 200.143 46.8279 200.662C48.2783 202.939 48.8427 205.096 48.5212 207.132C48.1917 209.156 47.0085 210.817 44.9714 212.114C42.9597 213.395 40.9713 213.763 39.0062 213.219C37.041 212.674 35.3575 211.301 33.9555 209.099C32.4891 206.797 31.9022 204.618 32.1949 202.565C32.4876 200.511 33.6777 198.82 35.7654 197.49C36.942 196.741 38.0003 196.378 38.9402 196.402C39.8721 196.413 40.5798 196.798 41.0632 197.557C41.321 197.962 41.4109 198.438 41.3329 198.986C41.2468 199.521 40.9823 199.93 40.5395 200.212L39.6353 200.467L39.7182 200.681C40.5476 200.42 41.3903 200.514 42.2464 200.965C43.0944 201.403 43.8286 202.109 44.449 203.084C45.1017 204.108 45.45 205.06 45.494 205.939C45.53 206.805 45.2569 207.424 44.6749 207.795C43.7007 208.415 42.4926 207.984 41.0506 206.502L37.365 202.473L37.0993 202.642C36.6185 202.949 36.4139 203.479 36.4854 204.234C36.549 204.976 36.8627 205.79 37.4267 206.675C37.9827 207.548 38.5834 208.17 39.229 208.542C39.8664 208.901 40.475 208.949 41.0548 208.686L41.4676 209.837C40.6118 210.169 39.7454 210.107 38.8687 209.652C37.9712 209.192 37.1679 208.405 36.4588 207.292C35.7095 206.115 35.3105 205 35.2619 203.946C35.2051 202.88 35.5184 202.129 36.2016 201.694L39.8075 199.397C40.0099 199.268 40.1428 199.086 40.206 198.85C40.2611 198.602 40.2282 198.383 40.1074 198.193C39.8657 197.813 39.4049 197.662 38.725 197.739C38.0324 197.825 37.2876 198.121 36.4905 198.629ZM43.9739 206.694C44.6319 206.275 44.421 205.218 43.3413 203.522C42.7048 202.523 42.0166 201.805 41.2767 201.369C40.5161 200.929 39.8764 200.874 39.3577 201.204L38.2949 201.881L41.6733 205.678C42.6377 206.718 43.4046 207.056 43.9739 206.694Z" fill="#F32D7A"/>
<path d="M30.7585 176.407C31.9068 175.966 33.037 176.127 34.1489 176.889C35.2415 177.642 36.1023 178.838 36.7312 180.477C37.3548 182.101 37.5218 183.604 37.2323 184.984C36.9234 186.356 36.1338 187.543 34.8634 188.545L34.1178 187.481C36.0316 185.686 36.5074 183.535 35.5452 181.029C35.0614 179.768 34.4282 178.83 33.6457 178.215C32.8578 177.585 32.0927 177.413 31.3505 177.698C31.0985 177.795 30.8932 177.93 30.7348 178.103C30.5624 178.282 30.433 178.468 30.3467 178.662C30.2411 178.847 30.172 179.107 30.1394 179.44C30.1015 179.76 30.0879 180.039 30.0985 180.275C30.0951 180.518 30.1224 180.861 30.1802 181.305C30.2381 181.748 30.2917 182.097 30.3411 182.351C30.3765 182.611 30.4365 182.998 30.5212 183.511C30.5449 183.615 30.5577 183.69 30.5599 183.738C30.6575 184.327 30.7342 184.819 30.7899 185.216C30.8316 185.618 30.8669 186.086 30.8956 186.621C30.919 187.143 30.8987 187.592 30.8349 187.97C30.7518 188.339 30.6406 188.72 30.5014 189.11C30.3429 189.493 30.1154 189.821 29.8191 190.095C29.5227 190.37 29.1575 190.59 28.7234 190.757C27.5471 191.208 26.4153 191.065 25.3281 190.325C24.2269 189.591 23.351 188.377 22.7006 186.682C22.0932 185.1 21.9143 183.65 22.1639 182.333C22.3995 181.022 23.1003 179.917 24.2661 179.02L25.0037 180.062C24.1417 180.747 23.6199 181.606 23.4383 182.639C23.2567 183.673 23.4104 184.827 23.8996 186.101C24.421 187.46 25.0703 188.44 25.8475 189.041C26.6053 189.634 27.3693 189.783 28.1395 189.487C28.4335 189.374 28.6781 189.216 28.8732 189.012C29.0682 188.809 29.2111 188.553 29.3017 188.245C29.3784 187.943 29.4384 187.639 29.4817 187.333C29.5109 187.032 29.5106 186.655 29.4808 186.2C29.4315 185.737 29.3801 185.331 29.3265 184.982C29.2675 184.619 29.1833 184.17 29.0738 183.633C29.0019 183.195 28.9537 182.86 28.929 182.628C28.8904 182.402 28.8475 182.081 28.8004 181.665C28.7339 181.241 28.7024 180.908 28.7058 180.665C28.6952 180.429 28.6937 180.132 28.7015 179.775C28.7039 179.405 28.7332 179.104 28.7893 178.874C28.8455 178.644 28.9243 178.388 29.0257 178.109C29.1217 177.815 29.2463 177.574 29.3993 177.387C29.5524 177.199 29.7485 177.02 29.9877 176.848C30.2075 176.667 30.4644 176.52 30.7585 176.407Z" fill="#942BBD"/>
<path d="M20.9494 163.156L21.5504 164.375C20.4196 165.116 19.6502 166.039 19.242 167.144C18.8302 168.233 18.7926 169.463 19.1292 170.832C19.5839 172.682 20.4719 174.001 21.793 174.788C23.1106 175.561 24.7453 175.708 26.6972 175.228C28.6491 174.748 30.0296 173.86 30.8387 172.565C31.6479 171.269 31.8233 169.689 31.365 167.825C31.0105 166.383 30.3474 165.256 29.3756 164.444C28.4002 163.618 27.2084 163.231 25.8003 163.284L25.7839 161.898C27.523 161.872 28.9963 162.367 30.2038 163.383C31.4112 164.4 32.228 165.774 32.6541 167.508C33.1983 169.722 32.9852 171.651 32.0146 173.295C31.0259 174.928 29.3662 176.031 27.0356 176.604C24.6904 177.181 22.7084 176.973 21.0898 175.981C19.4676 174.974 18.3843 173.363 17.8401 171.149C17.4534 169.576 17.5266 168.083 18.0597 166.67C18.5928 165.257 19.556 164.085 20.9494 163.156Z" fill="#942BBD"/>
<path d="M23.7645 154.795L23.5582 153.007L29.1498 147.289L29.3509 149.032L23.7645 154.795ZM30.6297 160.119L16.0116 161.805L15.1428 154.272C14.9588 152.678 15.2432 151.347 15.9957 150.278C16.7482 149.21 17.7727 148.601 19.0691 148.452C20.3357 148.306 21.4115 148.665 22.2963 149.529C23.1646 150.38 23.6932 151.625 23.8823 153.264L24.5913 159.411L30.4699 158.733L30.6297 160.119ZM23.2502 159.566L22.5696 153.665C22.2499 150.893 21.114 149.62 19.1619 149.845C18.1784 149.959 17.4514 150.397 16.9809 151.161C16.4954 151.927 16.3317 152.995 16.4899 154.366L17.1705 160.267L23.2502 159.566Z" fill="#942BBD"/>
<path d="M17.0525 144.098C18.175 145.181 19.7412 145.739 21.7509 145.772C23.7607 145.804 25.3365 145.305 26.4784 144.273C27.6055 143.226 28.1844 141.758 28.2151 139.868C28.2458 137.978 27.7147 136.5 26.6219 135.432C25.5141 134.364 23.9553 133.813 21.9456 133.781C19.9358 133.748 18.3524 134.255 17.1953 135.301C16.0384 136.333 15.4447 137.786 15.4143 139.66C15.3838 141.535 15.9299 143.014 17.0525 144.098ZM21.7279 147.189C19.3132 147.15 17.4343 146.452 16.0912 145.095C14.7333 143.722 14.0727 141.904 14.1095 139.639C14.1319 138.259 14.452 137.019 15.07 135.919C15.6879 134.819 16.6021 133.949 17.8127 133.308C19.0085 132.653 20.3938 132.338 21.9686 132.363C24.3833 132.402 26.2622 133.101 27.6053 134.458C28.9335 135.814 29.5792 137.625 29.5424 139.89C29.5057 142.154 28.8014 143.951 27.4297 145.279C26.0432 146.591 24.1426 147.228 21.7279 147.189Z" fill="#942BBD"/>
<path d="M14.8599 129.802L15.0489 128.42L28.2906 130.232L29.8276 118.996L31.1652 119.179L29.4391 131.797L14.8599 129.802Z" fill="#942BBD"/>
<path d="M17.0896 114.884L17.4424 113.535L30.3729 116.915L33.2409 105.944L34.547 106.285L31.3262 118.606L17.0896 114.884Z" fill="#942BBD"/>
</g>
<defs>
<clipPath id="clip0_256_32423">
<rect width="281.25" height="281.25" fill="white" transform="translate(0.25 0.601562)"/>
</clipPath>
</defs>
</svg>
