<svg width="152" height="151" viewBox="0 0 152 151" fill="none" xmlns="http://www.w3.org/2000/svg">
<path d="M76.1115 150.552C117.678 150.552 151.375 116.856 151.375 75.2901C151.375 33.7238 117.678 0.0273438 76.1115 0.0273438C34.5451 0.0273438 0.849609 33.7238 0.849609 75.2901C0.849609 116.856 34.5451 150.552 76.1115 150.552Z" fill="#161616"/>
<path d="M73.5629 115.001C75.1004 116.538 77.5753 116.538 79.1128 115.001L110.819 83.2942C112.113 82.0004 112.469 79.8824 111.363 78.4199C110.013 76.6387 107.462 76.5075 105.943 78.0262L86.6311 97.3567C84.1561 99.8317 79.9368 98.088 79.9368 94.5817V38.0507C79.9368 36.2132 78.6812 34.4881 76.8624 34.2256C74.65 33.9068 72.7554 35.6321 72.7554 37.7696V94.5634C72.7554 98.0509 68.5379 99.8134 66.0629 97.3384L46.9375 78.213C45.6438 76.9193 43.5258 76.5629 42.0633 77.6692C40.282 79.0192 40.1508 81.5695 41.6696 83.0882L73.5629 115.001Z" fill="white" stroke="white" stroke-width="4.07156" stroke-miterlimit="10"/>
</svg>
