<svg width="329" height="329" viewBox="0 0 329 329" fill="none" xmlns="http://www.w3.org/2000/svg">
<path d="M164.112 7.15625C76.2308 7.15625 4.98242 78.4065 4.98242 166.288C4.98242 254.169 76.2308 325.418 164.112 325.418C251.993 325.418 323.244 254.169 323.244 166.288C323.244 78.4065 251.993 7.15625 164.112 7.15625ZM164.112 260.975C111.818 260.975 69.4246 218.581 69.4246 166.288C69.4246 113.994 111.818 71.6002 164.112 71.6002C216.406 71.6002 258.8 113.994 258.8 166.288C258.8 218.581 216.406 260.975 164.112 260.975Z" fill="#161616"/>
<path d="M116.458 53.5396C117.019 54.6581 116.891 55.8688 116.077 57.1721C115.252 58.4569 113.896 59.5728 112.008 60.5192C110.174 61.4382 108.391 61.8389 106.658 61.7215C104.924 61.6038 103.511 60.9358 102.419 59.7171L103.793 58.5461C104.748 59.4441 105.858 59.9429 107.124 60.0424C108.38 60.1239 109.732 59.8014 111.181 59.0754C112.593 58.3679 113.624 57.5873 114.274 56.7337C114.943 55.8708 115.107 55.1003 114.767 54.422C114.684 54.2569 114.569 54.1195 114.423 54.0095C114.294 53.8903 114.129 53.8126 113.927 53.776C113.716 53.7214 113.515 53.6847 113.322 53.6665C113.129 53.6486 112.872 53.6624 112.552 53.7085C112.231 53.7547 111.956 53.8008 111.726 53.847C111.506 53.8657 111.194 53.93 110.791 54.0405C110.378 54.1328 110.053 54.2156 109.814 54.2892C109.595 54.3535 109.251 54.4455 108.783 54.5653C108.389 54.6942 108.082 54.7908 107.862 54.8552C107.211 55.0208 106.661 55.159 106.211 55.2694C105.78 55.3707 105.262 55.4814 104.657 55.6012C104.052 55.7211 103.529 55.7765 103.089 55.7678C102.667 55.7498 102.231 55.7045 101.782 55.6317C101.342 55.5312 100.961 55.3663 100.64 55.1374C100.309 54.8901 100.043 54.5647 99.841 54.1615C99.2804 53.0431 99.4032 51.869 100.209 50.639C101.015 49.4093 102.362 48.3211 104.25 47.3747C108.064 45.4631 111.141 45.6526 113.482 47.9433L112.121 49.1415C110.267 47.5016 107.937 47.3847 105.132 48.7908C103.684 49.5167 102.634 50.2837 101.984 51.0915C101.352 51.89 101.201 52.6193 101.532 53.2792C101.615 53.4442 101.721 53.5863 101.849 53.7055C101.996 53.8154 102.175 53.8977 102.386 53.9526C102.606 53.9798 102.817 54.0118 103.019 54.0482C103.211 54.0664 103.473 54.0615 103.803 54.0336C104.142 53.9782 104.426 53.9277 104.656 53.8816C104.885 53.8354 105.215 53.7619 105.646 53.6604C106.095 53.5499 106.444 53.4671 106.691 53.4117C106.948 53.3289 107.328 53.2184 107.832 53.0805C107.933 53.0528 108.002 53.0297 108.039 53.0115C108.103 53.0023 108.195 52.9792 108.314 52.9423C108.937 52.7675 109.409 52.6339 109.73 52.5419C110.051 52.4499 110.505 52.3486 111.092 52.2381C111.67 52.1089 112.133 52.0261 112.481 51.989C112.83 51.952 113.238 51.9423 113.706 51.9603C114.182 51.9505 114.568 52.01 114.861 52.1379C115.173 52.2568 115.471 52.4401 115.756 52.6875C116.05 52.9072 116.284 53.1912 116.458 53.5396Z" fill="white"/>
<path d="M132.944 41.5838L131.407 42.432C130.549 41.4361 129.467 40.8139 128.16 40.5653C126.866 40.291 125.418 40.4104 123.817 40.9237C121.747 41.5871 120.292 42.592 119.453 43.9375C118.607 45.2639 118.469 46.8156 119.039 48.5928C119.614 50.3896 120.635 51.5916 122.1 52.1986C123.559 52.7864 125.323 52.7485 127.393 52.0848C129.092 51.5403 130.412 50.7513 131.351 49.7179C132.284 48.6651 132.723 47.48 132.667 46.1629L134.469 45.9404C134.585 47.7125 134.044 49.2855 132.848 50.6595C131.652 52.0335 130.009 53.0556 127.919 53.7254C125.38 54.5391 123.136 54.5585 121.187 53.7836C119.257 53.0025 117.925 51.4693 117.193 49.1845C116.467 46.9189 116.666 44.917 117.788 43.179C118.905 41.4212 120.742 40.1326 123.3 39.3125C125.195 38.7052 126.989 38.5932 128.684 38.9759C130.398 39.3525 131.818 40.2218 132.944 41.5838Z" fill="white"/>
<path d="M136.227 36.1297L138.105 35.8018L138.059 39.6509L138.793 39.7414L140.538 49.7415L138.659 50.0696L136.227 36.1297ZM145.715 36.2848C143.715 36.6339 142.06 37.2871 140.749 38.2446C139.434 39.1818 138.874 40.2062 139.068 41.3172L138.667 41.1685C138.385 39.5522 138.856 38.1377 140.081 36.9246C141.326 35.708 143.12 34.8954 145.464 34.4863L147.131 34.1953L147.443 35.9833L145.715 36.2848Z" fill="white"/>
<path d="M151.223 40.618C151.303 42.5032 151.959 43.9326 153.191 44.9067C154.422 45.8603 156.103 46.2918 158.234 46.2013C160.385 46.11 162.034 45.5371 163.18 44.4827C164.345 43.4071 164.888 41.9267 164.808 40.0415C164.729 38.1771 164.063 36.7685 162.812 35.8156C161.58 34.8418 159.888 34.4003 157.737 34.4916C155.606 34.5821 153.968 35.1648 152.823 36.2396C151.677 37.294 151.144 38.7536 151.223 40.618ZM149.287 40.7003C149.185 38.303 149.885 36.4157 151.387 35.0384C152.909 33.66 155.002 32.9143 157.665 32.8012C160.165 32.6951 162.273 33.2832 163.99 34.5649C165.706 35.8264 166.614 37.6249 166.713 39.9608C166.815 42.3579 166.105 44.2559 164.584 45.6548C163.063 47.0534 160.97 47.8094 158.307 47.9224C155.664 48.0347 153.525 47.4584 151.891 46.1933C150.257 44.9285 149.389 43.0974 149.287 40.7003Z" fill="white"/>
<path d="M171.866 26.3164L173.77 26.4295L172.517 47.5256L170.613 47.4125L171.866 26.3164Z" fill="white"/>
<path d="M177.895 26.7422L179.792 26.938L177.624 47.9598L175.727 47.764L177.895 26.7422Z" fill="white"/>
<path d="M212.213 46.262C213.104 43.5545 212.966 41.1879 211.798 39.1622C210.63 37.1363 208.546 35.6295 205.546 34.6413C202.546 33.6533 199.965 33.6236 197.803 34.5521C195.666 35.4675 194.161 37.2499 193.289 39.899C192.404 42.5871 192.558 44.9375 193.752 46.9501C194.946 48.9629 197.092 50.4792 200.189 51.4995C200.987 51.7625 201.607 51.9127 202.048 51.9501L201.811 53.5562C201.078 53.4875 200.312 53.3214 199.513 53.0583C196.007 51.9035 193.543 50.1093 192.121 47.6758C190.717 45.249 190.532 42.4673 191.565 39.3312C192.585 36.234 194.371 34.1232 196.922 32.9989C199.473 31.8743 202.443 31.8702 205.832 32.9866C209.377 34.1542 211.883 35.9515 213.351 38.3783C214.819 40.8052 215.024 43.6255 213.966 46.8396C213.369 48.651 212.563 49.9509 211.548 50.7394C210.552 51.5341 209.47 51.7389 208.301 51.3539C207.678 51.1485 207.17 50.7225 206.779 50.0752C206.407 49.4346 206.333 48.7732 206.558 48.0916L207.293 47.0383L207.02 46.8837C206.369 47.8783 205.395 48.5074 204.099 48.7714C202.823 49.0419 201.434 48.9301 199.935 48.4361C198.357 47.9163 197.164 47.2105 196.357 46.3184C195.569 45.4328 195.323 44.5417 195.618 43.6458C196.112 42.1459 197.763 41.5563 200.572 41.8772L207.959 42.9503L208.094 42.5412C208.338 41.8011 208.095 41.0626 207.366 40.3258C206.657 39.5955 205.62 39.0056 204.257 38.5565C202.913 38.1138 201.738 37.9754 200.734 38.141C199.749 38.3132 199.063 38.789 198.677 39.5686L197.244 38.708C197.862 37.6162 198.833 36.9318 200.155 36.6547C201.502 36.3645 203.033 36.5019 204.747 37.0663C206.559 37.6631 207.946 38.498 208.91 39.5711C209.893 40.6509 210.212 41.7165 209.865 42.7683L208.037 48.3198C207.934 48.6315 207.952 48.9393 208.089 49.2439C208.246 49.5546 208.47 49.7581 208.762 49.8542C209.347 50.0468 209.965 49.8078 210.618 49.1375C211.277 48.4477 211.808 47.4892 212.213 46.262ZM197.312 44.2041C196.979 45.2169 198.117 46.1531 200.727 47.0129C202.266 47.5199 203.615 47.6838 204.775 47.5046C205.962 47.3123 206.686 46.8168 206.949 46.018L207.488 44.382L200.626 43.2876C198.705 43.0221 197.601 43.3274 197.312 44.2041Z" fill="white"/>
<path d="M236.704 67.0124C236.014 68.056 234.901 68.5492 233.365 68.4923C231.841 68.4182 230.198 67.7984 228.436 66.633C226.725 65.5017 225.489 64.1551 224.727 62.5937C223.965 61.0323 223.839 59.4742 224.351 57.9195L226.052 58.5275C225.749 59.8029 225.87 61.0139 226.415 62.161C226.971 63.291 227.924 64.3028 229.275 65.1967C230.592 66.0677 231.783 66.5725 232.847 66.7109C233.928 66.8604 234.678 66.6189 235.097 65.986C235.199 65.8319 235.26 65.664 235.282 65.4817C235.322 65.311 235.307 65.129 235.238 64.936C235.18 64.7258 235.111 64.5325 235.031 64.3566C234.951 64.1805 234.81 63.9649 234.61 63.7096C234.411 63.4543 234.233 63.239 234.079 63.0631C233.953 62.8816 233.742 62.6435 233.445 62.3487C233.16 62.0369 232.925 61.796 232.743 61.626C232.577 61.4673 232.326 61.2151 231.989 60.8693C231.681 60.5916 231.444 60.3738 231.279 60.2151C230.811 59.7331 230.417 59.325 230.097 58.9908C229.794 58.6675 229.44 58.2735 229.035 57.8085C228.629 57.3435 228.32 56.9182 228.109 56.5321C227.914 56.1574 227.736 55.7569 227.575 55.3309C227.443 54.8992 227.396 54.487 227.434 54.0943C227.484 53.6846 227.633 53.2916 227.882 52.9153C228.572 51.8717 229.651 51.3929 231.119 51.4785C232.586 51.5641 234.201 52.1896 235.963 53.355C239.521 55.7082 240.89 58.4706 240.071 61.6419L238.354 61.0595C238.852 58.6344 237.792 56.5565 235.175 54.8254C233.824 53.9317 232.636 53.4042 231.611 53.2429C230.604 53.093 229.897 53.326 229.49 53.9417C229.388 54.0958 229.317 54.2581 229.278 54.4288C229.256 54.6111 229.274 54.8072 229.331 55.0174C229.418 55.2219 229.495 55.4206 229.564 55.6139C229.644 55.7897 229.779 56.014 229.967 56.2863C230.185 56.5529 230.37 56.7741 230.525 56.95C230.679 57.1256 230.907 57.375 231.21 57.6983C231.53 58.0325 231.775 58.2935 231.946 58.4804C232.146 58.6619 232.432 58.9367 232.803 59.305C232.877 59.3786 232.931 59.4268 232.965 59.4494C233.005 59.5006 233.071 59.5686 233.162 59.6534C233.625 60.1069 233.976 60.4496 234.215 60.6821C234.455 60.9144 234.769 61.2574 235.158 61.7111C235.557 62.1477 235.86 62.5076 236.066 62.7914C236.272 63.0749 236.483 63.424 236.701 63.8385C236.947 64.2472 237.088 64.6107 237.123 64.9291C237.175 65.2587 237.165 65.6086 237.093 65.9785C237.049 66.3428 236.919 66.6873 236.704 67.0124Z" fill="white"/>
<path d="M255.318 75.3539L253.816 74.4459C254.25 73.2054 254.248 71.957 253.81 70.7001C253.402 69.4422 252.575 68.2477 251.331 67.1167C249.722 65.6547 248.125 64.8962 246.54 64.8416C244.969 64.7713 243.556 65.4271 242.301 66.8083C241.032 68.2049 240.501 69.6894 240.707 71.2621C240.926 72.8196 241.841 74.3293 243.449 75.7912C244.77 76.9912 246.112 77.74 247.477 78.0376C248.855 78.3201 250.1 78.1081 251.213 77.4016L252.306 78.852C250.829 79.8371 249.196 80.155 247.409 79.8048C245.621 79.4549 243.915 78.5421 242.291 77.0663C240.318 75.2734 239.18 73.3387 238.878 71.2626C238.59 69.2 239.253 67.281 240.867 65.505C242.467 63.7441 244.299 62.9161 246.366 63.0205C248.446 63.1097 250.48 64.0577 252.468 65.8644C253.941 67.2023 254.934 68.7009 255.449 70.3605C255.979 72.0339 255.936 73.6984 255.318 75.3539Z" fill="white"/>
<path d="M261.687 75.4766L262.912 76.938L259.559 78.827L259.849 79.5076L252.071 86.0306L250.846 84.569L261.687 75.4766ZM266.309 83.7656C265.004 82.2098 263.61 81.1047 262.126 80.45C260.654 79.7822 259.488 79.8109 258.624 80.5356L258.552 80.1144C259.808 79.06 261.269 78.7588 262.933 79.2108C264.61 79.6784 266.212 80.8235 267.74 82.6466L268.826 83.943L267.437 85.1093L266.309 83.7656Z" fill="white"/>
<path d="M265.316 90.6634C263.724 91.6775 262.816 92.9615 262.591 94.5158C262.381 96.059 262.85 97.7299 263.998 99.5287C265.154 101.345 266.477 102.484 267.964 102.947C269.479 103.416 271.03 103.144 272.622 102.13C274.196 101.127 275.08 99.845 275.277 98.2843C275.503 96.7301 275.036 95.0451 273.88 93.2292C272.734 91.4304 271.409 90.305 269.904 89.8531C268.418 89.3901 266.887 89.6603 265.316 90.6634ZM264.272 89.0289C266.298 87.7392 268.279 87.3988 270.225 88.0079C272.181 88.6341 273.875 90.0715 275.308 92.3197C276.651 94.4297 277.2 96.5489 276.951 98.6773C276.721 100.795 275.618 102.482 273.647 103.738C271.622 105.028 269.625 105.365 267.654 104.75C265.68 104.135 263.978 102.703 262.545 100.455C261.122 98.2236 260.55 96.0839 260.824 94.0356C261.101 91.9874 262.25 90.3186 264.272 89.0289Z" fill="white"/>
<path d="M288.035 101.391L288.889 103.096L269.988 112.553L269.135 110.848L288.035 101.391Z" fill="white"/>
<path d="M290.674 106.801L291.451 108.542L272.156 117.162L271.379 115.421L290.674 106.801Z" fill="white"/>
<path d="M290.886 146.3C293.678 145.722 295.659 144.422 296.833 142.399C298.007 140.377 298.274 137.819 297.633 134.726C296.992 131.633 295.731 129.381 293.847 127.97C291.988 126.575 289.694 126.16 286.961 126.725C284.19 127.298 282.232 128.604 281.081 130.643C279.932 132.682 279.689 135.298 280.35 138.491C280.519 139.315 280.699 139.927 280.886 140.328L279.376 140.923C279.071 140.253 278.833 139.507 278.661 138.683C277.915 135.068 278.24 132.038 279.64 129.591C281.042 127.164 283.362 125.617 286.595 124.948C289.789 124.287 292.509 124.781 294.754 126.432C297.003 128.082 298.487 130.654 299.21 134.148C299.966 137.803 299.658 140.872 298.287 143.355C296.915 145.838 294.575 147.422 291.26 148.107C289.392 148.494 287.864 148.444 286.674 147.957C285.49 147.49 284.772 146.655 284.521 145.449C284.39 144.807 284.506 144.155 284.872 143.492C285.241 142.851 285.777 142.457 286.479 142.311L287.759 142.424V142.11C286.572 142.041 285.539 141.511 284.665 140.52C283.793 139.548 283.198 138.289 282.878 136.743C282.542 135.116 282.557 133.73 282.929 132.586C283.303 131.461 283.952 130.803 284.877 130.612C286.423 130.292 287.759 131.429 288.881 134.024L291.635 140.962L292.058 140.875C292.822 140.717 293.339 140.138 293.614 139.139C293.893 138.16 293.888 136.967 293.596 135.561C293.311 134.176 292.845 133.089 292.199 132.301C291.56 131.533 290.804 131.176 289.935 131.23L289.968 129.558C291.222 129.55 292.299 130.05 293.198 131.057C294.124 132.081 294.767 133.476 295.134 135.243C295.518 137.111 295.488 138.73 295.039 140.101C294.593 141.491 293.829 142.299 292.745 142.523L287.02 143.708C286.7 143.774 286.441 143.943 286.246 144.213C286.054 144.504 285.99 144.8 286.051 145.102C286.177 145.704 286.692 146.121 287.6 146.352C288.525 146.579 289.622 146.562 290.886 146.3ZM285.239 132.359C284.193 132.575 283.949 134.029 284.506 136.72C284.834 138.306 285.367 139.558 286.1 140.474C286.859 141.406 287.648 141.787 288.471 141.616L290.161 141.267L287.684 134.774C286.956 132.977 286.141 132.172 285.239 132.359Z" fill="white"/>
<path d="M285.177 177.954C283.929 177.88 282.944 177.164 282.224 175.806C281.524 174.45 281.237 172.717 281.363 170.609C281.483 168.562 282.029 166.817 282.998 165.375C283.967 163.933 285.251 163.043 286.854 162.707L287.179 164.483C285.926 164.86 284.939 165.572 284.218 166.618C283.519 167.666 283.121 168.998 283.026 170.615C282.932 172.191 283.09 173.475 283.506 174.465C283.918 175.475 284.503 176.003 285.259 176.048C285.444 176.059 285.621 176.029 285.79 175.956C285.956 175.905 286.108 175.801 286.238 175.644C286.392 175.489 286.525 175.332 286.638 175.175C286.749 175.017 286.866 174.788 286.987 174.487C287.107 174.186 287.205 173.925 287.279 173.703C287.374 173.503 287.474 173.201 287.579 172.796C287.707 172.393 287.797 172.07 287.853 171.826C287.907 171.604 287.999 171.26 288.13 170.795C288.215 170.389 288.287 170.075 288.34 169.852C288.522 169.206 288.679 168.66 288.807 168.216C288.935 167.792 289.099 167.288 289.297 166.704C289.497 166.12 289.709 165.64 289.937 165.263C290.166 164.907 290.422 164.552 290.709 164.2C291.017 163.869 291.35 163.621 291.709 163.458C292.088 163.296 292.504 163.228 292.955 163.255C294.203 163.329 295.157 164.022 295.818 165.335C296.482 166.648 296.749 168.359 296.623 170.468C296.372 174.726 294.667 177.296 291.511 178.176L291.155 176.399C293.503 175.614 294.77 173.655 294.957 170.523C295.052 168.906 294.913 167.613 294.539 166.646C294.165 165.699 293.608 165.204 292.873 165.16C292.688 165.149 292.511 165.17 292.345 165.221C292.175 165.294 292.014 165.407 291.863 165.562C291.727 165.739 291.593 165.906 291.463 166.063C291.35 166.22 291.224 166.449 291.083 166.749C290.96 167.07 290.863 167.342 290.786 167.563C290.712 167.785 290.612 168.108 290.484 168.531C290.355 168.975 290.253 169.319 290.176 169.561C290.12 169.825 290.025 170.209 289.891 170.715C289.866 170.816 289.85 170.887 289.848 170.928C289.825 170.988 289.796 171.079 289.771 171.201C289.609 171.828 289.489 172.304 289.407 172.628C289.327 172.951 289.186 173.395 288.989 173.959C288.812 174.523 288.653 174.966 288.51 175.286C288.369 175.606 288.171 175.965 287.923 176.361C287.692 176.778 287.448 177.082 287.189 177.272C286.931 177.483 286.623 177.65 286.267 177.772C285.931 177.916 285.567 177.977 285.177 177.954Z" fill="white"/>
<path d="M287.298 198.2L287.332 196.445C288.624 196.199 289.703 195.572 290.569 194.564C291.454 193.58 292.074 192.266 292.428 190.622C292.887 188.497 292.743 186.735 291.997 185.336C291.269 183.941 289.995 183.047 288.17 182.653C286.327 182.254 284.776 182.538 283.517 183.504C282.279 184.475 281.433 186.022 280.974 188.147C280.597 189.891 280.62 191.428 281.046 192.758C281.492 194.092 282.299 195.064 283.471 195.673L282.763 197.346C281.169 196.561 280.077 195.307 279.485 193.585C278.89 191.862 278.826 189.928 279.29 187.783C279.851 185.177 280.956 183.223 282.602 181.921C284.243 180.639 286.234 180.251 288.58 180.758C290.905 181.261 292.541 182.432 293.486 184.273C294.45 186.118 294.65 188.354 294.084 190.979C293.663 192.924 292.864 194.535 291.684 195.812C290.503 197.109 289.041 197.905 287.298 198.2Z" fill="white"/>
<path d="M290.375 203.774L289.719 205.566L286.409 203.603L285.963 204.193L276.43 200.709L277.083 198.918L290.375 203.774ZM285.499 211.917C286.197 210.01 286.458 208.25 286.284 206.636C286.127 205.029 285.52 204.032 284.461 203.644L284.789 203.372C286.332 203.935 287.322 205.05 287.76 206.717C288.191 208.403 288.001 210.363 287.183 212.598L286.604 214.187L284.899 213.564L285.499 211.917Z" fill="white"/>
<path d="M279.024 214.505C277.353 213.631 275.787 213.484 274.328 214.062C272.885 214.651 271.672 215.89 270.683 217.78C269.686 219.689 269.357 221.403 269.696 222.922C270.044 224.47 271.054 225.681 272.726 226.555C274.379 227.42 275.933 227.549 277.384 226.942C278.842 226.363 280.073 225.119 281.07 223.211C282.057 221.321 282.372 219.611 282.016 218.082C281.675 216.562 280.678 215.37 279.024 214.505ZM279.922 212.788C282.049 213.9 283.334 215.45 283.774 217.439C284.205 219.447 283.803 221.632 282.57 223.995C281.408 226.212 279.845 227.743 277.876 228.588C275.925 229.443 273.915 229.328 271.841 228.245C269.716 227.134 268.429 225.569 267.978 223.552C267.53 221.535 267.922 219.345 269.157 216.982C270.383 214.638 271.952 213.075 273.864 212.293C275.776 211.511 277.796 211.676 279.922 212.788Z" fill="white"/>
<path d="M281.064 239.53L280.011 241.12L262.395 229.445L263.448 227.855L281.064 239.53Z" fill="white"/>
<path d="M277.676 244.526L276.556 246.069L259.463 233.64L260.583 232.098L277.676 244.526Z" fill="white"/>
<path d="M243.557 264.465C245.455 266.593 247.573 267.656 249.912 267.659C252.25 267.662 254.597 266.611 256.953 264.506C259.309 262.404 260.627 260.184 260.903 257.846C261.18 255.538 260.391 253.343 258.532 251.262C256.649 249.151 254.537 248.108 252.197 248.135C249.857 248.162 247.471 249.261 245.038 251.433C244.411 251.993 243.971 252.454 243.718 252.818L242.446 251.809C242.872 251.208 243.399 250.628 244.026 250.068C246.78 247.61 249.566 246.374 252.385 246.359C255.188 246.359 257.689 247.59 259.886 250.054C262.057 252.487 262.993 255.089 262.69 257.861C262.388 260.633 260.906 263.206 258.243 265.583C255.458 268.067 252.648 269.338 249.813 269.397C246.978 269.453 244.433 268.218 242.18 265.695C240.91 264.27 240.188 262.924 240.014 261.65C239.824 260.389 240.188 259.351 241.106 258.531C241.595 258.092 242.218 257.867 242.974 257.851C243.715 257.851 244.324 258.118 244.802 258.654L245.346 259.817L245.617 259.658C245.081 258.597 245.024 257.438 245.444 256.184C245.848 254.943 246.64 253.797 247.817 252.746C249.057 251.639 250.265 250.96 251.441 250.707C252.602 250.468 253.496 250.7 254.124 251.404C255.176 252.582 254.86 254.307 253.177 256.579L248.552 262.44L248.839 262.76C249.358 263.342 250.119 263.501 251.121 263.24C252.108 262.991 253.137 262.389 254.208 261.432C255.264 260.489 255.972 259.541 256.33 258.589C256.674 257.649 256.606 256.818 256.124 256.093L257.586 255.283C258.222 256.365 258.33 257.549 257.907 258.83C257.484 260.143 256.599 261.399 255.253 262.601C253.83 263.873 252.413 264.655 251.002 264.955C249.576 265.265 248.494 265.006 247.756 264.18L243.865 259.82C243.646 259.576 243.371 259.435 243.039 259.402C242.691 259.384 242.403 259.476 242.173 259.682C241.714 260.089 241.612 260.745 241.866 261.645C242.133 262.56 242.697 263.501 243.557 264.465ZM252.793 252.592C252.083 251.797 250.703 252.314 248.653 254.144C247.444 255.223 246.627 256.309 246.202 257.403C245.775 258.528 245.842 259.402 246.402 260.03L247.549 261.314L251.929 255.92C253.12 254.39 253.408 253.281 252.793 252.592Z" fill="white"/>
<path d="M213.352 275.37C212.792 274.252 212.92 273.039 213.735 271.737C214.56 270.453 215.917 269.338 217.806 268.392C219.64 267.474 221.423 267.074 223.157 267.192C224.89 267.312 226.303 267.982 227.395 269.199L226.019 270.371C225.065 269.471 223.955 268.971 222.69 268.871C221.433 268.789 220.081 269.112 218.632 269.838C217.22 270.542 216.188 271.324 215.538 272.178C214.868 273.039 214.704 273.811 215.043 274.488C215.126 274.654 215.241 274.79 215.387 274.9C215.516 275.021 215.681 275.098 215.883 275.134C216.094 275.19 216.295 275.226 216.488 275.244C216.681 275.262 216.937 275.249 217.258 275.203C217.579 275.157 217.855 275.111 218.084 275.064C218.304 275.047 218.616 274.982 219.019 274.872C219.432 274.78 219.757 274.698 219.996 274.624C220.216 274.559 220.56 274.467 221.027 274.349C221.422 274.219 221.729 274.124 221.949 274.06C222.6 273.893 223.15 273.755 223.6 273.644C224.03 273.544 224.549 273.434 225.154 273.314C225.759 273.196 226.282 273.139 226.722 273.15C227.144 273.167 227.58 273.214 228.029 273.285C228.469 273.385 228.85 273.552 229.171 273.78C229.501 274.029 229.767 274.354 229.969 274.757C230.529 275.875 230.406 277.049 229.599 278.279C228.793 279.507 227.445 280.596 225.556 281.542C221.742 283.45 218.665 283.26 216.325 280.968L217.687 279.771C219.54 281.412 221.869 281.53 224.675 280.125C226.124 279.399 227.174 278.633 227.824 277.825C228.457 277.028 228.608 276.297 228.278 275.639C228.195 275.472 228.09 275.331 227.961 275.211C227.814 275.103 227.635 275.018 227.424 274.964C227.204 274.936 226.993 274.906 226.792 274.867C226.599 274.849 226.338 274.854 226.007 274.882C225.668 274.939 225.384 274.988 225.155 275.034C224.925 275.08 224.595 275.154 224.164 275.254C223.715 275.364 223.366 275.446 223.119 275.503C222.862 275.585 222.481 275.695 221.977 275.833C221.876 275.862 221.807 275.885 221.771 275.903C221.707 275.91 221.615 275.933 221.496 275.972C220.872 276.146 220.4 276.28 220.079 276.372C219.758 276.462 219.304 276.564 218.717 276.674C218.139 276.802 217.676 276.885 217.328 276.923C216.979 276.959 216.571 276.969 216.103 276.951C215.627 276.959 215.241 276.9 214.948 276.772C214.636 276.654 214.338 276.469 214.053 276.223C213.76 276.003 213.526 275.718 213.352 275.37Z" fill="white"/>
<path d="M196.855 287.306L198.393 286.46C199.249 287.457 200.331 288.08 201.638 288.328C202.932 288.605 204.379 288.487 205.981 287.975C208.052 287.313 209.507 286.311 210.348 284.965C211.195 283.64 211.334 282.089 210.766 280.31C210.192 278.513 209.172 277.311 207.708 276.7C206.25 276.113 204.485 276.149 202.414 276.811C200.715 277.354 199.395 278.141 198.455 279.174C197.52 280.225 197.081 281.41 197.136 282.727L195.333 282.948C195.219 281.176 195.761 279.605 196.958 278.231C198.156 276.859 199.8 275.837 201.89 275.17C204.43 274.357 206.674 274.34 208.623 275.116C210.552 275.901 211.882 277.434 212.612 279.72C213.336 281.986 213.136 283.988 212.012 285.724C210.894 287.482 209.055 288.769 206.496 289.587C204.601 290.192 202.807 290.302 201.112 289.918C199.398 289.541 197.979 288.669 196.855 287.306Z" fill="white"/>
<path d="M193.558 292.763L191.679 293.089L191.728 289.241L190.994 289.149L189.256 279.148L191.135 278.82L193.558 292.763ZM184.069 292.602C186.07 292.253 187.726 291.602 189.037 290.643C190.352 289.707 190.913 288.685 190.72 287.572L191.121 287.721C191.402 289.338 190.929 290.753 189.704 291.966C188.458 293.181 186.663 293.991 184.32 294.399L182.652 294.688L182.342 292.901L184.069 292.602Z" fill="white"/>
<path d="M178.58 288.263C178.501 286.379 177.846 284.949 176.615 283.974C175.385 283.018 173.704 282.588 171.573 282.675C169.422 282.764 167.773 283.336 166.626 284.39C165.46 285.466 164.916 286.946 164.995 288.83C165.073 290.696 165.737 292.106 166.988 293.057C168.219 294.034 169.91 294.474 172.062 294.385C174.193 294.298 175.831 293.716 176.977 292.642C178.123 291.588 178.658 290.129 178.58 288.263ZM180.516 288.184C180.616 290.581 179.915 292.467 178.412 293.844C176.889 295.22 174.796 295.964 172.132 296.077C169.633 296.182 167.525 295.592 165.808 294.308C164.093 293.047 163.187 291.247 163.089 288.912C162.989 286.512 163.7 284.615 165.222 283.218C166.745 281.821 168.837 281.065 171.501 280.955C174.144 280.844 176.283 281.421 177.916 282.688C179.549 283.954 180.416 285.787 180.516 288.184Z" fill="white"/>
<path d="M157.939 302.554L156.035 302.441L157.299 281.344L159.203 281.459L157.939 302.554Z" fill="white"/>
<path d="M151.885 302.116L149.988 301.919L152.171 280.898L154.068 281.096L151.885 302.116Z" fill="white"/>
<path d="M117.579 282.574C116.685 285.282 116.822 287.65 117.989 289.675C119.155 291.703 121.238 293.21 124.237 294.2C127.236 295.192 129.817 295.223 131.98 294.295C134.118 293.382 135.624 291.6 136.498 288.952C137.385 286.263 137.232 283.913 136.04 281.9C134.847 279.885 132.703 278.368 129.606 277.348C128.808 277.083 128.188 276.932 127.747 276.894L127.985 275.289C128.719 275.358 129.484 275.525 130.283 275.789C133.788 276.945 136.251 278.742 137.672 281.175C139.073 283.602 139.256 286.386 138.221 289.521C137.199 292.618 135.412 294.728 132.86 295.848C130.309 296.971 127.338 296.974 123.95 295.856C120.406 294.684 117.9 292.887 116.434 290.457C114.968 288.03 114.765 285.21 115.826 281.998C116.424 280.185 117.231 278.886 118.247 278.099C119.243 277.304 120.326 277.101 121.494 277.486C122.117 277.691 122.624 278.119 123.015 278.765C123.387 279.406 123.46 280.067 123.235 280.749L122.499 281.803L122.772 281.957C123.423 280.965 124.398 280.334 125.694 280.073C126.971 279.803 128.359 279.914 129.858 280.411C131.436 280.931 132.628 281.636 133.435 282.531C134.222 283.415 134.468 284.307 134.172 285.202C133.677 286.702 132.025 287.291 129.216 286.968L121.83 285.889L121.695 286.299C121.45 287.04 121.692 287.778 122.421 288.514C123.13 289.245 124.166 289.837 125.529 290.285C126.873 290.729 128.047 290.87 129.052 290.703C130.037 290.534 130.723 290.057 131.11 289.278L132.542 290.139C131.923 291.231 130.952 291.916 129.63 292.19C128.282 292.48 126.751 292.341 125.037 291.777C123.226 291.178 121.839 290.342 120.876 289.268C119.894 288.188 119.576 287.122 119.924 286.071L121.756 280.521C121.858 280.208 121.841 279.901 121.704 279.596C121.548 279.286 121.323 279.083 121.031 278.986C120.447 278.793 119.828 279.032 119.176 279.701C118.516 280.39 117.984 281.349 117.579 282.574ZM132.478 284.643C132.812 283.631 131.674 282.695 129.065 281.834C127.526 281.323 126.177 281.159 125.017 281.339C123.831 281.529 123.106 282.023 122.842 282.823L122.302 284.459L129.163 285.558C131.084 285.825 132.188 285.52 132.478 284.643Z" fill="white"/>
<path d="M93.0954 261.798C93.7862 260.754 94.8995 260.262 96.4353 260.321C97.9598 260.395 99.6025 261.018 101.363 262.185C103.073 263.318 104.308 264.666 105.069 266.227C105.83 267.789 105.954 269.347 105.44 270.903L103.741 270.293C104.044 269.016 103.924 267.806 103.381 266.658C102.826 265.528 101.873 264.515 100.523 263.62C99.2064 262.749 98.0162 262.241 96.9524 262.103C95.8714 261.952 95.1213 262.192 94.7022 262.826C94.6001 262.979 94.5381 263.149 94.5158 263.331C94.4766 263.5 94.4912 263.682 94.5599 263.877C94.6176 264.087 94.6863 264.279 94.7665 264.456C94.8465 264.63 94.9864 264.848 95.1861 265.102C95.3861 265.358 95.563 265.574 95.717 265.751C95.8426 265.933 96.0539 266.171 96.3505 266.466C96.6355 266.776 96.8696 267.017 97.0518 267.189C97.2174 267.348 97.4684 267.599 97.8047 267.945C98.1129 268.224 98.3495 268.442 98.5148 268.601C98.9826 269.083 99.3761 269.491 99.6956 269.827C99.998 270.15 100.352 270.544 100.757 271.008C101.162 271.475 101.47 271.9 101.682 272.285C101.876 272.662 102.054 273.062 102.214 273.487C102.346 273.92 102.393 274.331 102.354 274.725C102.304 275.133 102.154 275.528 101.905 275.902C101.214 276.945 100.135 277.425 98.6673 277.337C97.1998 277.25 95.5855 276.622 93.8247 275.456C90.2691 273.1 88.902 270.337 89.7234 267.166L91.4399 267.75C90.9405 270.175 91.9987 272.254 94.614 273.987C95.9647 274.882 97.1518 275.41 98.1762 275.571C99.1831 275.722 99.8906 275.492 100.298 274.874C100.401 274.72 100.471 274.559 100.51 274.387C100.533 274.205 100.515 274.01 100.457 273.8C100.372 273.595 100.294 273.397 100.225 273.203C100.145 273.026 100.011 272.803 99.8227 272.531C99.6058 272.264 99.4202 272.041 99.2662 271.867C99.1121 271.69 98.884 271.441 98.5817 271.116C98.2621 270.783 98.0167 270.521 97.8458 270.334C97.6461 270.152 97.361 269.878 96.9903 269.509C96.916 269.434 96.8619 269.388 96.8278 269.365C96.7878 269.314 96.7222 269.245 96.6309 269.16C96.169 268.706 95.8183 268.363 95.5786 268.129C95.3392 267.899 95.0254 267.555 94.6373 267.102C94.2379 266.663 93.9354 266.304 93.7301 266.02C93.5245 265.735 93.313 265.387 93.0956 264.971C92.85 264.564 92.7096 264.2 92.6747 263.882C92.6224 263.551 92.6329 263.202 92.7057 262.831C92.7503 262.467 92.88 262.123 93.0954 261.798Z" fill="white"/>
<path d="M74.5135 253.46L76.0154 254.369C75.5806 255.609 75.5817 256.857 76.0185 258.115C76.4266 259.374 77.2525 260.569 78.4963 261.699C80.1044 263.163 81.7007 263.922 83.2857 263.978C84.8568 264.047 86.2703 263.394 87.5259 262.012C88.7954 260.617 89.3275 259.133 89.1225 257.559C88.9035 256.002 87.9902 254.492 86.3821 253.029C85.0624 251.829 83.7204 251.079 82.3562 250.781C80.9783 250.497 79.7327 250.709 78.6191 251.415L77.5271 249.964C79.0047 248.979 80.6373 248.662 82.4251 249.013C84.2126 249.364 85.9181 250.278 87.5413 251.755C89.5134 253.549 90.65 255.484 90.9515 257.559C91.2378 259.623 90.5739 261.543 88.9594 263.317C87.3588 265.078 85.5254 265.903 83.459 265.798C81.379 265.708 79.3451 264.76 77.3579 262.95C75.8865 261.612 74.8936 260.112 74.3796 258.454C73.8505 256.78 73.8951 255.116 74.5135 253.46Z" fill="white"/>
<path d="M68.1209 253.317L66.8966 251.854L70.2517 249.968L69.9625 249.287L77.7452 242.77L78.9695 244.232L68.1209 253.317ZM63.5054 245.025C64.8086 246.581 66.2029 247.688 67.6877 248.343C69.1571 249.012 70.3242 248.984 71.1889 248.26L71.2606 248.681C70.003 249.735 68.5423 250.035 66.8794 249.582C65.2031 249.113 63.6015 247.967 62.0744 246.143L60.9883 244.845L62.3797 243.68L63.5054 245.025Z" fill="white"/>
<path d="M64.5 238.114C66.0916 237.101 67.0007 235.818 67.2273 234.264C67.4364 232.72 66.9686 231.049 65.8238 229.25C64.6679 227.433 63.3467 226.293 61.8604 225.829C60.3459 225.358 58.7927 225.63 57.201 226.643C55.6265 227.644 54.7403 228.926 54.5422 230.486C54.3155 232.04 54.7801 233.726 55.9362 235.542C57.081 237.342 58.4053 238.468 59.9088 238.921C61.3951 239.385 62.9255 239.116 64.5 238.114ZM65.5402 239.749C63.5159 241.037 61.532 241.377 59.5878 240.766C57.6329 240.139 55.94 238.7 54.5088 236.451C53.1656 234.34 52.6193 232.22 52.8695 230.092C53.1023 227.975 54.2048 226.289 56.1771 225.033C58.2015 223.745 60.1998 223.409 62.1721 224.026C64.1442 224.643 65.8461 226.075 67.277 228.325C68.6972 230.557 69.2688 232.697 68.992 234.745C68.7151 236.793 67.5644 238.461 65.5402 239.749Z" fill="white"/>
<path d="M41.7994 227.404L40.9473 225.697L59.8532 216.254L60.7053 217.96L41.7994 227.404Z" fill="white"/>
<path d="M39.159 221.955L38.3828 220.213L57.6858 211.609L58.462 213.352L39.159 221.955Z" fill="white"/>
<path d="M38.9925 182.473C36.2006 183.049 34.2175 184.347 33.0429 186.369C31.8683 188.391 31.5999 190.949 32.2377 194.042C32.8752 197.135 34.1354 199.388 36.0181 200.801C37.8763 202.197 40.1714 202.614 42.9028 202.051C45.6747 201.479 47.6357 200.175 48.786 198.137C49.9362 196.098 50.1823 193.483 49.5237 190.289C49.354 189.466 49.1754 188.853 48.9882 188.452L50.4989 187.858C50.8045 188.528 51.0421 189.275 51.212 190.098C51.9573 193.714 51.6294 196.744 50.2279 199.19C48.8226 201.615 46.5029 203.162 43.2694 203.828C40.0758 204.487 37.3559 203.99 35.1101 202.338C32.864 200.687 31.3807 198.114 30.6604 194.619C29.9067 190.963 30.2164 187.895 31.5894 185.413C32.9621 182.931 35.3057 181.348 38.6197 180.665C40.4877 180.28 42.0163 180.331 43.2055 180.819C44.3909 181.286 45.1076 182.123 45.356 183.328C45.4886 183.971 45.3719 184.623 45.0059 185.285C44.6354 185.926 44.0989 186.32 43.396 186.465L42.1163 186.352L42.1181 186.665C43.305 186.735 44.3358 187.265 45.2104 188.257C46.0807 189.23 46.6755 190.489 46.9944 192.036C47.3297 193.663 47.3117 195.048 46.9405 196.193C46.565 197.317 45.9154 197.975 44.9915 198.165C43.445 198.484 42.1109 197.346 40.9894 194.75L38.2396 187.81L37.8179 187.897C37.0547 188.055 36.5351 188.633 36.2595 189.632C35.9799 190.611 35.9847 191.804 36.2747 193.21C36.5605 194.595 37.0253 195.683 37.6695 196.471C38.3096 197.24 39.0637 197.597 39.9322 197.544L39.8999 199.215C38.6451 199.223 37.5682 198.722 36.6694 197.714C35.7463 196.69 35.1026 195.294 34.7381 193.526C34.3531 191.658 34.3856 190.039 34.836 188.669C35.2823 187.279 36.0478 186.472 37.1324 186.249L42.8566 185.068C43.1781 185.002 43.4365 184.833 43.6321 184.563C43.8233 184.272 43.8879 183.976 43.8259 183.675C43.7016 183.072 43.1863 182.655 42.2801 182.423C41.3537 182.195 40.2578 182.212 38.9925 182.473ZM44.6311 196.418C45.6757 196.202 45.9205 194.749 45.3655 192.058C45.0384 190.471 44.508 189.219 43.7749 188.302C43.0171 187.37 42.2265 186.988 41.4032 187.158L39.7159 187.506L42.1855 194.001C42.9123 195.798 43.7275 196.604 44.6311 196.418Z" fill="white"/>
<path d="M44.7014 150.861C45.9504 150.936 46.9347 151.652 47.6548 153.01C48.3544 154.367 48.6412 156.099 48.5151 158.208C48.3928 160.255 47.8471 161.999 46.8773 163.441C45.9078 164.883 44.622 165.772 43.0201 166.107L42.6947 164.331C43.9501 163.954 44.9375 163.243 45.6574 162.197C46.3569 161.15 46.755 159.818 46.8514 158.201C46.9458 156.624 46.7861 155.341 46.3728 154.351C45.9606 153.34 45.3759 152.812 44.6184 152.767C44.4343 152.756 44.2577 152.786 44.089 152.858C43.9216 152.91 43.7717 153.014 43.6391 153.171C43.4858 153.326 43.3533 153.482 43.2413 153.64C43.129 153.797 43.0126 154.027 42.8919 154.328C42.7711 154.629 42.6735 154.89 42.5986 155.112C42.5045 155.311 42.4043 155.613 42.2979 156.018C42.171 156.421 42.0798 156.744 42.0241 156.988C41.9698 157.211 41.8773 157.554 41.7468 158.019C41.6609 158.425 41.5909 158.739 41.5366 158.962C41.3541 159.608 41.1982 160.154 41.069 160.598C40.9408 161.022 40.7773 161.526 40.5778 162.109C40.3787 162.693 40.1651 163.174 39.9372 163.55C39.7104 163.907 39.453 164.261 39.1648 164.614C38.8575 164.944 38.5242 165.192 38.1651 165.355C37.7857 165.517 37.3707 165.585 36.9205 165.558C35.6716 165.483 34.7167 164.789 34.0556 163.476C33.3945 162.163 33.1268 160.452 33.253 158.343C33.5073 154.085 35.212 151.517 38.3668 150.637L38.7226 152.414C36.375 153.199 35.1074 155.157 34.9202 158.289C34.8236 159.906 34.962 161.199 35.3358 162.166C35.7106 163.113 36.2666 163.608 37.0036 163.652C37.1876 163.663 37.3635 163.643 37.5309 163.591C37.6996 163.519 37.8605 163.406 38.0136 163.25C38.1474 163.073 38.2807 162.907 38.4132 162.75C38.5255 162.593 38.6521 162.364 38.7934 162.064C38.9152 161.743 39.0136 161.472 39.0885 161.25C39.1633 161.028 39.2648 160.706 39.3927 160.282C39.5222 159.838 39.6247 159.495 39.7009 159.253C39.7578 158.989 39.8526 158.604 39.9857 158.098C40.0121 157.997 40.0267 157.926 40.029 157.885C40.0533 157.825 40.0792 157.734 40.1069 157.613C40.2679 156.985 40.3886 156.51 40.4697 156.186C40.5507 155.862 40.6901 155.419 40.8883 154.855C41.0657 154.29 41.2256 153.848 41.3682 153.528C41.5104 153.208 41.7065 152.85 41.9562 152.454C42.1867 152.036 42.4307 151.732 42.6886 151.542C42.9478 151.332 43.2556 151.165 43.6122 151.043C43.9493 150.898 44.3126 150.838 44.7014 150.861Z" fill="white"/>
<path d="M42.6152 130.57L42.5806 132.326C41.2896 132.57 40.2094 133.196 39.3404 134.204C38.4557 135.187 37.8351 136.5 37.4785 138.144C37.0176 140.268 37.1601 142.03 37.9056 143.43C38.6313 144.826 39.9059 145.721 41.7298 146.117C43.5734 146.517 45.1246 146.234 46.3833 145.27C47.6217 144.3 48.4715 142.753 48.9321 140.629C49.3105 138.885 49.2872 137.348 48.8622 136.018C48.4171 134.683 47.6104 133.711 46.4417 133.1L47.1508 131.429C48.743 132.215 49.8347 133.469 50.4261 135.193C51.0178 136.916 51.0808 138.85 50.6158 140.994C50.0506 143.599 48.945 145.553 47.2989 146.853C45.657 148.134 43.6637 148.52 41.3189 148.011C38.9941 147.506 37.3598 146.334 36.4162 144.492C35.4526 142.646 35.2557 140.41 35.8251 137.785C36.2468 135.841 37.0471 134.231 38.2263 132.955C39.4098 131.659 40.8728 130.864 42.6152 130.57Z" fill="white"/>
<path d="M39.5391 124.996L40.1945 123.205L43.5042 125.17L43.9498 124.58L53.4821 128.071L52.8266 129.861L39.5391 124.996ZM44.4186 116.857C43.7206 118.763 43.4584 120.523 43.6319 122.137C43.786 123.745 44.3928 124.742 45.452 125.13L45.1228 125.403C43.5822 124.838 42.5929 123.723 42.1551 122.055C41.7242 120.369 41.9177 118.409 42.7357 116.175L43.3174 114.586L45.0216 115.21L44.4186 116.857Z" fill="white"/>
<path d="M50.8996 114.263C52.571 115.138 54.1368 115.287 55.5967 114.709C57.0386 114.121 58.2543 112.883 59.2438 110.994C60.2425 109.086 60.5729 107.372 60.2343 105.852C59.8872 104.304 58.8779 103.093 57.2068 102.217C55.5536 101.352 54.0012 101.222 52.5497 101.827C51.0896 102.405 49.8601 103.648 48.8614 105.556C47.8719 107.445 47.5556 109.155 47.9122 110.684C48.2505 112.204 49.2464 113.397 50.8996 114.263ZM50.0006 115.98C47.875 114.866 46.5925 113.315 46.1528 111.325C45.7227 109.318 46.1259 107.133 47.3626 104.771C48.523 102.554 50.0883 101.024 52.0578 100.181C54.0091 99.3274 56.0204 99.4433 58.0915 100.528C60.2168 101.641 61.504 103.206 61.9523 105.224C62.4007 107.241 62.0064 109.431 60.7698 111.793C59.5427 114.136 57.9723 115.699 56.0589 116.479C54.1455 117.259 52.1263 117.093 50.0006 115.98Z" fill="white"/>
<path d="M48.8652 89.2534L49.9193 87.6641L67.5294 99.3476L66.475 100.937L48.8652 89.2534Z" fill="white"/>
<path d="M52.2656 84.2529L53.3882 82.7109L70.4717 95.1517L69.3489 96.6934L52.2656 84.2529Z" fill="white"/>
<path d="M86.3885 64.3351C84.492 62.2072 82.3746 61.141 80.0364 61.1375C77.6983 61.1339 75.3504 62.1828 72.9928 64.2841C70.6352 66.3857 69.3168 68.6051 69.0371 70.9422C68.7592 73.2504 69.548 75.4455 71.4037 77.5278C73.2866 79.6406 75.3978 80.6842 77.7378 80.6591C80.0777 80.6337 82.4646 79.5363 84.8986 77.3666C85.5264 76.807 85.9668 76.3458 86.2201 75.9825L87.491 76.9926C87.0642 77.5927 86.5372 78.1725 85.9096 78.7321C83.1539 81.1882 80.3669 82.4225 77.5486 82.4348C74.7454 82.4335 72.2455 81.2002 70.0489 78.7355C67.8794 76.3009 66.9468 73.6982 67.2516 70.9266C67.5562 68.1552 69.0402 65.5823 71.7039 63.2077C74.4901 60.7242 77.301 59.455 80.1362 59.4002C82.9716 59.3453 85.5151 60.5809 87.7664 63.107C89.0353 64.531 89.7566 65.8796 89.9302 67.1534C90.1191 68.4136 89.7543 69.4531 88.8358 70.2719C88.346 70.7084 87.723 70.934 86.9671 70.9486C86.2262 70.9497 85.6169 70.6823 85.1396 70.1465L84.5964 68.9822L84.3259 69.1409C84.8601 70.2029 84.9171 71.3611 84.4964 72.6152C84.0911 73.8556 83.299 75.0012 82.1203 76.052C80.8803 77.1574 79.6719 77.8359 78.4955 78.0879C77.3345 78.3263 76.4401 78.0933 75.8124 77.3889C74.7618 76.2102 75.0789 74.4852 76.7634 72.2142L81.392 66.3577L81.1057 66.036C80.5871 65.4543 79.8265 65.2944 78.8239 65.5564C77.8365 65.8045 76.807 66.4064 75.7352 67.3616C74.679 68.3031 73.971 69.2503 73.6111 70.2027C73.2668 71.1417 73.335 71.9735 73.8164 72.6985L72.3537 73.5078C71.7187 72.4255 71.6124 71.2427 72.0348 69.9597C72.4588 68.6477 73.3442 67.3913 74.6916 66.1903C76.1151 64.9211 77.5327 64.1385 78.9441 63.8419C80.3707 63.5317 81.4525 63.7899 82.1893 64.6169L86.0781 68.9802C86.2962 69.2252 86.5715 69.3644 86.9035 69.398C87.2511 69.418 87.5395 69.3257 87.7692 69.1209C88.2285 68.7115 88.3313 68.0565 88.0783 67.156C87.8115 66.2401 87.248 65.2998 86.3885 64.3351ZM77.1443 76.2017C77.8539 76.9979 79.2343 76.4817 81.2856 74.6531C82.4951 73.5752 83.3128 72.489 83.7386 71.3949C84.1665 70.2721 84.1006 69.3967 83.541 68.7689L82.3948 67.4828L78.011 72.8743C76.8193 74.4037 76.5304 75.5129 77.1443 76.2017Z" fill="white"/>
</svg>
