<svg width="146" height="84" viewBox="0 0 146 84" fill="none" xmlns="http://www.w3.org/2000/svg">
<path d="M143.26 37.3103L108.36 2.40014C106.11 0.150138 102.62 -0.189657 100.23 1.61034C98.82 2.67034 97.9301 4.29027 97.8101 6.04027C97.6901 7.79027 98.3301 9.51024 99.5701 10.7502L120.84 32.0102C121.81 32.9802 121.45 34.1002 121.32 34.4202C121.19 34.7402 120.65 35.7903 119.28 35.7903H0.77002C0.52002 35.7903 0.280039 35.8103 0.0400391 35.8303V47.8704C0.180039 47.8804 0.319961 47.8901 0.459961 47.8901H119.28C120.65 47.8901 121.19 48.9402 121.32 49.2602C121.45 49.5802 121.81 50.7002 120.84 51.6702L99.78 72.7202C97.53 74.9702 97.2 78.4603 98.99 80.8503C100.05 82.2603 101.67 83.1503 103.42 83.2703C103.56 83.2803 103.7 83.2803 103.85 83.2803C105.45 83.2803 106.99 82.6502 108.14 81.5002L143.25 46.3801C145.76 43.8801 145.76 39.8103 143.26 37.3103Z" fill="#333333"/>
</svg>
