<svg width="450" height="450" viewBox="0 0 450 450" fill="none" xmlns="http://www.w3.org/2000/svg">
<path fill-rule="evenodd" clip-rule="evenodd" d="M225 449.559C349.099 449.559 449.701 348.957 449.701 224.858C449.701 100.759 349.099 0.156372 225 0.156372C100.9 0.156372 0.29834 100.759 0.29834 224.858C0.29834 348.957 100.9 449.559 225 449.559ZM225 374.311C306.359 374.311 372.314 308.356 372.314 226.996C372.314 145.636 306.359 79.6812 225 79.6812C143.64 79.6812 77.6846 145.636 77.6846 226.996C77.6846 308.356 143.64 374.311 225 374.311Z" fill="url(#paint0_linear_0_1)"/>
<path d="M153.001 41.6177H156.036C157.906 41.6177 158.84 40.9196 158.84 39.5233C158.84 38.127 157.906 37.4289 156.036 37.4289H153.001V41.6177ZM153.001 36.364H156.036C156.935 36.364 157.592 36.1865 158.006 35.8315C158.432 35.4765 158.645 34.9382 158.645 34.2164C158.645 33.4946 158.438 32.968 158.024 32.6367C157.622 32.2936 156.959 32.122 156.036 32.122H153.001V36.364ZM157.367 36.7722V37.0029C158.136 37.1568 158.752 37.4822 159.213 37.9791C159.686 38.4643 159.923 39.0382 159.923 39.7008C159.923 40.6119 159.592 41.3396 158.929 41.8839C158.267 42.4164 157.367 42.6826 156.231 42.6826H151.918V31.0748H156.231C157.355 31.0748 158.219 31.3469 158.823 31.8912C159.438 32.4237 159.746 33.1455 159.746 34.0566C159.746 34.7547 159.539 35.3523 159.124 35.8493C158.71 36.3344 158.125 36.6421 157.367 36.7722ZM162.182 38.8843C162.253 39.8664 162.537 40.6237 163.034 41.1562C163.543 41.6887 164.229 41.9549 165.093 41.9549C165.791 41.9549 166.371 41.7715 166.832 41.4047C167.306 41.026 167.601 40.5172 167.72 39.8783L168.767 40.0913C168.566 40.9905 168.14 41.6946 167.489 42.2034C166.838 42.7004 166.04 42.9489 165.093 42.9489C163.839 42.9489 162.851 42.5584 162.129 41.7774C161.419 40.9965 161.064 39.9256 161.064 38.5649C161.064 37.2159 161.401 36.1569 162.076 35.3878C162.762 34.6068 163.703 34.2164 164.898 34.2164C166.105 34.2164 167.051 34.6068 167.738 35.3878C168.424 36.1569 168.767 37.1804 168.767 38.4584V38.8843H162.182ZM162.218 37.9969H167.631C167.631 37.1923 167.371 36.5237 166.85 35.9913C166.341 35.4588 165.69 35.1926 164.898 35.1926C164.14 35.1926 163.531 35.4351 163.07 35.9203C162.608 36.4054 162.324 37.0976 162.218 37.9969ZM171.235 38.6181C171.235 39.7067 171.478 40.5468 171.963 41.1385C172.46 41.7183 173.146 42.0082 174.022 42.0082C174.886 42.0082 175.554 41.7183 176.028 41.1385C176.513 40.5468 176.755 39.7067 176.755 38.6181C176.755 37.5295 176.513 36.6953 176.028 36.1155C175.554 35.5357 174.886 35.2458 174.022 35.2458C173.146 35.2458 172.46 35.5357 171.963 36.1155C171.478 36.6953 171.235 37.5295 171.235 38.6181ZM170.88 38.6181C170.88 37.2219 171.182 36.1451 171.786 35.3878C172.389 34.6305 173.229 34.2519 174.306 34.2519C175.359 34.2519 176.217 34.6364 176.88 35.4055C177.542 36.1747 177.873 37.2278 177.873 38.5649C177.873 39.9493 177.524 41.032 176.826 41.8129C176.128 42.5939 175.258 42.9843 174.217 42.9843C173.176 42.9843 172.359 42.6057 171.768 41.8484C171.176 41.0911 170.88 40.0144 170.88 38.6181ZM170.153 46.1259V34.5181H171.235L170.845 36.7012L171.235 36.8255V40.3753L170.827 40.4995L171.235 42.6826V46.1259H170.153ZM178.897 34.5181H185.801V35.5653H182.891V42.6826H181.79V35.5653H178.897V34.5181ZM188.239 34.5181V41.4047L192.694 34.5181H194.185V42.6826H193.085V35.7605L188.63 42.6826H187.139V34.5181H188.239ZM195.875 34.5181H196.957V38.8666L201.377 34.5181H202.744L199.105 38.2809L202.744 42.6826H201.341L198.253 38.9908L196.957 40.18V42.6826H195.875V34.5181ZM204.769 40.677C204.769 41.0911 204.946 41.4047 205.301 41.6177C205.668 41.8307 206.147 41.9372 206.739 41.9372C207.544 41.9372 208.194 41.7183 208.691 41.2804C209.188 40.8308 209.437 40.2628 209.437 39.5765H209.703C209.703 40.5942 209.407 41.4106 208.816 42.0259C208.224 42.6412 207.443 42.9489 206.473 42.9489C205.668 42.9489 205 42.7359 204.467 42.3099C203.935 41.8839 203.668 41.3396 203.668 40.677C203.668 40.109 203.846 39.6594 204.201 39.3281C204.556 38.9967 205.094 38.7305 205.816 38.5294L209.437 37.6597V38.6004L206.171 39.3281C205.662 39.4464 205.301 39.618 205.088 39.8428C204.875 40.0676 204.769 40.3457 204.769 40.677ZM210.555 42.6826H209.437L209.863 40.5172L209.437 40.3753V37.2869C209.437 36.6835 209.23 36.1983 208.816 35.8315C208.401 35.4529 207.851 35.2635 207.165 35.2635C206.479 35.2635 205.917 35.4588 205.479 35.8493C205.053 36.2279 204.804 36.7308 204.733 37.3579L203.668 37.1449C203.799 36.293 204.177 35.6008 204.804 35.0683C205.431 34.524 206.23 34.2519 207.2 34.2519C208.194 34.2519 208.999 34.5299 209.614 35.0861C210.241 35.6304 210.555 36.2989 210.555 37.0917V42.6826ZM219.053 34.5181V42.6826H217.97V35.5653H214.793V38.7068C214.793 39.3695 214.746 39.9434 214.651 40.4285C214.568 40.9136 214.456 41.2982 214.314 41.5822C214.172 41.8662 213.994 42.0969 213.781 42.2744C213.568 42.44 213.355 42.5525 213.142 42.6116C212.929 42.659 212.687 42.6826 212.415 42.6826H211.847V41.5999H212.415C212.58 41.5999 212.716 41.5881 212.823 41.5644C212.929 41.5289 213.042 41.452 213.16 41.3337C213.278 41.2154 213.373 41.0497 213.444 40.8367C213.515 40.6119 213.574 40.3102 213.622 39.9315C213.669 39.5411 213.693 39.0677 213.693 38.5116V34.5181H219.053ZM221.848 41.6177H224.261C225.717 41.6177 226.445 41.1089 226.445 40.0913C226.445 39.0263 225.699 38.4939 224.208 38.4939H221.848V41.6177ZM221.848 34.5181V37.4289H224.386C225.332 37.4289 226.09 37.6715 226.658 38.1566C227.237 38.6299 227.527 39.2866 227.527 40.1268C227.527 40.9432 227.261 41.5763 226.729 42.0259C226.196 42.4637 225.439 42.6826 224.457 42.6826H220.765V34.5181H221.848ZM229.033 34.5181H230.115V38.1389H234.943V34.5181H236.061V42.6826H234.943V39.2038H230.115V42.6826H229.033V34.5181ZM245.419 34.5181H246.501V42.6826H245.419V34.5181ZM238.834 41.6177H241.248C242.703 41.6177 243.431 41.1089 243.431 40.0913C243.431 39.0263 242.685 38.4939 241.195 38.4939H238.834V41.6177ZM238.834 34.5181V37.4289H241.372C242.319 37.4289 243.076 37.6715 243.644 38.1566C244.224 38.6299 244.514 39.2866 244.514 40.1268C244.514 40.9432 244.247 41.5763 243.715 42.0259C243.182 42.4637 242.425 42.6826 241.443 42.6826H237.751V34.5181H238.834ZM253.28 31.057H254.203C254.203 31.7197 253.954 32.2758 253.457 32.7254C252.972 33.1633 252.369 33.3822 251.647 33.3822C250.925 33.3822 250.316 33.1633 249.819 32.7254C249.333 32.2758 249.091 31.7197 249.091 31.057H250.014C250.014 31.483 250.174 31.8498 250.493 32.1575C250.813 32.4533 251.197 32.6012 251.647 32.6012C252.096 32.6012 252.481 32.4533 252.8 32.1575C253.12 31.8498 253.28 31.483 253.28 31.057ZM249.286 34.5181V41.4047L253.741 34.5181H255.232V42.6826H254.132V35.7605L249.677 42.6826H248.186V34.5181H249.286ZM261.8 41.6709H264.658C266.054 41.6709 266.752 41.2213 266.752 40.322C266.752 39.4582 266.054 39.0263 264.658 39.0263H261.8V41.6709ZM261.8 37.9969H264.658C265.32 37.9969 265.8 37.8963 266.095 37.6952C266.403 37.494 266.557 37.1923 266.557 36.79C266.557 36.3522 266.409 36.0327 266.113 35.8315C265.817 35.6185 265.332 35.512 264.658 35.512H261.8V37.9969ZM265.634 38.4051V38.6359C266.297 38.7305 266.829 38.9494 267.231 39.2926C267.634 39.6239 267.835 40.0203 267.835 40.4817C267.835 41.1562 267.569 41.6946 267.036 42.0969C266.504 42.4874 265.776 42.6826 264.853 42.6826H260.717V34.5181H264.853C265.752 34.5181 266.444 34.7074 266.93 35.0861C267.415 35.4647 267.657 35.9794 267.657 36.6302C267.657 37.0799 267.48 37.4644 267.125 37.7839C266.77 38.1034 266.273 38.3105 265.634 38.4051ZM273.718 38.4406V38.6536C274.239 38.7246 274.647 38.9139 274.943 39.2216C275.25 39.5292 275.404 39.9138 275.404 40.3753C275.404 41.1444 275.108 41.7715 274.517 42.2566C273.925 42.7418 273.162 42.9843 272.227 42.9843C271.328 42.9843 270.594 42.7477 270.026 42.2744C269.47 41.8011 269.115 41.103 268.961 40.18L270.026 40.0025C270.168 40.677 270.411 41.1799 270.754 41.5112C271.109 41.8307 271.576 41.9904 272.156 41.9904C272.807 41.9904 273.328 41.8248 273.718 41.4934C274.108 41.1621 274.304 40.7302 274.304 40.1978C274.304 39.8546 274.185 39.5825 273.949 39.3813C273.724 39.1683 273.416 39.0618 273.026 39.0618H271.073V38.0501H273.026C273.416 38.0501 273.724 37.9377 273.949 37.7129C274.185 37.4881 274.304 37.1923 274.304 36.8255C274.304 36.3522 274.108 35.9735 273.718 35.6895C273.339 35.4055 272.831 35.2635 272.192 35.2635C271.6 35.2635 271.127 35.4115 270.772 35.7073C270.429 36.0031 270.18 36.4646 270.026 37.0917L268.961 36.8965C269.115 36.0208 269.47 35.3582 270.026 34.9086C270.594 34.4589 271.334 34.2341 272.245 34.2341C273.18 34.2341 273.937 34.453 274.517 34.8908C275.108 35.3286 275.404 35.8907 275.404 36.577C275.404 37.0739 275.25 37.494 274.943 37.8371C274.647 38.1685 274.239 38.3696 273.718 38.4406ZM283.618 34.5181V42.6826H282.535V35.5653H279.358V38.7068C279.358 39.3695 279.311 39.9434 279.216 40.4285C279.133 40.9136 279.021 41.2982 278.879 41.5822C278.737 41.8662 278.56 42.0969 278.347 42.2744C278.134 42.44 277.921 42.5525 277.708 42.6116C277.495 42.659 277.252 42.6826 276.98 42.6826H276.412V41.5999H276.98C277.146 41.5999 277.282 41.5881 277.388 41.5644C277.495 41.5289 277.607 41.452 277.725 41.3337C277.844 41.2154 277.938 41.0497 278.009 40.8367C278.08 40.6119 278.14 40.3102 278.187 39.9315C278.234 39.5411 278.258 39.0677 278.258 38.5116V34.5181H283.618ZM286.182 38.8843C286.253 39.8664 286.537 40.6237 287.034 41.1562C287.543 41.6887 288.229 41.9549 289.093 41.9549C289.791 41.9549 290.371 41.7715 290.832 41.4047C291.306 41.026 291.602 40.5172 291.72 39.8783L292.767 40.0913C292.566 40.9905 292.14 41.6946 291.489 42.2034C290.838 42.7004 290.04 42.9489 289.093 42.9489C287.839 42.9489 286.851 42.5584 286.129 41.7774C285.419 40.9965 285.064 39.9256 285.064 38.5649C285.064 37.2159 285.401 36.1569 286.076 35.3878C286.762 34.6068 287.703 34.2164 288.898 34.2164C290.105 34.2164 291.051 34.6068 291.738 35.3878C292.424 36.1569 292.767 37.1804 292.767 38.4584V38.8843H286.182ZM286.218 37.9969H291.631C291.631 37.1923 291.371 36.5237 290.85 35.9913C290.341 35.4588 289.691 35.1926 288.898 35.1926C288.141 35.1926 287.531 35.4351 287.07 35.9203C286.608 36.4054 286.324 37.0976 286.218 37.9969ZM293.78 34.5181H300.684V35.5653H297.774V42.6826H296.673V35.5653H293.78V34.5181Z" fill="#EEEEEE"/>
<path d="M169.862 60.9885H172.897C174.767 60.9885 175.702 60.2904 175.702 58.8942C175.702 57.4979 174.767 56.7998 172.897 56.7998H169.862V60.9885ZM169.862 55.7348H172.897C173.797 55.7348 174.453 55.5573 174.868 55.2024C175.294 54.8474 175.507 54.309 175.507 53.5872C175.507 52.8654 175.299 52.3389 174.885 52.0076C174.483 51.6644 173.82 51.4928 172.897 51.4928H169.862V55.7348ZM174.229 56.1431V56.3738C174.998 56.5276 175.613 56.853 176.075 57.35C176.548 57.8351 176.784 58.409 176.784 59.0716C176.784 59.9828 176.453 60.7105 175.791 61.2548C175.128 61.7872 174.229 62.0535 173.093 62.0535H168.78V50.4456H173.093C174.217 50.4456 175.081 50.7178 175.684 51.2621C176.299 51.7946 176.607 52.5164 176.607 53.4275C176.607 54.1256 176.4 54.7231 175.986 55.2201C175.572 55.7053 174.986 56.0129 174.229 56.1431ZM179.026 60.0478C179.026 60.462 179.203 60.7755 179.558 60.9885C179.925 61.2015 180.404 61.308 180.996 61.308C181.8 61.308 182.451 61.0891 182.948 60.6513C183.445 60.2017 183.694 59.6337 183.694 58.9474H183.96C183.96 59.965 183.664 60.7815 183.072 61.3968C182.481 62.0121 181.7 62.3197 180.73 62.3197C179.925 62.3197 179.256 62.1067 178.724 61.6807C178.191 61.2548 177.925 60.7105 177.925 60.0478C177.925 59.4799 178.103 59.0302 178.458 58.6989C178.813 58.3676 179.351 58.1014 180.073 57.9002L183.694 57.0305V57.9712L180.428 58.6989C179.919 58.8172 179.558 58.9888 179.345 59.2136C179.132 59.4385 179.026 59.7165 179.026 60.0478ZM184.812 62.0535H183.694L184.12 59.8881L183.694 59.7461V56.6578C183.694 56.0543 183.487 55.5692 183.072 55.2024C182.658 54.8237 182.108 54.6344 181.422 54.6344C180.736 54.6344 180.173 54.8296 179.736 55.2201C179.31 55.5988 179.061 56.1016 178.99 56.7288L177.925 56.5158C178.055 55.6638 178.434 54.9716 179.061 54.4392C179.688 53.8949 180.487 53.6227 181.457 53.6227C182.451 53.6227 183.256 53.9008 183.871 54.4569C184.498 55.0012 184.812 55.6698 184.812 56.4625V62.0535ZM195.262 62.0535H186.494V53.8889H187.577V61.0063H190.346V53.8889H191.428V61.0063H194.179V53.8889H195.262V62.0535ZM197.798 58.2552C197.869 59.2373 198.153 59.9946 198.65 60.5271C199.158 61.0595 199.845 61.3258 200.709 61.3258C201.407 61.3258 201.986 61.1424 202.448 60.7755C202.921 60.3969 203.217 59.8881 203.335 59.2491L204.383 59.4621C204.181 60.3614 203.755 61.0654 203.105 61.5742C202.454 62.0712 201.655 62.3197 200.709 62.3197C199.454 62.3197 198.466 61.9292 197.744 61.1483C197.035 60.3673 196.68 59.2965 196.68 57.9357C196.68 56.5868 197.017 55.5278 197.691 54.7586C198.378 53.9777 199.318 53.5872 200.513 53.5872C201.72 53.5872 202.667 53.9777 203.353 54.7586C204.039 55.5278 204.383 56.5513 204.383 57.8292V58.2552H197.798ZM197.833 57.3677H203.247C203.247 56.5631 202.986 55.8946 202.466 55.3621C201.957 54.8296 201.306 54.5634 200.513 54.5634C199.756 54.5634 199.147 54.806 198.685 55.2911C198.224 55.7762 197.94 56.4685 197.833 57.3677ZM205.768 53.8889H211.856V54.9361H206.851V62.0535H205.768V53.8889ZM213.847 57.9357C213.847 59.0243 214.084 59.8644 214.557 60.4561C215.042 61.0359 215.717 61.3258 216.581 61.3258C217.456 61.3258 218.137 61.0359 218.622 60.4561C219.107 59.8644 219.349 59.0243 219.349 57.9357C219.349 56.8589 219.101 56.0307 218.604 55.4509C218.119 54.8592 217.444 54.5634 216.581 54.5634C215.717 54.5634 215.042 54.8592 214.557 55.4509C214.084 56.0307 213.847 56.8589 213.847 57.9357ZM212.747 57.9357C212.747 56.5513 213.09 55.4804 213.776 54.7231C214.474 53.9659 215.409 53.5872 216.581 53.5872C217.693 53.5872 218.616 53.9777 219.349 54.7586C220.083 55.5278 220.45 56.5868 220.45 57.9357C220.45 59.3201 220.101 60.3969 219.403 61.166C218.705 61.9351 217.764 62.3197 216.581 62.3197C215.409 62.3197 214.474 61.9351 213.776 61.166C213.09 60.3969 212.747 59.3201 212.747 57.9357ZM225.365 57.7227L226.235 57.705C226.235 56.7229 226.519 55.9182 227.087 55.2911C227.655 54.664 228.388 54.3504 229.288 54.3504C230.293 54.3504 231.122 54.7409 231.773 55.5218C232.435 56.291 232.767 57.2731 232.767 58.4682C232.767 59.6278 232.447 60.5626 231.808 61.2725C231.181 61.9706 230.353 62.3197 229.323 62.3197C228.152 62.3197 227.199 61.8937 226.466 61.0418C225.732 60.1898 225.365 59.0835 225.365 57.7227ZM226.466 58.0954C226.466 59.0184 226.732 59.7875 227.264 60.4028C227.797 61.0181 228.465 61.3258 229.27 61.3258C230.004 61.3258 230.583 61.0595 231.009 60.5271C231.447 59.9828 231.666 59.2491 231.666 58.3262C231.666 57.3796 231.429 56.6459 230.956 56.1253C230.495 55.5928 229.85 55.3266 229.021 55.3266C228.229 55.3266 227.602 55.5751 227.14 56.0721C226.69 56.5572 226.466 57.2317 226.466 58.0954ZM228.933 51.2976C230.258 50.7888 231.015 50.2504 231.205 49.6824L232.216 50.2327C232.062 50.5995 231.702 50.9722 231.134 51.3508C230.577 51.7177 229.85 52.0549 228.95 52.3625C228.134 52.5755 227.56 52.8832 227.229 53.2855C226.898 53.6878 226.673 54.2853 226.554 55.0781L226.111 56.4093L226.483 56.569C226.472 56.853 226.466 57.2672 226.466 57.8115L225.365 57.7227C225.365 56.291 225.466 55.1728 225.667 54.3682C225.88 53.5517 226.235 52.9127 226.732 52.4513C227.241 51.978 227.974 51.5934 228.933 51.2976ZM235.277 53.8889V60.7755L239.732 53.8889H241.223V62.0535H240.123V55.1314L235.668 62.0535H234.177V53.8889H235.277ZM247.386 57.8115V58.0245C247.906 58.0954 248.314 58.2848 248.61 58.5924C248.918 58.9001 249.072 59.2846 249.072 59.7461C249.072 60.5152 248.776 61.1424 248.184 61.6275C247.593 62.1126 246.829 62.3552 245.895 62.3552C244.995 62.3552 244.262 62.1185 243.694 61.6452C243.138 61.1719 242.783 60.4738 242.629 59.5509L243.694 59.3734C243.836 60.0478 244.078 60.5507 244.421 60.882C244.776 61.2015 245.244 61.3613 245.824 61.3613C246.474 61.3613 246.995 61.1956 247.386 60.8643C247.776 60.533 247.971 60.1011 247.971 59.5686C247.971 59.2255 247.853 58.9533 247.616 58.7522C247.391 58.5392 247.084 58.4327 246.693 58.4327H244.741V57.421H246.693C247.084 57.421 247.391 57.3086 247.616 57.0838C247.853 56.8589 247.971 56.5631 247.971 56.1963C247.971 55.723 247.776 55.3444 247.386 55.0604C247.007 54.7764 246.498 54.6344 245.859 54.6344C245.268 54.6344 244.794 54.7823 244.439 55.0781C244.096 55.3739 243.848 55.8354 243.694 56.4625L242.629 56.2673C242.783 55.3917 243.138 54.7291 243.694 54.2794C244.262 53.8298 245.001 53.605 245.912 53.605C246.847 53.605 247.604 53.8239 248.184 54.2617C248.776 54.6995 249.072 55.2615 249.072 55.9478C249.072 56.4448 248.918 56.8649 248.61 57.208C248.314 57.5393 247.906 57.7405 247.386 57.8115ZM250.47 53.8889H251.553V57.5097H256.38V53.8889H257.499V62.0535H256.38V58.5747H251.553V62.0535H250.47V53.8889ZM260.04 58.2552C260.111 59.2373 260.395 59.9946 260.892 60.5271C261.401 61.0595 262.087 61.3258 262.951 61.3258C263.649 61.3258 264.229 61.1424 264.691 60.7755C265.164 60.3969 265.46 59.8881 265.578 59.2491L266.625 59.4621C266.424 60.3614 265.998 61.0654 265.347 61.5742C264.697 62.0712 263.898 62.3197 262.951 62.3197C261.697 62.3197 260.709 61.9292 259.987 61.1483C259.277 60.3673 258.922 59.2965 258.922 57.9357C258.922 56.5868 259.259 55.5278 259.934 54.7586C260.62 53.9777 261.561 53.5872 262.756 53.5872C263.963 53.5872 264.91 53.9777 265.596 54.7586C266.282 55.5278 266.625 56.5513 266.625 57.8292V58.2552H260.04ZM260.076 57.3677H265.489C265.489 56.5631 265.229 55.8946 264.708 55.3621C264.2 54.8296 263.549 54.5634 262.756 54.5634C261.999 54.5634 261.389 54.806 260.928 55.2911C260.466 55.7762 260.182 56.4685 260.076 57.3677ZM275.377 56.5335L274.365 56.7288C274.164 56.0307 273.827 55.4982 273.353 55.1314C272.892 54.7527 272.324 54.5634 271.65 54.5634C270.774 54.5634 270.088 54.8592 269.591 55.4509C269.094 56.0307 268.845 56.8589 268.845 57.9357C268.845 59.0243 269.088 59.8644 269.573 60.4561C270.07 61.0359 270.762 61.3258 271.65 61.3258C272.371 61.3258 272.975 61.1246 273.46 60.7223C273.957 60.3082 274.27 59.7343 274.401 59.0006L275.448 59.1959C275.247 60.1898 274.803 60.9589 274.117 61.5032C273.43 62.0476 272.608 62.3197 271.65 62.3197C270.466 62.3197 269.52 61.9351 268.81 61.166C268.1 60.3969 267.745 59.3201 267.745 57.9357C267.745 56.5631 268.1 55.4982 268.81 54.7409C269.52 53.9718 270.466 53.5872 271.65 53.5872C272.513 53.5872 273.276 53.8416 273.939 54.3504C274.602 54.8592 275.081 55.5869 275.377 56.5335ZM277.65 60.0478C277.65 60.462 277.828 60.7755 278.183 60.9885C278.55 61.2015 279.029 61.308 279.62 61.308C280.425 61.308 281.076 61.0891 281.573 60.6513C282.07 60.2017 282.318 59.6337 282.318 58.9474H282.585C282.585 59.965 282.289 60.7815 281.697 61.3968C281.105 62.0121 280.324 62.3197 279.354 62.3197C278.55 62.3197 277.881 62.1067 277.349 61.6807C276.816 61.2548 276.55 60.7105 276.55 60.0478C276.55 59.4799 276.727 59.0302 277.082 58.6989C277.437 58.3676 277.976 58.1014 278.698 57.9002L282.318 57.0305V57.9712L279.052 58.6989C278.544 58.8172 278.183 58.9888 277.97 59.2136C277.757 59.4385 277.65 59.7165 277.65 60.0478ZM283.436 62.0535H282.318L282.744 59.8881L282.318 59.7461V56.6578C282.318 56.0543 282.111 55.5692 281.697 55.2024C281.283 54.8237 280.733 54.6344 280.046 54.6344C279.36 54.6344 278.798 54.8296 278.36 55.2201C277.934 55.5988 277.686 56.1016 277.615 56.7288L276.55 56.5158C276.68 55.6638 277.059 54.9716 277.686 54.4392C278.313 53.8949 279.112 53.6227 280.082 53.6227C281.076 53.6227 281.88 53.9008 282.496 54.4569C283.123 55.0012 283.436 55.6698 283.436 56.4625V62.0535Z" fill="#EEEEEE"/>
<path d="M24.0997 185.734L27.0335 178.343L37.8231 182.625L37.4171 183.648L27.6174 179.758L25.4891 185.12L35.2888 189.01L34.8893 190.016L24.0997 185.734ZM34.9187 178.78C35.9306 179.182 36.7988 179.272 37.5234 179.05C38.2413 178.813 38.7596 178.293 39.0783 177.491C39.4014 176.677 39.3829 175.937 39.023 175.272C38.6521 174.603 37.9607 174.068 36.9488 173.666C35.9479 173.269 35.0864 173.194 34.3641 173.442C33.6352 173.675 33.1113 174.193 32.7926 174.996C32.4739 175.798 32.5001 176.535 32.871 177.204C33.2353 177.858 33.9179 178.383 34.9187 178.78ZM34.5127 179.803C33.2259 179.293 32.3571 178.578 31.9064 177.661C31.4601 176.733 31.4531 175.724 31.8853 174.635C32.2956 173.602 32.9991 172.888 33.9957 172.494C34.9813 172.096 36.101 172.146 37.3548 172.643C38.6417 173.154 39.5137 173.876 39.9711 174.808C40.4284 175.741 40.4388 176.757 40.0022 177.857C39.57 178.946 38.8676 179.673 37.8952 180.038C36.927 180.392 35.7996 180.314 34.5127 179.803ZM43.8085 164.948L47.339 166.35L46.933 167.373L44.3924 166.364L42.0873 172.171L44.6279 173.18L44.235 174.17L40.7045 172.768L40.9468 172.158C41.0079 172.004 41.0416 171.871 41.0479 171.759C41.0586 171.636 41.0307 171.497 40.9644 171.344C40.8914 171.175 40.7691 171.018 40.5973 170.873C40.4189 170.713 40.1514 170.537 39.7949 170.345C39.4274 170.148 38.9797 169.945 38.4518 169.735L34.7398 168.262L36.7175 163.28L43.4156 165.938L43.8085 164.948ZM43.0161 166.945L37.2914 164.672L36.1192 167.625L39.0393 168.785C40.4141 169.33 41.1617 169.933 41.2821 170.591L41.5558 170.624L43.0161 166.945ZM47.3258 156.087L50.8564 157.489L50.4503 158.512L47.9097 157.503L45.6046 163.31L48.1452 164.319L47.7523 165.309L44.2218 163.907L44.4641 163.297C44.5252 163.143 44.5589 163.01 44.5652 162.898C44.5759 162.775 44.548 162.636 44.4817 162.483C44.4087 162.314 44.2864 162.157 44.1146 162.012C43.9362 161.852 43.6687 161.676 43.3123 161.484C42.9448 161.287 42.4971 161.084 41.9691 160.874L38.2571 159.401L40.2348 154.418L46.9329 157.077L47.3258 156.087ZM46.5334 158.084L40.8087 155.811L39.6365 158.764L42.5566 159.923C43.9314 160.469 44.679 161.071 44.7994 161.73L45.0731 161.763L46.5334 158.084ZM45.5186 152.942C46.4576 153.239 47.2663 153.254 47.9446 152.989C48.6273 152.712 49.128 152.173 49.4467 151.37C49.7042 150.721 49.7477 150.114 49.577 149.55C49.3997 148.97 49.0359 148.508 48.4856 148.162L49.07 147.267C49.8316 147.786 50.3289 148.442 50.5617 149.234C50.7835 150.023 50.7198 150.857 50.3705 151.736C49.9078 152.902 49.1803 153.677 48.1881 154.059C47.2002 154.431 46.0739 154.366 44.809 153.864C43.5552 153.366 42.6953 152.662 42.2292 151.751C41.7565 150.825 41.7406 149.807 42.1816 148.696C42.6269 147.574 43.3391 146.838 44.3182 146.489C45.2863 146.134 46.3643 146.193 47.5522 146.665L47.9481 146.822L45.5186 152.942ZM44.7068 152.582L46.7041 147.55C45.9562 147.253 45.2387 147.249 44.5517 147.536C43.869 147.813 43.3815 148.319 43.089 149.056C42.8095 149.76 42.8102 150.416 43.0909 151.024C43.3715 151.632 43.9102 152.151 44.7068 152.582ZM48.6114 144.429C49.6232 144.831 50.4936 144.915 51.2225 144.683C51.9448 144.435 52.4675 143.904 52.7906 143.09C53.1093 142.287 53.0865 141.559 52.7222 140.905C52.3512 140.235 51.6598 139.7 50.648 139.298C49.6361 138.897 48.7712 138.814 48.0533 139.051C47.3397 139.277 46.8236 139.792 46.5049 140.595C46.1818 141.409 46.1981 142.154 46.5537 142.829C46.9136 143.494 47.5995 144.028 48.6114 144.429ZM48.4804 144.759C47.1825 144.244 46.293 143.566 45.8118 142.726C45.3305 141.886 45.2885 140.965 45.6858 139.964C46.0743 138.985 46.7483 138.33 47.7077 137.998C48.6671 137.665 49.7682 137.746 51.011 138.239C52.2979 138.75 53.1754 139.474 53.6438 140.411C54.1121 141.348 54.1542 142.301 53.77 143.269C53.3858 144.236 52.7326 144.856 51.8104 145.126C50.8882 145.397 49.7782 145.274 48.4804 144.759ZM55.1905 148.206L44.4009 143.923L44.8004 142.916L46.6855 144.085L46.9451 143.768L50.2446 145.078L50.2095 145.503L52.3894 145.929L55.5899 147.199L55.1905 148.206ZM52.9008 131.987L53.1824 131.278L50.8622 127.645L51.3599 126.391L54.0147 130.672L58.9489 129.403L58.425 130.723L54.1888 131.677L53.9072 132.387L57.2397 133.709L56.8403 134.716L53.5077 133.393L53.2327 134.086L55.6353 137.751L55.1376 139.005L52.3938 134.708L47.5486 135.993L48.0725 134.673L52.2263 133.686L52.5013 132.993L49.2513 131.703L49.6507 130.697L52.9008 131.987ZM51.7681 125.363L52.1675 124.356L56.2095 125.961L53.7981 120.248L54.3024 118.978L56.4575 123.748L61.8914 121.99L61.374 123.294L56.803 124.802L57.4303 126.445L59.7565 127.369L59.3571 128.375L51.7681 125.363ZM60.7743 119.368C61.1593 119.521 61.5162 119.472 61.8452 119.22C62.1785 118.958 62.4543 118.552 62.6726 118.002C62.9695 117.254 63.0061 116.568 62.7825 115.945C62.5479 115.317 62.1117 114.876 61.4738 114.623L61.572 114.376C62.5179 114.751 63.1676 115.327 63.5213 116.104C63.8749 116.881 63.8727 117.721 63.5147 118.623C63.2179 119.37 62.7732 119.913 62.1808 120.251C61.5884 120.589 60.9842 120.635 60.3683 120.391C59.8404 120.181 59.4879 119.851 59.3109 119.398C59.134 118.946 59.0851 118.347 59.1645 117.602L59.692 113.916L60.5664 114.263L60.0378 117.567C59.9601 118.084 59.9864 118.482 60.1168 118.763C60.2472 119.044 60.4664 119.246 60.7743 119.368ZM64.7734 114.73L64.3609 115.769L62.5053 114.574L62.2162 114.918L59.3455 113.778C58.7846 113.556 58.2573 113.569 57.7635 113.819C57.2588 114.064 56.8798 114.506 56.6266 115.144C56.3734 115.781 56.3475 116.376 56.5489 116.927C56.7437 117.463 57.1194 117.879 57.6761 118.176L57.0853 119.088C56.3414 118.652 55.8377 118.045 55.5741 117.266C55.2996 116.482 55.3413 115.639 55.6993 114.737C56.066 113.813 56.6213 113.168 57.3653 112.801C58.1026 112.419 58.8397 112.374 59.5766 112.667L64.7734 114.73ZM59.2056 106.626L59.6051 105.619L62.9706 106.955L64.7519 102.468L61.3863 101.132L61.7989 100.092L69.3879 103.105L68.9753 104.144L65.7417 102.861L63.9605 107.348L67.1941 108.632L66.7946 109.638L59.2056 106.626ZM68.4549 100.019C68.8398 100.171 69.1968 100.122 69.5257 99.8707C69.859 99.6084 70.1348 99.2022 70.3531 98.6523C70.65 97.9044 70.6866 97.2187 70.4631 96.5952C70.2285 95.9674 69.7922 95.5269 69.1543 95.2736L69.2525 95.0262C70.1984 95.4016 70.8482 95.9778 71.2018 96.7548C71.5554 97.5317 71.5533 98.3711 71.1953 99.273C70.8984 100.021 70.4538 100.564 69.8614 100.902C69.269 101.239 68.6648 101.286 68.0489 101.041C67.5209 100.832 67.1685 100.501 66.9915 100.049C66.8145 99.5966 66.7657 98.998 66.845 98.2528L67.3725 94.5664L68.2469 94.9135L67.7184 98.2176C67.6407 98.7342 67.667 99.1329 67.7974 99.4138C67.9278 99.6948 68.1469 99.8963 68.4549 100.019ZM72.454 95.3803L72.0414 96.4196L70.1859 95.2248L69.8967 95.5683L67.0261 94.4289C66.4652 94.2062 65.9378 94.2197 65.4441 94.4693C64.9393 94.7146 64.5603 95.1561 64.3071 95.794C64.0539 96.432 64.028 97.0264 64.2294 97.5774C64.4242 98.1131 64.8 98.5296 65.3567 98.827L64.7658 99.7383C64.0219 99.303 63.5182 98.6956 63.2547 97.9162C62.9801 97.1325 63.0218 96.2897 63.3798 95.3878C63.7466 94.4639 64.3019 93.8186 65.0458 93.4519C65.7832 93.0698 66.5203 93.025 67.2572 93.3175L72.454 95.3803ZM30.7426 232.542L33.3489 225.976L40.9379 228.988L40.5319 230.011L33.9328 227.392L32.1319 231.929L38.731 234.548L38.3316 235.554L30.7426 232.542ZM38.1826 224.912C39.1944 225.314 40.0648 225.398 40.7937 225.166C41.516 224.918 42.0387 224.387 42.3618 223.573C42.6805 222.77 42.6577 222.042 42.2934 221.388C41.9224 220.719 41.231 220.183 40.2192 219.781C39.2073 219.38 38.3424 219.298 37.6245 219.535C36.9109 219.761 36.3948 220.275 36.0761 221.078C35.753 221.892 35.7693 222.637 36.1249 223.313C36.4848 223.977 37.1707 224.511 38.1826 224.912ZM38.0516 225.242C36.7538 224.727 35.8642 224.049 35.383 223.209C34.9017 222.369 34.8597 221.448 35.257 220.447C35.6456 219.468 36.3195 218.813 37.2789 218.481C38.2383 218.149 39.3394 218.229 40.5822 218.722C41.8691 219.233 42.7467 219.957 43.215 220.894C43.6833 221.831 43.7254 222.784 43.3412 223.752C42.957 224.719 42.3038 225.339 41.3816 225.609C40.4594 225.88 39.3494 225.757 38.0516 225.242ZM44.7617 228.689L33.9721 224.406L34.3716 223.4L36.2567 224.568L36.5163 224.251L39.8158 225.561L39.7807 225.986L41.9606 226.412L45.1611 227.682L44.7617 228.689ZM41.3987 216.666C42.4105 217.067 43.2788 217.157 44.0033 216.936C44.7212 216.699 45.2395 216.179 45.5582 215.376C45.8813 214.562 45.8629 213.823 45.5029 213.158C45.132 212.488 44.4406 211.953 43.4287 211.551C42.4279 211.154 41.5663 211.079 40.844 211.327C40.1151 211.56 39.5913 212.078 39.2726 212.881C38.9539 213.684 38.98 214.42 39.3509 215.089C39.7152 215.743 40.3978 216.268 41.3987 216.666ZM40.9927 217.689C39.7058 217.178 38.8371 216.464 38.3864 215.546C37.94 214.618 37.933 213.609 38.3652 212.521C38.7756 211.487 39.4791 210.773 40.4756 210.379C41.4612 209.981 42.5809 210.031 43.8348 210.528C45.1216 211.039 45.9937 211.761 46.451 212.694C46.9083 213.626 46.9187 214.643 46.4821 215.742C46.0499 216.831 45.3476 217.558 44.3751 217.923C43.407 218.278 42.2795 218.199 40.9927 217.689ZM40.4535 208.077L43.0009 201.66L43.9743 202.046L42.9003 204.752L49.516 207.378L49.11 208.401L42.4943 205.775L41.4269 208.464L40.4535 208.077ZM51.0507 203.511L48.4382 200.278L48.8835 199.156L51.5025 202.373L51.0507 203.511ZM46.4227 195.926L45.519 198.203C44.9907 199.534 45.172 200.376 46.0629 200.729C46.9978 201.1 47.7359 200.604 48.2773 199.24L49.1613 197.013L46.4227 195.926ZM53.0218 198.545L50.1512 197.406L49.2148 199.765C48.8699 200.634 48.376 201.253 47.7331 201.621C47.0903 201.99 46.3894 202.024 45.6305 201.723C44.8936 201.43 44.4254 200.958 44.2259 200.306C44.0264 199.654 44.1078 198.871 44.4702 197.958L45.8388 194.51L53.4278 197.523L53.0218 198.545ZM51.5979 189.48L51.8794 188.77L49.5593 185.137L50.057 183.884L52.7118 188.165L57.646 186.896L57.1221 188.216L52.8858 189.17L52.6042 189.879L55.9368 191.202L55.5373 192.208L52.2048 190.885L51.9297 191.578L54.3324 195.244L53.8347 196.498L51.0908 192.2L46.2457 193.485L46.7696 192.165L50.9233 191.179L51.1984 190.486L47.9483 189.196L48.3478 188.189L51.5979 189.48ZM54.8379 183.674C55.777 183.971 56.5857 183.986 57.264 183.721C57.9466 183.444 58.4473 182.904 58.766 182.102C59.0236 181.453 59.067 180.846 58.8964 180.282C58.719 179.702 58.3552 179.239 57.805 178.894L58.3893 177.999C59.151 178.518 59.6482 179.173 59.8811 179.966C60.1029 180.754 60.0392 181.588 59.6899 182.468C59.2271 183.634 58.4996 184.408 57.5074 184.791C56.5196 185.163 55.3932 185.098 54.1284 184.596C52.8746 184.098 52.0146 183.394 51.5486 182.483C51.0759 181.557 51.06 180.539 51.5009 179.428C51.9462 178.306 52.6585 177.57 53.6376 177.22C54.6057 176.866 55.6837 176.925 56.8715 177.396L57.2675 177.554L54.8379 183.674ZM54.0261 183.314L56.0235 178.282C55.2756 177.985 54.5581 177.98 53.8711 178.268C53.1884 178.544 52.7008 179.051 52.4083 179.788C52.1289 180.492 52.1295 181.148 52.4102 181.756C52.6909 182.364 53.2295 182.883 54.0261 183.314ZM53.7202 174.655L54.1197 173.648L57.4853 174.984L59.2665 170.497L55.9009 169.161L56.3135 168.122L63.9025 171.134L63.4899 172.173L60.2564 170.89L58.4751 175.377L61.7087 176.661L61.3092 177.667L53.7202 174.655ZM57.343 165.528L63.7442 168.069L58.9867 161.387L59.5368 160.001L67.1258 163.013L66.7198 164.036L60.2856 161.482L65.0761 168.177L64.526 169.563L56.937 166.551L57.343 165.528ZM60.5662 157.408L66.9673 159.949L62.2099 153.267L62.7599 151.881L70.3489 154.893L69.9429 155.916L63.5088 153.362L68.2992 160.057L67.7491 161.443L60.1601 158.431L60.5662 157.408ZM71.8319 148.415L72.8862 145.759C73.4014 144.461 73.241 143.646 72.4051 143.315C71.6022 142.996 70.9432 143.485 70.4281 144.783L69.3737 147.439L71.8319 148.415ZM68.4169 147.06L69.4712 144.403C69.7157 143.787 69.799 143.305 69.7212 142.956C69.6477 142.596 69.424 142.341 69.05 142.193C68.6431 142.031 68.2916 142.051 67.9954 142.252C67.6883 142.448 67.4103 142.86 67.1615 143.487L66.1072 146.143L68.4169 147.06ZM70.2108 143.647L70.4253 143.732C70.7577 143.151 71.1577 142.737 71.6251 142.489C72.0815 142.238 72.5241 142.197 72.9531 142.367C73.58 142.616 73.9822 143.062 74.1597 143.705C74.3262 144.344 74.2392 145.093 73.8986 145.951L72.3728 149.795L64.7838 146.782L66.3096 142.938C66.6414 142.103 67.0728 141.529 67.6038 141.218C68.1347 140.906 68.7026 140.871 69.3076 141.111C69.7255 141.277 70.0175 141.584 70.1835 142.032C70.3495 142.479 70.3586 143.018 70.2108 143.647ZM73.1061 132.985L72.9143 133.997C72.1911 133.927 71.5718 134.044 71.0562 134.348C70.534 134.637 70.1485 135.096 69.8996 135.722C69.5765 136.536 69.5983 137.283 69.9649 137.964C70.3204 138.64 70.9986 139.176 71.9995 139.573C73.0114 139.975 73.8818 140.06 74.6107 139.827C75.333 139.579 75.8578 139.042 76.1853 138.218C76.4516 137.547 76.4873 136.911 76.2923 136.312C76.0907 135.697 75.673 135.194 75.0391 134.802L75.6069 133.901C76.4566 134.455 77.0078 135.151 77.2605 135.99C77.5132 136.829 77.4628 137.693 77.1092 138.584C76.6726 139.684 75.9659 140.422 74.989 140.798C74.0122 141.174 72.8803 141.107 71.5935 140.596C70.3177 140.09 69.4588 139.367 69.0168 138.428C68.5638 137.484 68.5556 136.462 68.9922 135.362C69.3109 134.559 69.829 133.944 70.5464 133.516C71.2638 133.087 72.117 132.911 73.1061 132.985ZM75.5517 131.49C76.4908 131.787 77.2995 131.802 77.9778 131.537C78.6605 131.26 79.1611 130.72 79.4798 129.918C79.7374 129.269 79.7809 128.662 79.6102 128.098C79.4328 127.518 79.0691 127.055 78.5188 126.71L79.1031 125.815C79.8648 126.334 80.362 126.989 80.5949 127.782C80.8167 128.57 80.753 129.404 80.4037 130.284C79.9409 131.45 79.2135 132.224 78.2212 132.607C77.2334 132.979 76.1071 132.914 74.8422 132.412C73.5884 131.914 72.7284 131.21 72.2624 130.299C71.7897 129.373 71.7738 128.355 72.2148 127.244C72.6601 126.122 73.3723 125.386 74.3514 125.036C75.3195 124.682 76.3975 124.741 77.5853 125.212L77.9813 125.37L75.5517 131.49ZM74.7399 131.13L76.7373 126.098C75.9894 125.801 75.2719 125.796 74.5849 126.084C73.9022 126.36 73.4146 126.867 73.1221 127.604C72.8427 128.308 72.8434 128.964 73.124 129.572C73.4047 130.18 73.9434 130.699 74.7399 131.13ZM74.4341 122.471L76.6802 116.812L77.6536 117.198L75.8069 121.851L82.4225 124.477L82.0231 125.483L74.4341 122.471ZM81.1764 116.454C82.1882 116.856 83.0564 116.946 83.781 116.724C84.4989 116.487 85.0172 115.967 85.3359 115.164C85.659 114.35 85.6406 113.611 85.2806 112.946C84.9097 112.277 84.2183 111.742 83.2064 111.34C82.2056 110.943 81.344 110.868 80.6217 111.116C79.8928 111.349 79.369 111.866 79.0503 112.669C78.7316 113.472 78.7577 114.208 79.1286 114.878C79.4929 115.531 80.1755 116.057 81.1764 116.454ZM80.7703 117.477C79.4835 116.966 78.6148 116.252 78.1641 115.335C77.7177 114.407 77.7107 113.398 78.1429 112.309C78.5533 111.275 79.2567 110.562 80.2533 110.168C81.2389 109.77 82.3586 109.819 83.6124 110.317C84.8993 110.828 85.7714 111.55 86.2287 112.482C86.686 113.415 86.6964 114.431 86.2598 115.531C85.8276 116.62 85.1253 117.347 84.1528 117.712C83.1847 118.066 82.0572 117.988 80.7703 117.477ZM81.7693 103.991L84.3756 97.425L91.9646 100.437L91.5586 101.46L84.9595 98.8408L83.1586 103.378L89.7577 105.997L89.3583 107.004L81.7693 103.991ZM89.0616 96.5892C90.0734 96.9909 90.9416 97.0808 91.6662 96.8592C92.3841 96.6222 92.9024 96.1022 93.2211 95.2993C93.5442 94.4854 93.5258 93.7461 93.1658 93.0812C92.7949 92.412 92.1035 91.8765 91.0916 91.4749C90.0908 91.0776 89.2292 91.003 88.5069 91.251C87.778 91.4836 87.2542 92.0014 86.9355 92.8043C86.6168 93.6072 86.6429 94.3433 87.0138 95.0125C87.3781 95.6663 88.0607 96.1919 89.0616 96.5892ZM88.6555 97.6121C87.3687 97.1013 86.4999 96.3872 86.0493 95.4699C85.6029 94.5416 85.5959 93.533 86.0281 92.4441C86.4385 91.4103 87.1419 90.6964 88.1385 90.3027C89.1241 89.9045 90.2438 89.9543 91.4976 90.452C92.7845 90.9628 93.6565 91.6845 94.1139 92.6172C94.5712 93.5499 94.5816 94.5662 94.145 95.666C93.7128 96.7549 93.0104 97.4819 92.038 97.847C91.0698 98.2012 89.9424 98.1229 88.6555 97.6121ZM90.7686 81.3193L98.3576 84.3316L97.9581 85.338L91.3425 82.712L90.1703 85.6651L93.0904 86.8242C93.7063 87.0687 94.2223 87.3244 94.6383 87.5914C95.0587 87.8474 95.3747 88.0938 95.5863 88.3305C95.7978 88.5673 95.9468 88.8174 96.0332 89.0809C96.1086 89.34 96.1345 89.5794 96.1109 89.7992C96.0763 90.0147 96.0088 90.2489 95.9084 90.5018L95.6989 91.0298L94.6925 90.6303L94.9021 90.1024C94.9632 89.9484 95.0024 89.8175 95.0197 89.7098C95.026 89.5977 94.996 89.4649 94.9296 89.3112C94.8633 89.1576 94.7442 89.0085 94.5725 88.8639C94.3897 88.715 94.1311 88.5486 93.7966 88.3649C93.4511 88.1769 93.0199 87.9802 92.5029 87.7751L88.7909 86.3016L90.7686 81.3193ZM95.7731 80.5468C96.7122 80.8432 97.5209 80.8586 98.1992 80.5931C98.8819 80.3167 99.3825 79.777 99.7012 78.9741C99.9588 78.3252 100.002 77.7186 99.8316 77.1543C99.6542 76.5746 99.2904 76.112 98.7402 75.7662L99.3245 74.8714C100.086 75.3902 100.583 76.0459 100.816 76.8386C101.038 77.6268 100.974 78.4609 100.625 79.3408C100.162 80.5067 99.4349 81.281 98.4426 81.6637C97.4548 82.0355 96.3284 81.9704 95.0636 81.4683C93.8098 80.9706 92.9498 80.2664 92.4838 79.3557C92.0111 78.4297 91.9952 77.4112 92.4361 76.3004C92.8815 75.1785 93.5937 74.4427 94.5728 74.0929C95.5409 73.7388 96.6189 73.7975 97.8067 74.269L98.2027 74.4261L95.7731 80.5468ZM94.9613 80.1864L96.9587 75.1546C96.2108 74.8577 95.4933 74.853 94.8063 75.1405C94.1236 75.4169 93.636 75.9236 93.3435 76.6605C93.0641 77.3644 93.0648 78.0204 93.3454 78.6283C93.6261 79.2362 94.1647 79.7556 94.9613 80.1864ZM94.5179 71.8736L97.0653 65.456L98.0387 65.8423L96.9647 68.548L103.58 71.174L103.174 72.1968L96.5587 69.5709L95.4913 72.26L94.5179 71.8736ZM103.591 65.7097C103.976 65.8625 104.333 65.8132 104.662 65.5618C104.996 65.2995 105.271 64.8933 105.49 64.3434C105.786 63.5955 105.823 62.9098 105.6 62.2863C105.365 61.6585 104.929 61.218 104.291 60.9647L104.389 60.7173C105.335 61.0927 105.985 61.6689 106.338 62.4459C106.692 63.2228 106.69 64.0622 106.332 64.9641C106.035 65.712 105.59 66.2548 104.998 66.5926C104.405 66.9304 103.801 66.977 103.185 66.7325C102.657 66.523 102.305 66.1921 102.128 65.7399C101.951 65.2877 101.902 64.6891 101.982 63.9439L102.509 60.2575L103.383 60.6046L102.855 63.9087C102.777 64.4253 102.803 64.824 102.934 65.1049C103.064 65.3859 103.283 65.5874 103.591 65.7097ZM107.59 61.0714L107.178 62.1107L105.322 60.9159L105.033 61.2594L102.163 60.12C101.602 59.8973 101.074 59.9108 100.581 60.1604C100.076 60.4057 99.6968 60.8472 99.4436 61.4851C99.1904 62.1231 99.1645 62.7175 99.3659 63.2685C99.5607 63.8042 99.9365 64.2207 100.493 64.5181L99.9023 65.4294C99.1584 64.9941 98.6547 64.3867 98.3912 63.6073C98.1166 62.8236 98.1583 61.9808 98.5163 61.0789C98.883 60.155 99.4384 59.5097 100.182 59.143C100.92 58.7609 101.657 58.7161 102.394 59.0086L107.59 61.0714Z" fill="#EEEEEE" fill-opacity="0.5"/>
<path d="M392.137 101.182L392.536 102.188L386.944 104.408L394.593 107.368L395.15 108.771L388.386 106.261L384.36 113.054L383.817 111.685L387.366 105.712L385.69 104.906L381.747 106.472L381.348 105.465L392.137 101.182ZM388.924 113.388C387.912 113.79 387.218 114.32 386.843 114.978C386.483 115.643 386.463 116.377 386.781 117.18C387.104 117.994 387.625 118.519 388.343 118.756C389.072 118.989 389.942 118.904 390.954 118.503C391.955 118.105 392.633 117.569 392.989 116.893C393.359 116.223 393.386 115.487 393.067 114.685C392.748 113.882 392.224 113.364 391.495 113.131C390.782 112.905 389.925 112.991 388.924 113.388ZM388.518 112.366C389.804 111.855 390.926 111.778 391.883 112.137C392.845 112.506 393.542 113.235 393.974 114.324C394.385 115.358 394.362 116.36 393.907 117.33C393.463 118.296 392.614 119.028 391.36 119.525C390.073 120.036 388.944 120.109 387.971 119.744C386.999 119.379 386.294 118.647 385.857 117.547C385.425 116.458 385.438 115.447 385.895 114.514C386.357 113.593 387.231 112.876 388.518 112.366ZM395.899 127.159L395.345 126.291C395.919 125.846 396.29 125.336 396.456 124.761C396.638 124.192 396.604 123.594 396.355 122.967C396.032 122.154 395.504 121.625 394.771 121.381C394.048 121.133 393.187 121.208 392.186 121.605C391.174 122.007 390.483 122.542 390.112 123.212C389.756 123.888 389.742 124.638 390.07 125.463C390.336 126.134 390.746 126.62 391.299 126.923C391.867 127.232 392.516 127.312 393.246 127.162L393.451 128.207C392.453 128.387 391.574 128.258 390.815 127.821C390.056 127.384 389.499 126.72 389.146 125.83C388.709 124.73 388.717 123.708 389.17 122.764C389.623 121.821 390.493 121.093 391.78 120.582C393.056 120.076 394.176 120.013 395.142 120.393C396.119 120.769 396.826 121.507 397.262 122.607C397.581 123.41 397.626 124.213 397.398 125.017C397.17 125.821 396.67 126.535 395.899 127.159ZM393.363 135.73L392.845 134.427L398.067 129.012L391.699 131.54L391.3 130.534L398.889 127.521L399.498 129.055L393.942 134.736L401.888 135.077L402.491 136.594L394.902 139.607L394.509 138.617L400.877 136.089L393.363 135.73ZM403.516 139.177L397.115 141.718L405.16 143.318L405.71 144.703L398.121 147.716L397.715 146.693L404.149 144.139L396.071 142.553L395.521 141.167L403.11 138.154L403.516 139.177ZM404.206 148.131C403.656 148.349 403.281 148.702 403.079 149.189C402.878 149.676 402.891 150.206 403.118 150.778C403.349 151.361 403.649 151.796 404.018 152.082C404.391 152.38 404.727 152.539 405.028 152.559L404.714 153.162C403.484 153.014 402.609 152.285 402.089 150.976C401.779 150.195 401.761 149.445 402.036 148.725C402.31 148.005 402.81 147.501 403.536 147.213L406.275 146.125L406.681 147.148L404.206 148.131ZM408.18 150.926L408.58 151.932L400.991 154.945L400.592 153.939L408.18 150.926ZM405.461 155.911C404.575 156.339 403.976 156.882 403.664 157.541C403.357 158.21 403.363 158.946 403.681 159.749C403.939 160.398 404.323 160.869 404.835 161.163C405.361 161.463 405.943 161.55 406.581 161.425L406.769 162.477C405.859 162.621 405.048 162.485 404.335 162.068C403.633 161.647 403.107 160.996 402.758 160.116C402.295 158.95 402.293 157.888 402.753 156.929C403.217 155.981 404.081 155.256 405.346 154.753C406.599 154.256 407.708 154.178 408.672 154.521C409.651 154.871 410.361 155.601 410.802 156.712C411.248 157.834 411.234 158.858 410.761 159.784C410.3 160.706 409.475 161.402 408.287 161.874L407.891 162.031L405.461 155.911ZM406.299 155.616L408.297 160.648C409.045 160.351 409.57 159.862 409.873 159.182C410.18 158.512 410.187 157.809 409.895 157.072C409.615 156.369 409.165 155.892 408.544 155.642C407.923 155.392 407.174 155.383 406.299 155.616ZM412.721 169.53L412.166 168.662C412.741 168.217 413.111 167.707 413.278 167.132C413.459 166.564 413.426 165.966 413.177 165.339C412.854 164.525 412.325 163.996 411.592 163.753C410.87 163.505 410.008 163.579 409.007 163.977C407.995 164.378 407.304 164.914 406.933 165.583C406.578 166.259 406.564 167.009 406.891 167.834C407.157 168.505 407.567 168.992 408.12 169.294C408.688 169.603 409.338 169.683 410.067 169.533L410.272 170.579C409.274 170.759 408.396 170.63 407.637 170.193C406.877 169.756 406.321 169.092 405.967 168.201C405.531 167.101 405.539 166.079 405.992 165.136C406.445 164.192 407.314 163.465 408.601 162.954C409.877 162.447 410.998 162.384 411.964 162.765C412.941 163.141 413.647 163.879 414.084 164.979C414.403 165.781 414.448 166.585 414.22 167.388C413.991 168.192 413.492 168.906 412.721 169.53ZM415.71 169.892L416.11 170.899L412.068 172.503L417.74 175.006L418.245 176.277L413.405 174.283L410.656 179.29L410.139 177.986L412.43 173.753L410.847 172.988L408.521 173.911L408.121 172.905L415.71 169.892ZM415.224 179.636C414.212 180.038 413.519 180.568 413.143 181.226C412.784 181.891 412.763 182.625 413.082 183.428C413.405 184.241 413.925 184.767 414.643 185.004C415.372 185.236 416.243 185.152 417.254 184.75C418.255 184.353 418.933 183.816 419.289 183.14C419.66 182.471 419.686 181.735 419.367 180.932C419.049 180.129 418.525 179.612 417.796 179.379C417.082 179.153 416.225 179.239 415.224 179.636ZM414.818 178.613C416.105 178.102 417.227 178.026 418.184 178.385C419.145 178.754 419.842 179.483 420.275 180.572C420.685 181.606 420.663 182.608 420.208 183.578C419.763 184.544 418.914 185.275 417.661 185.773C416.374 186.284 415.244 186.357 414.272 185.992C413.299 185.627 412.594 184.894 412.158 183.794C411.726 182.705 411.738 181.695 412.195 180.762C412.657 179.84 413.531 179.124 414.818 178.613ZM418.196 187.987C417.309 188.416 416.71 188.959 416.399 189.617C416.091 190.287 416.097 191.023 416.416 191.826C416.674 192.475 417.058 192.946 417.569 193.24C418.096 193.54 418.678 193.627 419.315 193.501L419.504 194.553C418.594 194.698 417.782 194.562 417.069 194.145C416.367 193.723 415.841 193.073 415.492 192.193C415.029 191.027 415.028 189.964 415.487 189.005C415.951 188.057 416.815 187.332 418.08 186.83C419.334 186.332 420.443 186.255 421.407 186.598C422.386 186.948 423.096 187.678 423.537 188.789C423.982 189.911 423.968 190.935 423.496 191.861C423.034 192.782 422.209 193.479 421.022 193.951L420.626 194.108L418.196 187.987ZM419.034 187.693L421.031 192.724C421.779 192.428 422.305 191.939 422.607 191.259C422.915 190.589 422.922 189.886 422.629 189.149C422.35 188.445 421.9 187.968 421.278 187.718C420.657 187.468 419.909 187.46 419.034 187.693Z" fill="#EEEEEE" fill-opacity="0.5"/>
<path d="M362.461 86.065L362.861 87.0713L358.819 88.676L364.492 91.1792L364.996 92.4495L360.156 90.456L357.407 95.4623L356.89 94.159L359.182 89.9261L357.598 89.1606L355.272 90.0841L354.872 89.0778L362.461 86.065ZM360.019 96.6046C359.634 96.7574 359.408 97.0381 359.341 97.4466C359.278 97.8662 359.356 98.3509 359.574 98.9008C359.871 99.6487 360.315 100.173 360.905 100.473C361.506 100.769 362.126 100.791 362.764 100.537L362.862 100.785C361.916 101.16 361.048 101.187 360.258 100.864C359.468 100.541 358.894 99.9286 358.536 99.0267C358.239 98.2788 358.19 97.5788 358.389 96.9267C358.589 96.2746 358.997 95.8263 359.613 95.5818C360.14 95.3722 360.624 95.3712 361.063 95.5789C361.502 95.7866 361.948 96.1888 362.401 96.7855L364.546 99.83L363.671 100.177L361.79 97.4101C361.492 96.9809 361.199 96.7087 360.912 96.5937C360.624 96.4787 360.327 96.4823 360.019 96.6046ZM360.29 102.723L359.877 101.684L362.047 101.28L362.022 100.832L364.892 99.6925C365.453 99.4698 365.828 99.0983 366.016 98.578C366.215 98.0533 366.188 97.472 365.935 96.8341C365.681 96.1962 365.292 95.7459 364.768 95.483C364.259 95.2268 363.7 95.1814 363.091 95.3468L362.896 94.2784C363.735 94.085 364.519 94.1815 365.245 94.5679C365.982 94.95 366.53 95.592 366.888 96.4938C367.255 97.4177 367.293 98.2682 367.003 99.0453C366.729 99.8291 366.223 100.367 365.486 100.66L360.29 102.723ZM366.372 103.13C365.822 103.349 365.446 103.702 365.245 104.189C365.044 104.676 365.057 105.206 365.284 105.778C365.515 106.361 365.815 106.795 366.183 107.082C366.556 107.38 366.893 107.539 367.194 107.559L366.879 108.162C365.649 108.013 364.774 107.285 364.255 105.976C363.945 105.195 363.927 104.445 364.201 103.725C364.476 103.005 364.976 102.501 365.702 102.212L368.44 101.125L368.846 102.148L366.372 103.13ZM370.346 105.926L370.746 106.932L363.157 109.945L362.757 108.939L370.346 105.926ZM367.627 110.91C366.74 111.339 366.141 111.882 365.83 112.541C365.522 113.21 365.528 113.946 365.847 114.749C366.105 115.398 366.489 115.869 367 116.163C367.527 116.463 368.109 116.55 368.747 116.424L368.935 117.476C368.025 117.621 367.213 117.485 366.5 117.068C365.798 116.646 365.272 115.996 364.923 115.116C364.46 113.95 364.459 112.888 364.918 111.928C365.382 110.98 366.246 110.255 367.511 109.753C368.765 109.255 369.874 109.178 370.838 109.521C371.817 109.871 372.527 110.601 372.968 111.712C373.413 112.834 373.4 113.858 372.927 114.784C372.465 115.706 371.641 116.402 370.453 116.874L370.057 117.031L367.627 110.91ZM368.465 110.616L370.462 115.648C371.21 115.351 371.736 114.862 372.039 114.182C372.346 113.512 372.353 112.809 372.06 112.072C371.781 111.368 371.331 110.891 370.709 110.642C370.088 110.392 369.34 110.383 368.465 110.616ZM374.886 124.53L374.332 123.662C374.906 123.217 375.277 122.707 375.443 122.132C375.625 121.563 375.591 120.966 375.342 120.339C375.019 119.525 374.491 118.996 373.758 118.752C373.035 118.504 372.174 118.579 371.173 118.976C370.161 119.378 369.47 119.914 369.099 120.583C368.743 121.259 368.729 122.009 369.057 122.834C369.323 123.505 369.733 123.992 370.286 124.294C370.854 124.603 371.503 124.683 372.233 124.533L372.438 125.578C371.44 125.758 370.561 125.63 369.802 125.193C369.043 124.756 368.487 124.092 368.133 123.201C367.696 122.101 367.704 121.079 368.157 120.135C368.61 119.192 369.48 118.464 370.767 117.954C372.043 117.447 373.163 117.384 374.129 117.765C375.106 118.141 375.813 118.879 376.25 119.978C376.568 120.781 376.614 121.585 376.385 122.388C376.157 123.192 375.657 123.906 374.886 124.53ZM377.738 124.546L380.286 130.963L379.313 131.35L378.238 128.644L371.623 131.27L371.217 130.247L377.832 127.621L376.765 124.932L377.738 124.546ZM374.531 135.852L375.585 138.508C376.1 139.806 376.776 140.289 377.612 139.957C378.415 139.638 378.558 138.83 378.043 137.532L376.989 134.876L374.531 135.852ZM377.945 134.496L379 137.152C379.244 137.768 379.515 138.177 379.811 138.377C380.111 138.589 380.449 138.621 380.823 138.472C381.23 138.311 381.472 138.055 381.55 137.706C381.639 137.353 381.558 136.862 381.31 136.236L380.255 133.579L377.945 134.496ZM378.981 138.21L378.766 138.296C378.923 138.946 378.916 139.522 378.745 140.023C378.586 140.519 378.292 140.852 377.863 141.022C377.236 141.271 376.637 141.223 376.067 140.876C375.507 140.525 375.057 139.921 374.717 139.063L373.191 135.219L380.779 132.206L382.305 136.05C382.637 136.886 382.717 137.599 382.544 138.19C382.371 138.781 381.982 139.196 381.377 139.436C380.959 139.602 380.536 139.579 380.108 139.367C379.68 139.155 379.305 138.769 378.981 138.21ZM380.466 142.385C379.454 142.787 378.761 143.317 378.385 143.975C378.026 144.64 378.005 145.374 378.324 146.177C378.647 146.99 379.167 147.516 379.885 147.753C380.614 147.985 381.485 147.901 382.497 147.499C383.497 147.102 384.176 146.565 384.531 145.889C384.902 145.22 384.928 144.484 384.609 143.681C384.291 142.878 383.767 142.361 383.038 142.128C382.324 141.902 381.467 141.988 380.466 142.385ZM380.06 141.362C381.347 140.851 382.469 140.775 383.426 141.134C384.388 141.503 385.084 142.232 385.517 143.321C385.927 144.355 385.905 145.357 385.45 146.327C385.005 147.293 384.156 148.024 382.903 148.522C381.616 149.033 380.486 149.106 379.514 148.741C378.541 148.376 377.837 147.643 377.4 146.543C376.968 145.455 376.98 144.444 377.437 143.511C377.899 142.589 378.773 141.873 380.06 141.362ZM388.583 151.862L391.189 158.427L383.6 161.44L383.194 160.417L389.793 157.798L387.992 153.261L381.393 155.881L380.994 154.874L388.583 151.862ZM388.401 162.517C387.389 162.918 386.698 163.454 386.327 164.123C385.972 164.799 385.955 165.544 386.278 166.358C386.597 167.161 387.113 167.675 387.827 167.901C388.556 168.134 389.426 168.049 390.438 167.647C391.45 167.246 392.136 166.712 392.496 166.048C392.86 165.394 392.883 164.665 392.564 163.862C392.241 163.049 391.718 162.518 390.996 162.27C390.278 162.033 389.413 162.115 388.401 162.517ZM388.27 162.187C389.568 161.672 390.68 161.555 391.607 161.836C392.533 162.118 393.195 162.759 393.593 163.76C393.981 164.738 393.94 165.678 393.47 166.577C393 167.477 392.143 168.174 390.9 168.667C389.613 169.178 388.478 169.253 387.495 168.892C386.511 168.532 385.827 167.867 385.443 166.9C385.059 165.932 385.11 165.033 385.595 164.204C386.081 163.374 386.972 162.702 388.27 162.187ZM381.023 164.281L391.813 159.997L392.212 161.004L390.039 161.446L390.067 161.855L386.768 163.165L386.502 162.832L384.623 164.017L381.423 165.287L381.023 164.281ZM391.717 170.724C390.705 171.126 390.011 171.656 389.636 172.314C389.276 172.979 389.256 173.713 389.574 174.515C389.897 175.329 390.418 175.855 391.136 176.092C391.865 176.324 392.735 176.24 393.747 175.838C394.748 175.441 395.426 174.904 395.782 174.228C396.153 173.559 396.179 172.823 395.86 172.02C395.541 171.217 395.017 170.699 394.288 170.467C393.575 170.241 392.718 170.327 391.717 170.724ZM391.311 169.701C392.597 169.19 393.719 169.114 394.677 169.472C395.638 169.842 396.335 170.571 396.767 171.66C397.178 172.694 397.155 173.696 396.7 174.666C396.256 175.631 395.407 176.363 394.153 176.861C392.866 177.372 391.737 177.445 390.764 177.08C389.792 176.715 389.087 175.982 388.651 174.882C388.218 173.793 388.231 172.783 388.688 171.85C389.15 170.928 390.024 170.212 391.311 169.701ZM394.734 186.887L391.204 188.289L390.798 187.266L393.338 186.257L391.033 180.45L388.492 181.459L388.099 180.469L391.63 179.067L391.872 179.678C391.933 179.832 392 179.952 392.072 180.037C392.149 180.134 392.264 180.216 392.418 180.282C392.587 180.355 392.783 180.385 393.007 180.373C393.247 180.367 393.562 180.312 393.954 180.207C394.356 180.098 394.821 179.939 395.349 179.73L399.061 178.256L401.039 183.238L394.341 185.897L394.734 186.887ZM393.942 184.891L399.666 182.618L398.494 179.665L395.574 180.824C394.199 181.37 393.242 181.445 392.702 181.048L392.481 181.212L393.942 184.891ZM397.526 191.033L404.066 190.862L404.505 191.967L394.075 192.154C393.581 192.16 393.148 192.064 392.777 191.868C392.4 191.686 392.141 191.42 392.002 191.068L391.36 189.451L392.359 189.035L392.838 190.239C392.969 190.569 393.144 190.786 393.363 190.89C393.572 190.998 393.901 191.027 394.352 190.975L395.285 190.872L401.741 185.005L402.166 186.077L397.297 190.455L396.445 191.004L396.53 191.218L397.526 191.033ZM404.912 192.992L405.311 193.999L401.269 195.603L406.942 198.107L407.446 199.377L402.606 197.383L399.857 202.39L399.34 201.086L401.632 196.854L400.048 196.088L397.722 197.012L397.323 196.005L404.912 192.992ZM407.748 200.137L410.296 206.555L409.323 206.941L408.249 204.236L401.633 206.862L401.227 205.839L407.842 203.213L406.775 200.524L407.748 200.137ZM407.329 210.05C406.318 210.452 405.624 210.982 405.249 211.64C404.889 212.305 404.868 213.039 405.187 213.842C405.51 214.656 406.031 215.181 406.749 215.418C407.478 215.651 408.348 215.566 409.36 215.165C410.361 214.767 411.039 214.231 411.394 213.555C411.765 212.886 411.791 212.149 411.473 211.347C411.154 210.544 410.63 210.026 409.901 209.793C409.188 209.567 408.33 209.653 407.329 210.05ZM406.923 209.028C408.21 208.517 409.332 208.44 410.289 208.799C411.251 209.168 411.948 209.898 412.38 210.986C412.79 212.02 412.768 213.022 412.313 213.992C411.869 214.958 411.02 215.69 409.766 216.187C408.479 216.698 407.349 216.771 406.377 216.406C405.404 216.041 404.7 215.309 404.263 214.209C403.831 213.12 403.843 212.109 404.301 211.176C404.762 210.255 405.637 209.538 406.923 209.028ZM407.796 219.644L408.851 222.3C409.366 223.598 410.041 224.081 410.877 223.749C411.68 223.431 411.824 222.622 411.309 221.325L410.254 218.669L407.796 219.644ZM411.211 218.289L412.266 220.945C412.51 221.561 412.781 221.969 413.077 222.17C413.377 222.381 413.714 222.413 414.088 222.265C414.495 222.103 414.738 221.848 414.815 221.498C414.904 221.145 414.824 220.655 414.575 220.028L413.521 217.372L411.211 218.289ZM412.246 222.003L412.032 222.088C412.189 222.739 412.182 223.314 412.011 223.815C411.852 224.311 411.557 224.644 411.128 224.815C410.501 225.064 409.903 225.015 409.332 224.668C408.773 224.318 408.323 223.713 407.982 222.855L406.456 219.011L414.045 215.999L415.571 219.843C415.903 220.678 415.983 221.392 415.81 221.982C415.637 222.573 415.248 222.988 414.643 223.229C414.225 223.394 413.802 223.371 413.374 223.159C412.946 222.947 412.57 222.562 412.246 222.003Z" fill="#EEEEEE" fill-opacity="0.5"/>
<defs>
<linearGradient id="paint0_linear_0_1" x1="225" y1="0.156372" x2="225" y2="449.559" gradientUnits="userSpaceOnUse">
<stop stop-color="#912BB9"/>
<stop offset="1" stop-color="#F32D7A"/>
</linearGradient>
</defs>
</svg>
