<svg width="450" height="450" viewBox="0 0 450 450" fill="none" xmlns="http://www.w3.org/2000/svg">
<path fill-rule="evenodd" clip-rule="evenodd" d="M 225 450.6 C 349.1 450.6 449.7 350 449.7 225.9 C 449.7 101.8 349.1 1.2 225 1.2 C 100.9 1.2 0.3 101.8 0.3 225.9 C 0.3 350 100.9 450.6 225 450.6 Z M 225 375.3 C 306.4 375.3 372.3 309.4 372.3 228 C 372.3 146.6 306.4 80.7 225 80.7 C 143.6 80.7 77.7 146.6 77.7 228 C 77.7 309.4 143.6 375.3 225 375.3 Z" fill="url(#paint0_linear_0_1)"/>
<path d="M 153 41.6 H 156 C 157.9 41.6 158.8 40.9 158.8 39.5 C 158.8 38.1 157.9 37.4 156 37.4 H 153 V 41.6 Z M 153 36.4 H 156 C 156.9 36.4 157.6 36.2 158 35.8 C 158.4 35.5 158.6 34.9 158.6 34.2 C 158.6 33.5 158.4 33 158 32.6 C 157.6 32.3 157 32.1 156 32.1 H 153 V 36.4 Z M 157.4 36.8 V 37 C 158.1 37.2 158.8 37.5 159.2 38 C 159.7 38.5 159.9 39 159.9 39.7 C 159.9 40.6 159.6 41.3 158.9 41.9 C 158.3 42.4 157.4 42.7 156.2 42.7 H 151.9 V 31.1 H 156.2 C 157.4 31.1 158.2 31.3 158.8 31.9 C 159.4 32.4 159.7 33.1 159.7 34.1 C 159.7 34.8 159.5 35.4 159.1 35.8 C 158.7 36.3 158.1 36.6 157.4 36.8 Z M 162.2 38.9 C 162.3 39.9 162.5 40.6 163 41.2 C 163.5 41.7 164.2 42 165.1 42 C 165.8 42 166.4 41.8 166.8 41.4 C 167.3 41 167.6 40.5 167.7 39.9 L 168.8 40.1 C 168.6 41 168.1 41.7 167.5 42.2 C 166.8 42.7 166 42.9 165.1 42.9 C 163.8 42.9 162.9 42.6 162.1 41.8 C 161.4 41 161.1 39.9 161.1 38.6 C 161.1 37.2 161.4 36.2 162.1 35.4 C 162.8 34.6 163.7 34.2 164.9 34.2 C 166.1 34.2 167.1 34.6 167.7 35.4 C 168.4 36.2 168.8 37.2 168.8 38.5 V 38.9 H 162.2 Z M 162.2 38 H 167.6 C 167.6 37.2 167.4 36.5 166.8 36 C 166.3 35.5 165.7 35.2 164.9 35.2 C 164.1 35.2 163.5 35.4 163.1 35.9 C 162.6 36.4 162.3 37.1 162.2 38 Z M 171.2 38.6 C 171.2 39.7 171.5 40.5 172 41.1 C 172.5 41.7 173.1 42 174 42 C 174.9 42 175.6 41.7 176 41.1 C 176.5 40.5 176.8 39.7 176.8 38.6 C 176.8 37.5 176.5 36.7 176 36.1 C 175.6 35.5 174.9 35.2 174 35.2 C 173.1 35.2 172.5 35.5 172 36.1 C 171.5 36.7 171.2 37.5 171.2 38.6 Z M 170.9 38.6 C 170.9 37.2 171.2 36.1 171.8 35.4 C 172.4 34.6 173.2 34.3 174.3 34.3 C 175.4 34.3 176.2 34.6 176.9 35.4 C 177.5 36.2 177.9 37.2 177.9 38.6 C 177.9 39.9 177.5 41 176.8 41.8 C 176.1 42.6 175.3 43 174.2 43 C 173.2 43 172.4 42.6 171.8 41.8 C 171.2 41.1 170.9 40 170.9 38.6 Z M 170.2 46.1 V 34.5 H 171.2 L 170.8 36.7 L 171.2 36.8 V 40.4 L 170.8 40.5 L 171.2 42.7 V 46.1 H 170.2 Z M 178.9 34.5 H 185.8 V 35.6 H 182.9 V 42.7 H 181.8 V 35.6 H 178.9 V 34.5 Z M 188.2 34.5 V 41.4 L 192.7 34.5 H 194.2 V 42.7 H 193.1 V 35.8 L 188.6 42.7 H 187.1 V 34.5 H 188.2 Z M 195.9 34.5 H 197 V 38.9 L 201.4 34.5 H 202.7 L 199.1 38.3 L 202.7 42.7 H 201.3 L 198.3 39 L 197 40.2 V 42.7 H 195.9 V 34.5 Z M 204.8 40.7 C 204.8 41.1 204.9 41.4 205.3 41.6 C 205.7 41.8 206.1 41.9 206.7 41.9 C 207.5 41.9 208.2 41.7 208.7 41.3 C 209.2 40.8 209.4 40.3 209.4 39.6 H 209.7 C 209.7 40.6 209.4 41.4 208.8 42 C 208.2 42.6 207.4 42.9 206.5 42.9 C 205.7 42.9 205 42.7 204.5 42.3 C 203.9 41.9 203.7 41.3 203.7 40.7 C 203.7 40.1 203.8 39.7 204.2 39.3 C 204.6 39 205.1 38.7 205.8 38.5 L 209.4 37.7 V 38.6 L 206.2 39.3 C 205.7 39.4 205.3 39.6 205.1 39.8 C 204.9 40.1 204.8 40.3 204.8 40.7 Z M 210.6 42.7 H 209.4 L 209.9 40.5 L 209.4 40.4 V 37.3 C 209.4 36.7 209.2 36.2 208.8 35.8 C 208.4 35.5 207.9 35.3 207.2 35.3 C 206.5 35.3 205.9 35.5 205.5 35.8 C 205.1 36.2 204.8 36.7 204.7 37.4 L 203.7 37.1 C 203.8 36.3 204.2 35.6 204.8 35.1 C 205.4 34.5 206.2 34.3 207.2 34.3 C 208.2 34.3 209 34.5 209.6 35.1 C 210.2 35.6 210.6 36.3 210.6 37.1 V 42.7 Z M 219.1 34.5 V 42.7 H 218 V 35.6 H 214.8 V 38.7 C 214.8 39.4 214.7 39.9 214.7 40.4 C 214.6 40.9 214.5 41.3 214.3 41.6 C 214.2 41.9 214 42.1 213.8 42.3 C 213.6 42.4 213.4 42.6 213.1 42.6 C 212.9 42.7 212.7 42.7 212.4 42.7 H 211.8 V 41.6 H 212.4 C 212.6 41.6 212.7 41.6 212.8 41.6 C 212.9 41.5 213 41.5 213.2 41.3 C 213.3 41.2 213.4 41 213.4 40.8 C 213.5 40.6 213.6 40.3 213.6 39.9 C 213.7 39.5 213.7 39.1 213.7 38.5 V 34.5 H 219.1 Z M 221.8 41.6 H 224.3 C 225.7 41.6 226.4 41.1 226.4 40.1 C 226.4 39 225.7 38.5 224.2 38.5 H 221.8 V 41.6 Z M 221.8 34.5 V 37.4 H 224.4 C 225.3 37.4 226.1 37.7 226.7 38.2 C 227.2 38.6 227.5 39.3 227.5 40.1 C 227.5 40.9 227.3 41.6 226.7 42 C 226.2 42.5 225.4 42.7 224.5 42.7 H 220.8 V 34.5 H 221.8 Z M 229 34.5 H 230.1 V 38.1 H 234.9 V 34.5 H 236.1 V 42.7 H 234.9 V 39.2 H 230.1 V 42.7 H 229 V 34.5 Z M 245.4 34.5 H 246.5 V 42.7 H 245.4 V 34.5 Z M 238.8 41.6 H 241.2 C 242.7 41.6 243.4 41.1 243.4 40.1 C 243.4 39 242.7 38.5 241.2 38.5 H 238.8 V 41.6 Z M 238.8 34.5 V 37.4 H 241.4 C 242.3 37.4 243.1 37.7 243.6 38.2 C 244.2 38.6 244.5 39.3 244.5 40.1 C 244.5 40.9 244.2 41.6 243.7 42 C 243.2 42.5 242.4 42.7 241.4 42.7 H 237.8 V 34.5 H 238.8 Z M 253.3 31.1 H 254.2 C 254.2 31.7 254 32.3 253.5 32.7 C 253 33.2 252.4 33.4 251.6 33.4 C 250.9 33.4 250.3 33.2 249.8 32.7 C 249.3 32.3 249.1 31.7 249.1 31.1 H 250 C 250 31.5 250.2 31.8 250.5 32.2 C 250.8 32.5 251.2 32.6 251.6 32.6 C 252.1 32.6 252.5 32.5 252.8 32.2 C 253.1 31.8 253.3 31.5 253.3 31.1 Z M 249.3 34.5 V 41.4 L 253.7 34.5 H 255.2 V 42.7 H 254.1 V 35.8 L 249.7 42.7 H 248.2 V 34.5 H 249.3 Z M 261.8 41.7 H 264.7 C 266.1 41.7 266.8 41.2 266.8 40.3 C 266.8 39.5 266.1 39 264.7 39 H 261.8 V 41.7 Z M 261.8 38 H 264.7 C 265.3 38 265.8 37.9 266.1 37.7 C 266.4 37.5 266.6 37.2 266.6 36.8 C 266.6 36.4 266.4 36 266.1 35.8 C 265.8 35.6 265.3 35.5 264.7 35.5 H 261.8 V 38 Z M 265.6 38.4 V 38.6 C 266.3 38.7 266.8 38.9 267.2 39.3 C 267.6 39.6 267.8 40 267.8 40.5 C 267.8 41.2 267.6 41.7 267 42.1 C 266.5 42.5 265.8 42.7 264.9 42.7 H 260.7 V 34.5 H 264.9 C 265.8 34.5 266.4 34.7 266.9 35.1 C 267.4 35.5 267.7 36 267.7 36.6 C 267.7 37.1 267.5 37.5 267.1 37.8 C 266.8 38.1 266.3 38.3 265.6 38.4 Z M 273.7 38.4 V 38.7 C 274.2 38.7 274.6 38.9 274.9 39.2 C 275.3 39.5 275.4 39.9 275.4 40.4 C 275.4 41.1 275.1 41.8 274.5 42.3 C 273.9 42.7 273.2 43 272.2 43 C 271.3 43 270.6 42.7 270 42.3 C 269.5 41.8 269.1 41.1 269 40.2 L 270 40 C 270.2 40.7 270.4 41.2 270.8 41.5 C 271.1 41.8 271.6 42 272.2 42 C 272.8 42 273.3 41.8 273.7 41.5 C 274.1 41.2 274.3 40.7 274.3 40.2 C 274.3 39.9 274.2 39.6 273.9 39.4 C 273.7 39.2 273.4 39.1 273 39.1 H 271.1 V 38.1 H 273 C 273.4 38.1 273.7 37.9 273.9 37.7 C 274.2 37.5 274.3 37.2 274.3 36.8 C 274.3 36.4 274.1 36 273.7 35.7 C 273.3 35.4 272.8 35.3 272.2 35.3 C 271.6 35.3 271.1 35.4 270.8 35.7 C 270.4 36 270.2 36.5 270 37.1 L 269 36.9 C 269.1 36 269.5 35.4 270 34.9 C 270.6 34.5 271.3 34.2 272.2 34.2 C 273.2 34.2 273.9 34.5 274.5 34.9 C 275.1 35.3 275.4 35.9 275.4 36.6 C 275.4 37.1 275.3 37.5 274.9 37.8 C 274.6 38.2 274.2 38.4 273.7 38.4 Z M 283.6 34.5 V 42.7 H 282.5 V 35.6 H 279.4 V 38.7 C 279.4 39.4 279.3 39.9 279.2 40.4 C 279.1 40.9 279 41.3 278.9 41.6 C 278.7 41.9 278.6 42.1 278.3 42.3 C 278.1 42.4 277.9 42.6 277.7 42.6 C 277.5 42.7 277.3 42.7 277 42.7 H 276.4 V 41.6 H 277 C 277.1 41.6 277.3 41.6 277.4 41.6 C 277.5 41.5 277.6 41.5 277.7 41.3 C 277.8 41.2 277.9 41 278 40.8 C 278.1 40.6 278.1 40.3 278.2 39.9 C 278.2 39.5 278.3 39.1 278.3 38.5 V 34.5 H 283.6 Z M 286.2 38.9 C 286.3 39.9 286.5 40.6 287 41.2 C 287.5 41.7 288.2 42 289.1 42 C 289.8 42 290.4 41.8 290.8 41.4 C 291.3 41 291.6 40.5 291.7 39.9 L 292.8 40.1 C 292.6 41 292.1 41.7 291.5 42.2 C 290.8 42.7 290 42.9 289.1 42.9 C 287.8 42.9 286.9 42.6 286.1 41.8 C 285.4 41 285.1 39.9 285.1 38.6 C 285.1 37.2 285.4 36.2 286.1 35.4 C 286.8 34.6 287.7 34.2 288.9 34.2 C 290.1 34.2 291.1 34.6 291.7 35.4 C 292.4 36.2 292.8 37.2 292.8 38.5 V 38.9 H 286.2 Z M 286.2 38 H 291.6 C 291.6 37.2 291.4 36.5 290.9 36 C 290.3 35.5 289.7 35.2 288.9 35.2 C 288.1 35.2 287.5 35.4 287.1 35.9 C 286.6 36.4 286.3 37.1 286.2 38 Z M 293.8 34.5 H 300.7 V 35.6 H 297.8 V 42.7 H 296.7 V 35.6 H 293.8 V 34.5 Z" fill="#eeeeee"/>
<path d="M 169.9 61 H 172.9 C 174.8 61 175.7 60.3 175.7 58.9 C 175.7 57.5 174.8 56.8 172.9 56.8 H 169.9 V 61 Z M 169.9 55.7 H 172.9 C 173.8 55.7 174.5 55.6 174.9 55.2 C 175.3 54.8 175.5 54.3 175.5 53.6 C 175.5 52.9 175.3 52.3 174.9 52 C 174.5 51.7 173.8 51.5 172.9 51.5 H 169.9 V 55.7 Z M 174.2 56.1 V 56.4 C 175 56.5 175.6 56.9 176.1 57.4 C 176.5 57.8 176.8 58.4 176.8 59.1 C 176.8 60 176.5 60.7 175.8 61.3 C 175.1 61.8 174.2 62.1 173.1 62.1 H 168.8 V 50.4 H 173.1 C 174.2 50.4 175.1 50.7 175.7 51.3 C 176.3 51.8 176.6 52.5 176.6 53.4 C 176.6 54.1 176.4 54.7 176 55.2 C 175.6 55.7 175 56 174.2 56.1 Z M 179 60 C 179 60.5 179.2 60.8 179.6 61 C 179.9 61.2 180.4 61.3 181 61.3 C 181.8 61.3 182.5 61.1 182.9 60.7 C 183.4 60.2 183.7 59.6 183.7 58.9 H 184 C 184 60 183.7 60.8 183.1 61.4 C 182.5 62 181.7 62.3 180.7 62.3 C 179.9 62.3 179.3 62.1 178.7 61.7 C 178.2 61.3 177.9 60.7 177.9 60 C 177.9 59.5 178.1 59 178.5 58.7 C 178.8 58.4 179.4 58.1 180.1 57.9 L 183.7 57 V 58 L 180.4 58.7 C 179.9 58.8 179.6 59 179.3 59.2 C 179.1 59.4 179 59.7 179 60 Z M 184.8 62.1 H 183.7 L 184.1 59.9 L 183.7 59.7 V 56.7 C 183.7 56.1 183.5 55.6 183.1 55.2 C 182.7 54.8 182.1 54.6 181.4 54.6 C 180.7 54.6 180.2 54.8 179.7 55.2 C 179.3 55.6 179.1 56.1 179 56.7 L 177.9 56.5 C 178.1 55.7 178.4 55 179.1 54.4 C 179.7 53.9 180.5 53.6 181.5 53.6 C 182.5 53.6 183.3 53.9 183.9 54.5 C 184.5 55 184.8 55.7 184.8 56.5 V 62.1 Z M 195.3 62.1 H 186.5 V 53.9 H 187.6 V 61 H 190.3 V 53.9 H 191.4 V 61 H 194.2 V 53.9 H 195.3 V 62.1 Z M 197.8 58.3 C 197.9 59.2 198.2 60 198.7 60.5 C 199.2 61.1 199.8 61.3 200.7 61.3 C 201.4 61.3 202 61.1 202.4 60.8 C 202.9 60.4 203.2 59.9 203.3 59.2 L 204.4 59.5 C 204.2 60.4 203.8 61.1 203.1 61.6 C 202.5 62.1 201.7 62.3 200.7 62.3 C 199.5 62.3 198.5 61.9 197.7 61.1 C 197 60.4 196.7 59.3 196.7 57.9 C 196.7 56.6 197 55.5 197.7 54.8 C 198.4 54 199.3 53.6 200.5 53.6 C 201.7 53.6 202.7 54 203.4 54.8 C 204 55.5 204.4 56.6 204.4 57.8 V 58.3 H 197.8 Z M 197.8 57.4 H 203.2 C 203.2 56.6 203 55.9 202.5 55.4 C 202 54.8 201.3 54.6 200.5 54.6 C 199.8 54.6 199.1 54.8 198.7 55.3 C 198.2 55.8 197.9 56.5 197.8 57.4 Z M 205.8 53.9 H 211.9 V 54.9 H 206.9 V 62.1 H 205.8 V 53.9 Z M 213.8 57.9 C 213.8 59 214.1 59.9 214.6 60.5 C 215 61 215.7 61.3 216.6 61.3 C 217.5 61.3 218.1 61 218.6 60.5 C 219.1 59.9 219.3 59 219.3 57.9 C 219.3 56.9 219.1 56 218.6 55.5 C 218.1 54.9 217.4 54.6 216.6 54.6 C 215.7 54.6 215 54.9 214.6 55.5 C 214.1 56 213.8 56.9 213.8 57.9 Z M 212.7 57.9 C 212.7 56.6 213.1 55.5 213.8 54.7 C 214.5 54 215.4 53.6 216.6 53.6 C 217.7 53.6 218.6 54 219.3 54.8 C 220.1 55.5 220.4 56.6 220.4 57.9 C 220.4 59.3 220.1 60.4 219.4 61.2 C 218.7 61.9 217.8 62.3 216.6 62.3 C 215.4 62.3 214.5 61.9 213.8 61.2 C 213.1 60.4 212.7 59.3 212.7 57.9 Z M 225.4 57.7 L 226.2 57.7 C 226.2 56.7 226.5 55.9 227.1 55.3 C 227.7 54.7 228.4 54.4 229.3 54.4 C 230.3 54.4 231.1 54.7 231.8 55.5 C 232.4 56.3 232.8 57.3 232.8 58.5 C 232.8 59.6 232.4 60.6 231.8 61.3 C 231.2 62 230.4 62.3 229.3 62.3 C 228.2 62.3 227.2 61.9 226.5 61 C 225.7 60.2 225.4 59.1 225.4 57.7 Z M 226.5 58.1 C 226.5 59 226.7 59.8 227.3 60.4 C 227.8 61 228.5 61.3 229.3 61.3 C 230 61.3 230.6 61.1 231 60.5 C 231.4 60 231.7 59.2 231.7 58.3 C 231.7 57.4 231.4 56.6 231 56.1 C 230.5 55.6 229.8 55.3 229 55.3 C 228.2 55.3 227.6 55.6 227.1 56.1 C 226.7 56.6 226.5 57.2 226.5 58.1 Z M 228.9 51.3 C 230.3 50.8 231 50.3 231.2 49.7 L 232.2 50.2 C 232.1 50.6 231.7 51 231.1 51.4 C 230.6 51.7 229.8 52.1 228.9 52.4 C 228.1 52.6 227.6 52.9 227.2 53.3 C 226.9 53.7 226.7 54.3 226.6 55.1 L 226.1 56.4 L 226.5 56.6 C 226.5 56.9 226.5 57.3 226.5 57.8 L 225.4 57.7 C 225.4 56.3 225.5 55.2 225.7 54.4 C 225.9 53.6 226.2 52.9 226.7 52.5 C 227.2 52 228 51.6 228.9 51.3 Z M 235.3 53.9 V 60.8 L 239.7 53.9 H 241.2 V 62.1 H 240.1 V 55.1 L 235.7 62.1 H 234.2 V 53.9 H 235.3 Z M 247.4 57.8 V 58 C 247.9 58.1 248.3 58.3 248.6 58.6 C 248.9 58.9 249.1 59.3 249.1 59.7 C 249.1 60.5 248.8 61.1 248.2 61.6 C 247.6 62.1 246.8 62.4 245.9 62.4 C 245 62.4 244.3 62.1 243.7 61.6 C 243.1 61.2 242.8 60.5 242.6 59.6 L 243.7 59.4 C 243.8 60 244.1 60.6 244.4 60.9 C 244.8 61.2 245.2 61.4 245.8 61.4 C 246.5 61.4 247 61.2 247.4 60.9 C 247.8 60.5 248 60.1 248 59.6 C 248 59.2 247.9 59 247.6 58.8 C 247.4 58.5 247.1 58.4 246.7 58.4 H 244.7 V 57.4 H 246.7 C 247.1 57.4 247.4 57.3 247.6 57.1 C 247.9 56.9 248 56.6 248 56.2 C 248 55.7 247.8 55.3 247.4 55.1 C 247 54.8 246.5 54.6 245.9 54.6 C 245.3 54.6 244.8 54.8 244.4 55.1 C 244.1 55.4 243.8 55.8 243.7 56.5 L 242.6 56.3 C 242.8 55.4 243.1 54.7 243.7 54.3 C 244.3 53.8 245 53.6 245.9 53.6 C 246.8 53.6 247.6 53.8 248.2 54.3 C 248.8 54.7 249.1 55.3 249.1 55.9 C 249.1 56.4 248.9 56.9 248.6 57.2 C 248.3 57.5 247.9 57.7 247.4 57.8 Z M 250.5 53.9 H 251.6 V 57.5 H 256.4 V 53.9 H 257.5 V 62.1 H 256.4 V 58.6 H 251.6 V 62.1 H 250.5 V 53.9 Z M 260 58.3 C 260.1 59.2 260.4 60 260.9 60.5 C 261.4 61.1 262.1 61.3 263 61.3 C 263.6 61.3 264.2 61.1 264.7 60.8 C 265.2 60.4 265.5 59.9 265.6 59.2 L 266.6 59.5 C 266.4 60.4 266 61.1 265.3 61.6 C 264.7 62.1 263.9 62.3 263 62.3 C 261.7 62.3 260.7 61.9 260 61.1 C 259.3 60.4 258.9 59.3 258.9 57.9 C 258.9 56.6 259.3 55.5 259.9 54.8 C 260.6 54 261.6 53.6 262.8 53.6 C 264 53.6 264.9 54 265.6 54.8 C 266.3 55.5 266.6 56.6 266.6 57.8 V 58.3 H 260 Z M 260.1 57.4 H 265.5 C 265.5 56.6 265.2 55.9 264.7 55.4 C 264.2 54.8 263.5 54.6 262.8 54.6 C 262 54.6 261.4 54.8 260.9 55.3 C 260.5 55.8 260.2 56.5 260.1 57.4 Z M 275.4 56.5 L 274.4 56.7 C 274.2 56 273.8 55.5 273.4 55.1 C 272.9 54.8 272.3 54.6 271.6 54.6 C 270.8 54.6 270.1 54.9 269.6 55.5 C 269.1 56 268.8 56.9 268.8 57.9 C 268.8 59 269.1 59.9 269.6 60.5 C 270.1 61 270.8 61.3 271.6 61.3 C 272.4 61.3 273 61.1 273.5 60.7 C 274 60.3 274.3 59.7 274.4 59 L 275.4 59.2 C 275.2 60.2 274.8 61 274.1 61.5 C 273.4 62 272.6 62.3 271.6 62.3 C 270.5 62.3 269.5 61.9 268.8 61.2 C 268.1 60.4 267.7 59.3 267.7 57.9 C 267.7 56.6 268.1 55.5 268.8 54.7 C 269.5 54 270.5 53.6 271.6 53.6 C 272.5 53.6 273.3 53.8 273.9 54.4 C 274.6 54.9 275.1 55.6 275.4 56.5 Z M 277.6 60 C 277.6 60.5 277.8 60.8 278.2 61 C 278.6 61.2 279 61.3 279.6 61.3 C 280.4 61.3 281.1 61.1 281.6 60.7 C 282.1 60.2 282.3 59.6 282.3 58.9 H 282.6 C 282.6 60 282.3 60.8 281.7 61.4 C 281.1 62 280.3 62.3 279.4 62.3 C 278.6 62.3 277.9 62.1 277.3 61.7 C 276.8 61.3 276.6 60.7 276.6 60 C 276.6 59.5 276.7 59 277.1 58.7 C 277.4 58.4 278 58.1 278.7 57.9 L 282.3 57 V 58 L 279.1 58.7 C 278.5 58.8 278.2 59 278 59.2 C 277.8 59.4 277.6 59.7 277.6 60 Z M 283.4 62.1 H 282.3 L 282.7 59.9 L 282.3 59.7 V 56.7 C 282.3 56.1 282.1 55.6 281.7 55.2 C 281.3 54.8 280.7 54.6 280 54.6 C 279.4 54.6 278.8 54.8 278.4 55.2 C 277.9 55.6 277.7 56.1 277.6 56.7 L 276.6 56.5 C 276.7 55.7 277.1 55 277.7 54.4 C 278.3 53.9 279.1 53.6 280.1 53.6 C 281.1 53.6 281.9 53.9 282.5 54.5 C 283.1 55 283.4 55.7 283.4 56.5 V 62.1 Z" fill="#eeeeee"/>
<path transform="matrix(1,0.1,-0.1,1,29.1,-8.3)" d="M 17.4 176.2 L 20.3 168.8 L 31.1 173.1 L 30.7 174.1 L 20.9 170.3 L 18.8 175.6 L 28.6 179.5 L 28.2 180.5 L 17.4 176.2 Z M 28.2 169.3 C 29.2 169.7 30.1 169.8 30.8 169.6 C 31.5 169.3 32.1 168.8 32.4 168 C 32.7 167.2 32.7 166.4 32.3 165.8 C 32 165.1 31.3 164.6 30.2 164.2 C 29.2 163.8 28.4 163.7 27.7 163.9 C 26.9 164.2 26.4 164.7 26.1 165.5 C 25.8 166.3 25.8 167 26.2 167.7 C 26.5 168.4 27.2 168.9 28.2 169.3 Z M 27.8 170.3 C 26.5 169.8 25.7 169.1 25.2 168.2 C 24.8 167.2 24.8 166.2 25.2 165.1 C 25.6 164.1 26.3 163.4 27.3 163 C 28.3 162.6 29.4 162.6 30.7 163.1 C 31.9 163.7 32.8 164.4 33.3 165.3 C 33.7 166.2 33.7 167.3 33.3 168.4 C 32.9 169.4 32.2 170.2 31.2 170.5 C 30.2 170.9 29.1 170.8 27.8 170.3 Z M 37.1 155.4 L 40.6 156.8 L 40.2 157.9 L 37.7 156.9 L 35.4 162.7 L 37.9 163.7 L 37.5 164.7 L 34 163.3 L 34.2 162.7 C 34.3 162.5 34.3 162.4 34.3 162.3 C 34.4 162.1 34.3 162 34.3 161.8 C 34.2 161.7 34.1 161.5 33.9 161.4 C 33.7 161.2 33.5 161 33.1 160.8 C 32.7 160.6 32.3 160.4 31.8 160.2 L 28 158.8 L 30 153.8 L 36.7 156.4 L 37.1 155.4 Z M 36.3 157.4 L 30.6 155.2 L 29.4 158.1 L 32.3 159.3 C 33.7 159.8 34.5 160.4 34.6 161.1 L 34.9 161.1 L 36.3 157.4 Z M 40.6 146.6 L 44.2 148 L 43.8 149 L 41.2 148 L 38.9 153.8 L 41.4 154.8 L 41.1 155.8 L 37.5 154.4 L 37.8 153.8 C 37.8 153.6 37.9 153.5 37.9 153.4 C 37.9 153.3 37.8 153.1 37.8 153 C 37.7 152.8 37.6 152.7 37.4 152.5 C 37.2 152.4 37 152.2 36.6 152 C 36.2 151.8 35.8 151.6 35.3 151.4 L 31.6 149.9 L 33.5 144.9 L 40.2 147.6 L 40.6 146.6 Z M 39.8 148.6 L 34.1 146.3 L 32.9 149.3 L 35.9 150.4 C 37.2 151 38 151.6 38.1 152.2 L 38.4 152.3 L 39.8 148.6 Z M 38.8 143.4 C 39.8 143.7 40.6 143.8 41.2 143.5 C 41.9 143.2 42.4 142.7 42.7 141.9 C 43 141.2 43 140.6 42.9 140.1 C 42.7 139.5 42.3 139 41.8 138.7 L 42.4 137.8 C 43.1 138.3 43.6 138.9 43.9 139.7 C 44.1 140.5 44 141.4 43.7 142.2 C 43.2 143.4 42.5 144.2 41.5 144.6 C 40.5 144.9 39.4 144.9 38.1 144.4 C 36.9 143.9 36 143.2 35.5 142.3 C 35.1 141.3 35 140.3 35.5 139.2 C 35.9 138.1 36.6 137.3 37.6 137 C 38.6 136.6 39.7 136.7 40.9 137.2 L 41.2 137.3 L 38.8 143.4 Z M 38 143.1 L 40 138.1 C 39.3 137.8 38.5 137.7 37.9 138 C 37.2 138.3 36.7 138.8 36.4 139.6 C 36.1 140.3 36.1 140.9 36.4 141.5 C 36.7 142.1 37.2 142.7 38 143.1 Z M 41.9 134.9 C 42.9 135.3 43.8 135.4 44.5 135.2 C 45.2 134.9 45.8 134.4 46.1 133.6 C 46.4 132.8 46.4 132.1 46 131.4 C 45.7 130.7 45 130.2 43.9 129.8 C 42.9 129.4 42.1 129.3 41.4 129.6 C 40.6 129.8 40.1 130.3 39.8 131.1 C 39.5 131.9 39.5 132.7 39.9 133.3 C 40.2 134 40.9 134.5 41.9 134.9 Z M 41.8 135.3 C 40.5 134.7 39.6 134.1 39.1 133.2 C 38.6 132.4 38.6 131.5 39 130.5 C 39.4 129.5 40 128.8 41 128.5 C 42 128.2 43.1 128.2 44.3 128.7 C 45.6 129.3 46.5 130 46.9 130.9 C 47.4 131.8 47.5 132.8 47.1 133.8 C 46.7 134.7 46 135.4 45.1 135.6 C 44.2 135.9 43.1 135.8 41.8 135.3 Z M 48.5 138.7 L 37.7 134.4 L 38.1 133.4 L 40 134.6 L 40.2 134.3 L 43.5 135.6 L 43.5 136 L 45.7 136.4 L 48.9 137.7 L 48.5 138.7 Z M 46.2 122.5 L 46.5 121.8 L 44.2 118.1 L 44.7 116.9 L 47.3 121.2 L 52.2 119.9 L 51.7 121.2 L 47.5 122.2 L 47.2 122.9 L 50.5 124.2 L 50.1 125.2 L 46.8 123.9 L 46.5 124.6 L 48.9 128.3 L 48.4 129.5 L 45.7 125.2 L 40.8 126.5 L 41.4 125.2 L 45.5 124.2 L 45.8 123.5 L 42.6 122.2 L 43 121.2 L 46.2 122.5 Z M 45.1 115.9 L 45.5 114.9 L 49.5 116.5 L 47.1 110.7 L 47.6 109.5 L 49.8 114.2 L 55.2 112.5 L 54.7 113.8 L 50.1 115.3 L 50.7 116.9 L 53.1 117.9 L 52.7 118.9 L 45.1 115.9 Z M 54.1 109.9 C 54.5 110 54.8 110 55.1 109.7 C 55.5 109.5 55.8 109.1 56 108.5 C 56.3 107.8 56.3 107.1 56.1 106.4 C 55.8 105.8 55.4 105.4 54.8 105.1 L 54.9 104.9 C 55.8 105.3 56.5 105.8 56.8 106.6 C 57.2 107.4 57.2 108.2 56.8 109.1 C 56.5 109.9 56.1 110.4 55.5 110.8 C 54.9 111.1 54.3 111.1 53.7 110.9 C 53.1 110.7 52.8 110.4 52.6 109.9 C 52.4 109.4 52.4 108.8 52.5 108.1 L 53 104.4 L 53.9 104.8 L 53.3 108.1 C 53.3 108.6 53.3 109 53.4 109.3 C 53.5 109.5 53.8 109.7 54.1 109.9 Z M 58.1 105.2 L 57.7 106.3 L 55.8 105.1 L 55.5 105.4 L 52.6 104.3 C 52.1 104.1 51.6 104.1 51.1 104.3 C 50.6 104.6 50.2 105 49.9 105.6 C 49.7 106.3 49.6 106.9 49.8 107.4 C 50 108 50.4 108.4 51 108.7 L 50.4 109.6 C 49.6 109.2 49.1 108.5 48.9 107.8 C 48.6 107 48.6 106.1 49 105.2 C 49.4 104.3 49.9 103.7 50.7 103.3 C 51.4 102.9 52.1 102.9 52.9 103.2 L 58.1 105.2 Z M 52.5 97.1 L 52.9 96.1 L 56.3 97.5 L 58.1 93 L 54.7 91.6 L 55.1 90.6 L 62.7 93.6 L 62.3 94.6 L 59 93.4 L 57.3 97.8 L 60.5 99.1 L 60.1 100.1 L 52.5 97.1 Z M 61.8 90.5 C 62.1 90.7 62.5 90.6 62.8 90.4 C 63.2 90.1 63.4 89.7 63.7 89.2 C 64 88.4 64 87.7 63.8 87.1 C 63.5 86.5 63.1 86 62.5 85.8 L 62.6 85.5 C 63.5 85.9 64.1 86.5 64.5 87.3 C 64.9 88 64.9 88.9 64.5 89.8 C 64.2 90.5 63.8 91.1 63.2 91.4 C 62.6 91.7 62 91.8 61.3 91.5 C 60.8 91.3 60.5 91 60.3 90.5 C 60.1 90.1 60.1 89.5 60.1 88.8 L 60.7 85.1 L 61.5 85.4 L 61 88.7 C 60.9 89.2 61 89.6 61.1 89.9 C 61.2 90.2 61.4 90.4 61.8 90.5 Z M 65.8 85.9 L 65.3 86.9 L 63.5 85.7 L 63.2 86.1 L 60.3 84.9 C 59.8 84.7 59.2 84.7 58.7 85 C 58.2 85.2 57.9 85.7 57.6 86.3 C 57.4 86.9 57.3 87.5 57.5 88.1 C 57.7 88.6 58.1 89 58.7 89.3 L 58.1 90.2 C 57.3 89.8 56.8 89.2 56.6 88.4 C 56.3 87.6 56.3 86.8 56.7 85.9 C 57 85 57.6 84.3 58.3 84 C 59.1 83.6 59.8 83.5 60.6 83.8 L 65.8 85.9 Z M 24 223 L 26.6 216.5 L 34.2 219.5 L 33.8 220.5 L 27.2 217.9 L 25.4 222.4 L 32 225 L 31.6 226.1 L 24 223 Z M 31.5 215.4 C 32.5 215.8 33.4 215.9 34.1 215.7 C 34.8 215.4 35.3 214.9 35.7 214.1 C 36 213.3 36 212.5 35.6 211.9 C 35.2 211.2 34.5 210.7 33.5 210.3 C 32.5 209.9 31.6 209.8 30.9 210 C 30.2 210.3 29.7 210.8 29.4 211.6 C 29.1 212.4 29.1 213.1 29.4 213.8 C 29.8 214.5 30.5 215 31.5 215.4 Z M 31.4 215.7 C 30.1 215.2 29.2 214.5 28.7 213.7 C 28.2 212.9 28.2 211.9 28.6 210.9 C 28.9 210 29.6 209.3 30.6 209 C 31.5 208.6 32.6 208.7 33.9 209.2 C 35.2 209.7 36 210.5 36.5 211.4 C 37 212.3 37 213.3 36.6 214.3 C 36.3 215.2 35.6 215.8 34.7 216.1 C 33.8 216.4 32.6 216.3 31.4 215.7 Z M 38.1 219.2 L 27.3 214.9 L 27.7 213.9 L 29.6 215.1 L 29.8 214.8 L 33.1 216.1 L 33.1 216.5 L 35.3 216.9 L 38.5 218.2 L 38.1 219.2 Z M 34.7 207.2 C 35.7 207.6 36.6 207.7 37.3 207.4 C 38 207.2 38.5 206.7 38.9 205.9 C 39.2 205.1 39.2 204.3 38.8 203.7 C 38.4 203 37.7 202.5 36.7 202.1 C 35.7 201.7 34.9 201.6 34.1 201.8 C 33.4 202.1 32.9 202.6 32.6 203.4 C 32.3 204.2 32.3 204.9 32.7 205.6 C 33 206.2 33.7 206.8 34.7 207.2 Z M 34.3 208.2 C 33 207.7 32.1 207 31.7 206 C 31.2 205.1 31.2 204.1 31.7 203 C 32.1 202 32.8 201.3 33.8 200.9 C 34.8 200.5 35.9 200.5 37.1 201 C 38.4 201.5 39.3 202.3 39.8 203.2 C 40.2 204.1 40.2 205.1 39.8 206.2 C 39.3 207.3 38.6 208.1 37.7 208.4 C 36.7 208.8 35.6 208.7 34.3 208.2 Z M 33.8 198.6 L 36.3 192.2 L 37.3 192.5 L 36.2 195.3 L 42.8 197.9 L 42.4 198.9 L 35.8 196.3 L 34.7 199 L 33.8 198.6 Z M 44.4 194 L 41.7 190.8 L 42.2 189.7 L 44.8 192.9 L 44.4 194 Z M 39.7 186.4 L 38.8 188.7 C 38.3 190 38.5 190.9 39.4 191.2 C 40.3 191.6 41 191.1 41.6 189.7 L 42.5 187.5 L 39.7 186.4 Z M 46.3 189 L 43.5 187.9 L 42.5 190.3 C 42.2 191.1 41.7 191.8 41 192.1 C 40.4 192.5 39.7 192.5 38.9 192.2 C 38.2 191.9 37.7 191.5 37.5 190.8 C 37.3 190.2 37.4 189.4 37.8 188.5 L 39.1 185 L 46.7 188 L 46.3 189 Z M 44.9 180 L 45.2 179.3 L 42.9 175.6 L 43.4 174.4 L 46 178.7 L 50.9 177.4 L 50.4 178.7 L 46.2 179.7 L 45.9 180.4 L 49.2 181.7 L 48.8 182.7 L 45.5 181.4 L 45.2 182.1 L 47.6 185.7 L 47.1 187 L 44.4 182.7 L 39.5 184 L 40.1 182.7 L 44.2 181.7 L 44.5 181 L 41.2 179.7 L 41.6 178.7 L 44.9 180 Z M 48.1 174.2 C 49.1 174.5 49.9 174.5 50.6 174.2 C 51.2 173.9 51.7 173.4 52.1 172.6 C 52.3 172 52.4 171.3 52.2 170.8 C 52 170.2 51.7 169.7 51.1 169.4 L 51.7 168.5 C 52.5 169 52.9 169.7 53.2 170.5 C 53.4 171.3 53.3 172.1 53 173 C 52.5 174.1 51.8 174.9 50.8 175.3 C 49.8 175.7 48.7 175.6 47.4 175.1 C 46.2 174.6 45.3 173.9 44.8 173 C 44.4 172.1 44.4 171 44.8 169.9 C 45.2 168.8 46 168.1 46.9 167.7 C 47.9 167.4 49 167.4 50.2 167.9 L 50.6 168.1 L 48.1 174.2 Z M 47.3 173.8 L 49.3 168.8 C 48.6 168.5 47.9 168.5 47.2 168.8 C 46.5 169 46 169.6 45.7 170.3 C 45.4 171 45.4 171.6 45.7 172.3 C 46 172.9 46.5 173.4 47.3 173.8 Z M 47 165.2 L 47.4 164.1 L 50.8 165.5 L 52.6 161 L 49.2 159.7 L 49.6 158.6 L 57.2 161.6 L 56.8 162.7 L 53.6 161.4 L 51.8 165.9 L 55 167.2 L 54.6 168.2 L 47 165.2 Z M 50.6 156 L 57 158.6 L 52.3 151.9 L 52.8 150.5 L 60.4 153.5 L 60 154.5 L 53.6 152 L 58.4 158.7 L 57.8 160.1 L 50.2 157.1 L 50.6 156 Z M 53.9 147.9 L 60.3 150.4 L 55.5 143.8 L 56.1 142.4 L 63.6 145.4 L 63.2 146.4 L 56.8 143.9 L 61.6 150.6 L 61 151.9 L 53.5 148.9 L 53.9 147.9 Z M 65.1 138.9 L 66.2 136.3 C 66.7 135 66.5 134.1 65.7 133.8 C 64.9 133.5 64.2 134 63.7 135.3 L 62.7 137.9 L 65.1 138.9 Z M 61.7 137.6 L 62.8 134.9 C 63 134.3 63.1 133.8 63 133.5 C 62.9 133.1 62.7 132.8 62.3 132.7 C 61.9 132.5 61.6 132.6 61.3 132.8 C 61 132.9 60.7 133.4 60.5 134 L 59.4 136.6 L 61.7 137.6 Z M 63.5 134.1 L 63.7 134.2 C 64.1 133.7 64.5 133.2 64.9 133 C 65.4 132.7 65.8 132.7 66.3 132.9 C 66.9 133.1 67.3 133.6 67.5 134.2 C 67.6 134.8 67.5 135.6 67.2 136.5 L 65.7 140.3 L 58.1 137.3 L 59.6 133.4 C 59.9 132.6 60.4 132 60.9 131.7 C 61.4 131.4 62 131.4 62.6 131.6 C 63 131.8 63.3 132.1 63.5 132.5 C 63.6 133 63.7 133.5 63.5 134.1 Z M 66.4 123.5 L 66.2 124.5 C 65.5 124.4 64.9 124.5 64.4 124.8 C 63.8 125.1 63.4 125.6 63.2 126.2 C 62.9 127 62.9 127.8 63.3 128.5 C 63.6 129.1 64.3 129.7 65.3 130.1 C 66.3 130.5 67.2 130.6 67.9 130.3 C 68.6 130.1 69.2 129.5 69.5 128.7 C 69.8 128 69.8 127.4 69.6 126.8 C 69.4 126.2 69 125.7 68.3 125.3 L 68.9 124.4 C 69.8 125 70.3 125.7 70.6 126.5 C 70.8 127.3 70.8 128.2 70.4 129.1 C 70 130.2 69.3 130.9 68.3 131.3 C 67.3 131.7 66.2 131.6 64.9 131.1 C 63.6 130.6 62.8 129.9 62.3 128.9 C 61.9 128 61.9 127 62.3 125.9 C 62.6 125.1 63.1 124.4 63.8 124 C 64.6 123.6 65.4 123.4 66.4 123.5 Z M 68.9 122 C 69.8 122.3 70.6 122.3 71.3 122 C 72 121.8 72.5 121.2 72.8 120.4 C 73 119.8 73.1 119.2 72.9 118.6 C 72.7 118 72.4 117.6 71.8 117.2 L 72.4 116.3 C 73.2 116.8 73.7 117.5 73.9 118.3 C 74.1 119.1 74.1 119.9 73.7 120.8 C 73.2 121.9 72.5 122.7 71.5 123.1 C 70.5 123.5 69.4 123.4 68.1 122.9 C 66.9 122.4 66 121.7 65.6 120.8 C 65.1 119.9 65.1 118.9 65.5 117.7 C 66 116.6 66.7 115.9 67.7 115.5 C 68.6 115.2 69.7 115.2 70.9 115.7 L 71.3 115.9 L 68.9 122 Z M 68 121.6 L 70 116.6 C 69.3 116.3 68.6 116.3 67.9 116.6 C 67.2 116.9 66.7 117.4 66.4 118.1 C 66.1 118.8 66.1 119.5 66.4 120.1 C 66.7 120.7 67.2 121.2 68 121.6 Z M 67.7 113 L 70 107.3 L 71 107.7 L 69.1 112.4 L 75.7 115 L 75.3 116 L 67.7 113 Z M 74.5 107 C 75.5 107.4 76.4 107.4 77.1 107.2 C 77.8 107 78.3 106.5 78.6 105.7 C 79 104.8 78.9 104.1 78.6 103.4 C 78.2 102.8 77.5 102.2 76.5 101.8 C 75.5 101.4 74.6 101.4 73.9 101.6 C 73.2 101.8 72.7 102.4 72.4 103.2 C 72 104 72.1 104.7 72.4 105.4 C 72.8 106 73.5 106.6 74.5 107 Z M 74.1 108 C 72.8 107.5 71.9 106.8 71.5 105.8 C 71 104.9 71 103.9 71.4 102.8 C 71.9 101.8 72.6 101.1 73.6 100.7 C 74.5 100.3 75.7 100.3 76.9 100.8 C 78.2 101.3 79.1 102 79.5 103 C 80 103.9 80 104.9 79.6 106 C 79.1 107.1 78.4 107.8 77.5 108.2 C 76.5 108.6 75.4 108.5 74.1 108 Z M 75.1 94.5 L 77.7 87.9 L 85.3 90.9 L 84.9 92 L 78.3 89.3 L 76.5 93.9 L 83.1 96.5 L 82.7 97.5 L 75.1 94.5 Z M 82.4 87.1 C 83.4 87.5 84.2 87.6 85 87.4 C 85.7 87.1 86.2 86.6 86.5 85.8 C 86.8 85 86.8 84.2 86.5 83.6 C 86.1 82.9 85.4 82.4 84.4 82 C 83.4 81.6 82.5 81.5 81.8 81.8 C 81.1 82 80.6 82.5 80.2 83.3 C 79.9 84.1 79.9 84.8 80.3 85.5 C 80.7 86.2 81.4 86.7 82.4 87.1 Z M 82 88.1 C 80.7 87.6 79.8 86.9 79.3 86 C 78.9 85 78.9 84 79.3 82.9 C 79.7 81.9 80.4 81.2 81.4 80.8 C 82.4 80.4 83.5 80.5 84.8 81 C 86.1 81.5 87 82.2 87.4 83.1 C 87.9 84 87.9 85.1 87.4 86.2 C 87 87.3 86.3 88 85.3 88.3 C 84.4 88.7 83.2 88.6 82 88.1 Z M 84.1 71.8 L 91.7 74.8 L 91.3 75.8 L 84.6 73.2 L 83.5 76.2 L 86.4 77.3 C 87 77.6 87.5 77.8 87.9 78.1 C 88.4 78.3 88.7 78.6 88.9 78.8 C 89.1 79.1 89.2 79.3 89.3 79.6 C 89.4 79.8 89.4 80.1 89.4 80.3 C 89.4 80.5 89.3 80.7 89.2 81 L 89 81.5 L 88 81.1 L 88.2 80.6 C 88.3 80.4 88.3 80.3 88.3 80.2 C 88.3 80.1 88.3 80 88.2 79.8 C 88.2 79.7 88 79.5 87.9 79.4 C 87.7 79.2 87.4 79 87.1 78.9 C 86.8 78.7 86.3 78.5 85.8 78.3 L 82.1 76.8 L 84.1 71.8 Z M 89.1 71 C 90 71.3 90.8 71.4 91.5 71.1 C 92.2 70.8 92.7 70.3 93 69.5 C 93.3 68.8 93.3 68.2 93.1 67.7 C 93 67.1 92.6 66.6 92 66.3 L 92.6 65.4 C 93.4 65.9 93.9 66.5 94.1 67.3 C 94.3 68.1 94.3 69 93.9 69.8 C 93.5 71 92.7 71.8 91.7 72.2 C 90.8 72.5 89.6 72.5 88.4 72 C 87.1 71.5 86.2 70.8 85.8 69.9 C 85.3 68.9 85.3 67.9 85.7 66.8 C 86.2 65.7 86.9 64.9 87.9 64.6 C 88.8 64.2 89.9 64.3 91.1 64.8 L 91.5 64.9 L 89.1 71 Z M 88.3 70.7 L 90.3 65.7 C 89.5 65.4 88.8 65.4 88.1 65.6 C 87.4 65.9 86.9 66.4 86.6 67.2 C 86.4 67.9 86.4 68.5 86.6 69.1 C 86.9 69.7 87.5 70.3 88.3 70.7 Z M 87.8 62.4 L 90.4 56 L 91.3 56.3 L 90.3 59 L 96.9 61.7 L 96.5 62.7 L 89.9 60.1 L 88.8 62.8 L 87.8 62.4 Z M 96.9 56.2 C 97.3 56.4 97.6 56.3 98 56.1 C 98.3 55.8 98.6 55.4 98.8 54.8 C 99.1 54.1 99.1 53.4 98.9 52.8 C 98.7 52.2 98.2 51.7 97.6 51.5 L 97.7 51.2 C 98.6 51.6 99.3 52.2 99.6 52.9 C 100 53.7 100 54.6 99.6 55.5 C 99.3 56.2 98.9 56.8 98.3 57.1 C 97.7 57.4 97.1 57.5 96.5 57.2 C 96 57 95.6 56.7 95.4 56.2 C 95.3 55.8 95.2 55.2 95.3 54.4 L 95.8 50.8 L 96.7 51.1 L 96.2 54.4 C 96.1 54.9 96.1 55.3 96.2 55.6 C 96.4 55.9 96.6 56.1 96.9 56.2 Z M 100.9 51.6 L 100.5 52.6 L 98.6 51.4 L 98.3 51.8 L 95.5 50.6 C 94.9 50.4 94.4 50.4 93.9 50.7 C 93.4 50.9 93 51.3 92.7 52 C 92.5 52.6 92.5 53.2 92.7 53.8 C 92.9 54.3 93.2 54.7 93.8 55 L 93.2 55.9 C 92.5 55.5 92 54.9 91.7 54.1 C 91.4 53.3 91.5 52.5 91.8 51.6 C 92.2 50.7 92.7 50 93.5 49.6 C 94.2 49.3 95 49.2 95.7 49.5 L 100.9 51.6 Z" fill="#eeeeee" fill-opacity="0.5"/>
<path transform="matrix(1,-0.3,0.3,1,-31.5,128.8)" d="M 373.2 55 L 373.6 56 L 368 58.2 L 375.7 61.2 L 376.2 62.6 L 369.5 60.1 L 365.5 66.9 L 364.9 65.5 L 368.5 59.5 L 366.8 58.7 L 362.8 60.3 L 362.4 59.3 L 373.2 55 Z M 370 67.2 C 369 67.6 368.3 68.1 367.9 68.8 C 367.6 69.4 367.6 70.2 367.9 71 C 368.2 71.8 368.7 72.3 369.4 72.6 C 370.2 72.8 371 72.7 372.1 72.3 C 373.1 71.9 373.7 71.4 374.1 70.7 C 374.5 70 374.5 69.3 374.2 68.5 C 373.8 67.7 373.3 67.2 372.6 66.9 C 371.9 66.7 371 66.8 370 67.2 Z M 369.6 66.2 C 370.9 65.7 372 65.6 373 65.9 C 373.9 66.3 374.6 67 375.1 68.1 C 375.5 69.2 375.5 70.2 375 71.1 C 374.6 72.1 373.7 72.8 372.5 73.3 C 371.2 73.8 370 73.9 369.1 73.5 C 368.1 73.2 367.4 72.4 367 71.3 C 366.5 70.3 366.5 69.2 367 68.3 C 367.5 67.4 368.3 66.7 369.6 66.2 Z M 377 81 L 376.4 80.1 C 377 79.6 377.4 79.1 377.6 78.6 C 377.7 78 377.7 77.4 377.5 76.8 C 377.1 76 376.6 75.4 375.9 75.2 C 375.1 74.9 374.3 75 373.3 75.4 C 372.3 75.8 371.6 76.3 371.2 77 C 370.9 77.7 370.8 78.4 371.2 79.3 C 371.4 79.9 371.8 80.4 372.4 80.7 C 373 81 373.6 81.1 374.3 81 L 374.6 82 C 373.6 82.2 372.7 82.1 371.9 81.6 C 371.2 81.2 370.6 80.5 370.2 79.6 C 369.8 78.5 369.8 77.5 370.3 76.6 C 370.7 75.6 371.6 74.9 372.9 74.4 C 374.2 73.9 375.3 73.8 376.2 74.2 C 377.2 74.6 377.9 75.3 378.4 76.4 C 378.7 77.2 378.7 78 378.5 78.8 C 378.3 79.6 377.8 80.3 377 81 Z M 374.5 89.5 L 373.9 88.2 L 379.2 82.8 L 372.8 85.3 L 372.4 84.3 L 380 81.3 L 380.6 82.9 L 375 88.5 L 383 88.9 L 383.6 90.4 L 376 93.4 L 375.6 92.4 L 382 89.9 L 374.5 89.5 Z M 384.6 93 L 378.2 95.5 L 386.3 97.1 L 386.8 98.5 L 379.2 101.5 L 378.8 100.5 L 385.2 97.9 L 377.2 96.4 L 376.6 95 L 384.2 92 L 384.6 93 Z M 385.3 101.9 C 384.8 102.1 384.4 102.5 384.2 103 C 384 103.5 384 104 384.2 104.6 C 384.4 105.2 384.7 105.6 385.1 105.9 C 385.5 106.2 385.8 106.3 386.1 106.4 L 385.8 107 C 384.6 106.8 383.7 106.1 383.2 104.8 C 382.9 104 382.9 103.2 383.1 102.5 C 383.4 101.8 383.9 101.3 384.6 101 L 387.4 99.9 L 387.8 100.9 L 385.3 101.9 Z M 389.3 104.7 L 389.7 105.7 L 382.1 108.7 L 381.7 107.7 L 389.3 104.7 Z M 386.6 109.7 C 385.7 110.1 385.1 110.7 384.8 111.3 C 384.5 112 384.5 112.7 384.8 113.5 C 385 114.2 385.4 114.7 385.9 115 C 386.5 115.3 387 115.4 387.7 115.2 L 387.9 116.3 C 387 116.4 386.1 116.3 385.4 115.9 C 384.7 115.4 384.2 114.8 383.9 113.9 C 383.4 112.7 383.4 111.7 383.9 110.7 C 384.3 109.8 385.2 109.1 386.4 108.6 C 387.7 108.1 388.8 108 389.8 108.3 C 390.8 108.7 391.5 109.4 391.9 110.5 C 392.3 111.6 392.3 112.7 391.9 113.6 C 391.4 114.5 390.6 115.2 389.4 115.7 L 389 115.8 L 386.6 109.7 Z M 387.4 109.4 L 389.4 114.4 C 390.1 114.2 390.7 113.7 391 113 C 391.3 112.3 391.3 111.6 391 110.9 C 390.7 110.2 390.3 109.7 389.6 109.4 C 389 109.2 388.3 109.2 387.4 109.4 Z M 393.8 123.3 L 393.3 122.5 C 393.8 122 394.2 121.5 394.4 120.9 C 394.6 120.4 394.5 119.8 394.3 119.1 C 394 118.3 393.4 117.8 392.7 117.6 C 392 117.3 391.1 117.4 390.1 117.8 C 389.1 118.2 388.4 118.7 388 119.4 C 387.7 120.1 387.7 120.8 388 121.6 C 388.3 122.3 388.7 122.8 389.2 123.1 C 389.8 123.4 390.4 123.5 391.2 123.3 L 391.4 124.4 C 390.4 124.6 389.5 124.4 388.7 124 C 388 123.6 387.4 122.9 387.1 122 C 386.6 120.9 386.6 119.9 387.1 118.9 C 387.5 118 388.4 117.3 389.7 116.8 C 391 116.2 392.1 116.2 393.1 116.6 C 394 116.9 394.7 117.7 395.2 118.8 C 395.5 119.6 395.5 120.4 395.3 121.2 C 395.1 122 394.6 122.7 393.8 123.3 Z M 396.8 123.7 L 397.2 124.7 L 393.2 126.3 L 398.8 128.8 L 399.3 130.1 L 394.5 128.1 L 391.8 133.1 L 391.2 131.8 L 393.5 127.6 L 391.9 126.8 L 389.6 127.7 L 389.2 126.7 L 396.8 123.7 Z M 396.3 133.4 C 395.3 133.8 394.6 134.4 394.2 135 C 393.9 135.7 393.9 136.4 394.2 137.2 C 394.5 138 395 138.6 395.7 138.8 C 396.5 139 397.3 139 398.4 138.6 C 399.4 138.2 400 137.6 400.4 136.9 C 400.8 136.3 400.8 135.5 400.5 134.7 C 400.1 133.9 399.6 133.4 398.9 133.2 C 398.2 133 397.3 133 396.3 133.4 Z M 395.9 132.4 C 397.2 131.9 398.3 131.8 399.3 132.2 C 400.2 132.6 400.9 133.3 401.4 134.4 C 401.8 135.4 401.8 136.4 401.3 137.4 C 400.9 138.3 400 139.1 398.8 139.6 C 397.5 140.1 396.3 140.2 395.4 139.8 C 394.4 139.4 393.7 138.7 393.3 137.6 C 392.8 136.5 392.8 135.5 393.3 134.6 C 393.8 133.6 394.6 132.9 395.9 132.4 Z M 399.3 141.8 C 398.4 142.2 397.8 142.8 397.5 143.4 C 397.2 144.1 397.2 144.8 397.5 145.6 C 397.8 146.3 398.2 146.7 398.7 147 C 399.2 147.3 399.8 147.4 400.4 147.3 L 400.6 148.4 C 399.7 148.5 398.9 148.4 398.2 147.9 C 397.5 147.5 396.9 146.9 396.6 146 C 396.1 144.8 396.1 143.8 396.6 142.8 C 397.1 141.9 397.9 141.1 399.2 140.6 C 400.4 140.1 401.5 140.1 402.5 140.4 C 403.5 140.7 404.2 141.5 404.6 142.6 C 405.1 143.7 405.1 144.7 404.6 145.7 C 404.1 146.6 403.3 147.3 402.1 147.8 L 401.7 147.9 L 399.3 141.8 Z M 400.1 141.5 L 402.1 146.5 C 402.9 146.2 403.4 145.7 403.7 145.1 C 404 144.4 404 143.7 403.7 142.9 C 403.5 142.2 403 141.8 402.4 141.5 C 401.8 141.3 401 141.3 400.1 141.5 Z" fill="#eeeeee" fill-opacity="0.5"/>
<path transform="matrix(1,-0.3,0.3,1,-32.8,134.1)" d="M 345.8 36.9 L 346.2 37.9 L 342.1 39.5 L 347.8 42 L 348.3 43.2 L 343.5 41.3 L 340.7 46.3 L 340.2 45 L 342.5 40.7 L 340.9 40 L 338.6 40.9 L 338.2 39.9 L 345.8 36.9 Z M 343.3 47.4 C 342.9 47.6 342.7 47.8 342.6 48.2 C 342.6 48.7 342.7 49.2 342.9 49.7 C 343.2 50.4 343.6 51 344.2 51.3 C 344.8 51.6 345.4 51.6 346.1 51.3 L 346.2 51.6 C 345.2 52 344.3 52 343.6 51.7 C 342.8 51.3 342.2 50.7 341.8 49.8 C 341.5 49.1 341.5 48.4 341.7 47.7 C 341.9 47.1 342.3 46.6 342.9 46.4 C 343.4 46.2 343.9 46.2 344.4 46.4 C 344.8 46.6 345.2 47 345.7 47.6 L 347.8 50.6 L 347 51 L 345.1 48.2 C 344.8 47.8 344.5 47.5 344.2 47.4 C 343.9 47.3 343.6 47.3 343.3 47.4 Z M 343.6 53.5 L 343.2 52.5 L 345.3 52.1 L 345.3 51.6 L 348.2 50.5 C 348.8 50.3 349.1 49.9 349.3 49.4 C 349.5 48.9 349.5 48.3 349.2 47.6 C 349 47 348.6 46.5 348.1 46.3 C 347.6 46 347 46 346.4 46.1 L 346.2 45.1 C 347 44.9 347.8 45 348.5 45.4 C 349.3 45.8 349.8 46.4 350.2 47.3 C 350.6 48.2 350.6 49.1 350.3 49.8 C 350 50.6 349.5 51.2 348.8 51.5 L 343.6 53.5 Z M 349.7 53.9 C 349.1 54.1 348.7 54.5 348.5 55 C 348.3 55.5 348.4 56 348.6 56.6 C 348.8 57.2 349.1 57.6 349.5 57.9 C 349.9 58.2 350.2 58.3 350.5 58.4 L 350.2 59 C 348.9 58.8 348.1 58.1 347.6 56.8 C 347.2 56 347.2 55.2 347.5 54.5 C 347.8 53.8 348.3 53.3 349 53 L 351.7 51.9 L 352.1 52.9 L 349.7 53.9 Z M 353.6 56.7 L 354 57.7 L 346.5 60.7 L 346.1 59.7 L 353.6 56.7 Z M 350.9 61.7 C 350 62.1 349.4 62.7 349.1 63.3 C 348.8 64 348.8 64.7 349.1 65.5 C 349.4 66.2 349.8 66.7 350.3 67 C 350.8 67.3 351.4 67.3 352 67.2 L 352.2 68.3 C 351.3 68.4 350.5 68.3 349.8 67.9 C 349.1 67.4 348.6 66.8 348.2 65.9 C 347.8 64.8 347.8 63.7 348.2 62.7 C 348.7 61.8 349.5 61.1 350.8 60.6 C 352.1 60.1 353.2 60 354.1 60.3 C 355.1 60.7 355.8 61.4 356.3 62.5 C 356.7 63.6 356.7 64.7 356.2 65.6 C 355.8 66.5 354.9 67.2 353.8 67.7 L 353.4 67.8 L 350.9 61.7 Z M 351.8 61.4 L 353.8 66.4 C 354.5 66.2 355 65.7 355.3 65 C 355.6 64.3 355.7 63.6 355.4 62.9 C 355.1 62.2 354.6 61.7 354 61.4 C 353.4 61.2 352.6 61.2 351.8 61.4 Z M 358.2 75.3 L 357.6 74.5 C 358.2 74 358.6 73.5 358.7 72.9 C 358.9 72.4 358.9 71.8 358.6 71.1 C 358.3 70.3 357.8 69.8 357.1 69.6 C 356.3 69.3 355.5 69.4 354.5 69.8 C 353.5 70.2 352.8 70.7 352.4 71.4 C 352 72.1 352 72.8 352.4 73.6 C 352.6 74.3 353 74.8 353.6 75.1 C 354.2 75.4 354.8 75.5 355.5 75.3 L 355.7 76.4 C 354.7 76.6 353.9 76.4 353.1 76 C 352.3 75.6 351.8 74.9 351.4 74 C 351 72.9 351 71.9 351.5 70.9 C 351.9 70 352.8 69.3 354.1 68.8 C 355.3 68.2 356.5 68.2 357.4 68.6 C 358.4 68.9 359.1 69.7 359.6 70.8 C 359.9 71.6 359.9 72.4 359.7 73.2 C 359.5 74 359 74.7 358.2 75.3 Z M 361 75.3 L 363.6 81.8 L 362.6 82.1 L 361.5 79.4 L 354.9 82.1 L 354.5 81 L 361.1 78.4 L 360.1 75.7 L 361 75.3 Z M 357.8 86.7 L 358.9 89.3 C 359.4 90.6 360.1 91.1 360.9 90.8 C 361.7 90.4 361.9 89.6 361.3 88.3 L 360.3 85.7 L 357.8 86.7 Z M 361.2 85.3 L 362.3 88 C 362.5 88.6 362.8 89 363.1 89.2 C 363.4 89.4 363.7 89.4 364.1 89.3 C 364.5 89.1 364.8 88.9 364.9 88.5 C 364.9 88.2 364.9 87.7 364.6 87 L 363.6 84.4 L 361.2 85.3 Z M 362.3 89 L 362.1 89.1 C 362.2 89.7 362.2 90.3 362 90.8 C 361.9 91.3 361.6 91.7 361.2 91.8 C 360.5 92.1 359.9 92 359.4 91.7 C 358.8 91.3 358.4 90.7 358 89.9 L 356.5 86 L 364.1 83 L 365.6 86.9 C 365.9 87.7 366 88.4 365.8 89 C 365.7 89.6 365.3 90 364.7 90.2 C 364.3 90.4 363.8 90.4 363.4 90.2 C 363 90 362.6 89.6 362.3 89 Z M 363.8 93.2 C 362.8 93.6 362.1 94.1 361.7 94.8 C 361.3 95.4 361.3 96.2 361.6 97 C 361.9 97.8 362.5 98.3 363.2 98.6 C 363.9 98.8 364.8 98.7 365.8 98.3 C 366.8 97.9 367.5 97.4 367.8 96.7 C 368.2 96 368.2 95.3 367.9 94.5 C 367.6 93.7 367.1 93.2 366.3 92.9 C 365.6 92.7 364.8 92.8 363.8 93.2 Z M 363.4 92.2 C 364.6 91.7 365.8 91.6 366.7 91.9 C 367.7 92.3 368.4 93 368.8 94.1 C 369.2 95.2 369.2 96.2 368.7 97.1 C 368.3 98.1 367.5 98.8 366.2 99.3 C 364.9 99.8 363.8 99.9 362.8 99.5 C 361.8 99.2 361.1 98.4 360.7 97.3 C 360.3 96.3 360.3 95.2 360.7 94.3 C 361.2 93.4 362.1 92.7 363.4 92.2 Z M 371.9 102.7 L 374.5 109.2 L 366.9 112.2 L 366.5 111.2 L 373.1 108.6 L 371.3 104.1 L 364.7 106.7 L 364.3 105.7 L 371.9 102.7 Z M 371.7 113.3 C 370.7 113.7 370 114.3 369.6 114.9 C 369.3 115.6 369.3 116.3 369.6 117.2 C 369.9 118 370.4 118.5 371.1 118.7 C 371.9 118.9 372.7 118.8 373.7 118.4 C 374.7 118 375.4 117.5 375.8 116.8 C 376.2 116.2 376.2 115.5 375.9 114.7 C 375.5 113.8 375 113.3 374.3 113.1 C 373.6 112.8 372.7 112.9 371.7 113.3 Z M 371.6 113 C 372.9 112.5 374 112.4 374.9 112.6 C 375.8 112.9 376.5 113.6 376.9 114.6 C 377.3 115.5 377.2 116.5 376.8 117.4 C 376.3 118.3 375.4 119 374.2 119.5 C 372.9 120 371.8 120.1 370.8 119.7 C 369.8 119.3 369.1 118.7 368.7 117.7 C 368.4 116.7 368.4 115.8 368.9 115 C 369.4 114.2 370.3 113.5 371.6 113 Z M 364.3 115.1 L 375.1 110.8 L 375.5 111.8 L 373.3 112.2 L 373.4 112.7 L 370.1 114 L 369.8 113.6 L 367.9 114.8 L 364.7 116.1 L 364.3 115.1 Z M 375 121.5 C 374 121.9 373.3 122.5 372.9 123.1 C 372.6 123.8 372.6 124.5 372.9 125.3 C 373.2 126.1 373.7 126.7 374.4 126.9 C 375.2 127.1 376 127 377 126.6 C 378 126.2 378.7 125.7 379.1 125 C 379.5 124.4 379.5 123.6 379.2 122.8 C 378.8 122 378.3 121.5 377.6 121.3 C 376.9 121 376 121.1 375 121.5 Z M 374.6 120.5 C 375.9 120 377 119.9 378 120.3 C 378.9 120.6 379.6 121.4 380.1 122.5 C 380.5 123.5 380.5 124.5 380 125.5 C 379.6 126.4 378.7 127.2 377.5 127.7 C 376.2 128.2 375 128.2 374.1 127.9 C 373.1 127.5 372.4 126.8 372 125.7 C 371.5 124.6 371.5 123.6 372 122.6 C 372.4 121.7 373.3 121 374.6 120.5 Z M 378 137.7 L 374.5 139.1 L 374.1 138.1 L 376.6 137.1 L 374.3 131.2 L 371.8 132.3 L 371.4 131.3 L 374.9 129.9 L 375.2 130.5 C 375.2 130.6 375.3 130.8 375.4 130.8 C 375.4 130.9 375.6 131 375.7 131.1 C 375.9 131.2 376.1 131.2 376.3 131.2 C 376.5 131.2 376.9 131.1 377.3 131 C 377.7 130.9 378.1 130.7 378.6 130.5 L 382.4 129.1 L 384.3 134 L 377.6 136.7 L 378 137.7 Z M 377.2 135.7 L 383 133.4 L 381.8 130.5 L 378.9 131.6 C 377.5 132.2 376.5 132.2 376 131.8 L 375.8 132 L 377.2 135.7 Z M 380.8 141.8 L 387.4 141.7 L 387.8 142.8 L 377.4 143 C 376.9 143 376.4 142.9 376.1 142.7 C 375.7 142.5 375.4 142.2 375.3 141.9 L 374.7 140.3 L 375.7 139.8 L 376.1 141 C 376.3 141.4 376.4 141.6 376.7 141.7 C 376.9 141.8 377.2 141.8 377.7 141.8 L 378.6 141.7 L 385 135.8 L 385.5 136.9 L 380.6 141.3 L 379.7 141.8 L 379.8 142 L 380.8 141.8 Z M 388.2 143.8 L 388.6 144.8 L 384.6 146.4 L 390.2 148.9 L 390.7 150.2 L 385.9 148.2 L 383.2 153.2 L 382.6 151.9 L 384.9 147.7 L 383.3 146.9 L 381 147.8 L 380.6 146.8 L 388.2 143.8 Z M 391 150.9 L 393.6 157.4 L 392.6 157.7 L 391.5 155 L 384.9 157.7 L 384.5 156.6 L 391.1 154 L 390.1 151.3 L 391 150.9 Z M 390.6 160.9 C 389.6 161.3 388.9 161.8 388.5 162.4 C 388.2 163.1 388.2 163.8 388.5 164.6 C 388.8 165.5 389.3 166 390 166.2 C 390.8 166.5 391.6 166.4 392.7 166 C 393.7 165.6 394.3 165 394.7 164.4 C 395.1 163.7 395.1 162.9 394.8 162.1 C 394.5 161.3 393.9 160.8 393.2 160.6 C 392.5 160.4 391.6 160.5 390.6 160.9 Z M 390.2 159.8 C 391.5 159.3 392.6 159.2 393.6 159.6 C 394.6 160 395.2 160.7 395.7 161.8 C 396.1 162.8 396.1 163.8 395.6 164.8 C 395.2 165.8 394.3 166.5 393.1 167 C 391.8 167.5 390.6 167.6 389.7 167.2 C 388.7 166.8 388 166.1 387.6 165 C 387.1 163.9 387.1 162.9 387.6 162 C 388.1 161.1 388.9 160.3 390.2 159.8 Z M 391.1 170.4 L 392.2 173.1 C 392.7 174.4 393.3 174.9 394.2 174.5 C 395 174.2 395.1 173.4 394.6 172.1 L 393.6 169.5 L 391.1 170.4 Z M 394.5 169.1 L 395.6 171.7 C 395.8 172.4 396.1 172.8 396.4 173 C 396.7 173.2 397 173.2 397.4 173.1 C 397.8 172.9 398 172.6 398.1 172.3 C 398.2 171.9 398.1 171.5 397.9 170.8 L 396.8 168.2 L 394.5 169.1 Z M 395.5 172.8 L 395.3 172.9 C 395.5 173.5 395.5 174.1 395.3 174.6 C 395.2 175.1 394.9 175.4 394.4 175.6 C 393.8 175.9 393.2 175.8 392.6 175.5 C 392.1 175.1 391.6 174.5 391.3 173.7 L 389.8 169.8 L 397.3 166.8 L 398.9 170.6 C 399.2 171.5 399.3 172.2 399.1 172.8 C 398.9 173.4 398.5 173.8 397.9 174 C 397.5 174.2 397.1 174.2 396.7 174 C 396.2 173.7 395.9 173.4 395.5 172.8 Z" fill="#eeeeee" fill-opacity="0.5"/>
<defs>
<linearGradient id="paint0_linear_0_1" x1="225" y1="0.156372" x2="225" y2="449.559" gradientUnits="userSpaceOnUse">
<stop stop-color="#912bb9"/>
<stop offset="1" stop-color="#f32d7a"/>
</linearGradient>
</defs>
</svg>
