<svg width="1990" height="145" viewBox="0 0 1990 145" fill="none" xmlns="http://www.w3.org/2000/svg">
<g clip-path="url(#clip0_2075_5)">
<path d="M24 19.1602H110.766L107.109 39.6914H74.7656L62.25 111.129H40.0313L52.5469 39.6914H20.3438L24 19.1602ZM128.169 90.3164C127.888 92.0039 128.497 93.2695 129.997 94.1133C131.591 94.957 133.794 95.3789 136.607 95.3789C141.857 95.3789 146.216 94.582 149.685 92.9883C153.247 91.3008 155.263 89.1445 155.732 86.5195H158.966C157.466 94.957 153.528 101.754 147.153 106.91C140.778 111.973 133.091 114.504 124.091 114.504C117.622 114.504 112.56 112.723 108.903 109.16C105.341 105.504 104.075 100.863 105.107 95.2383C106.138 89.6133 108.763 85.1602 112.982 81.8789C117.2 78.5039 123.153 76.0664 130.841 74.5664L158.825 68.9414L156.435 82.3008L136.466 86.3789C131.216 87.5039 128.45 88.8164 128.169 90.3164ZM173.591 111.129H151.372L159.81 95.6602L154.607 92.8477L158.966 68.3789C159.247 66.5039 158.31 65.0039 156.153 63.8789C153.997 62.7539 150.997 62.1914 147.153 62.1914C143.122 62.1914 139.7 63.0352 136.888 64.7227C134.075 66.4102 132.2 68.6133 131.263 71.332L109.888 68.5195C112.513 61.1133 117.482 55.0195 124.794 50.2383C132.107 45.457 140.778 43.0664 150.81 43.0664C161.028 43.0664 168.95 45.3633 174.575 49.957C180.294 54.5508 182.591 60.1758 181.466 66.832L173.591 111.129ZM213.556 78.9258C212.618 84.3633 213.462 88.582 216.087 91.582C218.806 94.4883 222.978 95.9414 228.603 95.9414C234.322 95.9414 239.009 94.4883 242.665 91.582C246.415 88.582 248.759 84.3633 249.697 78.9258C250.634 73.4883 249.79 69.3164 247.165 66.4102C244.54 63.5039 240.368 62.0508 234.65 62.0508C228.931 62.0508 224.197 63.5039 220.447 66.4102C216.79 69.3164 214.493 73.4883 213.556 78.9258ZM209.618 78.9258C211.587 67.4883 215.665 58.6758 221.853 52.4883C228.134 46.207 235.915 43.0664 245.197 43.0664C254.947 43.0664 262.306 46.2539 267.275 52.6289C272.337 58.9102 273.884 67.5352 271.915 78.5039C269.947 89.9414 265.165 98.8477 257.572 105.223C249.978 111.598 241.4 114.785 231.837 114.785C222.837 114.785 216.368 111.691 212.431 105.504C208.493 99.2227 207.556 90.3633 209.618 78.9258ZM180.79 138.832L197.103 46.4414H219.322L210.884 62.4727L216.087 64.7227L211.025 92.8477L204.978 95.0977L207.79 111.129L203.009 138.832H180.79ZM287.191 46.4414H350.894L347.238 66.9727H305.613L297.738 111.129H275.659L287.191 46.4414ZM372.367 84.6914C372.179 88.1602 373.492 90.832 376.304 92.707C379.117 94.582 383.195 95.5195 388.538 95.5195C392.663 95.5195 396.226 94.957 399.226 93.832C402.226 92.6133 404.288 90.9727 405.413 88.9102L426.507 91.8633C423.32 98.8945 418.023 104.426 410.617 108.457C403.21 112.488 394.726 114.504 385.163 114.504C372.601 114.504 363.273 111.316 357.179 104.941C351.179 98.4727 349.163 89.6602 351.132 78.5039C353.101 67.4414 358.117 58.7227 366.179 52.3477C374.242 45.9727 384.273 42.7852 396.273 42.7852C408.367 42.7852 417.32 45.9727 423.132 52.3477C428.945 58.7227 430.913 67.1602 429.038 77.6602L427.773 84.6914H372.367ZM375.179 70.3477H407.945C408.413 67.8164 407.195 65.7539 404.288 64.1602C401.476 62.4727 397.679 61.6289 392.898 61.6289C383.523 61.6289 377.617 64.5352 375.179 70.3477ZM442.192 46.4414H514.755L511.099 66.9727H485.786L478.052 111.129H455.833L463.567 66.9727H438.536L442.192 46.4414ZM547.263 46.4414L540.654 83.8477L578.623 46.4414H603.795L592.263 111.129H570.185L576.935 73.4414L538.826 111.129H513.513L525.045 46.4414H547.263ZM615.957 46.4414H638.035L633.957 68.9414H664.472L668.55 46.4414H690.769L679.238 111.129H657.019L660.816 89.6133H630.3L626.503 111.129H604.425L615.957 46.4414ZM702.886 46.4414H766.589L762.933 66.9727H721.308L713.433 111.129H691.355L702.886 46.4414ZM838.264 46.4414L831.654 83.8477L869.623 46.4414H894.795L883.264 111.129H861.186L867.936 73.4414L829.826 111.129H804.514L816.045 46.4414H838.264ZM948.018 46.4414H1025.64L1014.11 111.129H991.893L999.768 67.1133H966.44L958.565 111.129H936.487L948.018 46.4414ZM1054.15 78.9258C1053.21 84.3633 1054.05 88.582 1056.68 91.582C1059.4 94.4883 1063.57 95.9414 1069.19 95.9414C1074.91 95.9414 1079.6 94.4883 1083.26 91.582C1087.01 88.582 1089.35 84.3633 1090.29 78.9258C1091.23 73.4883 1090.38 69.3164 1087.76 66.4102C1085.13 63.5039 1080.96 62.0508 1075.24 62.0508C1069.52 62.0508 1064.79 63.5039 1061.04 66.4102C1057.38 69.3164 1055.08 73.4883 1054.15 78.9258ZM1050.21 78.9258C1052.18 67.4883 1056.26 58.6758 1062.44 52.4883C1068.73 46.207 1076.51 43.0664 1085.79 43.0664C1095.54 43.0664 1102.9 46.2539 1107.87 52.6289C1112.93 58.9102 1114.48 67.5352 1112.51 78.5039C1110.54 89.9414 1105.76 98.8477 1098.16 105.223C1090.57 111.598 1081.99 114.785 1072.43 114.785C1063.43 114.785 1056.96 111.691 1053.02 105.504C1049.08 99.2227 1048.15 90.3633 1050.21 78.9258ZM1021.38 138.832L1037.69 46.4414H1059.91L1051.48 62.4727L1056.68 64.7227L1051.62 92.8477L1045.57 95.0977L1048.38 111.129L1043.6 138.832H1021.38ZM1141.84 78.5039C1140.91 83.9414 1141.61 88.1602 1143.95 91.1602C1146.39 94.0664 1150.24 95.5195 1155.49 95.5195C1160.74 95.5195 1165.09 94.0664 1168.56 91.1602C1172.03 88.1602 1174.24 83.9414 1175.17 78.5039C1176.11 73.1602 1175.36 69.0352 1172.92 66.1289C1170.49 63.1289 1166.64 61.6289 1161.39 61.6289C1156.14 61.6289 1151.78 63.082 1148.31 65.9883C1144.94 68.8945 1142.78 73.0664 1141.84 78.5039ZM1119.63 78.5039C1121.59 67.1602 1126.61 58.3945 1134.67 52.207C1142.83 45.9258 1152.86 42.7852 1164.77 42.7852C1175.92 42.7852 1184.64 45.9727 1190.92 52.3477C1197.2 58.7227 1199.36 67.4414 1197.39 78.5039C1195.42 89.8477 1190.36 98.707 1182.2 105.082C1174.05 111.363 1164.02 114.504 1152.11 114.504C1140.2 114.504 1131.3 111.363 1125.39 105.082C1119.58 98.707 1117.66 89.8477 1119.63 78.5039ZM1289.44 97.3477L1283.11 133.629H1260.89L1263.56 118.16H1219.4L1216.73 133.629H1194.8L1201.12 97.3477H1205.2C1207.26 97.3477 1209 97.1602 1210.4 96.7852C1211.81 96.4102 1213.26 95.6133 1214.76 94.3945C1216.36 93.1758 1217.72 91.207 1218.84 88.4883C1220.06 85.7695 1221.05 82.3008 1221.8 78.082L1227.28 46.4414H1288.73L1279.73 97.3477H1289.44ZM1257.65 97.3477L1263.14 66.9727H1245.84L1243.59 79.6289C1242.19 87.4102 1239.09 92.2383 1234.31 94.1133L1234.17 97.3477H1257.65ZM1321.6 93.2695H1344.1C1351.7 93.2695 1355.68 92.1914 1356.05 90.0352C1356.34 88.4414 1352.68 87.6445 1345.09 87.6445H1322.59L1321.6 93.2695ZM1325.68 69.7852H1348.18C1354.74 69.7852 1358.21 68.8477 1358.59 66.9727C1358.77 66.0352 1358.12 65.332 1356.62 64.8633C1355.12 64.3945 1352.63 64.1602 1349.16 64.1602H1326.66L1325.68 69.7852ZM1362.8 77.8008L1362.52 79.6289C1367.59 80.3789 1371.48 82.0664 1374.2 84.6914C1377.01 87.2227 1378.09 90.2227 1377.43 93.6914C1376.49 99.0352 1372.88 103.301 1366.6 106.488C1360.32 109.582 1352.26 111.129 1342.41 111.129H1296.29L1307.82 46.4414H1353.95C1363.7 46.4414 1370.91 47.9414 1375.6 50.9414C1380.38 53.9414 1382.35 58.0195 1381.51 63.1758C1380.76 66.9258 1378.74 70.1602 1375.46 72.8789C1372.27 75.5039 1368.05 77.1445 1362.8 77.8008ZM1417.66 46.4414L1411.05 83.8477L1449.01 46.4414H1474.19L1462.66 111.129H1440.58L1447.33 73.4414L1409.22 111.129H1383.91L1395.44 46.4414H1417.66ZM1548.22 68.3789H1552.16L1572.83 46.4414H1599.55L1567.49 78.7852L1588.16 111.129H1561.44L1548.5 89.1914H1544.57L1540.77 111.129H1518.69L1522.63 89.1914H1518.69L1498.02 111.129H1471.3L1503.36 78.7852L1482.69 46.4414H1509.41L1522.35 68.3789H1526.29L1530.08 46.4414H1552.16L1548.22 68.3789ZM1621.1 84.6914C1620.91 88.1602 1622.23 90.832 1625.04 92.707C1627.85 94.582 1631.93 95.5195 1637.27 95.5195C1641.4 95.5195 1644.96 94.957 1647.96 93.832C1650.96 92.6133 1653.02 90.9727 1654.15 88.9102L1675.24 91.8633C1672.05 98.8945 1666.76 104.426 1659.35 108.457C1651.94 112.488 1643.46 114.504 1633.9 114.504C1621.33 114.504 1612.01 111.316 1605.91 104.941C1599.91 98.4727 1597.9 89.6602 1599.87 78.5039C1601.83 67.4414 1606.85 58.7227 1614.91 52.3477C1622.98 45.9727 1633.01 42.7852 1645.01 42.7852C1657.1 42.7852 1666.05 45.9727 1671.87 52.3477C1677.68 58.7227 1679.65 67.1602 1677.77 77.6602L1676.51 84.6914H1621.1ZM1623.91 70.3477H1656.68C1657.15 67.8164 1655.93 65.7539 1653.02 64.1602C1650.21 62.4727 1646.41 61.6289 1641.63 61.6289C1632.26 61.6289 1626.35 64.5352 1623.91 70.3477ZM1692.75 46.4414H1714.83L1710.75 68.9414H1741.27L1745.35 46.4414H1767.57L1756.04 111.129H1733.82L1737.61 89.6133H1707.1L1703.3 111.129H1681.22L1692.75 46.4414ZM1801.9 46.4414L1795.29 83.8477L1833.26 46.4414H1858.43L1846.9 111.129H1824.82L1831.57 73.4414L1793.46 111.129H1768.15L1779.68 46.4414H1801.9ZM1883.67 84.6914C1883.49 88.1602 1884.8 90.832 1887.61 92.707C1890.42 94.582 1894.5 95.5195 1899.85 95.5195C1903.97 95.5195 1907.53 94.957 1910.53 93.832C1913.53 92.6133 1915.6 90.9727 1916.72 88.9102L1937.81 91.8633C1934.63 98.8945 1929.33 104.426 1921.92 108.457C1914.52 112.488 1906.03 114.504 1896.47 114.504C1883.91 114.504 1874.58 111.316 1868.49 104.941C1862.49 98.4727 1860.47 89.6602 1862.44 78.5039C1864.41 67.4414 1869.42 58.7227 1877.49 52.3477C1885.55 45.9727 1895.58 42.7852 1907.58 42.7852C1919.67 42.7852 1928.63 45.9727 1934.44 52.3477C1940.25 58.7227 1942.22 67.1602 1940.35 77.6602L1939.08 84.6914H1883.67ZM1886.49 70.3477H1919.25C1919.72 67.8164 1918.5 65.7539 1915.6 64.1602C1912.78 62.4727 1908.99 61.6289 1904.2 61.6289C1894.83 61.6289 1888.92 64.5352 1886.49 70.3477Z" fill="black"/>
</g>
<defs>
<clipPath id="clip0_2075_5">
<rect width="1990" height="145" fill="white"/>
</clipPath>
</defs>
</svg>
