<svg width="38" height="38" viewBox="0 0 38 38" fill="none" xmlns="http://www.w3.org/2000/svg">
<path d="M19.29 37.6992C29.4576 37.6992 37.7 29.4566 37.7 19.2891C37.7 9.1215 29.4576 0.878906 19.29 0.878906C9.12248 0.878906 0.879883 9.1215 0.879883 19.2891C0.879883 29.4566 9.12248 37.6992 19.29 37.6992Z" fill="white"/>
<path d="M28.5899 9.7989C27.9399 10.0589 9.49977 17.9688 9.49977 17.9688C9.49977 17.9688 8.6097 18.2787 8.6797 18.8487C8.7497 19.4187 9.47975 19.6895 9.47975 19.6895L14.2298 21.3087C14.2298 21.3087 15.6597 26.0891 15.9397 26.9991C16.2197 27.9091 16.4497 27.9288 16.4497 27.9288C16.7097 28.0488 16.9497 27.8594 16.9497 27.8594L20.0198 25.0186L24.7998 28.7491C26.0898 29.3191 26.5598 28.129 26.5598 28.129L29.8499 10.9688C30.1399 9.62882 29.2699 9.5189 28.5899 9.7989Z" stroke="#161616" stroke-width="1.0118" stroke-miterlimit="10"/>
<path d="M14.2402 21.3086L26.3801 13.2188L17.7803 23.3291" stroke="#161616" stroke-width="1.0118" stroke-miterlimit="10" stroke-linecap="round" stroke-linejoin="round"/>
<path d="M16.7695 27.8877L17.7795 23.3281L19.7996 24.8477" stroke="#161616" stroke-width="1.0118" stroke-miterlimit="10" stroke-linecap="round" stroke-linejoin="round"/>
</svg>
