<svg width="157" height="178" viewBox="0 0 157 178" fill="none" xmlns="http://www.w3.org/2000/svg">
<g clip-path="url(#clip0_2011_5)">
<path d="M144.156 95.7711C147.719 92.2086 147.719 86.4333 144.156 82.8896L70.4498 9.16492C67.4311 6.14617 62.5189 5.34007 59.1064 7.90882C54.9439 11.0401 54.6435 16.9838 58.1872 20.5275L103.112 65.4332C108.85 71.1707 104.781 80.9963 96.6623 80.9963H-34.7379C-39.0129 80.9963 -43.0436 83.9022 -43.6249 88.1209C-44.3561 93.2584 -40.3813 97.6653 -35.3751 97.6653H96.6623C104.781 97.6653 108.85 107.49 103.112 113.227L58.6377 157.684C55.6189 160.702 54.8128 165.615 57.3816 169.027C60.5128 173.189 66.4565 173.49 70.0003 169.946L144.156 95.7711Z" fill="#333333" stroke="#333333" stroke-width="9.46481" stroke-miterlimit="10"/>
</g>
<defs>
<clipPath id="clip0_2011_5">
<rect width="157" height="178" fill="white"/>
</clipPath>
</defs>
</svg>
