<svg width="1269" height="291" viewBox="0 0 1269 291" fill="none" xmlns="http://www.w3.org/2000/svg">
<g clip-path="url(#clip0_2069_5)">
<path d="M-327.978 1.25121C-168.427 -13.9625 -163.674 84.4048 -3.37024 84.4048C156.914 84.4048 156.914 1.0655 317.217 1.0655C477.521 1.0655 477.521 84.4048 637.805 84.4048C798.09 84.4048 798.089 1.0655 958.393 1.0655C1118.7 1.0655 1118.7 84.4048 1279 84.4048C1439.3 84.4048 1444.11 -14.1303 1603.66 1.25121C1620.99 2.9292 1566.9 74.0569 1573.27 90.1282C1579.64 106.2 1657.79 75.6791 1664.16 91.7505C1670.52 107.822 1592.37 138.343 1598.74 154.414C1605.11 170.486 1683.26 139.984 1689.63 156.055C1696 172.126 1617.85 202.647 1624.24 218.718C1630.6 234.789 1697.41 275.453 1680.07 277.093C1505.92 293.705 1512.96 365 1338 365C1163.04 365 1182.46 336.5 1007.5 336.5C832.543 336.5 812.781 343.5 637.805 343.5C462.849 343.5 376.957 386.5 202 386.5C27.0246 386.5 67.9566 372 -107 372C-281.975 372 -253.397 293.892 -427.565 277.093C-445.675 275.341 -377.837 238.537 -369.534 222.466C-361.249 206.395 -436 168.397 -427.696 152.326C-419.393 136.255 -344.642 174.251 -336.357 158.18C-328.054 142.108 -402.804 104.112 -394.519 88.0407C-386.216 71.9694 -300.701 97.2138 -298.784 79.2594C-294.67 40.3861 -346.088 2.98513 -327.978 1.25121Z" fill="#932BBC"/>
</g>
<defs>
<clipPath id="clip0_2069_5">
<rect width="1269" height="291" fill="white"/>
</clipPath>
</defs>
</svg>
