<svg width="47" height="47" viewBox="0 0 47 47" fill="none" xmlns="http://www.w3.org/2000/svg">
<path d="M23.4004 46.999C36.1858 46.999 46.5498 36.634 46.5498 23.8486C46.5498 11.0632 36.1858 0.699219 23.4004 0.699219C10.615 0.699219 0.25 11.0632 0.25 23.8486C0.25 36.634 10.615 46.999 23.4004 46.999Z" fill="url(#paint0_linear_0_1)"/>
<path d="M32.9502 27.08C34.9502 28.86 35.3697 29.4895 35.4297 29.5995C36.2597 30.9095 34.5098 31.0702 34.5098 31.0702H30.8301C30.8301 31.0702 29.93 31.0802 29.17 30.5702C27.92 29.7502 26.6105 28.1604 25.6905 28.4404C24.9205 28.6704 24.9297 29.7095 24.9297 30.5995C24.9297 30.9195 24.6501 31.0595 24.0401 31.0595C23.4201 31.0595 23.1597 31.0595 22.8897 31.0595C20.8697 31.0595 18.68 30.3795 16.5 28.0995C13.41 24.8695 10.7002 18.37 10.7002 18.37C10.7002 18.37 10.54 18.0398 10.71 17.8398C10.91 17.6198 11.4502 17.6396 11.4502 17.6396H15.0196C15.0196 17.6396 15.3597 17.7 15.5997 17.87C15.7997 18.01 15.9102 18.2802 15.9102 18.2802C15.9102 18.2802 16.5096 20.2602 17.2696 21.5302C18.7596 24.0002 19.4598 24.06 19.9698 23.79C20.7098 23.41 20.4698 20.7802 20.4698 20.7802C20.4698 20.7802 20.5002 19.6503 20.1202 19.1503C19.8202 18.7603 19.25 18.5595 19 18.5195C18.8 18.4895 19.1396 18.1404 19.5596 17.9404C20.1296 17.6904 20.91 17.6198 22.25 17.6298C23.3 17.6398 23.6 17.6997 24 17.7997C25.23 18.0897 24.9297 18.8397 24.9297 21.4697C24.9297 22.3097 24.8102 23.4996 25.4502 23.8896C25.7302 24.0596 26.6699 24.2697 28.3399 21.5497C29.1299 20.2597 29.7696 18.12 29.7696 18.12C29.7696 18.12 29.8997 17.8795 30.0997 17.7695C30.3097 17.6495 30.2999 17.6503 30.5899 17.6503C30.8799 17.6503 33.7297 17.6298 34.3497 17.6298C34.9697 17.6298 35.5602 17.6202 35.6602 17.9902C35.8102 18.5202 35.2002 20.3202 33.6602 22.2802C31.1402 25.5202 30.8602 25.22 32.9502 27.08Z" stroke="#EDEDED" stroke-width="1.3414" stroke-miterlimit="10"/>
<defs>
<linearGradient id="paint0_linear_0_1" x1="-56.5398" y1="47.1347" x2="97.1676" y2="2.37131" gradientUnits="userSpaceOnUse">
<stop stop-color="#F22D7A"/>
<stop offset="1" stop-color="#932BBC"/>
</linearGradient>
</defs>
</svg>
