<svg width="37" height="38" viewBox="0 0 37 38" fill="none" xmlns="http://www.w3.org/2000/svg">
<path d="M18.5703 37.6992C28.7379 37.6992 36.9802 29.4566 36.9802 19.2891C36.9802 9.1215 28.7379 0.878906 18.5703 0.878906C8.40275 0.878906 0.160156 9.1215 0.160156 19.2891C0.160156 29.4566 8.40275 37.6992 18.5703 37.6992Z" fill="white"/>
<path d="M26.1699 21.8495C27.7599 23.2595 28.0899 23.7695 28.1499 23.8495C28.8099 24.8995 27.4199 25.0194 27.4199 25.0194H24.49C24.49 25.0194 23.7799 25.03 23.1699 24.62C22.1799 23.97 21.1399 22.7095 20.3999 22.9295C19.7899 23.1095 19.79 23.9403 19.79 24.6503C19.79 24.9003 19.5701 25.0194 19.0801 25.0194C18.5901 25.0194 18.3799 25.0194 18.1599 25.0194C16.5499 25.0194 14.8101 24.48 13.0801 22.66C10.6201 20.09 8.46996 14.9198 8.46996 14.9198C8.46996 14.9198 8.33997 14.6599 8.47997 14.4999C8.63997 14.3199 9.06004 14.3495 9.06004 14.3495H11.8999C11.8999 14.3495 12.1701 14.3999 12.3601 14.5399C12.5201 14.6499 12.6101 14.8602 12.6101 14.8602C12.6101 14.8602 13.0899 16.4403 13.6999 17.4403C14.8899 19.4003 15.4401 19.4501 15.8401 19.2401C16.4301 18.9301 16.24 16.8495 16.24 16.8495C16.24 16.8495 16.2699 15.9494 15.9599 15.5594C15.7199 15.2494 15.2701 15.0894 15.0701 15.0594C14.9101 15.0394 15.18 14.7595 15.52 14.5995C15.98 14.3995 16.5899 14.3502 17.6599 14.3602C18.4899 14.3702 18.73 14.4201 19.06 14.4901C20.04 14.7201 19.8 15.31 19.8 17.41C19.8 18.08 19.7099 19.0197 20.2099 19.3397C20.4299 19.4697 21.18 19.6403 22.51 17.4803C23.14 16.4603 23.6499 14.7499 23.6499 14.7499C23.6499 14.7499 23.7499 14.5596 23.9199 14.4696C24.0899 14.3796 24.08 14.3797 24.31 14.3797C24.54 14.3797 26.8 14.3602 27.3 14.3602C27.8 14.3602 28.2601 14.3503 28.3401 14.6503C28.4601 15.0703 27.97 16.4994 26.75 18.0594C24.72 20.6094 24.4999 20.3695 26.1699 21.8495Z" stroke="#161616" stroke-width="1.0668" stroke-miterlimit="10"/>
</svg>
