<svg width="64" height="50" viewBox="0 0 64 50" fill="none" xmlns="http://www.w3.org/2000/svg">
<path d="M40.7687 23.308C34.1874 25.483 27.5121 27.3768 20.7433 28.8955C17.0683 29.683 13.356 30.4711 9.60596 30.8648C9.68096 31.1836 9.77451 31.4836 9.86826 31.8023C10.187 31.7648 10.4686 31.746 10.6561 31.7272C14.1436 31.371 17.5749 30.7712 21.0061 30.0399C27.8311 28.5962 34.5624 26.6837 41.1624 24.4149C46.1124 22.6899 50.9873 20.7775 55.6561 18.3962C56.1811 18.115 56.7058 17.8526 57.2308 17.5714C57.1558 17.3276 57.081 17.0836 57.006 16.8398C51.7748 19.4461 46.2812 21.4518 40.7687 23.308Z" fill="#EEEEEE"/>
<path d="M57.2302 17.5916C56.7239 17.8728 56.1992 18.1352 55.693 18.4164C51.0242 20.7789 46.1305 22.7101 41.1993 24.4351C39.568 24.9976 37.9178 25.5416 36.2678 26.0666C40.524 25.0353 42.7179 26.0292 43.8429 27.5479C46.7679 32.3479 41.5928 35.9853 40.0741 36.8478C38.1991 37.8416 36.0614 38.4042 33.7927 38.4042C28.1489 38.4042 23.3303 34.9355 21.3241 30.0043C21.2303 30.023 21.1555 30.0414 21.0618 30.0601C17.6493 30.7726 14.1993 31.3724 10.7118 31.7474C10.5243 31.7662 10.2427 31.785 9.92395 31.8225C9.8302 31.5225 9.7554 31.2038 9.66165 30.885C13.4117 30.4725 17.124 29.7041 20.799 28.9166C24.999 27.9791 29.1618 26.8917 33.2868 25.6729C30.9243 26.1042 29.068 26.1414 27.5868 25.9164C27.3993 25.8602 27.1741 25.8225 26.9303 25.7663C22.7866 24.96 22.3366 20.7226 22.2991 20.1788C22.2991 19.9538 22.2991 19.7479 22.2991 19.5416C22.3929 18.0979 23.0116 16.9352 23.7054 16.0727C26.1616 13.2789 29.7802 11.517 33.7927 11.517C39.9427 11.517 45.1179 15.6415 46.7304 21.2665C50.2367 19.9727 53.6867 18.5663 57.0242 16.8976C53.7242 7.12883 44.4804 0.0976562 33.6054 0.0976562C19.9554 0.0976562 8.89307 11.1605 8.89307 24.8105C8.89307 38.4605 19.9554 49.5224 33.6054 49.5224C47.2554 49.5224 58.3178 38.4605 58.3178 24.8105C58.2803 22.2792 57.9052 19.8603 57.2302 17.5916Z" fill="#EEEEEE"/>
<path d="M5.40541 31.1464C4.97416 31.1464 4.56179 31.1276 4.13054 31.1088C3.51179 31.0526 2.8931 30.9772 2.31185 30.771C1.9931 30.6585 1.6553 30.4713 1.5428 30.1713C1.2428 28.9713 4.22396 27.003 5.19896 26.3655C6.38021 25.5967 7.59931 24.9023 8.83681 24.246C8.83681 24.2273 8.83681 24.1906 8.83681 24.1719C6.24931 25.3344 1.76769 27.5091 0.961444 29.5341C0.00519401 32.5154 7.01812 32.0649 9.83062 31.8211C9.73687 31.5211 9.66161 31.2024 9.56786 30.8836C8.21786 31.0149 6.81166 31.1276 5.40541 31.1464Z" fill="#EEEEEE"/>
<path d="M63.0421 11.3849C61.9921 10.4849 59.5732 10.5788 58.2044 10.6351C59.2919 10.6726 62.8733 10.7472 63.0608 12.0972C63.1358 13.6534 58.9923 15.8286 57.6235 16.5411C57.4173 16.6536 57.2108 16.7472 56.9858 16.8597C57.0608 17.1035 57.1356 17.3475 57.2106 17.5912C59.0106 16.6162 60.7735 15.5473 62.2735 14.1598C62.9672 13.4848 63.9983 12.2474 63.0421 11.3849Z" fill="#EEEEEE"/>
</svg>
