<svg width="117" height="71" viewBox="0 0 117 71" fill="none" xmlns="http://www.w3.org/2000/svg">
<g clip-path="url(#clip0_2044_5)">
<path d="M76.8759 16.061C64.4072 20.2047 51.7322 23.7858 38.9072 26.6545C31.9322 28.1545 24.8821 29.6358 17.7759 30.4045C17.9259 31.0045 18.0942 31.5857 18.2629 32.1669C18.8817 32.1107 19.3885 32.0548 19.7635 32.036C26.3635 31.361 32.9072 30.2178 39.3759 28.8491C52.3134 26.1116 65.0819 22.492 77.5882 18.1795C86.9632 14.8983 96.2255 11.2615 105.094 6.78027C106.088 6.25527 107.082 5.72965 108.057 5.20465C107.907 4.7359 107.775 4.28594 107.607 3.83594C97.744 8.74844 87.3384 12.536 76.8759 16.061Z" fill="white"/>
<path d="M108.075 5.22809C107.1 5.75309 106.126 6.25948 105.17 6.78448C96.3008 11.2845 87.0385 14.9212 77.6635 18.1837C74.5697 19.2525 71.4572 20.284 68.326 21.259C76.3885 19.309 80.5504 21.2027 82.6879 24.0715C88.2191 33.184 78.4319 40.0655 75.5257 41.7155C71.9632 43.6093 67.9135 44.6782 63.601 44.6782C52.9135 44.6782 43.7628 38.0965 39.9565 28.759C39.7878 28.7965 39.6199 28.8341 39.4512 28.8716C32.9637 30.2216 26.4191 31.3844 19.8378 32.0594C19.4628 32.0969 18.9569 32.1341 18.3382 32.1904C18.1694 31.6091 18.0011 31.0092 17.8511 30.428C24.9574 29.6592 32.0074 28.178 38.9824 26.678C46.9512 24.8967 54.8443 22.8337 62.6818 20.5275C58.2193 21.3525 54.676 21.4279 51.8822 20.9779C51.526 20.8842 51.1136 20.7906 50.6261 20.6968C42.7511 19.1593 41.9065 11.1528 41.8315 10.084C41.8128 9.67155 41.8128 9.25923 41.8315 8.86548C42.0003 6.12798 43.1818 3.93419 44.4756 2.26544C49.1443 -3.02206 55.9885 -6.35974 63.601 -6.35974C75.2635 -6.35974 85.0698 1.45875 88.1261 12.1275C94.7636 9.67125 101.307 6.99015 107.644 3.84015C101.382 -14.6849 83.8693 -28.0156 63.2256 -28.0156C37.3318 -28.0156 16.3506 -7.03438 16.3506 18.8594C16.3506 44.7531 37.3318 65.7344 63.2256 65.7344C89.1193 65.7344 110.101 44.7531 110.101 18.8594C110.082 14.1344 109.388 9.55934 108.075 5.22809Z" fill="white"/>
<path d="M9.80717 30.9512C9.00092 30.9512 8.1946 30.9324 7.38835 30.8762C6.2071 30.7824 5.04398 30.6519 3.93773 30.2582C3.33773 30.0332 2.70019 29.7138 2.49394 29.1138C1.93144 26.8263 7.55728 23.114 9.45103 21.8765C11.6823 20.4328 14.0072 19.1205 16.3697 17.8455C16.3697 17.7892 16.3697 17.7516 16.3697 17.6953C11.4572 19.8891 2.96349 24.0144 1.44474 27.8769C-0.374006 33.5206 12.9385 32.6765 18.2822 32.189C18.1135 31.6078 17.9442 31.0079 17.7942 30.4266C15.1317 30.7079 12.4697 30.895 9.80717 30.9512Z" fill="white"/>
<path d="M119.12 -6.54509C117.132 -8.25134 112.538 -8.08216 109.951 -7.96966C111.994 -7.89466 118.782 -7.74517 119.139 -5.21392C119.27 -2.25142 111.414 1.85483 108.826 3.22358C108.432 3.42983 108.02 3.63667 107.626 3.82417C107.776 4.27417 107.926 4.74288 108.076 5.19288C111.488 3.33663 114.826 1.31167 117.676 -1.33208C118.988 -2.55083 120.92 -4.89509 119.12 -6.54509Z" fill="white"/>
</g>
<defs>
<clipPath id="clip0_2044_5">
<rect width="117" height="71" fill="white"/>
</clipPath>
</defs>
</svg>
