<?xml version="1.0" encoding="utf-8"?>
<!-- Generator: Adobe Illustrator 23.1.0, SVG Export Plug-In . SVG Version: 6.00 Build 0)  -->
<svg version="1.1" id="Слой_1" xmlns="http://www.w3.org/2000/svg" xmlns:xlink="http://www.w3.org/1999/xlink" x="0px" y="0px"
	 viewBox="0 0 1921 1126" style="enable-background:new 0 0 1921 1126;" xml:space="preserve">
<style type="text/css">
	.st0{fill:#EDEDED;}
</style>
<path class="st0" d="M1920.4,44.8c-69-13-137-24-207-30c-4,0-7-1-11-2c-106-10-210-14-316-12c-27,1-55,2-82,3c-21,2-43,3-64,4
	c-55,4-109,9-164,16c-115,15-223,32-338,47c-5,0-10,1-15,1c-3,0-6,1-9,2c-18,2-35,4-52,6c-125,13-247,18-372,9c-65-4-127-13-193-23
	c-11-2-20-5-31-7c-23-3-44-9-66-14v1080.5h1920L1920.4,44.8L1920.4,44.8z"/>
</svg>
