<svg width="1921" height="1126" viewBox="0 0 1921 1126" fill="none" xmlns="http://www.w3.org/2000/svg">
<path d="M1920.44 1080.74C1851.44 1093.74 1783.43 1104.76 1713.44 1110.76C1709.45 1110.76 1706.44 1111.75 1702.43 1112.77C1596.44 1122.76 1492.43 1126.78 1386.44 1124.77C1359.43 1123.78 1331.44 1122.76 1304.44 1121.77C1283.44 1119.76 1261.45 1118.77 1240.45 1117.77C1185.45 1113.78 1131.45 1108.77 1076.44 1101.77C961.443 1086.77 853.443 1069.75 738.448 1054.74C733.442 1054.74 728.454 1053.75 723.448 1053.75C720.448 1053.75 717.448 1052.76 714.448 1051.74C696.448 1049.74 679.442 1047.75 662.454 1045.74C537.446 1032.74 415.457 1027.73 290.45 1036.74C225.443 1040.73 163.455 1049.74 97.4546 1059.75C86.4482 1061.76 77.4476 1064.76 66.46 1066.75C43.4536 1069.75 22.4539 1075.75 0.459961 1080.76V0.273438H1920.46V1080.74H1920.44Z" fill="#161616"/>
</svg>
