<svg width="47" height="48" viewBox="0 0 47 48" fill="none" xmlns="http://www.w3.org/2000/svg">
<path d="M23.3203 47.1787C36.1057 47.1787 46.4697 36.8147 46.4697 24.0293C46.4697 11.2439 36.1057 0.878906 23.3203 0.878906C10.5349 0.878906 0.169922 11.2439 0.169922 24.0293C0.169922 36.8147 10.5349 47.1787 23.3203 47.1787Z" fill="url(#paint0_linear_0_1)"/>
<path d="M23.2197 14.5195C28.1097 14.5195 32.06 14.9295 33.96 15.2695C34.98 15.5395 35.7897 16.2196 35.9297 17.0996C36.3397 19.2796 36.6104 21.5897 36.6104 23.9697C36.5404 26.8897 36.1997 29.2697 35.9297 30.9697C35.7297 32.2597 34.37 32.6698 33.96 32.7998C31.51 33.2798 27.4304 33.6201 23.3604 33.6201C19.2804 33.6201 15.1398 33.3498 12.7598 32.7998C11.7398 32.5298 10.92 31.8497 10.79 30.9697C10.25 29.0697 10.04 26.55 10.04 24.04C10.04 20.91 10.3101 18.5999 10.5801 17.1699C10.7801 15.8799 12.2098 15.4698 12.5498 15.3398C14.7898 14.8598 18.9397 14.5195 23.2197 14.5195ZM23.2197 13.1602C18.7297 13.1602 14.5203 13.5005 12.2803 13.9805C10.7803 14.3205 9.48973 15.3404 9.21973 16.9004C8.94973 18.5304 8.67969 20.98 8.67969 24.04C8.67969 27.1 8.95004 29.4797 9.29004 31.1797C9.56004 32.6797 10.8496 33.7596 12.3496 34.0996C14.7296 34.5796 18.81 34.9199 23.29 34.9199C27.77 34.9199 31.8505 34.5796 34.2305 34.0996C35.7305 33.7596 37.02 32.7397 37.29 31.1797C37.56 29.4797 37.8997 27.0297 37.9697 23.9697C37.9697 20.9097 37.63 18.4598 37.29 16.7598C37.02 15.2598 35.7305 14.1798 34.2305 13.8398C31.8505 13.4998 27.7097 13.1602 23.2197 13.1602Z" fill="#EDEDED"/>
<path d="M20.9102 20.9087L24.9502 23.229C25.5702 23.589 25.5702 24.4784 24.9502 24.8384L22.2998 26.3687C21.6798 26.7187 20.9102 26.2789 20.9102 25.5689V20.9087ZM20.9404 28.6782L27.6602 24.8384C28.2802 24.4784 28.2802 23.589 27.6602 23.229L20.9404 19.3882C20.3204 19.0382 19.5498 19.479 19.5498 20.189V27.8687C19.5498 28.5787 20.3204 29.0282 20.9404 28.6782Z" fill="#EDEDED"/>
<defs>
<linearGradient id="paint0_linear_0_1" x1="-105.186" y1="61.4567" x2="48.5212" y2="16.6931" gradientUnits="userSpaceOnUse">
<stop stop-color="#F22D7A"/>
<stop offset="1" stop-color="#932BBC"/>
</linearGradient>
</defs>
</svg>
