<svg width="2029" height="161" viewBox="0 0 2029 161" fill="none" xmlns="http://www.w3.org/2000/svg">
<g clip-path="url(#clip0_2068_4)">
<path d="M8.56287 121.375L23.4701 37.3293H65.4929C75.6024 37.3293 83.3558 40.0708 88.7533 45.5539C94.2364 51.0371 96.2497 58.0623 94.7932 66.6296C93.3368 74.8543 88.9675 81.494 81.6852 86.5487C74.403 91.6035 65.6643 94.1308 55.4691 94.1308H33.6224L28.739 121.375H8.56287ZM36.9636 75.3683H57.5253C62.4087 75.3683 66.3068 74.5973 69.2197 73.0551C72.2183 71.4273 73.9746 69.157 74.4886 66.2441C75.0883 62.9885 74.1888 60.504 71.7899 58.7905C69.4767 56.9914 65.8356 56.0918 60.8665 56.0918H40.3049L36.9636 75.3683ZM114.861 102.355C114.604 103.898 115.161 105.054 116.532 105.825C117.988 106.596 120.001 106.982 122.572 106.982C127.369 106.982 131.353 106.254 134.523 104.797C137.779 103.255 139.621 101.285 140.049 98.8857H143.005C141.634 106.596 138.036 112.808 132.21 117.52C126.384 122.146 119.359 124.459 111.134 124.459C105.223 124.459 100.596 122.831 97.255 119.576C93.9994 116.235 92.8428 111.994 93.7852 106.853C94.7277 101.713 97.1265 97.6434 100.982 94.6449C104.837 91.5606 110.277 89.3331 117.303 87.9623L142.876 82.8219L140.691 95.0304L122.443 98.7572C117.645 99.7853 115.118 100.985 114.861 102.355ZM156.37 121.375H136.065L143.776 107.239L139.021 104.669L143.005 82.3079C143.262 80.5944 142.405 79.2236 140.434 78.1956C138.464 77.1675 135.722 76.6534 132.21 76.6534C128.526 76.6534 125.399 77.4245 122.829 78.9666C120.258 80.5087 118.545 82.5221 117.688 85.0066L98.1546 82.4364C100.553 75.6682 105.094 70.0994 111.777 65.7301C118.459 61.3607 126.384 59.176 135.551 59.176C144.889 59.176 152.129 61.275 157.269 65.473C162.495 69.671 164.594 74.8114 163.566 80.8943L156.37 121.375ZM221.678 90.661L221.421 92.2032C226.133 92.7172 229.646 94.088 231.959 96.3155C234.272 98.543 235.129 101.327 234.529 104.669C233.501 110.58 229.603 115.421 222.835 119.19C216.066 122.874 207.842 124.716 198.161 124.716C188.908 124.716 181.711 123.003 176.571 119.576C171.431 116.063 168.603 111.009 168.089 104.412L188.651 101.97C189.593 106.339 193.577 108.524 200.602 108.524C204.543 108.524 207.756 108.053 210.241 107.11C212.811 106.168 214.224 104.926 214.481 103.384C214.653 102.27 213.882 101.37 212.168 100.685C210.54 99.9995 208.184 99.6568 205.1 99.6568H190.707L193.534 83.336H207.927C214.61 83.336 218.08 82.6077 218.337 81.1513C218.594 79.7805 217.651 78.7096 215.51 77.9385C213.368 77.0818 210.326 76.6534 206.385 76.6534C199.189 76.6534 194.52 78.067 192.378 80.8943L172.716 78.3241C175.543 71.9842 180.084 67.1865 186.338 63.9309C192.678 60.6753 200.517 59.0475 209.855 59.0475C219.536 59.0475 227.118 60.761 232.601 64.1879C238.085 67.5292 240.355 71.8557 239.412 77.1675C238.727 80.7658 236.799 83.8072 233.63 86.2917C230.545 88.6906 226.561 90.147 221.678 90.661ZM265.806 91.9461C264.95 96.9152 265.721 100.771 268.119 103.512C270.604 106.168 274.416 107.496 279.557 107.496C284.783 107.496 289.067 106.168 292.408 103.512C295.835 100.771 297.977 96.9152 298.833 91.9461C299.69 86.9771 298.919 83.1646 296.52 80.5087C294.121 77.8529 290.309 76.5249 285.083 76.5249C279.857 76.5249 275.53 77.8529 272.103 80.5087C268.762 83.1646 266.663 86.9771 265.806 91.9461ZM262.208 91.9461C264.007 81.494 267.734 73.4407 273.388 67.7862C279.129 62.0461 286.239 59.176 294.721 59.176C303.631 59.176 310.356 62.0889 314.897 67.9147C319.524 73.6549 320.937 81.5368 319.138 91.5606C317.339 102.013 312.97 110.152 306.03 115.978C299.09 121.803 291.251 124.716 282.513 124.716C274.288 124.716 268.376 121.889 264.778 116.235C261.18 110.494 260.323 102.398 262.208 91.9461ZM235.863 146.692L250.771 62.2603H271.075L263.365 76.9105L268.119 78.9666L263.493 104.669L257.967 106.725L260.537 121.375L256.168 146.692H235.863ZM344.021 102.355C343.764 103.898 344.321 105.054 345.691 105.825C347.148 106.596 349.161 106.982 351.731 106.982C356.529 106.982 360.513 106.254 363.683 104.797C366.938 103.255 368.78 101.285 369.209 98.8857H372.165C370.794 106.596 367.195 112.808 361.37 117.52C355.544 122.146 348.519 124.459 340.294 124.459C334.383 124.459 329.756 122.831 326.415 119.576C323.159 116.235 322.003 111.994 322.945 106.853C323.888 101.713 326.286 97.6434 330.142 94.6449C333.997 91.5606 339.437 89.3331 346.463 87.9623L372.036 82.8219L369.851 95.0304L351.603 98.7572C346.805 99.7853 344.278 100.985 344.021 102.355ZM385.53 121.375H365.225L372.936 107.239L368.181 104.669L372.165 82.3079C372.422 80.5944 371.565 79.2236 369.594 78.1956C367.624 77.1675 364.882 76.6534 361.37 76.6534C357.686 76.6534 354.559 77.4245 351.988 78.9666C349.418 80.5087 347.705 82.5221 346.848 85.0066L327.314 82.4364C329.713 75.6682 334.254 70.0994 340.937 65.7301C347.619 61.3607 355.544 59.176 364.711 59.176C374.049 59.176 381.289 61.275 386.429 65.473C391.655 69.671 393.754 74.8114 392.726 80.8943L385.53 121.375ZM399.819 90.0185L418.068 92.0747C419.524 83.9357 423.165 77.296 428.991 72.1556C434.817 67.0152 441.585 64.445 449.296 64.445C457.606 64.445 463.903 67.3579 468.187 73.1837C472.47 79.0095 473.841 86.4202 472.299 95.4159C470.757 104.069 466.302 111.094 458.934 116.492C451.652 121.803 442.785 124.459 432.332 124.459C420.938 124.459 412.199 121.289 406.116 114.949C400.119 108.524 398.02 100.214 399.819 90.0185ZM419.353 94.9019C418.668 98.4145 419.738 101.327 422.566 103.641C425.393 105.954 429.163 107.11 433.875 107.11C438.844 107.11 442.956 105.997 446.212 103.769C449.467 101.456 451.438 98.3288 452.123 94.3878C452.894 90.3612 451.995 87.2341 449.424 85.0066C446.94 82.7791 443.042 81.6653 437.73 81.6653C432.761 81.6653 428.606 82.8648 425.264 85.2636C422.009 87.5768 420.038 90.7896 419.353 94.9019ZM444.541 38.9999C455.85 37.2865 462.918 34.5021 465.745 30.6468L480.01 41.4416C477.954 44.0975 473.927 46.7962 467.93 49.5378C461.933 52.2793 454.693 54.2926 446.212 55.5777C439.529 56.5202 434.646 57.9766 431.561 59.9471C428.563 61.9176 426.207 64.8305 424.493 68.6858L418.325 79.3521L422.566 81.6653C421.538 83.8072 420.552 87.534 419.61 92.8457L399.819 90.0185C401.361 81.4511 403.118 74.4259 405.088 68.9428C407.144 63.4597 409.929 58.7048 413.441 54.6782C416.954 50.6515 421.109 47.4816 425.907 45.1684C430.79 42.8552 437.002 40.7991 444.541 38.9999ZM499.684 91.5606C498.827 96.5297 499.47 100.385 501.612 103.127C503.839 105.782 507.352 107.11 512.149 107.11C516.947 107.11 520.931 105.782 524.101 103.127C527.271 100.385 529.284 96.5297 530.141 91.5606C530.998 86.6772 530.312 82.9076 528.085 80.2517C525.857 77.5102 522.345 76.1394 517.547 76.1394C512.749 76.1394 508.765 77.4673 505.595 80.1232C502.511 82.7791 500.541 86.5916 499.684 91.5606ZM479.379 91.5606C481.178 81.1941 485.762 73.1837 493.13 67.5292C500.583 61.7891 509.751 58.919 520.631 58.919C530.826 58.919 538.794 61.8319 544.534 67.6577C550.274 73.4835 552.245 81.4511 550.445 91.5606C548.646 101.927 544.02 110.023 536.566 115.849C529.113 121.589 519.946 124.459 509.065 124.459C498.185 124.459 490.046 121.589 484.648 115.849C479.336 110.023 477.58 101.927 479.379 91.5606ZM562.595 62.2603H628.906L625.565 81.0228H602.433L595.365 121.375H575.06L582.128 81.0228H559.253L562.595 62.2603ZM638.309 62.2603H658.485L653.988 87.0628L687.143 62.2603H712.331L680.846 87.9623L701.793 121.375H677.376L663.369 98.6287L650.261 108.395L647.948 121.375H627.771L638.309 62.2603ZM730.932 102.355C730.675 103.898 731.232 105.054 732.603 105.825C734.059 106.596 736.072 106.982 738.643 106.982C743.44 106.982 747.424 106.254 750.594 104.797C753.85 103.255 755.692 101.285 756.12 98.8857H759.076C757.705 106.596 754.107 112.808 748.281 117.52C742.455 122.146 735.43 124.459 727.205 124.459C721.294 124.459 716.667 122.831 713.326 119.576C710.071 116.235 708.914 111.994 709.856 106.853C710.799 101.713 713.198 97.6434 717.053 94.6449C720.908 91.5606 726.349 89.3331 733.374 87.9623L758.947 82.8219L756.763 95.0304L738.514 98.7572C733.716 99.7853 731.189 100.985 730.932 102.355ZM772.441 121.375H752.136L759.847 107.239L755.092 104.669L759.076 82.3079C759.333 80.5944 758.476 79.2236 756.506 78.1956C754.535 77.1675 751.794 76.6534 748.281 76.6534C744.597 76.6534 741.47 77.4245 738.9 78.9666C736.329 80.5087 734.616 82.5221 733.759 85.0066L714.226 82.4364C716.625 75.6682 721.165 70.0994 727.848 65.7301C734.53 61.3607 742.455 59.176 751.622 59.176C760.961 59.176 768.2 61.275 773.34 65.473C778.567 69.671 780.666 74.8114 779.637 80.8943L772.441 121.375ZM895.963 83.593L876.044 86.1632C875.445 82.9076 873.988 80.4231 871.675 78.7096C869.447 76.9961 866.449 76.1394 862.679 76.1394C857.796 76.1394 853.726 77.5102 850.471 80.2517C847.215 82.9076 845.159 86.6772 844.302 91.5606C843.445 96.5297 844.131 100.385 846.358 103.127C848.672 105.782 852.313 107.11 857.282 107.11C861.308 107.11 864.821 106.168 867.82 104.283C870.904 102.313 873.131 99.5283 874.502 95.93L893.907 98.5002C890.652 106.811 885.425 113.236 878.229 117.777C871.118 122.232 863.108 124.459 854.197 124.459C843.231 124.459 835.007 121.589 829.524 115.849C824.04 110.023 822.198 101.927 823.998 91.5606C825.797 81.2798 830.466 73.2693 838.005 67.5292C845.544 61.7891 854.797 58.919 865.763 58.919C873.817 58.919 880.542 61.0609 885.94 65.3445C891.337 69.6282 894.678 75.711 895.963 83.593ZM919.054 102.355C918.797 103.898 919.354 105.054 920.725 105.825C922.181 106.596 924.194 106.982 926.765 106.982C931.562 106.982 935.546 106.254 938.716 104.797C941.972 103.255 943.814 101.285 944.242 98.8857H947.198C945.827 106.596 942.229 112.808 936.403 117.52C930.577 122.146 923.552 124.459 915.327 124.459C909.416 124.459 904.789 122.831 901.448 119.576C898.192 116.235 897.036 111.994 897.978 106.853C898.921 101.713 901.32 97.6434 905.175 94.6449C909.03 91.5606 914.47 89.3331 921.496 87.9623L947.069 82.8219L944.885 95.0304L926.636 98.7572C921.838 99.7853 919.311 100.985 919.054 102.355ZM960.563 121.375H940.258L947.969 107.239L943.214 104.669L947.198 82.3079C947.455 80.5944 946.598 79.2236 944.628 78.1956C942.657 77.1675 939.915 76.6534 936.403 76.6534C932.719 76.6534 929.592 77.4245 927.022 78.9666C924.451 80.5087 922.738 82.5221 921.881 85.0066L902.348 82.4364C904.747 75.6682 909.287 70.0994 915.97 65.7301C922.652 61.3607 930.577 59.176 939.744 59.176C949.083 59.176 956.322 61.275 961.462 65.473C966.688 69.671 968.787 74.8114 967.759 80.8943L960.563 121.375ZM1032.55 37.2008H1047.08C1046.22 41.9985 1043.13 46.0251 1037.82 49.2807C1032.6 52.4507 1026.47 54.0356 1019.45 54.0356C1012.51 54.0356 1006.98 52.4507 1002.87 49.2807C998.755 46.0251 997.128 41.9985 997.984 37.2008H1012.51C1012.16 38.9999 1012.85 40.5849 1014.56 41.9557C1016.28 43.2408 1018.5 43.8833 1021.24 43.8833C1024.07 43.8833 1026.56 43.2408 1028.7 41.9557C1030.93 40.5849 1032.21 38.9999 1032.55 37.2008ZM1002.35 62.2603L996.314 96.444L1031.01 62.2603H1054.01L1043.48 121.375H1023.3L1029.47 86.9343L994.643 121.375H971.511L982.049 62.2603H1002.35ZM1063.46 62.2603H1129.77L1126.43 81.0228H1103.3L1096.23 121.375H1075.92L1082.99 81.0228H1060.12L1063.46 62.2603ZM1152.02 91.5606C1151.17 96.5297 1151.81 100.385 1153.95 103.127C1156.18 105.782 1159.69 107.11 1164.49 107.11C1169.29 107.11 1173.27 105.782 1176.44 103.127C1179.61 100.385 1181.62 96.5297 1182.48 91.5606C1183.34 86.6772 1182.65 82.9076 1180.42 80.2517C1178.2 77.5102 1174.68 76.1394 1169.89 76.1394C1165.09 76.1394 1161.11 77.4673 1157.94 80.1232C1154.85 82.7791 1152.88 86.5916 1152.02 91.5606ZM1131.72 91.5606C1133.52 81.1941 1138.1 73.1837 1145.47 67.5292C1152.92 61.7891 1162.09 58.919 1172.97 58.919C1183.17 58.919 1191.13 61.8319 1196.87 67.6577C1202.61 73.4835 1204.58 81.4511 1202.79 91.5606C1200.99 101.927 1196.36 110.023 1188.91 115.849C1181.45 121.589 1172.29 124.459 1161.41 124.459C1150.52 124.459 1142.39 121.589 1136.99 115.849C1131.68 110.023 1129.92 101.927 1131.72 91.5606ZM1229.2 105.054H1249.76C1256.7 105.054 1260.34 104.069 1260.68 102.098C1260.94 100.642 1257.6 99.9138 1250.66 99.9138H1230.1L1229.2 105.054ZM1232.93 83.593H1253.49C1259.49 83.593 1262.65 82.7362 1263 81.0228C1263.17 80.166 1262.57 79.5235 1261.2 79.0951C1259.83 78.6668 1257.56 78.4526 1254.39 78.4526H1233.83L1232.93 83.593ZM1266.85 90.9181L1266.6 92.5887C1271.22 93.2741 1274.78 94.8162 1277.26 97.2151C1279.83 99.5283 1280.82 102.27 1280.22 105.44C1279.36 110.323 1276.06 114.221 1270.32 117.134C1264.58 119.961 1257.21 121.375 1248.22 121.375H1206.07L1216.61 62.2603H1258.76C1267.67 62.2603 1274.26 63.6311 1278.55 66.3726C1282.92 69.1142 1284.72 72.841 1283.94 77.553C1283.26 80.9799 1281.42 83.9357 1278.42 86.4202C1275.51 88.8191 1271.65 90.3184 1266.85 90.9181ZM1334.2 62.2603H1405.14L1394.6 121.375H1374.29L1381.49 81.1513H1351.03L1343.84 121.375H1323.66L1334.2 62.2603ZM1429 91.5606C1428.14 96.5297 1428.78 100.385 1430.93 103.127C1433.15 105.782 1436.67 107.11 1441.46 107.11C1446.26 107.11 1450.25 105.782 1453.42 103.127C1456.59 100.385 1458.6 96.5297 1459.46 91.5606C1460.31 86.6772 1459.63 82.9076 1457.4 80.2517C1455.17 77.5102 1451.66 76.1394 1446.86 76.1394C1442.06 76.1394 1438.08 77.4673 1434.91 80.1232C1431.83 82.7791 1429.86 86.5916 1429 91.5606ZM1408.69 91.5606C1410.49 81.1941 1415.08 73.1837 1422.44 67.5292C1429.9 61.7891 1439.07 58.919 1449.95 58.919C1460.14 58.919 1468.11 61.8319 1473.85 67.6577C1479.59 73.4835 1481.56 81.4511 1479.76 91.5606C1477.96 101.927 1473.33 110.023 1465.88 115.849C1458.43 121.589 1449.26 124.459 1438.38 124.459C1427.5 124.459 1419.36 121.589 1413.96 115.849C1408.65 110.023 1406.89 101.927 1408.69 91.5606ZM1563.88 108.781L1558.09 141.937H1537.79L1540.23 127.801H1499.88L1497.44 141.937H1477.39L1483.17 108.781H1486.9C1488.78 108.781 1490.37 108.61 1491.65 108.267C1492.94 107.924 1494.27 107.196 1495.64 106.082C1497.09 104.969 1498.34 103.169 1499.36 100.685C1500.48 98.2003 1501.38 95.0304 1502.06 91.1751L1507.07 62.2603H1563.23L1555.01 108.781H1563.88ZM1534.83 108.781L1539.84 81.0228H1524.04L1521.98 92.5887C1520.7 99.6996 1517.87 104.112 1513.5 105.825L1513.37 108.781H1534.83ZM1618.2 62.2603H1638.38L1633.88 87.0628L1667.03 62.2603H1692.22L1660.74 87.9623L1681.68 121.375H1657.27L1643.26 98.6287L1630.15 108.395L1627.84 121.375H1607.66L1618.2 62.2603ZM1769.17 62.2603L1758.76 121.375H1738.58L1745.78 81.0228H1727.66L1725.6 92.5887C1724.74 97.3864 1723.46 101.542 1721.75 105.054C1720.12 108.567 1718.23 111.351 1716.09 113.407C1714.04 115.464 1711.59 117.134 1708.77 118.419C1706.03 119.619 1703.33 120.433 1700.67 120.861C1698.01 121.204 1695.02 121.375 1691.67 121.375H1686.79L1690.13 102.355H1695.02C1697.84 102.355 1700.11 101.67 1701.83 100.299C1703.54 98.8429 1704.83 95.8015 1705.68 91.1751L1710.69 62.2603H1769.17ZM1822.11 91.5606C1821.26 96.5297 1821.73 100.385 1823.53 103.127C1825.33 105.782 1828.28 107.11 1832.39 107.11C1836.51 107.11 1839.93 105.782 1842.67 103.127C1845.5 100.385 1847.34 96.5297 1848.2 91.5606C1849.06 86.6772 1848.59 82.9076 1846.79 80.2517C1844.99 77.5102 1841.99 76.1394 1837.79 76.1394C1833.76 76.1394 1830.34 77.5102 1827.51 80.2517C1824.77 82.9076 1822.97 86.6772 1822.11 91.5606ZM1801.81 91.5606C1803.61 81.6225 1807.98 73.9119 1814.92 68.4288C1821.86 62.9457 1830.42 60.2041 1840.62 60.2041C1850.21 60.2041 1857.67 62.9885 1862.98 68.5573C1868.38 74.1261 1870.22 81.7938 1868.5 91.5606C1866.79 101.584 1862.42 109.381 1855.4 114.949C1848.37 120.433 1839.76 123.174 1829.57 123.174C1819.37 123.174 1811.75 120.433 1806.69 114.949C1801.72 109.381 1800.09 101.584 1801.81 91.5606ZM1769.68 121.375L1780.22 62.2603H1800.27L1796.8 81.7938H1813.25L1809.9 100.813H1793.45L1789.73 121.375H1769.68ZM1898.05 81.5368C1897.71 83.5073 1898.56 85.0923 1900.62 86.2917C1902.76 87.4911 1905.72 88.0908 1909.49 88.0908C1913.26 88.0908 1916.6 87.2341 1919.51 85.5206C1922.42 83.8072 1924.44 81.9652 1925.55 79.9947L1931.2 91.5606C1923.49 100.899 1912.53 105.568 1898.31 105.568C1891.2 105.568 1885.58 103.898 1881.47 100.556C1877.36 97.2151 1875.73 93.0599 1876.59 88.0908L1881.21 62.2603H1901.52L1898.05 81.5368ZM1926.06 62.2603H1946.24L1935.83 121.375H1915.66L1926.06 62.2603Z" fill="black"/>
</g>
<defs>
<clipPath id="clip0_2068_4">
<rect width="2029" height="161" fill="white"/>
</clipPath>
</defs>
</svg>
