<svg width="480" height="824" viewBox="0 0 480 824" fill="none" xmlns="http://www.w3.org/2000/svg">
<path d="M480.002 803.864C462.75 809.634 445.749 814.515 428.257 817.175C427.257 817.175 426.507 817.615 425.507 818.065C399.004 822.506 373.011 824.276 346.508 823.386C339.758 822.946 332.757 822.496 326.006 822.056C320.756 821.166 315.255 820.726 310.004 820.286C296.253 818.515 282.752 816.295 269 813.185C240.247 806.534 213.254 798.983 184.501 792.332C183.251 792.332 182.001 791.892 180.751 791.892C180.001 791.892 179.25 791.452 178.5 791.002C174 790.112 169.749 789.232 165.499 788.342C134.246 782.571 103.752 780.351 72.4989 784.351C56.2472 786.121 40.7463 790.122 24.2545 794.552C21.5042 795.442 19.254 796.773 16.5037 797.663C10.7531 798.993 5.50254 801.653 0.00195312 803.874V0.609375H480.002V803.864Z" fill="#161616"/>
</svg>
