<svg width="47" height="48" viewBox="0 0 47 48" fill="none" xmlns="http://www.w3.org/2000/svg">
<path d="M23.6396 47.1787C36.425 47.1787 46.79 36.8147 46.79 24.0293C46.79 11.2439 36.425 0.878906 23.6396 0.878906C10.8543 0.878906 0.490234 11.2439 0.490234 24.0293C0.490234 36.8147 10.8543 47.1787 23.6396 47.1787Z" fill="url(#paint0_linear_0_1)"/>
<path d="M33.18 27.2499C35.18 29.0299 35.6005 29.6595 35.6605 29.7695C36.4905 31.0795 34.7406 31.2402 34.7406 31.2402H31.0599C31.0599 31.2402 30.1607 31.2502 29.4007 30.7402C28.1507 29.9202 26.8402 28.3403 25.9202 28.6103C25.1502 28.8403 25.1605 29.8802 25.1605 30.7802C25.1605 31.1002 24.8899 31.2402 24.2699 31.2402C23.6499 31.2402 23.3904 31.2402 23.1204 31.2402C21.1004 31.2402 18.9108 30.5602 16.7308 28.2802C13.6408 25.0502 10.93 18.5497 10.93 18.5497C10.93 18.5497 10.7707 18.2195 10.9407 18.0195C11.1407 17.7995 11.68 17.8202 11.68 17.8202H15.2503C15.2503 17.8202 15.5904 17.8797 15.8304 18.0497C16.0304 18.1897 16.14 18.4599 16.14 18.4599C16.14 18.4599 16.7401 20.4399 17.5101 21.7099C19.0001 24.1799 19.7003 24.2397 20.2103 23.9697C20.9503 23.5897 20.7103 20.9599 20.7103 20.9599C20.7103 20.9599 20.7407 19.83 20.3607 19.33C20.0607 18.94 19.4906 18.7401 19.2406 18.7001C19.0406 18.6701 19.3801 18.32 19.8001 18.12C20.3701 17.87 21.1506 17.7995 22.4906 17.8095C23.5406 17.8195 23.8406 17.8804 24.2406 17.9804C25.4706 18.2604 25.1702 19.0103 25.1702 21.6503C25.1702 22.4903 25.0507 23.6802 25.6907 24.0702C25.9607 24.2402 26.9104 24.4504 28.5804 21.7304C29.3704 20.4404 30.0101 18.2997 30.0101 18.2997C30.0101 18.2997 30.1402 18.0601 30.3402 17.9501C30.5502 17.8301 30.5404 17.83 30.8304 17.83C31.1204 17.83 33.9702 17.8095 34.5902 17.8095C35.2102 17.8095 35.8007 17.7999 35.9007 18.1699C36.0407 18.6999 35.4407 20.4999 33.9007 22.4599C31.3707 25.6999 31.09 25.3999 33.18 27.2499Z" stroke="#EDEDED" stroke-width="1.3414" stroke-miterlimit="10"/>
<defs>
<linearGradient id="paint0_linear_0_1" x1="-56.3052" y1="47.3122" x2="97.4021" y2="2.5487" gradientUnits="userSpaceOnUse">
<stop stop-color="#F22D7A"/>
<stop offset="1" stop-color="#932BBC"/>
</linearGradient>
</defs>
</svg>
