<svg width="48" height="47" viewBox="0 0 48 47" fill="none" xmlns="http://www.w3.org/2000/svg">
<path d="M24.0898 46.999C36.8752 46.999 47.2402 36.634 47.2402 23.8486C47.2402 11.0632 36.8752 0.699219 24.0898 0.699219C11.3045 0.699219 0.94043 11.0632 0.94043 23.8486C0.94043 36.634 11.3045 46.999 24.0898 46.999Z" fill="url(#paint0_linear_0_1)"/>
<path d="M23.9902 14.3398C28.8802 14.3398 32.8305 14.7498 34.7305 15.0898C35.7505 15.3598 36.5602 16.0399 36.7002 16.9199C37.1102 19.0999 37.3799 21.41 37.3799 23.79C37.3099 26.71 36.9702 29.09 36.7002 30.79C36.5002 32.08 35.1405 32.4901 34.7305 32.6201C32.2805 33.1001 28.1999 33.4404 24.1299 33.4404C20.0499 33.4404 15.9103 33.1701 13.5303 32.6201C12.5103 32.3501 11.6996 31.67 11.5596 30.79C11.0196 28.89 10.8096 26.3704 10.8096 23.8604C10.8096 20.7304 11.0796 18.4202 11.3496 16.9902C11.5496 15.7002 12.9803 15.2904 13.3203 15.1504C15.5603 14.6804 19.7002 14.3398 23.9902 14.3398ZM23.9902 12.9805C19.5002 12.9805 15.2898 13.3198 13.0498 13.7998C11.5498 14.1398 10.2602 15.1597 9.99023 16.7197C9.72023 18.3497 9.4502 20.8004 9.4502 23.8604C9.4502 26.9204 9.71957 29.3 10.0596 31C10.3296 32.5 11.6201 33.5799 13.1201 33.9199C15.5001 34.3999 19.5796 34.7402 24.0596 34.7402C28.5396 34.7402 32.62 34.3999 35 33.9199C36.5 33.5799 37.7896 32.56 38.0596 31C38.3296 29.3 38.6702 26.85 38.7402 23.79C38.7402 20.73 38.3996 18.2801 38.0596 16.5801C37.7896 15.0801 36.5 14.0002 35 13.6602C32.62 13.3202 28.4702 12.9805 23.9902 12.9805Z" fill="#EDEDED"/>
<path d="M21.6797 20.7292L25.7197 23.0485C26.3397 23.4085 26.3397 24.2988 25.7197 24.6588L23.0703 26.1784C22.4503 26.5384 21.6797 26.0886 21.6797 25.3786V20.7292ZM21.7002 28.4987L28.4199 24.6588C29.0399 24.2988 29.0399 23.4085 28.4199 23.0485L21.7002 19.2086C21.0802 18.8586 20.3096 19.2984 20.3096 20.0084V27.6891C20.3196 28.4091 21.0802 28.8487 21.7002 28.4987Z" fill="#EDEDED"/>
<defs>
<linearGradient id="paint0_linear_0_1" x1="-104.42" y1="61.2793" x2="49.2873" y2="16.5148" gradientUnits="userSpaceOnUse">
<stop stop-color="#F22D7A"/>
<stop offset="1" stop-color="#932BBC"/>
</linearGradient>
</defs>
</svg>
