<svg width="37" height="38" viewBox="0 0 37 38" fill="none" xmlns="http://www.w3.org/2000/svg">
<path d="M18.4802 37.6992C28.6478 37.6992 36.8901 29.4566 36.8901 19.2891C36.8901 9.1215 28.6478 0.878906 18.4802 0.878906C8.31266 0.878906 0.0703125 9.1215 0.0703125 19.2891C0.0703125 29.4566 8.31266 37.6992 18.4802 37.6992Z" fill="white"/>
<path d="M18.3899 11.7207C22.2799 11.7207 25.4199 12.0405 26.9299 12.3105C27.7399 12.5305 28.39 13.0705 28.5 13.7705C28.82 15.5005 29.04 17.3414 29.04 19.2314C28.99 21.5614 28.72 23.4508 28.5 24.8008C28.34 25.8308 27.2599 26.1507 26.9299 26.2607C24.9799 26.6407 21.74 26.9111 18.5 26.9111C15.26 26.9111 11.9601 26.6907 10.0701 26.2607C9.26007 26.0407 8.61 25.5008 8.5 24.8008C8.07 23.2908 7.90991 21.291 7.90991 19.291C7.90991 16.801 8.13009 14.9611 8.34009 13.8311C8.50009 12.8011 9.63991 12.4811 9.90991 12.3711C11.6899 11.9911 14.9899 11.7207 18.3899 11.7207ZM18.3899 10.6406C14.8199 10.6406 11.4699 10.911 9.68994 11.291C8.49994 11.561 7.47001 12.3711 7.26001 13.6211C7.04001 14.9211 6.83008 16.8608 6.83008 19.3008C6.83008 21.7308 7.05007 23.6214 7.32007 24.9814C7.54007 26.1714 8.56 27.0305 9.75 27.3105C11.64 27.6905 14.89 27.9609 18.45 27.9609C22.01 27.9609 25.2599 27.6905 27.1499 27.3105C28.3399 27.0405 29.3701 26.2314 29.5801 24.9814C29.8001 23.6314 30.0701 21.681 30.1201 19.251C30.1201 16.821 29.8501 14.8705 29.5801 13.5205C29.3601 12.3305 28.3399 11.4712 27.1499 11.2012C25.2599 10.9112 21.9599 10.6406 18.3899 10.6406Z" fill="#161616"/>
<path d="M16.5605 16.8005L19.7705 18.651C20.2605 18.931 20.2605 19.6503 19.7705 19.9303L17.6604 21.1403C17.1704 21.4203 16.5605 21.0707 16.5605 20.5007V16.8005ZM16.5806 22.9811L21.9304 19.9303C22.4204 19.6503 22.4204 18.931 21.9304 18.651L16.5806 15.6003C16.0906 15.3203 15.4805 15.6709 15.4805 16.2409V22.3503C15.4805 22.9103 16.0906 23.2611 16.5806 22.9811Z" fill="#161616"/>
</svg>
